<?xml version="1.0" encoding="UTF-8"?>
<svg id="Camada_2" data-name="Camada 2" xmlns="http://www.w3.org/2000/svg" viewBox="0 0 121.49 150.78">
  <g id="Layer_1" data-name="Layer 1">
    <path d="M1.58,22.76c.77,8.29.94,16.66,2.12,24.82.54,3.74-1.56,5.08,3.17,6.59,1.39.45,2.87.33,4.06.83.84.35,1.2,1.36,2.33,1.58.74.14,3.71.16,4.32-.05,1.03-.36.72-3.39,3.73-2.38.6,2-.94,2-1.31,2.54-.13.19.31.79-.12,1.11-1.52,1.1-4.58.65-6.39.74-.64,1.7.82,1.94.96,2.34,4.85,13.61,9.18,27.7,13.94,41.34,4.47,12.82,9.36,25.59,14.16,38.33.27.71,1.91,4.5,2.17,4.65,3.16-1.31,16.73.47,18.46-1.37.1-.12,1.28-2.53,1.37-2.78.25-.77.29-1.22.2-1.52.99.04,2,.09,3.04.14.16.47.01,1.1.22,1.37,1.7,2.2,3.99,4.31,5.2,6.68,8.92,5.24,19.38,2.42,28.96,1.16.74-.1,1.66.44,2.75.36,1.59-.13,3.14-1.35,4.78-1.38.54-3.01-3.94-4.97-4.64-6.35-.11-.22-.92-2.81-.98-3.16-.18-.97-.34-1.9-.54-2.83,1.17.07,2.19-.44,2.94-1.28.07-.01.13-.01.19.02.23.15,1.68,2.84,2.18,3.22.98.74,2.76.3,2.81,2.08h.96c.91-3.09,5.52-3.09,8.87-3.6V40.59c-.19.15-.38.32-.57.49h-.03c-2.64.53-5.63,2.41-7.68,4.8-.06-.29-.11-.6-.14-.96l-1.91-.05.49-1.46c-.28-.31-1.86,2.45-2.44.73-.55-1.65.95-.82.97-1.7-.95-.24-5.18,1.01-5.51.93-.81-.2-5.21-4.02-1.79-3.64,2.14.24,1.19,2.25,3.39,2.7l.99-4.39c2.11-.21,3.28,1.63,5.36.48l-.88-.53c-.95-1.31,4.46-5.33,5-7.21.45-1.6-1.07-13.01-1.49-15.26-.38-2.08-2.17-9.91-3.15-11.33-.31-.45-5.21-3.99-5.7-4.11l-11.81-.08c-1.02,2.12,1.47,3.06,2.59,4.9,5.11,8.36,5.19,19.13,4.67,28.52-.03.55-.02,2.51-.7,2.66-2.44.21-1.26-1.58-1.5-2.5-.37-1.44-1.14-2.79-1.19-4.32-.9.16-.64,1.48-1.47,2.18-2.19,1.87-11.2,1.79-9.55-3.16.22-.63,1.96-3.19,2.48-3.42,1.28-.54,1.22,3.84.72,4.39,1.68.36,3.72,1.04,4.64-.98,1.22-2.67-1.39-3.11-1.61-4.21-.14-.75.83-1.87.83-2.86.01-1.2-1.19-2.58-.43-4.15l-3.37-.54c1.01-2.42-3.52-13.92-5.26-14.51-10.15-1.09-19.83,1.9-29.77,3.28-5.11.7-12.59,1.86-17.54,2.03-3.59.12-6.58-.65-10.66.04-3.57.61-2.45.91-4.55,2.28-.86.55-2.73.7-3.42,1.23-3.7,2.83-1.92,9.39-1.8,13.35.27,8.44,1.29,17.45,1.11,25.82-.02.71.47,1.38-.67,1.18-1.96-1.08-.65-2.29-.85-3.53-1.55-9.62-3.35-19.2-4.9-28.8-.69-4.32-1.72-8.52-3.3-12.57L.35,9.04C.18,9.31-.03,13.69,0,14.28c.17,2.76,1.33,5.84,1.58,8.48ZM111.4,135.67c.8.2.52,1.75.25,1.95-1.6,1.14-2.82-2.61-.25-1.95ZM107.64,43.54c.08.03.97,1.08,1.08,1.32l-2.44.49c-.59-1.23-.3-2.44,1.36-1.82ZM105.06,31.68c-.98-.83-1.38-2.14-1.21-3.39l1.46-.29c1.17,1.34,1.36,2.56-.25,3.68ZM105.05,24.37c-1.84.39-1.49-5.36-.48-5.36,1.64.6,1.67,5.11.48,5.36ZM104.29,11.72c-.38.92,2.04,4,.27,4.35-1.27.25-4.1-5.69-.27-4.35ZM97.01,1.67c-.51-1.47,1.13-1.63,1.86-1.13.07.05.38,1.06.58,1.37-.69-.13-2.04.88-2.44-.24ZM100.5,8.18l-1.04-2.12c.52-.96,1.68-.75,2.3-.11.51.53.64,1.58.61,2.31l-1.87-.08ZM103.84,37.07v1.95c-2.68-.1-2.63-2.01,0-1.95ZM13.73,51.24c-1.89-.43-1.51-2.41-1.61-3.85l1.86-.56.87,3.68-1.11.73ZM13.98,43.41h-1.45s-.77-2.42-.77-2.42c1.58-3.47,3.33.25,2.22,2.42ZM12.76,36.57c-1.36.3-2.42-4.06-.96-4.39,1.36-.3,2.42,4.06.96,4.39ZM11.97,26.53c-2.38,2.37-2.66-1.14-2.38-3.13h1.93s.44,3.13.44,3.13ZM9.83,20.95c-1.44-.96-1.32-2.33-1.22-3.89.21-.23,1.55.34,1.82.62.96,1.01.38,2.48-.6,3.27ZM7.15,11.68c1.17-.89,3.58,2.11,1.15,2.89l-1.54-1.26c.05-.32.32-1.58.39-1.63Z" style="fill: #fff;"/>
  </g>
</svg>