<?xml version="1.0" encoding="UTF-8"?>
<svg id="Camada_2" data-name="Camada 2" xmlns="http://www.w3.org/2000/svg" viewBox="0 0 110.53 141.67">
  <g id="Layer_1" data-name="Layer 1">
    <path d="M110.43,59.4l-1-13.88-5.37-.49c1.19,2.04-1.6,3.14-1.72.47-1.89,1.42-3.19.54-4.79.67-.03.01-.06.01-.09.01.1-.82.16-1.62.13-2.42l2.07-.7-.97-.48c1.15-2.62,1.45-7.04,1.4-10.03-.03-2.13-.28-4.58-.88-5.96-.77-1.77-.02-2.37.46-4.02,1.17-.27.79.22,1.08.64,1.08,1.53,2.1,3.14,2.3,5.05l-.91,13.32c2.13.4,6.46.82,7.43-1.58.37-.93.35-6.54.37-7.93.03-2.04-.01-4.29-.03-6.33-.02-4.04-.83-14.95-2.54-18.44-.37-.75-1.02-1.25-1.6-1.81l-.74,1.95-1.23-.49.26-1.46-1.88.56-.54,11.31c-.48,1.37-6.22-.72-6.9-1.83-1.25-2.07-.3-6.61-3.23-8.59-3.66,0-7.52.56-11.16.52-11.17-.13-22.84-3.14-34.19-2-4.56.46-7.48,1.68-12.69,1.51-2.35-.08-12.85-2.15-13.65-1.9-.32.1.08,1.31-2.4.88-1.33-.23-1.77-1.01-2.73-1.44C14.65-.75,10.55-.43,6.4.63c.98,4.06.19,8.29.49,12.41.37,5.08,2.03,10.89,1.91,16.1-.04,1.93-1.65,1.85-1.92,2.46v.73h.98c.21.83-.8.26-.92.72-.03.1.28,1.85.34,2.01.06.15.1.3.16.45-.33.44-.66.89-1.02,1.31-.56.67-.91,1.43-1.06,2.2-1.19.52-2.33,1.25-3.37,2.21h-.03c-.64.13-1.3.34-1.96.61v94.6c1.35-.17,2.69-.3,3.78-.55,1.05-.25,7.13-1.86,7.38-2.15.07-.07.35-.72.68-1.53,3.09-.19,6.13-.63,9.13-1.33.21-.05.42-.11.63-.16-.07.22-.11.44-.07.7,2.49,1.13,3.29-1.14,5.62-1.03,1.26.07,1.81,2.48,1.99,2.53.6.15,1.62-.2,2.38-.01,2.74.69,8.03,1.84,10.79,1.95,1.72.06,2.78-.75,4.62-.29,3.8.96,2.33,4.28,3.42,7.1,3.53-1.21,8.28-2.72,12.01-2.88,1.45-.06,2.83.57,4.78.39,4.13-.4,8.55-3.64,13-1.65l.97-1.71-1.47-.25c1.04-1.27,3.05-4.83,4.26-5.64.38-.25,7.58-3.72,8.17-3.9,1.29-.42,2.6-.32,3.71-.69,1.97-.67,5.17-3.04,7.53-3.7l3.69-13.4-1.47-.73c1.17-.12,2.2-1.62,2.41-2.72,2.22-11.69,2.1-26.69,2.08-38.53-.01-2.03.79-4.64.41-6.86ZM106.05,30.09l-1.48.28-.02-4.88,1.42.04c.63,1.55.75,3,.08,4.56ZM89.18,27.38c.39-1.81,3.27-3.47,4.61-1.64-3.37,2.52.26,4.93.91,2.86,1.12-3.56-1.16-4.8-4.28-5.09l-.03-1.92,2.02,1.89,2.73-.82.85.39,1.75,6.08c-1.57,4.21-9.66,3.3-8.56-1.75Z" style="fill: #fff;"/>
  </g>
</svg>