<?xml version="1.0" encoding="UTF-8"?>
<svg id="Camada_2" data-name="Camada 2" xmlns="http://www.w3.org/2000/svg" viewBox="0 0 677.86 522.3">
  <g id="Layer_1" data-name="Layer 1">
    <g>
      <path d="M73.26,271.68c3.01-.81,2.32,3.2,4.88,3.42-.28-.67-1.76-4.25-1.95-4.39-.6-.44-3.4-.75-2.93.97Z"/>
      <path d="M677.54,234.6c-.52-4.94-1.51-9.8-4.41-14.15-1.97-2.95-2.16-4.43-3.69-7.03-3.86-6.57-14.99-15.41-21.55-19.46-3.98-2.46-14.78-4.39-19.7-5.21-2.11-.35-4.85-.37-7.03-.54-.45-.41,1.81-7.17.97-8.29,1.44.59,1.69-1.23,2.17-1.32.61-.11,1.76.72,2.89-.11l1.29-2.27,2.22.19.71-.65c-1.37-6.3,1.56-12.94,2.81-19.15.93-4.59,1.22-9.47,2.49-14.11.3-1.11,1.41-2.35,1.46-2.92.02-.19-1.29-3.41-1.45-3.52-.37-.24-1.52.05-2.35-.32-.87-.39-3.33-2.81-3.87-2.95-4.5-1.18-10.42-1.06-15.32-2.77-1.16-.4-3.22-2.43-4.76-3.06-9.18-3.76-13.36-2.16-22.18-3.21-12.28-1.46-24.64-5.87-36.72-7.71-.87-.13-1.76-.06-2.63-.06l.49-.97c-1.34-.32-3,.33-4.17.26-.72-.04-1.42-.8-2.43-.79-1.49,0-3.3,2.09-5.86,2.05-2.59-.04-3.24-2.01-3.45-2.03-1.22-.12-4.03,2.78-4.38,3.9-.76,2.44.33,6.91-1.68,8.81.19-3.29-2.93-3.47-5.37-2.44-.46-1.25-.35-2.68-.74-3.92-.07-.23-2.03-3.84-2.17-4.04-2.54-3.77-9.21-1.99-12.91-2.36-13.14-1.31-28.25-7.25-42.05-7.31-9.33-.04-16.88.8-26.5.17-5.68-.37-5.25.66-9.29,3.25-.34.22-1.45.15-2.24.59-4.15,2.28-4.22,6.69-5.89,10.22-1.08,2.27-3.68,4.46-4.52,6.71-1.4,3.75-.2,11.59-.62,15.98-.11,1.19-.99,2.2-.98,2.92.02.99,1.58,1.91,1.38,2.86-.11.54-1.13.9-1.38,2.03-.43,1.94.36,10.57-.02,10.97l-8.79-1.96c5.22-10.32-5.71-14.04-13.57-16.45-8.62-2.64-17.35-3.89-26.19-5.06-1.29-.17-5.06-1-5.19-2.17,1.17-3.68.17-7.23.03-10.73-.61-15.62-2.92-36.6-5.43-52.17-.82-5.09-3.93-13.22-3.68-18.04.09-1.86,1.33-4.22,1.65-6.06,1.59-9.37,2.52-18.8,4.18-28.04.69-3.87,2.41-5.07.6-9.65-.68-1.72-4.39-6.34-5.78-7.64-.74-.69-7.29-4.64-8.13-4.84-.3-.07-5.09.43-5.34.54-2.71,1.11-10.17,9.48-11.73,12.2-2.74,4.77-.59,6.24.33,10.88,1.75,8.79,4.7,19.38,5.79,27.94.92,7.22-1.76,15.38-2.84,21.56-2.85,16.21-4.62,32.66-5.97,48.98-.39,4.7-.63,9.96-.3,14.59l-.41.54c-2.67.51-5.82.36-8.46.83-9.73,1.7-20.26,5.49-30.01,7.59-1.57.97-3.12,2.08-4.29,3.52-1.47,1.79-1.72,4.3-3.66,4.9,1.22,1.07.37,1.91.58,3.03.18.94,1.2,1.99.65,2.81l-4.65-.48-1.47-11.96,1.49-.56c1.25-10.21,2.3-20.31,1.88-30.63l-1.93-1.08-1.02-6.94c-3.74-1.62-7.51-.66-11.34-.62-1.58.02-2.85-1.11-4.85.04-.32.18-.28.98-.61.99-18.46.42-36.86-2.64-55.65-1.98-1.65.06-3.39.74-5.01.84-1.31.08-6.53.28-6.93-.58l.97-1.22c-3.14.8-6.33-.53-9.27.98l-1.08-4.78c-2.8-1.52-5.75-.06-8.52.21-1.07.1-2.15-.45-3.71-.2-8.56,1.35-6.02,8.11-6.21,14.32-.05,1.65-.47,3.22-.5,4.82-.08,4.19.51,8.32,0,12.48-1.1-.25-.62-.78-.66-1.38-.21-3.39-.51-6.7-.82-10.09-.36-3.88-.62-6.99-1.22-10.97-.13-.89.34-1.65.16-2.56-.44-2.2-1.99-1.55-2.79-2.13-1.53-1.12-3.21-4.69-5.17-5.07-4.86.12-9.8.77-14.66.73-1.4-.01-3.87-1.88-3.65,1.21-4.7.04-9.71-.29-14.4,0-12.06.77-25.34,4.71-37.66,5.79-5,.44-10.74.06-16,.61-2.73.28-5.59,1.12-8.35,1.41l-.57-3.45c-3.67.23-7.24,1.53-10.81,2.38-.73.17-1.5-.27-2.12-.14-2.28.5-5.8,4.71-6.04,6.82-.18,1.61,1.25,9.92,1.63,12.25.33,2.07,1.2,4.08,1.5,5.86,1.42,8.38,2.62,16.77,4.18,25.11,1.05,3.05,5.03,1.53,7.09,3.65.73.76,1.74,4.28,1.42,5.27-7.37,5.13-15.72,8.74-22.63,14.5-11.17,9.3-17.93,20.65-21.86,34.28-.46,1.6-1.37,5.8-1.85,6.85-.19.42-.57.41-.95.36v.47c2.4.23.36,4.22-.51,5.6-1.66,2.6-4.03,2.57-1.9,6.34l-1.02.51.99.56v3.11c2.06-1,2.69,1.51,4.12,2.46.77.51,1.74.44,2.48.93,1.28.85,2.56,3.89,4.43,4.85,1.88.96,5.87.72,8.13,1.63,1.12.45,1.19,1.89,1.79,2.5,4.65,4.65,7.83,10.87,12.24,16.18,8.92,10.75,18.12,20.75,26.36,32.13.35.49.94.31.97.35.13.21-1.93,2.24-2.18,2.94-.47,1.33.32,3.16-1.23,2.92l10.18,10.33c-2.69,12.01,6.52,25.33,14.69,33.36,11.38,11.18,27.75,15.26,43.49,14.39.61.63-4.57,12.67-5.21,14.56-2.27,6.62-5.32,21.19-8.95,26.2-.87,1.2-2.45,2.21-3.4,3.43-2.84,3.65-6.47,14.92-6.66,19.6-.05,1.33.63,3.05.57,4.34-.03.68-.88,1.41-.73,1.65.05.07.69-.01.76.13.14.27-.07.88.22,1.52.75,1.66,3.38,6.98,4.51,8,1.92,1.74,5.58,1.31,7.79,3.07.92.73,1.74,2.55,2.7,3.43,13.61,12.43,53.24,18.44,71.66,20,21.96,1.87,64.71-2.27,80.31-19.29,2.5-2.73,4.5-8.29,5.64-9.5.68-.73,3.69-1.77,4.8-2.52,2.37-1.61,4.67-3.77,5.71-6.49,4.31-11.3-3.89-19.79-4.89-30.29-.21-2.17.27-4.56-.12-6.71-.81-4.41-4.71-11.84-5.89-16.6-.68-2.72-.61-6.52-1.56-9.14-1.42-3.93-5.9-8.73-7.72-12.68-.84-1.81-1.13-4.58-1.92-6.48-7.93-19.03-17.81-38.9-29.66-55.88-1.72-2.47-2.67-6.36-6.36-6.97.24-1.25.88-2.18,1.12-3.5,1.32-7.38,1.11-23.17-1.45-30.09-.82-2.22-3.64-3.84-3.09-6.92,7.26.42,14.51,1.59,21.41-1.54l1.55-9.2,1.46.49.61-2.81c5.97-2.26,12.23-4.17,17.73-7.43.64-1.6,2.04-2.3,2-4.08-.03-1.35-.7-2.94-.69-4.44.02-2.43.92-5.51.9-8.06,8.04.12,16.12-.27,24.16-.05,6.66.18,12.17,1.4,19.25.78,1.73-.15,3.72-1.16,5.19-1.21,1.84-.06,4.45.93,6.55.45-3.25,3.4-1.32,4.06-.7,7.28.84,4.34.1,13.34-1.77,17.35,2.26.75-.11,3.93.52,5.62l-1.48.25,3.42,2.19-4.1,1.92c-1.57,2,2.06,1.81,2.54,2.58,1.06,1.67-.52,4.81-.89,6.56l.94.87c-1.7,2.77-.22,4.22.07,6.36.34,2.49.06,6.62-.52,9.05h1.47c-1.84,2.61-1.21,2.79-.66,5.21.1.43-.34,1.03-.08,1.61.25.57,1.43.95,1.23,1.72-.07.28-2.93,1.82-2.95,4.39-.02,2.33,1.9,4.24,2.36,5.99.08.3.44,5.94.39,6.25-.13.86-2.42,1.88-2.52,3.38-.14,1.94,1.42,5.26,1.5,7.03.09,2.08-.11,4.96-.06,7.22.02.86.32,1.71.34,2.58l1.33.35c1.04,1.67-.19,4.97.1,6.18,1.85,7.96,1.17,13.2,1.19,21.56,0,1.57.89,3.09.55,4.63-.36.71-5.87,2.45-6.79,2.3-1.32-.22-1.98-1.93-2.89-2.45-6.24-3.53-14.71-1.27-21.27-.46-2.03.25-5.05-.11-7.03.26-2.2.41-4.08,2-6.07,2.27-7.42,1.02-14.79-8.62-16.71-14.95l-.03-.58,3.38-1.51c.63,1.42-.86,3.61,1.21,3.9,2.25-.85,1.17-3.22,1.29-3.37.16-.21,1.12.32.91-.52-1.77-.15-2.41-.17-2.69-1.98l-3.9,1.47-3.42-3.3c-2.92,2.26-1.53,9.55.27,12.2.44.65,1.24.73,1.69,1.36,1.09,1.52,1.48,3.91,2.97,5.84,2.26,2.93,5.6,4.27,8.37,6.03.41.26.47,1.23,1.58,1.59,7.86,2.55,21.45-4.92,30.92-3.57,6.05.86,11.69,4.11,17.95,3.3-.46,1.3-.35,2.7-.62,4.01-.1.51-.79,1-.86,1.64-.13,1.23,2.25,3.09.26,5.1-.64.64-2.44.14-1.7,1.7.2.43,1.18.55,1.35.84.3.53,0,1.55.38,2.31.33.66,2.19,2.89,2.17,3.2l-1.95.74c.3,1.89.62,3.78.92,5.67.28,1.73.72,6.82,1.2,8.16.37,1.03,1.69,1.35,1.8,2.52,1.38,15.15.47,31.63,1.44,46.87.53,8.27,1.87,13.94,1.18,22.41-.51,6.31,1.86,17.94,2.68,24.49,1.24,9.94,2.7,19.88,3.84,29.84.05.4.19,3.07.17,3.23-.08.58-1.23-.04-1.01.78,2.11-.95,10.29,1.82,11.27.17.3-.5,1.78-5.14,2.06-6.12,1.01-3.52,2.04-8.29,2.72-11.92,4.47-23.92,7.51-49.85,10.04-74.04,1.74-16.64,2.88-29.86,1.01-46.72-.08-.77-.34-1.55-.71-2.22l.95-.69c-1.42-.01-.57-1.87-2.44-1.72,1.87-3.06,2.97-5.52,2.95-9.24l-1.96-2.22c2.54-.34.8-3.34.98-5.08.35-3.28,5.38-6.46-.49-9.09l1.03-1.2c.18-2.64-1.49-12.31-.93-13.69.16-.41.79-.44,1.12-.71l.24-.74-3.42-2.95c2.11-2.31.63-2.29.59-4-.03-1.18.55-2.34.39-3.55,1.15-.07,2.58.4,3.41-.74.24-1.02-1.21-.98-1.41-1.29-.19-.29.38-1.05.28-1.57-.54-2.75-2.4-8.36-2.23-10.83.07-.96,1.51-3.36,1.71-4.94.31-2.49-1.48-6.12-1.29-7.71.22-1.84,2.68-2.86,2.67-5.87,0-1.24-.03-8.36-.16-8.79-.27-.86-.95-.73-1.03-1.07-.28-1.31,1.07-2.83-1.46-3.8.88-1.26,2.41-.53,3.66-.73,3.09-.49-1.65-5.34-3.17-6.15l.49-2.64c.11-.12,2.1.6,2.7.31,2.86-1.38.29-3.43-.21-5.47-.79-3.25.35-8.26-.63-11.58-.3-1.02-1.73-1.28-2.35-2.05-.32-.68,1.29-1.15,1.88-2.02,2.15-3.17,2.19-4.59.92-8.1-.34-.93-1.3-1.1-1.39-2.56-.09-1.48.32-8.71.56-10.23.15-.97,1.05-1.44,1-2.94-.11-3.56-3.3-9.67-1.74-13.43.35-.86,2.02-1.77,1.73-3.39,7.53.76,15.11.55,22.66.94,2.73.14,5.56.31,8.28.47,4.95.29,10.27,2.35,14.92-.47.47,3.48,1.05,6.99,1.46,10.5.22,1.91-.05,4.5.18,6.26.33,2.51,2.41,6.84,1.79,9.29-.14.57-1.2,0-.98.8l1.98-.26c1.21,2.66,2.83,4.43,5.82,4.93,2.08.35,3.39-.49,5.51-.17,5.39.82,9.62,5.42,15.82,6.05,1.31.13,3.91-.67,5.18.14,1.42.91,2.01,5.24,3.27,6.65,1.84,2.06,7.34,2.81,10.06,3.17,2.08.28,7.45.96,9.27.98,2.21.02,4.39-1.45,6.76-.96l1.82-7.79c3.98-.49,7.93.89,11.91.44,1.78-.2,3.27-1.2,4.92-1.43,1.29-.18,8.62-.71,9.7-.54,1.02.15,4.11,2.75,6.6,3.21,1.64.3,3.26-.02,4.62.26,1.27.26,8.69,1.89,9.08,2.15.63.42.87,2.61,1.36,3.52,1.18,2.2,4.64,3.48,6.95,4.28,4.95,1.73,8.85,1.54,13.86,2.25,1.71.24,3.89,1.4,5.93,1.44,1.21.02,5.52-.43,6.54-.77,3.14-1.03,4.16-7.22,8.16-7.88,5.83.59,12.54,1.61,18.36.71,1.77-.27,8.83-2.16,10.26-2.93,1.32-.7,2.13-2.15,3.31-3.04.96-.72,3.44-.89,3.41-2.46,0-.26-1.7.14-.71-2.66,1.1-3.13,3.42-2.65,4.05-3.55.16-.24.17-4.99.3-5.77.68-3.88,1.86-8.01,2.75-11.9.27-1.18,1.29-1.67.44-3.21,3.64.08,6.25-1.12,10.03-1,6.97.22,15.58.48,22.46.98,1.26.09,6.45,1.06,7.1,1.81l2.27,7.33c0,1.7-1.18,1.59-1.64,2.28-13.38,20.2-20.43,25.59-42.79,34.6-12.84,5.18-28.19,11.72-41.86,13.8-.9.14-1.91-.07-2.83.14-1.33-1.23-3.66-3.2-5.33-4.19-4.5-2.65-8.77-3.77-13.28-6.28-.34-.19-.46-.88-.92-1.13-1.99-1.07-26.93.13-31.6.48-10.87.81-21.48,3.18-32.24,4.38-16.02,1.79-30.3,2.47-46.25,6.49-8.01,2.02-7.68,4.14-11.47,10.47-.42.69-1.51,1.04-1.83,2.09-.52,1.74.04,3.24-.27,4.53-.13.54-1.38.63-1.75,1.31-.4.74.74,4.71,1.15,5.72,3.31,8.12,7.2,13.6,11.24,20.98.6,1.1,1.29,3.98,1.8,4.55.55.61,1.53.38,2.17.76,1.48.88,1.97,5,2.63,6.65,1.89,4.76,3.93,9.49,5.71,14.3l-2.39.81-.06,1.89,3.41-.24c-.43.72-1.42.57-1.94,1.01-.41.35-1.43,2.82-1.61,2.98-8.77,7.56-13.48,11.73-21.1,20.67-6.96,8.17-22.82,16.57-31.95,23.22-4.12,3-16.6,12.44-18.82,16.34-2.6,4.56-.56,7.22,1.7,11.2-2.97-4.87-.46.79,3.65,5.87,8.73,10.78,20.17,5.02,30.86,1.06,15.24-5.65,25.48-11.87,38.7-20.86,12.46-8.47,24.84-17.8,38.26-24.73.84-.43,2.56-2.2,3.12-2.28,1.05-.15,1.57,1.99,2.28,2.71,5.45,5.56,13.5,4.32,20.12,2.15,5.6-1.83,5.92-4.84,9.4-7.8.99-.84,7.11-6.05,7.56-6.27.45-.21,1.43.38,2.75-.39,1.26-.73,2.46-2.69,3.71-3.63,8.52-6.41,13.61-7.95,19.48-18.11,3.38-5.85,4.9-12.4,6.22-18.92,2.01.05,4.52-1.74,6.26-1.8.81-.03,1.21.91,1.47.75.03-.02-.09-.56.2-.76.49-.35,2.04-1.59,2.16-1.65,4.55-2.06,11.19-3.17,16.07-5.29,27.51-12.01,54.15-26.31,74.37-48.81,12.39-13.79,20.34-27.12,18.29-46.45ZM264.19,336.6h-.48s-.49-1.95-.49-1.95h.97s0,1.95,0,1.95ZM267.12,342.95c-.29.62-1.19-1.77-.97-2.44.29-.62,1.19,1.77.97,2.44ZM277.85,354.43c-1.23-.39-3.28-1.51-3.89-2.69,2.2.63,3.87,2.7,6.35,2.44,0,1-1.95.41-2.45.25ZM286.66,354.66c.77-1.17,3.12-1.42,4.39-1.45-.76,1.45-2.97,1.48-4.39,1.45ZM331.73,22.84c-1.43-4.84-3.93-5.56-.55-10.98,3.54-5.68,9.99-12.26,16.34-6.02l6.49,8.32c-1.42,13.97-3.67,27.84-5.34,41.78-3.7-2.52-8.03-1.56-12.14-2.02-.04-3.47-.27-6.95-.58-10.41-.64-7.36-2.04-13.33-4.22-20.67ZM337.68,60.32c.25-.96.45-1.94.81-2.86,3.33-.8,6.49,1.12,8.46,3.63.92,1.18,1.01,1.1,1.24,2.9,2.07,16.08,2.78,32.27,4.41,48.31.31,3.11,3.86,24.23,2.92,25.15-3.25-.01-6.4-1.48-9.66-1.81-5.41-.55-11.22,1.04-16.71.84l-.51-18.81c1.77-18.58,4.42-39.27,9.04-57.34ZM275.66,164.76c2.17-.09,5.36.17,7.34,1,.5,1.32-.92,0-.98,0h-9.03c.35-1.22,1.7-.96,2.67-1ZM16.61,207.74c-.39-.49,1.69-5.04,2.22-5.83,5.01-7.46,16.33-17.47,23.55-22.95,2.91-2.2,7-3.93,8.9-6.86l10.24,32.21c-2.47-.85-4.55-1.46-7.15-1.88-12.33-1.98-26.87-1.13-37.77,5.3ZM57.16,288.99c-3.95-5.24-7.79-8.88-11.74-13.64-.39-.47-2.44-3.25-2.44-3.67-2.5-1.47-4.64-4.8-6.36-7.08l-4.37-4.64c-.05-1.02,1.35-.39,1.73-.01l6.32,6.36c3.6-1.6-5.82-7.07-5.13-9.51l.97-.25,4.13,5.37,4.18,3.41c.15-.17-.61-2.57-.83-2.92-.62-.99-4.52-5.53-5.51-6.6-1.31-1.41-2.45-1.27-3.43-2.67l3.89.22,6.13,6.6c3.12-.8-1.26-3.6-1.71-4.64-1.14-2.63,3.99,1.09,4.24,1.15.94.22,2.35-.94,3.43-.05l4.28,4.03c3.21-1.42-3.53-5.79-3.87-6.33-.14-.23-.93-4.86-.52-5.38.7,1.21,2.7,2.08,3.4,2.95.79.99.73,2.38,1.51,3.37.42.53,3.73,3.04,4.36,2.95.91-.13.57-1.1.18-1.63-.83-1.14-2.67-1.88-3.59-3.29-.66-1.02-.31-2.02-.97-2.86-.97-1.26-4.08-3.31-5.62-3.94l.96-.7-.97-2.21c2.82-.75,3.06,1.69,4.62,3.43.65.72,1.67,1.01,2.22,1.68,1.04,1.25,2.42,4.22,3.62,5.64.89,1.06,1.72,1.68,3.2,1.44.95-.83-4.25-4.92-4.42-5.22-.45-.75-.34-1.87-.93-2.85-.9-1.49-4.22-3.95-5.11-5.63-.82-1.56-.58-4.04-1.74-5.58,1.34-.31,3.25,2.71,4.02,3.79.77,1.07,1.15,2.75,1.99,3.62.49.51,4.13,3.18,4.72,2.6,1.21-1.19-3.78-3.77-4.14-4.4-.4-.71-.13-1.68-.52-2.4-.55-1.02-1.76-1.68-1.94-3.18-.04-.32,0-2.61.98-2.21,3.16,2.26,3.36,6.75,7.08,8.29.87-1.01-4.07-8.9-5.86-9.52l2.91-.73c1.05,2.42,2.21,5.2,3.52,7.48,5.82,10.14,12.08,17.12,19.95,25.46.83.88,5.67,5.97,5.84,6.37.58,1.36-2.5-.03-1.96,1.7h-.47c-.58-2.4-2.79-3.24-4.32-5.2-1.4-1.78-1.19-4.6-4.47-2.12-.23-1.33-.28-2.48-1.73-2.92-1.93-.4.62,3.56,1,3.89,1.25,1.11,1.73-.58,3.15-.49.38,4.65,6.52,5.9,6.35,10.74-.79-.63-2.8-2.16-3.15-2.95-.35-.77-.13-1.73-.52-2.41-.3-.53-4.27-3.88-4.14-1.24,1.19,1.17,3.07,1.02,2.93,3.18-1.57.15-1.9-1.76-2.8-2.45-.6-.46-5.1-3.36-5-1.7,0,.09,1.2,1.02,1.46,1.22,1,.77,2.02,1.18,2.93,2.2,1.7,1.91,2.6,4.92,4.39,6.83.03.58-.57.66-1.21.25-1.84-1.2-2.29-4.03-4.64-3.41.86,2.37,1.93,3.61,3.9,5.12l-1.2.73c-1.78-1.29-3-4.83-5.62-3.9l4.39,5.6c-1.19,1.66-1.77-1.25-2.68-2.19-.42-.43-2.7-1.95-3.17-1.46-.38,1.68,1.63,2.17,2.38,3.35.24.38,1.23,2.31,1.04,2.51-1.94.57-2.42-2.9-4.14-2.43-2.15.58.23,1.74.43,1.98.6.7.98,1.59,1.75,2.17-1.63,2.92-4.04-3.79-5.36-2.68-1.7,1.42,3.08,3.63,2.71,5.41l-1.46,1.41-2.71-1.93c-.99,2.25.74,2.08,1.46,3.65l-1.95,1.71c1.61-.25,3.86-1.02,5.23-1.84,1.88-1.13,2.33-2.59,4.54-3.52.05-.24-.14-.6.08-.88l1.88-.58c-.41,2.03-1.23,1.16-1.95,1.46-.11.51.22,1.46-.07,1.87-.87.49-2.2.52-3,1.04-1.07.69-3.18,3.41-3.98,3.95-.63.42-6.37,2.69-6.62,2.42-.15-4.47-3.85-7.23-6.33-10.52ZM157.74,252.9c3.31-1.19.03-4.14-.02-5.37-.01-.38.8-.18,1-.57.31-.6.39-1.96.53-2.07.35-.29,6.05-.25,7.03-1.5l.53,1-5.59,16.87c.25,3.65-1.02,6.47,1.39,9.69.83,1.11,1.96,1.57,2.76,2.37,2.67,2.69,4.89,4.94,7.01,8.01.42.6,2.66,3.69,2.43,4.01-6.6,3.57-12.86,7.93-16.35,14.65-1.94-3.16-3.75-6.61-6.35-9.25-3.77-3.83-10.42-8.37-15.69-9.22-5.36-.86-18.19-1.25-23.29-.06-.37.09-.31.95-.62,1-2.62.38-3.24-3.33-4.37-4.88-1.98-2.71-5.02-6.64-8.49-7.15-.92-.13-1.71.4-2.58.2-3.31-.78-6.29-6.75-8.08-9.54-1.88-2.94-4.18-4.37-4.02-8.43,2.52.06,5.07-.09,7.59-.01,3.78.12,10.75.23,14.11,1.01,3.21.75,7.55,4.99,12.27,5.79,7.03,1.19,26.31-.3,33.44-2.13,1.33-.34,6.4-1.92,6.34-3.44l-.99-.97ZM213.41,250.69c.55.54-1.33,11.94-2.2,13.19-.5.51-3.85-.53-4.14-.74-1.08-.78-1.3-5.04-3.78-5.51-2.14-.4-6.68,3-7.94,4.66-3.15,4.16-4.29,7.18-6.23,11.7-1.26,2.95-5.57,4.62-7.69,6.96l-10.28-14.37c.59-3.43,1.96-6.64,3.07-9.91,1.11-3.25,1.42-3.53,2.83-6.44,1.56-3.22,1.82-6.27,2.18-9.78,7.69,0,14.91,3.16,22.63,3.5.84.29,3.11,5.04,2.79,6.23,3.21.92,5.44,1.18,8.77.52ZM214.87,267.29c-1.02-.39-1.63-1.34-1.46-2.44.91.36,1.51,1.57,1.46,2.44ZM175.32,279.49l-1.97-.23-.46-.5.48-1.22c1.18-.21,1.52,1.1,1.95,1.94ZM170.93,274.61c.8.35,1.62,1.07,1.46,1.95-.8-.35-1.62-1.07-1.46-1.95ZM169.95,250.21l2.93,1.72-1.46,1.7-1.47-3.42ZM175.8,240.45v.97c-2.52.19-2.41-1.96,0-.97ZM174.74,247.02l-1.37,2.7-.98-3.41,2.35.71ZM170.92,242.4l1.46-.5.49,1.95c-1.06-.1-2.31-.31-1.95-1.45ZM171.41,248.74l-1.95-.49.5-1.95,1.46,2.44ZM169.94,255.09l-2.48-1.29c.16-.97.02-2.98,1.5-2.62l.98,3.9ZM169.84,257.14c.3.52.32,4.01-.87,2.83l-1.96-4.39c.5.39,2.67,1.3,2.82,1.56ZM168.97,262.41l-1.21,1.96c-.67-.03-3.92-2.27-3.18-2.94l4.39.98ZM167.49,269.01c1.33.8.9,2.48-.71,2.68-.52,0-1.62-.76-2.03-1.15-2.71-2.59,1.09-2.52,2.75-1.52ZM163.11,266.31l.49-2.93c.16-.16,2.42,1.76,1.95,2.44l-2.44.49ZM165.56,257.53l1.46,2.43c-2.08.2-2.15-.8-1.46-2.43ZM85.46,278.51l-3.42-3.41c1.35.18,3.21,2.04,3.42,3.41ZM72.01,315.59c-.52.49-.4.71-1.21.28-2.2-1.16-6.19-6.69-7.58-9.02l3.96-5.85c5.04-4.32,9.98-7.57,15.11-12.23l13.42-8.8c.52-2.02-3.61-.07-4.34.3-1.57.79-4.24,2.82-5.86,3.9-.59.4-4.18,3.38-4.44,3.13l2.69-2.92c1.67-1.41,12.3-9.28,13.58-9.17.82.07,2.77,1.48,3.54,2.04,1.45,1.06,8.56,7.91,7.32,9.58-1.52,1.13-3.94,1.55-5.41,2.42-9.45,5.54-19.31,15.4-27.45,22.6-.96.85-2.39,2.85-3.34,3.73ZM109.24,290.78l7.44,10.45c-.03.35-.99.58-1.25.89-1.13,1.35-7.31,8.16-8.34,8.51-2.54.88-2.31-1.25-3.54-2.94-.37-.51-1.12-.71-1.67-1.34-.18-.2.69-1.21-1.16-1.37-2.73-.24-3.28,2.72-5.97,2.35-.19.89.82.31.97.49.12.14-1.22,1.88-.78,3.55.49,1.85,3.68,4.83,2.51,6.7-.78,1.25-10.16,4.55-11.85,6.28-1.86.29-4.97-5.26-5.12-7.15l-4.77-.6,33.54-25.81ZM82.49,325.34l-5.07,2.01c-1.77-3.28.18-4.2,2.92-5.4,1.51.41,2.53,1.84,2.15,3.39ZM121.38,358.06c-11.08,1.16-18.53-.15-27.96-6.48-4.14-2.78-11.64-12-14.04-16.46-.39-.72-.13-1.72-.52-2.41-.36-.63-2.61-1.39-2.68-2.93,2.82.31,5.06-2.31,7.19-3.31,4.98-2.33,12.38-3.96,16.75-7.18.87-.64,3.11-2.85,2.95-3.88-2.55-.84-2.33-2.76-3.23-4.17-.69-1.08-2.5-.38-2.18-1.97,3.34,1.01,4.23,4.57,8.32,3.71,4.76-.99,6.06-4.33,8.94-6.96,1.24-1.13,9.52-6.9,8.13-8.47-1.38-.04-3.76-2.08-4.72-3.09-.28-.3-.25-1.1-.63-1.56-.64-.78-2.2-.91-1.97-2.66,2.16-.94,5.32.41,5.64-2.48,5.7.23,10.39.47,15.32,3.74,4.17,2.76,12.64,12.74,14.42,17.32,1.61,4.15,2.78,13.74,2.93,18.28.06,1.94-.25,5.25-.95,7.07-9.11,14.33-13.75,22.03-31.71,23.9ZM280.77,422.98l-2.9,1,1.47-4.39c1.05.15,1.86,2.9,1.43,3.39ZM228.17,295.97c.68.37,1.72-.13,2.26.19.22.13,2.34,3.76,2.7,4.37,4.28,7.31,9.11,14.39,12.94,22.21,11.5,23.43,25.62,51.84,30.25,77.64.37,2.04.44,4.43.56,6.51l-.48-1.47h-1.46c.37,2.17-2.37,3.39-2.1,4.77l-4.28,4.74.75,1.22,3.18-2.71,2.16.8,1.74-1.26c-.7,1.46-1.42,3.33-2.61,4.47-.95.91-6.01,3.11-4.23,4.56,1.03.84,6.7-4.15,7.37-5.57.62-1.31-.07-3.05,1.42-2.73l.98,4.88c-2.05-.45-1.72,1.68-2.5,3.12-.45.82-1.86,3.39-2.35,3.86-.59.57-2.73.8-2.46,2.05.3,1.41,2.71.26,2.86.33.12.06.5,1.62,1.53,1.4-.3,1.42-3.18.61-3.42,1.71-.4,1.86,2.84,1.39,3.95-.5.61-1.03.46-1.16,1.42-2.58.89-1.32,1.76-2.98,2.92-4.01,1.31,5.06-.8,10.2-5.84,11.97-2.35.82-3.08.06-5.49,2.18-1.42,1.25-2.23,3.46-3.31,4.66-5.17,5.76-20.31,11.95-27.83,15.02-18.91,7.72-40.3,8.63-60.82,7.15-18.98-1.37-44.13-4.6-58.55-17.57-2.8-2.52-3.33-2.28-7.06-2-.38-1.79-2.09-3.31-2.84-5.18-3.06-7.62-2.62-14.24.36-21.59,1.05-2.59,2.21-5.49,3.54-7.93,1.2-2.19,3.45-4.12,3.79-6.71l1.33,3.32,1.1,1.07c.49-1.42-1.41-4.89-1.37-5.53.05-.85,1.56-2.7.89-4.23l3.42,7.81,1.41-.78-3.8-9.69,3.12-9.55c.66,0,.29,4.62.46,5.37.82,3.71,5.1,6.67,3.23,2.18-1.25-3.01-1.06-3.57-1.82-6.47-.53-2.02-2.04-2.81-1.13-5.46,1.48-.34.6.32.69.81.27,1.49.57,4.43,1.27,5.65.35.62,1.22.7,1.69,1.35,1.05,1.46.51,3.95,2.69,3.42.61-2.61-2.13-4.89-2.33-7.19-.23-2.7,1.67-9.78,1.24-12.04-.12-.64-1.58-1.44-1.35-1.75,2.67-.76,2.9-5.86,4.53-7.68.36-.4,6.8-3.6,8.32-4.63,7.37-4.99,12.85-12.59,17.44-20.15,7.5-12.35,6.59-20.66,2.71-33.98-.31-1.07-1.7-2.67-1.5-3.38.94-3.29,12.3-11.65,15.52-13.28,6.17-3.14,5.54-2.06,11.09-6.98,2.43-2.15,6.96-5.33,8.18-8.42.68-1.72.37-4.21.85-5.01.69-1.15,4.93-1.73,3.74-5.77,2.07-1.25,3.6,1.6,5.63,2.77,2.65,1.52,4.16,1.26,6.5,3.89,5.57,6.29,10.79,22.87,17.21,26.34ZM276.89,411.77l-.6-.74-1.35-.24,1.71-3.41.24,4.39ZM215.85,258.51c1.03.13.62,4.22.48,4.39-2.12.28-.4-3.3-.48-4.39ZM221.71,253.63c.72.24.94,2.55.99,3.2.08.94-.41,2.06-.26,2.72.16.7,1.29,1.37,1.17,2.07-.1.63-4.62,4.42-.45,5.69l-3.42,2.43c1.65-5.2,2.22-10.65,1.96-16.1ZM218.78,252.16c.03-1.06-.9-2.06.48-2.44-.03,1.06.9,2.06-.48,2.44ZM221.22,273.64l-1.21.97c-.52-.44-.9-.74-.73-1.46l1.95.49ZM219.27,261.92c-1.64.37-.89-2.56-1.46-3.41,1.87-.13,1.24,2.27,1.46,3.41ZM217.32,269.24v-1.95s.97,0,.97,0c.13.91,0,1.69-.97,1.95ZM217.18,253.52c-.17-.78-.5-1.5-.35-2.33,1.28.96,1.49,3.42,1.45,4.88-.65-.08-.98-1.97-1.11-2.54ZM224.2,281.19l.69-.72,1.17.72-.44,1.72h-.97l-.44-1.72ZM226.59,278.03c-9.97-.44-1.34-4.73,0-3.42v3.42ZM223.91,270.88c-.69,0-2.02,1.27-3.17.8l3.44-2.66,1.89-.23.53,3.37c-1.1.21-1.71-1.29-2.68-1.29ZM225.38,262.9l.72,3.41-2.92-1.22,2.19-2.19ZM268.69,171.37c.02,11.84.14,26.85-2.08,38.54-.21,1.1-1.24,2.59-2.41,2.72l1.47.73-3.69,13.4c-2.36.66-5.56,3.03-7.53,3.7-1.11.38-2.41.27-3.71.69-.59.19-7.79,3.66-8.17,3.91-1.2.8-3.22,4.37-4.25,5.64l1.47.24-.97,1.71c-4.45-1.99-8.88,1.25-13.01,1.65-1.95.19-3.33-.44-4.78-.38-3.73.16-8.48,1.66-12.01,2.88-1.08-2.82.38-6.14-3.42-7.1-1.84-.46-2.9.35-4.62.29-2.76-.11-8.05-1.26-10.79-1.95-.76-.19-1.77.16-2.38,0-.18-.05-.73-2.46-1.99-2.52-2.33-.11-3.13,2.16-5.62,1.02-.04-.26,0-.48.07-.69-.21.05-.42.11-.62.16-3,.7-6.04,1.14-9.13,1.33-.33.81-.61,1.46-.68,1.53-.25.29-6.33,1.9-7.38,2.15-3.34.79-9.06.33-10.1,3.83h-.96c-.05-1.79-1.83-1.35-2.81-2.09-.5-.38-1.95-3.06-2.19-3.21-.05-.03-.12-.03-.18-.03-.75.84-1.77,1.35-2.94,1.28.2.94.36,1.86.54,2.83.06.35.87,2.94.99,3.16.69,1.37,5.18,3.34,4.63,6.35-1.64.03-3.19,1.24-4.78,1.37-1.08.09-2.01-.45-2.75-.35-9.58,1.26-20.04,4.08-28.96-1.16-1.22-2.37-3.51-4.47-5.21-6.67-.21-.27-.06-.9-.22-1.38-1.04-.05-2.05-.09-3.04-.14.09.3.05.75-.21,1.52-.08.25-1.26,2.67-1.37,2.78-1.73,1.84-15.3.06-18.46,1.37-.26-.15-1.9-3.94-2.17-4.65-4.8-12.73-9.69-25.51-14.16-38.33-4.76-13.64-9.08-27.73-13.93-41.34-.14-.39-1.61-.64-.96-2.33,1.81-.1,4.87.36,6.38-.75.43-.32,0-.91.12-1.1.37-.55,1.91-.55,1.31-2.54-3-1.01-2.7,2.02-3.72,2.38-.61.22-3.58.19-4.32.05-1.13-.22-1.49-1.22-2.33-1.58-1.19-.5-2.68-.38-4.06-.83-4.74-1.52-2.63-2.85-3.17-6.59-1.18-8.16-1.35-16.53-2.12-24.83-.25-2.64-1.41-5.71-1.58-8.47-.04-.59.18-4.98.34-5.25l8.74-2.73c1.58,4.05,2.61,8.25,3.31,12.57,1.54,9.6,3.35,19.18,4.89,28.8.2,1.25-1.11,2.45.85,3.54,1.14.2.65-.47.67-1.18.18-8.37-.84-17.38-1.1-25.82-.12-3.96-1.9-10.52,1.8-13.36.69-.52,2.55-.67,3.41-1.23,2.11-1.37.99-1.67,4.56-2.28,4.07-.69,7.07.08,10.66-.05,4.94-.17,12.43-1.32,17.54-2.03,9.93-1.37,19.62-4.36,29.77-3.27,1.74.59,6.27,12.09,5.26,14.51l3.37.54c-.76,1.57.43,2.95.43,4.15,0,.99-.97,2.11-.83,2.86.21,1.1,2.83,1.53,1.61,4.2-.92,2.02-2.97,1.34-4.64.98.5-.55.55-4.93-.72-4.39-.52.22-2.27,2.79-2.48,3.42-1.65,4.95,7.35,5.03,9.55,3.16.83-.7.57-2.02,1.47-2.19.05,1.53.82,2.88,1.19,4.33.24.92-.94,2.71,1.49,2.5.68-.15.67-2.12.7-2.66.53-9.39.44-20.16-4.67-28.52-1.12-1.84-3.61-2.78-2.59-4.91l11.81.08c.49.13,5.39,3.67,5.7,4.11.98,1.41,2.77,9.24,3.15,11.32.42,2.25,1.94,13.66,1.48,15.26-.54,1.88-5.95,5.9-5,7.21l.89.54c-2.08,1.15-3.25-.7-5.36-.48l-.99,4.39c-2.2-.46-1.25-2.46-3.39-2.7-3.42-.38.97,3.44,1.78,3.64.34.08,4.56-1.16,5.51-.93-.02.89-1.52.05-.97,1.7.58,1.72,2.16-1.04,2.43-.73l-.48,1.46,1.91.05c.04.36.08.67.14.96,2.06-2.38,5.04-4.27,7.68-4.79,0,0,.02,0,.03,0,1.05-.96,2.18-1.69,3.37-2.21.15-.77.49-1.53,1.06-2.2.36-.43.69-.87,1.01-1.31-.05-.15-.1-.3-.16-.45-.06-.16-.37-1.91-.34-2.01.12-.46,1.13.11.92-.71h-.97s0-.73,0-.73c.26-.61,1.88-.53,1.92-2.47.11-5.21-1.54-11.02-1.91-16.09-.3-4.13.49-8.36-.48-12.42,4.15-1.05,8.25-1.38,8.29,3.88.96.43,1.4,1.21,2.72,1.44,2.48.43,2.08-.77,2.4-.88.8-.26,11.3,1.82,13.65,1.9,5.2.17,8.13-1.05,12.69-1.51,11.34-1.14,23.01,1.87,34.19,2,3.64.04,7.5-.52,11.15-.51,2.93,1.97,1.98,6.52,3.24,8.58.68,1.11,6.41,3.2,6.89,1.83l.55-11.31,1.88-.56-.26,1.46,1.23.48.74-1.95c.58.56,1.23,1.06,1.6,1.81,1.72,3.49,2.52,14.4,2.55,18.44.01,2.04.05,4.29.02,6.33-.02,1.4,0,7-.37,7.93-.97,2.4-5.3,1.98-7.43,1.58l.91-13.32c-.2-1.91-1.22-3.52-2.3-5.05-.29-.42.09-.91-1.08-.64-.48,1.65-1.23,2.25-.46,4.02.6,1.38.85,3.83.88,5.96.05,2.99-.25,7.41-1.4,10.02l.97.49-2.07.69c.04.8-.03,1.6-.13,2.42.03,0,.06,0,.09,0,1.61-.13,2.9.74,4.8-.67.11,2.67,2.91,1.56,1.71-.48l5.37.49,1,13.89c.39,2.22-.41,4.83-.41,6.85ZM269.57,208.23v-1.95c2.37.76,4.86.43,7.32.49l-7.32,1.46ZM272.99,205.29v-.48s2.92,0,2.92,0v.48s-2.92,0-2.92,0ZM276.89,205.29c.58-1.08,2.96-.8,3.9-.48l-3.9.48ZM323.79,186.5c-.25,1.32-3.49,2.22-3.45,6.37.02,1.64,1.3,2.25,1.5,3.87.46,3.6-.06,7.46-.51,11.01l-31.74-.98,5.14-.85c2.82.24,5.49.94,8.04-.61-.87-1.96-3.51-.03-5.14-.07-4.85-1.46-10.74-.2-15.85.07l4.18-1.92,9.49-1.01-1.22-1.47c-7.85,1.78-15.75,2.33-23.69,1.96v-2.44s8.55.89,8.55.89l3.65-.89c-1.67-1.84-5.62-.78-8.08-.95-1.39-.1-2.71-.64-4.13-.51l.56-1.88c4,.15,7.93-.78,11.87-1.07,2.71-.2,6.27.76,8.56-.72l-3.64-1.2c-2.2,1.81-3.75.42-5.88.44-3.52.03-7.14,1.96-10.99.52l.51-2.41c4.36.78,8.69-1.45,12.67-.51l-.28-1.51c-1.74-1.28-8.72.79-11.63-.03l-.78-1.85c.58-.02,1.14-.28,1.73-.25,3.7.14,7.51-.79,11.2-1.15,1.97-.2,5.14,1.14,6.11-1.31l-6.12-.67c-4.08,2.84-8.19-.14-12.42,1.41l.44-7.09c2.12-.23,13.5.17,14.2-1.46.08-.19.18-1.22-.24-1.22-4.78.49-9.07,1.58-13.91.48v-1.94s14.15,0,14.15,0c.09-1.74-5.01-2.15-6.33-2.21-2.67-.11-5.16,1.21-7.83.25v-2.92s10.26.48,10.26.48l-.83-1.47c-3.24.16-5.86-2.05-8.93,0l.03-1.92c3.29-.52,6.79-.61,9.98.22,2.6-1.23,4.34.59,6.86.74,1.17.07,7.42-.37,7.94-1.09.9-1.25-.18-3.55,2.27-3.83,4.65-.52,9.69.63,14.19,1,3.18.26,6.38.05,9.52.5-.49,3.31-1.04,7.13-1,10.48.03,2.77,1.38,8.84,1.01,10.75ZM301.8,158.43l7.7-2.3,12.32-1.6-1.29,3.35-18.73.55ZM314.89,150.3c-5.79,1.11-11.46,2.6-16.77,5.21-.26-1.99-5.74-1.64-6.94-1.13-.94.4-4.07,5.16-3.55,5.52,2.07.32,8.73-.76,6.12,2.75-2.17.04-4.7.68-6.75-.31-1.36-.65-3.44-5.55-3.33-7.08.07-.93.68-1.38.84-2.05.1-.44-.27-1.02-.05-1.58.75-1.89,2.14-3.25,4.11-3.71,18.07-4.27,36.6-6.22,55-7.97,7.41,1.27,15.34,2.5,22.97,3.79,7.67,1.29,15.38,2.27,22.96,4.39,2.76.77,8.81,2.82,10.08,5.54.66,1.42,1.32,6.75.35,7.93-.89,1.09-3.09,1.07-3.84.2-1.1-1.29,1.24-2.81,2.39-3.12.47-2.02-1.69-.45-1.92-2.51-.1-.86.45-.46.95-.96.33-2.06-1.63-3.35-3.45-2.4-1.25.66-.54,3.18-3.59,3.15-1.7-.02-7.19-1.15-9.22-1.55-5.3-1.05-10.51-3.23-15.78-4.21-14.15-2.63-36.52-2.61-50.6.1ZM361.37,198.46c-2.27-.84-3.08,1.51-4.25,1.87-1.87.57-2.75-.58-4.21-.76-3.03-.36-7.88.37-11.29-.16-1.89-.3-3.66-2.22-6.14-1.44v-1.95c1.21.27,5.88-.7,6.35-1.71-2.22-2.3-3.48-.56-5.19-.38-.8.08-1.61-.49-2.75-.27-1.38.27-4.06,3.72-5.15.06-.44-1.49.43-2.83.43-4.28l-1.5-1.71c2.18-1.21,2.61,1.08,4.61,1.48.38-1.35,1.11-.78,2.07-1.17.18-.07.16-.81.43-.81,1.48-.05,2.83,1.7,2.64-1.95-1.69.13-2.97.11-4.5,1.02-.57.34-.14,1.1-.87.93l-.49-2.43c3.9.08,8.32-1.23,12-1.47,2.19-.14,4.69.74,7.29.49,1.3-.12,2.41-.9,3.45-.95.41-.02,3.84.46,4.02.56.33.19.87,2.09,2.57,2.15l-.09,5.01-11.17,3.48,4.86.75,7.34-1.24.49,2.18c-1.11,1.33-1.76-.71-2.45,1.48l1.47,1.21ZM358.46,159.63c-.04.87-.97,3.41-.88,3.59.95,2.1,1.76,5.77,1.84,8.65.06,2.37-.62,4.62-.57,6.99-2.65,1.99-4.57.85-7,1.01-1.67.11-3.48.93-4.94.97-2.07.06-4.19-.67-6.73-.39-3.29.37-6.87,2.04-10.06,2.88.39-4.67-.53-9.29-.51-13.93.02-4.57.91-9.1,1.54-13.1.1-.64.35-2.52.73-2.79,8.75-1.65,17.59-.37,26.32-.39l.69.67c-1.43,2.04-.33,3.86-.43,5.84ZM330.61,384.44l1.05-5.3,3.2-1.44,21.63.88c-.47,2.05-.36,2.56,1.39,3.69l-.72,2.19-16.49-1.93-10.06,1.9ZM359.18,405.65c.1,30.03-1.71,63.45-7.46,92.88-.25,1.29-.09,2.58-.42,3.97-.97,4.14-3.21,8.47-3.82,12.77l-3.69.47c.42-9.04-1.55-17.8-2.86-26.63-1.45-9.77-4.04-21.05-4.9-30.77-.71-8.07-.7-16.54-1.52-24.84-.93-9.36-1.29-16.59-1.44-25.86-.1-6.17.51-12.57-1.97-18.32,2.23.27,2.86-2.03,4.04-2.6,1.11-.54,2.03.33,2.97.17.35-.06.28-.95.64-1.02,1.78-.34,9.55,1.77,12.14,1.96,2.86.22,5.72-.06,8.54-.48l-.73,16.38c0,.66.49,1.25.49,1.9ZM358.09,372.12c.16.29,1.52.53.39,2.32-8.46,1.11-16.95.37-25.58-.35-1.52-.45-4.04-4.14-4.18-5.61-.12-1.27,2.46-1.04.42-4.21-.29-.46-1.16-.08-.97-.83l30.92,4.47.81.65c-.76.72-2.46,2.36-1.81,3.55ZM359.41,363.45c-1.96-1.43-4.78-2.11-6.8-3.22-1.02-.56-2.34-2.28-4.28-3.02-4.6-1.75-7.63-.15-12.3-2.84-.78-.45-4-2.84-4.35-3.46-1.11-1.91.25-3.57-.59-5.51,5.3.54,9.73,4.51,15.11,5.64,3.74.78,11.42-.94,12.03,4.1.16,1.3-.67,2.11-.61,2.72.05.52,3.04,3.43,1.79,5.6ZM332.08,357.1c1.84.48,3.27,1.54,5.25,1.82,2.28.33,4.7-.23,6.87.45,1.44.45,4.46,3.11,5.94,4.07-1.97.94-3.37-.38-4.66-.47-.87-.06-1.87.51-2.89.5-3.9-.06-7.23.18-11.01-1,1.72-1.68-.91-3.02.49-5.36ZM359.65,349.79c-3.49-2.72-6.79-.44-10.62-1.1-2.76-.47-6.43-2.85-9.16-4.02-2.69-1.15-5.79-1.14-8.04-3.67-.13-2.91-.67-6.15-.76-9.01-.09-2.8.56-6.25.36-8.74-.04-.5-1.7-3,.17-2.54.61.15,1.42.97,2.29,1.15,2.8.56,5.93.03,7.95,3.03l-5.12-1.46-.5.98c1.39,1.97,4.04,1.94,5.96,2.83,3.39,1.58,6.58,3.55,9.76,5.37,2.98,1.71,4.6,3.8,8.43,3.54-.29,2.69-.52,5.32-.48,8.05.03,1.95,1.32,4.18-.23,5.59ZM360.88,310.24c-2.78-.53-4.94-3.31-7.68-3.78-3.47-.6-6.9.8-10.38.37l7.82,1.7c1.28,1.11,2.99,1.29,4.34,2.01,3.01,1.61,3.29,4.84,3.95,8.01l-3.7-1.95-5.08.48c1.32.35,4.86,1.46,5.57,2.45.15.2-.2.83-.11.9.37.31,1.51-.01,2.11,1.06.61,1.09,1.38,8.82.73,9.76-2-.78-3.61-2.69-5.59-3.44-1.43-.54-4.13-.54-5.13-1.22-.78-.53-1.05-2.25-1.76-3.12-2.57-3.11-7.24-3.34-10.43-4.71-2.13-.92-4.26-3.5-6.82-3.68l-.43-3.14c.17-1.22,5.32.03,6.35.39,2.97,1.04,5.79,4.12,9.65,3.77.24-1.1-.58-1.07-1.2-1.48-1.97-1.28-5.95-4.6-7.94-4.76-.94-.08-1.92.59-2.74.34-.85-.26-2.36-4.09-4.72-3.38,1.82-1.78-.22-4.33-.98-6.34,1.12-.84,6.71,5.02,9.96,4.42l.3-1.01c2.19,2.14,2.57-.91.61-1.4-.93-.23-1.88.55-2.58.21-.96-.47-1.99-3.65-3.86-3.76l.45-7.25c6.41,1.2,12.55,4.64,19.24,4.44l9.51,1.96-.37,2.66c-.01.23.84.16.92.53.62,2.89-.4,6.08,0,8.95ZM355.97,294.41c-1.63-.36-3.83-1.65-5.13-1.71-4.23-.17-6.82.11-11.22-1.47-2.57-.92-4.37-3.47-8.01-2.49.6-3.19-3.51-2.63-4.41-5.1.36-1.57,5.44-1.13,6.83-1.72l-.98-1.45c4.01-1.42,7.18,2.11,10.75,3.65,3.08,1.32,6.75,1.79,9.58,3.37.2.11.58.86,1.37,1.29,1.58.86,3.3,1.21,4.91,1.94l1.71,4.39c-1.75-.47-3.65-.31-5.4-.7ZM330.61,274.62c3.17.33,5.5,3.13,8.79,2.93l-4.29.63c-2.26-.73-4.01-.89-4.5-3.56ZM360.38,279.27c-.9.38-6.97-3.3-8.06-4.16l-4.13,2.42c3.11-.62,4.95,1.32,7.37,2.64,2.07,1.13,2.94,0,4.12,3.21.69,1.87-.06,2.29,2.18,3.9-2.93-.42-5.8-2.19-8.67-3.29-1.72-.66-3.68-.93-5.26-1.58-2.48-1.02-4.44-2.94-7.06-3.44l.99-.72c-.02-.41.08-.75-.14-1.13-1-1.75-10.42-5.72-12.68-6.15-.76-.14-1.14-.13-1.84.2-.33-.47,1.11-3.86,1.25-4.86.05-.4-.23-8.03,1.18-6.86l.1.87c4.05-1.72,7.17.63,11.27.7l18.9,6.98c1.4,2.04,1.97,4.96.97,7.27l1.51,1.5-2,2.47ZM362.34,236.54c-1.32-.61-1.18-2.69-1.47-3.9l-.73,3.42c-1.88-.69-3.19,0-5.22-.63-3.33-1.04-6.43-2.92-10.54-4.11-.8-.23-1.62-1.07-2.3-1.1-1.01-.03-5.19,1.92-3.66,3.39.8.21.21-.84.8-.98.71-.17,1.99-.02,2.75.13,5.06.97,9.3,4.32,14.44,4.84.38,3.88,4.58,6.08,2.52,10.17.86.68,3.66-3.12,3.42-.49-1.58-.37-2.23,1.8-2.73,1.94-.88.25-1.67-.94-2.85-.99-.84-.03-4.23.61-4.67,1.49,2.15-.3,6.17.71,3.91,2.93.99.94,5.86.37,5.86,1.71v11.47c-1.47-.72-3.27-1.72-4.78-2.3-8.15-3.11-15.74-6.69-24.71-5.04l-5.16-3.15c4.24-3.26,1.18-3.93.23-6.6-.22-.6.15-.67.55-.92l13.86,1.18c-1.5-2.91-14.42-2.7-14.67-4.97,1.74-3.92,1.35-6.24-1.93-8.94,1.95-.52,4.37-.11,5.85-1.71l-1.94-1.23c1.5-1.52.39-1.92-.49-3.4,1.7-.32,1.47,1.53,1.68,1.81,1.07,1.42,3.41,1.13,5.16,1.6l-4.26-5.36-4.53-1.23c2.39-.91,4.75-4.67,1.46-5.62,2.15-2.28.2-2.77-.49-4.87.7-.07,1.28-.03,1.93.26,2.8,1.27,6.57,5.39,9.66,5.96.85.16,1.71.16,2.57.12.28-1.21-.56-.95-.98-1.23-2.57-1.7-4.22-3.62-6.22-5.13-1.54-1.16-6.14-.67-5.85-2.68.11-.78,1.87-1.11,1.81-2.86-.09-2.57-4.66-5.23,0-7.14,2.33,6.13,10.29,3.35,13.71,8.51l6.32,3.69c.7-.75-4.15-5.01-4.92-5.57-3.24-2.35-7.17-2.26-9.22-3.48-.61-.36-1.94-2.87-2.68-3.67-.62-.68-1.65-.67-1.73-1.43,3.32.68,6.09,2.77,9.6,2.88,1.47.05,2.55-.5,3.8-.46,4.33.14,9.35,2.36,13.92,1.5.26,3.62,2.76,5.83,1.46,9.72l-4.36.51,4.45.78.8,8.28-5.74,1.19c.65,0,3.12.74,3.36,1.04.06.08-.42.67-.31.81.22.28.93.31,1.38,1.3.44.97-.8,1.7,1.19.87l.72.63c-1.14,2.37.36,4.58,0,7.07ZM362.41,154.76l1.06-.63c3.33.7,6.62,2.08,9.92,2.8,4.12.89,11.76,1.24,15.09,2.49,1.63.61,1,.48.73,1.96-8.1-2.27-17.54-2.49-25.88-1.46l-.92-5.15ZM397.51,202.85c.64-1.12,3.26-.19,4.39-.48-.68,1.13-3.26.19-4.39.48ZM412.64,206.28c-1.4-.71-2.72-1.64-4.39-1.47l4.39-.48v1.95ZM413.62,174.06c-.66-.27-.9-.8-1.72-.96-2.05-.41-11.75-1.86-13.04-1.39-.69.25-1.36.53-1.83,1.13l14.17,1.94c.92.14,3.09.52,2.17,1.74-.43.11-.82-.5-.97-.5h-7.81l-.49,2.46,9.03,1.19c-1.59,3.32-7.63-1.19-9.76,1.71l9.27,1.71-5.58.25-5.65-.49s.39,1,.49,1.11c1.45,1.59,8.43.93,10.74,1.33v2.93c-.43.44-10.71-2.44-12.2-.24.02,1.08,10.98,1.46,12.2,2.2.02.83.27,1.06-.69.94-1.74-.22-4.15-1.29-5.65.28l6.34,1.22v1.95s-9.02-.99-9.02-.99l-7.09.26c.44,1.54,1.89,1.41,3.31,1.56,4.18.42,8.57.53,12.8.64v1.95s-12.21-1.46-12.21-1.46v1.46s12.21.98,12.21.98v1.46c-1.65-.66-3.4-.3-5.02-.6-1.25-.24-7.72-2.75-8.17-.61-.37,1.79,4,1.1,5.07,1.26,2.55.39,5.57,1.79,8.1.93v1.46c-2.14-.18-4.31-.28-6.46-.62-5.77-.92-12.95-2.5-18.77-2.61-1.91-.04-4.65.93-6.27.83-1.38-.09-2.81-1.67-4.64-1.02l.29,1.51c3.49.69,7.17.83,10.71.41l5.61,1.01c-8.91,0-17.93-.38-26.56,1.99-3.63-4.18,1.08-7.79-1.27-11.74,2.69-.88,3.02-7.25,1.68-9.26-.4-.59-1.38-.74-1.72-1.21-.64-.88-.23-1.97-.71-2.73-.23-.37-1.11-.33-1.23-.83-.21-.85.59-8.18.54-10.17-.04-1.37-1.12-4.64-.06-5.38,1.49-1.04,20.38,1.13,23.59,1.26l2.32,3.41-7.53-.52-.77,1.99c3.91-.75,7.88.86,11.46,1,7.08.28,11.93-.99,19.42,1.1,1.91.53,1.37.7,1.34,2.78ZM374.06,429.35l1.45-.48c.12,1.23-.66.78-1.45.48ZM635.33,262.41c-.6,1.27-2.02,2.04-3.42,1.94l3.42-1.94ZM486.38,386.39c-.93.23-2.03.36-2.88.79-10.49,5.3-20.33,10.05-30.29,16.58-11.53,7.56-22.16,17.22-34.37,23.73-6.86,3.66-21.17,10.34-28.53,11.54-.57.09-1.09.27-1.61-.13l-7.27-12.78.95-1.35c-.19-2.53-2.36-3.7-2.46-4.07-.09-.31-.34-3.83-.25-4.03.24-.58,3.39-2.99,4.19-3.65,10.55-8.58,23.21-14.96,34.32-22.81,11.3-7.98,19.05-18.74,28.82-28.06.33-.32,1.91-1.47,2.26-1.15.45,2.7,2.97,5.66,4.87,7.58,7.16,7.22,17.43,13.7,27.35,16.11.57.14,5.96.27,4.9,1.69ZM543.8,362.27c-3.76,4.47-8.72,7.78-13.23,11.43l-.49-10.71c4.88-6.99,11.45-12.47,17.66-18.25l7.49-8.12c-2.61,8.83-5.42,18.51-11.43,25.66ZM557.19,328.1l-1.45-.29c.68,2.49.24,1.43-.47,2.32-7.55,9.47-16.6,17.84-24.62,27.03-2.21,2.53-5.66,6.21-6.11,9.51-.7,5.15.47,9.2-3.47,13.47-1.25,1.35-10,8.28-11.54,9.1-3.31,1.77-11.16,2.13-14.07-.45-1.9-1.69-2.02-4.93-2.99-6.77-.5-.96-1.96-1.61-2.38-2.5-3.18-6.66-.03-16.3-3.74-22.57-4.3-7.28-10.01-13.23-15.75-19.22-2.04-2.13-7.72-4.67-10.54-6.79-7.77-5.83-10.75-10.43-14.43-19.25-1.78-4.26-3.38-10.67-5.26-14.76-.44-.95-1.61-1.54-1.78-2.18-.25-.98,1.61-3.07,2.14-4.1.26-.5-.23-1.19-.14-1.34.1-.17,2.74-1.87,3.28-2.09l-.51-1.34c-2.01-.47-2.59.47-2.38,2.38-1.88-.98-4.41,2.23-5.13,3.9-.68,1.57.23,3.24-2.68,3.42,2.37,2.15,2.19,5.09,3.18,7.79,1.47,4,3.21,8.85,4.88,12.7,6.8,15.65,20.57,21.2,30.92,33.99,5.31,6.57,7.59,10.7,9.22,19.12.66,3.43.68,6.96,1.61,10.35-2.96-.94-5.74-1.51-8.55-2.91-2.61-1.3-15.99-10.34-17.54-12.24-.75-.92-3.6-5.2-4.05-6.2-3.18-7.11-6.64-14.34-9.66-21.61-.48-1.15-.34-2.42-.91-3.41-.85-1.48-2.83-2.18-3.13-3.26-.48-1.71-.43-5.3-1.11-7.07-.15-.4-.75-.49-.88-.81-2.83-7.1-5-13.33-7.01-20.71-.96-3.52-1.99-4.55-5.75-4.76-.29-.29,2.45-2.43,2.68-2.94.36-.8.07-1.81.36-2.32.09-.16,2.15-1.15,2.82-1.82.76-.77,3.38-5.02,3.77-5.13,2.21-.1,4.47.18,6.67-.05,4.23-.45,9.14-1.93,13.24-2.39,10.34-1.16,20.88-.92,31.22-2.02,11.01-1.17,21.45-3.51,32.75-4.04,3.11-.15,18.79-.69,20.88-.16,1.53.39,4.84,2.41,6.72,3.05,3.65,1.23,12.16,2.98,14.83,5.19,1.59,1.31,2.29,5.79,3.14,7.69l-.89.31c.67.62,1.25.99,1.45,1.97,1.05,5.18,1.31,17.85-.02,22.86-1.15,4.34-4.6,7.56-6.81,11.34ZM641.93,277.06c1.08-.46.87,1.43.5,1.97-.15.22-3.89,2.2-4.63,2.7-2.07,1.39-11.3,7.36-12.21,8.89-.17.28-.36.56-.51.85-.48,1.92,3.26-.92,3.65-1.23,3.77-2.95,7.62-5.6,11.81-8.21.42-.26,1.26-1.04,1.62-.34-3.11,2.74-6.49,5.82-9.8,8.27-2.92,2.16-5.57,3.75-8.64,6.12-1.23.95-3.55,1.1-3.53,2.94,1.26,1.15,8.95-5.14,10.74-6.1.77-.41,1.13-.48.97.48-1.53.87-2.58,2.34-3.94,3.38-1.44,1.1-5.85,3.26-6.56,4.18-.28.36-.3.53-.23.98l2.44.48c-1.16.57-2.86,1.3-3.9,1.96-15.34,9.61-40.01,24.95-57.2,28.56-.52.11-2.71,1.91-2.86,1.7-.61-3.26,2.47-5.34,4.1-7.85,4.04-6.24,7.91-10.99,8.34-18.72.33-5.89-.31-13.14-1.33-18.95-.26-1.48-1.99-2.91-.8-4.69,4.13.11,8.06-3.13,12.01-3.85,1.36-.25,3.17.17,4.21-.19.79-.27.82-1.53,1.62-1.8,2.31-.77,6.25-.62,9.07-1.67,4.91-1.83,8.33-3.04,13.45-4.62,2.48-.76,4.81-2.47,7.43-2.57-.71,2.23-8.45,4.49-9.05,5.35-.35.49-.23.94-.22,1.48l21.74-11.71c1.44-.08.41.55-.09.89-1.59,1.08-3.72,1.36-4.56,3.26l1.92.49,12-7.56.73.96-13.84,8.87c-1.77,1.6-.85,2.64,1.17,1.17,3.41-2.5,7.19-4.1,10.67-6.42,1.31-.87,2.17-2.45,3.73-3.11,1.43-.09.42.57-.09.91-1.03.67-2.24.6-2.11,2.5l3.17-1.46c.36-.08.34.53.24.72-.83,1.54-5.75,2.61-4.88,5.62,1.44.43,1.95-1.39,2.42-1.66.37-.21,1.06.17,1.73-.23,1.2-.71,2.18-1.82,3.41-2.5.34-.11.35.51.24.72-.6,1.14-9,6.08-10.7,7.36-.61.46-3.97,3.24-3.93,3.87.09,1.52,3.03-.73,3.36-1.03,2.79-2.48,2.82-2.33,6.05-4.2,1.12-.65,2.57-2.21,3.26-2.52.13-.06,3.05-.58,2.94.18-1.64.57-10.7,7.19-10.73,8.06-.09,2.49,5.29-2.54,5.61-2.68ZM647.05,266.8l.53-1.91,1.42-.03c-.42.85-.77,2.16-1.95,1.94ZM506.76,243.23c-1.28,1-8.3,1.42-10.61,1.85-1.54.28-3.65,1.37-4.82,1.47-3.57.29-5.4-1.83-10.32,0-.45.17-1.18-.17-1.48.02-.88.56-3.1,5.68-4.02,6.43-2.4,1.95-5.51.27-7.93.15-1.87-.09-8.24.33-9.37-.63l-2.63-8.26c-1.1-.64-3.7-6.14-4.1-6.26-.23-.07-1.23-.16-1.23.26-.16,1.13,1.15,3.18.03,3.93-.21.14-4.45.56-5.07.52-3.87-.2-6-3.2-8.99-4.09-3.74-1.11-8.18-.95-11.49-1.69-1.88-.42-3.27-3.06-5.72-2.34,1.53-10.89.24-21.97-.1-32.96-.2-6.62-1.09-17.52-.39-23.91.21-1.92,1.45-3.98,1.47-5.85.04-4.56-.17-9.04.03-13.67.05-1.19-.83-2.43.08-3.56,2-.05,3.84-1.01,5.62-1.45,3.08-.76,6.95-1.3,10.16-1.56.87-.07,1.58.14,2.17-.75-.93-2.68-6.16-.77-6.75-2.52-.73-2.18-.32-5.43-.63-7.67-.25-1.78-1.54-4.6-1.46-5.92.08-1.27,1.81-3.06,2.35-4.56.47-1.32.35-2.74.74-4.08.45-1.56,2.62-3.07.62-4.77-1.96,1.67-2.19,4.01-3.24,6.02-1.23,2.34-2.52,2.15-2.8,5.99-.25,3.53,1.88,5.92,1.86,9.62,0,1.03-.82,2.47-.46,3.73l-2.43-1.95-.49,3.41c1.29.07,1.79.3,2.19-.97l1.22,2.44-8.79-1.46c.88-3.34-.82-6.68-1.01-10-.1-1.69.42-3.61.49-5.36.11-2.59-1.21-3.53.78-6.59,2.34-3.59,7.4-5.82,6.16-11.66,2.39-.38,4.26-2.77,6.5-3.03,3.03-.35,6.7.88,9.75,1.01,8.59.37,17.94-.79,26.41-.04,5.07.45,13.21,2.07,18.48,3.01,8.71,1.55,17.24,4.76,26.13,3.9.48,4.33,1.45,8.57,6.4,9.22l-.97.72c2.33,2.7,2.9,7.66,2.32,11.11-.3,1.77-1.82,4.3-2.28,6.02-.81,3.07-1.2,6.38-2.01,9.47l-3.9-.49,1.93-.51.51-4.37-1.95.49c-.55-2,.16-3.96.02-6.13-.3-4.81-1.65-9.3-2.35-13.76-.72-4.58,1.24-4.16-2.56-7.7-.7-.65-1.45-3.19-2.25-.7.27,1.86,2.31,2.62,2.64,3.72.44,1.48-.22,2.98-.06,4.46.23,2.15,1.92,4.15,2.11,5.74.12.96-.36,6.49-.52,7.72-.46,3.49-3.52,5.68-3.11,9.58l-.55.41c-1.09-.37-4.68-1.01-5.09.3-.7,2.26,2.05,1.25,2.92,1.41,5.29.97,8.7,3.56,13.68,4.69-2.49,2.77-3.31,5.67-4.16,9.26-2.84,12.08-2.39,25.49-2.66,37.86-.05,2.44-.91,5.56-.72,8.11.22,2.93,2.22,5.47,2.12,8.88-.04,1.53-1.94,11.83-2.53,13.13-.16.36-3.67,4.91-3.92,5.11ZM606.1,232.46c-.52,2.82-.22,5.57-1.45,8.31-.38.86-3.77,6.02-4.34,6.4-.5.34-3.07,1.35-3.81,1.6-7.49,2.49-15.69,3.52-23.4,3.63-.85.01-1.8-.39-2.72-.25.36-.8,2.03-2.19,2.34-2.76.6-1.08,1.22-3.01,1.07-4.07-.49-.13-1.29-.51-1.65-.49-.08,0-1.24.91-1.28.99-.18.36,1,.75.75,1.45-.4,1.14-2.38,2.67-3.2,3.67-1.59,1.94-3.12,3.44-4.7,5.3-.69.81-1.34,3.09-2.63,3.98-1.51-.17-3.15.36-4.63.29-5.09-.27-14.4-1.82-19.17-3.34-.47-.15-1.25.32-1.61.12-1.68-.91.16-3.49-.04-4.37-.11-.5-1.05-.62-1.43-1.12-.32-.42-.15-1.09-.8-1.62-1.79-1.46-4.94-.7-7.11-1.06-1.68-.28-3.28-1.57-5.06-1.81-3.02-.41-8.43,1.9-9.25-2.94-.61-3.61,2.23-2.5,3.43-4.4.58-3.53,1.16-7.24,1.97-10.76.34-1.49,1.5-3.05,1.7-4.16.51-2.82-.52-5.66-.49-8.26.08-6.56,1.77-15.71,2.63-22.3,1.37-10.49,1.69-20.3,2.42-30.79.22-3.19,1.08-1.88,1.69-2.42.23-.2.65-2.6,1.18-3.5.6-1.04,1.88-1.68,2.38-2.5,2.11-3.48,3.7-19.78,4.53-24.76.24-1.43,1.28-3.52,1.32-4.6.03-1.03-.85-1.66-1.01-2.88-.08-.66.06-3.93.8-4.1l4.37.91c1.63,2.16.11,7.57,1.99,8.75,2.17,1.36,4.19-.23,2.15-1.16,1.28-1.16.49-2.39.65-3.75.13-1.15.86-3.25.85-4.04,0-.31-1.93-.24-.75-1.26,5.03,1.4,10.18,2.37,15.2,3.83.75.22.65.99.88.99,5.3-.03,7.2,1.83,11.88,2.86,5.35,1.18,14.32,2.41,19.9,3.05,3.41.39,7.69-.22,10.78.41,4.61.94,8.55,2.99,12.79,4.34,1.99.63,4.05.53,5.97,1.36.97.7-1.06,1.42-1.03,2.93.02,1.05.88,1.63,1.01,2.46.63,4.11-.85,10.37-1.43,14.63-.12.87.02,4.36-.11,4.55-.65.96-2.96.65-1.37,3.98-2.62-.15-1.22,2.44-3.42,1.96-.11,1.72,1.62,1.52,2.94,1.46v1.46c-2.5-1.04-6.25,4.01-2,2.65.8-.26,3.49-2.01,3.71-2.01.41,0,.89,1.1,1.7.82.14-.13.34-2.9.61-3.54.47-1.15,1.45-1.01,1.83-1.71,2.1-3.85,3.36-18.34,3.83-23.37.13-1.4-1.08-3.92.81-4.11.7-.05,1.39.04,1.64.84.17.53.59,5.4.58,6.25-.06,2.97-1.86,7.58-2.48,10.78-.95,4.98-1.89,10.02-2.55,15.06-2.35,2.97-7.76,3.9-8.92,7.62-.16.53.15,1.09.06,1.62-2.92,17.29-7.26,35.25-10.48,52.88ZM618.24,202.86v-2.44s3.9,0,3.9,0c-.67,1.91-2.66-.46-3.35,1.27-.18.45,1.31,1.43-.55,1.17ZM661.7,264.85c-.16-.88.66-1.6,1.46-1.95.16.88-.66,1.6-1.46,1.95ZM658.66,215.41c-7.97-2.6-18.12-3.01-26.5-2.29-1.71.15-5.42,1.47-6.37,1.43-1.08-.05-1.87-1.64-3.9-1.48l-6.58,2,.32-1.47c2.01-.77,5.35-.38,7.18-1.05.76-.28.69-1.2.86-1.32.13-.09,1.19.59,2.03.37.37-.1,1.8-1.49,1.81-1.65.11-1.56-4.37.66-4.66.71-2.26.36-4.78-.15-7.05.51l.3-2.01c3.16-.91,7.37-.31,9.96-2.14-.55-2.59-4.31-.08-5.11.03-.98.13-2.92-.63-4.16-.27.42-1.73,1.68-1.9,2.9-2.73.78-.53.48-1.76,2.92-1.2l.03-2.4c.38-.2,3.93,1.22,3.9-.25-.03-1.35-6.43-2.43-7.8-1.71l.49-1.95,2.13.92,2.26-2.13c-.21-1.9-3.45-1.77-3.43.24l-.95-.73.97-3.66c.12-.16,2.33,1.19,2.81,1.33,5.01,1.39,11.82,2.18,16.41,4.1,5.35,2.24,17.86,11.12,22.1,15.25.58.56,6.39,6.85,6.03,7.15-3.01-1.05-5.85-2.56-8.89-3.55Z"/>
      <path d="M614.33,305.85l5.37-1.46c-.38-3.11-4.92-.61-5.37,1.46Z"/>
      <path d="M112.56,424.95c1.13-.21.32-1.21.23-1.68-.33-1.61-.69-5.15-2.91-4.67-.32.33,1.42,6.58,2.68,6.34Z"/>
      <path d="M46.89,271.2l-3.17-1.46c-.86.57-.74,1.06-.73,1.94.74.43,1.82,1.08,2.68,1l1.23-1.48Z"/>
      <polygon points="268.1 329.77 267.58 332.67 265.18 331.96 266.21 329.87 268.1 329.77"/>
      <path d="M194.85,300.97c3.22.72,5.25-1.88,8.3-1.46-.34,1.37-.5,2.14.97,2.68-4.68,2.72-.53,3.94-.5,4.4.14,2.04-5.3-1.83-5.13.74l2.12,1.7-.9,1.71c-.81.12-.51-1.22-1.23-1.45-2.3-.74-2.06,2.99.74,1.94l-.96,6.43c1.45-.32,3.09.09,4.22,1.13.11.1.2.18.3.26.67-3.21,2.63-7.27,2.55-9.78l3.18-.73c.38-1.53-2.85-3.93-4.39-3.66l.73-1.45,2.2.23-.97-1.94c0-.81,4.86-1.19,5.85-1.21l-1.95,1.45c5.46-1.17,8.93,4.09,11.77,7.77,4.22-.75.7-2.61.5-3.68-.15-.78.99-1.46.69-2.14-.16-.37-3-3.32-3.68-3.42l1.45-1.21-.48-1.23-1.46.49.49-1.46h-1.95c.29-1.86-.69-3.22-1.25-4.88-.43-1.31.3-.31-.69-1.82-.85-1.3-1.13-2.41-2.94-3.07-1.39,2.61-2.43,4.04-2.03,7.25l-2.37.56c-.17-.18.3-4.46.5-5,.32-.86,2.06-.42,1.22-2.33-.43-.98-6.26-4.19-7.57-2.93.67-2.79.15-5.58.54-8.48.3-2.19,1.17-4.22,1.46-6.41l-2.24-2c-1.14.12-4.93,3.36-5.35,4.22-2.06,4.2,2.71,10.69-2.21,13.4l.96,1.21c-3.15.49-6.84,3.07-7.32,6.35l3.41-.48c-1.14,3.41-4.09,6.39-7.83,6.08l-.5,1.46,1.49,1.24-4.88-.97v1.64s.97.8.97.8c-1.79.05-5.83-.13-3.91,2.21l4.89.24c-1.06,1.72-4.38-.19-6.54.56-.67.23-.6,1.27-1.14,1.4-1.22.3-2.64-.47-3.56,1.22l.73,1.21h8.79c1.12,0,3.92-2.94,4.81-3.91.19-.21-.02-.92.5-1.48.47-.51,3.6-3.65,3.83-3.78.53-.31,1.6.08,1.81-.13.14-.14-.07-1.29.28-1.91.84-1.48,4.6-1.88,6.1-2.46.42,3.76-2.56,3.36-3.84,4.46-.06.05.29.79.05,1.24-.87,1.65-2.11,3.08-2.55,5.04,3.21-.16,5.06-2.82,3.91-5.85ZM206.57,300l-1.23,1.46h-.72s0-1.46,0-1.46h1.95Z"/>
      <path d="M239.93,320.95c-.83-1.11-2.04-2.57-2.25-2.75-.11-.09-.52-.33-1.04-.62,1.1.97,2.22,2.11,3.29,3.37Z"/>
      <path d="M120,423.13c.96.85,1.82,3.3,3.78,4.27.35.17,7.51,2.44,3.92,3.41-1.54.42-1.44-1.34-2.31-1.63-.69-.23-1.49.31-2.29-.07-1.87-.89-3.8-4.03-5.65-5.13l.74,2.92-2.23-.45c.2-2.5-1.37-3.72-2.03-5.78-.59-1.85-.54-4.09-1.11-5.95.8.08,1.05-.8,1.7-.02,1.03,1.24,1.65,5,2.68,6.61.91,1.42,2.21,1.31,2.8,1.83Z"/>
      <path d="M232.9,302.96c.36,1.68,1.78,3.8-.45,4.6l2.97,2c-.83,1.7-.76,2.73-.53,4.59-.49.53-5.56-1.93-5.81-2.77.68-2.28-2.27-5.34,1.9-4.06l-1.46-3.9,3.38-.46Z"/>
      <path d="M113.31,432.76c.91-.04.11-1.39.36-2.3.18-.68.83-1.57,1.35-2.09,1.02-.25,1.33,1.82,1.91,2.48.82.92,2.79,1.54,2.72,3.37-2.14.51-2.87-1.57-4.39-2.44-.85,1.03,4.64,5.73,2.18,6.34-1.02.26-5.94-4.62-6.59-5.61-.43-.67-1.86-5.04-.25-4.15l2.7,4.38Z"/>
      <path d="M128.08,419.45c.75,1.19,3.65.52,3.77,2.57-.54.39-3.77-.64-4.26-1.1-.56-.53-.67-2.34-1.37-3.28-1.01-1.35-3.27-1.39-2.67-3.91.28-.33,3.16,1.85,3.43,2.18.94,1.18.6,2.76,1.1,3.54Z"/>
      <path d="M122.58,422.51c.99-.75,1.19-.94,2.43-.49l-.73,1.94-3.6-1.52c.38-2.5-1.59-3.61-2.02-5.79,1.44-1.35,4.05,4.73,3.91,5.85Z"/>
      <path d="M175.16,311.87c1.46-.02,3.61.88,2.12,2.54-1.38-.74-5.35,1.11-5.86-.51s2.68-2.02,3.74-2.04Z"/>
      <path d="M123.77,417.44c.1.16,2.13,1.42.03,1.65-.9-.9-1.86-1.72-2.6-2.77-.42-.6-3.04-4.67-1.3-5.03l3.87,6.15Z"/>
      <path d="M269.08,434.72c.86.86-3.34,5.34-4.88,4.39-.58-.49,3.97-5.3,4.88-4.39Z"/>
      <path d="M129.14,400.36c.12.16.47.19.67.28-.52,3.95-4.88-1.81-3.81-3.02,1.43.04,2.37,1.72,3.14,2.74Z"/>
      <path d="M123.74,409.64c1.06,1.01,2.81,2,1.04,3.59-1.24-1.83-3.35-2.4-2.68-4.87,1.13-.25,1.1.76,1.64,1.28Z"/>
      <path d="M275.76,421.88c-3.38,3.91-4.94.15-.58-2.29l1.08,1.21c-.07.4-.23.77-.5,1.08Z"/>
      <path d="M121.6,444.97v1.46c-1.98.22-4.6-.48-4.4-2.92l4.4,1.46Z"/>
      <path d="M129.86,394.24c-.44,1.15,2.71,3.12.77,3.86-1.85.71-3.61-4.96-.77-3.86Z"/>
      <path d="M125.51,400.54l-1.88-.08c.39-.71-2.7-3.47-.8-3.82,1.41-.26,2.07,3.01,2.68,3.9Z"/>
      <path d="M120.77,435.02c.87.54,2.12.4,2.77,1.4l-2.45,1-1.45-2.45.97-.74c-.03.24-.02.68.16.79Z"/>
      <path d="M267.13,410.81c1.23-.11,1.87-1.81,2.92-.25l-1.71,1.73-1.21-1.48Z"/>
      <path d="M128.44,408.84c-1.92.22-2.66-1.2-2.43-2.93,1.29.58,2.72,1.21,2.43,2.93Z"/>
      <path d="M124.53,439.1v-1.45c1.36-.2,2.04-.65,2.92.72-.88,1.37-1.56.92-2.92.72Z"/>
      <path d="M272.01,405.43c-1.82,1.33-3.26-3.63.02-1.72.56.33.07,1.66-.02,1.72Z"/>
      <path d="M183.62,312.2c.14,2.24-1.15,2.53-2.43.72v-.72s2.43,0,2.43,0Z"/>
      <path d="M267.37,429.98c.3-.18,1.6.09,1.71.6.46,2.17-4.24.87-1.71-.6Z"/>
      <path d="M117.7,414.22h.72s1.22,1.22,1.22,1.22l-.73.73c-1.14-.04-1.36-.98-1.21-1.95Z"/>
      <path d="M144.31,124.28c1.64.6,1.67,5.11.48,5.36-1.84.39-1.49-5.36-.48-5.36Z"/>
      <path d="M53.72,152.09l.87,3.68-1.11.73c-1.89-.43-1.51-2.41-1.61-3.85l1.86-.56Z"/>
      <path d="M144.03,116.99c-.38.92,2.04,4,.27,4.35-1.27.25-4.1-5.69-.27-4.35Z"/>
      <path d="M51.27,128.67l.44,3.12c-2.38,2.37-2.66-1.14-2.38-3.13h1.93Z"/>
      <path d="M51.53,137.45c1.36-.3,2.42,4.06.96,4.39-1.36.3-2.42-4.06-.96-4.39Z"/>
      <path d="M53.72,148.68h-1.45s-.77-2.42-.77-2.42c1.58-3.47,3.33.25,2.22,2.42Z"/>
      <path d="M50.17,122.94c.96,1.01.38,2.48-.6,3.27-1.44-.96-1.32-2.33-1.22-3.89.21-.23,1.55.34,1.82.62Z"/>
      <path d="M143.59,133.56l1.46-.29c1.17,1.34,1.36,2.56-.25,3.68-.98-.83-1.38-2.14-1.21-3.39Z"/>
      <path d="M141.5,111.22c.51.53.64,1.58.61,2.31l-1.87-.08-1.04-2.12c.52-.96,1.68-.75,2.3-.11Z"/>
      <path d="M46.89,116.95c1.17-.89,3.58,2.11,1.15,2.89l-1.54-1.26c.05-.32.32-1.58.39-1.63Z"/>
      <path d="M147.38,148.81c.08.03.97,1.08,1.08,1.32l-2.44.49c-.59-1.23-.3-2.44,1.36-1.82Z"/>
      <path d="M151.39,242.88c-1.6,1.14-2.82-2.61-.25-1.95.8.2.52,1.75.25,1.95Z"/>
      <path d="M138.61,105.81c.07.05.38,1.06.58,1.37-.69-.13-2.04.88-2.44-.24-.51-1.47,1.13-1.63,1.86-1.13Z"/>
      <path d="M143.57,142.33v1.95c-2.68-.1-2.63-2.01,0-1.95Z"/>
      <path d="M499.08,141.85c1.75,3.92-3.3,3.73-1.94,7.31,2.82,0,6.01-1.5,3.41-4.38,3.06-1.1,4.48,2.8,2.45,4.15-.44.29-5.26,1.29-6,1.13-1.94-.41-3.89-2.37-3.29-4.45.09-.32,5.07-4.04,5.37-3.76Z"/>
      <path d="M428.76,123.3c.07.68,0,1.32-.22,1.97-.24.74-1.69,3.89-2.71,2.91-.08-2,.31-5.16,2.92-4.88Z"/>
      <path d="M424.37,130.62c2.54-1.71,1.92,4.63.72,4.88-1.8.38-.94-4.73-.72-4.88Z"/>
      <path d="M426.81,142.82h-1.95c-.67-5.85,2.62-5.87,1.95,0Z"/>
      <path d="M515.68,140.38c-1.78-.75-1.67-2.82-1.95-4.39,2.84-.12,2.75,2.27,1.95,4.39Z"/>
      <path d="M516.1,143.38c1.8,1.08-1.55,7.63-1.88-.07l1.88.07Z"/>
      <path d="M431.2,117.44c-.8,4.88-4.91,4.02-1.47-.28l1.47.28Z"/>
      <path d="M514.64,129.22c.68,1.12.19,2.16.06,3.35h-1.45s-.49-3.41-.49-3.41l1.88.06Z"/>
      <path d="M433.65,120.37c-.17-.8-1.14-4.3.72-3.9,1.35.29.67,3.57-.72,3.9Z"/>
      <path d="M441.94,148.68c.23,1.38-1.18,3.42-2.44,1.7l2.44-1.7Z"/>
      <path d="M438.04,113.05l-2.44,2.43c.28-1.47.5-2.67,2.44-2.43Z"/>
      <path d="M433.64,113.54l-.49,2.44-1.45-.5c-.25-1.47.45-2.16,1.94-1.94Z"/>
      <polygon points="513.73 124.76 513.49 127.2 511.78 124.76 513.73 124.76"/>
      <path d="M447.32,238.98c-1.02.06-1.83.19-2.43-.73l1.21-1.21,1.22,1.22v.72Z"/>
      <path d="M251.08,128.6l2.73-.82.86.39,1.74,6.08c-1.57,4.21-9.66,3.3-8.56-1.75.39-1.81,3.27-3.47,4.62-1.64-3.38,2.52.26,4.93.91,2.85,1.11-3.56-1.17-4.8-4.28-5.09l-.03-1.92,2.02,1.88Z"/>
      <path d="M264.64,130.65c.63,1.55.75,3,.08,4.56l-1.49.28-.02-4.87,1.42.04Z"/>
      <path d="M264.68,140.38l.49,4.39-2.4-.8c-.37-1.17,1.08-4.51,1.91-3.59Z"/>
      <path d="M264.68,123.29l.45,3.59c-2.73,2.36-2.25-.8-1.65-2.62.28-.84.03-1.16,1.2-.97Z"/>
      <path d="M262.98,115c1.3-.25,2.35,3.61.96,3.9-1.26.26-2.2-3.66-.96-3.9Z"/>
      <path d="M548.1,147.69c-.11-1.27,0-2.55.38-3.69-.2.15-.38.35-.48.62-.31.83-.49,2.14-.44,3.48.17-.15.35-.29.54-.41Z"/>
      <path d="M608.47,151.61c.78,2.49-1.87,1.86-1.95,3.9,2.04.68,5.67.28,4.88-2.65.11-1.01,3.11-.15,1.59,3.03-.11.24-3.44,3.61-3.68,3.71-3.15,1.31-8.92-2.69-8.17-6.52,2.65-.21,4.39-1.9,7.33-1.46ZM606.02,157.95c-.84-1.73-1.03-2.97-1.21-4.88-1.06.9-1.34,2.25-1.25,3.58l2.47,1.3Z"/>
      <path d="M543.03,140.38c.25.24-.49,6.21-.7,6.87-.28.91-1.27,1.47-1.66,2.24-.57,1.11-1.32,3.39-1.99,4.26-.71.92-2.26-.05-1.99-1.16l1.38-.06c-.16-2,1.5-2.97,2.13-4.49.5-1.19.01-2.3.2-3.32.15-.82,1.16-5.79,2.64-4.34Z"/>
      <path d="M537.29,146.85c.2-.25.79-.33,1.12-.48l1.07,1.08c-.39.83-2,4.37-3.03,4.15-1.27-.27.5-4.32.84-4.75Z"/>
      <path d="M539.01,144.16c-2,2.76-2.94-5.78.56-2.49.1.4-.31,2.15-.56,2.49Z"/>
      <path d="M539.12,123.3c.33,1.03-.71,1.64-.88,2.32-.27,1.06,1.28,2.37-.58,2.07l-1.47-2.92c1.65-.15.21-2.14,2.92-1.47Z"/>
      <path d="M540.1,134.52c.03.8.39,4.25-1.21,3.9-1.27-.28-.74-4.33,1.21-3.9Z"/>
      <polygon points="539.61 129.15 539.98 131.86 538.15 132.57 537.78 129.86 539.61 129.15"/>
      <path d="M534.24,156.97c-1.21.3-2.65,1.14-2.93-.72.84-1.3,3.08-.97,2.93.72Z"/>
      <path d="M609.94,149.63c.32.2,2.73-.24,2.43,1.24-.46,2.27-2.33-.88-2.46-.96-.66-.39-2.43,0-2.41-1.47,0-.5,1.37-1.08,1.96-.49,1.17.58.4,1.64.48,1.69Z"/>
      <path d="M576.24,247.76c-.48-.47.57-2.1,1.22-2.43l.73,1.69c-.17.63-1.66,1.02-1.95.73Z"/>
      <path d="M510.63,379.24c2.89,3.2-.7,8.1-4.51,8.57-2.65.33-6.46.36-7.66-2.55-.26-.64,1.18-5.05,1.68-5.88,2.29-3.82,7.87-3.06,10.5-.15ZM508.36,382l-2.93-.49c.03,2,2.82,2.94,2.93.49Z"/>
      <path d="M449.27,285.35c.48,2.06-1.53,1.85-2.41,2.71s-4.9,6.95-6.38,5.58c-.25-1.02.27-1.3.72-1.96.69-1.01,4.87-5.56,5.76-5.96.76-.34,1.48-.46,2.31-.37Z"/>
      <path d="M451.23,285.84c-.72-.61,2.53-3.42,2.92-1.7.42,1.87-1.67,1.84-2.92,1.7Z"/>
      <path d="M633.86,271.2l-1.47,2.43,1.46.73c-1.18,1.9-3.27,2.32-4.84,3.47-1.91,1.4-6.65,5.63-8.36,6.3-.98.38-1.27.37-1.93-.49l13.18-9.04-.24-.96c-2.34.71-4.36,3.6-6.55,4.14-.39.1-1.64-.01-1.51-.73,1.47-.23,2.1-1.62,3.25-2.37,1.03-.68,2.28-.91,3.35-1.53,1.13-.66,1.57-2.54,3.66-1.95Z"/>
      <path d="M615.16,276.89c-.47.29-3.76,1.66-3.99,1.63-.38-.05-.95-.63-.25-1.21,3.72-3.08,9.3-3.8,12.68-7.58l.43,1.65c-1.69,2.19-4.91,2.54-7.04,3.7-1.05.57-1.47,1.6-1.83,1.82Z"/>
      <path d="M612.86,306.34c-.48,4.11-7.48,2.93-8.82,6.31l-.68.02c-2.69-1.95-.23-2.24,1.75-3.1.97-.42,2.05-.47,3-.91,1.53-.7,2.62-2.8,4.75-2.33Z"/>
      <path d="M614.33,298.53c-.13,1.91-3.03,3.15-4.57,3.5-.42.1-1.05.67-1.29-.33-.46-1.93,4.5-2.43,5.85-3.17Z"/>
      <path d="M621.06,276.97c-.23.4-3.31,2.1-3.95,2.53-.16.11-1,2.26-1.8.24-.54-1.36.2-.96.71-1.25,1.64-.94,3.32-1.85,4.9-2.89.47.07.31,1.08.14,1.38Z"/>
      <path d="M633.86,281.45c.87.93-3.25,3.82-3.9,4.15s-1.35.04-1.47-.5c-.19-.92,5.03-4.01,5.37-3.65Z"/>
      <path d="M617.25,293.16c.82.87-3.49,5.28-4.88,3.17-.24-1.25,4.01-2.49,4.88-3.17Z"/>
      <path d="M613.84,302.92c-.75-.68,3.33-3.09,3.77-3.31.5-.25,1.41-.94,1.6.15.18,1.03-4.99,3.5-5.37,3.16Z"/>
      <path d="M615.79,285.35c-.03,2.06-2.13,3.11-3.9,3.41l-.06-1.73,3.96-1.69Z"/>
      <path d="M624.1,292.19c-1.45,1.91-2.49,4.29-5.37,3.9l3.4-3.18,1.97-.71Z"/>
      <path d="M628,281.45l-3.01,3.79c-.66.36-1.59.01-1.86-.63-.44-1.02,1.63-.94,2.28-1.38.59-.4,1.13-2.14,2.59-1.79Z"/>
      <path d="M618.45,289.46c-.77.77-3.12,3.08-4.11,1.5l4.63-3.16c1.35,1,.16.97-.52,1.66Z"/>
      <polygon points="624.58 287.79 624.51 289.67 620.19 291.21 622.67 288.56 624.58 287.79"/>
      <path d="M612.86,302.93c-1.03,1.48-2.44,3.33-4.39,2.43-.65-.7,1.77-1.94,2.09-2.05.78-.28,1.45-.51,2.3-.38Z"/>
      <path d="M607,276.57c.5,2.03-1.48,1.89-2.93,1.95l2.93-1.95Z"/>
      <path d="M601.63,279.5c.03,1.61-1.53,2.15-2.93,1.95-.44-1.27,2.49-2.35,2.93-1.95Z"/>
      <path d="M613.35,280.47c.78.9-1.67,1.95-1.95.72s1.52-1.21,1.95-.72Z"/>
      <path d="M280.8,182.84l-8.3.49v-1.95c2.33,1.28,7.72-1.42,8.3,1.46Z"/>
      <path d="M292.6,187.16l-.58-1.37c6.43-2.09,8.79,2.36.58,1.37Z"/>
      <path d="M287.14,182.35l-4.63.49c-1.71-3.11,5.9-2.18,4.63-.49Z"/>
      <path d="M289.1,199.45c-.11,2.45-3.67,1.18-5.37,1.46-.25-1.13.14-.78.62-1.1,1.63-1.05,2.96-1.02,4.74-.36Z"/>
      <path d="M285.68,191.63c-1.42-1.25,5.97-3.2,5.85-1.71-1.29,1.81-3.88,1.11-5.85,1.71Z"/>
      <path d="M300.74,174.63l.57,1.38h-5.86c.05-2.34,3.63-1.35,5.29-1.38Z"/>
      <path d="M294.47,174.55c-1.19,1.76-3.67,1.33-5.37.97.03-2.25,3.94-1.42,5.37-.97Z"/>
      <path d="M287.63,178.45v-1.46c1.5-.05,3.28.07,4.39,1.22l-1.21,1.08-3.18-.83Z"/>
      <path d="M293.98,195.53c-1.02-.86,3.42-3.24,4.38-1.22-1,1.57-2.8.96-4.38,1.22Z"/>
      <path d="M290.07,170.65c-.12,2.04-4.88.96-4.87.24,1.28-1.46,3.32-.58,4.87-.24Z"/>
      <path d="M293.98,180.9l-.32,1.47-4.07.48c-.02-1.99,3.07-1.57,4.39-1.95Z"/>
      <path d="M310.09,201.4c1.62,1.64-3.34,2.5-4.39,1.95-.25-1.39.35-.8,1.07-1.09.53-.22,3.04-1.13,3.32-.85Z"/>
      <path d="M304.24,195.53l-3.41-.73c1.24-1.78,3.7-1.84,3.41.73Z"/>
      <path d="M296.43,182.83c-.9-2.68,3.42-1.55,3.41-.72-1.03,1.58-1.87.96-3.41.72Z"/>
      <path d="M294.96,200.42c-.95-.76,3.04-2.98,3.41-1.21.31,1.46-2.54,1.3-3.41,1.21Z"/>
      <path d="M302.77,202.86c-.47-.16-4.04.55-3.41-.72.74-1.51,3.43-1.28,3.41.72Z"/>
      <path d="M299.36,186.74v-.96c1.71-.87,3.42-.05,1.68,1.45l-1.68-.49Z"/>
      <path d="M311.07,204.33c.02,2.89-3.87,1.44-1.95.24l1.95-.24Z"/>
      <path d="M294.47,171.13v1.46c-2.44.18-2.44-1.64,0-1.46Z"/>
      <path d="M294.47,190.66v1.46c-.61.65-3.02-1.98,0-1.46Z"/>
      <path d="M351.12,222.87c-1.05.33-2.03-.81-2.77-.87-1.1-.09-3.4,1.94-4.56-.1,2.5.55,5.85-1.99,7.32.97Z"/>
      <path d="M357.46,228.74c0,.89-3.41.14-3.41-.49l3.41.49Z"/>
      <path d="M75.21,277.05c-1.52.07-1.81-1.87-2.61-2.78-.21-.24-2.19-.24-1.78-2.09,2.07-1.24,4.89,4.33,4.39,4.88Z"/>
      <path d="M50.39,265.72c-.71-1.55-2.58-1.54-2.03-3.8.48-.56,6.87,4.03,2.03,3.8Z"/>
      <path d="M58.6,271.2c-.77-.56-5.41-3.36-4.39-4.39s5.01,2.82,4.39,4.39Z"/>
      <path d="M75.7,267.77c-.87.66-3.95-2.84-4.87-3.17,2.31-2.28,4.05,1.24,4.87,3.17Z"/>
      <path d="M55.68,261.44c.33-.36,2.57,1.3,2.93,1.7,3.07,3.35-3.63,1.96-2.93-1.7Z"/>
      <path d="M64.34,250.32c1.79,3.3-3.34,1.38-3.29-1.32l1.47-.51c.1.9,1.69,1.59,1.82,1.83Z"/>
      <path d="M56.16,274.61c-1.68.33-3.73-.46-3.9-2.43,1.81-1.01,3.49.6,3.9,2.43Z"/>
      <path d="M66.75,246.45c1.83,2.21-.55,3.98-1.83,1.12-.34-.77-.62-1.35-.46-2.25.26-.28,2.04.83,2.28,1.12Z"/>
      <path d="M49.32,268.74c-1.94.42-3.25-1.09-3.4-2.91l3.69,1.45-.29,1.47Z"/>
      <path d="M67.88,260.45c-.9.9-4.91-2.96-2.68-3.41.79-.16,3.15,2.31,2.68,3.41Z"/>
      <path d="M72.77,278.51l-3.41-2.19c1.81-1.95,3.57.04,3.41,2.19Z"/>
      <path d="M52.25,261.43c-.53.44-3.47-1.72-2.92-2.92,1.6-.71,4.24,1.84,2.92,2.92Z"/>
      <path d="M70.69,251.8c.51.52.64,1.59.61,2.31-1.41.25-2.09-.82-2.92-1.72.03-1.41,1.49-1.42,2.31-.59Z"/>
      <path d="M50.59,275.61c4.54.08,1.74,3.88-.77,1.19l.77-1.19Z"/>
      <path d="M62.27,259.98c.34.39,3.2,2.55,1.46,2.92-1.53.32-3.14-1.83-1.46-2.92Z"/>
      <path d="M69.11,279.01c.81-.17,2.88,2.65,1.45,2.92-1.02.19-3.19-2.56-1.45-2.92Z"/>
      <path d="M61.53,270.71c.04,2-2.48,2-2.44,0h2.44Z"/>
      <path d="M74.23,257.04v1.95s-1.46,0-1.46,0c-.11-.9-.03-1.43.74-1.95h.72Z"/>
      <path d="M397.51,187.72l-15.63-.49v-1.46c2.48.05,5.04.02,7.5.15.61.03,1.19.73,2,.76,1.84.07,4.9-1.72,6.13,1.03Z"/>
      <path d="M396.04,197.49h-2.93s1.95,1.46,1.95,1.46l-3.56-.1c-1.36-.38-1.09-1.73-1.09-2.85.7-.87,6.65-1.16,5.63,1.49Z"/>
      <path d="M400.93,175.53l-1.46.98.97,1.94-5.07-.02c-2.68-3.27,2.39-1.69,2.63-1.93v-1.45s2.93.48,2.93.48Z"/>
      <path d="M388.23,196.51l-1.47.25,1.47,1.22c-1.32-.1-4.68,1.37-5.37-.24l1.24-2.71c1.28.24,3.48.16,4.13,1.49Z"/>
      <path d="M389.21,175.52h-7.32l-.49-1.46c.52-.69,8.08-.81,7.81,1.46Z"/>
      <path d="M385.79,165.27v1.46c-8.65.82-8.27-3.06,0-1.46Z"/>
      <path d="M387.74,178.46c.9.97-1.81,1.38-2.26,1.41-.72.05-3.34-.06-3.6-.45-1.72-2.61,5.4-1.45,5.86-.96Z"/>
      <path d="M368.7,201.88v-1.95s6.34,1.22,6.34,1.22c-1.72,1.7-4.18-.29-6.34.73Z"/>
      <path d="M401.9,191.14c-.35.43-4.46.11-5.13,0-.93-.15-1.13-.18-.72-1.21.47-1.18,5.58-.47,5.85,1.21Z"/>
      <path d="M388.22,171.15v1.45s-6.33-.73-6.33-.73c1.52-2.16,4.22-1.02,6.33-.72Z"/>
      <path d="M378.46,167.23c1.33,1.47-5.77,2.36-5.37-.49l5.37.49Z"/>
      <path d="M393.11,193.1c-.42,1.58-5.74,1.41-5.37-.24,1.39-1.67,3.64.12,5.37.24Z"/>
      <path d="M393.6,177.96c-1.51-.24-4.48.86-4.88-1.21.28-1.29,5.11-.66,4.88,1.21Z"/>
      <path d="M394.58,171.63c.91.97-1.67,1.35-2.13,1.3-1.05-.12-2.36-.73-2.75-1.79l4.88.49Z"/>
      <path d="M381.88,182.84c-1.45.37-4.27,1.42-4.39-.97l3.61-.41.78,1.38Z"/>
      <path d="M394.35,181.87l4.13,1.22c-1.15,1.44-3.38.55-4.64-.24l.51-.98Z"/>
      <path d="M399.95,180.41c1.39,1.43-4.24,1.43-4.39-.49,1-.47,3.72-.2,4.39.49Z"/>
      <path d="M391.65,181.87c1.2,1.06-3.55,1.7-3.9.72-.9-2.51,3.08-.82,3.9-.72Z"/>
      <path d="M393.61,189.19v1.46c-1.31-.09-2.95.49-3.9-.73.95-1.22,2.59-.64,3.9-.73Z"/>
      <path d="M373.43,164.38c3.16-.81,1.92,2.49-.57,1.86-1.26-.32-.2-1.67.57-1.86Z"/>
      <path d="M374.07,180.9c.58.42.5,2.41-1.22,1.94s.07-2.77,1.22-1.94Z"/>
      <path d="M384.81,192.61v.97c-1.28.47-1.59.37-2.43-.73.75-1.17,1.31-.44,2.43-.24Z"/>
      <path d="M384.81,188.22v1.46c-.9.11-1.43.03-1.95-.74v-.72s1.95,0,1.95,0Z"/>
      <polygon points="98.65 277.06 98.42 279.02 96.7 279.49 96.93 277.53 98.65 277.06"/>
      <path d="M631.91,198.46c-2.07.82-4.65.28-6.34-1.22.88-2.03,7.29-.08,6.34,1.22Z"/>
      <path d="M628.49,211.15c-.22-3.06,4.36-1.33,4.38-.24.03,1.36-3.68.14-4.38.24Z"/>
      <path d="M635.55,199.22c1.19,1.38,1.03,2.87-.47,2.17-.54-.25-1.34-2.8-2.2-3.41,1.65-.29,1.8.23,2.67,1.24Z"/>
      <path d="M630.44,206.77l-.02,1.43-2.42-.22c.3-1.51,1.19-1.71,2.44-1.21Z"/>
      <path d="M341.35,269.73c-3.82.63-6.48-2.72-9.76-4.14,3.01-2.83,7.8,1.66,9.76,4.14Z"/>
      <path d="M346.72,276.07l-3.52-.63-3.8-1.81c2.68.19,6.65-1.11,7.32,2.43Z"/>
      <path d="M357.54,272.58c-.06-.04-.02-.66-.44-.87-.9-.45-2.14-.38-2.82-1.49l.27-1.47,4.87,2.68-1.87,1.15Z"/>
      <path d="M356.15,187.64c.06.11,1.17-.07.83.81-.91,2.3-2.36-.45-2.57-.59-.75-.49-3.59,0-2.8-1.84.47-1.09,2.49-.82,3.44-.51,2.13.7.89,1.76,1.1,2.13Z"/>
      <path d="M347.21,192.12c.89,2.57-4.09,3.23-4.39,1.7-.28-1.45,3.53-1.5,4.39-1.7Z"/>
      <polygon points="359.42 194.56 358.86 196.44 356.49 196.51 356.49 195.05 359.42 194.56"/>
      <path d="M345.74,185.78c.32.32-.01,2.71-1.21,2.44-1.87-.42.1-3.55,1.21-2.44Z"/>
      <polygon points="341.35 186.75 339.63 186.27 339.4 184.8 341.12 185.27 341.35 186.75"/>
    </g>
  </g>
</svg>