<?xml version="1.0" encoding="UTF-8"?>
<svg id="Camada_2" data-name="Camada 2" xmlns="http://www.w3.org/2000/svg" viewBox="0 0 51.98 22.01">
  <g id="Layer_1" data-name="Layer 1">
    <path d="M11.21,8.05c-.09,0-.18,0-.26,0-.09,0-.16.01-.2,0-.01,0-.04,0-.09,0-.05,0-.09,0-.14,0-.05,0-.1,0-.14,0-.05,0-.08,0-.09,0-.03,0-.05,0-.07-.01-.04-.01-.07-.03-.07-.04l-.02-.09c-.03-.09-.05-.19-.06-.29-.01-.1-.03-.19-.06-.29-.01-.04-.03-.08-.05-.12-.02-.04-.04-.08-.05-.13v-.04s-.02-.03-.02-.07c0-.03,0-.07,0-.11,0-.04,0-.08,0-.11,0-.04,0-.06,0-.08l-.2-.74-.2-.74s-.01-.04-.03-.09c-.02-.05-.04-.1-.06-.16-.02-.06-.04-.11-.06-.16-.02-.05-.03-.09-.03-.1l-.05-.17c-.03-.1-.05-.2-.06-.3-.01-.1-.03-.2-.05-.29-.05-.19-.11-.37-.17-.56-.06-.18-.12-.37-.17-.55-.05-.19-.09-.37-.13-.56-.03-.18-.07-.37-.12-.56-.01-.04-.02-.08-.04-.11-.01-.03-.03-.06-.04-.08-.02-.02-.03-.05-.05-.08-.02-.03-.03-.06-.05-.1h0s0-.04,0-.04c0-.01,0-.03.02-.06.01-.03.03-.06.05-.09.01-.03.03-.06.05-.09.01-.03.03-.05.04-.06,0,0,.01-.02.03-.03.02-.01.03-.02.04-.02.01,0,.04-.02.09-.04.05-.02.09-.04.15-.06.05-.02.1-.03.15-.05.05-.01.08-.02.09-.03.05-.02.11-.05.18-.08.07-.03.14-.07.19-.12.06-.05.11-.1.14-.16.03-.06.04-.13.02-.21-.01-.05-.04-.09-.09-.11-.05-.02-.1-.03-.15-.03-.06,0-.11,0-.17.01-.05,0-.1.02-.13.02,0,0-.03,0-.07,0-.04,0-.06,0-.06,0l-.11.03c-.08.02-.13.04-.18.08-.04.03-.1.06-.18.08-.07.02-.13.02-.18.02-.05,0-.11,0-.18.02l-.07.02s-.02.02-.03.05c-.02.03-.02.06-.03.07,0,0-.02,0-.04.02-.02,0-.04.02-.06.03-.02,0-.05.02-.07.03-.02,0-.03.02-.04.02l-1.25.32c-.1-.02-.2-.03-.3,0-.1.02-.2.04-.3.07-.05.01-.1.03-.15.07-.05.03-.1.07-.15.11-.04.04-.08.09-.1.15-.02.05-.03.11-.01.17.02.07.06.12.11.16.06.04.12.06.19.08.07.01.14.02.22.02.07,0,.14,0,.19-.02.07-.02.12-.04.17-.06.05-.03.1-.05.17-.06h.03s.05-.02.09-.02c.04,0,.09-.01.13-.02.05,0,.09-.01.13-.02.04,0,.07-.01.09-.02,0,0,.01,0,.02,0,0,0,.01,0,.02,0,0,0,.01.01.02.01.02.02.04.04.06.06.02.03.03.04.03.05l.23.85s.05.02.07.05c.02.03.04.05.04.07,0,0,0,.02,0,.05,0,.03,0,.06.01.09,0,.03,0,.07.01.1s0,.05,0,.05l.29,1.11s.01.06.02.11c0,.05.02.11.03.17,0,.06.02.12.03.17,0,.05.02.09.02.12,0,.02,0,.04,0,.06,0,.03,0,.05,0,.08,0,.02,0,.05-.02.07-.01.02-.03.03-.06.04-.02,0-.05,0-.09,0-.05,0-.08,0-.1,0l-3.88,1s-.02-.02-.06-.05c-.03-.03-.07-.07-.11-.12-.04-.04-.08-.08-.12-.12-.04-.04-.07-.06-.08-.07l-.26-1.08-.03-.12-.32-1.3s0-.04.02-.08.04-.1.06-.15c.02-.06.05-.14.08-.22.09-.03.18-.06.27-.09.09-.03.18-.08.26-.12.08-.05.16-.11.22-.17.06-.07.11-.15.14-.25h0s0-.04,0-.04c-.05-.07-.11-.12-.16-.16-.06-.04-.11-.06-.18-.06-.06,0-.13,0-.2,0-.07.01-.15.03-.23.05-.09.02-.19.05-.29.09-.1.03-.19.07-.27.12,0,0-.02.01-.06.03-.03.02-.05.03-.06.03l-.1.03s-.09.02-.13.02c-.04,0-.09-.01-.15-.04l-.36.09c-.2.05-.4.11-.59.16-.2.06-.39.13-.57.23h-.02s-.01,0-.01,0c-.02,0-.06,0-.12,0-.06,0-.1.02-.12.02-.03,0-.06.03-.09.07-.03.04-.05.08-.07.12-.02.04-.03.09-.04.13,0,.04,0,.08,0,.11,0,.03.03.06.07.07.04.02.07.03.12.04.04.01.09.02.13.02.04,0,.08,0,.1.01,0,0,.03,0,.06-.01.03,0,.06-.01.1-.02.03,0,.07,0,.1,0,.03,0,.05,0,.06,0,0,0,.02,0,.05,0,.03,0,.06,0,.09,0,.03,0,.06,0,.09,0,.03,0,.05,0,.06,0,0,0,.02,0,.04,0,.02,0,.04,0,.06.02.02,0,.04.01.06.02.02,0,.03,0,.03.01.09,0,.15,0,.21-.01.05,0,.1.02.15.09,0,.02.01.04.03.06.02.03.03.05.05.07.02.02.03.05.05.07.01.02.02.03.02.04v.06c.03.05.03.11.03.16,0,.05,0,.11.02.16.02.08.05.15.08.22.04.06.06.14.08.22.02.06.03.11.04.17,0,.05.01.12,0,.19l.43,1.62s-.03.08-.02.12c0,.02.01.04.02.06,0,.02.02.04.02.05.02.07.04.13.06.18.03.05.05.11.06.16v.02s.01.05.01.09c0,.05,0,.08,0,.09,0,.05.02.12.04.21.02.09.05.2.07.32.03.12.06.24.09.37.03.13.06.25.09.37.03.12.06.23.08.32.02.09.04.16.05.21,0,.03,0,.08.03.15.02.07.04.15.06.23.02.09.04.16.06.24.02.07.04.12.05.14,0,.04-.01.09-.03.13-.02.04-.05.09-.08.13-.03.04-.06.08-.09.12-.03.04-.06.07-.09.1-.02,0-.05.02-.1.03-.05.02-.09.03-.14.05-.05.02-.09.04-.14.05-.04.02-.08.03-.1.04-.03,0-.06.02-.11.05-.05.02-.08.04-.09.05-.01.01-.02.03-.04.07-.01.03-.03.07-.04.11-.01.04-.02.08-.02.12,0,.04,0,.06,0,.08.02.07.07.13.15.17.08.04.17.08.27.1.1.02.2.04.3.04.1,0,.18,0,.23-.01.04-.01.09-.03.14-.04.06-.02.11-.04.17-.07.05-.02.11-.05.16-.09.05-.03.09-.07.12-.1l1.87-.48c.05-.01.11-.03.18-.06.07-.03.13-.06.18-.1.05-.04.1-.09.13-.15.03-.06.03-.13.01-.2-.02-.07-.06-.12-.11-.15-.06-.03-.12-.04-.18-.04-.07,0-.14,0-.21.01-.07,0-.13.01-.18.01-.02,0-.06,0-.11-.01-.05-.01-.08-.02-.1-.01-.22-.03-.39-.11-.52-.23-.12-.12-.22-.29-.27-.51v-.03s-.01-.02-.01-.04c0-.02,0-.04,0-.07,0-.02,0-.05,0-.07,0-.02,0-.03,0-.04,0,0,0-.02-.01-.05,0-.03-.01-.06-.02-.1,0-.04-.02-.08-.03-.11,0-.04-.02-.07-.02-.1-.05-.2-.12-.4-.19-.59-.07-.19-.13-.39-.19-.6l-.11-.42.03-.05s.03,0,.07-.02c.04-.01.07-.02.09-.03.03,0,.07-.02.13-.03.06-.01.09-.02.09-.02,0,0,.02,0,.04,0,.03,0,.05,0,.08,0,.02,0,.05,0,.07,0,.02,0,.03,0,.04,0l.48-.13s.04,0,.09,0c.05,0,.08,0,.09,0,0,0,.01,0,.03-.02.02,0,.03-.02.05-.03.02-.01.04-.02.07-.04.01,0,.04-.01.08-.03.04-.02.08-.03.13-.05.04-.02.09-.03.13-.05.04-.01.07-.02.09-.03l.09-.02c.06-.02.13-.02.21,0,.08,0,.15,0,.21-.01.08-.02.17-.06.25-.11.08-.05.17-.09.26-.11.1-.03.21-.05.32-.07.11-.02.22-.04.33-.06.01,0,.04,0,.09-.02.04,0,.1-.02.15-.02.05,0,.1-.01.15-.02.05,0,.08-.01.09-.02.1-.02.18-.03.24-.03.05,0,.1,0,.13.03.03.03.06.07.08.13.02.06.05.15.07.26.07.25.13.51.18.75.05.25.11.5.17.75l.06.25c-.02.05-.02.1-.01.15,0,.05.02.1.03.15l.02.09.06.23s.02.02.04.04c.02.02.03.03.04.04v.02c.03.08.03.16,0,.24-.02.08-.08.13-.17.16-.09.02-.18.04-.27.04-.09,0-.19.02-.28.04l-.08.02s-.03.02-.06.04c-.03.02-.06.04-.1.05-.03.02-.06.04-.09.06-.03.02-.05.03-.05.04-.02.04-.03.09-.04.14,0,.05,0,.1.01.16.02.05.04.1.08.13.04.03.08.07.13.11.02,0,.05-.01.09-.03.05-.02.09-.03.14-.04.05-.01.1-.02.14-.03.05,0,.08-.01.1-.02.02,0,.05,0,.1,0,.05,0,.08,0,.09,0,.01,0,.03-.02.05-.03.02-.01.05-.03.07-.05.03-.02.05-.03.07-.05.02-.02.03-.03.03-.04l.7-.18.33-.09c.16-.04.32-.08.47-.11.15-.03.32-.06.5-.08.03.01.07.02.09.01.03,0,.06,0,.09-.02.07-.02.14-.04.2-.08.07-.03.13-.07.18-.12.05-.05.09-.1.12-.16.03-.06.03-.14,0-.22-.02-.07-.06-.11-.14-.14-.07-.03-.15-.04-.24-.05ZM14.86,8.04s-.02-.05-.02-.06l-.63-.52s-.04-.04-.05-.08c0-.03-.01-.06-.01-.1v-.06s-.02-.11-.02-.11c0,0,0-.04.01-.09.01-.05.02-.08.02-.08,0-.12,0-.24,0-.36,0-.12,0-.23-.02-.35,0-.05,0-.09-.01-.14,0-.04-.01-.09-.02-.13.05-.06.07-.14.07-.22,0-.08,0-.16,0-.23,0-.03-.01-.06-.03-.09-.02-.02-.03-.05-.05-.08-.02-.03-.04-.05-.05-.08-.02-.03-.03-.07-.03-.12v-.11s0-.02,0-.06c0-.03,0-.07.02-.11,0-.04,0-.08.01-.11,0-.03,0-.06,0-.06,0-.03,0-.08,0-.15,0-.07,0-.15-.01-.23,0-.08-.02-.16-.03-.23-.01-.07-.02-.12-.02-.15.03-.04.04-.07.04-.1,0-.02,0-.05,0-.09v-.06s-.02-.08-.03-.14c0-.06-.02-.11-.03-.16-.01-.05-.02-.09-.03-.13,0-.04-.01-.06-.02-.06l-.09-.13s-.03,0-.07,0c-.04,0-.07,0-.09,0-.02,0-.06,0-.11.02-.05,0-.09.01-.1.01-.01,0-.04.02-.08.05-.04.03-.08.06-.13.08-.04.03-.09.06-.13.08-.04.03-.06.04-.07.04-.01,0-.04.02-.09.04-.05.01-.08.02-.09.02-.09.05-.17.11-.26.17-.09.06-.17.13-.25.19-.03.02-.05.05-.08.09-.02.04-.03.07-.03.1v.03s.03.07.06.12c.03.05.05.08.05.09,0,.01.03.04.06.07.04.04.08.08.12.12.04.05.08.09.12.13.04.04.07.07.08.08.08.09.13.19.15.29.02.1.04.21.05.33,0,.04,0,.09,0,.15s0,.09,0,.1c0,0,0,.03,0,.05,0,.03-.01.05-.02.08,0,.03-.01.06-.02.09,0,.03,0,.04,0,.05h0s0,.03,0,.03c0,.01.01.04.03.09.02.05.03.08.03.09,0,0,0,.02,0,.05,0,.03,0,.05,0,.08,0,.03,0,.05,0,.08,0,.03,0,.04,0,.04l.04.49s0,.03-.01.08c-.01.05-.02.08-.01.09v.07s.02.09.03.14c0,.05.02.1.02.16,0,.06,0,.12,0,.17,0,.06-.01.11-.03.16-.03.07-.07.14-.13.19-.06.05-.12.11-.18.16-.06.05-.11.11-.15.16-.04.06-.06.12-.05.2.01.13.06.23.15.28.09.05.2.07.33.07.03,0,.08,0,.17,0,.09,0,.18,0,.28,0,.1,0,.19,0,.29,0,.09,0,.16,0,.2-.01l.35-.03.35-.03c.05,0,.1-.02.14-.05.04-.03.08-.06.11-.11.03-.04.05-.08.07-.13.02-.05.02-.09.02-.14v-.04s-.03-.03-.04-.07ZM12.61,1.58c.08.08.16.15.25.22.09.07.18.14.27.21.02,0,.05,0,.08,0,.03,0,.06,0,.07,0,.13-.01.25-.05.35-.11.1-.06.18-.14.25-.24.07-.1.11-.21.14-.32.03-.12.04-.24.03-.37,0-.03-.01-.08-.02-.15-.01-.06-.02-.1-.02-.12,0,0,0-.02-.02-.04-.01-.02-.03-.04-.05-.07-.02-.03-.04-.06-.05-.08-.02-.03-.03-.05-.05-.07-.03-.04-.06-.09-.1-.14-.04-.05-.08-.09-.12-.13-.04-.04-.09-.07-.14-.09-.05-.02-.11-.03-.18-.03-.01,0-.02,0-.02.02-.02,0-.06,0-.11.01-.05,0-.1.01-.16.02-.05,0-.11.02-.16.03-.05,0-.08.01-.1.02-.14.09-.25.21-.33.38-.08.16-.11.33-.1.49.01.12.04.23.09.32.05.09.11.17.19.25ZM19.08,7.32s-.05-.07-.12-.07c-.07,0-.13.01-.19.03-.06.02-.11.04-.16.07-.05.03-.1.06-.15.09-.05.03-.1.06-.16.09h-.27s-.27,0-.27,0c0,0-.02-.01-.05-.03-.03-.01-.06-.03-.09-.04-.03-.01-.06-.03-.1-.04-.03-.01-.06-.02-.07-.03-.03-.02-.06-.04-.08-.07-.02-.03-.04-.07-.05-.1-.01-.04-.02-.08-.03-.11,0-.04-.01-.07-.02-.1,0-.01,0-.04,0-.09,0-.05-.01-.1-.03-.15-.01-.06-.02-.11-.03-.16,0-.05-.01-.08-.01-.09,0,0,0-.03-.01-.06,0-.03-.02-.06-.03-.1-.01-.03-.02-.07-.03-.1,0-.03-.01-.05-.01-.07,0-.01,0-.03,0-.04,0-.02,0-.04,0-.08,0-.06,0-.11.03-.16.02-.05.03-.1.03-.15,0-.07,0-.14-.02-.21-.01-.07-.02-.14-.02-.21,0-.1,0-.19.03-.28.02-.09.04-.18.06-.26,0-.12.01-.24.01-.36,0-.12.02-.23.06-.34.05-.11.13-.2.24-.27h.61s.02,0,.04,0c.02,0,.05,0,.07,0,.03,0,.05,0,.07,0,.02,0,.04,0,.04,0h.09s.08-.01.13-.04c.05-.03.1-.06.14-.1.05-.04.09-.08.12-.12.03-.04.05-.08.05-.11,0-.05-.02-.11-.06-.16-.04-.05-.1-.09-.16-.13-.06-.04-.13-.07-.2-.09-.07-.02-.13-.03-.19-.03-.05,0-.1,0-.15,0-.05,0-.1,0-.15,0-.03,0-.07,0-.09,0-.03,0-.06,0-.1.02-.02,0-.03,0-.05.01-.02,0-.04,0-.05,0-.02,0-.04,0-.07,0-.02,0-.05,0-.07,0h-.06c-.03-.08-.05-.17-.06-.26-.02-.09-.04-.17-.07-.24-.03-.07-.08-.13-.14-.18-.06-.05-.15-.07-.26-.07-.07,0-.14.03-.21.09-.07.06-.13.12-.19.16-.09.06-.17.13-.24.22-.07.09-.15.19-.25.3,0,0-.02.02-.04.04-.01.02-.03.04-.05.07-.02.02-.03.05-.05.07-.02.02-.03.04-.05.05,0,0-.02.02-.04.05-.02.02-.05.04-.07.07-.03.02-.05.05-.07.07-.02.02-.03.04-.04.04,0,.02,0,.04,0,.06v.08c0,.08,0,.13.03.16.02.03.05.06.09.07.04.02.08.03.13.03.05,0,.1.02.16.04.01,0,.03.02.05.03.02.01.05.02.07.04.03.01.05.03.06.05.02.02.03.04.02.07v1.05s-.02.04-.03.09c-.01.05-.02.08-.02.09v.23s0,.59,0,.59c0,.02,0,.06-.02.12-.01.06-.02.09-.03.1,0,.02,0,.05,0,.09,0,.04,0,.07-.01.1,0,.03,0,.06-.01.09,0,.03,0,.04,0,.04v.7c.06.14.14.28.24.39.1.12.2.24.3.35l.17.16s.1.06.17.08c.06.02.13.03.2.04.07,0,.13.02.19.02.06,0,.12,0,.17,0,.14,0,.29-.02.47-.04.18-.03.35-.08.51-.15.16-.07.3-.17.41-.29.11-.12.17-.26.17-.44v-.09c0-.06,0-.11-.02-.16ZM30.21,3.9v-.03s.01-.02.01-.02c0,0,0-.04,0-.09,0-.05,0-.08,0-.09l.02-.07.04-.19c.01-.12,0-.26-.03-.42-.03-.16-.07-.33-.13-.5-.05-.17-.12-.32-.19-.47-.07-.15-.14-.26-.21-.34-.11-.14-.23-.26-.34-.36-.12-.11-.25-.2-.39-.3-.07-.04-.15-.08-.24-.1-.1-.03-.18-.05-.26-.08-.02,0-.05-.02-.09-.04-.04-.02-.07-.04-.07-.04-.01,0-.05-.01-.11-.03-.06-.02-.11-.03-.14-.04-.1-.02-.18-.03-.24-.02-.06,0-.13,0-.21-.01h-.02s-.04-.02-.08-.04c-.04-.02-.06-.03-.07-.04l-1.45-.3s-.04-.01-.09-.03c-.05-.01-.1-.03-.15-.05-.05-.02-.1-.03-.15-.05-.05-.02-.08-.03-.09-.03l-.11-.02-.11-.02s-.09,0-.15-.02c-.07,0-.14-.02-.21-.03-.07,0-.14-.02-.2-.02-.06,0-.09-.01-.11,0-.05,0-.1,0-.15,0-.05.01-.1.03-.15.06-.04.03-.08.06-.12.1-.04.04-.06.09-.07.13,0,.03,0,.06,0,.1,0,.04.02.08.04.12.02.04.04.07.07.1.03.03.06.05.09.06,0,0,.03.02.07.03.04,0,.08.01.12.02.04,0,.07,0,.08,0,0,0,.03.01.06.03.03.02.05.04.05.05.02,0,.05.02.09.04.05.02.09.04.14.05.05.02.1.04.14.06.05.02.08.03.1.03.08.08.12.17.13.28,0,.11,0,.22-.02.32l-.05.22s-.01.01-.03.03c-.01.02-.03.04-.05.06-.02.02-.03.04-.05.07-.01.02-.02.03-.03.04v.02c-.02.05-.02.11-.01.18,0,.06.02.12.04.18-.01.04-.03.1-.05.19-.02.09-.04.19-.06.3-.02.1-.04.2-.06.29-.02.09-.03.16-.03.19-.02.1-.03.22-.03.35,0,.13-.01.24-.03.32-.01.05-.04.1-.07.14-.04.04-.06.09-.08.14,0,.04,0,.08,0,.12.01.05.01.09,0,.12,0,.05-.03.09-.06.12-.03.04-.06.07-.09.1-.03.03-.06.06-.09.1-.03.03-.04.07-.05.11l-.02.08s-.01.08-.03.17c-.01.09-.03.19-.04.29-.02.1-.03.2-.04.29-.02.09-.02.14-.03.16v.06c-.03.09-.06.18-.11.27-.04.08-.07.17-.09.25-.02.07-.02.14,0,.21.01.07.01.13,0,.19v.03s-.01.03-.03.06c-.02.03-.03.07-.05.11-.02.04-.03.07-.05.1-.02.03-.02.05-.02.05,0,.02-.02.04-.04.09-.02.04-.03.09-.05.14-.02.05-.03.1-.04.14-.01.04-.02.07-.02.09,0,.01-.03.02-.06.04-.03.02-.05.03-.05.04-.03.01-.06.03-.11.05-.05.02-.08.04-.09.04-.01,0-.04,0-.08-.01-.04,0-.09,0-.14-.02s-.1-.01-.14-.02c-.04,0-.07,0-.08,0-.02,0-.06,0-.11.02-.05.02-.1.04-.16.07-.05.03-.1.05-.14.09-.04.03-.06.06-.06.07-.01.13,0,.24.05.34.04.1.13.18.25.22h.05s.06.02.08.02c.02,0,.04,0,.06,0,.05.01.09.04.14.09l1.49.31s.05,0,.11,0c.06,0,.1,0,.12,0,.03,0,.09.02.18.03.09.01.18.03.28.05.1.02.19.04.28.06.09.02.15.04.19.05.06,0,.11,0,.16-.01.04,0,.08-.02.12-.04.04-.02.07-.05.11-.08.04-.03.08-.07.12-.12v-.04s0-.03-.03-.07c-.03-.04-.06-.09-.09-.13-.04-.05-.07-.09-.11-.13-.04-.04-.07-.06-.09-.07l-.57-.12s-.03-.02-.07-.05c-.04-.03-.07-.05-.08-.07-.05-.05-.09-.11-.1-.17-.02-.06-.03-.12-.03-.19,0-.06,0-.13.01-.19,0-.06.01-.12.01-.19,0-.01,0-.04,0-.09,0-.05,0-.09,0-.15,0-.05,0-.1,0-.14,0-.04,0-.07,0-.08,0,0,0-.03.02-.05.01-.02.03-.05.04-.07.02-.03.03-.05.05-.08.01-.02.02-.04.03-.05.02-.04.05-.1.09-.16.04-.06.07-.12.08-.17v-.04s-.03-.09-.03-.09c0,0,0-.02,0-.04,0-.03,0-.05,0-.09,0-.03,0-.06,0-.09,0-.03,0-.05,0-.06,0,0,0-.04-.03-.09-.02-.05-.03-.08-.03-.09,0,0,0-.02,0-.03,0,0,0-.02,0-.03v-.02s.01-.02.02-.02c.03-.04.05-.07.06-.09.01-.02.03-.04.04-.06.01-.02.02-.04.03-.04,0,0,0-.03.02-.05.01-.03.03-.05.05-.08.02-.03.03-.06.04-.09.01-.03.02-.05.02-.06.03-.02.07-.02.11-.02.04,0,.08,0,.11,0h.05c.09.03.16.06.21.12.05.05.12.09.21.12l.19.04c.09.04.18.08.27.14.09.06.19.1.3.12.06.01.13.02.2.02.08,0,.16,0,.24,0,.08,0,.16-.01.24-.03.08-.01.14-.03.2-.04.07-.03.13-.05.19-.04.06,0,.13.01.22.03,0,0,.02-.03.05-.05.03-.03.05-.05.06-.05.02-.02.06-.05.11-.09.05-.04.09-.08.14-.12.05-.04.09-.07.13-.1.04-.03.06-.05.07-.05,0,0,.01,0,.03,0,.02,0,.03-.01.05-.02.02,0,.04-.02.06-.04.14-.09.26-.2.37-.31.1-.12.2-.24.28-.37.08-.13.16-.27.22-.41.07-.14.13-.29.19-.43ZM28.81,3.52c-.03.11-.07.23-.12.34-.05.11-.1.22-.17.32-.07.1-.14.19-.23.26-.01.01-.05.04-.1.09-.06.04-.12.09-.18.14-.07.05-.13.09-.2.14-.07.05-.11.08-.15.1-.04.03-.1.05-.18.07-.07.02-.13.03-.17.04-.03.01-.08.03-.14.05-.06.02-.1.03-.1.03-.02.01-.04.03-.07.05-.03.02-.07.04-.11.07-.04.02-.08.05-.11.07-.03.02-.06.04-.07.05h-.06c-.1-.03-.21-.07-.32-.11-.11-.04-.21-.08-.31-.11-.02-.01-.03-.04-.02-.08,0-.02,0-.03.01-.04,0,0,0-.02.01-.04.01-.05-.01-.08-.07-.09,0,0-.03,0-.07.01-.04,0-.06.01-.07.01l-.02-.03s-.01-.03-.01-.03v-.03s0-.02,0-.02c0,0,.02-.03.05-.05.03-.03.05-.04.05-.05.01-.02.03-.04.05-.05.02-.02.03-.03.03-.04l.04-.17.04-.18s0-.02,0-.05c0-.03,0-.06-.01-.09,0-.03,0-.06-.01-.08,0-.02,0-.04,0-.05,0,0,0-.03.01-.09,0-.06.02-.12.03-.19.01-.07.02-.15.03-.23,0-.08.02-.14.03-.19v-.05s.02-.04.02-.04c0,0,.02-.03.05-.05.03-.03.04-.04.05-.05,0-.03,0-.07,0-.11,0-.04.02-.07.02-.11.02-.09.04-.18.08-.27.03-.09.08-.17.14-.24l.16-.77s.05-.05.07-.08c.02-.02.04-.04.05-.06.02-.02.03-.04.04-.05.02-.01.04-.03.07-.06.03-.03.07-.06.11-.09.04-.03.07-.06.1-.09.03-.03.05-.05.07-.06l.08.02h.05s.03.03.05.04c.03.02.06.03.09.05.03.02.06.04.09.05.03.01.04.02.05.03,0,0,.03,0,.05.02.02,0,.05.02.08.03.03.01.05.02.08.03.02,0,.04.02.04.02.01,0,.03.01.06.03.03.01.06.03.09.05.03.02.06.03.09.05.03.01.05.02.06.03,0,0,0,.02,0,.02.01.02.02.02.03.03,0,0,0,.02.01.03,0,.02.02.04.03.06,0,.02.02.04.03.06,0,.02.01.04.02.04,0,0,.02,0,.04.03.02.02.04.03.04.04.01.02.03.03.06.06.02.02.05.05.07.07.02.02.04.04.06.06.02.02.03.03.03.03,0,0,.02.02.02.05,0,.03.02.06.03.09,0,.03.02.06.02.09,0,.03.01.04,0,.05,0,0,.03.04.05.08.03.04.04.07.04.09,0,0,.02.02.03.04,0,.03.02.06.03.09,0,.03.01.06.02.09,0,.03.01.05.02.05.02.08.04.15.07.21.03.06.04.13.02.2-.02.1-.05.21-.08.32ZM35.02,9.81s.03-.05.04-.07l.46-1.19s0-.04,0-.09c0-.04,0-.09,0-.13,0-.04,0-.09,0-.13s0-.07,0-.08c0,0,0-.02.01-.04,0-.02.01-.05.02-.08,0-.03.01-.06.02-.08,0-.03,0-.04,0-.05,0,0,0-.02-.01-.06-.01-.04-.03-.08-.05-.13-.02-.05-.04-.1-.06-.14-.02-.05-.04-.09-.05-.12,0,0,0-.02,0-.03,0-.01-.01-.02-.02-.03,0,0,0-.02-.02-.03-.01-.02-.02-.04-.04-.06-.01-.02-.03-.04-.04-.06-.01-.02-.02-.03-.02-.04-.01-.02-.02-.05-.02-.07,0-.02,0-.05,0-.08,0-.03,0-.05,0-.08,0-.03-.02-.05-.04-.07-.01-.01-.04-.04-.1-.07-.05-.03-.08-.05-.09-.05,0-.01-.02-.03-.04-.04-.02-.02-.03-.03-.04-.05-.02-.04-.04-.06-.05-.09-.01-.02-.03-.04-.04-.06-.01-.02-.02-.03-.03-.03l-.11-.04-.27-.1s-.08-.04-.1-.07c-.02-.03-.05-.07-.07-.1-.02-.04-.05-.07-.08-.11-.03-.03-.07-.06-.13-.09l-.29-.11s-.04-.02-.08-.05c-.04-.03-.07-.05-.07-.05,0-.01-.01-.02-.03-.02-.01,0-.02,0-.03-.01-.06-.02-.11-.03-.16-.02-.05,0-.1.01-.15.01-.13,0-.26-.02-.4-.05-.14-.02-.27-.03-.39-.02-.12.02-.24.03-.35.05-.11.01-.22.03-.33.06-.11.03-.21.06-.32.11-.1.05-.2.11-.3.19-.02.02-.06.05-.11.1-.05.05-.11.09-.17.15-.06.05-.12.1-.17.15-.05.05-.09.08-.11.1-.05.1-.1.19-.16.28-.06.09-.12.17-.19.24l-.39,1.03s-.02.09-.03.16c0,.06,0,.13,0,.2,0,.07,0,.14.02.21,0,.07.01.13.02.17,0,.04,0,.09.02.15,0,.06.02.12.03.18,0,.06.02.11.03.15,0,.04.01.06.02.06,0,.01.01.05.03.1.02.05.05.11.08.18.03.07.06.13.09.19.03.06.05.11.07.14.01.02.03.06.06.11.03.05.06.1.09.15.03.05.06.1.09.15.03.04.05.08.06.1.02.03.06.06.1.09.04.03.09.06.13.09.05.03.09.06.14.09.05.03.08.07.12.1.03.01.07.03.14.06.07.03.14.06.22.1.08.04.15.07.22.1.07.03.12.05.15.06l.04.02.04.02s.07.02.14.03c.06.01.12.02.19.03.06.01.12.02.16.03.05.01.08.02.09.02.02,0,.05,0,.1,0,.04,0,.09,0,.13,0,.05,0,.09,0,.12,0,.04,0,.07,0,.08,0,0,0,.02-.01.05-.03.03-.01.06-.03.09-.05.03-.01.06-.03.09-.04.03-.01.05-.02.05-.01.09-.04.19-.06.3-.07.11,0,.22-.04.32-.08.1-.04.19-.1.28-.19.09-.09.18-.16.27-.22.02,0,.03-.02.05-.03.03-.02.05-.02.05-.03.06-.04.12-.09.16-.17.04-.07.08-.14.13-.19,0,0,.04-.03.07-.07.04-.04.06-.06.06-.07.02-.02.04-.05.07-.09.03-.04.06-.08.08-.12.03-.04.05-.07.07-.11ZM34.07,8.53c-.04.23-.1.44-.18.64-.04.11-.09.22-.14.32-.05.1-.12.2-.2.29-.06.07-.13.13-.19.18-.06.04-.13.11-.19.2-.1.05-.21.11-.33.16-.12.06-.24.11-.36.15-.12.04-.25.07-.38.08-.13.01-.25,0-.37-.05-.05-.02-.09-.04-.11-.08-.03-.03-.05-.07-.07-.11-.02-.04-.04-.08-.05-.12-.02-.04-.04-.08-.07-.12,0,0,0-.01-.02-.03-.02-.01-.03-.03-.05-.05-.02-.02-.04-.04-.05-.05-.02-.02-.03-.03-.04-.03-.05-.05-.08-.1-.09-.14-.02-.05-.03-.09-.03-.14,0-.05,0-.1,0-.15,0-.05,0-.11-.01-.16-.03-.22-.05-.44-.06-.64,0-.21.04-.41.12-.62l.03-.09s.02-.04.04-.08c.02-.04.05-.09.08-.14.03-.05.06-.1.09-.16.03-.05.05-.09.07-.12.04-.05.07-.1.1-.16.03-.06.07-.1.12-.15,0,0,.03-.03.07-.06.04-.03.07-.06.07-.07,0,0,.02-.02.03-.05.02-.03.03-.06.05-.09.02-.03.03-.06.04-.09.01-.03.02-.04.02-.05.01-.01.04-.03.07-.05.03-.02.06-.04.08-.05,0,0,.02-.01.07-.02.04,0,.07-.01.07,0,.01,0,.04-.02.09-.05.05-.03.09-.05.11-.07.17-.12.35-.18.55-.17.19,0,.39.04.57.11.02,0,.06.02.12.05.06.03.1.04.12.05.1.19.18.4.23.63.05.22.07.45.07.68s-.02.46-.07.68ZM38.81,6.71c.04.1.08.21.11.32.02,0,.04.02.07.04.03.02.05.03.06.04.12.06.24.09.35.09.12,0,.23-.03.34-.08.11-.05.21-.12.29-.2.09-.09.16-.19.22-.3.02-.03.04-.08.06-.14.03-.06.04-.1.05-.11,0,0,0-.02,0-.04,0-.02,0-.05,0-.09,0-.03,0-.07,0-.1,0-.03,0-.06,0-.08,0-.05,0-.11,0-.17,0-.06-.01-.12-.03-.18-.01-.05-.04-.1-.07-.15-.03-.05-.08-.08-.14-.12-.01,0-.02,0-.02,0-.02,0-.05-.02-.1-.05s-.1-.04-.15-.06c-.05-.02-.1-.04-.15-.06-.05-.02-.08-.03-.09-.04-.17,0-.33.05-.48.15-.15.1-.27.22-.34.37-.06.11-.09.22-.09.32,0,.1,0,.21.03.31.02.1.05.21.09.31ZM37.83,10.76c.04-.07.08-.13.11-.2.02-.03.02-.06.02-.09,0-.03,0-.06,0-.09,0-.03,0-.06,0-.1,0-.03.01-.07.03-.12l.05-.1s.01-.02.04-.05c.02-.03.05-.05.07-.09.03-.03.05-.06.07-.08.02-.03.04-.04.04-.05.01-.03.04-.07.07-.13.04-.06.07-.13.11-.21.04-.08.07-.14.1-.21.03-.06.05-.11.06-.13.04-.02.07-.04.09-.06.02-.02.03-.05.05-.08l.03-.06s.03-.08.05-.13c.02-.05.04-.1.06-.15.02-.05.03-.09.05-.13.01-.04.02-.06.01-.06v-.16s-.03-.02-.06-.04c-.03-.02-.06-.03-.08-.04-.02,0-.05-.02-.1-.04-.05-.02-.08-.03-.1-.04-.01,0-.05,0-.09,0-.05,0-.1,0-.15,0-.05,0-.1,0-.15,0h-.09s-.05,0-.1-.02c-.05-.01-.08-.02-.08-.02-.1,0-.2,0-.31,0-.11,0-.21.02-.32.03-.04,0-.07.02-.11.04-.04.02-.07.04-.08.07v.03s-.02.08-.03.14c0,.06,0,.09,0,.1,0,.01,0,.05.02.1.01.05.02.11.04.17.01.06.02.12.04.17.01.06.02.09.03.11.02.12.01.23-.02.32-.04.1-.08.2-.13.3-.02.03-.04.08-.08.13-.04.05-.05.08-.06.08,0,0-.01.02-.03.04-.02.02-.04.04-.06.06-.02.02-.04.04-.06.06-.02.02-.03.03-.03.04h0s0,.03,0,.03c0,.01-.01.04-.02.1-.01.05-.02.08-.02.09,0,0,0,.02-.03.04-.02.02-.03.04-.05.06-.02.02-.04.04-.05.06-.02.02-.02.03-.03.04l-.22.44s-.02.02-.06.06c-.04.04-.06.06-.06.07l-.03.06s-.04.09-.06.13c-.02.05-.04.1-.07.15-.03.05-.06.1-.09.15-.03.04-.07.09-.11.12-.06.05-.14.08-.21.09-.08.02-.16.03-.24.04-.08.01-.15.03-.22.06-.06.03-.12.07-.15.14-.06.12-.07.23-.02.32.05.09.13.17.24.23.02.01.07.04.15.08.07.04.15.09.24.14.09.05.17.1.25.14.08.05.14.08.18.1l.31.16.31.15s.1.03.14.03c.05,0,.1-.01.15-.03.05-.02.09-.04.13-.08.04-.03.07-.07.09-.11l.02-.04s0-.04,0-.07c0-.03.01-.06.01-.06l-.25-.77s0-.06,0-.09c.01-.03.02-.06.04-.09l.03-.06.05-.1s.02-.03.06-.07c.04-.04.05-.06.06-.06.07-.1.13-.21.19-.31.06-.1.12-.2.17-.3.02-.04.04-.08.06-.12.02-.04.04-.08.05-.13.07-.03.13-.08.18-.15ZM43.94,13.9l.03-.05s.02-.05.03-.1c.02-.05.02-.08.03-.08,0,0,.02-.01.04-.02.02,0,.04-.02.05-.02l.09-.13c.14-.2.26-.39.36-.57.1-.18.18-.38.24-.61.03-.13.02-.25-.03-.36-.05-.11-.1-.22-.15-.34-.08-.14-.17-.28-.28-.41-.1-.14-.22-.25-.36-.34-.02-.01-.05-.03-.09-.04-.02,0-.03-.01-.05-.03,0,0-.03,0-.07-.02-.05-.01-.1-.02-.16-.03-.06-.01-.12-.02-.18-.03-.06-.01-.12-.02-.16-.02,0,0-.02,0-.03,0-.01,0-.02,0-.03,0-.01,0-.02,0-.03,0-.08.01-.15.02-.22.04s-.14.02-.21.03c-.07,0-.14,0-.21-.01-.07-.01-.14-.04-.2-.09-.04-.03-.06-.07-.05-.11,0-.05.02-.1.04-.16.02-.06.04-.12.05-.17.02-.06.02-.1,0-.14,0-.03-.02-.07-.05-.13-.03-.06-.05-.1-.05-.11,0-.02-.03-.04-.05-.06-.02-.02-.04-.04-.05-.04h-.04s-.04-.02-.04-.02c-.1,0-.2-.01-.3-.04-.1-.02-.2-.04-.3-.04-.09,0-.18,0-.29.04-.1.03-.19.03-.29.02,0,0-.03-.01-.07-.03-.04-.01-.06-.02-.07-.03-.05,0-.11.02-.16.04-.05.01-.1.05-.13.1,0,.08.02.14.03.18.01.04.03.09.07.15,0,0,.02.02.05.05.03.03.04.05.04.06.04.07.06.14.06.22,0,.08,0,.16-.01.25-.01.08-.04.16-.07.24-.04.08-.07.14-.11.2-.03.05-.07.09-.12.12-.05.04-.09.07-.14.1-.05.03-.09.06-.14.09-.05.03-.08.07-.11.11v.02s-.04.04-.05.08c-.02.04-.03.07-.03.09l-.39.57-.38.55c-.05.07-.11.14-.18.22-.06.07-.13.14-.21.19-.07.06-.15.1-.24.14-.08.03-.17.05-.27.04,0,0-.03,0-.05-.01-.03,0-.05-.01-.09-.02-.03,0-.06-.01-.09-.02-.03,0-.05-.01-.05-.01-.01,0-.03,0-.07,0-.02,0-.05.03-.09.05-.04.03-.07.04-.07.04-.01.02-.03.03-.04.04-.01.01-.02.02-.03.03,0,0-.01.02-.02.03-.04.06-.06.11-.07.17-.01.06.02.11.09.16.11.08.23.14.36.18.13.04.25.1.36.18.03.02.06.04.08.06.02.02.05.05.07.1l1.07.72s.04,0,.06,0c.02,0,.03,0,.05,0,.02,0,.03,0,.04,0,.07-.01.12-.03.16-.05.04-.02.08-.05.11-.1.05-.07.05-.13.03-.2-.03-.07-.06-.13-.11-.2-.04-.07-.09-.13-.12-.21-.04-.07-.04-.15,0-.22l.08-.11c.08-.17.16-.35.23-.53.07-.18.15-.34.26-.49.04-.05.07-.1.09-.13.03-.04.05-.07.08-.1.02-.03.05-.06.08-.09.03-.03.07-.07.12-.12,0,0,.02-.02.04-.04.03-.02.06-.05.09-.07.03-.02.06-.05.09-.07.03-.02.04-.04.05-.05l.18-.26s.02-.02.06-.06c.04-.04.06-.06.06-.06.12-.12.22-.23.3-.32.08-.09.16-.16.25-.21.08-.05.18-.09.3-.1.11-.02.26-.01.45,0,.05,0,.07,0,.08,0,.01,0,.03.01.05.03l.03.02s.02.02.03.05c.01.03.02.04.03.05l.26.17s.03.04.07.09c.03.04.06.09.1.15.03.05.06.1.09.15.03.04.05.08.06.1-.03.22-.09.42-.19.61-.1.18-.2.37-.33.54l-.25.36-.3.44c-.16.12-.29.26-.41.42-.12.16-.25.3-.39.43,0,0-.02.02-.03.04-.02.02-.04.05-.06.07-.02.03-.04.05-.06.07-.02.02-.03.03-.03.04-.01,0-.04.02-.08.04-.04.02-.07.04-.12.06-.04.02-.09.04-.13.06-.04.02-.07.03-.09.03-.02,0-.05,0-.09,0-.04,0-.09,0-.13,0-.04,0-.08,0-.12,0-.04,0-.06,0-.06,0l-.04.03s-.02.02-.03.03c0,.01-.01.02-.01.02-.04.06-.04.13.01.22.05.09.12.18.2.27s.17.18.27.25c.09.08.16.13.21.16l1.15.77s.02,0,.05.01c.02,0,.04,0,.06.01.01,0,.04-.01.07-.02.03,0,.07-.01.11-.02.04,0,.08-.01.11-.02.03,0,.06-.01.07-.02,0,0,.02-.02.03-.04.02-.02.03-.03.04-.04.03-.04.04-.09.03-.14,0-.05-.02-.11-.04-.16-.02-.05-.04-.11-.07-.16-.03-.05-.06-.09-.08-.12l-.04-.03s-.04-.02-.06-.03c-.03-.01-.05-.03-.08-.04-.02-.01-.04-.03-.06-.05-.02-.02-.03-.05-.04-.08-.03-.13-.01-.26.05-.4.06-.13.13-.26.21-.38l.15-.22.25-.36c.07-.04.13-.1.2-.18.06-.08.11-.14.15-.19.01-.01.04-.04.08-.08.04-.04.07-.09.12-.14.04-.05.08-.1.12-.15.04-.05.07-.09.08-.11l.04-.05ZM46.26,18.75c-.05-.04-.1-.08-.16-.1-.05-.02-.11-.04-.17-.05-.06-.01-.11-.02-.17-.03-.06,0-.12-.02-.18-.03l-.2-.18-.2-.18s0-.02-.02-.05c-.01-.03-.03-.06-.04-.09-.01-.03-.03-.06-.04-.09-.01-.03-.03-.05-.04-.07-.01-.03-.02-.07-.01-.11,0-.04.02-.08.03-.11.02-.04.03-.07.05-.1.02-.03.04-.06.05-.09,0,0,.03-.03.05-.07.03-.04.05-.08.08-.13.03-.05.06-.09.08-.14.03-.04.04-.07.05-.07,0,0,.02-.02.03-.05.01-.03.03-.06.04-.1.01-.03.03-.07.04-.09.01-.03.03-.05.03-.06,0-.01.01-.02.03-.04,0-.01.02-.03.05-.06.04-.04.08-.07.13-.1.05-.03.09-.06.12-.09.05-.05.09-.11.13-.17.04-.06.08-.12.12-.17.06-.07.14-.14.21-.19.08-.06.15-.11.22-.16.09-.09.17-.17.25-.26.08-.09.17-.16.28-.22.11-.05.23-.06.37-.04l.22.19.24.21s.01.01.03.03c.01.01.03.03.05.05.02.02.04.03.05.05s.02.03.03.03l.07.06s.07.04.12.06c.05.01.11.02.17.02.06,0,.12,0,.17-.01.05-.01.09-.03.11-.05.04-.04.06-.1.06-.16,0-.07,0-.13-.03-.21-.02-.07-.05-.14-.09-.2-.04-.06-.08-.11-.12-.15-.04-.03-.08-.07-.11-.11-.04-.04-.07-.07-.11-.1-.03-.02-.05-.04-.07-.06-.02-.02-.05-.03-.09-.05-.02,0-.03-.02-.05-.03-.02,0-.03-.02-.05-.03-.02-.01-.03-.03-.05-.05-.01-.02-.03-.04-.05-.05l-.04-.04c.04-.08.08-.16.12-.23.05-.08.08-.16.11-.23.03-.08.03-.15.02-.23-.01-.08-.06-.15-.14-.22-.05-.05-.12-.07-.22-.07s-.18,0-.25,0c-.11-.01-.21-.01-.32.01-.11.02-.24.04-.39.06,0,0-.03,0-.05,0-.03,0-.05.01-.08.02-.03,0-.06.01-.09.02-.03,0-.05,0-.07,0,0,0-.03,0-.06,0-.03,0-.06,0-.1,0-.04,0-.07,0-.1,0-.03,0-.05,0-.05,0-.02.01-.03.03-.04.04l-.05.06c-.05.06-.08.1-.08.14,0,.04,0,.08.02.11.02.04.04.07.08.11.03.04.06.08.09.13,0,.01.01.03.02.06,0,.02.02.05.03.08,0,.03.01.06.01.08,0,.03,0,.05-.03.07l-.71.79s-.04.02-.08.05c-.04.03-.06.05-.07.06l-.15.17-.39.44s-.05.04-.1.08c-.05.04-.08.06-.09.06-.01.02-.04.03-.06.06-.03.02-.05.05-.08.07-.02.02-.05.04-.07.06-.02.02-.03.03-.03.03l-.23.26-.24.27c-.05.15-.08.3-.09.45,0,.15,0,.3-.01.45v.23c.03.06.05.11.09.17.04.06.07.11.12.16.04.05.09.1.13.14.05.04.09.08.13.11.1.09.23.18.38.28.15.09.31.17.48.22.17.05.33.07.5.05.16-.02.3-.09.42-.22l.06-.07s.07-.09.09-.14c.02-.05,0-.09-.04-.13ZM51.88,18.2c-.05-.1-.1-.21-.15-.32-.03-.06-.06-.14-.1-.23-.04-.09-.09-.16-.14-.21-.05-.05-.11-.1-.2-.13-.08-.03-.17-.06-.27-.08-.09-.02-.19-.04-.28-.06-.09-.02-.17-.04-.23-.07-.01,0-.04-.02-.07-.04-.03-.02-.06-.03-.07-.03-.11-.02-.23-.03-.35-.01-.12.02-.25.04-.37.08-.12.04-.24.09-.35.16-.11.07-.2.14-.28.22,0,0-.01.02-.03.04-.01.03-.03.05-.05.08-.02.03-.04.06-.06.1-.02.03-.04.06-.05.08-.04.07-.08.13-.12.19-.04.06-.08.13-.11.2l-.02.49.03.1s0,.06.01.12c0,.06,0,.09,0,.11,0,.05,0,.09,0,.12,0,.03,0,.05,0,.08,0,.03,0,.04,0,.05,0,.04.02.09.05.12.03.04.06.08.08.13,0,.04.02.13.04.25.02.13.04.26.05.41.02.14.02.28.01.4,0,.12-.03.2-.07.24-.04.09-.09.17-.15.22-.04.04-.08.06-.12.09-.04.02-.09.05-.14.07-.04.02-.11.03-.2.02-.09,0-.18-.02-.28-.04-.1-.02-.19-.05-.28-.09-.09-.03-.15-.07-.19-.11-.1-.11-.16-.23-.19-.37-.02-.14-.02-.27,0-.41.02-.14.06-.27.11-.41.05-.14.1-.26.13-.37,0-.02.02-.06.03-.1.01-.04.02-.07,0-.08l-.04-.05c-.05-.05-.1-.08-.15-.08-.05,0-.11,0-.17.03-.06.02-.11.05-.17.07-.06.03-.11.05-.16.07,0,0-.04.01-.09.03-.05.01-.08.02-.09.03l-.11.1c-.09.08-.15.15-.19.21-.04.06-.06.13-.07.2,0,.07,0,.14.01.21.01.08.03.16.05.26,0,0,0,.03.01.06,0,.03.01.07.02.1,0,.04.01.07.02.1,0,.03.01.05,0,.05.05.14.12.27.22.4.1.13.2.25.3.36.14.15.31.28.5.4.2.12.41.19.64.22.08,0,.18.01.31.02.12,0,.24,0,.34-.02.14-.04.27-.08.39-.12.13-.03.24-.1.34-.19.04-.03.06-.07.08-.11.02-.04.03-.08.04-.12.01-.04.03-.09.04-.13.01-.05.03-.09.06-.14,0,0,0-.02.02-.04.02-.02.03-.05.05-.07.02-.02.04-.04.05-.06.02-.02.03-.03.04-.04,0-.02.02-.04.03-.07.01-.03.03-.06.04-.1.01-.03.02-.06.04-.09,0-.03.01-.04.01-.05.02-.12.03-.23.03-.35,0-.12,0-.24-.02-.36-.01-.12-.03-.24-.05-.35-.02-.12-.04-.23-.05-.35,0,0-.01-.02-.01-.05,0-.03,0-.04-.01-.05,0,0-.01-.02-.03-.04-.02-.02-.03-.05-.05-.07-.02-.03-.04-.05-.05-.07-.01-.02-.02-.04-.02-.04-.04-.08-.07-.17-.1-.26-.03-.1-.04-.19-.04-.29,0-.1.01-.19.04-.28.03-.09.08-.17.16-.24.14-.13.28-.2.42-.23.14-.03.3-.03.48,0,.05.01.09.03.12.07.04.03.07.07.1.09.09.09.15.19.19.29.04.1.06.21.07.33,0,.11,0,.23-.03.35-.02.12-.06.23-.09.35,0,.01-.01.04-.04.09-.02.05-.03.08-.04.09l.03.03c.05.05.11.08.19.07.08,0,.16-.03.24-.07.08-.04.15-.08.23-.13.07-.05.13-.09.16-.12.1-.09.17-.18.2-.28.03-.09.04-.19.02-.29-.02-.1-.05-.2-.1-.3Z" style="fill: #231f20;"/>
  </g>
</svg>