<?xml version="1.0" standalone="no"?>
<!DOCTYPE svg PUBLIC "-//W3C//DTD SVG 20010904//EN"
 "http://www.w3.org/TR/2001/REC-SVG-20010904/DTD/svg10.dtd">
<svg version="1.0" xmlns="http://www.w3.org/2000/svg"
 width="1280.000000pt" height="1234.000000pt" viewBox="0 0 1280.000000 1234.000000"
 preserveAspectRatio="xMidYMid meet">
<metadata>
Created by potrace 1.15, written by Peter Selinger 2001-2017
</metadata>
<g transform="translate(0.000000,1234.000000) scale(0.100000,-0.100000)"
fill="#000000" stroke="none">
<path d="M6155 12334 c-27 -2 -120 -8 -205 -14 -955 -67 -1847 -322 -2408
-689 -440 -289 -824 -730 -1067 -1226 -318 -649 -390 -1284 -236 -2060 122
-612 400 -1200 743 -1570 l65 -70 -39 -200 c-37 -189 -39 -211 -41 -400 -2
-223 10 -329 54 -513 51 -212 135 -388 245 -518 l53 -63 -192 93 c-691 334
-1042 518 -1105 579 -65 62 -110 133 -202 317 -99 198 -142 263 -235 355 -127
127 -289 217 -443 245 -117 21 -236 -18 -329 -110 -149 -146 -206 -320 -234
-711 l-12 -170 -116 -102 c-333 -293 -466 -499 -448 -695 21 -224 219 -368
587 -428 134 -22 261 -17 484 17 166 26 221 30 316 27 l115 -5 350 -165 c599
-283 926 -439 1335 -638 217 -105 478 -232 580 -281 l185 -90 -2 -111 -2 -111
-158 -84 c-540 -287 -928 -477 -1283 -627 -246 -105 -296 -122 -398 -136 -99
-13 -132 -9 -322 38 -133 34 -157 37 -290 37 -153 0 -240 -14 -391 -61 -93
-29 -154 -74 -212 -157 -69 -97 -91 -164 -90 -277 1 -191 48 -265 353 -554
121 -115 220 -212 220 -215 0 -3 7 -42 14 -86 8 -44 24 -177 36 -295 24 -248
41 -309 110 -413 52 -77 116 -132 195 -168 41 -19 68 -23 150 -23 117 0 191
24 301 96 107 70 287 289 417 506 58 98 132 215 165 261 l60 84 778 413 779
413 50 -57 c286 -328 503 -479 847 -591 375 -123 644 -161 1122 -161 293 0
430 9 629 41 320 51 690 186 909 332 121 80 293 232 388 342 50 57 89 94 97
91 7 -3 352 -181 766 -396 l752 -390 68 -71 c86 -88 137 -168 219 -339 80
-167 130 -235 250 -340 259 -228 434 -285 615 -201 87 41 171 127 217 223 67
141 96 278 121 572 9 106 20 185 28 194 6 8 88 80 180 160 313 269 407 413
394 602 -6 95 -37 161 -115 242 -90 94 -181 142 -367 193 -186 50 -365 49
-574 -5 -261 -68 -280 -64 -771 164 -206 95 -597 276 -868 401 l-492 228 2
125 3 126 475 223 c1483 699 1940 913 1985 928 28 9 88 19 135 22 74 4 105 0
239 -31 173 -41 252 -46 466 -26 154 14 255 38 350 84 135 64 222 157 266 284
25 73 35 185 20 238 -22 82 -210 313 -425 521 l-136 133 0 69 c0 166 -61 470
-129 647 -43 112 -114 190 -219 241 -73 37 -80 38 -176 37 -85 0 -112 -4 -169
-27 -93 -36 -185 -98 -302 -203 -124 -112 -182 -196 -265 -386 -74 -171 -129
-263 -204 -341 -50 -52 -77 -68 -268 -161 -117 -57 -383 -187 -591 -290 l-378
-185 39 47 c92 111 155 229 207 385 72 216 100 431 92 692 -5 158 -11 206 -50
397 l-43 217 39 38 c60 58 215 241 279 329 317 442 493 915 549 1479 24 237 2
682 -46 940 -150 804 -573 1487 -1245 2007 -116 90 -205 146 -335 211 -476
238 -1303 461 -1975 532 -137 14 -766 28 -885 19z m900 -338 c718 -89 1562
-333 1940 -561 181 -110 494 -389 661 -590 385 -462 600 -981 664 -1600 17
-166 15 -526 -4 -680 -53 -418 -189 -793 -410 -1130 -72 -109 -194 -270 -201
-263 -2 2 -11 77 -20 168 -21 194 -16 492 9 632 9 47 48 178 86 290 39 111 82
248 96 303 53 215 70 665 30 810 -24 89 -80 196 -133 255 l-46 51 -99 -98
c-125 -123 -127 -127 -94 -162 68 -71 89 -199 75 -446 -16 -272 -22 -297 -137
-640 -85 -250 -97 -307 -113 -533 -10 -136 -10 -211 -1 -350 17 -261 38 -395
147 -947 43 -219 46 -238 45 -401 0 -293 -43 -499 -147 -697 -90 -170 -214
-246 -648 -396 -99 -35 -229 -87 -290 -116 -110 -53 -301 -175 -406 -258 -129
-103 -267 -322 -309 -492 -11 -44 -23 -128 -27 -188 l-6 -107 -66 -20 c-285
-84 -591 -117 -1171 -126 -603 -10 -987 23 -1284 108 l-79 23 -4 90 c-9 213
-75 393 -209 566 -71 93 -131 148 -255 236 -166 119 -275 172 -479 236 -313
99 -385 127 -504 196 -193 112 -292 276 -357 591 -21 100 -24 143 -23 325 l0
210 56 280 c103 506 126 673 135 950 6 221 -7 415 -37 556 -11 47 -51 177 -90
290 -39 112 -78 230 -86 263 -21 79 -44 325 -44 468 0 171 23 258 84 320 l27
26 -111 114 -110 113 -50 -53 c-58 -62 -112 -168 -136 -267 -22 -87 -24 -370
-6 -555 17 -165 46 -284 130 -526 81 -234 97 -306 112 -504 13 -187 -11 -584
-40 -639 -5 -9 -26 12 -67 70 -355 500 -572 1220 -574 1904 -1 313 51 599 166
905 214 572 624 1087 1107 1390 509 318 1313 545 2163 610 77 6 160 12 185 14
25 2 221 2 435 1 280 -3 427 -8 520 -19z m4713 -5701 c22 -19 37 -49 62 -125
53 -169 71 -270 79 -465 4 -111 12 -189 19 -203 7 -12 109 -118 226 -235 117
-116 239 -247 270 -289 54 -72 58 -80 51 -115 -16 -88 -128 -145 -325 -165
-190 -20 -258 -17 -410 22 -119 31 -149 35 -260 34 -154 0 -241 -22 -414 -100
-67 -30 -600 -281 -1186 -557 l-1065 -503 -3 34 c-4 46 24 224 55 347 27 109
104 342 137 418 l21 47 925 454 925 453 84 79 c107 101 169 188 243 344 150
315 144 304 214 369 186 174 281 216 352 156z m-10562 -49 c87 -44 190 -136
241 -219 22 -34 76 -136 121 -227 90 -182 170 -294 270 -377 68 -57 273 -169
697 -381 405 -202 1221 -592 1238 -592 8 0 17 -8 20 -17 3 -10 31 -90 62 -178
84 -239 129 -425 142 -592 l6 -84 -114 55 c-63 30 -287 138 -499 241 -422 205
-1033 497 -1487 710 -263 123 -302 138 -385 152 -121 20 -284 12 -486 -21
-188 -32 -339 -34 -462 -7 -168 38 -250 82 -250 137 0 37 52 130 116 207 29
36 130 133 223 216 93 83 179 167 191 186 25 40 33 98 50 352 10 163 40 316
74 381 8 16 31 47 51 67 31 34 38 37 72 32 21 -4 70 -22 109 -41z m7523 -1686
c-141 -351 -229 -697 -233 -915 0 -51 8 -140 19 -205 14 -87 19 -163 19 -310
0 -339 -54 -610 -165 -833 -152 -303 -409 -582 -684 -740 -130 -75 -394 -170
-605 -217 -204 -45 -557 -65 -905 -50 -306 14 -510 50 -795 142 -244 78 -371
158 -575 363 -248 248 -395 493 -465 775 -79 322 -91 653 -34 943 39 195 -52
614 -225 1046 -23 57 -40 106 -37 108 9 10 115 -31 119 -46 3 -9 33 -83 67
-166 193 -474 297 -873 366 -1403 l17 -132 122 -119 c328 -317 709 -466 1335
-522 215 -19 660 -17 810 4 585 82 1084 320 1267 604 36 55 42 73 52 160 51
415 118 714 245 1088 56 165 176 479 189 491 7 7 121 53 133 54 6 0 -11 -54
-37 -120z m-4240 -108 c195 -143 291 -308 308 -532 l6 -81 50 -27 49 -27 -6
-290 c-3 -159 -6 -366 -6 -460 l0 -169 -60 59 c-33 33 -62 66 -65 75 -2 8 -18
112 -35 230 -17 118 -43 269 -56 335 -49 234 -154 581 -253 838 -27 70 -45
127 -40 125 4 -2 53 -36 108 -76z m3877 -58 c-53 -141 -151 -446 -189 -594
-53 -202 -74 -311 -111 -566 -35 -248 -41 -267 -109 -332 l-34 -33 -6 323 c-4
178 -7 386 -7 464 l0 140 59 29 c64 30 71 43 71 129 1 106 58 252 139 353 42
53 208 190 217 180 3 -2 -11 -44 -30 -93z m-577 -889 l1 -160 -43 -26 c-54
-35 -163 -89 -177 -89 -7 0 -10 72 -8 222 l3 222 105 31 105 30 7 -35 c4 -19
7 -107 7 -195z m-2641 189 l92 -28 0 -223 0 -223 -72 36 c-40 20 -89 47 -110
61 l-39 24 2 195 c1 176 3 195 18 191 9 -2 58 -17 109 -33z m2292 -289 l0
-233 -47 -15 c-50 -16 -138 -40 -185 -51 l-28 -6 0 255 c0 197 3 255 13 256 6
1 62 9 122 18 61 9 113 15 118 13 4 -2 7 -108 7 -237z m-1946 215 c33 -5 75
-10 93 -10 l33 0 0 -255 c0 -140 -3 -255 -7 -255 -10 0 -132 33 -193 52 l-45
14 -3 237 -2 238 32 -5 c18 -3 60 -10 92 -16z m1558 -277 c2 -142 2 -260 1
-261 -1 -2 -47 -9 -102 -16 l-101 -12 0 258 c0 142 0 261 0 266 0 4 35 10 77
13 43 3 88 6 100 7 l22 2 3 -257z m-1095 233 c2 -2 2 -122 1 -267 l-3 -265
-104 13 c-58 7 -106 15 -108 17 -2 2 -1 119 3 261 l7 258 101 -7 c55 -4 102
-9 103 -10z m294 -6 l99 0 0 -270 0 -270 -130 0 -130 0 0 276 0 277 31 -7 c17
-3 76 -6 130 -6z m469 -255 c0 -204 -3 -267 -12 -270 -7 -2 -61 -5 -121 -7
l-107 -3 0 273 0 272 120 0 120 0 0 -265z m-1480 -452 c0 -123 -3 -223 -7
-223 -9 0 -132 69 -178 100 l-40 27 3 211 3 210 109 -51 109 -52 1 -222z
m2548 110 l-3 -218 -80 -47 c-44 -26 -92 -52 -107 -57 l-27 -10 -3 220 -3 220
105 53 c58 30 108 54 113 55 4 0 6 -97 5 -216z m-348 -163 l0 -229 -122 -39
c-68 -22 -124 -39 -124 -38 -1 1 -5 105 -8 233 l-8 232 44 10 c38 10 209 57
216 60 1 0 2 -102 2 -229z m-1940 187 c90 -26 115 -37 114 -50 0 -9 -1 -112
-2 -228 l-2 -211 -27 6 c-16 4 -72 21 -127 38 l-98 30 3 224 c3 141 8 224 14
224 6 -1 62 -15 125 -33z m1560 -285 l0 -239 -72 -12 c-40 -7 -88 -15 -105
-18 l-33 -5 0 245 0 245 83 10 c45 5 92 10 105 11 l22 1 0 -238z m-1162 212
l62 -7 0 -233 c0 -181 -3 -234 -12 -234 -12 0 -104 13 -175 25 l-33 6 0 231 0
231 48 -6 c26 -4 75 -9 110 -13z m822 -248 c0 -213 -2 -245 -16 -250 -9 -3
-63 -6 -120 -6 l-104 0 0 245 0 244 98 4 c53 1 107 4 120 5 l22 2 0 -244z
m-372 -15 l2 -238 -107 4 c-60 2 -118 6 -130 9 l-23 4 0 234 0 234 128 -4 127
-4 3 -239z m-2328 -111 c30 -140 72 -263 133 -390 28 -58 52 -108 54 -111 2
-3 -335 -185 -749 -404 -414 -219 -774 -411 -799 -427 -70 -43 -177 -190 -342
-468 -96 -162 -243 -341 -320 -392 -52 -34 -122 -47 -155 -29 -12 6 -33 32
-48 57 -24 42 -29 68 -50 268 -26 248 -58 445 -81 493 -8 17 -124 136 -258
263 -266 253 -291 285 -283 365 6 51 40 102 77 116 63 25 212 49 301 49 78 0
120 -7 230 -36 253 -67 460 -57 685 30 175 69 422 176 634 276 180 84 832 416
904 461 39 23 35 29 67 -121z m5106 -13 c996 -463 1337 -618 1399 -637 145
-45 323 -42 522 10 65 17 150 33 189 37 169 14 436 -74 480 -159 14 -27 14
-33 -6 -72 -31 -65 -118 -155 -300 -311 -210 -180 -248 -219 -259 -264 -6 -20
-19 -139 -31 -265 -30 -333 -60 -458 -127 -525 -30 -29 -38 -33 -70 -28 -48 8
-146 75 -250 172 -80 74 -85 82 -172 253 -108 214 -166 299 -286 417 l-90 90
-753 390 c-414 214 -757 392 -763 395 -5 4 15 58 50 131 72 151 105 248 134
396 12 62 23 113 23 113 1 0 140 -65 310 -143z"/>
<path d="M5280 7757 c-3 -3 -124 -20 -270 -37 -277 -33 -622 -81 -745 -105
-212 -40 -389 -171 -475 -350 -46 -95 -60 -159 -60 -264 0 -100 17 -154 132
-430 50 -119 99 -241 111 -271 50 -136 244 -333 409 -416 218 -110 430 -117
613 -21 219 116 751 854 826 1148 22 84 17 258 -9 352 -49 175 -139 293 -271
358 -56 28 -79 33 -161 37 -52 2 -97 2 -100 -1z"/>
<path d="M7347 7749 c-148 -35 -278 -175 -337 -364 -28 -89 -37 -245 -20 -343
31 -185 296 -616 595 -967 139 -163 251 -238 405 -271 86 -18 162 -13 279 18
275 72 489 269 608 560 166 406 193 478 203 527 53 280 -121 566 -411 675 -90
34 -338 73 -899 141 -291 36 -357 40 -423 24z"/>
<path d="M6199 6100 c-123 -101 -208 -193 -291 -317 -159 -235 -227 -443 -246
-754 -18 -283 42 -537 145 -617 91 -68 228 5 426 228 l76 85 3 724 c2 477 0
725 -7 727 -5 2 -53 -32 -106 -76z"/>
<path d="M6495 6170 c-4 -6 -4 -334 -1 -728 l7 -717 47 -59 c83 -102 216 -222
287 -257 90 -44 134 -38 191 25 91 100 129 267 121 536 -9 284 -36 407 -137
617 -90 188 -207 345 -340 456 -145 121 -168 138 -175 127z"/>
</g>
</svg>
