<svg xmlns="http://www.w3.org/2000/svg" width="521" height="521" viewBox="0 0 521.3 521.3"><path d="M245.8 518.7C195.9 514 158.1 501.2 119.8 475.8 92.4 457.7 73.2 439.9 54.9 415.4 36.5 390.9 25.2 369.9 16.1 343.4 0.9 299.3-2 257.2 7.1 212.1 18.5 155.5 51.5 100.8 95.9 64.7 131.5 35.8 170.3 17.2 213.2 8.5c13.4-2.7 18.9-3.1 47.2-3 29.5 0.1 33.3 0.3 48.7 3.6 43 9.2 83.1 29 117.3 58 14.6 12.4 20.3 18.3 32.1 33 71.1 88.9 77 208.1 14.9 302-25.1 37.9-53.4 63.8-95.1 87-21.6 12-55.3 23.1-81.9 26.9-14 2-41.7 3.5-50.7 2.6zM145.3 374c6.4-3.4 6.5-4.9 6.5-93.7 0-90.5-0.5-84.9 7.1-84.9 2 0 30.2 27.3 93 90.1l90.2 90.1 39.7-0.4 39.7-0.4 3.9-4.4 3.9-4.4v-98.6-98.6l-3.9-4.4-3.9-4.4-19.3-0.4c-18.9-0.4-19.3-0.4-23.1 2.9l-3.9 3.3-0.7 85.8-0.7 85.8-5.9 0.4-5.9 0.4-89.5-89.4-89.5-89.4h-37.7c-40 0-43.6 0.5-46.9 6.6-0.9 1.7-1.4 36.4-1.4 102.1v99.5l3.9 3.9 3.9 3.9h18.9c11 0 20-0.6 21.5-1.4zm57.1-1.2c2.6-2.6 2.7-4.4 2.7-47.9 0-39.3-0.3-45.5-2.1-47.3-3-3-24.8-3-27.8 0-1.8 1.8-2.1 8-2.1 47.3 0 54-1.1 50.6 16 50.6 8.9 0 11.1-0.4 13.3-2.7zM353.1 258.1c2.6-2.6 2.7-4.4 2.7-48.6v-45.9l-3-2.1c-2.1-1.5-6.2-2.1-14-2.1-17.5 0-16.4-3.5-16.4 50.2 0 44.3 0 45 2.9 48 2.6 2.7 4.1 3.1 14 3.1 9.3 0 11.5-0.4 13.8-2.7z"/></svg>