<svg xmlns="http://www.w3.org/2000/svg" xmlns:svg="http://www.w3.org/2000/svg" fill-rule="evenodd" stroke-miterlimit="10" clip-rule="evenodd" viewBox="0 0 115.83811 129.42094" xml:space="preserve"><path fill-rule="nonzero" stroke="#000" stroke-width="12.50001" d="M57.9212 123.17092687h-1.25833434l-1.71250137-.56666712L9.89199491 96.64173898c-2.19166842-1.60000128-3.37916937-3.68750295-3.60000288-5.62917117l-.0416667-51.92920821c.29583357-2.71250217 1.51250121-4.77917049 3.07916913-5.93750475L54.28369709 7.15000072l.65416719-.37916697.72916725-.21250017.85416735-.24583353L57.9212 6.25c.76250061 0 1.90833486.10416675 3.04583577.60000048l44.98336932 25.92918741c2.18750175 1.60000128 3.37083603 3.67916961 3.60000288 5.60833782l.03750003 51.95004156c-.29583357 2.72916885-1.52916789 4.80417051-3.11250249 5.9583381l-44.91253593 25.97502078-.7916673.4583337-.90833406.21666684-.71250057.1666668z"/><path fill-rule="nonzero" d="M57.9212 116.92091687c-.30416691 0-.50833374-.06250005-.55416711-.0833334L13.01699741 91.22922965c-.17916681-.13333344-.48750039-.6666672-.51666708-.93333408V39.0833546c.02916669-.22083351.33750027-.75833394.54583377-.91250073l44.36253549-25.60835382C57.4211996 12.55833338 57.62119976 12.5 57.9212 12.5c.30000024 0 .50416707.05833338.55000044.07916673l44.35420215 25.61252049c.17916681.13750011.48750039.67083387.51666708.92916741l-.00416667 51.21670764c-.02500002.22500018-.3333336.75833394-.54583377.91250073l-44.35420215 25.60835382c-.01250001 0-.21666684.06250005-.51666708.06250005"/><path fill="#28aae1" fill-rule="nonzero" d="m57.9212 17.07909045 41.25419967 23.81668572v47.63753811L57.9212 112.35 16.66700033 88.53331428V40.89577617zm0-8.74167366c-.94166742 0-1.88333484.2083335-2.60000208.62083383l-44.38753551 25.6250205c-1.42916781.82500066-2.60000208 2.85000228-2.60000208 4.5000036v51.25837434c0 1.65000132 1.17083427 3.67500294 2.60000208 4.5000036l44.38753551 25.62918717c.71666724.41250033 1.65833466.62083383 2.60000208.62083383.94166742 0 1.88333484-.2083335 2.60000208-.62083383l44.38753551-25.62918717c1.42916781-.82500066 2.60000208-2.85000228 2.60000208-4.5000036V39.08327472c0-1.65000132-1.17083427-3.67500294-2.60000208-4.5000036L60.52120208 8.95825062c-.71666724-.41250033-1.65833466-.62083383-2.60000208-.62083383"/><path fill="#fff" fill-rule="nonzero" stroke="#000" stroke-width=".833334" d="M83.5412 45.88746987c-2.43750195-2.43750195-6.19583829-2.43750195-8.50417347-.12916677L49.94117312 70.85415651c-3.05000244-3.04583577-6.09583821-6.09583821-9.14584065-9.14167398-1.11250089-1.11250089-2.60000208-1.72916805-4.18333668-1.72916805-1.58750127 0-3.07500246.61666716-4.18750335 1.72916805-2.43750195 2.44166862-2.43750195 6.19583829-.12916677 8.50417347l13.4583441 13.46251077c2.30833518 2.30833518 6.06667152 2.30833518 8.3750067 0l29.4166902-29.4166902c2.30416851-2.30833518 2.30416851-6.06250485 0-8.37084003z"/></svg>