<svg xmlns="http://www.w3.org/2000/svg" xmlns:svg="http://www.w3.org/2000/svg" fill-rule="evenodd" stroke-miterlimit="10" clip-rule="evenodd" viewBox="0 0 115.83811 129.42094" xml:space="preserve"><path fill-rule="nonzero" stroke="#000" stroke-width="12.50001" d="M57.9212 123.17092687h-1.25833434l-1.71250137-.56666712L9.89199491 96.64173898c-2.19166842-1.60000128-3.37916937-3.68750295-3.60000288-5.62917117l-.0416667-51.92920821c.29583357-2.71250217 1.51250121-4.77917049 3.07916913-5.93750475L54.28369709 7.15000072l.65416719-.37916697.72916725-.21250017.85416735-.24583353L57.9212 6.25c.76250061 0 1.90833486.10416675 3.04583577.60000048l44.98336932 25.92918741c2.18750175 1.60000128 3.37083603 3.67916961 3.60000288 5.60833782l.03750003 51.95004156c-.29583357 2.72916885-1.52916789 4.80417051-3.11250249 5.9583381l-44.91253593 25.97502078-.7916673.4583337-.90833406.21666684-.71250057.1666668z"/><path fill-rule="nonzero" d="M57.9212 116.92091687c-.30416691 0-.50833374-.06250005-.55833378-.0833334L13.01699741 91.22922965c-.17916681-.13333344-.48750039-.6666672-.51666708-.93333408V39.0833546c.02916669-.22083351.33750027-.75833394.54583377-.91250073l44.35836882-25.60835382C57.41703293 12.55833338 57.62119976 12.5 57.9212 12.5c.29583357 0 .5000004.05833338.54583377.07916673l44.35836882 25.61252049c.17916681.13333344.48750039.67083387.51250041.92916741v51.21670764c-.02500002.22500018-.33750027.75833394-.54583377.9166674l-44.35836882 25.60418715c-.00833334 0-.21250017.06250005-.51250041.06250005"/><path fill="#ce242b" fill-rule="nonzero" d="m57.9212 17.07909045 41.25419967 23.81668572v47.63753811L57.9212 112.35 16.66700033 88.53331428V40.89577617zm0-8.74167366c-.94166742 0-1.88333484.2083335-2.60000208.62083383l-44.38753551 25.6250205c-1.42916781.82500066-2.60000208 2.85000228-2.60000208 4.5000036v51.25837434c0 1.65000132 1.17083427 3.67500294 2.60000208 4.5000036l44.38753551 25.62918717c.71666724.41250033 1.65833466.62083383 2.60000208.62083383.94166742 0 1.88333484-.2083335 2.59583541-.62083383l44.39170218-25.62918717c1.42916781-.82500066 2.60000208-2.85000228 2.60000208-4.5000036V39.08327472c0-1.65000132-1.17083427-3.67500294-2.60000208-4.5000036L60.51703541 8.95825062c-.71250057-.41250033-1.65416799-.62083383-2.59583541-.62083383"/><path fill="#fff" fill-rule="nonzero" stroke="#000" stroke-width=".833334" d="m66.4212 64.71 10.4583417-10.4583417c1.11250089-1.11250089 1.72500138-2.60000208 1.72500138-4.18333668 0-1.58750127-.61250049-3.07500246-1.72500138-4.18750335-1.24583433-1.24583433-2.73333552-1.85833482-4.32083679-1.85833482-1.5833346 0-3.07083579.61250049-4.18333668 1.72916805-3.48750279 3.48333612-6.97083891 6.97083891-10.4583417 10.45417503-3.48750279-3.48333612-6.97083891-6.97083891-10.4583417-10.45417503-2.30833518-2.31250185-6.06250485-2.31250185-8.3750067-.00416667-1.24166766 1.24583433-1.85416815 2.73333552-1.85416815 4.32083679 0 1.5833346.61250049 3.07083579 1.72500138 4.18333668L49.41285306 64.71l-10.4583417 10.4583417c-1.11250089 1.11250089-1.72500138 2.60000208-1.72500138 4.18750335 0 1.5833346.61250049 3.07083579 1.72500138 4.18333668 2.44166862 2.44166862 6.19583829 2.44166862 8.50417347.13333344 3.48750279-3.48750279 6.97083891-6.97500558 10.4583417-10.4583417l10.4583417 10.4583417c2.30833518 2.30833518 6.06250485 2.30833518 8.37084003 0 1.24583433-1.24583433 1.85833482-2.73333552 1.85833482-4.31667012 0-1.58750127-.61250049-3.07500246-1.72500138-4.18750335L66.4212 64.71Z"/></svg>