<svg xmlns="http://www.w3.org/2000/svg" xmlns:svg="http://www.w3.org/2000/svg" fill-rule="evenodd" stroke-linejoin="round" stroke-miterlimit="2" clip-rule="evenodd" viewBox="0 0 30.468393 24.413" xml:space="preserve"><path d="m12.78939 18.188-.63-.667-1.651 1.748c-.111.117-.189.148-.217.148l.001.001c-.013-.008-.057-.074-.057-.258v-3.676l-.742-.786c-.021-.021-.04-.044-.058-.067l-.001 4.529c0 .183-.044.25-.054.257h-.002c-.028 0-.105-.032-.216-.149l-7.6-8.043c-.118-.126-.169-.264-.144-.39.026-.127.127-.235.286-.304l1.936-.847c.193-.084.467-.133.751-.133.279 0 .549.047.739.129l3.6 1.554c.382.165.705.656.705 1.072v1.178c.016-.021.034-.042.053-.062l.747-.804v-.311c0-.416.324-.908.705-1.073l.97-.419 1.119-1.204-2.447 1.056c-.192.083-.465.131-.747.131s-.554-.048-.746-.131l-3.599-1.553c-.165-.072-.28-.194-.325-.346-.046-.152-.017-.318.083-.467l4.259-6.441c.094-.141.21-.219.329-.219.118 0 .235.078.329.219l4.185 6.33.397-.427-3.206-4.85 3.856 4.15.718-.773-5.547-5.971c-.189-.203-.454-.319-.732-.319-.278 0-.543.116-.733.319l-8.836 9.509c-.359.386-.356.984.006 1.367l8.835 9.351c.189.2.451.313.727.313.275 0 .538-.113.726-.313zm-9.309-9.07c.417-.183.982-.658 1.234-1.038l3.417-5.168-6.53 7.027z"/><path d="m30.20139 13.382-8.834-9.509c-.189-.203-.454-.319-.732-.319-.278 0-.543.116-.733.319l-8.836 9.509c-.359.386-.356.984.006 1.367l8.835 9.351c.189.2.451.313.727.313.275 0 .538-.113.726-.313l8.835-9.351c.362-.383.364-.981.006-1.367zm-1.152 1.007c-.026-.127-.127-.234-.285-.304l-1.936-.846c-.193-.085-.467-.134-.751-.134-.279 0-.549.048-.739.13l-3.6 1.553c-.381.165-.705.657-.705 1.073v6.853c0 .184.044.25.057.258l-.001-.001c.028 0 .106-.031.217-.148l7.599-8.043c.119-.126.169-.265.144-.391zm-9.52.399-3.6-1.554c-.19-.082-.46-.129-.739-.129-.284 0-.558.049-.751.133l-1.936.847c-.159.069-.26.177-.286.304-.025.126.026.264.144.39l7.6 8.043c.111.117.188.149.216.149h.002c.01-.007.054-.074.054-.257l.001-6.854c0-.416-.323-.907-.705-1.072zm1.851-.567 3.6-1.553c.165-.072.279-.194.326-.346.044-.152.014-.318-.083-.467l-4.26-6.441c-.094-.141-.21-.219-.329-.219-.119 0-.235.078-.328.219l-4.26 6.441c-.1.149-.129.315-.083.467.045.152.16.274.325.346l3.599 1.553c.193.083.464.131.746.131s.555-.048.747-.131zm5.609-1.549 1.879.821-6.528-7.026 3.416 5.167c.252.38.816.855 1.233 1.038zm-12.711 0c.417-.183.982-.658 1.234-1.038l3.417-5.168-6.53 7.027z"/></svg>