<svg xmlns="http://www.w3.org/2000/svg" viewBox="0 0 512 512" style="height: 512px; width: 512px;"><defs><filter id="shadow-1" height="300%" width="300%" x="-100%" y="-100%"><feFlood flood-color="rgba(155, 155, 155, 1)" result="flood"></feFlood><feComposite in="flood" in2="SourceGraphic" operator="atop" result="composite"></feComposite><feGaussianBlur in="composite" stdDeviation="15" result="blur"></feGaussianBlur><feOffset dx="0" dy="0" result="offset"></feOffset><feComposite in="SourceGraphic" in2="offset" operator="over"></feComposite></filter></defs><g class="" transform="translate(0,0)" style=""><path d="M263.844 40.344C234.1 213.202 145.594 248.03 145.594 369.22c0 60.804 60.106 105.5 118.25 105.5 59.45 0 115.937-41.803 115.937-99.533 0-116.332-85.2-162.312-115.936-334.843zm-58.28 217.094c-27.963 75.53-5.105 154.567 54.25 179.375 15.185 6.348 31.724 7.714 47.905 6.28-116.134 49.787-185.836-79.816-102.158-185.656z" fill="#000000" fill-opacity="1" filter="url(#shadow-1)"></path></g><g class="" transform="translate(256,256)" style=""><g><circle cx="128" cy="128" r="128" fill="#ffffff" fill-opacity="1"></circle><circle stroke="#d0021b" stroke-opacity="1" fill="#ffffff" fill-opacity="1" stroke-width="18" cx="128" cy="128" r="101"></circle><path fill="#d0021b" fill-opacity="1" d="M149.5 123q12.8 3.3 19.4 11.5 6.7 8.1 6.7 20.7 0 18.8-14.4 28.6t-42 9.8q-9.7 0-19.51-1.7-9.73-1.5-19.29-4.6v-25.1q9.14 4.5 18.11 6.9 9.09 2.3 17.79 2.3 12.9 0 19.8-4.5T143 154q0-8.6-7.1-13-7-4.5-20.8-4.5h-13v-21h13.7q12.2 0 18.3-3.8 6-3.9 6-11.75 0-7.28-5.9-11.26-5.8-3.98-16.5-3.98-7.9 0-15.9 1.78-8.03 1.78-15.99 5.25V67.87q9.65-2.71 19.09-4.06 9.5-1.36 18.7-1.36 24.6 0 36.8 8.13 12.2 8.04 12.2 24.29 0 11.13-5.8 18.23-5.8 7-17.3 9.9z"></path></g></g></svg>