<?xml version="1.0" encoding="UTF-8"?><svg id="uuid-d5d7a352-f52b-4311-94d1-a93ed8925323" xmlns="http://www.w3.org/2000/svg" viewBox="0 0 9.47527 484.03656"><defs><style>.uuid-75c785db-273a-4e12-b445-d13022737bc4{fill:#853d28;}</style></defs><path class="uuid-75c785db-273a-4e12-b445-d13022737bc4" d="M4.25378,3.14789l-.08508,1.19104h-.6806s-.6806,0-.6806,0v-.85071c0-1.02094-.08508-1.36121-.51044-1.27612-.25525,0-.34033.17017-.34033,1.27612-.08508,1.53131.08508,1.70148,1.36121,1.70148.76569,0,.93585,0,.93585.25525,0,.17017-.25525.42535-.76569.68054-.93585.5105-1.70154,1.36127-1.70154,2.04187,0,.42535.08508.59552.34033.59552s.34027-.08502.51044-.42535c.17017-.59558.93585-1.36127,1.36121-1.44629.34033-.08514.34033,0,.34033,1.10596v1.19104l-.59552.08508c-.34033,0-1.1911.08502-1.8717.08502-1.36121,0-1.70148.17017-1.27612.6806.17017.17017.51044.25525,1.95673.17017,1.1911-.08508,1.70154,0,1.70154.08508-.08508.08502-.25525.17017-.51044.25519-.6806.17017-1.44629.85077-1.70154,1.44629-.6806,1.53137.17017,3.57312,1.78656,3.91345.25525.08508.42542.17017.42542.25525,0,.1701-.59552.59552-1.27612,1.02087-1.44629.93579-1.78662,1.19104-1.78662,1.53137,0,.51044.5105.42535,1.70154-.34033.6806-.42535,1.27612-.76569,1.27612-.76569.08508,0,.08508.17017.08508.42535,0,.34033-.17017.51044-1.44629,1.27612-.93585.59552-1.44629.93585-1.44629,1.1911-.08508.59552.34033.51044,1.53137-.17017.59552-.34027,1.10596-.6806,1.19104-.6806s.08508.17017.08508.34033c0,.25525-.34033.59552-1.27612,1.19104-.85077.51044-1.27612.93585-1.27612,1.10602,0,.51044.42535.51044,1.44629-.17017l.93579-.59558v49.08844c0,26.96887,0,81.1236,0,108.17755v49.17352s-1.19104-1.10596-1.19104-1.10596c-1.19104-1.10596-1.70154-1.27612-1.78656-.76569,0,.17017,2.46716,2.8075,2.89252,2.97766.17017,0,.25525.76569.08508.76569-.08508,0-.59552-.5105-1.27612-1.02094-1.19104-.93579-1.70148-1.10596-1.87164-.6806-.08508.25525.85077,1.1911,2.297,2.29706.42542.42535.85077.85077.85077.93585,0,.1701-.34027.25519-1.02087.34027-.76569.08508-1.10602.1701-1.1911.34027-.1701.5105.42542.68066,1.36121.59558l.85077-.08508v.42535q0,.42535-.85077.42535c-.93579,0-1.44623.17017-1.44623.5105s.34027.42535,1.36121.42535h.93579v1.02094c0,.51044,0,1.27612.08508,1.61639l.08508.59558-.59552-.08508c-1.27612-.25525-2.38214-1.10602-2.8075-2.21198-.17017-.34033-.25525-.42535-.51044-.42535C0,234.93976,0,235.02484,0,235.45026c.08508,1.19104,1.70154,2.63733,3.31793,2.9776.51044.08508.85077.25525.85077.34033s-.25525.25519-.59552.34027c-1.10602.42542-2.04181,1.70154-2.04181,2.8075,0,1.19104.85071,2.38208,2.04181,2.8075.34027.08508.6806.25519.6806.34027,0,.08508-.34033.25519-.85077.34027-1.70154.34033-3.23285,1.78662-3.31793,2.97766-.08508.42535,0,.59552.25525.59552.25519.08508.34027-.08508.51044-.42535.42535-1.10602,1.53131-1.95673,2.8075-2.21198l.59552-.08508-.08508.93585c0,.51044-.08508,1.27612-.08508,1.61639v.6806h-.93585c-1.10596,0-1.36121.08508-1.36121.42542,0,.34027.5105.51044,1.44629.51044q.85077,0,.85077.42535v.42542l-.85077-.08508c-1.02087-.08508-1.53137.17017-1.36121.59552.08508.1701.42542.25519,1.19104.34027.6806.08508,1.02094.17017,1.02094.34033s-.34033.51044-.85077.93579c-1.44629,1.1911-2.38208,2.04187-2.297,2.29706.1701.5105.76569.25525,1.87164-.6806.6806-.59552,1.19104-1.02087,1.27612-1.02087s.08508.6806-.08508.76569c-.42535.08502-2.9776,2.72241-2.89258,2.9776.17017.51044.59558.25525,1.78662-.76569l1.19104-1.10596v41.4317c0,22.71509,0,101.06573,0,123.86591v41.51678s-.93585-.59552-.93585-.59552c-1.02087-.59552-1.44629-.6806-1.44629-.17017,0,.17017.42542.51044,1.27618,1.10596.93579.59558,1.27612.93585,1.27612,1.1911,0,.1701,0,.34027-.08508.34027,0,0-.59552-.34027-1.19104-.6806-1.10602-.6806-1.61646-.76569-1.53137-.17017,0,.25525.42535.59558,1.44629,1.1911,1.27612.76569,1.44629.93579,1.44629,1.27612,0,.25519-.08508.42535-.08508.42535,0,0-.59552-.34027-1.27612-.76569-1.1911-.6806-1.70154-.85071-1.70154-.34027,0,.34027.34033.59552,1.78662,1.53137.68054.51044,1.27612.93579,1.27612,1.02087s-.17017.17017-.42542.25525c-2.12689.42535-2.72241,3.40302-1.02087,4.76422.25519.25519.6806.42535.93579.51044.25525.08508.5105.17017.5105.25519s-.59558.17017-1.70154.08508c-1.44629-.08508-1.78656,0-1.95673.17017-.42535.51044-.08508.6806,1.27612.6806.76569,0,1.53137,0,1.87164.08508l.59558.08508v1.19104c0,1.10596-.08508,1.19104-.34033,1.10596-.34027-.08502-1.10596-.85071-1.36121-1.44623-.17017-.34033-.25525-.42542-.51044-.42542-.34033.08508-.34033.17017-.34033.59552,0,.76569.76569,1.61646,1.70154,2.04181.42535.25525.76569.5105.76569.6806,0,.25525-.17017.25525-.93585.25525-1.27612,0-1.44629.17017-1.36121,1.70148.08508,1.02094.08508,1.1911.34033,1.27618.34027,0,.51044-.25525.51044-1.27618v-.85071h.42535s.6806,0,.6806,0l.08508,1.10596c.17017.93585.17017,1.10602.42535,1.10602.25525,0,.34033-.17017.42542-1.10602l.08508-1.10596h.6806s.6806,0,.6806,0v.85071c0,1.02094.08508,1.36121.51044,1.27618.25519,0,.34027-.17017.34027-1.27618.08508-1.53131-.08508-1.70148-1.36121-1.70148-.76562,0-.93579,0-.93579-.25525,0-.1701.25519-.42535.76569-.6806.93579-.51044,1.70148-1.36121,1.70148-2.04181,0-.42535-.08508-.59552-.34027-.59552-.25525,0-.34033.08508-.5105.42542-.1701.59552-.93579,1.36121-1.36121,1.44623-.34027.08508-.34027,0-.34027-1.10596v-1.19104l.51044-.08508c.25525,0,1.02094-.08508,1.78656-.08508,1.53137,0,1.95679-.17017,1.44629-.6806-.1701-.17017-.51044-.25525-1.95673-.17017-1.61639.08508-2.12689-.08508-1.19104-.34027.6806-.17017,1.44629-.85077,1.70154-1.44629.6806-1.53137-.17017-3.57318-1.78662-3.91345-.25519-.08508-.42535-.17017-.42535-.25525s.59552-.59552,1.27612-1.02087c1.44629-.93585,1.78656-1.1911,1.78656-1.53137,0-.51044-.51044-.42535-1.70148.34027-.6806.42542-1.19104.76569-1.27612.76569s-.08508-.1701-.08508-.42535c0-.34033.17017-.51044,1.44629-1.27612.93579-.59552,1.44629-.93585,1.44629-1.19104.08502-.59558-.34033-.5105-1.53137.1701-.59552.34033-1.10602.6806-1.19104.6806-.08508,0-.08508-.1701-.08508-.34027,0-.25525.34027-.59552,1.27612-1.19104.85077-.5105,1.27612-.93585,1.27612-1.10602,0-.51044-.42535-.51044-1.44629.17017l-.93585.59552v-41.51678c0-22.80017,0-101.06573,0-123.86591v-41.4317s1.1911,1.10596,1.1911,1.10596c1.19104,1.10602,1.61639,1.27612,1.70148.6806.08508-.25519-.42535-.76569-1.44629-1.70148-1.02087-.93585-1.53131-1.44629-1.53131-1.70154,0-.1701,0-.34027.08502-.34027,0,0,.5105.34027.93585.76569.42535.42535,1.02094.85071,1.27612,1.02087.42542.25525.85077.25525.85077-.08508,0-.17017-1.02094-1.19104-2.29706-2.21198-.42535-.34027-.85071-.76563-.85071-.85071,0-.17017.42535-.25525,1.10596-.34033.93585-.08508,1.10596-.17017,1.19104-.42535.08508-.51044-.25519-.59552-1.27612-.51044l-.93585.08508v-.5105q0-.51044.85077-.51044c.93585,0,1.61646-.17017,1.61646-.51044s-.34033-.5105-1.44629-.42542h-1.02094v-.6806c0-.34027,0-1.10596-.08508-1.61646l-.08502-.93579.59552.08508c1.27612.25525,2.38208,1.10596,2.8075,2.21198.1701.42535.59552.59546.85071.34027.17017-.17017-.08508-1.02087-.25519-1.44617-.59558-.85077-1.70154-1.53137-2.8075-1.78662-.51044-.08508-.85077-.25519-.85077-.34027,0-.08508.25525-.25525.59552-.34033,1.10602-.34027,2.04181-1.61639,2.04181-2.80743s-.93579-2.38214-2.04181-2.8075c-.34027-.08508-.6806-.25519-.6806-.34027s.34033-.25525.85077-.34033c1.70148-.34027,3.23285-1.78656,3.31793-2.9776.08508-.42542,0-.59558-.25525-.59558-.25519-.08508-.34027.08508-.51044.42542-.42535,1.10596-1.53137,1.95673-2.8075,2.21191l-.59552.08508.08508-.59552c0-.34027.08508-1.02087.08508-1.61639v-1.02094h1.02087c1.10602,0,1.44629-.08508,1.44629-.42535,0-.34033-.6806-.5105-1.61639-.5105q-.85077,0-.85077-.51044v-.51044l.93585.08508c1.02087.08508,1.36121-.08508,1.27612-.5105-.08508-.25519-.25525-.34027-1.1911-.42535-.6806-.08508-1.10596-.25525-1.10596-.34033s.34033-.42535.85077-.85071c1.44629-1.1911,2.38208-2.04187,2.297-2.29706-.1701-.51044-.76562-.25525-1.87164.6806-.6806.59552-1.19104,1.02087-1.27612,1.02087s-.08508-.1701-.08508-.34027.51044-.76569,1.53137-1.70148c1.02087-.93585,1.44629-1.53137,1.44629-1.70154,0-.59552-.51044-.42535-1.70154.6806l-1.19104,1.10596v-49.17352c0-26.96887,0-81.20862,0-108.17755V21.43903s.93585.59552.93585.59552c1.02087.59552,1.44629.6806,1.44629.17017,0-.17017-.42542-.51044-1.27618-1.10596-.93579-.59552-1.27612-.93585-1.27612-1.1911,0-.17017,0-.34027.08508-.34027,0,0,.59552.34021,1.19104.68054,1.10602.6806,1.61646.76575,1.53137.17017,0-.25525-.42535-.59552-1.44629-1.19104-1.27612-.76575-1.44629-.93585-1.44629-1.27612,0-.25525.08508-.42542.08508-.42542,0,0,.59552.34033,1.27612.76569,1.1911.68066,1.70154.85077,1.70154.34033,0-.34027-.34033-.59552-1.78656-1.53131-.6806-.5105-1.27618-.93585-1.27618-1.02094s.17017-.17017.42542-.25519c2.12689-.42542,2.72241-3.40302,1.02087-4.76422-.25519-.25519-.6806-.42535-.93579-.51044-1.02094-.25525-.5105-.42535,1.19104-.34033,1.44629.08508,1.70148.08508,1.95673-.17017.51044-.51044.08508-.6806-1.44629-.6806-.6806,0-1.53137,0-1.78656-.08502l-.51044-.08508v-1.19104c0-1.10596.08502-1.19104.34027-1.10596.34033.08508,1.10596.85071,1.36121,1.44629.17017.34033.25525.42535.51044.42535.34033-.08508.34033-.17017.34033-.59552,0-.76569-.76569-1.61646-1.70154-2.04187-.42535-.25519-.76569-.51038-.76569-.68054,0-.25525.17017-.25525.93585-.25525,1.27612,0,1.44629-.17017,1.36121-1.70148-.08508-1.02094-.08508-1.1911-.34027-1.27612-.34033,0-.5105.25519-.5105,1.27612v.85071h-.6806s-.6806,0-.6806,0l-.08508-1.19104c-.1701-.93579-.1701-1.10596-.42535-1.10596s-.34027.17017-.42535,1.10596ZM6.29559,469.40356c.25519.25525.34027.59552.42535,1.10602.08508.59552,0,.76562-.34027,1.19104-.25525.25519-.6806.59552-1.02094.6806-.76569.25519-1.70148,0-2.21198-.59552-.34027-.42542-.42535-.59552-.34027-1.27612,0-.5105.17017-.85077.42535-1.10602.76569-.76569,2.29706-.76569,3.06274,0ZM5.44482,239.87408c.51044.25525.85077.51044,1.10596.85077.25525.25525.34033.76569.34033,1.10596,0,.76569-.59552,1.53137-1.44629,1.87164-.6806.34033-.76569.34033-1.44629,0-1.87164-.85071-1.87164-3.06268,0-3.82837.6806-.34027.76569-.34027,1.44629,0ZM6.38068,12.25079c.85071.93585.25519,2.55225-1.02094,2.89258-1.27612.34027-2.46716-.34033-2.55225-1.61646-.08508-.6806,0-.85077.34027-1.27612.85077-.93579,2.38214-1.02094,3.23291,0Z"/></svg>