<?xml version="1.0" encoding="UTF-8"?><svg id="uuid-8e0ec680-06dc-42a2-977d-0ce39ef213ea" xmlns="http://www.w3.org/2000/svg" viewBox="0 0 238 147.7"><defs><style>.uuid-6a751e51-21f7-44d8-971a-1df2887a1d14{fill:#853d28;}</style></defs><path id="uuid-b637e563-3959-4341-a9f0-13f321055640" class="uuid-6a751e51-21f7-44d8-971a-1df2887a1d14" d="M6.75067,147.41895c-.3-.39999,0-.89999.7-.89999.5,0,.5.10001.5.5s-.1.5-.5.60001c-.3.09999-.6-.00002-.7-.20001ZM6.65067,145.21895c-1.1-.39999-1.6-2-1.2-3.10001.4-1,1.8-1.39999,2.9-.8,1.3.7,1.1,3.2-.3,3.8-.6.3-.9.3-1.4.10001h0ZM7.85067,144.11894c.5-.39999.6-1.3.1-1.7-.7-.7-1.7-.3-1.7.7.1.90001.9,1.5,1.6,1h0ZM3.85067,139.81896c-.2-.60001-.1-2.39999.1-2.89999.2-.39999.3-.5,1.1-.5,1.5,0,1.8-.10001,1.7-.7l-.1-.5-1.5.10001c-1.2.10001-1.5,0-1.6-.2-.2-.60001.3-.8,1.8-.8q1.4,0,1.4-.39999-.1-.39999-1.2-.39999c-1.4.10001-2-.10001-2-.39999,0-.39999.6-.60001,2-.60001,1.2,0,1.3,0,1.3-.39999,0-.3-.1-.39999-1.5-.39999-1.2,0-1.6-.10001-1.6-.3-.2-.5.2-.60001,1.7-.7.8,0,1.4-.10001,1.5-.2,0-.10001-.3-.3-.7-.5-1.4-.60001-2.1-2.3-1.5-3.60001.4-.89999.9-1.5,1.7-1.7.8-.3.8-.60001-.2-.8-1.6-.39999-2.8-2.3-2.3-3.39999.3-.7.8-.5.9.5.1.89999.4,1.3,1.1,1.7,1.1.60001,1.1,1.8,1.1-15.8,0-8.8-.1-16-.1-16-.1,0-.7.5-1.5,1.2s-1.5,1.10001-1.7,1.10001c-.8-.10001-.4-.60001,1.4-2.2,1.7-1.39999,1.9-1.60001,1.9-2.2,0-.3-.1-.60001-.1-.60001-.1,0-.8.5-1.6,1.2-1.5,1.2-2.1,1.39999-2.1.8,0-.2.6-.8,1.9-1.8,1.4-1.10001,1.9-1.60001,1.9-1.89999,0-.5-.1-.5-1.9.7-1.4.89999-1.8,1.10001-2,.8-.2-.39999.2-.8,2-1.89999,2.4-1.60001,2.4-1.8.5-1.89999-1.3,0-1.4-.10001-1.5-.5s0-.39999,1.4-.39999h1.5v-1.20001h-1.5c-1.4,0-1.5,0-1.5-.3,0-.5.3-.60001,1.8-.60001,1.2,0,1.3,0,1.2-.39999,0-.3-.3-.5-.8-.60001-1.5-.5-2.6-2-2.7-3.89999-.1-1.89999,1-3.39999,2.8-3.8.8-.2.8-.3.9-.89999l.1-.7h-.9c-1.5,0-1.7-.8-.2-.89999l.8-.10001v-1.70006l-1.2-.10001-1.2-.10001-.3.60001c-.5,1-1.2,1.39999-2.4,1.39999-.7,0-1-.10001-1.3-.3q-.3-.3.2-.5c.3-.10001.8-.2,1.1-.2.7,0,1.4-.39999,1.4-.8,0-.2-.3-.3-1.2-.3s-1.3-.10001-1.5-.3c-.4-.39999,0-.60001,1-.60001,1.5,0,1.9-.10001,1.6-.60001-.2-.5-.8-.7-2-1-.8-.2-1-.3-1-.5,0-.7,2.2-.5,3.2.3.3.2.6.7.8,1,.3.60001.4.60001,1.6.7l1.2.10001-.1-.5c0-.39999-.2-.5-.6-.60001-.9-.2-1.7-.7-2.3-1.5-1-1.39999-1.1-3.39999-.3-3.3.3,0,.4.2.5,1,.1,1.5,1,2.60001,2.2,2.89999l.5.10001v-1.5c0-1.7.3-2.39999.8-2,.2.2.3.60001.3,1.8.1,1.5.1,1.60001.5,1.5,1-.10001,2.1-1.39999,2.3-2.8.1-1,.3-1.2.7-.89999.6.5,0,2.8-1.1,3.8-.3.3-.9.60001-1.4.7-.7.2-.9.3-.9.60001,0,.39999.1.39999.9.5,1.2.10001,1.7-.10001,1.8-.60001.3-1,2.1-2,3.4-1.89999.4,0,.6.10001.6.39999,0,.3-.2.39999-1,.5-1.1.2-2,.7-2,1.10001,0,.3.6.39999,2,.5.7,0,.8.10001.8.39999,0,.3-.1.39999-1.4.39999-.8,0-1.4.10001-1.4.2,0,.3.9.89999,1.3.89999.8,0,1.6.2,1.6.5,0,.39999-1.3.7-2.1.5-.7-.2-1.8-1.3-1.8-1.8,0-.2-.2-.3-1.3-.2l-1.60001.50005v1.39999l.8.10001c1.4.10001,1.3.89999-.1.89999-.7,0-.8.10001-.9.39999-.2.60001,0,1,.5,1,.7,0,1.9.60001,2.4,1.39999,1,1.3,1.1,3.10001.1,4.7-.6.89999-1.1,1.39999-2.1,1.7-.5.2-.7.39999-.7.60001,0,.3.2.3,1.4.39999,1.5.10001,1.7.2,1.5.60001-.1.2-.5.3-1.5.3l-1.4.10001v1l1.3.10001c1.5.10001,1.8.2,1.5.7-.2.2-.6.3-1.5.3-1,0-1.3.10001-1.3.3,0,.10001.9.8,1.9,1.5s1.9,1.39999,1.9,1.60001c.1.7-.5.5-2.1-.5-.9-.60001-1.6-1-1.7-1s-.2.2-.2.39999c0,.3.4.7,1.5,1.5,1.9,1.39999,2.5,2,2.4,2.3-.2.5-.8.3-2.2-.89999-.8-.60001-1.5-1.2-1.6-1.2s-.2.3-.2.60001c0,.5.2.8,1.9,2.2,1.8,1.60001,2.2,2,1.6,2.2-.3.10001-.8-.2-2.2-1.39999-.6-.5-1.1-.89999-1.2-.89999-.2,0-.2,31.89999,0,32.10001.2.2,1.1-.2,1.6-.7.3-.3.5-.8.5-1.2s.1-.8.1-.8c0-.10001.2-.10001.4-.10001.4,0,.6.60001.5,1.5-.2.89999-1,1.8-2.1,2.2-.5.2-.9.39999-1,.5,0,.10001.3.3.8.60001,1.4.60001,2,2.10001,1.4,3.60001-.4.89999-.7,1.3-1.6,1.7-.4.2-.6.39999-.6.5.1.10001.7.10001,1.5.2,1.4,0,1.7.2,1.5.7-.1.2-.6.3-1.6.3-1.2,0-1.5.10001-1.5.3s.3.3,1.3.39999c1.4.10001,1.8.2,1.8.60001,0,.3-.6.5-2,.39999-1.1,0-1.2,0-1.2.3s.1.39999,1.2.39999c1.7.10001,2,.2,1.9.60001q-.1.39999-1.6.39999t-1.6.5c-.1.60001.3.7,1.7.7.5,0,1,.10001,1.1.2.3.3.3,3.10001-.1,3.39999-.5.39999-.8-.10001-.8-1.5v-1.2h-2l-.1,1.2q-.1,1.2-.5,1.2c-.4,0-.5-.10001-.5-1.2l-.1-1.2-.9.10001-.9.10001-.1,1.39999c-.1,1.2-.1,1.39999-.5,1.39999.29998-.00002.09999-.10002.09999-.40001h0ZM8.05067,129.11894c.8-.3,1.2-.89999,1.2-1.8,0-1.2-.8-1.89999-2.1-1.89999-.9,0-1.9,1-1.9,1.8s.5,1.60001,1.1,1.89999c.8.3,1,.3,1.7,0h0ZM8.45067,78.91895c1.7-.60001,2.5-2.89999,1.6-4.5-.6-1-1.6-1.5-3.1-1.39999-2.5.2-3.6,2.10001-2.5,4.3.9,1.59999,2.5,2.2,4,1.59999ZM5.25067,121.31896c-.1-.5,0-.7.4-.7.5,0,.8.5.6.8-.4.29999-.9.29999-1-.10001h0ZM8.45067,121.41895c-.2-.5.1-.89999.5-.8.3,0,.4.2.4.5s-.1.5-.4.5c-.2,0-.4-.09999-.5-.2h0ZM4.95067,63.31896c-.3-.5,0-.8.6-.7.3,0,.4.2.4.5,0,.59999-.7.7-1,.2h0ZM8.65067,63.51895c-.1-.10001-.1-.3,0-.5.1-.39999.9-.5,1.1-.10001.2.5-.8,1.10001-1.1.60001h0ZM6.85067,60.11894c-.2-.2-.3-.3-.3-.39999,0-.3.4-.60001.8-.60001.5,0,.7.60001.4,1-.2.40001-.5.40001-.9,0h0ZM9.75067,58.01895c-.1,0-.4-.10001-.7-.2-.7-.2-1.9-1.3-2.1-2.10001-.2-.60001-.1-.8.1-1.39999.3-.7,1.2-1.39999,1.8-1.39999.8,0,.4-.5-1-1.5-1.5-1.10001-2.2-1.8-2.8-3.10001-.5-1-.5-2.60001-.1-3.7l.3-.8-.6-.60001c-1.2-1.2-1.8-3.2-1.2-4.1.1-.3.1-.6-.1-1.3-1-2.9.9-6.7,4-8.2,1.3-.6,2.6-.6,3.9.1.6.3,1,.4,1,.4,0-.2-1.1-1.4-1.6-1.8-.4-.3-.6-.3-.7-.2-.4.3-1.3.4-2.1.2l-.7-.3-.3.8c-.8,1.7-3.1,2.3-4.3,1.1-.3-.4-.4-.7-.4-1.4s.1-1,.5-1.4c.5-.5.6-.5,1.2-.4.7.1.7,0,.4-1.2-.1-.5-.3-1.2-.3-1.6s-.2-.9-.5-1.3l-.7-1.4c-.2-.9-.1-2.8.3-3.5.2-.5.2-.6-.3-1.7-1-2-1.3-5.2-.5-7.2.2-.4.3-1,.3-1.2v-1.7c0-1.1.1-1.5.5-2.3.7-1.4,1.2-1.7,2.8-1.7.8,0,1.4.1,1.6.2.2.2.6.2,2-.2,2.2-.5,5.9-.6,7.7-.1,1.6.4,4.2,1.7,5.5,2.8.6.5,1.2.9,1.4.9.1,0,.4-.3.6-.7.4-.9,1.7-2.2,2.6-2.7.4-.2,1.2-.5,1.8-.6,1.2-.3,2.4-.2,4.3.5,1.2.5,2.8,2,3.5,3.5.6,1.2.8,3.2.5,4.2-.1.3-.1.6-.1.6.2.1,1.3-.8,1.3-1,0-.1.2-.4.4-.8.2-.3.5-.9.5-1.4l.1-.8-.80001-.10001c-2.3-.4-3-3.6-1-4.5.8-.4,1.4-.2,2,.5l.4.6,1.6-.4c1.7-.4,4.9-.5,5.7-.2.4.1.5.3.6,1.3.2,1.7.9,2.9,2.1,3.6,1.3.8,1.6.8,1.7-.2.2-1.5,1.7-2.2,3-1.5.8.4,1.6,1.8,1.6,2.7,0,1.4-1.1,2.6-2.5,2.9-.8.1-.9.2-.3.8.6.5,1.1,1.8.9,2.4-.1.6-.7,1.2-1.2,1.2-.2,0-.8-.4-1.4-.8-1.2-1-1.7-1.2-2.9-1-1.9.3-2.9.4-3.6.2-.6-.2-.8-.2-1.4.1-.6.3-1,1-.8,1.3,0,.1.6.2,1.2.2,1.5.2,1.8.3,3,1.2,1.3,1,1.5,1.1,2.2.8,1-.4,1.3,0,.7,1-.5.8-1.6,1.3-2.6,1.2-.5,0-1-.2-1.2-.2q-.3-.1-.1.2c.2.4,1.1.8,2.2,1,.3.1.5.2.5.4,0,.4-.6.6-1.9.8-1.5.1-2.6-.2-3.3-1.2-.3-.4-.7-.8-.8-1-.3-.4-.9-.4-4-.1-2.4.3-3.9.2-5-.3-.3-.1-1.3-.2-2.2-.2-1.4,0-1.8-.1-2.9-.6-1.7-.8-3.6-2.8-4.5-4.7-.4-.7-.8-1.3-.9-1.3s-.7-.2-1.1-.5l-.9-.5-1.2,1.2c-1.2,1.2-1.4,1.7-1,2.3q.2.2.3,0c.1-.1.3-.5.6-.8.4-.4.6-.5,1.2-.4,1,.2,1.7,1,1.7,2.1,0,2.8-3.5,3.7-5.5,1.4-1-1.2-1.3-2.5-.9-4,.1-.3,0-.4-.6-.7l-.49997-.3.2.9c.6,3.4-.7,6.1-3.2,7-.5.2-1.2.6-1.5.9l-.6.6.7.6c1.2,1.1,1.5,1.2,1.9,1,.6-.3,2.1-.2,2.9.2l.7.4.5-.7c.6-.9.9-1.9.7-2.7-.1-.5,0-.7.2-.8.7-.3,1.7.8,1.8,2.1.1.9.4.7.6-.4.1-.9.5-1,1-.2.4.7.5,2.1,0,2.9-.2.3-.7.9-1.3,1.4l-1,.9.1,3.9c.1,3.4.1,4-.2,4.6-.2.5-.3,1.2-.3,2.2,0,1.2-.1,1.6-.5,2.4s-2.1,2.6-2.5,2.6-.1.3.7.89999c.9.60001,1.5,1.7,1.5,2.60001,0,.8-.7,2-1.4,2.39999-.9.5-2.2.39999-2.8,0s-1-1.2-1-1.8c0-.3-.1-.39999-.5-.3-.3.10001-1.2.2-2.1.2-.9.10001-1.6.2-1.6.3,0,.5.8,1.39999,1.7,1.8.5.2,1.2.60001,1.5.89999.5.3.7.39999.9.2.7-.39999,1.5-.2,2.1.39999.6.60001.6.7.5,1.5-.1,1.10001-.7,1.7-1.7,1.7h-.8l.1,1.3c.1,1.60001-.2,2.5-1.2,3.5-.7.10002-1.60001.50002-2.10001.40002h0ZM10.45067,56.91895c1.1-.60001,1.7-1.60001,1.7-2.89999,0-1.7-1.2-3.2-3.1-4.10001-.9-.39999-1.1-.5-1.2-.2-.3.39999-.1.7.9,1.39999,1.3.89999,2.2,2.2,2.2,3.2s-.6,1.8-1.2,1.7c-.6-.10001-.7-.60001-.1-.89999.5-.2.6-.39999.2-.8-.6-.60001-2.1,0-2.1.89999,0,.5.8,1.5,1.5,1.8.59999.20001.69999.20001,1.19999-.09999h0ZM14.35067,51.01895c.1-.2.1-.60001.1-.89999-.1-.60001-.9-1-1.2-.7-.2.2-.1.3.3.39999.5.2.6.39999.3.7-.4.39999-.7.2-1.5-.60001-.5-.5-1.2-1-1.9-1.3q-1.2-.5-1.6-.2-.4.3.7.7c.6.2,1.4.60001,1.7.89999,1.3,1.40001,2.7,1.80002,3.1,1.00002h0ZM7.15067,49.31896c0-.10001.3-.5.6-.89999.6-.7.7-1.10001.2-1.10001-.1,0-.6.3-1,.7q-.8.7-.4,1.10001c.3.39999.6.39999.6.2h0ZM6.75067,47.01895c.8-.5.9-.60001.5-.60001-.5-.10001-1.6.10001-1.7.3-.1.2.1.89999.2.89999s.5-.2,1-.59999ZM16.25067,46.51895c1.1-.89999.8-2.39999-.6-3.2-.9-.5-1.4-.5-3.1-.2-.7.10001-1.9.3-2.7.39999-1.9.2-2.4-.10001-4.3-2.10001-1.2-1.3-1.4-1.4-1.4-1,0,1.2,1.7,3.2,3.4,4,1.6.8,3.1.60001,5.9-.39999,1.4-.5,2.2-.2,2.5,1,.1.8-.3,1.39999-1,1.3-.6-.10001-.7-.7-.2-.8.4-.10001.5-.3.1-.7s-.9-.39999-1.2.10001c-.7,1.39999,1.2,2.69998,2.6,1.59999h0ZM6.25067,45.21895c.1-.2.2-.5.1-.60001-.2-.2-.6.39999-.6.8-.1.40001.2.3.5-.2h0ZM7.65067,45.51895c0-.10001-.1-.2-.2-.2s-.2.10001-.2.2.1.2.2.2.2-.10001.2-.2ZM6.95067,45.21895c0-.10001-.1-.2-.2-.2s-.2.10001-.2.2c0,.2.1.3.2.2.1,0,.2-.09999.2-.2ZM12.45067,42.11894c3.2-.8,5.4-2.9,5.5-5.3,0-.7,0-.8-.3-.8-.2,0-.5.3-.8.9-.6,1.2-2.6,3.1-3.9,3.8-1.5.8-3.1.8-4.8,0-1.5-.7-2.5-1.6-3-2.7-.9-2-.1-4.7,2-6.2,1.1-.8,1.9-1,2.8-.7.7.2,1.9,1.1,2.1,1.6q.1.2.4,0c.3-.2.3-.3,0-.7-.8-1.6-3.1-2.3-4.7-1.5-1.2.6-2.3,1.8-3,3-.5,1-.6,1.4-.6,2.6,0,1.1.1,1.5.5,2.4,1.6,3.2,4.5,4.5,7.8,3.59999h0ZM12.35067,40.51895c1.2-.6,2.8-1.9,3.6-3.1.4-.6.7-1.1.7-1.2s-.2-.1-.4-.1-.6.3-.9.8c-1.1,1.7-3,2.6-5.1,2.6-1.7,0-3-.6-3.8-1.8-.5-.7-.5-.9-.5-1.9,0-2,1.3-3.5,2.9-3.5.9,0,1.6.4,1.6.8,0,.3.5.3.9.1.6-.4-1.4-1.8-2.7-1.8-.8,0-1.6.5-2.5,1.6-2,2.3-1.6,5.4.9,6.9,2,1.1,3.7,1.3,5.3.6h0ZM12.55067,38.61895c1.2-.6,1.8-1.1,2.3-1.8.9-1.2.6-1.5-.5-.3-.3.4-1,.9-1.6,1.2-1.7.9-3.9.6-4.8-.7-1.1-1.6-.2-3.6,1.6-3.3q.6.1.6-.2c0-.2-.3-.4-.6-.6-1.5-.7-3.4,1.1-3.4,3.2,0,.8.1,1,.8,1.7.4.4.9.9,1.1,1,1,.60001,3.2.50001,4.5-.19999h0ZM10.85067,36.81895c0-.3-.1-.5-.1-.5-1.1,0-1.3,1-.2,1.1.3,0,.3-.2.3-.6h0ZM12.15067,37.01895c.2-.1.3-.4.3-.7q0-.5-.5-.4c-.7.2-.8.4-.7.9.2.39999.4.49999.9.2ZM13.65067,36.01895c.3-.4.2-1-.2-.8-.1.1-.3.1-.3.1,0,0-.1.2-.1.5,0,.6.2.6.6.2h0ZM11.05067,35.21895c.7-.3,1.9-.9,2.5-1.3,1.3-.9,2.7-2.5,2.7-3.3,0-.7-.3-.6-.7.1-1.1,1.8-3.7,3.5-6.2,4.1-.8.2-1,.3-1,.7-.1.4,0,.4.6.3.5,0,1.40001-.29999,2.1-.59999h0ZM17.95067,34.81895c.6-.6.7-1.1.6-4.1l-.1-2.4h-1.5l.1,1.5c.1,1.3.1,1.6.5,2,.6.7.6,1.6,0,2.1s-1,.5-1.6,0c-.4-.3-.5-.3-.7-.1-.2.2-.2.4.3.8.7.8,1.7.8,2.4.2h0ZM16.95067,33.41895c.3-.3.3-1.2,0-1.2-.6,0-1.2,1.1-.6,1.3.3.1.4.1.6-.10001h0ZM13.85067,29.71895c-.8-1.3-1.9-2.3-3.6-3.2-1.1-.6-3.4-2.7-3.4-3.1,0-.1-.1-.2-.2-.2s-.2.2-.2.5c0,.8,1,1.8,3,3,1.9,1.1,3.1,2.3,3.9,3.7.4.8.5.8.8.6s.3-.4-.3-1.3ZM15.25067,28.91895c-.3-.7-1.7-1.9-3.5-3.1-1.9-1.2-3.3-2.5-3.6-3.3-.3-.6-.4-.7-.9-.3-.3.2-.3.3,0,.8.6,1.1,1.8,2.2,3.3,3,1.8,1,3.1,2.1,3.8,3.3q.6.9.8.5c.2-.3.2-.5.1-.9h0ZM5.05067,29.51895c.7-.3,1.2-1.1,1.2-2,0-.4,0-.6.1-.6,0,0,.4.2.9.4.8.4,1.9.5,2,.2,0-.1-.3-.4-.8-.7-2.1-1.2-2.9-2.6-2.5-4.1.4-1.2,1.2-1.8,2.9-2.1.8-.1.9-.5.2-.5-.3,0-.8-.1-1.1-.2-.4-.2-.7-.1-1.3.2-1.9,1-2.4,2.6-1.6,5.2.4,1.5.4,2.7-.1,3.2-.4.4-.9.5-1.2.1-.3-.3-.1-.9.3-.7.4.1.5-.2.3-.5-.4-.4-.9-.3-1.2.3-.3.7-.2,1.1.4,1.6.49999.59999.69999.59999,1.49999.2h0ZM16.05067,28.11895c.3-.7-1.2-2.1-4.3-4.3-.7-.5-1.5-1.2-1.8-1.6-.5-.7-.7-.7-1.2-.6l-.6.2c0,.4,2.3,2.4,4,3.6,1.1.7,2.3,1.7,2.7,2.1.9.9,1,1.00001,1.2.60001ZM18.05067,27.51895c.3,0,.4-.1.4-.3s-.2-.3-.8-.3-.8.1-.8.2c0,.3.2.5.5.4.1,0,.4,0,.7,0ZM19.55067,24.91895c1-1,1.6-1.9,1.6-2.5,0-.1-.4.3-1,.8-.7.7-1.1,1-1.4,1q-.6,0,0-1.2c.5-1,.5-1.3.3-2-.2-.6-.4-.5-.6.5-.1.5-.5,1.4-.9,2-.5.9-.7,1.4-.7,1.9v.7l.8-.1c.60001.1.90001-.10001,1.90001-1.10001ZM16.05067,24.81895c0-.4-.1-.5-.6-.8-.6-.3-2-.4-1.9-.1,0,.1.5.6,1.1,1.1,1.3.9,1.4.8,1.4-.2h0ZM4.55067,20.61895c-.1-.2-.2-.7-.2-1.3s-.1-1.1-.3-1.2c-.2-.2-.3-.2-.4.1-.2.6-.2,2.8.1,3.3l.2.4.3-.5c.40001-.3.40001-.60001.3-.8h0ZM46.75068,20.71895c.1-.1-.2-.4-.5-.7-.3-.3-.7-.9-.7-1.2-.1-.3-.3-.7-.4-.8-.2-.1-.3-.3-.3-.4,0-.4,1-.2,1.7.3.8.6,1.6.8,2.3.7.6-.1.6-.5,0-.5-.2,0-.9-.4-1.6-.9-1.3-1-1.5-1.1-3.1-1l-1.2.1-.1,1c-.1,1,0,1,.5,1.2.3.1.8.6,1,1,.79999.8,1.99999,1.60001,2.39999,1.2h0ZM5.65067,19.71895c0-.3-.1-.5-.3-.7-.3-.2-.4-.1-.4.4,0,.3.1.7.1.7.3.3.5.1.6-.4ZM11.85067,19.31895c1.4-.4,2.2-1,2.7-2.2.6-1.3.7-2.2.3-3.7s-1.5-3.2-2.7-3.7c-.8-.50001-2.3-.50001-3.2-.2l-.5.2.6.4c.4.2.7.3.8.2.8-.6,2.4-.2,3.5.8,2.7,2.7.2,7.5-3.9,7.5-1.2,0-2.3-.4-3.6-1.4-1.8-1.4-2.9-4.5-2.3-6.6.2-.5.1-.8-.1-1.1-.5-.8-.7-.3-.7,2.1q0,2.2.7,3.5c.9,1.8,1.5,2.5,2.8,3.2,1.9,1.2,3.8,1.5,5.6,1h0ZM38.85067,18.61895c1.6-.2,1.9-.3,1.9-.5s-.2-.3-.4-.2c-.2,0-1,.1-1.9.1-1.5,0-1.6,0-3.1-.7-.8-.4-1.6-.8-1.7-.8s-.1.2-.1.4c0,.8.7,1.4,1.9,1.6,1.39999.39999,1.19999.39999,3.39999.1h0ZM11.55067,17.91895c1.6-.8,2.6-2.3,2.6-4,0-.7-.1-1-.5-1.7-.6-.8-1.6-1.5-2.6-1.7-.9-.2-1.1,0-.6.6.3.4.5.5,1,.4.8-.1,1.5.4,1.9,1.4.8,2.1-1.3,4.3-4.2,4.3-1.2,0-2.1-.4-3-1.5-1.1-1.2-1.6-2.5-1.5-3.8,0-.7,0-1.3-.2-1.4-.5-.6-.6-.3-.5,1.3.1,1.2.2,1.8.6,2.7,1.2,3,4.6,4.6,7,3.39999h0ZM42.15067,17.51895c0-.4,0-.7-.1-.7-.2,0-.7.6-.8,1-.1.4,0,.4.4.4.4,0,.5-.10001.5-.7ZM32.95067,17.91895c0-.1-.6-.3-1.2-.4-2.4-.5-4.4-2.1-5.5-4.5-1.1-2.3-1.2-4.3-.2-6.4.6-1.3,2.2-2.8,3.4-3.1,1.2-.4,1.5-.4,3,.1,2.3.7,3.5,2.6,3.3,5-.1,1.4-.5,2.3-1.3,3.1-.6.6-.6.7-.4,1s.3.3.7-.2c.3-.3.7-1.1,1.1-1.7.5-1,.6-1.3.6-2.6s-.1-1.6-.5-2.4c-.3-.5-1-1.4-1.5-1.9-.9-.8-1.2-1-2.5-1.4-1.7-.5-2.5-.4-3.9.2-1.1.5-2.1,1.4-2.6,2.4-.2.4-.4,1.4-.6,2.3-.4,3.1.3,5.5,2.1,7.7,1.1,1.4,2,2,3.3,2.5,1,.50001,2.89999.7,2.7.3h0ZM21.15067,17.61895c.8-.2,1.4-.9,1.4-1.8,0-1-1-1.7-1.6-1.1-.3.3-.3,1,0,1,.1,0,.2-.1.2-.3,0-.4.5-.3.6,0,.3.8-.4,1.3-1.3,1.1-.7-.2-1.3-.8-1.5-1.6-.2-.9.2-2.1,1.3-3.2.4-.4,1.1-1.3,1.5-1.9.4-.6,1-1.4,1.3-1.7.6-.6,1-1.7.7-1.7-.4,0-1.4,1.1-2.2,2.4-1.1,1.7-1.8,2.4-2.8,2.5-1.4.3-3.3-1.4-3.9-3.4-.2-.6-.4-1-.6-1-.4,0-.2,1.6.3,2.6.7,1.4,2.1,2.5,3.1,2.5.6,0,.7.4.3,1.3-.7,1.3-.3,2.9.9,3.8.5.4.8.5,1.4.6.2,0,.60001,0,.90001-.10001h0ZM40.55067,16.71895c.9-.5,1.9-1.5,1.9-2,0-.1-.3-.2-.6-.2-.4,0-.7.1-.9.5-.9,1.1-2.9,1.5-4.7.8-1.4-.5-2.8-2-3.5-3.9-.9-2.2-1.6-3.4-2.3-4l-.6-.5-.4.4-.4.4.8.8c.6.6,1.1,1.4,2,3.1,1.4,2.9,2.1,3.6,3.9,4.6,1.3.6,1.6.7,2.6.7,1-.2,1.4-.3,2.2-.7h0ZM11.15067,16.41895c1.3-.8,2.1-2.1,1.8-3.1-.1-.4-1-1.2-1.5-1.2-.3,0-.3.4,0,.7.5.4.3,1.5-.2,2-1,1-2.6,1.1-3.7.1-.7-.6-1.6-2.2-1.6-2.9,0-.4-.4-.9-.8-.9-.2,0-.1,2,.1,2.7.3.8,1.6,2.4,2.4,2.8.9.60001,2.5.40001,3.5-.2ZM32.85067,16.61895c0-.4-.1-.5-.8-.6-1-.3-2.6-1.1-3.4-1.7s-1.8-2.8-1.9-4.1c-.2-1.6.1-2.8,1.1-3.9,1.8-2,3.8-2.2,5.4-.5,1.2,1.3,1.4,3.3.3,4.4-.5.5-.5.6-.3,1l.2.5.5-.6c.6-.7.8-1.4,1-2.8.1-.7,0-1.1-.3-1.9-1.3-3-5-3.7-7.2-1.4-1.5,1.6-2.1,3.7-1.5,5.8.7,2.9,2.6,5,5.2,5.8,1.50001.49999,1.70001.49999,1.70001,0h0ZM32.85067,15.61895c0-.3-.7-.9-1.3-1-.8-.2-2.5-1.6-3-2.7s-.8-2.7-.7-3.5c.1-.7,1-1.8,1.7-2.2,1-.5,2.3-.2,2.9.7.3.5.4,1.7.1,2-.1.1-.1.4.1.8.2.3.3.6.4.6.2,0,.8-1.6.8-2.3,0-1.8-1.2-2.9-3.1-2.9-1.3,0-2.3.7-3.1,2.2-.7,1.5-.7,2.7,0,4.3.9,1.9,2.1,3,4,3.8.99999.39999,1.2.39999,1.2.2h0ZM38.05067,15.01895c0-.7-2.3-1.6-2.9-1.2q-.2.2.1.5c1.10001.8,2.8,1.2,2.8.7ZM39.95067,14.61895c.5-.4.5-.5.2-.7s-.4-.2-.6-.1c-.4.3-.6.8-.5,1.1.2.3.4.2.9-.3h0ZM8.65067,14.11895c.2-.5,0-1-.4-1s-.5.8-.3,1.2c.4.3.5.3.7-.2h0ZM10.65067,14.31895c.5-.5.1-1.7-.9-2.6-.3-.3-1.2-.8-2-1.2-3-1.5-3.6-2.2-3.6-4.2,0-1.4.4-2.1,1.5-2.8.5-.3.8-.6.8-.7-.1-.1-.5-.1-1-.1-1.5.1-2.3,1.3-2.4,3.3,0,2.2,1.1,3.8,4,5.3,2.2,1.1,2.5,1.5,3,2.9.1.39999.3.39999.6.09998ZM53.55067,13.71895c0-1.1-1-2.1-2.9-2.9-.6-.2-1.1-.4-1.1-.4,0,0-.2.3-.4.6-.4.6-1.4,1.1-2,.9-.8-.2-1.6-.9-1.9-1.8-.4-1-.2-1.6.6-2.4.5-.4.6-.7.5-1-.1-.4-.4-.5-1.2-.1-1.3.5-1.9,2-1.5,3.7.3,1.2,1,2,2.3,2.4.7.2,1.1.2,2.6-.1,1.9-.3,2.4-.3,3.5.4.3.2.7.5.9.7.2.60001.6.60001.6,0ZM39.05067,13.61895q.4-.4.1-.9c-.2-.3-.3-.5-.4-.5s-.3.2-.5.6c-.4.5-.4.6-.1.9q.4.4.9-.1h0ZM31.55067,13.31895c-.1-.2-.1-.3-.1-.4,0,0-.2-.1-.4-.1-.4,0-.5.3,0,.5.4.4.6.4.5,0h0ZM42.05067,13.41895c0-.1-.1-.3-.2-.4-.3-.2-1.1-2-1.3-3-.2-.8-.3-1-.6-1-.7-.1-.9.6-.4,2.1.3,1,.5,1.4,1.1,1.9.7.60001,1.4.8,1.4.4ZM7.45067,12.51895c-.5-.2-.6-.1-.4.4q.2.4.5.1c.3-.3.3-.4-.1-.5h0ZM43.85067,12.91895c0-.1-.1-.3-.3-.4-.6-.5-1-1.8-1-3.4s-.1-1.8-.9-1.1c-.3.3-.4.5-.4,1.2.1,1.5,1.4,3.9,2.2,3.9.2,0,.40001-.09999.40001-.2h0ZM37.85067,12.21895c.7-.7.8-1,.5-1.4-.1-.2-.2-.2-.6.1-.6.5-1.4,1.8-1.3,1.9.4.2.8.1,1.4-.6h0ZM30.95067,12.41895c.3-.3-.3-.8-.8-.8-.6,0-.7.3-.3.7.2.20001.90001.30001,1.10001.10001h0ZM23.85067,10.91895c0-.7-1.1-1.2-1.3-.6-.1.2.1.4.5.6.7.5.8.5.8,0h0ZM30.35067,11.01895c0-.4-.3-.6-.8-.6s-.7.4-.4.7c.3.3,1.2.2,1.2-.1ZM48.35067,10.51895c.5-.6.4-1.4-.3-2-.5-.4-.7-.5-1.1-.4-.6.1-1.2.7-1.2,1.2,0,.4.6,1.3,1.1,1.6.6.2,1.1.10001,1.5-.39999h0ZM19.15067,10.41895c.2-.1.3-.3.3-.4,0-.2-3.2-2.5-3.6-2.5-.3,0-.2.4.4,1.3.6.9,1.6,1.7,2.2,1.7.2.10001.5,0,.7-.1h0ZM54.35067,9.71895c1.3-.6,1.5-2.1.4-3.2-.7-.7-1.4-.8-1.9-.1-.3.5-.3,1,.1,1.2.2.1.4.1.6-.2.4-.5.8-.4.8.3,0,.8-.4,1-2,.9-1.7-.1-3-.7-4-1.9-.6-.7-1.2-2.1-1.2-2.9s-.2-.9-2.4-.8c-1.7.1-2.5.2-4,.6-1.4.4-2,.5-2.2.4-.5-.2-.3-.6.3-.7.5-.1.6-.2.2-.7-.4-.4-.7-.4-1.2.1-.6.6-.5,1.5.2,2.2.6.6,1,.7,1.7.2,1.1-.8,1.5-.9,1.7-.6.1.2.1.3-.2.7-.8.9-1.6,3-1.1,3,.3,0,1.1-1,1.6-2,.4-.9,1-1.4,2.1-1.8.8-.3,2.2-.5,2.4-.4.1.1.3.6.4,1.1.3,1.6.7,2.1,1.4,2.5.6.3,1.2.9,1.6,1.6.2.4,2.3,1,3.3,1,.39999-.19999.99999-.3,1.39999-.49999h0ZM23.75068,9.21895c-.1-.2-.2-.3-.4-.1s-.2.3,0,.5c.3.3.6,0,.4-.4h0ZM8.25067,8.91895c1-.6,3-.7,4.1-.2.5.2.9.4.9.3,0,0,0-.6-.1-1.2l-.1-1.1h-1.1c-1.2,0-2.8.6-4.1,1.6-1,.99999-.80001,1.3.39999.59999ZM20.55067,8.71895l.2-.4c-.3-.3-2.6-1.7-3.8-2.2-2.5-1.2-4.5-1.5-6.7-1-1.5.4-2.3.8-3.5,2l-1.1,1,.5.4.5.4.8-.9c.5-.5,1.3-1.2,1.9-1.5,1-.5,1.3-.6,2.8-.6,2.4-.1,3.7.3,6.1,1.9,1,.7,1.9,1.3,1.9,1.3.2,0,.3-.20001.4-.40001h0ZM21.25067,7.61895c.1-.1.2-.3.2-.5,0-.3-2.2-1.8-3.9-2.6-2.6-1.3-6.3-1.3-9.1-.1-1.3.5-3.5,1.9-3.5,2.2,0,.1.1.3.2.6l.2.5.8-.9c1.6-1.7,3.4-2.6,5.7-2.6,2.4,0,4.9.9,7.8,2.8q1.4.89999,1.6.6h0ZM45.05067,5.71895c.5-.2.7-.3.7-.6,0-.8-2.4,0-3.1,1-.3.5-.3.6,0,.8.3.2.4.1,1-.4.4-.3,1-.7,1.4-.8ZM22.45067,6.31895c.3-.3.3-.4-.1-.7-1.1-1.1-3.9-2.5-5.7-2.9-1.4-.4-5.3-.3-6.9.1-1.4.3-3.6,1.4-4.2,2-.2.2-.4.6-.4.8q0,.4.7-.2c1.8-1.4,4.3-2.2,7.1-2.2,3.1,0,4.5.5,7.4,2.4.8.5,1.5,1,1.6,1,.1,0,.40001-.20001.5-.30001h0ZM62.85067,14.41895c-.1-1.4.4-2.6,1.3-3.3.3-.3.7-.5.8-.5.2,0,.5-1.1.5-2.2,0-.5-.1-.5-.5-.5s-.5.2-.7,1c-.3,1.1-1.1,1.9-2.1,2.4-.8.4-2.2.5-2.5.2-.4-.4,0-.7.6-.7,1.3,0,3.1-1.3,3.1-2.2v-.5c0-.1-.7-.2-1.7-.2-1.6-.1-1.7-.1-1.7-.5s.2-.4,1.7-.5q1.7-.1,1.6-.5c-.2-1.3-1.2-2.1-2.8-2.3-.8-.1-.9-.2-.9-.5,0-.6,1.5-.6,2.7,0,1.1.5,1.6,1.2,2,2.4.2.7.3.8.7.8s.4,0,.4-1.3c0-.7-.1-1.3-.2-1.3-.6-.2-1.4-1-1.8-1.7-.7-1.4-.5-3.1.2-2.5.2.1.3.5.3.7,0,.9.8,2.3,1.3,2.3.1,0,.1-.6.1-1.3,0-1,.1-1.4.3-1.6.5-.4.7.1.8,1.6l.1,1.4.5-.5c.4-.4.5-.7.5-1.2,0-1.4.6-1.8.9-.7.3,1.2-.2,2.5-1.3,3.1l-.7.3.1,1.3.1,1.3h.6q.6,0,.7-.8c.1-.5.2-.9.4-1,.4-.3.7.1.7,1.1q0,.8.6.8.6,0,.9-1c.5-1.9,2.1-2.9,4.1-2.7,1.6.2,3.1,1.3,3.6,2.8s.9,1.2,1.1-.7c.1-1.1.1-1.3.5-1.3.3,0,.4.2.5,1.4l.1,1.4h1l-.1-1.1c-.1-1.4.1-1.9.5-1.9s.5.4.6,2.1c0,.5.1.9.2,1,.1,0,.8-.8,1.5-1.9,1.1-1.6,1.4-2,1.7-2,.2,0,.39999.1.39999.2s-.5,1-1.1,1.9-1,1.7-1,1.8c.3.3.8-.1,2.1-1.7,1.5-2,1.8-2.3,2.2-2.1.5.2.3.5-1,2.1-.7.8-1.2,1.6-1.2,1.7s.3.1.60001.1c.39999,0,.8-.3,2.2-2,.89999-1.1,1.7-2,1.8-2s.2.1.3.3c.3.3.10001.7-1.2,2.2-.60001.7-1,1.3-1,1.4s28,.1,62.2.1c56.8,0,62.09999,0,62.09999-.3,0-.5-.60001-1.5-1-1.7-.2-.1-.7-.3-1.10001-.3-.60001-.1-.7-.2-.7-.5s.10001-.4,1-.4c.89999-.1,1,0,1.7.7.5.5.89999,1.1,1,1.6.20001.8.70001,1.2.70001.5,0-.5.70001-1.5,1.29999-1.8.79999-.5,2.20001-.5,3,.1.5.4.79999.6,1.60001,1.9.20001.3.20001.1.20001-1,0-1.5.29999-2.1.79999-1.9.20001.1.29999.4.29999,1.6s.10001,1.5.29999,1.5c.20001,0,.29999-.3.39999-1.5.10001-1.4.39999-2.1.70001-1.8.10001.1.20001.9.20001,1.7,0,1.4.10001,1.5.39999,1.5s.39999-.1.39999-1.5c0-1,.10001-1.5.29999-1.7.5-.4.70001.1.70001,1.7q0,1.5.5,1.5c.39999,0,.5-.1.60001-1.4l.20001-1.4,1.60001-.1c1.60001-.1,2.20001.1,2,.6-.10001.2-.5.3-1.39999.3l-1.29999.1-.10001,1-.10001,1,1.20001.1c1.10001,0,1.20001.1,1.20001.4s-.10001.4-1.20001.4l-1.20001.1.10001,1,.10001,1h2.60001c.10001,0,.20001.2.20001.4-.10001.4-.20001.4-1.5.5q-2.20001.1-2.39999-1.6-.10001-1.4-.60001-1.4-.5.1-.5,1.5c0,1.6-.20001,2.1-.70001,1.7-.20001-.2-.29999-.6-.29999-1.8q0-1.5-.39999-1.5c-.39999.1-.39999.2-.5,1.6,0,.8-.10001,1.6-.20001,1.7-.39999.4-.60001-.3-.70001-1.8-.10001-1.2-.10001-1.5-.39999-1.5-.29999-.1-.29999.1-.29999,1.5,0,1.3-.10001,1.6-.29999,1.7-.5.2-.79999-.4-.79999-1.9,0-1.4-.20001-1.7-.5-.8-.10001.3-.39999.8-.70001,1.1-1.29999,1.6-4.20001,1.1-4.79999-.9-.10001-.4-.29999-.8-.39999-.8s-.29999.4-.5,1c-.5,1.6-1.60001,2.5-3,2.3-.60001,0-.7-.1-.8-.5s0-.4.7-.4c1,0,2.2-1.1,2.2-2.1,0-.3-6.10001-.3-62.09999-.3-39.2,0-62.10001.1-62.10001.2s.5.8,1.2,1.6c1.2,1.4,1.39999,1.9.7,1.9-.3,0-.89999-.6-1.89999-1.8-1.39999-1.6-1.60001-1.8-2.2-1.9-.39999,0-.7,0-.7.1s.5.7,1.10001,1.4c1.3,1.5,1.60001,2,1.3,2.3-.10001.1-.3.2-.5.1s-2.6-3.1-3-3.7c-.1-.1-.3-.2-.6-.2l-.5.1,1.1,1.7c1,1.6,1.2,2.2.7,2.2-.4,0-.9-.6-2-2.4-1.3-2-1.5-2-1.5-.3,0,.8-.1,1.3-.3,1.6q-.3.3-.6,0c-.2-.3-.3-.7-.2-1.5l.1-1.2-.6-.1-.6-.1v1.5c0,1.6-.2,1.9-.6,1.5-.2-.1-.3-.6-.3-1.4,0-.7-.1-1.3-.2-1.4-.3-.4-.7-.1-.9.7-.3,1-1,1.8-2.1,2.3-2.4,1.2-5.1.1-5.7-2.4-.1-.7-.2-.7-.8-.8l-.7-.1v.8c0,1-.2,1.4-.7,1.1-.2-.1-.3-.5-.4-1l-.1-.8-.7.1-.7.1-.1,1.3q-.1,1.3.5,1.5c1.1.5,1.8,1.9,1.4,3.1-.3,1.2-.9.8-.9-.6,0-.7-.5-1.6-.9-1.6-.1,0-.2.5-.2,1,0,1.4-.1,1.8-.5,1.8s-.5-.4-.5-1.7c0-1,0-1.2-.3-1.1-.2.1-.3.1-.4.1-.2,0-.7,1.2-.8,2-.1.7-.2.8-.5.9.39993.20004.29993.10004.19993-.09997h0ZM75.45067,10.21895c.9-.5,1.4-1.1,1.7-2,.5-1.7-.5-3.3-2.2-3.9-1.2-.3-1.9-.2-2.7.5-1.1,1-1.4,3.3-.5,4.6.6,1.10001,2.39999,1.5,3.7.8ZM218.55068,9.11895c.70001-.4,1.20001-1.5,1-2.1-.10001-.2-.29999-.7-.60001-1-.39999-.5-.60001-.6-1.29999-.6-1,0-1.70001.6-1.79999,1.6-.10001.9.20001,1.6.89999,2.1s1.09998.5,1.79999,0h0ZM60.65067,9.61895c-.3-.7.5-1.2.9-.7.2.2.2.4.1.6-.2.3-.8.39999-1,.1ZM210.95067,9.01895c.10001-.6.8-.8,1-.2.2.5,0,.7-.60001.7-.39999,0-.5-.10001-.39999-.5ZM232.75066,9.31895c-1.10001-.3-1.70001-1.7-1.10001-2.9.20001-.5,1.10001-1,1.79999-1,.60001,0,1.60001.5,1.89999.9.29999.5.39999,1.6.10001,2.1-.49997.7-1.79996,1.2-2.69998.9h0ZM234.25066,8.01895c.39999-.4.5-.7.10001-1.2-.5-.8-2.10001-.4-2.10001.5,0,.99999,1.30002,1.39999,2,.7h0ZM57.35067,7.71895c-.1-.3-.1-.4,0-.6.5-.6,1.4-.1,1.1.6-.1.2-.4.4-.5.4-.3-.1-.5-.2-.6-.4h0ZM236.95067,7.91895c-.20001-.2-.10001-.9.10001-1.1.39999-.3,1,.1,1,.7,0,.4-.20001.5-.5.5-.30002,0-.60001,0-.60001-.1h0ZM211.05068,6.31895c-.3-.1-.3-.9.10001-1,.39999-.2.89999.4.7.7-.20001.3-.40001.4-.8.3h0ZM60.75068,5.81895c-.4-.4-.1-.9.5-.8.4,0,.5.1.5.5,0,.60001-.60001.7-1,.3Z"/></svg>