<?xml version="1.0" encoding="UTF-8"?><svg id="uuid-b02388aa-41f5-4e5a-93db-26df71458899" xmlns="http://www.w3.org/2000/svg" viewBox="0 0 440.82 149.74"><defs><style>.uuid-80889e17-c08a-4ed8-a876-488a647e31dc{fill-rule:evenodd;}.uuid-80889e17-c08a-4ed8-a876-488a647e31dc,.uuid-78a19265-c849-4a80-9357-43844250cf2c{fill:#365540;}.uuid-e0cb8293-7093-4c64-bafe-39e8ca1103e3{fill:#fff;}</style></defs><path class="uuid-e0cb8293-7093-4c64-bafe-39e8ca1103e3" d="M119.08,70.28c-.28,0-2.58,0-3.66.23-1.81-.01-3.59-.22-5.31-.41-1.67-.19-3.25-.37-4.78-.37-4.9,0-7.39,1.05-7.39,3.11,0,1.13.43,3.98,1.14,8.53.68,4.38,1.45,9.35,1.45,11.08,0,.82.05,1.71.11,2.83.1,1.76.22,3.94.22,7.09,0,2.92-.07,7.57-.66,14.22-.13.89-.13,1.87-.13,2.91,0,1.68.08,3.68.23,5.86,0,5.09.06,7.26.09,8.56.01.48.02.82.02,1.13,0,1.93-.44,3.91-1.2,5.33-.14.27-1.05,2.53-1.05,4.47,0,.83,0,2.77,1.64,2.77,1.15,0,1.95.05,2.79.11.83.06,1.68.11,2.84.11,1.45,0,3.02-.09,4.53-.17,1.48-.08,3-.17,4.37-.17,1.23,0,2.36.12,3.09.21h.09s.09.01.09.01c2.21,0,2.54-1.38,2.54-2.21,0-.52-.13-1.07-.3-1.76-.22-.88-.48-1.99-.48-3.2,0-.96,0-2.4.11-3.37.05-.56.1-1.09.14-1.59.17-1.8.31-3.35.31-5.18,0-1.25,0-2.65-.23-4.41-.1-1.79-.3-3.67-.52-5.66-.3-2.76-.61-5.61-.61-8.18,0-2.28.23-3.2.49-4.25.13-.54.27-1.09.39-1.84l.03-.12v-.11c.04-.17.1-.44.1-.78,0-1.31-.27-3.02-.55-4.83-.28-1.79-.57-3.64-.57-4.98,0-.86.17-2.11.35-3.44.22-1.63.44-3.31.44-4.78,0-.74-.03-1.68-.06-2.54-.03-.72-.05-1.39-.05-1.85,0-.39.12-.83.24-1.29.15-.55.32-1.18.32-1.86s.37-1.59.77-2.51c.48-1.14,1.03-2.42,1.03-3.8,0-2.38-1.32-2.88-2.43-2.88Z"/><path class="uuid-e0cb8293-7093-4c64-bafe-39e8ca1103e3" d="M189.69,139.37l-.07-.05-.12-.12-.14-.09c-.51-.32-.66-.58-1-1.15-.32-.55-.72-1.24-1.6-2.17-2.43-2.27-4.25-4.61-5.57-7.17-.87-1.68-1.64-2.83-2.32-3.84-.66-.98-1.17-1.75-1.58-2.71-1.91-4.55-3.73-6.8-5.34-8.79-1.22-1.5-2.37-2.93-3.52-5.33-.42-.76-.94-1.53-1.44-2.28-.6-.89-1.5-2.23-1.54-2.67,0-.06-.09-2.1-.1-2.34.57-1.14,2.99-3.57,4.19-4.77l.04-.04.7-.8c3.6-4.1,7.44-8.62,8.6-11.15.78-1.98,1.16-2.26,1.59-2.57.2-.14.44-.32.7-.57,1.12-.81,5.92-4.89,5.92-7.07,0-1.28-1.14-2.77-4.35-2.77-.21,0-.4-.02-.6-.04-.34-.03-.71-.07-1.2-.07-2.79,0-5.38.56-8.79,7.37-.27.49-.59,1.15-.95,1.91-1.01,2.12-2.55,5.31-4.31,7l-.1.09-.58.82c-2.58,2.71-5.43,5.83-7.23,8.64-1.36,2.33-2.83,3.79-4.54,5.47-.55.54-1.11,1.1-1.71,1.73-.84.93-1.56,1.69-2.21,2.36-.95,1-1.78,1.87-2.6,2.88-.55.44-.99.67-1.25.77-.22-.42-.49-1.55-.49-2.92,0-.18.03-.35.05-.52.03-.23.06-.44.06-.63.23-2.11.34-4.32.34-6.97v-14.08l-.06-.21c-.5-1.6-.5-2-.5-3.51.03-.6.73-3.48.98-4l.08-.17.04-.19c.12-.57.25-1.48.25-2.53,0-3.17-1.73-3.8-2.75-3.89h-.06s-.85,0-.85,0c-.7,0-1.34.08-2.02.16-.75.09-1.53.18-2.48.18-2.15,0-3.61.07-4.9.14-.94.05-1.76.09-2.65.09-2.12,0-3.33,1.26-3.33,3.45,0,2.38.49,5.21,1.5,8.66.19,1.25.22,6.22.24,9.87.01,2.25.03,4.19.07,5.38.11,1.29.11,2.47.11,3.71,0,.75-.02,1.52-.05,2.37-.03,1.06-.06,2.23-.06,3.6,0,2.34.04,4.19.07,5.82.02,1.27.05,2.4.05,3.54,0,1.24,0,2.53-.11,3.73-.12,1.63-.12,3.27-.12,4.72v6.93c-.27,3.53-.7,7.77-.98,9.11l-.03.15v.15c0,.31-.03.53-.06.71-.03.24-.06.44-.06.64,0,3.69,2.12,4.46,3.9,4.46,1.15,0,2.19-.1,3.12-.19.78-.08,1.51-.15,2.08-.15l1.05.07c2.65.18,4.4.3,6.14.59l.12.02h.12c2.44,0,3.67-1.65,3.67-4.96-.05-1.22-.24-2.29-.44-3.43-.32-1.82-.69-3.88-.69-7.45v-.11l-.02-.11c-.34-2.27-.67-5.55-.89-8.69,0-.68-.08-1.26-.15-1.72-.04-.25-.07-.46-.07-.64,0-.53.06-.64.65-1.59l.36-.57c1.08-1.67,2.98-3.7,4.12-4.91.21-.22.39-.42.54-.58.28.29.7.88,1.06,1.84.9,2.36,2.96,5.7,4.77,8.65l.28.46c.88,1.53,1.43,2.63,1.9,3.6.42.86.82,1.67,1.32,2.52.46.91,1.09,1.6,1.71,2.28.74.8,1.38,1.5,1.65,2.49.04.39.28,1.2,1.57,3.95.68,1.44,1.1,2.33,1.42,2.89.57,2.93,1.47,5.97,4.5,5.97h.19c4.15-.59,5.14-.67,7.58-.67.5,0,1.39.1,2.33.21,1.41.16,3,.35,4.43.35,1.98,0,3.39-.37,4.29-1.12l.09-.09c.14-.14.26-.23.36-.3.31-.23.96-.71.96-1.71,0-2.66-2.46-4.68-3.27-5.34Z"/><path class="uuid-e0cb8293-7093-4c64-bafe-39e8ca1103e3" d="M217.24,70.28c-.28,0-2.58,0-3.66.23-1.81-.01-3.59-.22-5.31-.41-1.67-.19-3.25-.37-4.78-.37-4.9,0-7.39,1.05-7.39,3.11,0,1.13.43,3.98,1.14,8.53.68,4.38,1.45,9.35,1.45,11.08,0,.82.05,1.71.11,2.83.1,1.76.22,3.94.22,7.09,0,2.92-.07,7.57-.66,14.22-.13.89-.13,1.87-.13,2.91,0,1.7.07,3.65.22,5.86,0,5.09.06,7.26.09,8.56.01.48.02.82.02,1.13,0,1.93-.44,3.91-1.2,5.33-.14.27-1.06,2.53-1.06,4.47,0,.83,0,2.77,1.64,2.77,1.15,0,1.95.05,2.79.11.83.06,1.68.11,2.84.11,1.45,0,3.01-.09,4.53-.17,1.48-.08,3-.17,4.37-.17,1.23,0,2.36.12,3.09.21h.09s.09.01.09.01c2.21,0,2.54-1.38,2.54-2.21,0-.52-.13-1.07-.3-1.76-.22-.88-.48-1.99-.48-3.2,0-.96,0-2.4.11-3.37.05-.57.1-1.09.15-1.6.17-1.8.31-3.35.31-5.18,0-1.25,0-2.66-.23-4.41-.1-1.78-.3-3.66-.51-5.65-.3-2.76-.61-5.61-.61-8.19,0-2.28.23-3.19.49-4.25.13-.54.27-1.1.39-1.84l.03-.12v-.11c.04-.18.1-.44.1-.78,0-1.31-.27-3.02-.55-4.83-.28-1.79-.57-3.64-.57-4.98,0-.86.17-2.11.35-3.44.22-1.63.44-3.31.44-4.78,0-.74-.03-1.68-.06-2.54-.03-.72-.05-1.39-.05-1.85,0-.39.12-.83.24-1.29.15-.55.32-1.18.32-1.86s.37-1.59.77-2.51c.48-1.14,1.03-2.42,1.03-3.8,0-2.38-1.32-2.88-2.43-2.88Z"/><path class="uuid-e0cb8293-7093-4c64-bafe-39e8ca1103e3" d="M290.07,73.48c-.04-.85-.16-3.09-3.64-3.09-.74,0-1.71.03-2.61.06-.75.03-1.44.05-1.9.05-1.28,0-3.67,0-3.67,3.22,0,1.25.44,2.62.87,3.94.4,1.25.82,2.55.82,3.61,0,.84.08,1.93.18,3.31.16,2.25.39,5.34.39,9.2,0,1.52.09,3.04.17,4.51.08,1.45.16,2.82.16,4.17,0,2.12.13,3.43.28,4.96.09.96.2,2.03.29,3.45.11,2.45.11,4.07.11,5.8,0,.77,0,1.49-.1,2.3-.05.4-.1.8-.14,1.19-.92-1.21-1.96-2.52-2.84-3.45l-.08-.08c-1.08-.97-1.93-1.97-2.84-3.03s-1.94-2.26-3.35-3.61c-2.55-2.33-6.76-7.22-8.43-9.33-.44-.53-.94-1.14-1.46-1.78-1.52-1.86-3.23-3.97-4.71-5.53l-.56-.56c-1.9-1.88-4.76-4.73-6.86-7.63-1.15-1.53-2.32-2.9-3.46-4.23-1.21-1.42-2.36-2.76-3.31-4.12-.55-.72-.98-1.4-1.35-2.01-.88-1.42-1.71-2.77-3.55-3.28-.17-.13-.41-.27-.72-.32-1.72-.37-3.42-.69-5.31-.69h-.2c-.69.11-1.29.11-1.83.11h-1.53c-2.37.31-2.37,2.79-2.37,4.12,0,2.51.33,6.48.46,8.01v.07s.1.5.1.5c.37,2.09,1.25,7,1.25,11.6,0,1.33-.09,2.95-.17,4.53-.08,1.56-.17,3.17-.17,4.49,0,.5.04.92.07,1.29.02.19.04.36.04.52v.1c.22,3.11.22,4.74.22,7.45,0,1.17.05,2.55.1,4.02.06,1.74.12,3.54.12,5.33,0,.27-.02.56-.03.92-.03.66-.08,1.57-.08,3.03v9.01c0,.54-.42,4.77-.57,5.33l-.1.25v.27c0,.21-.02.32-.05.46-.04.21-.06.38-.06.55,0,.33-.04.59-.07.82-.03.22-.05.4-.05.53v1.58c0,1.16.66,2.54,3.79,2.54h3.49c1.33,0,4.46,0,4.46-4.23,0-1.44-.28-2.62-.61-4-.24-1.01-.51-2.15-.74-3.66,0-.81.04-2.05.07-3.03.02-.69.04-1.26.04-1.48,0-1.17-.1-2.38-.21-3.67-.12-1.42-.24-2.89-.24-4.44,0-1.83-.14-3.33-.26-4.65-.1-1.08-.19-2.1-.19-3.12,0-1.55.05-2.34.08-2.87.02-.3.03-.52.03-.73,0-1.13-.07-2.16-.14-3.34-.07-1.02-.14-2.19-.2-3.73-.04-.76-.12-1.54-.21-2.34-.12-1.17-.24-2.38-.24-3.55,0-.5.08-1.04.17-1.67l.05-.37v-.4c.44.5.89,1.05,1.15,1.39l.41.5c1.09,1.28,1.96,2.7,2.73,3.96.52.85,1.02,1.66,1.48,2.26.93,1.3,3.22,3.67,5.24,5.77.59.61,1.15,1.19,1.62,1.69,1.01,1.12,1.63,2.11,2.35,3.26.69,1.1,1.47,2.35,2.63,3.73,1.25,1.69,2.63,2.82,3.97,3.91.84.68,1.63,1.33,2.38,2.12,1.84,1.78,3.5,3.75,4.96,5.48,1.38,1.64,2.58,3.07,3.72,4.09.59.63,1.17,1.3,1.75,1.97,1.46,1.7,2.85,3.3,4.44,4.24.78.41,1.95,2.15,2.9,3.54,1.27,1.88,2.36,3.5,3.62,4.05l.12.05c.38.13.89.3,1.57.3,1.72,0,4-.68,4.99-2.17.43-.58.82-1.62.82-4.88,0-1.46-.11-2.8-.22-3.57.11-2.34.11-4.32.11-6.23v-.15l-.03-.14c-.44-2.1-.98-6.27-.98-8.16,0-.48-.03-.96-.06-1.44-.03-.42-.05-.84-.05-1.26,0-1.77.08-3.56.17-5.29.08-1.76.17-3.58.17-5.42,0-1.09.05-2.19.1-3.36.06-1.34.12-2.73.12-4.31,0-1.32-.06-2.5-.12-3.64-.05-1.03-.1-2.01-.1-3,0-1.98.22-3.72.43-5.42.18-1.48.36-2.89.36-4.28,0-3.29.27-6.57.46-8.96.12-1.45.21-2.6.21-3.32v-.18c-.02-.09-.03-.19-.03-.29Z"/><path class="uuid-e0cb8293-7093-4c64-bafe-39e8ca1103e3" d="M363.16,133.88c-.06-.36-.15-1.82-.15-5.28,0-.9.09-1.99.19-3.24.12-1.57.26-3.35.26-5.21v-4.28c0-3.03,0-5.23.38-6.74.19-.46.19-.88.19-1.26,0-3.67-4.86-3.67-6.94-3.67-1.65,0-2.69.13-3.44.23-.46.06-.82.11-1.17.11-.14,0-.24-.02-.33-.04-.23-.04-.44-.07-.69-.07-.09,0-.2-.02-.33-.04-.3-.04-.64-.08-1.03-.08-.7,0-1.37.06-2.02.12-.57.05-1.1.1-1.58.1-.06,0-.13,0-.19,0-.06,0-.11,0-.16,0l-.09-.03c-.56-.19-1.29-.19-2.14-.19-4.05,0-4.87,1.05-5.15,1.57-.86,1.25-1.45,4.52-1.45,5.93v.16c.26,2.27,1.71,2.61,2.54,2.61.67,0,1.31-.24,2.2-.57l.21-.08.09-.03.11-.07c.42-.21,3.16-.94,7.19-.94.98,0,2.11-.1,3.11-.19.6-.05,1.18-.11,1.65-.13.12.48.25,1.26.25,2.29,0,.35-.12.97-.24,1.57-.16.84-.33,1.71-.33,2.49,0,.46.13,1.01.34,1.86.13.53.33,1.33.33,1.63,0,1.81-.09,3.62-.17,5.37-.08,1.73-.16,3.37-.16,5,0,4.03-3.82,5.81-8.42,7.56-.97.37-1.89.72-2.62,1.09-1.73.87-4.79.98-7.26.98-2.94,0-8.34-.86-9.34-1.48-.74-.88-1.65-.88-2.15-.88-.88,0-1.58,0-2.86-1.2l-.09-.08c-1.75-1.37-1.8-1.57-2.59-4.95-.17-.73-.37-1.59-.63-2.62-.36-1.43-.38-3.36-.41-5.41-.03-2.13-.06-4.54-.49-6.96-.21-.91-.66-1.63-1.02-2.2-.27-.43-.52-.83-.52-1.09,0-.83.14-1.48.33-2.37.34-1.59.8-3.76.8-8.33v-4.06c0-2.44.08-8.53.87-12.31.48-2.14.74-2.46,1.26-3.09.42-.5.99-1.19,1.75-2.62,1.01-1.84,1.79-2.16,3.34-2.8.76-.32,1.62-.67,2.72-1.3,1.56-.99,5.15-1.58,9.61-1.58.97,0,1.72-.08,2.31-.14.39-.04.73-.08,1.07-.08s.61.05,1.02.33l.32.21.38.02c1.2.07,1.97.34,3.04.72.42.15.86.3,1.35.46l.21.06h.22c1.18,0,3.46,1.27,4.57,2.34.68.89,1.56,1.68,2.34,2.39.46.42.89.81,1.16,1.11,1.11,1.25,2.37,1.94,3.54,1.94,1.01,0,1.7-.55,2.24-1.09l.15-.15.1-.18c.41-.76,1.4-2.71,1.73-4.48l.02-.11.03-.37c.04-.41.09-1.01.09-1.35,0-1.09-.19-1.94-.68-3.05h0c-1.27-2.77-14.17-4.76-14.3-4.78h-.09s-.09-.01-.09-.01c-.71,0-1.29.11-1.8.2-.41.08-.77.14-1.13.14-.31,0-.59-.05-.97-.29-1.49-1.16-5.08-1.28-6.58-1.28-2.25,0-4.91.32-6.22.76-.73.26-2.26.37-3.73.49-2.63.2-5.61.43-7.67,1.54l-1.07.62c-2.36,1.36-4.4,2.53-7.79,4.73-2.56,1.71-4.35,3.51-5.8,4.97-.74.74-1.38,1.38-1.98,1.88-1.41,1.16-2.68,3.95-4.47,8.07-.74,1.71-1.44,3.33-2.1,4.56-1.79,3.57-2.85,10-2.85,14.16,0,5.21,2.22,12,4.42,16.4,2.17,4.44,9.16,13.72,12.6,14.6,1.27.43,2.39,1.18,3.48,1.9,1.01.67,2.05,1.36,3.18,1.78,2.2.81,10.95,3.19,14.48,3.57.68.13,1.41.13,2.12.13,3.46,0,8.97-.57,11.22-1.04,1.81-.38,3.96-1.33,5.69-2.09.92-.4,1.79-.79,2.31-.95.08,0,.19,0,.31,0,1-.01,2.85-.03,4.26-1.32,1.21-1.03,2.57-1.82,3.78-2.52,2.01-1.17,3.59-2.09,3.59-3.74,0-1.42-.42-2.1-.82-2.77-.23-.37-.46-.76-.72-1.42Z"/><path class="uuid-e0cb8293-7093-4c64-bafe-39e8ca1103e3" d="M402.42,149.74c-2.08,0-4.11-.07-5.59-.12-.89-.03-1.61-.05-2.06-.05-5.61,0-14.42-3.69-18.57-7.77-2.78-1.93-8.99-6.75-8.99-11.44,0-3.54,5.82-9.47,9.3-9.47,3.68,0,4.22,2.01,4.97,4.8.17.64.37,1.37.63,2.21.3,1.04,2.29,5.04,3.5,6.25l.04.04.04.05c3.34,4.01,7.04,6.49,15.18,6.49,1.31,0,2.8,0,4.03-.31,3.51-.63,8.14-2.62,10.78-8.65l.04-.09.12-.22c1.28-2.41,1.99-3.73,1.99-5.61,0-.76-.17-1.47-.41-2.46-.08-.34-.17-.7-.26-1.09-1.21-4.87-2.43-8.16-5.69-12.55-3.33-4.82-4.65-5.91-9.39-8.89-4.01-2.29-6.35-4.75-8.61-7.12-.56-.58-1.11-1.17-1.7-1.76-1.96-2.08-4.47-3.46-6.89-4.79-1.05-.58-2.14-1.18-3.15-1.82-3.93-2.43-9.2-10.17-9.8-13.57-.14-.65-.38-1.43-.63-2.25-.61-2.01-1.31-4.3-1.31-7.02,0-.91,0-1.69.2-2.69.58-4.35,2.63-7.41,4.81-10.65.54-.81,1.09-1.62,1.62-2.48l.04-.06.04-.05c2.14-2.73,6.55-7.74,12.08-10.61,1-.5,1.78-.99,2.55-1.47,2.46-1.55,4.59-2.88,10.85-2.88,4.16,0,17.93.14,20.57,1.97.85.66,2.36,1.29,3.96,1.95,2.94,1.21,6.27,2.59,7.57,4.93.49.76.95,1.29,1.36,1.76.76.88,1.42,1.64,1.42,3.22,0,.38,0,.85-.2,1.52-.58,3.45-6.18,6.39-8.75,6.39-3.88,0-4.76-1.95-4.93-3.16-.33-1.33-5.01-7.01-8.12-8.36-.16-.04-.3-.09-.4-.14l-.73-.24c-2.28-.76-4.44-1.49-6.17-1.49-.79.08-5.69,1.52-6.49,1.97h0c-2.49,2.03-4.97,4.47-5.47,10.03,0,6.47.56,11.13,3.31,14.37,3.55,3.55,8.75,8.18,11.78,9.62,2.03.97,4.53,3.21,6.95,5.38,2.1,1.88,4.26,3.82,5.51,4.33l.06.03.06.03c1.75.93,3.12,2.44,4.7,4.2,1.03,1.13,2.09,2.31,3.38,3.46,5.46,4.48,9.3,11.69,9.3,17.49,0,2.99-.19,4.52-.37,6.01-.17,1.4-.33,2.72-.33,5.3,0,3.47-2.12,11.72-5.44,14.27-2.19,1.56-3.85,3.11-5.46,4.6-1.07,1-2.09,1.94-3.21,2.85-3.3,2.87-15.08,5.07-16.42,5.31-1.71.34-4.34.54-7.19.54Z"/><path class="uuid-e0cb8293-7093-4c64-bafe-39e8ca1103e3" d="M103.9,30.81c-2.38,0-4.62,0-6.29-.17h-.07s-.07,0-.07,0c-.62,0-1.42-.04-2.29-.07-1.03-.05-2.21-.1-3.27-.1-4.2,0-4.2,2.72-4.2,4.02s.39,2.64.81,4.05c.46,1.54.93,3.12.93,4.81,0,1.34-.17,2.35-.58,3.44-.74,1.72-1.19,4.01-1.72,6.67-.65,3.26-1.38,6.96-2.8,10.18-.49,1.16-.96,2.2-1.39,3.16-1.74,3.9-3,6.72-3.58,11.64-.67,5.52-1.48,9.39-4.04,15.2-1.56,3.31-2.74,6.92-3.59,9.55-.2.62-.41,1.27-.61,1.83-.94-1.56-2.21-4.33-3.06-6.18-.72-1.57-1.4-3.04-2.02-4.24-.83-1.51-1.72-2.56-2.58-3.58-1.25-1.49-2.43-2.89-3.61-5.83-1-2.42-2.18-4.56-3.32-6.64-1.29-2.35-2.63-4.78-3.8-7.76l-4.74-11.99c-.28-.83-.45-1.53-.53-2.47-.18-1.89.87-6.69,1.63-9.04,3.5-10.73,4.33-20.58,2.34-27.75C48.45,8.74,41.25,2.14,30.65.47c-1.88-.31-3.74-.47-5.52-.47C11.73,0,3.98,8.75,2.43,16.96c-.08.63-.03,1.3.17,2l.25.88-.11.21.07.07c-.27.94-.42,2.31-.46,4.07-.02.81.15,1.74.31,2.64.17.97.41,2.31.21,2.8-.1.26-.42.73-.74,1.18-.98,1.42-2.32,3.37-2.11,5.74l1.35,3.26.43.64.03-.02s.02.04.04.06l-.07.03.85,1.43s0,0,0,0l.07.14h.03c.56.83,1.51,1.36,2.53,1.36.2,0,.4-.02.61-.06l2.69-.54c.1-.02.19-.05.29-.08,1.76-.07,5.21-.43,6.89-2.13.56,2.9,1.43,6.53,2.95,9.57l.64,1.27c.8,1.58,1.43,2.85,1.85,3.94-.51-.24-1.14-.37-1.87-.37-1.39,0-3.49.53-4.84,2.02-1.69,1.87-2.12,4.45-1.11,6.73,1.07,2.41,3.44,3.9,6.21,3.9,1.22,0,2.71-.16,4.16-.71-.82,6.37.72,9.85,1.28,10.86l.21.37,5.14,9.55c1.02,2.12,2.07,3.87,3.09,5.57,1.54,2.57,2.86,4.8,3.57,7.46.34,2.48,1.71,5,3.05,7.44,1.06,1.94,2.06,3.77,2.36,5.33.79,2.99,2.49,6.73,5.48,12.07l.33.68c1.8,3.74,3.35,6.97,3.35,8.95,0,5.16,1.44,8.72,4.25,10.54,1.85,1.3,4.41,2.17,6.37,2.17,3.08,0,5.11-1.44,5.57-3.96.2-1.19.96-2.82,1.76-4.53,1.13-2.41,2.41-5.15,2.92-8.1.76-3.69,1.93-7.66,3.17-11.86.43-1.47.88-2.98,1.31-4.51,1.42-4.52,4.19-10.89,6.87-17.04.89-2.05,1.79-4.1,2.65-6.14,2.71-6.92,3.38-10.57,4.16-14.8.14-.74.28-1.5.43-2.29.52-2.58,1.5-4.39,2.54-6.31.96-1.77,1.96-3.6,2.62-6.01.75-2.16,1.52-4.51,2.3-6.88,1.03-3.11,2.09-6.32,3.06-9.04.52-1.3,1.71-3.08,2.85-4.79,1.89-2.82,3.67-5.49,3.67-7.55,0-1.66-1.3-3.33-4.2-3.33ZM13.26,17.46c.05-.2.1-.4.16-.59.13.13.27.25.43.35-.2.06-.4.14-.59.24ZM16.04,33.8l-.28-.09s-.06-.02-.12-.05l.98-1.5.06-.1c.19-.34.6-.98,1.12-1.61-.35,1.17-.9,2.38-1.76,3.35ZM29.23,50.96c-.33.62-.65,1.25-.95,1.87-.53-1.51-1.27-2.74-2.03-4.01-.65-1.08-1.3-2.17-1.87-3.53.34,0,.67-.08.98-.23.32-.14.65-.29.99-.43.92-.4,1.8-.78,2.36-1.12,1.1-.67,1.64-2.31,1.66-3.21.01-.45,0-.98-.02-1.54-.02-.79-.07-2.31.1-3,.25.12.67.39,1.09.99l.24.35.17.38c.7,1.63,1.28,5.56-2.71,13.47Z"/><path class="uuid-80889e17-c08a-4ed8-a876-488a647e31dc" d="M338.71,30.17h0c-.03-2.28,3.6-2.31,3.63-.05.02,1.37.54,2.73,1.58,3.78l3.51,3.51,3.93-3.93c.66-.66,1.74-.66,2.41,0l5.3,5.3c.66.66.66,1.74,0,2.41l-5.3,5.3c-.66.66-1.74.66-2.41,0l-3.93-3.93-3.51,3.51c-1.03,1.03-1.56,2.4-1.58,3.77-.03,2.26-3.66,2.24-3.63-.04.03-2.34.95-4.61,2.64-6.31l3.51-3.49-3.51-3.51c-1.68-1.69-2.61-3.96-2.64-6.3h0ZM352.57,37.4h0l-2.57,2.57,2.57,2.57,2.57-2.57-2.57-2.57h0Z"/><path class="uuid-80889e17-c08a-4ed8-a876-488a647e31dc" d="M144.11,49.77h0c.03,2.28-3.6,2.31-3.63.05-.02-1.37-.54-2.73-1.58-3.78l-3.51-3.51-3.93,3.93c-.66.66-1.74.66-2.41,0l-5.3-5.3c-.66-.66-.66-1.74,0-2.41l5.3-5.3c.66-.66,1.74-.66,2.41,0l3.93,3.93,3.51-3.51c1.03-1.03,1.56-2.4,1.58-3.77.03-2.26,3.66-2.24,3.63.04-.03,2.34-.95,4.61-2.64,6.31l-3.51,3.49,3.51,3.51c1.68,1.69,2.61,3.96,2.64,6.3h0ZM130.26,42.54h0l2.57-2.57-2.57-2.57-2.57,2.57,2.57,2.57h0Z"/><path class="uuid-78a19265-c849-4a80-9357-43844250cf2c" d="M171.52,25.62c.77,1.89,7.52,17.55,10.49,23.65.77,1.62,1.47,2.97,3.05,3.28,1,.19,1.12.31,1.12.73,0,.54-.39.69-1.16.69-.96,0-3.59-.19-6.64-.19-1.31,0-2.39.12-3.16.12-.5,0-.73-.23-.73-.58,0-.31.19-.54.66-.62.58-.08.97-.35.97-1,0-.42-2.51-5.98-2.51-5.98h-11.54c-.85,2.51-1.43,4.55-1.43,5.29,0,1.08.62,1.58,1.58,1.7.46.04.66.31.66.62,0,.35-.23.58-.73.58-.77,0-2.04-.12-3.36-.12-3.05,0-3.94.19-5.09.19-.58,0-.96-.15-.96-.69,0-.42.12-.54,1.12-.73,1.58-.31,2.16-1.16,2.97-2.74,1.58-3.05,6.25-13,11.38-24.15.42-.89.69-1.39,1.7-1.39.93,0,1.27.5,1.62,1.35ZM158.79,48.65c-1.12,2.62-2.12,3.59-2.12,3.82,0,.19.15.27.46.27h2.12c.19,0,.39-.08.39-.31,0-.31-1.08-.77-.39-3.7.04-.23-.39-.27-.46-.08ZM162.76,43.75h10.26c-2.12-5.21-4.63-11.15-4.94-11.84-.12-.27-.15-.35-.31-.35s-.19.12-.31.35c-1.23,2.7-3.2,7.64-4.71,11.84ZM179.97,52.2c.15,0,.27-.12.19-.27l-10.46-24.61s-.04-.15-.15-.15-.15.15-.15.15l-.58,1.62c-.12.31-.15.46,0,.81l9.03,22.22s.12.23.42.23h1.7Z"/><path class="uuid-78a19265-c849-4a80-9357-43844250cf2c" d="M215.94,44.02v4.13c0,1.12.31,1.35.31,2.04,0,.81-.58,1-1.46,1-2.28,0-5.02,3.16-12.04,3.16-6.44,0-15.86-2.93-15.86-14.2,0-11.92,10.26-15.9,18.02-15.9,3.74,0,5.29.85,6.25.85s1.74-.35,2.28-.35.89.43.89,1.47c0,1.97.5,5.48.5,6.1,0,.5-.39.66-.73.66-.58,0-.89-.73-1.2-1.35-1.7-3.28-3.78-5.09-8.22-5.09-5.17,0-11,2.89-11,13.77,0,8.49,6.29,11.46,11.11,11.46,5.21,0,5.36-2.08,5.36-3.63v-4.13c0-1.54-.81-2.47-2.2-3.2-.81-.43-1.12-.73-1.12-1.16,0-.39.35-.66.93-.66.93,0,4.05.39,5.29.39s4.32-.39,5.25-.39c.58,0,.93.27.93.66,0,.42-.35.69-1.12,1.16-1.43.89-2.16,1.66-2.16,3.2ZM188.47,40.01c0,9.26,8.64,12.5,9.61,12.5.27,0,.39-.08.39-.23,0-.12-.12-.19-.35-.31-1.43-.62-7.45-3.78-7.45-12,0-7.18,4.05-11,5.21-12.04.19-.19.31-.27.31-.39s-.08-.15-.27-.15c-.81,0-7.45,3.82-7.45,12.62ZM211.66,49.58c0,.42.15.69.42.69.54,0,1.58-.58,1.58-.93v-5.9c0-2.08,1.51-2.28,1.51-2.74,0-.15-.12-.27-.5-.27-.43,0-1.31.23-2.08.23s-1.74-.23-2.28-.23c-.19,0-.31.08-.31.27,0,.58,1.66.66,1.66,2.78v6.1ZM211.23,26.43c-.35,0-.62.04-.62.15,0,.27.89.5,1.7,1.77.73,1.16.85,1.89,1,1.89.08,0,.15-.08.15-.35,0-.85-.27-2.55-.69-3.09-.19-.19-1.04-.38-1.54-.38Z"/><path class="uuid-78a19265-c849-4a80-9357-43844250cf2c" d="M230.66,41.48v8.68c0,1.04.96,1.66,1.97,1.66.39,0,4.98.08,7.64-.58,2.66-.66,5.59-3.55,7.41-6.02.46-.66.73-.96,1.16-.96.35,0,.58.27.58.62,0,.81-1.89,5.63-1.89,7.6,0,1.04-.42,1.58-1.39,1.58-1.04,0-6.02-.46-18.6-.46-1.23,0-4.09.38-5.02.38-.58,0-.96-.15-.96-.69,0-.42.12-.54,1.12-.73,1.58-.31,2.2-1.66,2.2-3.2v-20.06c0-1.54-.62-2.89-2.2-3.2-1-.19-1.12-.31-1.12-.73,0-.54.38-.69.96-.69s3.7.19,7.6.19c12.58,0,14.2-.27,15.24-.27.96,0,1.39.54,1.39,1.58,0,1.97.58,6.21.58,6.83,0,.5-.31.77-.66.77-.58,0-.69-.5-1.08-1.08-1.93-2.86-4.98-6.17-10.49-6.17-3.47,0-4.44.77-4.44,1.93v8.3c0,1.04.27,1.27,1.27,1.27,2.32,0,6.02.27,8.34-1.04,1.74-1,2.12-2.51,2.7-2.51.35,0,.62.23.62.66s-.43,1.47-.43,3.39.58,3.74.58,4.36c0,.5-.27.81-.62.81-.62,0-1.16-1.77-2.43-2.62-1.27-.85-2.16-.81-3.74-.81-5.33,0-6.29.08-6.29,1.23ZM228.03,51.12v-23.5c0-1.23-.19-1.47-1.58-1.47-.69,0-1.31.12-1.31.31,0,.31,1.08.77,1.08,1.77v21.84c0,1.23-.77,1.35-.77,1.81,0,.31.42.31,1.46.31.93,0,1.12-.15,1.12-1.08ZM240.92,38.04c-.38.35-.85.66-.85.89s.54.58,1.04.89c.38.27.77.54.85.54.15,0,.27-.08.27-.31s-.15-1.39-.15-2.24c0-.31-.08-.39-.19-.39-.19,0-.62.31-.97.62ZM243.93,28.59c.89.96,1.43,1.66,1.58,1.85.15.23.23.35.35.35.08,0,.12-.04.12-.19,0-.5-.62-2.35-.96-3.36-.35-1-1.35-1.12-3.24-1.12-.42,0-.58.08-.58.23,0,.27,1.35.73,2.74,2.24ZM243.93,50.81c-.81.54-1.54.96-1.54,1.27s1.2.35,2.47.35c.77,0,1.51-1.81,2.08-3.47.15-.42.08-.58-.08-.62-.27-.08-1.27,1.35-2.93,2.47Z"/><path class="uuid-78a19265-c849-4a80-9357-43844250cf2c" d="M281.79,24.27c9.76,0,16.98,5.63,16.98,15.09s-7.22,15.09-16.98,15.09-16.94-5.56-16.94-15.09,7.22-15.09,16.94-15.09ZM266.36,39.63c0,9.65,8.64,12.69,9.61,12.69.27,0,.39-.08.39-.23,0-.12-.12-.19-.35-.31-1.43-.62-7.45-3.59-7.45-11.81,0-7.18,3.86-11.07,5.02-12.11.19-.19.31-.27.31-.39s-.08-.15-.27-.15c-.81,0-7.25,3.9-7.25,12.31ZM281.79,52.2c5.67,0,10.49-5.13,10.49-12.92s-4.82-12.96-10.49-12.96-10.45,5.17-10.45,12.96,4.82,12.92,10.45,12.92ZM296.03,39.12c0-9.26-8.1-13.16-9.18-13.16-.16,0-.27.08-.27.23,0,.12.12.27.35.39,1.97,1,6.91,4.36,6.91,12.58,0,7.18-4.05,10.88-5.21,11.92-.19.19-.31.27-.31.39s.08.15.27.15c.81,0,7.45-3.7,7.45-12.5Z"/><path class="uuid-78a19265-c849-4a80-9357-43844250cf2c" d="M311.71,28.44v8.3c0,1.04.27,1.27,1.27,1.27,2.32,0,4.82.27,7.14-1.04,1.74-1,2.12-2.51,2.7-2.51.35,0,.62.23.62.66s-.42,1.47-.42,3.39.58,3.74.58,4.36c0,.5-.27.81-.62.81-.62,0-1.16-1.77-2.43-2.62-1.27-.85-2.16-1.12-3.74-1.12-4.4,0-5.09.39-5.09,1.54v7.87c0,1.54.58,2.89,2.16,3.2.89.15,1.12.35,1.12.77,0,.39-.35.66-.93.66-.93,0-4.01-.38-5.25-.38s-4.36.38-5.28.38c-.58,0-.93-.27-.93-.66,0-.42.23-.62,1.12-.77,1.58-.27,2.2-1.66,2.2-3.2v-20.06c0-1.54-.62-2.89-2.2-3.2-1-.19-1.12-.31-1.12-.73,0-.54.38-.69.96-.69s3.7.19,7.6.19c12.58,0,14.2-.27,15.24-.27.96,0,1.39.54,1.39,1.58,0,1.97.58,6.21.58,6.83,0,.5-.31.77-.66.77-.58,0-.69-.5-1.08-1.08-1.93-2.86-4.98-6.17-10.49-6.17-3.47,0-4.44.77-4.44,1.93ZM309.09,51.12v-23.5c0-1.23-.19-1.47-1.58-1.47-.69,0-1.31.12-1.31.31,0,.31,1.08.77,1.08,1.77v21.84c0,1.23-.77,1.35-.77,1.81,0,.31.42.31,1.46.31.93,0,1.12-.15,1.12-1.08ZM320.74,38.04c-.39.35-.85.66-.85.89s.54.58,1.04.89c.39.27.77.54.85.54.15,0,.27-.08.27-.31s-.15-1.39-.15-2.24c0-.31-.08-.39-.19-.39-.19,0-.62.31-.96.62ZM324.98,28.59c.89.96,1.43,1.66,1.58,1.85.15.23.23.35.35.35.08,0,.12-.04.12-.19,0-.5-.54-2.47-.89-3.47-.35-1-1.43-1-3.32-1-.42,0-.58.08-.58.23,0,.27,1.35.73,2.74,2.24Z"/><path class="uuid-78a19265-c849-4a80-9357-43844250cf2c" d="M120.1,73.16c0-1.35-.45-1.47-1.01-1.47-1.69,0-3.16.11-3.49.23-3.72,0-7.21-.79-10.25-.79-.45,0-5.97,0-5.97,1.69,0,2.37,2.59,16.23,2.59,19.61,0,2.03.34,4.73.34,9.92,0,3.49-.11,8.11-.68,14.42-.11.79-.11,1.69-.11,2.71,0,2.03.11,4.17.22,5.86,0,7.1.11,8.56.11,9.69,0,2.03-.45,4.28-1.35,5.97-.11.22-.9,2.25-.9,3.83,0,1.01.11,1.35.23,1.35,2.37,0,3.38.22,5.63.22,2.82,0,6.09-.34,8.9-.34,1.24,0,2.37.11,3.27.22.9,0,1.13-.22,1.13-.79,0-.9-.79-2.71-.79-4.96,0-1.01,0-2.48.11-3.49.22-2.59.45-4.39.45-6.65,0-1.24,0-2.59-.23-4.28-.22-4.28-1.13-9.47-1.13-13.97,0-3.61.56-4.17.9-6.31,0-.23.11-.45.11-.79,0-2.48-1.13-6.99-1.13-9.8,0-2.03.79-5.63.79-8.23,0-1.35-.11-3.38-.11-4.39,0-1.13.56-2.14.56-3.16,0-2.03,1.8-4.17,1.8-6.31Z"/><path class="uuid-78a19265-c849-4a80-9357-43844250cf2c" d="M188.61,140.32c-1.47-.9-1.24-1.8-2.82-3.49-1.69-1.58-4.06-4.06-5.86-7.55-1.69-3.27-3.04-4.51-3.94-6.65-3.27-7.78-6.09-8.34-8.79-13.97-1.13-2.03-3.16-4.39-3.16-5.63,0-.11-.11-2.48-.11-2.59.45-1.35,2.93-3.83,4.62-5.52,1.47-1.69,7.66-8.56,9.01-11.49,1.24-3.16,1.8-2.82,2.7-3.72,1.24-.79,5.41-4.73,5.41-5.97,0-.68-.9-1.35-2.93-1.35-.56,0-1.01-.11-1.8-.11-2.14,0-4.28.11-7.55,6.65-1.01,1.8-2.93,6.76-5.52,9.24l-.56.79c-2.25,2.37-5.3,5.64-7.1,8.45-1.92,3.27-4.06,4.96-6.42,7.44-2.14,2.37-3.49,3.61-4.85,5.3-.68.56-1.69,1.24-2.48,1.24-.23,0-.45-.11-.56-.22-.79-.56-1.13-2.59-1.13-4.17,0-.45.11-.9.11-1.24.22-2.03.34-4.17.34-6.87v-13.86c-.56-1.8-.56-2.37-.56-3.94,0-.68.79-3.94,1.13-4.62.11-.56.23-1.35.23-2.25,0-1.13-.23-2.37-1.47-2.48h-.79c-1.35,0-2.59.34-4.51.34-3.72,0-5.41.22-7.55.22-.9,0-1.92.23-1.92,2.03,0,3.04.9,6.42,1.47,8.34.34,1.92.23,12.28.34,15.44.11,1.35.11,2.59.11,3.83,0,1.69-.11,3.49-.11,5.97,0,4.17.11,6.76.11,9.35,0,1.24,0,2.59-.11,3.83-.11,1.58-.11,3.16-.11,4.62v6.99c-.23,2.93-.68,7.77-1.01,9.35,0,.67-.11,1.01-.11,1.35,0,2.48,1.01,3.04,2.48,3.04,2.03,0,3.72-.34,5.3-.34,3.27.22,5.3.34,7.32.67,1.24,0,2.25-.56,2.25-3.49-.11-2.93-1.13-4.96-1.13-10.93-.34-2.25-.68-5.52-.9-8.9,0-1.01-.22-1.8-.22-2.37,0-1.13.34-1.46,1.24-2.93,1.47-2.26,4.17-4.96,5.07-5.97.23-.22.34-.34.68-.34.79,0,1.8,1.13,2.48,2.93.9,2.37,3.16,5.97,4.96,8.9,1.69,2.93,2.14,4.28,3.27,6.2.9,1.8,2.93,2.82,3.49,5.18,0,.79,3.04,6.87,2.93,6.54.68,3.61,1.46,5.07,3.16,5.07,4.06-.56,5.18-.67,7.78-.67,1.35,0,4.39.56,6.76.56,1.47,0,2.7-.22,3.38-.79.56-.56.9-.56.9-1.01,0-2.25-2.7-4.17-2.93-4.39Z"/><path class="uuid-78a19265-c849-4a80-9357-43844250cf2c" d="M218.25,73.16c0-1.35-.45-1.47-1.01-1.47-1.69,0-3.16.11-3.49.23-3.72,0-7.21-.79-10.25-.79-.45,0-5.97,0-5.97,1.69,0,2.37,2.59,16.23,2.59,19.61,0,2.03.34,4.73.34,9.92,0,3.49-.11,8.11-.68,14.42-.11.79-.11,1.69-.11,2.71,0,2.03.11,4.17.22,5.86,0,7.1.11,8.56.11,9.69,0,2.03-.45,4.28-1.35,5.97-.11.22-.9,2.25-.9,3.83,0,1.01.11,1.35.22,1.35,2.37,0,3.38.22,5.63.22,2.82,0,6.09-.34,8.9-.34,1.24,0,2.37.11,3.27.22.9,0,1.13-.22,1.13-.79,0-.9-.79-2.71-.79-4.96,0-1.01,0-2.48.11-3.49.22-2.59.45-4.39.45-6.65,0-1.24,0-2.59-.23-4.28-.22-4.28-1.13-9.47-1.13-13.97,0-3.61.56-4.17.9-6.31,0-.23.11-.45.11-.79,0-2.48-1.13-6.99-1.13-9.8,0-2.03.79-5.63.79-8.23,0-1.35-.11-3.38-.11-4.39,0-1.13.56-2.14.56-3.16,0-2.03,1.8-4.17,1.8-6.31Z"/><path class="uuid-78a19265-c849-4a80-9357-43844250cf2c" d="M288.68,73.95c-.11-.9.23-2.14-2.25-2.14-1.35,0-3.49.11-4.51.11-1.69,0-2.25.22-2.25,1.8,0,2.14,1.69,5.07,1.69,7.55,0,2.14.56,6.31.56,12.51,0,2.93.34,5.86.34,8.68,0,3.38.34,4.62.56,8.34.11,2.48.11,4.17.11,5.86,0,.79,0,1.58-.11,2.48-.34,2.59-.34,5.07-.34,5.07,0,0-3.04-4.39-5.07-6.54-2.25-2.03-3.49-4.06-6.2-6.65-2.59-2.37-6.87-7.32-8.56-9.47-1.69-2.03-4.17-5.18-6.09-7.21-1.92-1.91-5.18-5.07-7.55-8.34-2.37-3.16-4.96-5.75-6.76-8.34-1.92-2.48-2.25-4.4-4.39-4.85-.11,0-.22-.23-.34-.23-1.58-.34-3.27-.68-5.07-.68-.79.11-1.47.11-2.03.11h-1.35c-.9.11-1.13.79-1.13,2.7,0,2.48.34,6.54.45,7.89.34,1.92,1.35,7.21,1.35,12.28,0,2.71-.34,6.42-.34,9.02,0,.79.11,1.35.11,1.8.22,3.16.22,4.85.22,7.55,0,2.48.22,5.97.22,9.35,0,.79-.11,1.69-.11,3.94v9.01c0,.56-.45,5.3-.67,5.86,0,.56-.11.79-.11,1.01,0,.68-.11,1.13-.11,1.35v1.58c0,1.01,1.24,1.13,2.37,1.13h3.49c1.8,0,3.04-.22,3.04-2.82,0-2.25-.79-3.83-1.35-7.55,0-1.35.11-4.06.11-4.62,0-2.37-.45-5.07-.45-8.11,0-3.27-.45-5.41-.45-7.78s.11-3.04.11-3.61c0-2.03-.23-3.72-.34-6.99-.11-1.92-.45-3.94-.45-5.97,0-.68.11-1.35.23-2.14v-1.35c0-.68,0-1.47.45-1.47.9,0,2.59,2.25,3.61,3.49,1.91,2.25,3.16,4.84,4.28,6.31,1.13,1.58,4.62,5.07,6.76,7.32,2.14,2.37,2.71,4.28,5.07,7.1,1.92,2.59,4.28,3.83,6.2,5.86,3.61,3.49,6.42,7.55,8.68,9.58,2.03,2.14,3.94,4.84,5.86,5.97,2.14,1.13,4.62,6.76,6.42,7.55.34.11.67.22,1.13.22,1.58,0,3.27-.68,3.83-1.58.45-.56.56-2.37.56-4.06,0-1.47-.11-2.82-.23-3.49.11-2.37.11-4.39.11-6.31-.45-2.14-1.01-6.42-1.01-8.45,0-.9-.11-1.8-.11-2.71,0-3.61.34-7.1.34-10.7,0-2.37.22-4.73.22-7.66,0-2.48-.22-4.51-.22-6.65,0-3.83.79-6.87.79-9.69,0-5.3.67-10.48.67-12.28Z"/><path class="uuid-78a19265-c849-4a80-9357-43844250cf2c" d="M361.6,128.6c0-2.14.45-5.18.45-8.45v-4.28c0-3.27,0-5.52.45-7.21.11-.22.11-.45.11-.79,0-1.92-2.59-2.26-5.52-2.26-2.59,0-3.49.34-4.62.34-.45,0-.68-.11-1.01-.11s-.79-.11-1.35-.11c-1.24,0-2.48.23-3.61.23-.34,0-.68,0-.9-.11-.34-.11-1.01-.11-1.69-.11-1.69,0-3.61.23-3.94.9-.56.68-1.24,3.72-1.24,5.18.11,1.01.45,1.35,1.13,1.35.45,0,1.01-.23,1.91-.56.56-.34,3.61-1.13,7.89-1.13,1.69,0,3.94-.34,5.18-.34.23,0,.45.11.56.11s.67,1.35.67,3.61c0,1.01-.56,2.82-.56,4.06,0,.68.67,2.59.67,3.49,0,3.61-.34,7.1-.34,10.37,0,6.65-8.45,8.23-11.83,9.92-1.8.9-4.62,1.13-7.89,1.13-2.93,0-9.47-.9-10.37-1.91-.34-.45-.68-.45-1.13-.45-1.01,0-2.14,0-3.83-1.58-2.59-2.03-2.25-2.48-3.72-8.34-.79-3.16-.11-7.89-.9-12.4-.34-1.47-1.58-2.37-1.58-3.61,0-2.59,1.13-3.61,1.13-10.7v-4.06c0-4.17.22-9.35.9-12.62.9-4.06,1.35-2.7,3.16-6.08,1.8-3.27,3.38-2.82,6.54-4.62,2.48-1.58,7.66-1.8,10.37-1.8,1.58,0,2.48-.22,3.38-.22.56,0,1.13.11,1.8.56,1.91.11,2.93.68,4.73,1.24,1.69,0,4.39,1.58,5.64,2.82,1.01,1.35,2.7,2.59,3.49,3.49.9,1.01,1.8,1.47,2.48,1.47.45,0,.79-.22,1.24-.68.67-1.24,1.35-2.82,1.58-4.06,0-.11.11-1.13.11-1.58,0-.79-.11-1.47-.56-2.48-.56-1.58-12.28-3.83-13.18-3.94-1.13,0-1.92.34-2.93.34-.56,0-1.13-.11-1.8-.56-.79-.68-3.38-1.01-5.75-1.01s-4.73.34-5.75.68c-2.25.79-8.23.34-11.16,1.92-2.93,1.69-4.96,2.82-8.79,5.3-3.72,2.48-5.75,5.18-7.66,6.76-1.91,1.58-4.28,8.56-6.2,12.17-1.69,3.38-2.7,9.69-2.7,13.52,0,4.73,2.03,11.27,4.28,15.78,2.25,4.62,9.13,13.3,11.72,13.86,2.71.9,4.62,2.93,6.76,3.72,2.14.79,10.82,3.16,14.2,3.49.56.11,1.24.11,1.91.11,3.38,0,8.79-.56,10.93-1.01,2.71-.56,6.42-2.59,8-3.04.56-.11,2.59.23,3.94-1.01,3.04-2.59,6.87-3.72,6.87-5.18,0-1.69-.67-1.69-1.46-3.72-.22-.45-.22-5.07-.22-5.75Z"/><path class="uuid-78a19265-c849-4a80-9357-43844250cf2c" d="M430.65,94.33c-3.31-2.96-5.22-6.09-7.83-7.48-2.96-1.22-8.87-8-12.52-9.74-3.65-1.74-9.57-7.31-12.18-9.91-3.13-3.65-3.65-8.87-3.65-15.31.52-5.91,3.17-8.72,5.95-10.98.52-.52,6.61-2.26,7.31-2.26,2.09,0,4.52.87,7.13,1.74.17,0,.35.17.52.17,3.48,1.39,8.7,7.65,9.05,9.39.17,1.39,1.39,2.09,3.65,2.09s7.13-2.78,7.48-5.39c.17-.52.17-.87.17-1.22,0-1.74-1.04-1.91-2.61-4.35-1.74-3.13-8.7-4.52-11.13-6.44-2.26-1.57-16.53-1.74-19.83-1.74-7.83,0-8.62,2.12-12.8,4.21-4.35,2.26-8.52,6.26-11.65,10.26-2.61,4.17-5.57,7.48-6.26,12.7-.18.87-.18,1.57-.18,2.44,0,3.65,1.39,6.61,1.91,9.04.52,2.96,5.57,10.44,9.22,12.7,3.31,2.09,7.31,3.65,10.26,6.78,2.96,2.96,5.22,5.91,10.09,8.7,4.7,2.96,6.26,4.18,9.74,9.22,3.48,4.7,4.7,8.17,5.91,13.05.35,1.57.7,2.61.7,3.83,0,2.26-.87,3.83-2.26,6.44-2.44,5.57-6.78,8.52-11.65,9.39-1.39.35-2.96.35-4.35.35-8.7,0-12.7-2.78-16.18-6.96-1.39-1.39-3.48-5.57-3.83-6.78-1.39-4.52-1.04-6.09-4.35-6.09-2.61,0-8,5.22-8,8.17,0,4,5.74,8.52,8.52,10.44,3.83,3.83,12.35,7.48,17.74,7.48,1.22,0,4.35.17,7.65.17,2.61,0,5.22-.17,6.96-.52,3.83-.7,13.22-2.78,15.83-5.04,2.78-2.26,5.05-4.87,8.7-7.48,2.96-2.26,4.93-10.1,4.93-13.23,0-5.39.7-5.57.7-11.31s-4-12.53-8.87-16.53Z"/><path class="uuid-78a19265-c849-4a80-9357-43844250cf2c" d="M18.57,5.83c5.86-1.9,12.23-1.01,18.91,2.65,17.09,9.35,8.45,33.17,8.28,33.63-.45,2.59-1.33,5.08-2.04,7.04-.19.53-.37,1.03-.52,1.47-1.34,3.97-3.98,13.24-3.62,16.52.16,1.42.67,2.14,1.53,2.14h.02c2.05-.02,5.75-3.91,6.27-8.1-.8-1.97-1.18-2.98-1.34-4.71-.21-2.27.99-7.45,1.7-9.61,3.53-10.83,4.16-20.31,2.32-26.93C47.31,9.94,40.81,3.51,30.42,1.86,14.23-.79,5.39,8.91,3.84,17.14c-.07.51,0,1,.13,1.43,1.67-2.93,6.47-10.1,14.6-12.74Z"/><path class="uuid-78a19265-c849-4a80-9357-43844250cf2c" d="M7.19,33.23s-1.52.24-3.21,1.57c-1.12.89-1.88,2.03-2.29,2.72.13.35.32.71.57,1.08.66-.34,1.88-1.03,2.85-1.92,2.17-1.98,2.07-3.44,2.07-3.44Z"/><path class="uuid-78a19265-c849-4a80-9357-43844250cf2c" d="M106.68,34.14c0-1.04-.87-1.91-2.78-1.91-2.43,0-4.69,0-6.43-.17-1.39,0-3.65-.17-5.56-.17-2.78,0-2.78,1.22-2.78,2.61,0,2.43,1.74,5.39,1.74,8.86,0,1.39-.17,2.61-.69,4-1.56,3.65-1.91,10.94-4.52,16.85-2.43,5.73-4.17,8.51-4.86,14.42-.7,5.73-1.56,9.73-4.17,15.63-2.78,5.91-4.34,12.85-5.04,13.2-1.56,0-4.69-8.16-6.77-12.16-1.91-3.47-4.17-4.34-6.25-9.55-2.08-5.04-4.86-8.69-7.12-14.42l-1.64-4.15c-1.66,3.43-5.39,6.13-8.44,6.84-.56.13-1.1.2-1.59.2-1.24,0-2.26-.41-2.93-1.2-3.61-4.24-1.09-11.72,1.13-18.32.4-1.18.79-2.33,1.12-3.42.16-.52.36-1.1.57-1.74,1.43-4.28,3.6-10.74.82-13.84-1.01-1.13-2.08-1.65-3.2-1.56-1.82.16-3.36,1.89-4.05,2.8,1.09,2.52,1.09,7.07-2.76,14.7-1.15,2.16-2.06,4.18-2.81,6.1-.11-7.5-4.61-8.12-5.99-16.9-.56-4.11,1.49-7.61,3.31-9.83.28.95-.03,1.78-.62,2.52-.56.69-3.21,6.36-1.52,9.29.42.73,1.16,1.32,1.93.97,1.13-.51,2.52-1.06,3.19-1.47.54-.33.97-1.42.99-2.04.06-2.28-.65-6.82,1.86-5.89.61.22,1.31.73,1.89,1.57.88-1.08,2.5-2.67,4.5-2.85,1.45-.14,2.82.51,4.06,1.9,3.19,3.55.9,10.36-.61,14.86-.21.63-.4,1.21-.56,1.72-.34,1.1-.73,2.26-1.13,3.44-2.14,6.34-4.56,13.52-1.33,17.32.91,1.07,2.58.87,3.5.66,3.08-.72,6.91-3.65,8.11-7.24l-1.13-2.85c-1.16,3.94-4.56,7.37-6.96,7.4h-.02c-.84,0-2.27-.41-2.56-3.06-.41-3.74,2.58-13.75,3.66-16.97.15-.45.33-.95.52-1.49,1.62-4.52,4.33-12.08-.44-16.26-4.56-3.85-8.6-.06-8.77.11l-1.17.88-.29-.16c-1.31-.73-2.33-.86-3.02-.4-1.45.96-1.52,4.34-1.33,6.19l.02.15c.07.59.2,1.7-1.04,2.27l-1.77.94c-.6.24-.97.03-1.14-.12-.79-.65-.58-2.52-.39-3.58.3-1.64.99-3.14,1.59-4.46.47-1.03.92-2,1.12-2.9.17-.77-.1-1.7-.69-2.61-2.44,2.24-3.81,5.05-4.53,7.07-.91,2.57.47,9.56,2.56,12.88,4.11,6.55,3.66,10.62,2.56,12.88-.96,1.98-2.82,3.3-4.96,3.53-.37.03-.72.05-1.06.05-1.7,0-2.97-.42-3.81-1.27-.84-.84-1.19-2.04-1.05-3.57.14-1.5,1.72-2.78,3.16-3.16.13-.04.27,0,.36.09.1.09.14.23.12.36l-.15.78c-.02.08-.06.16-.12.22-.85.77-1.15,1.59-.84,2.3.38.87,1.63,1.39,3.03,1.26,1.21-.14,2.18-.8,2.72-1.85.59-1.16,1.16-3.86-1.68-8.88-2.35-4.17-3.88-9.15-4.53-14.8-.06-.51-.04-1.17.61-1.78,2.19-2.06,2.93-7.34,3.12-9.18-.95-.18-1.94-.11-2.85.39-3.01,1.66-6,6.87-7.6,9.67l-.12.21c-.47.82-1.73,2.84-3.22,3.72-.71.42-2.69,1.22-3.31,1.46.35.58,1.03.91,1.73.77l2.69-.54c.1-.02.21-.07.32-.13v.03c.58-.02,5.7-.23,6.56-2.35l.24-.58-.61-.12c-.68-.14-2.31-.66-3.23-.97l.36-.55c.11,0,.23,0,.37,0,1.03,0,2.79-.14,3.3-1.09l.25-.47-.5-.16c-.33-.11-1.17-.52-1.77-.82l1.87-2.86s1.89-3.47,4.34-4.01c-.15,2.05-.73,5.32-2.85,7.56-.46.46-.52,1.4-.46,1.74.47,2.5,1.28,8.46,3.49,12.89,2.38,4.78,4.21,7.78,2.6,10.7-1.08,1.95-5.41,1.32-3.76-.82.42,1.04,3,.35,2.31-2.19-.34-1.24-3.94-1.09-5.6.75-2.9,3.2-.58,8.26,4.05,8.26,1.89,0,4.4-.41,6.13-2.25-1.49,6.56-.62,11.01.55,13.13h0s5.38,9.99,5.38,9.99c2.61,5.39,5.56,8.69,6.77,13.38.52,4.17,4.69,9.03,5.39,12.68.87,3.3,2.95,7.47,5.38,11.81,2.08,4.34,3.82,7.82,3.82,10.25,0,2.08.17,7.12,3.65,9.38,1.74,1.22,4,1.91,5.56,1.91,2.26,0,3.82-.87,4.17-2.78.52-3.13,3.82-7.64,4.69-12.68,1.04-5.04,2.78-10.42,4.52-16.5,1.91-6.08,6.08-15.11,9.55-23.28,3.13-7.99,3.47-11.47,4.52-16.85,1.04-5.21,3.82-7.47,5.21-12.51,1.74-5.04,3.65-11.12,5.39-15.98,1.39-3.47,6.43-9.03,6.43-11.81ZM13.78,39.1c-.84.63-2.62.99-4.13,1.13l1.32-2.02c.64.21,1.88.62,2.81.88ZM14.37,35.6c-.47.19-1.2.27-1.88.29l.6-.92c.34.18.83.42,1.28.63Z"/><path class="uuid-78a19265-c849-4a80-9357-43844250cf2c" d="M24.98,28.21c-.35-.42-.77-.82-1.25-1.18-.57-.43-1.26-.81-2-1.06-.22,2.02-1,7.32-3.35,9.54-.38.35-.42.69-.37,1.13.65,5.55,2.14,10.44,4.44,14.51,2.23,3.95,2.83,7.37,1.69,9.61-.66,1.29-1.84,2.1-3.33,2.27-1.76.17-3.3-.53-3.83-1.72-.43-.98-.11-2.09.89-3.06-.96.46-1.86,1.34-1.94,2.25-.12,1.29.16,2.28.82,2.95.83.84,2.26,1.17,4.25.99,1.87-.2,3.49-1.36,4.34-3.1,1.43-2.95.54-7.26-2.52-12.13-2.22-3.54-3.63-10.76-2.64-13.56.75-2.12,2.2-5.08,4.8-7.44Z"/><path class="uuid-78a19265-c849-4a80-9357-43844250cf2c" d="M38.97,23.14c1.41-4.51.64-9.56-1.74-13.62-.08-.05-.15-.09-.24-.14-.69-.38-1.38-.72-2.06-1.04,2.38,3.7,2.68,8.5,1.38,12.67.99.86,1.87,1.55,2.66,2.12Z"/><path class="uuid-78a19265-c849-4a80-9357-43844250cf2c" d="M9.49,35.52l.12-.21c1.65-2.89,4.73-8.26,8-10.06,1.21-.67,2.52-.73,3.73-.45l.34.09c.99.28,1.92.76,2.67,1.32,2.06,1.55,3.18,3.75,2.79,5.48-.23,1-.7,2.02-1.19,3.1-.61,1.33-1.24,2.7-1.52,4.21-.29,1.59-.12,2.47.04,2.6l1.78-.95c.53-.25.55-.56.47-1.22l-.02-.17c-.09-.93-.45-5.68,1.8-7.16.98-.65,2.25-.58,3.8.2l.59-.44s4.82-4.58,10.11-.1c1.88,1.64,2.72,3.71,2.96,5.9,1.59-6.88,3.09-20.65-7.82-27.58,2.32,4.11,3.04,9.12,1.68,13.67,2.97,1.97,4.32,1.9,4.59,1.86.88-.14.25-1.23.25-1.23,0,0-1.39.66-2.26-.16-.87-.82-.65-1.67-.26-2.08.49-.51,1.56-.82,2.56.37,1.36,1.62,1.34,3.73.19,4.1-.55.18-6.09.94-16.15-7.82-5.44-4.5-9.89-4.63-13.56-2.21-3.06,2.01-2.45,5.18-2.01,6.99.08.33-.02.67-.26.91l-3.37,3.7c-.46.46-1.34.36-1.53-.27-2.38-7.8.64-13.01,6.02-16.36,5.57-3.47,12.61-.26,17.03,4.42,1.65,1.75,3.12,3.18,4.43,4.35,1.32-4.06,1.03-8.77-1.4-12.33-5.36-2.3-10.46-2.7-15.19-1.16-8.45,2.74-13.29,10.88-14.41,12.97,0,0,0,0,0,0,0,0,0,.01-.01.02-.1.18-.16.29-.19.37-.19.51-.46,1.63-.52,4.04-.04,1.7.98,4.5.42,5.92-.52,1.34-2.99,3.6-2.76,6.28.33-.67.94-1.61,2.13-2.55,1.54-1.22,3.28-1.54,4.2-1.62.37-.03.67.28.62.65-.12.92-.63,2.66-2.6,4.45-1.37,1.18-2.44,1.64-3.1,1.83.27.34.49.72.69,1.11.42-.17,2.57-1.02,3.25-1.42,1.27-.76,2.41-2.59,2.85-3.34ZM16.76,17.1c1.74-.73,3.61-.18,4.18,1.24s-.38,3.15-2.11,3.88-3.61.18-4.18-1.24.38-3.15,2.11-3.88Z"/><path class="uuid-78a19265-c849-4a80-9357-43844250cf2c" d="M18.47,21.33c1.14-.48,1.76-1.61,1.38-2.54-.37-.92-1.6-1.29-2.73-.81-1.14.48-1.76,1.61-1.38,2.54.37.92,1.6,1.29,2.73.81Z"/><ellipse class="uuid-78a19265-c849-4a80-9357-43844250cf2c" cx="9.8" cy="23.84" rx="1.8" ry="1.83"/><ellipse class="uuid-78a19265-c849-4a80-9357-43844250cf2c" cx="10.61" cy="18.6" rx="1.46" ry="1.49"/><ellipse class="uuid-78a19265-c849-4a80-9357-43844250cf2c" cx="13.37" cy="14.83" rx="1.29" ry="1.31"/><path class="uuid-78a19265-c849-4a80-9357-43844250cf2c" d="M16.45,12.92c0,.7.56,1.28,1.25,1.28s1.25-.57,1.25-1.28-.56-1.28-1.25-1.28-1.25.57-1.25,1.28Z"/><path class="uuid-78a19265-c849-4a80-9357-43844250cf2c" d="M21.26,13.1c0,.67.53,1.21,1.19,1.21s1.19-.54,1.19-1.21-.53-1.21-1.19-1.21-1.19.54-1.19,1.21Z"/><ellipse class="uuid-78a19265-c849-4a80-9357-43844250cf2c" cx="26.8" cy="15.07" rx="1.05" ry="1.07"/><ellipse class="uuid-78a19265-c849-4a80-9357-43844250cf2c" cx="30.12" cy="17.64" rx="1.05" ry="1.07"/><path class="uuid-78a19265-c849-4a80-9357-43844250cf2c" d="M32.05,20.09c0,.5.4.9.88.9s.88-.4.88-.9-.4-.9-.88-.9-.88.4-.88.9Z"/></svg>