<?xml version="1.0" encoding="UTF-8"?>
<svg id="Layer_1_xA0_Image" xmlns="http://www.w3.org/2000/svg" baseProfile="tiny" version="1.2" viewBox="0 0 82.19966 50.80418">
  <!-- Generator: Adobe Illustrator 29.6.1, SVG Export Plug-In . SVG Version: 2.1.1 Build 9)  -->
  <path d="M18.18966,29.36377c.33855-.16521.60116-.43217,1.03143-.01077.45395.44459,1.18553.30924,1.69977.15212.45374-.13864.97247-.61984,1.03172-1.16213.07254-.6639-.64576-.44243-.9876-.57068-1.758-.65955-3.47066-1.47318-5.35017-1.76295-.91518-.1411-1.31588-.98741-1.93202-1.50539-.43594-.36649-.0848-1.00003.50462-1.15729.72556-.19359,1.44802-.18445,2.14513.24892,1.16491.72419,2.4818.69661,3.7933.64878.27475-.01002.48347-.09471.50967-.37788.03375-.36483-.29706-.40635-.53319-.53365-3.07776-1.65924-6.4292-1.87708-9.81858-1.8424-.96217.00985-1.79193-.15573-2.66613-.64984-1.48899-.84158-3.22018-.77744-4.88382-.83421-1.81358-.06189-2.03779-.17225-2.32121-1.96677-.14909-.94398-.75354-1.88052-.1493-2.88349.20587-.34172.29822-.72729.83022-.69645.45217.02622.71964-.2936.8909-.67797.66524-1.49304,1.38342-1.76949,2.89134-1.08533.3219.14605.62336.33736,1.04242.56715-.0765-1.37647.05537-2.65299-1.63157-3.13484-.75243-.21492-1.63946-2.44456-1.46221-3.17943.19119-.7927,1.54997-1.236,2.38118-.69724.34752.22525.64637.53367,1.02608.27566.40861-.27765.1007-.69246-.05334-.95867-.53256-.92036-.35522-1.92849-.46468-2.90313-.16913-1.50597.75542-2.28684,2.24667-1.99903.73319.1415,1.47007.21326,2.23762-.32631,1.29696-.91173,3.29479.12471,3.41098,1.71576.07521,1.02991.95787,1.32699,1.52918,1.8119.81368.69062.89819,1.38452.55973,2.24211-.26279.66585-.14378,1.07012.59249,1.2133.93019.18088,1.79832.36482,2.74813-.17976,1.46256-.83857,2.49281-.11597,2.74061,1.76073.04309.32631-.16793.79375.32309.9128.48736.11816.94383-.05385,1.31759-.40336.02861-.02676.05315-.06094.07069-.09612.47988-.96283,1.35888-1.4594,2.21837-.89673.94737.62019-.20349,1.32902-.31353,2.02073.03753.06041.06702.16585.11402.17439,2.03533.36967,1.94865.4148,1.23218,2.49311-.13281.38526-.05265.65871.1123,1.00029.94794,1.96309.16012,3.2284-1.94506,3.17015-.43562-.01206-.87186-.00175-1.35648-.00175.71046,1.25458,3.24119,1.65294,4.32575.65006.60544-.55984,1.26204-1.01287,1.95227-.66248.78866.40035.13009,1.20296.10388,1.9327.75712-.43375,1.17431-.94851,1.40296-1.77276.45879-1.65388,1.56726-2.12686,2.76835-1.31501.70359-1.27706.96471-2.71754,1.49545-4.05844.42414-1.07158,1.06353-1.09001,1.97972-.7458,1.0108.37976,1.04053,1.30784.72257,1.91041-.90156,1.7086.08396,3.07288.5399,4.54768.08942.28925.34914.27649.59184.27254.36624-.00596.43181-.26184.49944-.55282.30043-1.29254.26875-2.62815.64171-3.92411.54745-1.90226,2.34988-2.92159,4.25338-2.24341.19473.06938.41619.10475.41254.34614-.01703,1.12661.88207,1.19375,1.61973,1.35409.97143.21116,1.83952.66416,2.68663,1.11883.77197.41434.79755,1.37806.97124,2.12672.19013.81947.16544,1.709.11031,2.55992-.05344.82483.48751,1.30158,1.04321,1.32736.57581.02671.53722-.73481.61037-1.23932.10871-.74975.07282-1.44953-.18985-2.19137-.38998-1.10138.39915-1.87056,1.08212-2.53089,1.15723-1.11886,1.15457-1.05673,1.7452.54822.22711.61714.88122,1.04136,1.49642,1.14139,1.10564.17977,1.95188.76031,1.9795,1.85152.04117,1.62729.74771,3.13487.73876,4.75883-.00134.24435.02911.56095.32409.50047.20919-.04289.55544-.0766.59523-.46946.17221-1.70036,1.30275-2.97919,1.98672-4.45489.27544-.59428.72602-.67223,1.21173-.24852.58026.50619,1.33384.80102,1.61426,1.66507.23141.71302,1.05095.71363,1.57179.56514.5721-.1631.33187-.77582.16923-1.23345-.18551-.52199-.3788-1.04348-.52055-1.57802-.095-.35827-.04919-.74187.27796-.98022.33427-.24354.53384.10868.80701.21406,1.24033.47848,2.01199,1.58904,3.1284,2.25023.5985.35446,1.05278,1.17463.48496,2.05376-.19869.30762-.26545.70084-.4099,1.1036,1.77831-.43866,3.67205-.63776,4.92064-1.78772,1.77582-1.63552,3.79119-1.46448,5.84442-1.53361.40387-.0136.95042-.14921,1.01942.51633.05687.54857.15167,1.132-.56023,1.38828-.46909.16887-.92546.37297-1.3929.54676-1.78251.66272-2.69779,2.55898-4.51871,3.18433-.30991.10643-.33828.53728-.26328.85926.16077.69016.38553,1.36477.21755,2.09281-.08019.3475.21203.3952.44154.3924.69571-.00851,1.01525.57372.89183.99329-.41147,1.39875.93041,2.62124.19806,4.10975-.37039.75282.25361,1.80474.30455,2.75171.03309.6149-.04941,1.11694-.39391,1.53897-.2495.30565-.45521.65166-.35835.9583.30766.97399-.0995,1.51753-1.02767,1.81107,1.56294,1.20984,1.71858,1.51772,1.1507,3.25008-.42113,1.28468-.0543,2.67405-.65784,3.92893-.16878.35092-.09782.79853-.66815.77749-.49534-.01827-.96444-.04483-1.09471-.6716-.17683-.8507-.51839-1.15527-1.24929-.40298-.25876.26633-.55867.06914-.85636-.1129-2.19568-1.34266-4.67187-1.06716-6.41737.7242-.31234.32056-.62678.45734-1.04701.419-.06627-.47996.17606-.94497.52217-1.08362.91132-.36504,1.53822-1.12064,2.3796-1.56195.46731-.11734.93463-.23469,1.40194-.35204.41183.09534.81066.02538,1.20554-.09509,1.18186-.20512,2.00616,1.54102,3.37956.60252.20206-.13808.72681.38997,1.02654.72405.20575.22932.22517.61046.57994.71813.3163-.32324.25722-.73806.30368-1.13083.10296-.8702.10387-1.75513.38515-2.60042q.52309-1.57198-1.10522-2.18034c-.48008-.18009-1.09154-.29917-1.07258-.95358.02137-.73788.71159-.86739,1.2292-.88832.91945-.03718.97903-.51004.74771-1.17435-.16248-.46661-.21275-.89272.25611-1.15473.62586-.34973.59641-.92584.53149-1.4664-.14547-1.21135-.61266-2.39748-.06262-3.63937.09429-.21289-.14173-.60324-.28316-.88206-.14418-.28422-.45153-.57735-.33869-.86793.49796-1.28225-.31539-1.2265-1.1512-1.22494-.41574.00078-.80268-.15378-.95501-.5891-.10547-.30137.05458-.6068.30339-.71748.93725-.41691.69222-1.09045.47484-1.80182-.25587-.83729-.23494-1.74012.73003-1.97817,1.06467-.26265,1.68708-.97064,2.40776-1.65278.7215-.68292,1.498-1.29792,2.53502-1.50189.32634-.06419.81427-.08483.94067-.6368-1.75532-.14817-3.59881-.24866-4.98889.78691-1.61456,1.20281-3.48108,1.66786-5.22526,2.47809-.43925.20405-.95674.27764-1.34834-.10072-.35116-.33928-.30177-.81872-.17266-1.24528.0909-.30035.24739-.59699.43743-.84737.33628-.44304.26585-.81381-.11979-1.15355-.8371-.73746-1.70061-1.43962-2.82172-2.09401.3115,1.22973,1.06824,2.25227.25469,3.35226-.47509.41221-.91302.98818-1.622.36982-.99612-.2941-1.3878-1.20054-1.97107-1.92352-.4647-.57601-.81707-.78964-1.35515.11173-.93733,1.57019-1.30174,3.40447-2.38434,4.88924-.72073.20548-1.46525.00075-1.50959-.71794-.10152-1.64533-.72117-3.20982-.72652-4.83441-.00403-1.22238-.47095-1.8367-1.56918-2.18498-.94652-.30017-1.88952-.6673-2.14451-1.87146-.82579.69597-1.34234,1.4379-1.01641,2.37981.4558,1.31723.11619,2.51209-.28558,3.73547-.15245.46426-.40211.76699-.91328.80644-.50356.03886-.76051-.23236-1.04288-.63002-.74847-1.05405-1.08407-2.19036-.9503-3.47167.08092-.42597.12365-.84674-.16589-1.22219-.03708-.15452-.07418-.30904-.11127-.46356-.21196-1.05631-1.06296-1.24148-1.92277-1.48979-.99668-.28784-2.19089-.29661-2.79371-1.30579-.3044-.5096-.43997-.93626-1.16933-.86337-.77715.07766-1.51259.1039-1.86206.96643-.40375.99653-.75577,2.01153-.78676,3.09484-.02173.7598-.04966,1.50576-.37792,2.20706-.36304.23739-.72639.47476-1.08974.71212-.15603-.0187-.31205-.03741-.46807-.05611-.05111-.0547-.11346-.07538-.18703-.06203-.64696-.42826-.93018-1.12617-1.2991-1.76055-.13179-1.47461-.60737-2.94337.02944-4.42669.14053-.32733-.19473-.59317-.4973-.72373-.44355-.19138-.55828.20853-.67277.47434-.64754,1.50338-1.16001,3.05267-1.48762,4.65991-.15334.22977-.30559.46028-.46031.68912-.19949.29506-.09414.90038-.69487.78859-.53801-.10012-.41106-.58214-.46107-.96788-.04263-.32878.15232-.85094-.2839-.93034-.44469-.08094-.60555.43357-.78153.77589-.14428.28065-.17382.62951-.34725.88459-.70402,1.03547-1.06828,2.51416-2.80465,2.2769l-.02107-.00113c-.07654-.14006-.15308-.28013-.22962-.42019.03187-.5448.06373-1.0896.09559-1.6344-.01891-.05683-.03782-.11366-.05672-.17049-.07622.04398-.15243.08796-.22865.13194-.89167.1003-1.45848.90752-2.32088,1.07151-.84187-.11615-1.46079-.91076-2.38174-.78633-.55431-.32332-1.1086-.64663-1.6629-.96994l-.11426-.50495.44624-.88273c.12732-.04629.25464-.09258.38196-.13886l.10916.0165.10514-.03372c.16165-.00001.3233-.00003.48495-.00005.30461.0709.60922.1418.91383.2127.06877.16929.20805.49061.33997.32411.44207-.55797,1.6963-.44571,1.37236-1.63193-.06867-.83446-.7797-1.5819-.31268-2.49428.16856-.3293.56007-.74652.22141-1.0508-.32713-.29393-.81318-.04742-1.20168.15191-.11496-.03935-.22993-.0787-.34489-.11806-.2591-.12362-.44355-.32036-.56463-.57916.02559-.07408.02258-.14697-.00902-.21867.01877-.32097.37182-.61546.06646-1.00089-.48143.27219-.95445.53962-1.42748.80706-.4855-.0563-.971-.1126-1.4565-.16891,0,0-.07766-.02873-.0777-.02862-.00004.00011-.01075-.00123-.01075-.00123l.0084-.07672c-.05168-.16798-.10335-.33595-.15503-.50393-.43514-2.60842-.56754-2.70028-2.16709-1.50357-.38557.05319-.77115.10632-1.15673.15945-.32358-.02761-.64716-.05522-.97073-.08283-.54774-.20009-1.09547-.40018-1.6432-.60027-.53436-.59323-.35932-1.24886-.16153-1.90299.22504-.74429.00538-1.31551-.63904-1.74042-.3942-.25992-.77741-.53659-1.16555-.80574-.13326-.37261-.38296-.74651-.37889-1.11761.01472-1.34235-.93936-1.49234-1.77375-1.22465-1.21421.38955-2.3935.45127-3.63115.3731-.67518-.04265-1.08839.23258-.72127,1.02242.09685.20836.08341.46822.12062.70443-.04187.2325-.08374.465-.12561.6975-.17933.18251-.21263.35658.02965.5147l.32469.31882c.06735.04947.13469.09894.20204.14841.05136.18168.05359.39618.29833.44868.00776.18489.01553.36978.0233.55467-.56072.62042.08005.78863.40324,1.07637.17152.41842.57817.60266.90281.84761.40233.30357.88391.507.73739,1.14678-.07826.07527-.15652.15054-.23477.2258-.51263.02081-.88288-.30193-1.30037-.52442-1.04068-.55461-2.02161-1.25395-3.17492-1.55254-.93323-.24161-1.25071.14366-.9744,1.06447.24618.82041.81901,1.32912,1.57769,1.67681.63035.28888,1.35506.53378.93208,1.51182-.04627.10698.17839.33168.27738.50177-.0204.35258.13623.60056.44586.75815l-.00795.0233c.04936.15048.09372.30284.14903.4511.16822.45095.37904.94911-.01309,1.33748-.42976.42565-.8861.03909-1.31406-.12986-.29424-.11616-.58303-.24618-.87426-.37-1.63579-1.23733-1.99934-1.12283-2.57012.81251-.02175.07375-.01811.15503-.0263.23279-.03285.12809-.0657.25617-.09855.38426-1.90114.11882-1.47395.34778-1.2478,1.92505.02819.19662.06719.39188.10666.58665.1822.89902.62313,1.32189,1.64256,1.23338,1.81203-.15731,3.56386.24992,5.1875,1.05942.48677.24269.94279.34804,1.45687.34383.96632.28666,1.94735.07475,2.92148.08925.23987.14756.48979.07437.73822.03378l.48804.03113c1.79644.24005,3.62367.35647,5.24205,1.31152.17357.30371.47765.17079.72773.21851.39278.758,1.12271.37979,1.70252.50807.46387.10263,1.0191.1439,1.10109.7342.07426.53467-.13642.90541-.70877,1.19842-1.64112.84017-3.23052.45693-4.84068-.00181-.63364-.18053-1.24091-.57793-2.09553-.29407.56076.63166,1.12735.89543,1.74271,1.0511,2.00806.508,3.88953,1.37362,5.83861,2.04705.89614.30962.99718.80491.47374,1.52814-.92206,1.27401-2.17426,1.64483-3.67021,1.35349-.25573-.37555-1.12777-.13006-.94764-.94479ZM24.62214,9.41982c-.07216.0683-.14524.13575-.21288.2083-.00251.00269.04811.05513.07398.0844.07172-.06983.14345-.13966.2133-.21162.10668-.05091.19523-.10881.0578-.21845-.00471-.00376-.08639.0894-.1322.13738Z" fill="#4c281a"/>
  <path d="M55.07989,50.01926c-.15771.78768-.79406.86921-1.3542.72879-1.08733-.27257-2.2347-.37004-3.1934-1.09446-.57115-.43158-1.31474-.50937-2.02594-.61541-2.26648-.33795-3.7831-1.65075-5.05013-3.53622-.58708-.87362-1.35984-1.82919-2.53268-2.20577-1.14022-.36612-2.09705-1.2619-3.41434-1.13497-.56997.05492-1.05646-.06824-1.01844.86646.03232.79451-.75728,1.12898-1.48224,1.19665-2.24165.20925-4.48974.34887-6.7318.55426-2.16844.19864-4.36459.37158-6.51267.34793-1.76489-.01943-3.70649-.52406-5.03346-2.05379-.54732-.63096-.31373-1.38471.52113-1.46656.79944-.07837,1.01226-.31545.81717-1.1162-.16909-.69403.12808-1.44363.82432-1.60639.81756-.19112,1.80848-.67113,2.44091.50912.63181,1.17911,1.38837,1.4479,2.65313,1.11029.49579-.13234.99783-.24755,1.50312-.33532.28577-.04964.6424-.06094.54075-.44306-.24416-.91785.40061-1.02443.99781-1.23209.5531-.19232,1.35442-.47948,1.10432-1.10742-.27241-.68396-1.11636-.43176-1.68264-.15802-.70508.34084-1.32211.49793-1.95431-.12363-.4655-.45767-1.12718-.77399-.52662-1.62155.34377-.48515-.09224-.8113-.51498-.76066-2.17589.26067-4.28213-.59091-6.44652-.36545-1.79922.18742-3.39593-.71141-5.12245-.92862-1.32391-.16656-2.69583-.30123-3.92553-.76918-1.21221-.46129-2.61916-.75281-3.32784-2.13558-.45177-.8815-.10627-1.74888.87812-1.93312,1.1041-.20666,2.23107-.18476,3.28063.08177,1.58462.40241,3.05198-.20063,4.57505-.25916,1.43292-.05506,2.87515-.77585,4.29454.09921.24182.14908.5241.21179.47796.5781-.21449.0664-.41984.32981-.64287.17355-1.03436-.72468-2.09826-.25942-3.15563-.11984-.16102.01211-.32205.02422-.48307.03632-.31855.04947-.63709.09894-.95564.14841-.50204-.01357-.98566.06371-1.43843.29308-1.32424.39839-2.57508-.07908-3.8619-.26769-.76466-.11208-2.01366-.39178-2.18195.51014-.14182.76007.95179,1.38914,1.80515,1.62054,1.39504.37831,2.82253.63641,4.23633.94522,1.79574.51891,3.60707.97127,5.49068.95992,2.33562-.01408,4.61585.64354,6.95597.54646.3522.46548,1.30961.37447,1.17451,1.28923-.20782,1.40703-.09546,1.49675,1.27216,1.05296.30003-.09736.60848-.16865.91305-.25196.84062.09208,1.75137.152,1.89526,1.23139.1181.88593-.46704,1.49906-1.23252,1.66936-1.03436.23011-1.21271.83481-1.11084,1.71199-.17538.14354-.35075.28709-.52612.43063-.56327.03566-1.14088-.01011-1.65702.29318-.27434-.03779-.53883-.04194-.7273.21378-.16351.03876-.32702.07752-.49053.11627-.0927.04096-.18541.08192-.27811.12288-.04641-.03348-.09403-.03531-.14286-.00548-.97169-.26954-1.68298-.85243-2.15746-1.74797-.32822-.61949-.8771-.57872-1.45044-.42521-.57792.15474-.61221.6042-.50295,1.04644.28448,1.15142-.04908,1.83513-1.38015,1.79583.3906.80684.9569,1.05356,1.68924,1.10369.50943.03487,1.19625.0199,1.47832.32729.66747.72738,1.31973.54957,2.05041.29945.31573-.00954.63149-.0191.94726-.02865.58732.00476,1.18344.10514,1.74576-.16149l.08881.02297.08506-.03438c.40086-.01095.80172-.0219,1.20258-.03285.4747-.02726.9494-.05453,1.42409-.08179.18687.05056.36747.07234.50343-.11039.48355-.05892.9671-.11784,1.45065-.17676.08722-.02364.17445-.04728.26167-.07091l.09704.01466.0894-.04058c1.33467.09823,2.65465-.12826,3.98131-.17156.8775-.02863,1.1907-.40869,1.14233-1.21956.35381-.62777.92681-.76678,1.59459-.76749,1.03005-.00109,1.99924.30816,2.98757.52445.37173.35177.80059.61026,1.27942.78714.73156.59757,1.46312,1.19513,2.19469,1.7927,1.07998,2.51599,3.37733,3.55203,5.7171,4.11522,1.86426.44873,3.52555,1.71973,5.56321,1.44947Z" fill="#4c281a"/>
  <path d="M55.07989,50.01926c-2.03766.27026-3.69895-1.00074-5.56321-1.44947-2.33977-.5632-4.63712-1.59923-5.71709-4.11521.93226-.52239,1.56176-.26102,1.90573.73956.0973.41518-.26529,1.04287.45338,1.16967.4123.07274.89987.16823,1.24923-.17879.5056-.50219-.58359-.43451-.28369-.97386,1.31553.23921,2.74735.98539,4.16649-.32923-.96104-.14976-1.69383.68098-2.44025.15719-.47297-.33191-.95694-.32206-1.4686-.32498-.11962-.25991-.61397-.35346-.3776-.76272.16958-.29362.5221-.25668.74893-.16212.82351.34331,1.43968.00849,2.02357-.51661.31806-.05591.54469-.67183.90643-.2641.47856.53943,1.18319.41726,1.72045.7393.4103.75468-.12652,1.82977-.87518,2.05042-.52596.15502-1.15751-.07845-1.599.45364,1.09221-.10703,2.16435.69502,3.27941-.11895.33014-.24101,1.28776-.25881,1.38955-.07042.69075,1.27843,1.06204.07546,1.5842-.01732-.09708-.30966-.2322-.30623-.4026-.25919-.51322.14168-.94326-.29282-1.06057-.54304-.19159-.40864.30989-.63357.69156-.77766.43976-.16603.5301-.55316.59375-.95555.30738.04563.67427-.00079.91156.1533.88969.57773,1.60459.42333,2.28331-.34678.73218-.83077,1.72438-1.12535,2.78448-1.24412.08151.00111.16297.00219.24443.00327-.00544.52979-.47979.9915-.28144,1.71188.232-.33605.3756-.54406.51922-.75208.09165.52719.45814.68015.92693.65161.18417-.01121.26593-.205.20751-.34686-.20554-.49915-.66664-.23319-1.01663-.305-.03726-.00764-.07736-.00129-.11615-.00144.00805-.39304.38189-.69846.58371-.60357.76792.36109,1.54197-.10766,2.28717.12367.13072.28915.33326.64292-.13701.76333-.65437.16755-1.13669.5817-1.86648,1.05752,1.56208.51318,3.14144-.36899,4.42582.58998-.84138.44131-1.46829,1.19691-2.3796,1.56195-.34611.13865-.58844.60367-.52217,1.08362-.00003-.00007.01698-.0236.01701-.02356-.26368.18074-.55846.12887-.80345.0171-1.27757-.58283-2.65615-.49852-3.99699-.60214-1.85716-.14354-4.41158,1.51034-4.68466,2.9388-.10381.02632-.20764.05264-.31145.07897ZM55.15202,47.10183c-.37487.28297-.60102.48077-.40623.89524.35837-.15745.47605-.39046.40623-.89524Z" fill="#dabc85"/>
  <path d="M14.34015,29.14293c1.05738-.13959,2.12127-.60484,3.15563.11984.22303.15626.42838-.10715.64287-.17355.01684.09159.0337.18313.05079.27462-.17991.81467.69213.56919.94786.94474-.15998.2114-.44586.61685-.46191.60639-.87269-.5688-1.92091.23364-2.75081-.25928-.03108-.41697.55352-.27732.41579-.70477-1.07938-.43898-1.31717.344-1.471,1.09998-.1182.58088-.28371,1.03996-.9606.92485-.61885-.10524-1.26353-.33412-1.61985-.8534-.31992-.46622.30907-.73159.48363-1.10257.09662-.20533.08933-.45979.12888-.6921.31855-.04947.63709-.09894.95565-.14842-.04539.48633.18502,1.07377-.4736,1.33754-.22108.08854-.50759.14624-.33292.46887.1752.32361.44527.21405.71936.09158.95293-.42577.66584-1.20568.57023-1.93431Z" fill="#dabc85"/>
  <path d="M55.39134,49.94029c.27308-1.42846,2.8275-3.08234,4.68466-2.9388,1.34084.10363,2.71942.01931,3.99699.60214.24499.11177.53978.16365.80345-.0171-.20541.35032.38143.73727.10902.91629-.38721.25445-.88421.13452-1.34541-.08445-1.67122-.79342-3.49644-.85801-5.16197-.32363-.86783.27844-1.81803,1.00039-2.43877,1.86071-.28667.39731-.43763.15115-.64797-.01516Z" fill="#4c281a"/>
  <path d="M67.76121,44.96453c-1.28438-.95897-2.86375-.0768-4.42582-.58998.72979-.47583,1.21211-.88997,1.86648-1.05752.47027-.12041.26773-.47418.13703-.76332.41998.04461.83946-.0799,1.24216.25987.42121.35539,1.14833.71027,1.42173.07585.2011-.46664-.19207-1.16504-.90892-1.3946-.61158-.19586-1.13754-.55295-1.51117-1.09892.12463-.31905.36881-.47078.69917-.50189.12553.49479.44401.83675.9218.95399.33584.08242.79742.08301.88246-.34563.08059-.40621-.30536-.48757-.63172-.43431-.33674.05494-.40585-.12947-.43997-.38621.07946-.0045.15888-.00972.23825-.01563.16177,0,.32354,0,.48531,0,.72184-.25913,1.8063.06599,1.90921-1.19041.0008-.24059.0016-.48117.0024-.72175-.04151-.51604.17887-.77535.71121-.72881.5423.7365,1.32997.30296,2.0026.40085.16731.02435.34065-.20667.30519-.43269-.04225-.26931-.26382-.34401-.49771-.42769-.36805-.13166-.73694.42496-1.08768-.01974-1.32564-.729-1.17045-.74559-.38137-1.98339.34279-.53772,1.08966-.84923,1.09662-1.60578.00655-.39817.01309-.79635.01964-1.19453.08162-.64777-.42278-.41998-.72812-.4896-.01078-.26406.04026-.54815-.23442-.72668-.27473-.93688-.92988-1.81035-.47608-2.8687,1.17221.75352,1.67969-.95201,2.73955-.65481-.94074-.6184-1.84285.08614-2.74905-.06727-.06713-.44728.87288-.75117.26177-1.20623-.43137-.32122-.60635.33632-.9117.52655-.74977.46712-1.87561.22659-2.34702-.52575-.63443-1.0125-1.3143-1.1633-2.2627-.50147-.34268.23913-.73137.24976-1.13257.27351-1.38373.08193-1.59612.3737-1.27474,1.66764-.36914.23463-.77574.27406-1.19816.2309-.20623-.42932.7498-.4776.37637-.7024-1.09027-.65632-.37606-.83208.17749-1.19358.39999-.26123.71168-.6583,1.1847-1.11167-.76658-.09111-1.242.18457-1.73413.38497-.03145-1.4974-.81434-.75052-1.43665-.48326-.04824-.06128-.10126-.11807-.15908-.17036,1.08323-1.48441,1.44764-3.3187,2.38497-4.88889.53807-.90137.89045-.68773,1.35515-.11173.58327.72299.97495,1.62942,1.97105,1.92373-.1962.75371.33897.82414.85475.94995.53759.13113,1.27011.39348,1.54061-.04659.34474-.56087-.43065-.88122-.77334-1.27339.81355-1.09999.05681-2.12253-.25469-3.35226,1.1211.65439,1.98462,1.35655,2.82172,2.09401.38564.33974.45607.71051.11979,1.15355-.19004.25038-.34653.54702-.43743.84737-.12911.42656-.1785.906.17266,1.24528.3916.37836.90909.30477,1.34834.10072,1.74418-.81023,3.61069-1.27528,5.22526-2.47809,1.39008-1.03557,3.23356-.93508,4.98889-.78691-.1264.55197-.61433.57261-.94067.6368-1.03702.20397-1.81352.81897-2.53502,1.50189-.72068.68214-1.34309,1.39013-2.40776,1.65278-.96497.23805-.98589,1.14087-.73003,1.97817.21738.71137.46241,1.38491-.47484,1.80182-.24881.11068-.40887.41611-.30339.71748.15234.43532.53927.58987.95501.5891.83581-.00156,1.64916-.05732,1.1512,1.22494-.11285.29058.19451.58371.33869.86793.14143.27881.37745.66917.28316.88206-.55004,1.24189-.08285,2.42802.06262,3.63937.06492.54055.09437,1.11667-.53149,1.4664-.46886.26201-.41858.68811-.25611,1.15473.23131.66431.17174,1.13717-.74771,1.17435-.51761.02093-1.20783.15044-1.2292.88832-.01896.65442.5925.77349,1.07258.95358q1.62366.60909,1.10522,2.18034c-.28129.84529-.28219,1.73022-.38515,2.60042-.04647.39277.01262.80759-.30368,1.13083-.35477-.10768-.37419-.48881-.57994-.71813-.29973-.33408-.82448-.86213-1.02654-.72405-1.3734.9385-2.1977-.80765-3.37959-.60264-.12941-.78551-.81506-.61906-1.26025-.60183-.26399.01021.09901.44409.05474.69704-.46731.11735-.93463.23469-1.40194.35204ZM70.66492,35.30801c.94916.85863,1.86876.68284,3.13381-.52506-1.04899-.07809-2.01661.35635-3.13381.52506ZM72.36995,42.38014c-.20434-.0363-.39914-.03596-.56324-.10695-.40365-.17461-.78131-.17929-1.05984.18267-.10012.13011-.15475.46198-.07513.53741.51645.48933.3353-.50805.70108-.35751.37536.15448.77269.52173.99713-.25563ZM72.47589,43.89785c-.13017-.54658-.36216-.70176-.8024-.47997.0652.41471.34601.47785.8024.47997ZM68.83978,21.36938c-.06607-.02881-.14685-.09479-.19408-.07601-.04769.01896-.0621.12198-.0911.18817.06588.02887.14669.09506.19346.07623.04799-.01931.06268-.12173.09172-.1884ZM74.82643,35.04947c-.06628-.02889-.14709-.09493-.19477-.07621-.04766.01871-.06218.12221-.09123.18854.06609.02897.14696.09527.19417.07651.04797-.01905.06275-.122.09183-.18884ZM65.72658,43.82125c.01181-.0337.03187-.06764.03085-.10094-.00035-.01126-.05404-.02088-.08335-.03125-.01178.03368-.03187.06764-.03076.10089.00038.01135.05399.02092.08327.0313ZM72.59003,31.8468c-.03382-.01175-.0679-.03177-.10129-.03067-.01138.00038-.02101.0539-.03143.08314.03382.01177.06789.03179.1013.03071.01136-.00037.02099-.05393.03142-.08318Z" fill="#dbbf8a"/>
  <path d="M12.90144,29.32766c-.03955.23231-.03227.48676-.12888.6921-.17457.37098-.80355.63635-.48363,1.10257.35632.51928,1.00101.74816,1.61985.8534.67689.11511.84239-.34397.9606-.92485.15383-.75598.39161-1.53896,1.471-1.09998.13773.42746-.44687.28781-.41579.70477.8299.49292,1.87812-.30952,2.75081.25928.01605.01046.30193-.39499.46191-.60639,1.49595.29134,2.74815-.07948,3.67021-1.35349.52344-.72323.4224-1.21852-.47374-1.52814-1.94908-.67343-3.83055-1.53905-5.83861-2.04705-.61535-.15567-1.18195-.41944-1.74271-1.0511.85462-.28385,1.46189.11355,2.09553.29407,1.61016.45874,3.19956.84198,4.84068.00181.57234-.29301.78303-.66374.70877-1.19842-.08199-.59029-.63722-.63157-1.10109-.7342-.57981-.12828-1.30974.24993-1.70251-.50807.08449-.17008.16899-.34017.25348-.51025.93765-.29747,2.04782.16562,2.86754-.65376-.45042-.30716-.90134-.61451-1.39439-.95059.26861-.36358.84378-.47594.67863-1.03162.24006-.00099.48011-.00198.72016-.00297.25246.34956.62885.20477.95968.24172-.00232.32081-.00465.64163-.00697.96244-.22506.20127-.3712.49744-.00887.5951.37622.1014.4525-.2856.49046-.5954.25291-.21334.67641-.1353.86546-.49677-.26538-.42644-.67563-.46622-1.10253-.46739.0003-.15672.00059-.31345.00089-.47017.92094-.12444,1.53985.67017,2.38172.78631-.31881.40961.18013.58745.25022.88682-.09474.06966-.17979.16869-.28593.20394-.44599.14811-1.19618-.2269-1.27299.52384-.06089.59508.2254,1.16334.97576,1.29398.15221.0265.26741.26651.39968.40809-1.1034.59713.15496,1.26328-.05488,1.88653-.60503.14076-1.03629-.31178-1.55814-.44918-.30166-.07943-.64154-.07637-.88695.19577-.11698.12972-.11969.27364-.01187.42625.7121,1.00796,1.11888,2.16569,1.65214,3.25799.33177.67958-.19207,1.04093-.06106,1.46633.28842.93658-.12476,1.42875-.91143,1.86204,1.51723.04766,3.03267-.36493,4.4161.43949.48545.4503.99825.85339,1.67435.97466.1061.18676.2837.22265.47634.2268.15176.32019.50402.54242.46483.95589-.39632.0975-.80528.17027-1.13036.49326.45458.42199.7865-.06993,1.15165-.01478.71825.58867.79096,1.82416,2.01812,1.8495-.16535.46207-.98889.36699-.65848.88638.21387.33619.72529.18758,1.08419-.04326.19727-.12687.49131-.34979.588-.03109.53729,1.7708,1.80919,1.13483,2.94953.95488.32936-.04546.69924.07955.9657-.23058.48888-.13359.96848-.36243,1.47736-.04044,1.05656.66852,2.09639,1.36933,3.18964,1.97202.8665.47769,1.84284,1.22494,2.69727,1.13718,1.0933-.11229,1.76885.27386,2.65185.7548-.5719.4205-1.16201.06465-1.65873.35102.81489.65194,1.95706-.38281,2.65006.60045-.41461.42659-.79962.61567-1.49702.48207-.47753-.09147-1.05445-.38995-1.60083-.12286-.41376.20227-.67723.05571-.84134-.34851-.24871-.61258.48922-.34374.61357-.7374-.77759.23587-1.69031-.60389-2.28456.50713-.12818.23965-.47261.21455-.73206-.01358-.34302-.30162.04966-.38139.09576-.56537.12652-.50487-.34157-.63181-.74296-.61211-.38759.01902-.77023.1394-1.15506.21526.06065-.14335.0847-.32656.1888-.42261.31563-.29118.37351-.61924.1534-.96132-.25105-.39019-.52705-.18021-.8045.01257-.35911.24952-.46084-.11135-.64754-.293-.25766-.25069-.49545-.3426-.78389.02479-.58118.74024-1.08998.99806-1.58346-.15725-.26466-.61961-.97447-.34149-1.51151-.30344-.05229.00371-.09762.10624-.1455.16222.03087.38508.49592.11794.62731.46877-.71626.22627-.99364,1.15354-1.93189,1.09864-.31486-.01842-.30515.34999-.08007.50808.25391.17834.57418.26177.86558.38648.04837.81087-.26482,1.19092-1.14233,1.21956-1.32667.0433-2.64664.26979-3.98131.17156.08011-.31801.1602-.63602.24029-.95402.34393-.05158.68163-.11414.91328-.58096-.39533-.08606-.64966-.35848-.91324-.61996-.24929-.35687-.63311-.20127-.9623-.2538-.06975-.54617-.46235-.88784-.74939-1.31474-.87763.71372.17945.89842.27527,1.3277.00075.1607.00149.32141.00224.48212l-.00127.00146c-.85745.16418-1.7276.38368-2.06876-.81539-.026-.09139-.35092-.09734-.53689-.14301-.10187-.87718.07648-1.48188,1.11084-1.71199.76548-.1703,1.35062-.78342,1.23252-1.66936-.14389-1.07939-1.05464-1.13931-1.89526-1.23138-.00259-.0794-.00145-.15915-.00835-.23818-.09177-1.05044-1.64776-1.53088-1.09755-2.87564.07371-.18014-.43482-.15838-.70668-.12097-.72934.10035-.95544.86805-1.54715,1.14455-2.34012.09708-4.62035-.56054-6.95597-.54646-1.88361.01136-3.69494-.44101-5.49065-.95989-.00795-.27587-.02699-.48579-.32443-.68856-.32746-.22324-.21801-1.15738.07009-1.16381,1.25952-.02815.17336-.64201.25668-.95585.45277-.22937.93639-.30665,1.43843-.29308ZM31.26145,40.86984c.17586-.02803.43688.00699.43398-.26012-.00381-.3499-.28807-.4304-.57804-.43259-.25691-.00194-.48522.08431-.42854.40309.05589.31432.33448.26958.5726.28962ZM35.14142,39.86837c.21328-.03551.38681-.15807.39787-.36609.01374-.25831-.20578-.28966-.41105-.28482-.22328.00527-.38855.11021-.38453.34392.00408.23736.1692.32975.39771.30698Z" fill="#d8b880"/>
  <path d="M49.59005,16.13346c.28954.37545.24681.79622.1659,1.22218-.42795.22051-1.23919-.46563-1.26514.11647-.05085,1.14071-.50994,1.82699-1.62988,2.2802.99448.53708,1.52971-.1102,2.21107-.56834.05113.48771-.02259.92663.15215,1.21351.36371.59709.01348,1.4943.66206,1.87338.9088.53115,1.96914-.20141,2.93547.17555.83241-1.20345,1.69488-.64067,2.61528-.02132-.93555.6019-2.03864.47361-3.01636.84259-.93011.35101-.60011.53025-.16704.98901-.42976.073-.855.27739-1.18804.17639-.90637-.27487-.79756.30573-.81264.82829-1.36433.0431-2.84131.48711-3.74328-1.09989-.0581-.10222-.37101-.05894-.56539-.08334-.07871-.08154-.15742-.16308-.23612-.24463.05683-1.23032-.77329-2.01706-1.43719-2.88691.01568-.31653-.26005-.67144-.21729-.85124.33021-1.3883-.4852-.69139-.98162-.58093-.00965-.38697.04593-.77686.547-.70033.44845.0685.48904-.26487.65079-.49982.26587.03207.49578-.15395.79772-.04391.76061.2772.77054.24981,1.30955-.40673-1.05785-.18561-2.25211.38597-3.26441-.85467.10209.54652.15052.80577.19895,1.06501-.84151,1.05899-1.82726.17961-2.74566.20526.32856-.70127.35649-1.44723.37822-2.20703.03098-1.08331.383-2.09831.78676-3.09484.34947-.86253,1.08492-.88877,1.86206-.96643.72935-.07289.86493.35377,1.16933.86337.60282,1.00918,1.79703,1.01795,2.79371,1.30579.85981.24831,1.71081.43348,1.92279,1.4898-.2596.07471-.76327-.1431-.71093.29223.04136.34406.53159.13386.82219.17131ZM43.39006,16.30241c1.47313.20621,2.80629.02516,4.21091-.34383-1.48533-.77393-2.86663-1.2766-4.21091.34383ZM45.69278,16.83506c.54078.6308,1.32586.32978,1.83893.71786.11761.08896.38153-.08692.44763-.29271.11581-.36049-.19723-.40327-.4022-.41425-.58113-.03113-1.165-.01091-1.88436-.01091ZM42.0007,15.46275c.62732.03339,1.19699-.09897,1.64613-.57788-.60922.01863-1.17192.17106-1.64613.57788ZM48.24828,21.54839c-.01554-.28353-.1646-.31545-.32434-.30336-.18745.01419-.25475.15476-.25543.32029-.00082.19443.13557.28982.2973.2324.12317-.04373.21228-.18387.28247-.24934ZM47.54862,20.9545c.07628-.09248.19325-.17415.18521-.24059-.00896-.07387-.12589-.17955-.20643-.19012-.15472-.02031-.30828.05444-.25904.24499.01867.07226.16273.11196.28026.18572ZM42.52738,16.73613c-.02861.06618-.05722.13235-.08583.19853.0663.02842.14681.09353.19487.07484.04712-.01834.06124-.12193.08984-.1881-.06608-.0285-.13216-.057-.19887-.08527Z" fill="#dabc85"/>
  <path d="M50.25286,25.26121c.0151-.5224-.0937-1.10301.81267-.82814.33304.101.75829-.10339,1.18804-.17639-.43306-.45876-.76307-.638.16704-.98901.97772-.36898,2.08081-.24068,3.01636-.84259-.92041-.61934-1.78287-1.18213-2.61528.02132-.96633-.37697-2.02667.3556-2.93547-.17555-.64858-.37907-.29836-1.27629-.66206-1.87338-.17474-.28687-.10102-.7258-.15215-1.21351-.68136.45813-1.21659,1.10542-2.21107.56834,1.11994-.45321,1.57902-1.13949,1.62988-2.2802.02595-.5821.83718.10404,1.26514-.11647-.13377,1.28132.20182,2.41762.95029,3.47167.28237.39766.53932.66888,1.04288.63002.51117-.03945.76083-.34218.91328-.80644.40176-1.22338.74138-2.41824.28558-3.73547-.32593-.94191.19062-1.68384,1.01641-2.37981.25499,1.20416,1.198,1.57129,2.14451,1.87146,1.09823.34828,1.56515.9626,1.56918,2.18498.00535,1.62459.625,3.18908.72652,4.83441.04435.71869.78886.92342,1.50959.71794.05719.05194.11022.10873.15845.17001-.03833.37193.33253.47058.47834.71954-.36992.04298-1.05064.13683-.4201.56858.83068.56879.44013,1.18365.42618,1.81723-.72328.5119-.94389.87999-.72851,1.2155-.31777.42831-.63267.11849-.94829-.00371-.07926-.15994-.15852-.31987-.23778-.47981.87303.01457-.38729-.96359.46671-1.00161.22322-.00994.63859-.12821.55954-.45176-.09654-.39512-.52683-.15768-.80309-.22975-.07206-.65081-.57958-.42598-.95087-.47507l.00379.00366c.00147-.20574-.04767-.38664-.2424-.49607-.16369-.48105.41525-1.36764-.55462-1.37901-.67174-.00788-1.43024.19418-1.83739.9102-.39008-.03489-.78039-.06736-1.17018-.10525-.52175-.0507-1.02791-.07337-1.21794.57709-.90288.15739-1.75681-.21999-2.64318-.24299ZM56.95332,20.90432c-.50533.34784-.81235.55918-1.22853.84566.8429.30151,1.04085-.06048,1.22853-.84566Z" fill="#dbbf8a"/>
  <path d="M37.5223,17.11271c.36892.63438.65214,1.33229,1.29886,1.76093.03629.17587-.34896.40615-.00091.50072.18483.05022.15537-.27098.18818-.43907.15603.0187.31205.03741.46807.05619.26371.6078.24799.65615-.48036,1.47792-.17155.03456-.37584.03164-.35694.29374.00198.02752.04671.07242.07414.07443.26182.01911.25781-.18656.29299-.35797.63698-.08164,1.27397-.16329,1.91095-.24493l-.00051-.00044c.03494.41723-.34241.62612-.48073.95584-1.00729.72106-2.12726,1.05901-3.35884.90452-.46993-.05895-.77909-.35784-.70804-.90047.42108-.40148,1.14713-.00462,1.62242-.56621-.76539-.276-1.44511-.0953-2.10616-.16148-.05676-.45396-.28679-.86258-.75685-.61028-.98842.53053-2.00697.84392-3.12416.88167-.17304.00584-.43324.11702-.49689.25297-.5266,1.12482-1.85604,1.17641-2.53339,2.07828.38136.4793.81341,1.0934,1.66143.53117.11666.98362-.52091,1.003-1.21275.95301-.36967-.36307-.42653-.07011-.48001.22995,0,0-.00028.00991-.00025.00993-.4781.08045-.95622.16089-1.43435.24133-.20409-.76977,1.29159-1.42523.14853-2.2414.19946-.3648.83856.11384.91462-.5048-.92859-.36903-1.85871-.68053-2.85835-.80254.62769-.50306,1.20994-.14369,1.79605-.0514.6729.02212,1.2983-.04593,1.55141-.82087,1.73637.23726,2.10063-1.24143,2.80465-2.2769.17343-.25508.20297-.60393.34725-.88459.17598-.34232.33685-.85683.78153-.77589.43622.0794.24128.60156.2839.93034.05001.38573-.07694.86776.46107.96788.60073.11179.49539-.49353.69487-.78859.15471-.22884.30696-.45935.46031-.68911.8745.26484,1.75457-.38323,2.62825.01615Z" fill="#d8b880"/>
  <path d="M9.30246,9.17382c.07826-.07527.15652-.15054.23478-.22579,1.29476.78525,2.23872.03244,3.26483-.71106-.2166-.16537-.42889-.41849-.51735-.38067-.75593.32325-.77196-.16319-1.03705-.69077-.41265-.82127.20867-.72243.56938-.9413.35838-.21746.44594-.45328-.05712-.64667-.352-.13531-.6786-.21848-1.01331.01641-.54613.00762-.30283-1.31195-1.19872-.71632-.55755-.32068-1.11511-.64135-1.67268-.96204.34896-.2275.74928-.22471,1.14254-.27421.24777-.03119.48385-.18527.41422-.46986-.05749-.235-.2996-.20763-.49553-.13924-.50425.17602-.91707-.01113-1.30229-.31797.06909-.13176.13818-.26353.20726-.39529.91111.62715,2.40754-.30088,3.03122,1.17836.13744.32598.65327.21012.98771.14071.4202-.08721.82426-.25067,1.2655-.2013.38814.26915.77135.54582,1.16555.80574.64442.42491.86409.99612.63904,1.74042-.19778.65412-.37283,1.30976.16149,1.9032-.02604.11519-.0138.26804-.084.33924-.63886.64801-.95159,1.12575.39704,1.00424.3116-.02808.39794.20052.13202.44412-.40399-.03574-.78307-.00993-1.21408-.13695-1.117-.32919-2.2949-.35388-3.3376.37763-.56838-.22992-1.58805.57037-1.68286-.74061Z" fill="#d6b57b"/>
  <path d="M9.47583,20.49985c-.51361.00416-.96963-.10118-1.4564-.34388-1.62364-.8095-3.37547-1.21673-5.1875-1.05942-1.01943.0885-1.46036-.33437-1.64256-1.23338-.03947-.19477-.07847-.39003-.10666-.58665-.22615-1.57727-.65334-1.80623,1.24788-1.92497.14071.39973-.64541.99195-.05207,1.11121.74124.14899,1.18341.67695,1.76257.98543,1.06728.56845,1.36367.38326,1.13326-.81636,1.40023.51577,2.34147-.36972,3.1958-.99535.58908-.43138.79298-.18169,1.17486.03588.00674.31662.01344.63321.02013.94981-.90763.73813-.07947,1.72873-.34394,2.58015-.0656.21118.35776.2313.63703.02035.4693-.3545.59112-.02851.64837.40011.11317.84715-.4474.8687-1.03076.87707ZM2.81314,17.13942c-.11228-.04812-.19395-.11436-.23586-.09484-.09967.04642-.18053.13341-.26899.20401.07036.02801.15166.09285.20864.07584.09833-.02936.18154-.1096.29622-.18501Z" fill="#dabc85"/>
  <path d="M23.67895,19.27653c-.33083-.03695-.70723.10783-.95968-.24173-.06446-.57697-.50364-.47207-.87396-.47248-.18344-.0002-.46086.00359-.41957.25128.04767.28592.3593.1964.57336.22417.16515.55568-.41002.66804-.67863,1.03162.49306.33607.94397.64342,1.39439.95059-.81973.81938-1.92989.35628-2.86756.65377.0976-.5571-.13686-.95106-.65444-1.1485.28781-.45952.81243.25544,1.04957-.43281-.99177-.06292-1.59047-.95203-2.55122-1.05714-.55908-.2407-1.11816-.48139-1.67723-.72208.78911-.59551,1.43295.14751,2.14803.2342.67999.46407.89088-.30489,1.42968-.42128-.55305-.55474-.97553-.02427-1.40895-.05735-.08322-.7834-1.00732-1.46455-.21622-2.28257-.32067-.25534-.63709.29335-.9344-.21258,1.07119-.16625,1.05705-1.37252,1.84618-1.82339.27631.25308.51476.58188.96595.48515.76334.9249,1.29685,2.13611,2.74221,2.21133-.14875.29424-.29749.58849-.44621.88274-.1792-.17422-.25793-.54245-.61532-.37832-.10805.04962-.2004.2326-.21591.36442-.02974.25273.07691.46281.36531.49616.1917.02217.38665.0161.58015.02268.5543.32331,1.10859.64662,1.6629.96994-.00028.15673-.00058.31345-.00088.47018-.07918.00084-.15836.00152-.23755.00202ZM20.97735,20.56627c-.02887.06661-.09519.14833-.0762.19562.01939.04827.12257.06274.18906.09201.02893-.06642.09541-.14812.07641-.19504-.01966-.04853-.1223-.06329-.18927-.09259Z" fill="#d6b57b"/>
  <path d="M22.58645,16.44671c-1.44536-.07522-1.97888-1.28643-2.74219-2.21134,1.00208-.38547,2.28406-.42017,2.39596-1.92101.17258-.03098.37704-.02427.36139-.28762-.00162-.02724-.04705-.07271-.07426-.07435-.26272-.01578-.25621.18909-.28713.36211-1.70413.18021-.99935-1.04018-1.05307-1.81957,0,0,.07766.02873.07779.02948.1609.4022.27272.83121.84951.83231.47723.00092.624-.24154.60685-.66415.47303-.26744.94605-.53487,1.42748-.80706.30536.38543-.04769.67992-.06643,1.00087-.0219.02249-.06594.05106-.06176.06639.01455.05325.04583.1019.07075.1523.12108.2588.30553.45554.56455.57907.11494.03932.22995.07874.34496.11815.3885-.19933.87454-.44584,1.20168-.15191.33866.30428-.05285.7215-.22141,1.0508-.46702.91237.24401,1.65981.31269,2.49427-.50227.08201-.94827-.16593-1.42327-.24385q-.54588-1.65014-1.92919-1.1432c.94089.24881,1.0757.77495.7652,1.53328-.11271.27527-.03159.63027-.0389.9489-.16165.00001-.3233.00003-.48495.00007-.07143.00575-.14287.01147-.21431.01719-.12732.04629-.25464.09258-.38196.13886Z" fill="#dabc85"/>
  <path d="M22.24023,12.31436c-.1119,1.50084-1.39389,1.53554-2.39596,1.92101-.45121.09674-.68966-.23206-.96586-.48509.19034-.74168.02399-1.23587-.857-1.19745-.28963.01263-.36909-.30037-.49407-.34635-1.05696-.38888-1.47354-1.7251-2.70982-1.81403.16854-.31128.76344-.19374.71952-.71871.2659-.24359.17956-.47219-.13204-.44411-1.34862.12151-1.0359-.35622-.39704-1.00424.0702-.0712.05796-.22405.084-.33924.54778.19988,1.09551.39997,1.64322.60005-.04421.98379.69898.63664,1.19372.70947-.02939.24203-.64906.3279-.25929.63272.60342.47191,1.01596,1.33917,2.06978,1.10994-.1995-.44033-.66116-.91732-.20154-1.36148.45096-.43578.74946.21144,1.13537.31014.11367.02907.23741.01854.35654.02616.05167.16798.10335.33596.15394.50331-.13893.03126-.27677.06315-.41461.09504.14189.13573.27432.05267.4073-.01769,0,0,.01071.00134.01075.00123.05376.77927-.65102,1.99967,1.05311,1.81946v-.00015Z" fill="#d8b880"/>
  <path d="M9.54495,15.67233c-.38182-.21754-.58573-.46723-1.1748-.03585-.85433.62563-1.79557,1.51112-3.1958.99535.23041,1.19962-.06597,1.38481-1.13326.81636-.57916-.30847-1.02133-.83643-1.76257-.98543-.59334-.11926.19278-.71148.05207-1.11121.03278-.12816.06563-.25625.09846-.38433,1.23914.58402,1.92713-.20734,2.59644-1.04531.29123.12382.58002.25384.87426.37.42796.16895.8843.55551,1.31406.12986.39213-.38838.18131-.88653.01309-1.33748-.05531-.14826-.09966-.30062-.14882-.45128.75356-.13455,1.56875.01354,2.18156-.69263.2225-.2564.48698.03054.52592.36509-.18606.0425-.48592.15371-.21567.32507.56351.35729.4465.86207.45629,1.36015-.52793.45491.0672,1.23267-.48122,1.68165ZM3.36877,15.96929c.48341.32006.49287.92278,1.10864.84932.18344-.02188.28716-.19755.22821-.33603-.21475-.50449-.64094-.59106-1.33685-.51329Z" fill="#d6b57b"/>
  <path d="M9.78555,12.30547c-.03894-.33455-.30342-.62149-.52592-.36509-.61281.70617-1.428.55809-2.18156.69263-.00021.00017.00774-.02313.00834-.02347.01841-.58657.68421-.42134.93662-.7791-.49746-.73268-.93846-.23907-1.38308.02129-.09899-.1701-.32365-.39479-.27738-.50177.42297-.97804-.30173-1.22294-.93208-1.51182-.75868-.34769-1.33151-.8564-1.57769-1.67681-.27631-.92081.04116-1.30608.9744-1.06447,1.15331.29859,2.13424.99792,3.17492,1.55254.41749.2225.78773.54523,1.30037.52442.0948,1.31097,1.11448.51068,1.68286.74061.00001,0,.00065.00089.00065.00089-.08042.24024-.16084.48048-.24125.72072-.36123.33559-.28777.68276-.01169,1.01962.17682.21576.63834.32007.3748.70632-.1999.29297-.48789-.05447-.74355-.04077-.19209.0103-.38578-.0094-.57875-.01575ZM9.83432,11.53952c.26183-.44304-.10081-.60086-.32467-.76643-.35305-.26111-.6844-.04706-.96479.17179-.09321.07275-.16871.33018-.11568.4024.29176.39733.42293-.22209.6694-.13357.24895.08941.48557.21334.73574.32581Z" fill="#d8b880"/>
  <path d="M16.01396,18.3132c.55908.2407,1.11816.4814,1.67723.72208.65833.67323-.18479,2.18803,1.32888,2.38185-.05132.18278-.10265.36557-.15397.54835-1.61838-.95504-3.44561-1.07146-5.24207-1.31151-.02352-.14771-.04951-.31414-.23003-.32697-.1852-.01316-.2273.14754-.25799.29583-.24844.0406-.49836.11378-.73813-.03356-.91785-.89588-1.47654-2.05625-2.20432-3.1269.08027-.03886.24358-.07774.34575-.17875.10107-.09992.14041-.26256.20685-.39782,1.45256-.06131,3.38332,1.35847,3.20378,2.3559.76503-.13745,1.5454-.24064,2.06404-.92849ZM17.49247,20.05586c-.03404.01004-.0738.01303-.09923.03371-.00966.00786.01359.0564.02185.08639.03406-.01016.07369-.01338.0993-.03406.00955-.00771-.01365-.05617-.02191-.08605Z" fill="#dabc85"/>
  <path d="M10.74662,5.59396c.33471-.23488.66131-.15172,1.01331-.0164.50306.19339.4155.42922.05712.64667-.36071.21887-.98203.12004-.56938.9413.26509.52758.28112,1.01402,1.03705.69077.08845-.03782.30074.2153.51735.38067-1.02612.74351-1.97008,1.49632-3.26483.71106.14652-.63979-.33506-.84322-.73739-1.14679-.32464-.24495-.73129-.42919-.90284-.84747-.00848-.40612-.15399-.76083-.40321-1.07652-.00777-.18489-.01553-.36978-.02335-.55462.26399-.39219-.03965-.40543-.29828-.44873-.06735-.04947-.13469-.09894-.20176-.1485.06626-.07115.13223-.1422.1982-.21325-.17439-.03516-.34878-.07032-.52317-.10548-.24227-.15812-.20897-.33218-.02963-.51467.41982.00789.83962.01575,1.25942.02361.55755.32068,1.11511.64135,1.67268.96199.00052.15933.00103.3187.00153.47806-.15474.00024-.31039-.01006-.46403.0031-.25513.02186-.61829-.07063-.65605.30039-.04941.48542.37016.38198.65569.41113.15318.01564.30921.00326.46395.00353.42235-.10192.86459-.15394,1.1976-.47985Z" fill="#dabc85"/>
  <path d="M13.12586,3.4368c-.44124-.04937-.8453.11409-1.2655.2013-.33444.06941-.85027.18527-.98771-.14071-.62368-1.47924-2.12011-.55121-3.03122-1.17836-.06909.13176-.13817.26353-.20726.39529-.40879-.04767-.51091.47749-.89275.48015-.03721-.23621-.02377-.49607-.12062-.70443-.36712-.78984.04609-1.06506.72127-1.02242,1.23766.07817,2.41695.01645,3.63115-.3731.83439-.26769,1.78847-.1177,1.77375,1.22465-.00407.3711.24563.745.37889,1.11761Z" fill="#dabc85"/>
  <path d="M38.99608,20.46933c.72842-.8217.74414-.87005.48043-1.47786.36335-.23744.7267-.4748,1.08974-.71219.9181-.02568,1.90384.8537,2.74535-.20529.33042.03595.70536-.10647.9582.24029-.16175.23495-.20234.56832-.65079.49982-.50107-.07653-.55665.31336-.547.70033l-.09883.05453.04426.04445.05457-.09898c.49641-.11046,1.31183-.80737.98162.58093-.04277.1798.23297.5347.21726.85133-.30119-.1529-.61033-.27268-.95824-.23102-.65923-.36223-1.00375.21165-1.44796.48903-.48456.80865-.95207-.04654-1.42867-.01471.13835-.32967.5157-.53855.48075-.95578.29573-.05635.68991-.05393.50691-.52543-.07709-.19863-.33081-.46452-.54234-.31835-.34168.23611.11292.55133.03594.84421-.63698.08164-1.27397.16329-1.91095.24493l-.01026-.01025Z" fill="#dbbf8a"/>
  <path d="M37.5223,17.11271c-.87368-.39938-1.75375.24869-2.62825-.01615.32762-1.60725.84008-3.15654,1.48762-4.65992.11449-.26581.22923-.66573.67277-.47434.30257.13055.63783.3964.4973.72373-.63681,1.48331-.16123,2.95208-.02944,4.42669ZM37.17823,16.53311c-.07-.02202-.11381-.0358-.15762-.04958.0082.02958.0164.05916.0246.08874.03378-.00994.06755-.01988.13301-.03915Z" fill="#dabc85"/>
  <path d="M10.74613,16.88593c-.06642.13513-.10576.29777-.20683.39769-.10217.10101-.26548.13989-.34575.17875.72777,1.07066,1.28647,2.23102,2.20432,3.1269-.97423-.01471-1.95525.19719-2.92157-.08947.58289-.00833,1.14346-.02988,1.0303-.87702-.05726-.42862-.17907-.75462-.64837-.40011-.27927.21096-.70263.19083-.63703-.02035.26448-.85142-.56369-1.84203.34377-2.58001.41784-.0212.82071.02569,1.18117.26362Z" fill="#d6b57b"/>
  <path d="M21.02974,9.91316c-.11913-.00762-.24287.00291-.35654-.02616-.3859-.09871-.68441-.74593-1.13537-.31014-.45962.44416.00204.92115.20154,1.36148-1.05382.22923-1.46635-.63803-2.06978-1.10994-.38977-.30482.2299-.39069.25929-.63272l.00263-.00254c.54603.02013.96161-.11548.93112-.78359,1.59957-1.19666,1.73196-1.1048,2.1671,1.50362Z" fill="#dbbf8a"/>
  <path d="M29.06046,20.61342c-.25311.77494-.87851.84299-1.55142.82087-.06819-.5726-.39134-.88827-.95974-.9568-.07007-.2994-.56902-.47725-.2502-.88686.86241-.16398,1.42922-.9712,2.3211-1.07146.09519.01286.19018.02569.28516.03851-.03186.5448-.06372,1.0896-.09586,1.63453-.11901.07524-.29492.13365-.22554.31497.08858.23152.28287.1557.45544.10509l.02107.00113Z" fill="#dbbf8a"/>
  <path d="M18.8661,21.96548c.05133-.18278.10265-.36557.15397-.54835-1.51367-.19381-.67055-1.70862-1.32888-2.38185.96076.10512,1.55946.99422,2.55123,1.05715-.23713.68825-.76175-.0267-1.04957.43281.51758.19744.75205.5914.65444,1.1485-.08447.17008-.16897.34016-.25346.51025-.25009-.04772-.55416.0852-.72774-.21851Z" fill="#dbbf8a"/>
  <path d="M5.02549,13.92191c-.66931.83797-1.3573,1.62933-2.59644,1.04531.00821-.07777.00457-.15905.02632-.2328.57078-1.93534.93434-2.04985,2.57012-.81251Z" fill="#d8b880"/>
  <path d="M23.66767,16.29058c.00731-.31863-.07381-.67363.0389-.9489.3105-.75833.17569-1.28447-.7652-1.53328q1.38331-.50693,1.92923,1.14323c-.62897.41752-.26152,1.02157-.28911,1.55165-.30461-.0709-.60922-.1418-.91383-.2127Z" fill="#d6b57b"/>
  <path d="M24.58149,16.50329c.02759-.53008-.33986-1.13413.28911-1.55165.47496.07789.92096.32583,1.42323.24382.32393,1.18623-.9303,1.07397-1.37237,1.63194-.13192.1665-.2712-.15482-.33997-.32411Z" fill="#dbbf8a"/>
  <path d="M67.24677,20.69715c.34269.39218,1.11808.71253.77334,1.27339-.2705.44007-1.00302.17772-1.54061.04659-.51578-.12581-1.05095-.19625-.85475-.94995.70901.61815,1.14693.04218,1.62202-.37003Z" fill="#d8b880"/>
  <path d="M6.74141,3.19448c.38184-.00267.48396-.52783.89275-.48015.38522.30683.79804.49398,1.3023.31796.19593-.06839.43804-.09576.49553.13924.06962.28459-.16646.43867-.41422.46986-.39326.0495-.79359.04671-1.14254.27421-.41978-.00785-.83958-.01571-1.2594-.0236.04185-.23252.08372-.46502.12559-.69752Z" fill="#dbbf8a"/>
  <path d="M22.72131,10.69258c.01715.42261-.12962.66507-.60685.66415-.57679-.00111-.68861-.43011-.84951-.83231.48537.05555.97087.11186,1.45636.16816Z" fill="#d8b880"/>
  <path d="M69.16314,44.61249c.04427-.25295-.31873-.68683-.05474-.69704.44519-.01722,1.13084-.18367,1.26025.60183-.39485.12059-.79369.19055-1.20552.09521Z" fill="#d8b880"/>
  <path d="M6.63994,11.85173c.44463-.26035.88562-.75397,1.38308-.02129-.25241.35775-.91821.19253-.93662.7791-.31024-.15725-.46687-.40523-.44646-.75781Z" fill="#d6b57b"/>
  <path d="M22.25447,17.83439c-.19349-.00657-.38845-.00051-.58015-.02268-.2884-.03335-.39505-.24343-.36531-.49616.01551-.13182.10786-.3148.21591-.36442.35739-.16414.43612.20409.61532.37832.03805.16831.07613.33662.11422.50494Z" fill="#dbbf8a"/>
  <path d="M17.92889,9.19568c-.49474-.07283-1.23792.27432-1.19372-.70947.3236.02762.64718.05523.97075.08281.07519.20802.1504.41607.2256.62412l-.00263.00254Z" fill="#dbbf8a"/>
  <path d="M17.93152,9.19313c-.0752-.20805-.15041-.4161-.2256-.62412.38558-.0531.77116-.10623,1.15673-.15942.03048.66806-.3851.80366-.93113.78354Z" fill="#d8b880"/>
  <path d="M7.4938,5.87726c.24922.31569.39472.67039.40321,1.07652-.32316-.28788-.96393-.4561-.40321-1.07652Z" fill="#d8b880"/>
  <path d="M49.59005,16.13346c-.2906-.03745-.78083.17275-.82219-.17131-.05233-.43533.45134-.21752.71093-.29223.03708.1545.07417.30902.11125.46354Z" fill="#d6b57b"/>
  <path d="M29.03939,20.61229c-.17256.05061-.36685.12642-.45543-.10509-.06938-.18132.10654-.23973.22554-.31497.07681.13993.15335.28.22989.42006Z" fill="#d8b880"/>
  <path d="M13.136,20.62283c.0307-.14829.0728-.30899.25799-.29583.18052.01283.20651.17926.23003.32697-.16267-.01039-.32535-.02076-.48803-.03114Z" fill="#d6b57b"/>
  <path d="M7.17218,4.8739c.25863.04329.56226.05654.29828.44873-.24469-.05255-.24692-.26705-.29828-.44873Z" fill="#d8b880"/>
  <path d="M39.00843,18.93529c-.03281.16809-.00335.48929-.18818.43907-.34805-.09457.0372-.32485.00091-.50072.07381-.01372.13616.00696.18727.06166Z" fill="#dbbf8a"/>
  <path d="M6.64546,4.40668c.17439.03516.34878.07032.52317.10548-.06597.07105-.13195.1421-.1982.21325-.10851-.10618-.21674-.21245-.32496-.31873Z" fill="#d8b880"/>
  <path d="M21.17637,10.49382c-.13298.07036-.26541.15342-.4073.01769.13784-.03189.27568-.06378.41461-.09504.00109.00063-.00731.07735-.00731.07735Z" fill="#dabc85"/>
  <path d="M22.96841,16.30785c.07144-.00572.14288-.01144.21431-.01719,0-.00003-.10515.03369-.10515.03369l-.10916-.0165Z" fill="#d6b57b"/>
  <path d="M25.00088,11.80229c-.11501-.03941-.23002-.07883-.34496-.11815.11504.03944.23.07879.34496.11815Z" fill="#d8b880"/>
  <path d="M28.90536,18.55769c-.09498-.01282-.18997-.02565-.28516-.03851.07601-.04402.15222-.088.22844-.13198.01891.05683.03782.11366.05672.1705Z" fill="#d8b880"/>
  <path d="M24.09136,11.10508c-.02492-.0504-.0562-.09906-.07075-.1523-.00419-.01533.03986-.0439.06176-.06639.03157.07172.03458.14461.00899.21869Z" fill="#d8b880"/>
  <path d="M24.6984,9.50303c-.07172.06983-.14344.13966-.21517.20949-.02586-.02926-.07648-.08171-.07398-.0844.06764-.07254.14072-.13999.21288-.2083l.07626.08321Z" fill="#d8b880"/>
  <path d="M24.62214,9.41982c.04581-.04798.12748-.14114.1322-.13738.13742.10965.04887.16755-.05687.21952.00093.00107-.07533-.08214-.07533-.08214Z" fill="#d8b880"/>
  <path d="M22.72397,44.20907c-.73072.25013-1.38298.42793-2.05045-.29944-.28207-.30738-.96889-.29242-1.47832-.32729-.73233-.05012-1.29864-.29685-1.68924-1.10369,1.33108.0393,1.66463-.64441,1.38015-1.79583-.10926-.44224-.07497-.89171.50295-1.04644.57334-.15351,1.12222-.19429,1.45044.42521.47448.89554,1.18578,1.47842,2.15743,1.74801-.98974.46106-.13647.97218-.03962,1.46274-.8196.12659-.13958.62849-.23336.93674Z" fill="#d6b57b"/>
  <path d="M11.46302,29.62074c-.08333.31384,1.00283.9277-.25668.95585-.2881.00643-.39755.94057-.07009,1.16381.29744.20277.31648.41269.32443.68856-1.41383-.30883-2.84132-.56693-4.23637-.94524-.85335-.23141-1.94697-.86047-1.80515-1.62054.16829-.90192,1.41729-.62221,2.18195-.51014,1.28683.18861,2.53767.66608,3.8619.26769Z" fill="#dbbf8a"/>
  <path d="M41.3966,41.59384c.38481-.07585.76746-.19623,1.15505-.21525.40139-.0197.86947.10724.74296.61211-.04611.18398-.43879.26375-.09576.56537.25945.22813.60388.25323.73206.01358.59424-1.11102,1.50697-.27127,2.28456-.50713-.12435.39367-.86228.12483-.61357.7374.16411.40422.42758.55078.84134.34851.54638-.26709,1.1233.03139,1.60083.12286.6974.1336,1.08241-.05548,1.49698-.48202.18899.10705.23248.28537.23574.48341-.58389.5251-1.20006.85992-2.02357.51661-.22683-.09456-.57935-.1315-.74893.16212-.23638.40926.25797.50281.3776.76273-.55885.16-1.1177.32-1.67656.47999-.34397-1.00057-.97348-1.26194-1.90573-.73956-.73157-.59758-1.46313-1.19514-2.19378-1.79283.28638-.09779.63882-.06071.81796-.42366-.30173-.27655-.88976-.11591-1.02833-.64307l.00117-.00118Z" fill="#dbbf8a"/>
  <path d="M26.81891,40.63829c.18597.04567.51089.05162.53689.14301.34116,1.19906,1.21131.97957,2.06875.81536.12186.85608.71899.99693,1.43543.95821-.0801.31801-.16019.63602-.24029.95402,0,0-.0894.04058-.0894.04058,0,0-.09704-.01466-.09722-.0147-.08729.02362-.17439.04729-.26149.07096-.48355.05892-.9671.11784-1.45071.17677-.25417-.35872-.40158-.22865-.50336.11039-.4747.02726-.9494.05453-1.42412.0818-.03664-.34822-.17253-.64129-.55855-.66123-.45712-.02361-.609.29431-.64401.69408l-.08506.03438s-.08881-.02297-.0891-.02302c-.41916-.10768-.90905.13183-1.26956-.26095.03469-.41706.34039-.41689.65945-.50245.95315-.2556,1.65638-1.3344,1.48624-2.18657.17537-.14354.35074-.28708.52612-.43063ZM27.64183,43.1972c.34119.00799.5599-.17566.53189-.4926-.05205-.58903-.63305-.31456-.94106-.50478-.20916-.12917-.40968.01047-.40071.24764.01889.49928.46142.58394.80988.74974Z" fill="#dbbf8a"/>
  <path d="M35.74332,42.11778c-.29141-.12471-.61167-.20814-.86558-.38648-.22507-.15809-.23479-.5265.08007-.50808.93825.05489,1.21563-.87238,1.93189-1.09864-.13139-.35083-.59644-.08369-.62731-.46877.04788-.05598.09321-.15851.1455-.16222.53704-.03805,1.24685-.31618,1.51151.30344.49348,1.15531,1.00228.89749,1.58346.15725.28844-.36738.52623-.27547.78389-.02479.1867.18165.28843.54252.64754.293.27745-.19277.55344-.40276.8045-.01257.22011.34208.16223.67014-.1534.96132-.1041.09605-.12816.27926-.1888.42261.00001,0-.00115.00117-.00115.00116-.35665.09324-.71331.18648-1.06996.27972-.98833-.21628-1.95752-.52554-2.98757-.52445-.66777.00071-1.24077.13972-1.59459.76749Z" fill="#dbbf8a"/>
  <path d="M23.90729,33.93532c.59171-.2765.81781-1.0442,1.54715-1.14455.27185-.03741.78038-.05917.70668.12097-.55021,1.34476,1.00578,1.8252,1.09755,2.87564.00691.07903.00576.15878.00835.23818-.30458.08329-.61303.15459-.91306.25195-1.36762.44379-1.47997.35407-1.27216-1.05296.1351-.91476-.82231-.82375-1.17451-1.28923Z" fill="#dabc85"/>
  <path d="M26.2928,41.06892c.17014.85217-.5331,1.93096-1.48624,2.18656-.31907.08556-.62477.08539-.65935.50241-.15131.00063-.30273.0013-.45414.00196.01748-.56083-.16121-.82425-.73574-.48753-.09686-.49056-.95012-1.00168.03962-1.46274.04886-.02987.09648-.02804.14314.00549.09278-.04095.18532-.08194.27787-.12293.16351-.03876.32702-.07751.49053-.11627.38158.40431.61601.3057.7273-.21378.51614-.30329,1.09375-.25753,1.65702-.29318Z" fill="#d8b880"/>
  <path d="M14.34015,29.14293c.09562.72864.3827,1.50854-.57023,1.93431-.27408.12246-.54415.23203-.71936-.09158-.17467-.32264.11185-.38034.33292-.46887.65862-.26377.42821-.85121.4736-1.33754.16102-.0121.32204-.02421.48306-.03632Z" fill="#d8b880"/>
  <path d="M22.95733,43.27233c.57453-.33672.75321-.0733.73553.48746-.00735.14017-.01451.2804-.02167.42064-.31577.00955-.63153.01911-.94726.02865.09381-.30825-.58621-.81016.23339-.93675Z" fill="#dbbf8a"/>
  <path d="M40.32548,41.87473c.35665-.09324.71331-.18649,1.06996-.27972.13857.52718.7266.36654,1.02833.64308-.17914.36294-.53158.32587-.81796.42366-.47974-.17676-.9086-.43525-1.28033-.78702Z" fill="#d8b880"/>
  <path d="M25.59082,44.00752c.03501-.39977.18688-.71769.64401-.69408.38602.01994.52191.31302.55855.66123-.40083.01094-.8017.0219-1.20256.03285Z" fill="#d6b57b"/>
  <path d="M23.67119,44.18043c.00715-.14024.01431-.28047.02167-.42064.15161-.0006.30303-.00127.45434-.0019.36041.39282.8503.15331,1.26946.26099-.56203.26668-1.15815.1663-1.74547.16155Z" fill="#d6b57b"/>
  <path d="M24.63577,41.3621c-.11129.51948-.34572.61809-.7273.21378.18847-.25572.45296-.25157.7273-.21378Z" fill="#d6b57b"/>
  <path d="M28.2175,43.89288c.10178-.33904.24919-.46911.50336-.11039-.13589.18273-.31649.16095-.50336.11039Z" fill="#d6b57b"/>
  <path d="M23.41795,41.69215c-.09254.04099-.18509.08198-.27787.12293.09246-.04101.18516-.08197.27787-.12293Z" fill="#d6b57b"/>
  <path d="M30.17157,43.60572c.0871-.02367.1742-.04734.26149-.07096-.08704.02368-.17426.04732-.26149.07096Z" fill="#d6b57b"/>
  <path d="M49.77678,43.27269c-.00326-.19804-.04675-.37636-.23574-.48341-.69296-.98332-1.83513.05144-2.65002-.6005.49672-.28637,1.08683.06948,1.65873-.35102-.883-.48094-1.55854-.86709-2.65185-.7548-.85444.08776-1.83078-.65949-2.69727-1.13718-1.09326-.6027-2.13308-1.30351-3.18964-1.97202-.50888-.32199-.98848-.09315-1.47747.04025-.3905-.98068-1.08656-.71373-1.76977-.54617.24683.34419.80065.22286.80418.77694-1.14034.17995-2.41224.81592-2.94953-.95488-.0967-.3187-.39074-.09578-.588.03109-.35891.23084-.87033.37945-1.08419.04326-.33041-.51939.49313-.42432.65848-.88638-1.22716-.02534-1.29986-1.26083-2.01821-1.84942-.00713-.15947-.01416-.31901-.02119-.47856.03919-.41347-.31307-.63571-.46484-.95589-.00264-.15825-.00527-.31649-.0079-.47474.32725-.27464.15183-.58904-.11059-.61309-.6732-.0617-1.33847-.44291-2.0322-.11363-1.38343-.80442-2.89887-.39183-4.4161-.43949.78667-.43329,1.19984-.92547.91143-1.86204-.13101-.4254.39283-.78675.06106-1.46633-.53327-1.0923-.94004-2.25004-1.65214-3.25799-.10782-.15261-.10511-.29653.01187-.42625.24541-.27214.58529-.2752.88695-.19577.52186.1374.95312.58993,1.55814.44919.68817-.11156.5702.31138.47477.71937l.00398-.00236c-.07622.07794-.15243.15587-.22865.2338-.05401.22459-.44567.23969-.34272.59151.44776.09844.93391-.31473,1.34871-.00059.56529.42811,1.08966.63162,1.65392.02895.6084-.6498-.03665-1.07424-.27844-1.57145,0,0,.00028-.00991.00029-.00977.19931.00572.37617-.03571.47999-.23008.69183.04999,1.3294.03061,1.21258-.95306.73119-.13735.70623-.97279,1.17424-1.33619.48374.18591.00279.83259.54178.97816.2481-.34376.72687-.35206.95875-.80917.32073-.63226.92868-.80923,1.61733-.52427.28585-.03093.6424.11574.63993-.43-.00335-.7425.45011-.42043.80176-.28461-.07107.54264.23809.84153.70802.90048,1.23158.15449,2.35156-.18347,3.35884-.90452.47658-.03189.94409.82331,1.42877.01456.62118.249,1.09088.04775,1.44784-.48894.3479-.04167.65705.07811.95824.23102.66393.86976,1.49404,1.65649,1.43719,2.88683-1.10708.82932-2.19202,1.71763-3.75329,1.36998.03456.31062.1971.44451.44725.52569.22596.07333.69077-.04235.53063.40872-.10569.29769-.25415.71375-.69362.71829-.23051.00238-.48007-.06442-.68997-.16506-.72141-.34591-1.40503-1.14795-1.98.28505-.19299.481-1.01501.70844-1.74651,1.17831,1.05803.017,1.7992-.24507,2.56649-.40789,1.19483-.25355,2.55019-.9222,3.61383-.21774,1.40014.92734,2.64907.08432,4.09193.38114-.3344-.65354-.70515-.71536-1.11532-.6914-.38953.02275-.66983.43939-1.10729.32492.33442-1.16124-.14969-1.34166-2.31199-.88005.32612-.57738.43624-1.53524,1.3458-1.32573,1.37372.31641,1.41911-.23914,1.03821-1.25961.19438.0244.50729-.01887.56539.08334.90197,1.587,2.37894,1.14299,3.74328,1.09989.88634.02285,1.74027.40022,2.64307.24295.75251.43037,1.26283,1.46142,2.38807.96768.09122.07026.2009.21654.27093.19947,1.20319-.29342,1.98926.15515,2.44765,1.29288.09691.24052.40913.17528.63988.18742.07926.15994.15852.31987.23773.47984-.32572.03628-.5312.18317-.41838.54106.07679.24364.29683.44931.52937.37659.75077-.23476,1.5922-.2885,2.23971-.9242-.54203-.41088-.95908.15652-1.40236.01022-.21538-.3355.00523-.70359.72844-1.21533.31585.23735.63183.23268.94786.00042.42243.04316.82902.00374,1.19822-.23084.04818.41491.33142.47047.68125.48824.78596.03994,1.58677-.13688,2.35702.16742.19567.0773.3947.03148.50209-.18345.12311-.24636.2817-.63179.56907-.3404.31172.31609-.0475.65863-.28407.89085-.29333.28796-.65244.14952-1.00605.0489-.67467-.19198-1.33409-.21541-1.8547.38392.00631.31331.1768.46173.47837.47849-.17475.91401.47619,1.097,1.11884,1.16177.74896.07548,1.48831.0539,2.11179.60323.30574.26938.61737.07974.75447-.25972.13958-.34559-.07349-.48944-.40105-.55732-.39399-.08166-.81891-.13473-1.15502-.57621.87716-.26167,1.57698-.17473,2.21913.32336.60618.4702,1.31973.64001,2.06135.72738.27468.17853.22364.46263.23438.72671-.31103.00956-.47437.16738-.48168.48188v-.00029c-1.15513.23907-2.30607.5026-3.46784.70299-.37146.06408-.81195.12911-1.12855-.21069-.46844-.50276.64968-.41635.277-.96706-.84613.03764-1.78968.4138-2.64211-.19076-.08549-.06063-.35021.00148-.43367.09477-.21372.23888-.8901.539-.5744.69553.72211.35803.44821,1.76443,1.64328,1.47918.93067-.22213,1.84756.04719,2.77056.05866.61182.0076.80027.4071.78875.83373-.01761.6529-.59526.31302-.92924.3743-.36485.06695-.66097-.09552-.97574-.32102-.53932-.38635-1.13399-.44491-1.72375.09087.24361.07928.83305.74529,1.06437,1.06951.07634.10698.32354.22319.39695.17823.35624-.21816.84335-.50267.93723.06498.10645.64362-.59196.22714-.88944.39083-.09459.05205-.18161.11794-.41605.27226.54.10195,1.16351-.12105,1.31056.20418.62184,1.37532,1.82029,1.09985,2.91456,1.16669.03973.00243.07926.00831.11888.01258-.0008.24059-.0016.48117-.00235.72174-.60179.45255-1.65469.17833-1.90925,1.19043-.16177,0-.32354,0-.48526.0001-.02634-.20674-.10221-.35686-.31434-.45885q-1.66227-.79927-.53863-2.00707c-.30415.05785-1.01117-.11263-1.52161-.33733-.22605-.0995-.47031-.08533-.68222.06825-.24561.17801-.16621.35067-.0693.60819.14149.376.1966.74019.71193.75757.16846.00568.25889.19534.19603.36442-.03181.08555-.19004.21053-.23813.19042-.77674-.32483-1.25472-.07724-2.01851.35841-.65898.37589-1.02904,1.13343-1.81399,1.31383-.24734.05685-.24986.51359.003.71105.23483.18338.43296.03122.54157-.23847.16563-.41129.41375-.44596.71813-.13055.25828.47054-.25324.7855-.2426,1.206-1.06005.1188-2.05224.41338-2.78443,1.24414-.67872.77011-1.39363.92451-2.28331.34678-.23728-.15408-.60418-.10766-.91159-.15324-.28803-.32865-.71649-.34786-.92412-.06964-.50991.68328-1.07508.60113-1.74992.36416-.2811-.0987-.61639-.04235-.92704-.0565-.53725-.32204-1.24188-.19987-1.72045-.7393-.36173-.40774-.58837.20819-.90643.2641ZM27.74812,29.35532c-.65231.05604-.90434.6361-1.31799,1.00445.64864-.06151,1.33137-.07866,1.31645-1.00633.35173-.11501.47277.53113.96241.23067-.28023-.38993-.3706-1.13848-.96087-.22879ZM62.22843,30.31544c-.23961.07973-.47921.15946-.71881.2392-1.00314-.51031-2.80902-.47454-3.72556.06016-.08115.04734-.3073.01089-.30737.00853-.02579-.85354-1.08855-.90966-1.25933-1.65456-.08936-.38973-.23781-.90005-.72895-.76755-.64152.17307-1.37266.03948-1.92323.51684-.05444.0472-.0604.2619-.01174.30005.48926.38362.63611.88006.86331,1.45458.3119.78872,1.17249,1.76972,2.43928.9707.39703-.25042.83093-.22907,1.22337.0948.2287.18875.46311.17691.52849-.15402.13386-.67755.40333-.61388.73302-.14718.19605.27751.46222.27112.74109.275.80361-.23993,1.89667.04058,2.14469-1.19832.0182-.03229.03639-.06459.05459-.09688-.01762.03288-.03523.06576-.05284.09865ZM38.28279,33.67399l.00074.00074c.03583.37296.20789.45958.56586.3327.27558-.09767.69144-.25544.73997.21973.03251.31821-.34968.33524-.62123.41343-.85548.24634-1.55428.87576-2.79355.79948.94102.64031,1.74355.42946,2.32115.88351.17013.13373.25535.47072.54662.24172.2503-.19681.08913-.41148-.04278-.62279-.46176-.73973-.08542-1.00905.62194-1.0624.27682-.02089.55662.00127.83446-.01051.22703-.00963.52635.05472.58482-.25702.03949-.21055-.14913-.34787-.34839-.4208-.17828-.06526-.45101-.10465-.34989-.35603.06016-.14956.3-.23812.47259-.32801.28241-.14711.5623.15576.79886.0754.43289-.14704.93463-.30799.95733-.90237.01551-.40604-.25358-.80087-.58427-.7979-.77195.00693.12899.76638-.48174,1.02788-.56749-.82384-1.22801-.89465-1.9507-.04874-.16799.19663-.67906.34024-.87869.22967-1.45225-.80433-2.20812.03274-2.94829,1.23737.90739-.23262,1.73128-.44384,2.55518-.65505ZM61.89112,36.44573c-.17573-.47588,1.02451-.73635.21869-.98443-.56401-.17362-1.00926-1.45244-1.86233-.43441-.0327.03902-.28997-.0851-.42546-.16311-.51815-.29833-1.07718-.26268-1.63128-.19596-1.05773.12737-1.05066.13611-1.34674-.85069-.0972-.32395-.41228-.45758-.66606-.36307-1.21458.45234-2.56228.2759-3.74865.82412-.2453.11335-.59745.26166-.3994.60115.22143.37956.63863.31084.93681.09739.23549-.16856.26829-.5367.65465-.62381.38423-.08663.80619-.09398.99278.17455.27269.39242-.19304.45777-.44598.61833-.5071.32187-.36158.60077.14708.6623.39109.0473.6254.21919.89744.48173.39439.38061.98159-.01941,1.44271.22244.11822-1.30068,1.35674-.66745,1.9506-1.13988.26063-.20734.41369-.15152.55938.11364.17631.32085.07711.43124-.2543.6086-.71134.38067-1.45083.70969-2.40331,1.016.65664.29293,1.19579-.03632,1.61597.48937-.60833.20424-1.15706.37156-1.65849.46251-.61222.11102-1.3154.61171-1.65803.48603-.54732-.20076-1.53502-.21439-1.50473-1.35839.01413-.53367-.8886-.10132-1.21523-.5075-.03084.14482-.13105.38336-.0818.41999.50069.37236.35073.97443.54784,1.40691.23868.52372.54207,1.64005,1.61874.79745.18722-.14651.58495-.14184.52044.17469-.12531.61487.13729.68926.62141.66622.64727-.03081.14422-.59064.4166-.85125.55481.29205,1.13371.60063,1.79825.39398-.30425-.21054-.67323-.22198-.95352-.38584-.36199-.21163-.49808-.59904.00693-.79972.92459-.3674,2.04206-.68702,2.86625-.34141.95574.40077,1.36353.20629,1.83095-.77214.26927.79222.72586,1.39898,1.30294.9971.37697-.26253.55988-1.07721.51147-1.61583-.06849-.76203-.79797-.08435-1.20257-.32704ZM30.65933,27.58214c-.38308.20489-.66718-.06892-.97171-.05658-.12715.00515-.2736.13314-.3613.24474-.03996.05084.05293.2891.06598.28745.72388-.09191,1.07682.65974,1.69117.75244.46537.07022.83714-.1022.46299-.6679-.14785-.22354-.27273-.42207-.01929-.604.09846-.07068.32272-.06119.43849.00363.82345.46104,1.61488.92396.84531-.65987-.02635-.05423.06074-.15731.04275-.22333-.06532-.23973.75988-.08427.22611-.48427-.35857-.2687-.81314-.07856-.89731.25362-.25759,1.0167-.84026.58897-1.17403.2268-.5378-.58358-.84596-.19959-1.34644.04664.41521.30112.80546.43792.99728.88063ZM44.86216,30.41017c-1.45194-1.38327-2.16332-1.36294-4.33147.03688,1.49181.29375,2.90529-.10795,4.33147-.03688ZM45.75489,39.76939c1.42867.15292,2.69997-.32826,3.59646.78675.13649.16975.44371-.04971.56486-.28018.10302-.19596.08244-.39136-.10909-.52487-.81166-.56579-1.88007-.06183-2.72598-.65457-.15395-.10788-.6956.34009-1.32625.67287ZM33.13221,34.33985c.63969-.62318,1.28001.35348,1.92427-.09373q-1.2291-1.16243-1.92427.09373ZM57.09687,41.35881c.20181-.09343.71671.14221.68453-.29698-.03473-.4738-.57183-.57915-.99159-.64346-.30477-.04669-.53316.10252-.51909.45911.02079.52721.42409.45345.82615.48133ZM52.02771,31.77327c-.44335-.0094-1.06839-1.3527-1.36972.14214.48124.09051.93042.16638,1.36972-.14214ZM46.97593,31.93497c-.124-.29091-.3879-.36879-.65118-.37916-.34425-.01356-.45426.28428-.50892.54351-.07295.34596.21263.36195.44374.35226.33803-.01417.57408-.20067.71635-.51661ZM31.21849,24.95108c-.44265.06825-.94005-.0338-1.20523.46201-.02863.05353.07776.26047.13801.26828.54707.07084.78779-.34928,1.06723-.73029ZM60.45583,39.83075c-.12015-.29895-.35758-.39384-.65882-.37727-.22221.01223-.40686.11838-.38491.34675.03715.38661.36145.34355.63283.3434.20869-.00011.38835-.0549.4109-.31289Z" fill="#e5cfa2"/>
  <path d="M52.40365,43.74789c.31065.01415.64594-.0422.92704.0565.67484.23697,1.24001.31912,1.74992-.36416.20763-.27823.63609-.25902.92412.06964-.06362.40234-.15396.78947-.59373.9555-.38167.14409-.88315.36903-.69156.77766.11732.25022.54735.68472,1.06057.54304.17041-.04704.30552-.05048.4026.25919-.52217.09278-.89345,1.29575-1.5842.01732-.10179-.18839-1.05941-.17059-1.38955.07042-1.11506.81398-2.1872.01193-3.27941.11895.44149-.53209,1.07304-.29862,1.599-.45364.74866-.22066,1.28548-1.29574.87518-2.05042Z" fill="#d6b57b"/>
  <path d="M65.58273,40.39592c.37359.54595.89955.90305,1.51114,1.0989.71685.22956,1.11002.92796.90892,1.3946-.2734.63441-1.00052.27954-1.42173-.07585-.40271-.33977-.82218-.21526-1.24216-.25987-.74522-.23134-1.51927.23741-2.28719-.12368-.20182-.09489-.57567.21053-.58371.60357,0,0-.00167.0017-.00167.0017-.14361.20801-.28721.41602-.51921.75207-.19835-.72038.276-1.18209.28143-1.7119.25053-.11517.47894-.16387.78493-.11358,1.18945.19552,1.80648-.35252,1.85134-1.55774.23931-.00274.47862-.00549.71794-.00823Z" fill="#d8b880"/>
  <path d="M45.70532,45.19414c.55886-.15999,1.11771-.31999,1.67656-.47999.51166.00291.99563-.00694,1.4686.32497.74642.52379,1.47921-.30695,2.44025-.15719-1.41914,1.31462-2.85096.56844-4.16649.32923-.2999.53936.78929.47168.28369.97386-.34937.34701-.83693.25153-1.24923.17879-.71867-.1268-.35608-.75449-.45338-1.16967Z" fill="#d6b57b"/>
  <path d="M64.8648,40.40416c-.04486,1.20521-.66189,1.75325-1.85134,1.55774-.30599-.0503-.5344-.00159-.78493.11358-.08145-.00107-.16291-.00215-.24441-.00326-.0107-.42052.50082-.73549.24258-1.20593.15551-.00261.31098-.00531.46645-.00802.08782.55485.45697.54295.86301.41525.43626-.13721.92878-.23733.83086-.88506.15926.00524.31853.01047.4778.01571Z" fill="#dbbf8a"/>
  <path d="M62.46799,43.0336c.03879.00015.07889-.0062.11615.00144.34999.07181.81109-.19415,1.01663.305.05842.14187-.02334.33566-.20751.34686-.46879.02854-.83528-.12443-.92693-.65161,0,.00001.00167-.00169.00167-.00169Z" fill="#d8b880"/>
  <path d="M55.15202,47.10183c.06981.50477-.04786.73779-.40623.89524-.19478-.41447.03136-.61226.40623-.89524Z" fill="#d6b57b"/>
  <path d="M70.85557,30.54599c-.74162-.08737-1.45516-.25718-2.06135-.72738-.64214-.49809-1.34196-.58503-2.21913-.32336.33611.44149.76103.49455,1.15502.57621.32756.06788.54062.21173.40105.55732-.1371.33946-.44873.52909-.75447.25972-.62348-.54933-1.36283-.52775-2.11179-.60323-.64266-.06476-1.29359-.24775-1.11888-1.16188.6283-.00011,1.25664-.00011,2.17004-.00011-1.02943-.60877-1.86027-.39083-2.64836-.47827.52061-.59933,1.18003-.5759,1.8547-.38392.35361.10062.71272.23906,1.00605-.0489.23657-.23223.59579-.57476.28407-.89085-.28737-.29139-.44596.09404-.56907.3404-.10739.21493-.30642.26075-.50209.18345-.77026-.3043-1.57106-.12748-2.35702-.16742-.34983-.01778-.63308-.07333-.68125-.48824-.32143-1.294-.10903-1.58577,1.27469-1.6677.4012-.02375.7899-.03438,1.13257-.27351.9484-.66183,1.62827-.51103,2.2627.50147.47141.75233,1.59725.99286,2.34702.52575.30534-.19024.48032-.84777.9117-.52655.61111.45505-.3289.75895-.26178,1.20621-.00001,0-.00032.00033-.00032.00033-.10473.03957-.20946.07913-.31419.11869.10465.03971.2093.07941.31394.11912.00336.16132.00672.32264.01008.48395-.45381,1.05835.20135,1.93181.47608,2.8687Z" fill="#e8d4a9"/>
  <path d="M69.6496,37.75405c-.03962-.00427-.07915-.01015-.11888-.01258-1.09428-.06684-2.29272.20863-2.91456-1.16669-.14705-.32523-.77057-.10223-1.31056-.20418.23444-.15432.32146-.22021.41605-.27226.29747-.16369.99589.2528.88944-.39083-.09388-.56765-.581-.28314-.93723-.06498-.07341.04496-.32061-.07125-.39695-.17823-.23132-.32421-.82076-.99022-1.06437-1.06951.58976-.53578,1.18443-.47722,1.72375-.09087.31478.22549.6109.38797.97574.32102.33398-.06129.91163.2786.92924-.3743.01152-.42663-.17693-.82612-.78875-.83373-.923-.01147-1.83989-.28079-2.77056-.05866-1.19507.28525-.92117-1.12116-1.64328-1.47918-.3157-.15653.36067-.45665.5744-.69553.08346-.09329.34819-.1554.43367-.09477.85243.60456,1.79598.22839,2.64211.19076.37268.5507-.74544.4643-.277.96706.3166.3398.7571.27476,1.12855.21069,1.16177-.20039,2.31271-.46392,3.46784-.70299.13254.66354.33294,1.2596,1.1902,1.20252-.00696.75656-.75383,1.06807-1.09662,1.60578-.78909,1.2378-.94427,1.25439.38143,1.98348-.34295.005-.69634-.00584-.72245.47918-.53234-.04654-.75272.21277-.71121.72881ZM67.73364,36.53678c.15343-.0117.33919-.00668.34095-.21699.00175-.20848-.18211-.22052-.33587-.22079-.15329-.00026-.3388.0072-.34085.21611-.00205.20945.18206.20934.33577.22167Z" fill="#e8d4a9"/>
  <path d="M64.8648,40.40416c-.15926-.00524-.31853-.01047-.47785-.01564-.00604-.07541-.01292-.1508-.02072-.22611-.03478-.1055-.06956-.211-.10434-.3165-.03357.10577-.06714.21154-.1007.31731-.5969.00346-1.11316.17804-1.46805.69505-.15547.0027-.31094.0054-.46645.00802-.30441-.31551-.55253-.28083-.71816.13046-.10861.2697-.30674.42185-.54157.23847-.25286-.19746-.25035-.6542-.003-.71105.78496-.1804,1.15501-.93795,1.81399-1.31383.76379-.43566,1.24177-.68324,2.01851-.35841.04809.02012.20632-.10487.23813-.19042.06286-.16908-.02756-.35874-.19603-.36442-.51533-.01738-.57044-.38157-.71193-.75757-.09692-.25753-.17631-.43018.0693-.60819.21191-.15359.45617-.16776.68222-.06825.51044.2247,1.21746.39518,1.52161.33733q-1.12162,1.20358.53863,2.00707c.21213.102.288.25211.31434.45885-.07942.00582-.15884.01103-.23828.01545-.30336-.13439-.63891-.38025-.73259.21225-.33036.03111-.57454.18284-.69917.50189-.23928.00276-.47858.0055-.7179.00825Z" fill="#e8d4a9"/>
  <path d="M61.50486,27.42037c-.31603.23226-.63201.23693-.94786-.00042.01402-.63376.40457-1.24861-.42611-1.81741-.63054-.43175.05018-.52559.4201-.56857.33091-.03203.70464.11045.9583-.23629.49213-.20041.96755-.47609,1.73413-.38497-.47302.45337-.78471.85045-1.1847,1.11167-.55355.3615-1.26777.53725-.17749,1.19358.37343.2248-.5826.27309-.37637.7024Z" fill="#d8b880"/>
  <path d="M70.66492,35.30801c1.1172-.16871,2.08482-.60315,3.13382-.525-1.26507,1.20784-2.18466,1.38363-3.13382.525Z" fill="#d8b880"/>
  <path d="M70.37949,27.67729c-.00336-.16132-.00672-.32264-.01009-.48394.00082-.07926.00091-.15854.00026-.23782,0,0,.00031-.00034.00032-.00033.90622.15342,1.80832-.55112,2.74907.06728-1.05986-.29719-1.56734,1.40833-2.73955.65481Z" fill="#d6b57b"/>
  <path d="M70.36082,37.02524c.02611-.48502.3795-.47418.72245-.47918.35068.44461.71958-.11201,1.08763.01965.23388.08367.45546.15838.49771.42769.03546.22602-.13788.45704-.30519.43269-.67263-.09789-1.46029.33565-2.0026-.40085Z" fill="#d8b880"/>
  <path d="M66.28187,39.89402c.09369-.5925.42924-.34664.73259-.21225.03409.25683.10321.44124.43994.3863.32637-.05326.71232.0281.63172.43431-.08504.42864-.54662.42805-.88246.34563-.4778-.11724-.79627-.4592-.9218-.95399Z" fill="#d8b880"/>
  <path d="M61.5093,24.79769c-.25366.34674-.62739.20426-.9583.23629-.14581-.24896-.51668-.34761-.47834-.71955.6223-.26727,1.40519-1.01414,1.43665.48326Z" fill="#dabc85"/>
  <path d="M67.738,39.66622c.25456-1.0121,1.30746-.73787,1.90925-1.19043-.10295,1.25642-1.18741.93129-1.90925,1.19043Z" fill="#e8d4a9"/>
  <path d="M71.79846,32.9568c-.85726.05708-1.05766-.53897-1.1902-1.20252v.00029c.40328.00256.80656.00513,1.20984.0077-.00655.39817-.01309.79635-.01964,1.19453Z" fill="#e5cfa2"/>
  <path d="M72.36995,42.38014c-.22444.77736-.62177.41011-.99713.25563-.36579-.15055-.18463.84683-.70108.35751-.07961-.07543-.02499-.4073.07513-.53741.27853-.36196.6562-.35728,1.05984-.18267.1641.07099.3589.07065.56324.10695Z" fill="#d8b880"/>
  <path d="M71.81811,31.76227c-.40328-.00257-.80656-.00513-1.20984-.0077.00731-.31451.17065-.47232.48168-.48188.30538.0696.80978-.15819.72816.48958Z" fill="#e8d4a9"/>
  <path d="M72.47589,43.89785c-.45639-.00212-.7372-.06526-.8024-.47997.44024-.2218.67223-.06662.8024.47997Z" fill="#d8b880"/>
  <path d="M68.8399,21.36968c-.02916.06636-.04385.16877-.09184.18809-.04677.01882-.12759-.04737-.19346-.07623.029-.06619.04341-.16921.0911-.18817.04723-.01878.12802.04721.1942.07632Z" fill="#d8b880"/>
  <path d="M74.82654,35.04979c-.0292.06652-.04398.16948-.09195.18853-.04721.01876-.12808-.04753-.19417-.07651.02905-.06633.04357-.16983.09123-.18854.04768-.01872.12848.04732.19489.07652Z" fill="#d8b880"/>
  <path d="M65.72658,43.82125c-.02928-.01038-.08289-.01995-.08327-.0313-.0011-.03325.01898-.06721.03076-.10089.02932.01037.083.01999.08335.03125.00102.0333-.01904.06725-.03085.10094Z" fill="#dabc85"/>
  <path d="M72.59003,31.8468c-.01043.02925-.02007.08281-.03142.08318-.03341.00108-.06748-.01895-.1013-.03071.01042-.02924.02005-.08276.03143-.08314.03339-.0011.06748.01892.10129.03067Z" fill="#e5cfa2"/>
  <path d="M26.78572,25.51323c.09543-.408.2134-.83094-.47477-.71937.20984-.62325-1.04852-1.2894.05488-1.88654-.13226-.14158-.24747-.38159-.39968-.40809-.75035-.13063-1.03664-.6989-.97576-1.29398.07681-.75075.82701-.37573,1.27299-.52384.10614-.03525.19119-.13428.28593-.20394.56838.06856.89153.38423.95972.95683-.5861-.09229-1.16835-.45166-1.79604.0514.99964.12202,1.92976.43351,2.85835.80254-.07605.61864-.71516.14-.91462.5048,1.14306.81616-.35262,1.47162-.14854,2.2414-.02776.48259-.37433.48189-.72247.4788ZM27.05587,22.82829c.07919-.13898.16763-.22511.17026-.3138.00484-.16342-.09711-.29352-.27246-.22635-.06535.02503-.11653.18715-.10655.2794.00858.07932.1134.14819.20876.26075Z" fill="#d6b57b"/>
  <path d="M30.85998,42.55487c-.71644.03872-1.31358-.10213-1.43543-.95821.00001.00003.00129-.00144.00126-.00144.50559.08401.95619-.16045,1.4342-.24128.26358.26149.51792.53391.91324.61997-.23165.46682-.56935.52939-.91328.58096Z" fill="#d6b57b"/>
  <path d="M28.94973,31.99255c.69373-.32928,1.35901.05193,2.0322.11363.26242.02405.43784.33845.11067.61303-.19711.00482-.37419.04789-.46852.248-.6761-.12127-1.18891-.52436-1.67435-.97466Z" fill="#e8d4a9"/>
  <path d="M37.56792,38.24478c-.00353-.55408-.55735-.43275-.80418-.77694.6832-.16756,1.37927-.43451,1.76977.54617-.26634.31033-.63623.18531-.96559.23078Z" fill="#e8d4a9"/>
  <path d="M23.67895,19.27653c.07918-.0005.15836-.00118.23755-.00202.4269.00117.83715.04094,1.10253.46739-.18904.36147-.61255.28343-.86543.49672-.16052.00008-.32107.00022-.48162.00035.00232-.32081.00465-.64163.00697-.96244Z" fill="#dbbf8a"/>
  <path d="M29.4236,41.11311c-.09582-.42928-1.1529-.61397-.27527-1.3277.28704.4269.67964.76857.74944,1.3149-.15802.00437-.3161.00859-.47417.0128Z" fill="#d6b57b"/>
  <path d="M31.26145,40.86984c-.23812-.02004-.51671.0247-.5726-.28962-.05668-.31878.17163-.40503.42854-.40309.28996.00219.57423.08269.57804.43259.0029.26711-.25812.23209-.43398.26012Z" fill="#d6b57b"/>
  <path d="M21.9991,19.03777c-.21406-.02777-.52569.06175-.57336-.22417-.04129-.24769.23614-.25148.41957-.25128.37031.0004.8095-.1045.87396.47248-.24006.001-.48011.00199-.72016.00298Z" fill="#dbbf8a"/>
  <path d="M35.14125,39.86939c-.22834.02174-.39346-.07065-.39754-.30801-.00402-.23371.16125-.33865.38453-.34392.20527-.00484.42479.02651.41105.28482-.01106.20802-.18459.33058-.39804.36711Z" fill="#dbbf8a"/>
  <path d="M31.56526,34.1499c.00703.15954.01407.31909.02119.47856-.36506-.05522-.69697.4367-1.15156.01471.32509-.323.73405-.39576,1.13036-.49326Z" fill="#dbbf8a"/>
  <path d="M29.4236,41.11311c.15808-.00422.31615-.00843.47417-.0128.32914.05237.71296-.10323.96224.25364-.47801.08082-.92862.32528-1.4342.24127-.00072-.1607-.00147-.32141-.00221-.48211Z" fill="#dbbf8a"/>
  <path d="M23.67198,20.23896c.16055-.00014.3211-.00027.48162-.00035-.03799.30985-.11428.69685-.49049.59545-.36233-.09766-.21619-.39383.00887-.5951Z" fill="#d6b57b"/>
  <path d="M30.62409,32.9672c.09433-.2001.27141-.24318.46852-.248.00254.15831.00517.31656.00781.4748-.19264-.00415-.37024-.04005-.47633-.22681Z" fill="#dbbf8a"/>
  <path d="M45.94423,24.07813c.38091,1.02047.33551,1.57603-1.03821,1.25961-.90956-.20951-1.01968.74835-1.3458,1.32573,2.1623-.46161,2.64641-.28119,2.31199.88005.43746.11447.71776-.30217,1.10729-.32492.41016-.02396.78092.03786,1.11532.6914-1.44286-.29682-2.69179.5462-4.09193-.38114-1.06364-.70447-2.419-.03581-3.61383.21774-.76728.16282-1.50845.42489-2.56649.40789.7315-.46987,1.55352-.69731,1.74651-1.17831.57498-1.433,1.2586-.63096,1.98-.28505.2099.10064.45946.16744.68997.16506.43947-.00454.58793-.4206.69362-.71829.16014-.45107-.30467-.33539-.53063-.40872-.25015-.08118-.41269-.21508-.44725-.52569,1.56127.34766,2.64621-.54066,3.75329-1.36998.07874.08153.15745.16307.23615.24461Z" fill="#e8d4a9"/>
  <path d="M43.39006,16.30241c1.34428-1.62042,2.72559-1.11776,4.21091-.34383-1.40463.36899-2.73779.55004-4.21091.34383Z" fill="#d6b57b"/>
  <path d="M44.2698,18.31428c-.25284-.34676-.62778-.20434-.9582-.24029-.04843-.25925-.09686-.51849-.19895-1.06502,1.01231,1.24064,2.20657.66905,3.26441.85467-.53901.65655-.54894.68393-1.30955.40673-.30194-.11004-.53184.07598-.79772.04391Z" fill="#d6b57b"/>
  <path d="M45.69278,16.83506c.71936,0,1.30323-.02023,1.88436.01091.20497.01098.518.05376.4022.41425-.0661.20579-.33001.38167-.44763.29271-.51307-.38808-1.29815-.08706-1.83893-.71786Z" fill="#d6b57b"/>
  <path d="M42.0007,15.46275c.47421-.40682,1.0369-.55924,1.64613-.57788-.44914.4789-1.01881.61127-1.64613.57788Z" fill="#d6b57b"/>
  <path d="M48.24828,21.54839c-.07019.06547-.1593.20561-.28247.24934-.16174.05742-.29812-.03798-.2973-.2324.00069-.16553.06798-.3061.25543-.32029.15974-.01209.3088.01983.32434.30336Z" fill="#dbbf8a"/>
  <path d="M47.54862,20.9545c-.11753-.07376-.26158-.11346-.28026-.18572-.04924-.19056.10432-.26531.25904-.24499.08054.01057.19747.11625.20643.19012.00805.06645-.10893.14812-.18521.24059Z" fill="#dbbf8a"/>
  <path d="M42.52769,16.73601c.06639.02838.13248.05688.19856.08539-.0286.06617-.04271.16976-.08984.1881-.04805.0187-.12857-.04642-.19487-.07484.02861-.06618.05722-.13235.08615-.19865Z" fill="#d6b57b"/>
  <path d="M58.64249,28.15176c-.23075-.01214-.54297.05309-.63988-.18742-.45839-1.13773-1.24446-1.5863-2.44765-1.29288-.07003.01707-.1797-.12921-.27093-.19944.21451-.47985-.83857-.95984.00012-1.43966.40716-.71602,1.16565-.91808,1.83739-.9102.96987.01137.39093.89796.55463,1.37917-.13539.02781-.34825.02796-.30502.21219.06096.25978.32376.26439.5474.28373,0,0-.00379-.00366-.00376-.00365.08087.63309.57411.43693.95084.47506.27626.07208.70656-.16536.80309.22975.07904.32354-.33633.44182-.55954.45176-.854.03802.40632,1.01618-.46671,1.00161Z" fill="#dabc85"/>
  <path d="M55.28415,25.03236c-.8387.47982.21439.95981-.00012,1.43966-1.12524.49372-1.63556-.53733-2.38807-.96771.19011-.65057.69627-.6279,1.21802-.5772.38979.03788.7801.07036,1.17018.10525Z" fill="#d6b57b"/>
  <path d="M59.82856,28.63528c.44328.1463.86033-.4211,1.40236-.01022-.64751.6357-1.48894.68944-2.23971.9242-.23254.07271-.45258-.13296-.52937-.37659-.11282-.35789.09266-.50478.41838-.54106.31568.12216.63058.43198.94834.00367Z" fill="#e8d4a9"/>
  <path d="M56.95332,20.90432c-.18768.78518-.38564,1.14717-1.22853.84566.41619-.28648.7232-.49782,1.22853-.84566Z" fill="#dabc85"/>
  <path d="M58.86565,26.46865c-.37673-.03813-.86997.15803-.95084-.47506.37126.04908.87878-.17575.95084.47506Z" fill="#e5cfa2"/>
  <path d="M57.91856,25.99724c-.22364-.01934-.48645-.02395-.5474-.28373-.04323-.18423.16963-.18438.30502-.21219.19471.10928.24385.29017.24238.49592Z" fill="#e5cfa2"/>
  <path d="M34.92749,21.9087c-.68865-.28497-1.2966-.10799-1.61733.52427-.23189.45711-.71065.46541-.95875.80917-.53899-.14557-.05804-.79225-.54178-.97816-.46801.3634-.44306,1.19884-1.17424,1.33619-.84786.56228-1.27991-.05182-1.66126-.53112.67735-.90187,2.00679-.95346,2.53339-2.07828.06365-.13595.32385-.24713.49689-.25297,1.1172-.03775,2.13574-.35114,3.12416-.88167.47006-.2523.70009.15632.75689.61037-1.05855-.01257-.63885.96135-.95796,1.44219Z" fill="#d6b57b"/>
  <path d="M26.78572,25.51323c.34814.00309.69472.0038.72247-.4788.47813-.08044.95625-.16088,1.43435-.24133.24176.4972.88681.92163.27841,1.57143-.56427.60267-1.08864.39916-1.65392-.02895-.4148-.31414-.90094.09904-1.34871.00059-.10295-.35182.28871-.36692.3426-.59137.07617-.07789.15247-.15591.22877-.23394l-.00398.00236Z" fill="#dbbf8a"/>
  <path d="M34.92749,21.9087c.31911-.48084-.10059-1.45477.95796-1.44219.66102.06608,1.34074-.11461,2.10613.16138-.47529.56159-1.20134.16473-1.62242.56621-.35163-.13583-.80509-.4579-.80174.2846.00246.54574-.35408.39907-.63993.43Z" fill="#dbbf8a"/>
  <path d="M39.00634,20.47959c-.03518.17141-.03117.37708-.29299.35797-.02743-.002-.07216-.04691-.07414-.07443-.0189-.2621.18539-.25918.35694-.29374-.00007-.00006.01019.01019.01019.01019Z" fill="#dbbf8a"/>
  <path d="M29.4228,24.55323c-.10383.19437-.28068.23581-.47999.23008.05346-.30019.11032-.59315.47999-.23008Z" fill="#d6b57b"/>
  <path d="M9.78555,12.30547c.19298.00634.38666.02604.57875.01575.25565-.01371.54365.33374.74355.04077.26354-.38625-.19798-.49056-.3748-.70632-.27608-.33686-.34954-.68403.01172-1.01964.32215-.00448.50685-.18894.55056-.48633.03011-.20486-.15929-.21602-.30934-.23437,0,0-.00064-.00089-.00065-.00089,1.04269-.73151,2.22059-.70682,3.33759-.37763.43101.12702.81009.10121,1.21408.13695.04394.52496-.55096.40742-.7195.71872-.147.26155-.79646.52533.03157.77608.2326.07044.80405.31112.46868.52888-.66623.43258-.05626.93061-.26075,1.33685l-.00029.00029c-.9016-.22586-1.80336-.46188-2.72447-.01629.17005.38378.53465.18431.73639.36451.24409.21804.15869.56368-.07261.49455-1.01881-.3045-1.96906.57794-2.96988.11329-.00976-.49803.10725-1.00281-.45626-1.3601-.27026-.17136.0296-.28257.21567-.32507Z" fill="#dbbf8a"/>
  <path d="M9.54946,5.35567c-.0005-.15937-.00101-.31874-.00153-.47806.89587-.59559.65257.72397,1.1987.71635-.33301.32591-.77526.37793-1.1976.47985.00015-.23938.00029-.47876.00043-.71815Z" fill="#d8b880"/>
  <path d="M15.057,13.03428c.20448-.40624-.40548-.90427.26075-1.33685.33537-.21775-.23608-.45844-.46868-.52888-.82803-.25075-.17857-.51453-.03157-.77608,1.23629.0889,1.65286,1.42513,2.70983,1.814.12498.04598.20444.35898.49407.34635.88099-.03842,1.04734.45576.857,1.19745-.78924.45083-.7751,1.6571-1.8463,1.82335.29732.50592.61373-.04277.9344.21258-.7911.81802.13299,1.49917.21606,2.28265-.00696.15957-.01377.31907-.02058.47856-.71507-.08669-1.35891-.82972-2.14803-.2342-.51865.68785-1.29902.79104-2.06405.92848.17954-.99743-1.75122-2.41721-3.20378-2.3559-.36048-.2378-.76334-.28468-1.18119-.26349-.00652-.31674-.01321-.63333-.01995-.94995.54836-.449-.04677-1.22676.48116-1.68167,1.0008.4646,1.95104-.41783,2.96985-.11334.23129.06913.3167-.27651.07261-.49455-.20174-.1802-.56634.01927-.73639-.36451.9211-.44559,1.82286-.20957,2.72447.01629.0224.15403.02188.33029.22526.35763.03989.00536.13771-.0931.13222-.13313-.02788-.20347-.20285-.20386-.35719-.22479ZM16.60149,13.12205c-.48811.16515-.5296.56226-.6883.85581-.22485.4159-.47083.63212-.92514.30137-.24953-.18167-.61284-.48004-.77181-.06474-.10761.28111.14762.70175.24057,1.05998.54812-.23268.90556.49014,1.56744.20024,1.35672-.59424.71663-1.45951.57726-2.35266Z" fill="#e5cfa2"/>
  <path d="M2.81314,17.13942c-.11467.07541-.19788.15565-.29622.18501-.05698.01701-.13828-.04783-.20864-.07584.08846-.0706.16932-.15759.26899-.20401.04191-.01952.12359.04672.23586.09484Z" fill="#d6b57b"/>
  <path d="M18.16199,18.54742c.00681-.1595.01362-.31899.02058-.47856.43358.03301.85605-.49746,1.4091.05728-.5388.11639-.7497.88535-1.42968.42128Z" fill="#dabc85"/>
  <path d="M20.97766,20.56616c.06666.02941.1693.04418.18896.0927.019.04692-.04748.12862-.07641.19504-.0665-.02927-.16967-.04374-.18906-.09201-.01899-.04729.04733-.12901.07651-.19574Z" fill="#dbbf8a"/>
  <path d="M22.24023,12.3145c.03092-.17303.02441-.37789.28713-.36211.02721.00164.07264.0471.07426.07435.01565.26335-.18881.25665-.36139.28762v.00015Z" fill="#d8b880"/>
  <path d="M3.36877,15.96929c.69591-.07777,1.1221.0088,1.33685.51329.05895.13848-.04478.31415-.22821.33603-.61577.07346-.62523-.52926-1.10864-.84932Z" fill="#dabc85"/>
  <path d="M9.83432,11.53952c-.25017-.11247-.48679-.2364-.73574-.32581-.24647-.08852-.37764.5309-.6694.13357-.05303-.07221.02247-.32964.11568-.4024.28038-.21884.61174-.43289.96479-.17179.22386.16556.5865.32338.32467.76643Z" fill="#d6b57b"/>
  <path d="M10.98599,9.91532c.15005.01835.33945.02951.30934.23437-.04371.29738-.22841.48185-.55056.48633.08039-.24022.16081-.48046.24122-.7207Z" fill="#d6b57b"/>
  <path d="M17.49247,20.05586c.00827.02988.03147.07834.02191.08605-.0256.02067-.06524.0239-.0993.03406-.00825-.03-.03151-.07853-.02185-.08639.02543-.02068.06518-.02368.09923-.03371Z" fill="#dbbf8a"/>
  <path d="M9.54946,5.35567c-.00014.23938-.00028.47877-.00043.71815-.15475-.00027-.31078.0121-.46396-.00353-.28553-.02915-.70509.0743-.65569-.41113.03776-.37102.40092-.27853.65605-.30039.15364-.01316.30929-.00286.46403-.0031Z" fill="#d6b57b"/>
  <path d="M43.31265,20.71567c-.35696.53669-.82666.73794-1.44784.48894.44409-.27728.78861-.85117,1.44784-.48894Z" fill="#d8b880"/>
  <path d="M40.91729,20.23465c.07698-.29288-.37762-.6081-.03594-.84421.21153-.14617.46525.11972.54234.31835.183.4715-.21117.46908-.50691.52543l.00051.00044Z" fill="#d8b880"/>
  <polygon points="43.07201 19.51443 43.01743 19.61341 42.97317 19.56896 43.07201 19.51443" fill="#dabc85"/>
  <path d="M37.17823,16.53311c-.06546.01927-.09924.02921-.13301.03915-.0082-.02958-.0164-.05916-.0246-.08874.04381.01378.08762.02756.15762.04958Z" fill="#d8b880"/>
  <path d="M27.64183,43.1972c-.34846-.1658-.79099-.25045-.80988-.74974-.00897-.23718.19155-.37681.40071-.24764.30801.19021.88901-.08425.94106.50478.02801.31694-.1907.5006-.53189.4926Z" fill="#d8b880"/>
  <path d="M61.89112,36.44573c.4046.24269,1.13408-.43499,1.20257.32704.04841.53862-.1345,1.3533-.51147,1.61583-.57707.40188-1.03367-.20488-1.30294-.9971-.46742.97843-.8752,1.17292-1.83095.77214-.82418-.34561-1.94166-.026-2.86625.34141-.50501.20068-.36892.58809-.00693.79972.28029.16386.64928.1753.95352.38584-.66454.20666-1.24345-.10192-1.79825-.39398-.27238.26061.23068.82045-.4166.85125-.48412.02304-.74673-.05135-.62141-.66622.06451-.31653-.33322-.3212-.52044-.17469-1.07667.8426-1.38006-.27374-1.61874-.79745-.19711-.43248-.04715-1.03455-.54784-1.40691-.04925-.03663.05096-.27517.0818-.41999.32664.40618,1.22937-.02618,1.21523.5075-.03028,1.144.95741,1.15763,1.50473,1.35839.34263.12568,1.04581-.375,1.65803-.48603.50143-.09094,1.05015-.25826,1.65849-.46251-.42018-.52569-.95932-.19644-1.61597-.48937.95249-.30631,1.69197-.63532,2.40331-1.016.33141-.17736.43061-.28775.2543-.6086-.14569-.26516-.29875-.32097-.55938-.11364-.59386.47243-1.83237-.1608-1.9506,1.13988-.46112-.24185-1.04832.15818-1.44271-.22244-.27204-.26254-.50634-.43443-.89744-.48173-.50866-.06152-.65418-.34042-.14708-.6623.25294-.16056.71867-.22591.44598-.61833-.18659-.26853-.60854-.26118-.99278-.17455-.38636.08711-.41916.45526-.65465.62381-.29818.21345-.71539.28217-.93681-.09739-.19804-.33949.1541-.4878.3994-.60115,1.18638-.54822,2.53407-.37178,3.74865-.82412.25378-.09451.56886.03912.66606.36307.29608.9868.289.97806,1.34674.85069.55411-.06673,1.11313-.10237,1.63128.19596.13549.07801.39276.20213.42546.16311.85307-1.01803,1.29833.26079,1.86233.43441.80582.24807-.39442.50855-.21869.98443ZM61.13422,35.78711c-.40543-.06013-.73465-.4918-1.18391-.23333-.05167.02973-.0663.26507-.01425.31236.37183.33788.77543.25319,1.19816-.07903Z" fill="#e8d4a9"/>
  <path d="M60.08199,31.51199c-.27887-.00388-.54504.00252-.74109-.275-.32969-.4667-.59917-.53038-.73302.14718-.06538.33093-.29979.34277-.52849.15402-.39245-.32387-.82635-.34522-1.22337-.0948-1.26679.79902-2.12738-.18198-2.43928-.9707-.2272-.57451-.37405-1.07095-.86331-1.45458-.04866-.03815-.0427-.25285.01174-.30005.55058-.47736,1.28172-.34378,1.92323-.51684.49115-.1325.63959.37782.72895.76755.17078.7449,1.23355.80103,1.25933,1.65456.00007.00236.22622.03881.30737-.00853.91654-.53469,2.72242-.57047,3.72556-.06016-.42383.39709-1.23837.20885-1.42763.95735Z" fill="#e8d4a9"/>
  <path d="M38.28279,33.67399c-.82389.21122-1.64779.42244-2.55518.65505.74017-1.20463,1.49604-2.0417,2.94829-1.23737.19963.11057.7107-.03304.87869-.22967.72269-.84591,1.38321-.7751,1.9507.04874.61073-.2615-.29021-1.02095.48174-1.02788.33069-.00297.59978.39186.58427.7979-.0227.59438-.52443.75532-.95733.90237-.23657.08036-.51646-.22251-.79886-.0754-.17259.08989-.41243.17845-.47259.32801-.10112.25138.17161.29077.34989.35603.19926.07293.38788.21025.34839.4208-.05847.31173-.35779.24739-.58482.25702-.27784.01178-.55764-.01037-.83446.01051-.70735.05336-1.0837.32268-.62194,1.0624.1319.21131.29308.42598.04278.62279-.29127.229-.37649-.10799-.54662-.24172-.57761-.45405-1.38013-.2432-2.32115-.88351,1.23927.07629,1.93807-.55314,2.79355-.79948.27155-.07819.65374-.09522.62123-.41343-.04854-.47517-.4644-.3174-.73997-.21973-.35798.12688-.53004.04026-.56587-.3327.01805-.03337.03611-.06673.05417-.10009-.0183.03312-.0366.06624-.0549.09936Z" fill="#e8d4a9"/>
  <path d="M30.65933,27.58214c-.19182-.44271-.58207-.57951-.99728-.88063.50049-.24623.80864-.63021,1.34644-.04664.33376.36217.91644.7899,1.17403-.2268.08417-.33219.53873-.52233.89731-.25362.53377.4-.29143.24454-.22611.48427.01799.06602-.0691.16909-.04275.22333.76957,1.58383-.02186,1.12091-.84531.65987-.11577-.06482-.34003-.0743-.43849-.00363-.25343.18193-.12855.38046.01929.604.37415.56569.00239.73812-.46299.6679-.61435-.0927-.96729-.84435-1.69117-.75244-.01305.00166-.10593-.2366-.06598-.28745.0877-.1116.23415-.23959.3613-.24474.30452-.01234.58863.26147.97171.05658Z" fill="#dbbf8a"/>
  <path d="M44.86216,30.41017c-1.42618-.07106-2.83966.33063-4.33147.03688,2.16815-1.39983,2.87953-1.42015,4.33147-.03688Z" fill="#e8d4a9"/>
  <path d="M45.75489,39.76939c.63066-.33278,1.1723-.78075,1.32625-.67287.84592.59273,1.91432.08878,2.72598.65457.19153.13351.21211.32891.10909.52487-.12116.23047-.42838.44993-.56486.28018-.8965-1.115-2.1678-.63383-3.59646-.78675Z" fill="#e8d4a9"/>
  <path d="M33.13221,34.33985q.69517-1.25615,1.92427-.09373c-.64426.44721-1.28458-.52945-1.92427.09373Z" fill="#e8d4a9"/>
  <path d="M57.09687,41.35881c-.40206-.02788-.80536.04588-.82615-.48133-.01407-.35659.21432-.5058.51909-.45911.41976.06431.95685.16966.99159.64346.03218.43918-.48272.20354-.68453.29698Z" fill="#e8d4a9"/>
  <path d="M60.08199,31.51199c.18926-.7485,1.0038-.56026,1.42763-.95735.23961-.07973.47921-.15946.71881-.23919l-.00176-.00178c-.24801,1.2389-1.34107.9584-2.14468,1.19833Z" fill="#dbbf8a"/>
  <path d="M63.66769,28.64501c.78809.08744,1.61893-.1305,2.64836.47827-.9134,0-1.54173,0-2.17004.00011-.30153-.01666-.47202-.16507-.47833-.47838Z" fill="#dbbf8a"/>
  <path d="M52.02771,31.77327c-.4393.30852-.88848.23264-1.36972.14214.30132-1.49484.92637-.15153,1.36972-.14214Z" fill="#dbbf8a"/>
  <path d="M46.97593,31.93497c-.14227.31594-.37832.50244-.71635.51661-.23111.00969-.51668-.0063-.44374-.35226.05465-.25923.16467-.55707.50892-.54351.26327.01037.52717.08825.65118.37916Z" fill="#dbbf8a"/>
  <path d="M27.74656,29.35341c.01494.9277-.66779.94485-1.31643,1.00636.41365-.36835.66568-.94841,1.31799-1.00445l-.00156-.00191Z" fill="#dbbf8a"/>
  <path d="M31.21849,24.95108c-.27944.38101-.52016.80113-1.06723.73029-.06025-.0078-.16664-.21475-.13801-.26828.26518-.49582.76259-.39376,1.20523-.46201Z" fill="#dbbf8a"/>
  <path d="M60.45488,39.83133c-.02161.25741-.20127.31219-.40995.3123-.27138.00014-.59568.04321-.63283-.3434-.02194-.22837.1627-.33452.38491-.34675.30124-.01657.53867.07832.65787.37785Z" fill="#e8d4a9"/>
  <path d="M27.74812,29.35532c.59027-.9097.68064-.16114.96087.22879-.48964.30046-.61068-.34568-.96242-.23068-.00001-.00001.00155.0019.00155.0019Z" fill="#dbbf8a"/>
  <path d="M62.22843,30.31544c.01761-.03289.03522-.06577.05284-.09865-.0182.03229-.03639.06459-.05459.09688,0,0,.00175.00177.00175.00177Z" fill="#dbbf8a"/>
  <path d="M26.7897,25.51087c-.0763.07802-.1526.15605-.22877.23394.07634-.07807.15256-.156.22877-.23394Z" fill="#d6b57b"/>
  <path d="M62.69314,40.85826c.35489-.517.87115-.69159,1.46785-.69515-.00021-.0001.10251-.00189.10251-.00189l.10273.00118c.0078.07531.01468.1507.02072.22611.09798.64766-.39454.74779-.8308.885-.40604.1277-.77519.1396-.86301-.41525Z" fill="#d6b57b"/>
  <path d="M70.36965,26.95553c.00065.07928.00056.15856-.00026.23782-.10464-.03972-.20929-.07942-.31394-.11913.10473-.03957.20946-.07913.31419-.11869Z" fill="#dbbf8a"/>
  <path d="M67.73363,36.53685c-.1537-.01239-.33782-.01228-.33576-.22173.00205-.20891.18756-.21638.34085-.21611.15377.00026.33763.0123.33587.22079-.00176.21031-.18752.20529-.34096.21705Z" fill="#e5cfa2"/>
  <path d="M64.36623,40.1624l-.10273-.00118s-.10273.00179-.10252.00189c.03377-.10567.06734-.21144.10091-.31721.03478.1055.06957.211.10434.3165Z" fill="#dbbf8a"/>
  <path d="M27.05587,22.82829c-.09536-.11255-.20018-.18142-.20876-.26075-.00998-.09226.04121-.25437.10655-.2794.17535-.06717.27731.06293.27246.22635-.00263.08869-.09107.17481-.17026.3138Z" fill="#d8b880"/>
  <path d="M16.60149,13.12205c.13937.89314.77946,1.75842-.57726,2.35266-.66188.2899-1.01932-.43291-1.56744-.20024-.09294-.35823-.34817-.77887-.24057-1.05998.15897-.4153.52228-.11693.77181.06474.45432.33076.70029.11454.92514-.30137.1587-.29355.20019-.69066.6883-.85581Z" fill="#dbbf8a"/>
  <path d="M15.057,13.03428c.15434.02093.32931.02132.35719.22479.00549.04003-.09233.1385-.13222.13313-.20338-.02734-.20286-.2036-.22526-.35763,0,0,.00029-.00029.00029-.00029Z" fill="#dbbf8a"/>
  <path d="M61.13422,35.78711c-.42273.33222-.82633.41691-1.19816.07903-.05205-.0473-.03742-.28264.01425-.31236.44926-.25847.77848.1732,1.18391.23333Z" fill="#e5cfa2"/>
  <path d="M38.28279,33.67399c.0183-.03312.0366-.06624.0549-.09936-.01806.03336-.03611.06673-.05417.10009,0,0-.00073-.00074-.00073-.00074Z" fill="#e5cfa2"/>
</svg>