<?xml version="1.0" encoding="utf-8"?>
<!-- Generator: Adobe Illustrator 29.6.1, SVG Export Plug-In . SVG Version: 9.03 Build 0)  -->
<svg version="1.2" baseProfile="tiny" id="Layer_1" xmlns="http://www.w3.org/2000/svg" xmlns:xlink="http://www.w3.org/1999/xlink"
	 x="0px" y="0px" viewBox="0 0 131.584 192.897" overflow="visible" xml:space="preserve">
<path fill="#161819" d="M131.566,98.52c-0.064-0.32-0.322-0.63-0.561-0.882c-0.929-0.983-1.886-1.94-2.829-2.909
	c-0.991-1.018-2.065-1.974-2.927-3.093c-0.369-0.478-0.553-1.39-0.358-1.941c0.264-0.744,1.108-0.725,1.922-0.727
	c0.95-0.002,1.93-0.318,2.833-0.663c0.295-0.113,0.392-0.746,0.58-1.141c-0.36-0.123-0.714-0.329-1.081-0.354
	c-1.417-0.096-2.844-0.08-4.257-0.208c-1.624-0.148-3.241-0.387-4.854-0.63c-0.323-0.049-0.696-0.227-0.906-0.468
	c-0.618-0.705-1.127-1.506-1.75-2.205c-0.583-0.655-1.318-1.178-1.876-1.85c-0.622-0.75-1.164-1.578-1.66-2.418
	c-0.695-1.176-1.311-2.398-1.973-3.593c-0.063-0.113-0.223-0.171-0.336-0.256c-0.83-0.626-0.981-1.87-2.132-2.256
	c-0.267-0.089-0.356-0.737-0.509-1.135c-0.089-0.231-0.153-0.474-0.212-0.716c-0.187-0.779-0.611-1.193-1.454-0.944
	c-0.599,0.178-0.859-0.114-1.158-0.609c-0.958-1.583-1.946-3.153-3.018-4.66c-0.505-0.708-0.882-1.309-0.856-2.267
	c0.019-0.674-0.435-1.503-0.93-2.024c-1.71-1.803-3.187-3.732-4.098-6.066c-0.7-1.79-1.477-3.551-2.143-5.353
	c-0.349-0.947-0.532-1.955-0.79-2.936c0.068-0.029,0.135-0.058,0.202-0.087c0.291,0.232,0.581,0.463,0.973,0.776
	c-0.055-0.505-0.095-0.879-0.135-1.254c0.082-0.07,0.164-0.14,0.247-0.21c0.314,0.394,0.628,0.789,1.09,1.369
	c-0.303-0.936-0.537-1.66-0.803-2.481c0.494,0.154,0.873,0.272,1.403,0.437c-0.242-0.619-0.429-1.097-0.615-1.576
	c0.093-0.065,0.185-0.129,0.278-0.194c0.166,0.306,0.331,0.611,0.497,0.917c0.068-0.052,0.137-0.104,0.206-0.156
	c-0.239-0.588-0.478-1.176-0.798-1.963c0.569,0.359,0.935,0.589,1.301,0.82c-0.218-0.909-0.602-1.685-0.985-2.463
	c-0.045-0.091-0.122-0.264-0.117-0.266c0.924-0.477-0.071-0.607-0.186-0.677c-0.418-0.258-0.901-0.411-1.361-0.602
	c-0.09-0.037-0.182-0.069-0.517-0.195c0.6-0.055,0.844-0.077,1.087-0.099c0.013-0.069,0.027-0.138,0.04-0.206
	c-0.62-0.256-1.241-0.512-1.873-0.772c0.271-0.137,0.511-0.258,0.983-0.497c-1.59-0.455-2.949-0.845-4.311-1.235
	c0.106-0.12,0.24-0.272,0.47-0.532c-1.205-0.137-2.262-0.258-3.53-0.402c0.483-0.379,0.756-0.594,1.238-0.972h-2.341
	c0.321-0.231,0.507-0.365,0.937-0.675c-1.87-0.088-3.478-0.164-5.086-0.24c-0.005-0.079-0.01-0.157-0.016-0.236
	c0.466-0.104,0.932-0.208,1.275-0.285c-0.23-0.206-0.672-0.407-0.73-0.686c-0.511-2.478-2.047-4.253-3.843-5.883
	c-0.502-0.457-0.907-1.021-1.356-1.535c1.042,0.419,1.879,1.051,2.765,1.607c1.141,0.717,1.86,1.693,2.24,2.991
	c0.228,0.776,0.586,1.533,1.01,2.223c0.254,0.414,0.747,0.681,1.132,1.014c-1.722-1.757-1.853-4.09-2.582-6.222
	c0.694,0.174,1.293,0.41,1.727,0.82c0.451,0.427,0.744,1.022,1.263,1.77c-0.358-1.567-1.067-2.494-2.26-3.098
	c-0.328-0.166-0.78-0.616-0.745-0.878c0.219-1.644-0.668-2.741-1.687-3.801c-0.214-0.223-0.448-0.427-0.672-0.639
	c0.05-0.048,0.1-0.095,0.151-0.143c0.488,0.373,0.976,0.746,1.464,1.12c0.085-0.08,0.17-0.159,0.255-0.238
	c-2.828-1.922-5.683-3.82-6.789-7.442c1.051,1.261,1.996,2.394,2.941,3.527c0.082-0.072,0.164-0.144,0.246-0.216
	c-0.352-0.385-0.704-0.771-1.203-1.317c0.474,0.042,0.675,0.06,0.982,0.087c-1.547-1.107-3.271-3.427-3.35-4.552
	c-0.289-4.079-2.529-6.751-6.082-8.471c-0.665-0.321-1.287-0.521-1.492-1.428c-0.088-0.395-0.89-0.892-1.344-0.869
	c-0.468,0.024-1.213,0.565-1.293,0.984c-0.15,0.785-0.573,1.023-1.194,1.256c-3.938,1.479-6.054,4.32-6.355,8.524
	c-0.023,0.328-0.178,0.693-0.383,0.952c-1.001,1.264-2.04,2.497-2.962,3.616c0.215-0.111,0.622-0.322,1.153-0.598
	c-0.415,0.623-0.736,1.104-1.057,1.585c0.082,0.054,0.164,0.108,0.246,0.161c0.79-1.103,1.58-2.206,2.536-3.543
	c-0.106,0.408-0.129,0.54-0.174,0.664c-0.096,0.268-0.205,0.531-0.306,0.797c-0.976,2.578-2.927,4.219-5.257,5.513
	c-0.379,0.21-0.675,0.569-1.01,0.859c0.046,0.046,0.093,0.092,0.139,0.138c0.359-0.287,0.718-0.573,1.078-0.86
	c-0.24,0.615-0.657,1.04-0.978,1.528c-0.475,0.719-1.204,1.411-0.703,2.399c0.368,0.725,0.012,0.992-0.588,1.271
	c-0.864,0.401-1.466,1.074-1.823,1.866c0.892-0.52,1.768-1.03,2.893-1.685c-0.558,1.373-0.964,2.393-1.387,3.405
	c-0.424,1.013-0.865,2.019-1.299,3.029c0.557-0.64,1.119-1.344,1.407-2.147c1.003-2.794,2.407-4.354,5.26-5.5
	c-0.994,1.104-2.035,2.163-3.094,3.203c-1.147,1.126-1.55,2.558-1.763,4.078c0.617-1.05,1.233-2.101,1.85-3.152
	c0.1,0.058,0.2,0.116,0.3,0.175c-0.182,0.415-0.48,0.817-0.527,1.247c-0.205,1.859-1.033,2.85-3.059,2.493
	c0.646,0.092,1.293,0.183,1.939,0.275c-0.013,0.075-0.026,0.149-0.04,0.224c-1.564,0.096-3.128,0.193-4.928,0.304
	c0.456,0.315,0.655,0.452,0.969,0.67c-0.846,0.072-1.52,0.129-2.385,0.203c0.516,0.276,0.824,0.44,1.131,0.605
	c-0.022,0.111-0.044,0.221-0.067,0.332c-0.733,0-1.469-0.032-2.2,0.015c-0.326,0.021-0.661,0.166-0.958,0.32
	c-0.231,0.119-0.382,0.417-0.616,0.499c-1.075,0.376-2.167,0.703-3.405,1.096c0.433,0.216,0.699,0.348,0.973,0.485
	c-0.748,0.322-1.452,0.625-2.373,1.022c0.458,0.148,0.612,0.198,0.766,0.248c-1.597,0.241-1.619,1.79-2.298,2.737
	c-0.236,0.33-0.037,0.972-0.037,1.475c0.254-0.165,0.61-0.397,1.11-0.723c-0.283,0.903-0.515,1.639-0.746,2.375
	c0.117,0.084,0.234,0.167,0.351,0.251c0.234-0.377,0.468-0.753,0.702-1.13c0.075,0.047,0.15,0.094,0.225,0.14
	c-0.103,1.044-0.205,2.088-0.307,3.132c0.051,0.009,0.102,0.018,0.153,0.027c0.22-0.384,0.44-0.769,0.825-1.443
	c0.033,0.763,0.053,1.219,0.077,1.748c0.203-0.238,0.389-0.409,0.515-0.616c0.137-0.226,0.218-0.487,0.323-0.732
	c0.122,0.112,0.245,0.224,0.367,0.336c-1.351,5.467-3.225,10.67-7.41,14.734c-0.655,0.636-0.934,1.398-0.553,2.332
	c0.09,0.22-0.002,0.607-0.151,0.82c-1.299,1.863-2.647,3.693-3.939,5.561c-0.286,0.414-0.479,0.779-1.066,0.556
	c-0.807-0.307-1.2,0.149-1.422,0.84c-0.175,0.542-0.282,1.108-0.493,1.635c-0.125,0.311-0.39,0.803-0.596,0.805
	c-0.874,0.008-1.064,0.501-1.132,1.211c-0.018,0.183-0.166,0.452-0.318,0.508c-1.467,0.539-1.279,2.3-2.394,3.176
	c-0.627,0.492-0.633,1.721-1.216,2.337c-0.68,0.718-1.027,1.781-2.113,2.148c-0.35,0.119-0.702,0.553-0.84,0.923
	c-0.652,1.751-1.979,2.347-3.718,2.368c-0.602,0.007-1.221,0.039-1.799,0.188c-2.052,0.529-4.106,0.871-6.228,0.462
	c-0.235-0.045-0.628,0.043-0.735,0.208c-0.116,0.177-0.07,0.578,0.063,0.773c0.23,0.337,0.541,0.762,0.89,0.845
	c0.943,0.223,1.929,0.252,2.886,0.422c0.563,0.101,1.283,0.171,1.597,0.54c0.262,0.308,0.208,1.12-0.014,1.55
	c-0.364,0.708-0.935,1.329-1.494,1.915c-1.573,1.647-3.202,3.24-4.77,4.892c-0.399,0.42-0.918,1.029-0.274,1.548
	c0.222,0.178,0.995-0.077,1.341-0.353c1.333-1.064,2.594-2.22,3.889-3.333c0.16-0.138,0.367-0.223,0.553-0.333
	c0.071,0.06,0.143,0.12,0.215,0.179c-0.182,0.309-0.335,0.64-0.551,0.923c-1.17,1.526-2.393,3.013-3.503,4.581
	c-0.228,0.322-0.051,0.931-0.06,1.408c0.477-0.096,0.965-0.158,1.427-0.304c0.174-0.055,0.295-0.296,0.43-0.461
	c1.129-1.377,2.245-2.764,3.389-4.126c0.217-0.258,0.545-0.423,0.822-0.631c0.082,0.073,0.164,0.146,0.246,0.219
	c-0.553,1.01-1.101,2.023-1.662,3.029c-0.346,0.621-0.788,1.201-1.041,1.856c-0.121,0.315,0.098,0.76,0.162,1.146
	c0.374-0.082,0.83-0.059,1.102-0.271c0.38-0.295,0.656-0.745,0.917-1.165c0.697-1.118,1.351-2.262,2.046-3.381
	c0.209-0.338,0.495-0.628,0.746-0.94c0.11,0.032,0.22,0.064,0.331,0.095c0,0.416,0.061,0.843-0.013,1.245
	c-0.186,1.015-0.484,2.011-0.626,3.031c-0.045,0.323,0.261,0.696,0.406,1.046c0.327-0.223,0.742-0.384,0.955-0.687
	c0.235-0.333,0.28-0.798,0.413-1.204c0.627-1.916,1.009-3.904,2.433-5.512c1.108-1.25,1.97-2.718,2.941-4.089
	c0.215-0.22,0.716-0.273,1.013-0.546c0.829-0.762,1.508-1.694,2.366-2.417c1.7-1.433,3.476-2.776,5.23-4.145
	c1.216-0.949,2.473-1.847,3.665-2.825c1.065-0.875,2.235-1.699,3.051-2.778c1.056-1.398,1.152-1.712,2.657-2.635
	c0.605-0.371,1.206-0.759,1.75-1.21c0.249-0.207,0.525-0.603,0.498-0.884c-0.118-1.202,0.552-1.996,1.226-2.842
	c0.439-0.551,0.71-1.231,1.126-1.803c0.765-1.054,1.58-2.071,2.377-3.101c0.432-0.559,0.938-1.074,1.292-1.678
	c0.926-1.585,1.786-3.208,2.672-4.816c0.56,2.92,2.199,5.58,1.889,8.67c-0.122,1.217-0.134,2.466,0.713,3.464
	c0.538,0.635,0.46,1.164,0.123,1.834c-0.317,0.628-0.554,1.309-0.723,1.993c-0.076,0.305,0.008,0.731,0.18,1.001
	c0.663,1.043,0.53,2.081-0.283,2.766c0.044,2.514-0.809,4.686-1.363,6.932c-0.477-2.737-0.751-5.457-1.051-8.174
	c-0.069-0.622-0.044-1.133,0.495-1.597c0.227-0.196,0.344-0.736,0.253-1.045c-0.381-1.299-1.999-1.963-3.225-1.392
	c-1.253,0.584-1.673,2.24-0.658,2.803c0.547,0.304,0.623,0.64,0.649,1.158c0.14,2.81,0.246,5.625,0.49,8.427
	c0.092,1.05-0.164,1.611-1.149,2.015c-0.665,0.273-1.339,0.742-1.757,1.309c-0.241,0.326-0.078,1.062,0.113,1.527
	c0.057,0.14,0.845,0.07,1.255-0.05c0.457-0.134,0.866-0.435,1.525-0.785c0,2.844,0.334,5.517-0.075,8.071
	c-0.68,4.243-1.936,8.39-2.77,12.613c-1.434,7.264-2.719,14.558-4.092,21.835c-0.298,1.583-0.185,1.935,1.301,2.677
	c1.266,0.633,2.551,1.23,3.912,1.883c-0.328,0.684-0.54,1.387-0.952,1.94c-1.166,1.561-0.793,3.059,0.018,4.582
	c0.101,0.188,0.164,0.403,0.291,0.57c0.593,0.776,0.397,1.48-0.059,2.258c-1.06,1.811-2.054,3.661-3.074,5.496
	c-0.64,1.151-0.436,2.322,0.597,2.931c1.727,1.018,1.812,2.463,1.64,4.141c-0.08,0.777,0.035,1.574-0.055,2.348
	c-0.052,0.44-0.284,0.887-0.531,1.269c-0.385,0.594-0.618,1.112,0.071,1.653c0.2,0.157,0.462,0.425,0.451,0.629
	c-0.058,1.098,0.46,2.264-0.388,3.287c-0.134,0.161-0.138,0.616-0.007,0.783c0.997,1.274,0.9,2.564,0.27,3.958
	c-0.131,0.291,0.091,0.794,0.258,1.15c0.137,0.293,0.432,0.512,0.659,0.767c-0.753,0.614-0.753,0.614-0.211,2.743
	c-0.22,0.556-0.375,1.131-0.343,1.696c0.026,0.484,0.469,1.002,0.374,1.426c-0.26,1.162-0.552,2.366-1.111,3.403
	c-1.156,2.142-2.677,4.031-4.62,5.543c-0.805,0.627-1.602,1.268-1.196,2.658l15.608,0.003c-0.039-0.375-0.083-0.75-0.102-1.127
	H49.85c-0.108-1.217-0.265-2.351-0.295-3.488c-0.03-1.118,0.051-2.24,0.121-3.359c0.035-0.559,0.196-1.111,0.227-1.67
	c0.084-1.499,0.128-3.001,0.188-4.501c0.104-0.029,0.208-0.058,0.312-0.087c0.524,0.477,1.047,0.954,1.571,1.432
	c0.066-0.049,0.132-0.098,0.199-0.147c-0.081-0.187-0.128-0.401-0.25-0.557c-0.48-0.617-0.951-1.247-1.488-1.812
	c-0.694-0.732-0.408-1.319,0.277-1.728c0.666-0.396,0.642-0.873,0.221-1.286c-0.646-0.636-0.584-1.296-0.36-2.047
	c0.203-0.681,0.399-1.37,0.524-2.068c0.119-0.664,0.295-1.084,1.122-1.102c0.675-0.015,0.873-1.04,0.254-1.694
	c-0.508-0.537-0.451-1.027-0.331-1.646c0.341-1.767,0.629-3.544,0.946-5.362c0.54,0.146,1.075,0.319,1.623,0.432
	c0.787,0.163,1.148-0.212,1.102-0.99c-0.023-0.39-0.049-0.787-0.139-1.166c-0.361-1.52-0.162-2.961,0.586-4.321
	c0.484-0.879,0.315-1.676-0.108-2.532c-1.322-2.681-1.32-2.721,1.215-4.177c1.04-0.597,1.676-1.298,1.676-2.584
	c-0.001-1.199,0.21-2.398,0.33-3.63h12.898c0.18,1.333,0.387,2.699,0.541,4.071c0.081,0.725,0.335,1.266,1.027,1.605
	c0.507,0.249,0.971,0.593,1.436,0.92c1.374,0.964,1.447,1.239,0.796,2.832c-0.094,0.231-0.168,0.478-0.304,0.682
	c-0.827,1.244-0.693,2.511,0.016,3.709c0.741,1.253,0.209,2.504,0.144,3.751c-0.105,2.013,0.265,2.28,2.17,1.458
	c0.186-0.08,0.387-0.128,0.472-0.156c0.403,1.985,0.821,3.924,1.165,5.876c0.055,0.309-0.16,0.726-0.364,1.011
	c-0.73,1.024-0.578,1.543,0.568,1.989c0.234,0.091,0.443,0.42,0.531,0.683c0.248,0.741,0.395,1.516,0.641,2.258
	c0.258,0.775,0.37,1.453-0.28,2.147c-0.449,0.478-0.534,1.013,0.249,1.471c0.544,0.318,0.711,0.935,0.204,1.542
	c-0.624,0.748-1.221,1.521-1.829,2.282c0.052,0.082,0.105,0.164,0.158,0.245c0.542-0.421,1.084-0.843,1.843-1.434
	c0.157,1.504,0.298,2.822,0.434,4.142c0.071,0.691,0.14,1.382,0.196,2.075c0.086,1.08,0.253,2.164,0.215,3.24
	c-0.043,1.207-0.276,2.406-0.437,3.691h-0.174c0.024,0.101,0.038,0.203,0.037,0.302c-0.003,0.331-0.101,0.608-0.262,0.831
	l16.062,0.003c0.158-1.356-0.541-2.071-1.387-2.739c-2.207-1.745-4.004-3.844-5.198-6.404c-0.616-1.319-0.938-2.684-0.053-4.068
	c0.136-0.212,0.127-0.744-0.03-0.879c-0.615-0.53-0.387-1.098-0.164-1.643c0.287-0.702,0.589-1.357-0.432-1.673
	c0.213-0.376,0.299-0.687,0.503-0.859c0.637-0.535,0.6-1.01,0.086-1.629c-0.44-0.529-0.101-2.582,0.312-3.212
	c0.196-0.299,0.294-0.861,0.144-1.154c-0.595-1.161-0.409-2.952,0.366-3.97c0.218-0.285,0.196-1.139-0.028-1.303
	c-0.686-0.499-0.62-1.135-0.649-1.801c-0.045-1.032-0.029-2.074-0.178-3.092c-0.166-1.142,0.107-1.861,1.16-2.528
	c1.835-1.162,1.958-2.024,0.942-3.955c-0.646-1.229-1.247-2.495-2.021-3.64c-1.084-1.604-1.512-3.148-0.243-4.839
	c0.164-0.218,0.206-0.528,0.308-0.794c0.34-0.88,0.338-1.711-0.204-2.541c-0.5-0.765-0.918-1.583-1.43-2.478
	c0.514-0.256,0.951-0.47,1.385-0.689c1.173-0.592,2.394-1.109,3.491-1.819c0.395-0.256,0.757-1.021,0.679-1.476
	c-0.526-3.048-1.274-6.059-1.767-9.111c-2.065-12.773-4.787-25.394-8.443-37.811c-0.136-0.461-0.079-1.078,0.116-1.522
	c0.93-2.117,1.908-4.215,2.948-6.281c0.176-0.347,0.721-0.67,1.123-0.708c0.755-0.07,1.173-0.408,1.427-1.071
	c0.75-1.955-0.763-3.842-2.85-3.549c-1.275,0.179-1.748,0.543-1.601,1.659c0.297,2.259-1.618,3.244-2.471,4.842
	c-0.136-0.187-0.138-0.332-0.183-0.462c-0.398-1.152-1.175-2.26-0.03-3.485c0.217-0.232-0.004-0.954-0.142-1.415
	c-0.131-0.434-0.532-0.802-0.607-1.235c-0.087-0.498-0.146-1.208,0.13-1.526c0.855-0.987,1.016-2.042,0.845-3.27
	c-0.122-0.876-0.294-1.821-0.095-2.651c0.518-2.153,1.229-4.26,1.921-6.579c0.485,0.986,0.847,1.864,1.328,2.671
	c0.853,1.429,1.738,2.842,2.688,4.207c0.62,0.888,1.421,1.648,2.062,2.524c0.628,0.859,1.201,1.767,1.713,2.701
	c0.344,0.63,0.522,1.349,0.81,2.013c0.204,0.472,0.369,1.031,0.73,1.35c0.576,0.511,1.259,0.953,1.97,1.246
	c1.104,0.454,1.954,1.024,2.152,2.314c0.046,0.297,0.377,0.587,0.639,0.806c1.277,1.064,2.573,2.107,3.867,3.151
	c1.017,0.82,2.019,1.663,3.07,2.438c0.874,0.645,1.865,1.139,2.704,1.822c0.928,0.757,1.625,1.866,2.64,2.428
	c1.023,0.565,1.272,2.166,2.781,1.999c0.053-0.006,0.127,0.308,0.216,0.459c0.571,0.973,0.986,2.105,1.759,2.879
	c1.638,1.639,2.46,3.621,3.037,5.78c0.193,0.719,0.446,1.43,0.758,2.104c0.101,0.217,0.485,0.416,0.733,0.409
	c0.158-0.004,0.392-0.387,0.435-0.629c0.053-0.299-0.034-0.631-0.099-0.941c-0.189-0.905-0.443-1.8-0.579-2.713
	c-0.057-0.381,0.119-0.797,0.189-1.197c0.111-0.006,0.223-0.012,0.334-0.018c0.213,0.354,0.417,0.714,0.641,1.062
	c0.96,1.495,1.902,3.004,2.915,4.463c0.149,0.215,0.862,0.348,0.935,0.246c0.225-0.311,0.454-0.83,0.336-1.132
	c-0.241-0.616-0.741-1.124-1.076-1.71c-0.602-1.051-1.161-2.127-1.737-3.192c0.109-0.08,0.219-0.16,0.329-0.239
	c0.395,0.375,0.82,0.722,1.177,1.13c1.172,1.34,2.311,2.71,3.482,4.051c0.37,0.425,0.818,0.972,1.423,0.438
	c0.569-0.503,0.155-1.036-0.182-1.51c-0.062-0.087-0.124-0.174-0.19-0.258c-1.069-1.379-2.145-2.753-3.202-4.142
	c-0.197-0.26-0.317-0.58-0.472-0.872c0.092-0.067,0.185-0.134,0.277-0.201c0.58,0.501,1.154,1.01,1.741,1.503
	c0.978,0.822,1.949,1.654,2.962,2.431c0.198,0.152,0.726,0.198,0.835,0.069C131.531,99.247,131.627,98.823,131.566,98.52z
	 M51.397,31.949c-0.115-0.09-0.23-0.179-0.346-0.269c0.755-0.965,1.51-1.929,2.265-2.894c0.087,0.063,0.173,0.126,0.259,0.188
	C52.897,30.004,52.385,31.166,51.397,31.949z M50.027,24.112c-0.787-0.891,0.119-2.536,1.691-3.277
	C51.15,21.935,50.601,23.001,50.027,24.112z M51.225,23.729c-0.084-0.069-0.168-0.138-0.252-0.207
	c1.091-1.359,2.182-2.717,3.274-4.076c0.09,0.074,0.181,0.148,0.271,0.223C53.892,21.413,52.385,22.427,51.225,23.729z
	 M79.942,21.066c1.05,0.84,2.167,1.632,2.214,3.188c-0.085,0.059-0.17,0.118-0.255,0.178c-0.728-1.069-1.456-2.138-2.184-3.207
	C79.792,21.172,79.867,21.119,79.942,21.066z M77.312,19.403c1.023,1.141,2.047,2.281,3.07,3.421l-0.273,0.267
	c-1.252-0.95-2.482-1.918-3.068-3.446C77.131,19.565,77.222,19.484,77.312,19.403z M80.227,31.841c-0.667-0.964-1.333-1.928-2-2.893
	c0.078-0.057,0.157-0.115,0.236-0.172c0.717,0.926,1.435,1.853,2.153,2.779C80.486,31.65,80.357,31.746,80.227,31.841z
	 M81.431,31.253c-0.137-0.51-0.229-1.037-0.418-1.526c-0.171-0.443-0.447-0.847-0.676-1.268c0.132-0.08,0.264-0.16,0.397-0.24
	c0.725,1.201,1.451,2.402,2.189,3.625C81.794,32.236,81.681,32.186,81.431,31.253z"/>
</svg>
