<svg viewBox="0 0 512 512" xmlns="http://www.w3.org/2000/svg"><path d="M110.93 494.84H8.53c-4.719 0-8.533 3.823-8.533 8.533s3.814 8.533 8.533 8.533h102.4c4.719 0 8.533-3.823 8.533-8.533s-3.814-8.533-8.533-8.533zM426.67 494.84h-93.389l9.685-179.2h6.905c9.412 0 17.067-7.654 17.067-17.067v-51.2c0-9.412-7.654-17.067-17.067-17.067h-2.288l1.8-33.222a17.192 17.192 0 00-4.668-12.655 17.172 17.172 0 00-12.382-5.325h-11.74l21.701-46.538 42.137-15.462a8.49 8.49 0 004.787-4.403l25.173-53.973a8.517 8.517 0 00-1.442-9.37 8.533 8.533 0 00-9.207-2.253l-37.35 13.594-13.585-37.342a8.542 8.542 0 00-7.646-5.615c-3.448-.102-6.647 1.792-8.107 4.924l-25.165 53.973a8.506 8.506 0 00-.29 6.502l15.235 42.214-25.062 53.749h-37.235V122.89l31.65-31.808a8.504 8.504 0 002.483-6.016V8.616A8.527 8.527 0 00293.413.74c-3.157-1.323-6.835-.606-9.293 1.826L256.003 30.53 227.886 2.566A8.538 8.538 0 00218.593.74a8.527 8.527 0 00-5.256 7.876v76.45c0 2.253.887 4.42 2.483 6.016l31.65 31.808v56.214h-37.235l-25.063-53.751 15.24-42.215a8.527 8.527 0 00-.29-6.494l-25.165-53.982c-1.459-3.123-4.693-5.043-8.115-4.915a8.52 8.52 0 00-7.637 5.606l-13.594 37.342-37.35-13.594c-3.217-1.178-6.869-.29-9.207 2.253a8.545 8.545 0 00-1.442 9.378l25.173 53.973a8.56 8.56 0 004.796 4.403l42.132 15.455 21.702 46.539h-11.734a17.159 17.159 0 00-12.382 5.325 17.199 17.199 0 00-4.668 12.663l1.793 33.214h-2.286c-9.412 0-17.067 7.654-17.067 17.067v51.2c0 9.412 7.654 17.067 17.067 17.067h6.905l9.685 179.2h-33.656c-4.719 0-8.533 3.823-8.533 8.533s3.814 8.533 8.533 8.533h281.6c4.719 0 8.533-3.823 8.533-8.533s-3.816-8.531-8.535-8.531zM375.24 102.3l-22.72 8.336 15.01-32.19 22.685-8.257L375.24 102.3zm-46.396-21.641l14.968-32.111 8.257 22.686-15.009 32.189-8.216-22.764zm-47.241.883l-17.067 17.152V46.117l17.067-16.978v52.403zm-51.2 0V29.139l17.067 16.977v52.578l-17.067-17.152zm-62.205-32.989l14.959 32.102-8.215 22.761-15.006-32.184 8.262-22.679zm-31.436 53.743l-14.976-32.111 22.687 8.254 15.012 32.193-22.723-8.336zm213.11 196.28h-85.333v-51.2h85.333v51.2zm-102.39 17.065H213.34v-85.334h34.133l.001 8.518-.001.017v68.267c0 .052.007.101.008.153l.001 8.379zm-67.799-119.47h152.65l-1.85 34.135h-65.946v-.002c0-9.412-7.654-17.067-17.067-17.067h-34.133c-9.412 0-17.067 7.654-17.067 17.067v.002h-14.748l-1.842-34.135zm-17.543 51.202h34.133v51.2H162.14v-51.2zm33.681 247.46l-1.381-25.575h53.033c4.719 0 8.533-3.823 8.533-8.533s-3.814-8.533-8.533-8.533h-53.955l-.923-17.091h29.278c4.719 0 8.533-3.823 8.533-8.533s-3.814-8.533-8.533-8.533h-30.2l-5.53-102.4h10.13c.001 9.412 7.655 17.065 17.067 17.065h34.133c9.412 0 17.066-7.653 17.067-17.065h61.33l-9.677 179.2h-120.37zM503.47 494.84h-42.667c-4.719 0-8.533 3.823-8.533 8.533s3.814 8.533 8.533 8.533h42.667c4.719 0 8.533-3.823 8.533-8.533s-3.814-8.533-8.533-8.533z"/></svg>
