<?xml version="1.0" encoding="UTF-8"?>
<svg enable-background="new 0 0 512 512" version="1.1" viewBox="0 0 512 512" xml:space="preserve" xmlns="http://www.w3.org/2000/svg">
<path d="m110.93 494.84h-102.4c-4.719 0-8.533 3.823-8.533 8.533s3.814 8.533 8.533 8.533h102.4c4.719 0 8.533-3.823 8.533-8.533s-3.814-8.533-8.533-8.533z"/>
<path d="m426.67 494.84h-93.389l9.685-179.2h6.905c9.412 0 17.067-7.654 17.067-17.067v-51.2c0-9.412-7.654-17.067-17.067-17.067h-2.288l1.8-33.222c0.239-4.659-1.459-9.267-4.668-12.655-3.209-3.379-7.731-5.325-12.382-5.325h-11.74l21.701-46.538 42.137-15.462c2.116-0.777 3.84-2.355 4.787-4.403l25.173-53.973c1.459-3.132 0.896-6.827-1.442-9.37-2.33-2.543-5.956-3.43-9.207-2.253l-37.35 13.594-13.585-37.342c-1.178-3.251-4.207-5.461-7.646-5.615-3.448-0.102-6.647 1.792-8.107 4.924l-25.165 53.973c-0.956 2.048-1.058 4.378-0.29 6.502l15.235 42.214-25.062 53.749h-37.235v-56.214l31.65-31.808c1.596-1.596 2.483-3.763 2.483-6.016v-76.45c0-3.447-2.074-6.554-5.257-7.876-3.157-1.323-6.835-0.606-9.293 1.826l-28.117 27.964-28.117-27.964c-2.449-2.432-6.127-3.149-9.293-1.826-3.183 1.323-5.256 4.429-5.256 7.876v76.45c0 2.253 0.887 4.42 2.483 6.016l31.65 31.808v56.214h-37.235l-25.063-53.751 15.24-42.215c0.768-2.116 0.657-4.454-0.29-6.494l-25.165-53.982c-1.459-3.123-4.693-5.043-8.115-4.915-3.439 0.145-6.46 2.364-7.637 5.606l-13.594 37.342-37.35-13.594c-3.217-1.178-6.869-0.29-9.207 2.253-2.33 2.543-2.901 6.246-1.442 9.378l25.173 53.973c0.956 2.039 2.68 3.627 4.796 4.403l42.132 15.455 21.702 46.539h-11.734c-4.659 0-9.173 1.946-12.382 5.325-3.209 3.388-4.907 7.996-4.668 12.663l1.793 33.214h-2.286c-9.412 0-17.067 7.654-17.067 17.067v51.2c0 9.412 7.654 17.067 17.067 17.067h6.905l9.685 179.2h-33.656c-4.719 0-8.533 3.823-8.533 8.533s3.814 8.533 8.533 8.533h281.6c4.719 0 8.533-3.823 8.533-8.533s-3.816-8.531-8.535-8.531zm-51.43-392.54l-22.72 8.336 15.01-32.19 22.685-8.257-14.975 32.111zm-46.396-21.641l14.968-32.111 8.257 22.686-15.009 32.189-8.216-22.764zm-47.241 0.883l-17.067 17.152v-52.577l17.067-16.978v52.403zm-51.2 0v-52.403l17.067 16.977v52.578l-17.067-17.152zm-62.205-32.989l14.959 32.102-8.215 22.761-15.006-32.184 8.262-22.679zm-31.436 53.743l-14.976-32.111 22.687 8.254 15.012 32.193-22.723-8.336zm213.11 196.28h-85.333v-51.2h85.333v51.2zm-102.39 17.065h-34.142v-85.334h34.133l1e-3 8.518c0 6e-3 -1e-3 0.011-1e-3 0.017v68.267c0 0.052 7e-3 0.101 8e-3 0.153l1e-3 8.379zm-67.799-119.47h152.65l-1.85 34.135h-65.946v-2e-3c0-9.412-7.654-17.067-17.067-17.067h-34.133c-9.412 0-17.067 7.654-17.067 17.067v2e-3h-14.748l-1.842-34.135zm-17.543 51.202h34.133v51.2h-34.133v-51.2zm33.681 247.46l-1.381-25.575h53.033c4.719 0 8.533-3.823 8.533-8.533s-3.814-8.533-8.533-8.533h-53.955l-0.923-17.091h29.278c4.719 0 8.533-3.823 8.533-8.533s-3.814-8.533-8.533-8.533h-30.2l-5.53-102.4h10.13c1e-3 9.412 7.655 17.065 17.067 17.065h34.133c9.412 0 17.066-7.653 17.067-17.065h61.33l-9.677 179.2h-120.37z"/>
<path d="m503.47 494.84h-42.667c-4.719 0-8.533 3.823-8.533 8.533s3.814 8.533 8.533 8.533h42.667c4.719 0 8.533-3.823 8.533-8.533s-3.814-8.533-8.533-8.533z"/>
</svg>
