<svg width="511pt" height="511pt" viewBox="0 -27 511.91 511" xmlns="http://www.w3.org/2000/svg"><path d="M135.94 411.96a8.002 8.002 0 01-7.96-7.32l-15.896-185.81-21.168-38.512c-2.137-3.864-.719-8.735 3.16-10.855 3.856-2.13 8.735-.719 10.855 3.16l21.992 40c.535.976.864 2.059.961 3.168l16.04 187.5a7.99 7.99 0 01-7.29 8.648c-.23.016-.469.024-.695.024zM82.387 136.57c-2.2 0-4.383-.914-5.945-2.648l-50.48-56.113a8.04 8.04 0 01-1.977-6.497 8.044 8.044 0 013.73-5.671l104-64a7.99 7.99 0 0111.009 2.617c2.312 3.77 1.144 8.695-2.618 11.008L44.274 74.243l39.648 44.078 87.863-52.72c3.801-2.28 8.715-1.038 10.977 2.747 2.274 3.789 1.047 8.703-2.742 10.973L86.5 135.434a8.051 8.051 0 01-4.113 1.137z"/><path d="M79.906 176.77a7.902 7.902 0 01-3.184-.664l-71.914-31.2a7.995 7.995 0 01-4.558-5.358 7.97 7.97 0 011.449-6.899L40.004 83.54c2.703-3.488 7.734-4.113 11.223-1.387 3.488 2.715 4.106 7.747 1.383 11.227l-31.941 40.961 57.039 24.75 65.488-75.855c2.87-3.359 7.941-3.718 11.277-.832 3.344 2.88 3.722 7.938.832 11.281l-69.328 80.31a8.024 8.024 0 01-6.07 2.777z"/><path d="M87.914 216.46a8.517 8.517 0 01-1.742-.184l-72-16c-4.152-.918-6.852-4.925-6.16-9.128l7.964-48c.723-4.36 4.852-7.329 9.204-6.575 4.359.72 7.3 4.84 6.574 9.2l-6.727 40.52 57.422 12.762 21.816-69.746a7.968 7.968 0 0110.023-5.239c4.211 1.313 6.563 5.809 5.242 10.023l-24 76.762a7.98 7.98 0 01-7.617 5.606zM375.95 411.96a7.993 7.993 0 01-7.977-8.68l16.043-187.5a7.95 7.95 0 01.957-3.168l21.992-40c2.13-3.87 7.008-5.28 10.86-3.16 3.87 2.129 5.285 6.992 3.156 10.855l-21.168 38.512-15.895 185.81a8.01 8.01 0 01-7.97 7.328zM429.51 136.57a8.003 8.003 0 01-4.121-1.145l-93.52-56.113c-3.793-2.269-5.016-7.183-2.746-10.972a7.995 7.995 0 0110.977-2.747l87.863 52.72 39.648-44.079-95.824-58.96c-3.758-2.313-4.926-7.239-2.614-11.009 2.301-3.77 7.215-4.937 11.008-2.617l104 64a8.028 8.028 0 013.727 5.672 8.022 8.022 0 01-1.977 6.496l-50.48 56.113a8.026 8.026 0 01-5.94 2.64z"/><path d="M431.98 176.77a7.974 7.974 0 01-6.055-2.777l-69.328-80.31c-2.886-3.343-2.511-8.402.832-11.28 3.336-2.887 8.403-2.528 11.281.832l65.488 75.855 57.04-24.75-31.946-40.961c-2.718-3.489-2.101-8.512 1.387-11.227a7.981 7.981 0 0111.223 1.386l38.305 49.11a7.999 7.999 0 011.445 6.898 7.976 7.976 0 01-4.558 5.36l-71.91 31.198a8.104 8.104 0 01-3.203.664z"/><path d="M423.98 216.46a7.982 7.982 0 01-7.621-5.606l-24-76.762c-1.32-4.214 1.031-8.71 5.238-10.023a7.985 7.985 0 0110.023 5.239l21.816 69.746 57.426-12.762-6.73-40.52c-.727-4.36 2.218-8.488 6.578-9.2 4.43-.8 8.488 2.223 9.199 6.575l7.969 48a8.01 8.01 0 01-6.16 9.129l-72 16a8.48 8.48 0 01-1.739.183zM375.98 16.461H135.9a7.99 7.99 0 01-8-8c0-4.422 3.574-8 8-8h240.08c4.426 0 8 3.578 8 8 0 4.426-3.574 8-8 8zM119.91 224.46a8.005 8.005 0 01-7.078-4.254c-2.074-3.906-.578-8.746 3.328-10.816l136-72c3.918-2.074 8.742-.57 10.812 3.328 2.074 3.903.578 8.742-3.328 10.816l-136 72a8.015 8.015 0 01-3.735.926z"/><path d="M391.94 224.46a8.027 8.027 0 01-3.734-.926l-136-72c-3.907-2.074-5.403-6.906-3.328-10.816a7.997 7.997 0 0110.816-3.328l136 72a8.001 8.001 0 013.328 10.816 8.016 8.016 0 01-7.082 4.254zM255.95 224.46c-.918 0-1.863-.16-2.781-.504l-80-29.672c-4.145-1.535-6.258-6.144-4.723-10.28 1.527-4.142 6.145-6.263 10.281-4.72l80 29.672c4.145 1.535 6.254 6.145 4.719 10.281a7.986 7.986 0 01-7.496 5.223z"/><path d="M255.95 224.46a8.011 8.011 0 01-7.504-5.215 7.998 7.998 0 014.723-10.28l80-29.673c4.14-1.543 8.742.578 10.277 4.723a7.993 7.993 0 01-4.719 10.277l-80 29.672a8.05 8.05 0 01-2.777.496zM255.95 304.46c-.918 0-1.863-.16-2.781-.504l-80-29.672c-4.145-1.535-6.258-6.144-4.723-10.28 1.527-4.142 6.145-6.27 10.281-4.72l80 29.672c4.145 1.535 6.254 6.145 4.719 10.281a7.986 7.986 0 01-7.496 5.223z"/><path d="M255.95 304.46a8.011 8.011 0 01-7.504-5.215 7.998 7.998 0 014.723-10.28l80-29.673c4.14-1.558 8.742.578 10.277 4.723a7.993 7.993 0 01-4.719 10.277l-80 29.672a8.05 8.05 0 01-2.777.496zM255.95 384.46c-.918 0-1.863-.16-2.781-.504l-80-29.672c-4.145-1.535-6.258-6.144-4.723-10.28 1.527-4.142 6.145-6.263 10.281-4.72l80 29.672c4.145 1.535 6.254 6.145 4.719 10.281a7.986 7.986 0 01-7.496 5.223z"/><path d="M255.95 384.46a8.011 8.011 0 01-7.504-5.215 7.998 7.998 0 014.723-10.28l80-29.673c4.14-1.543 8.742.578 10.277 4.723a7.993 7.993 0 01-4.719 10.277l-80 29.672a8.05 8.05 0 01-2.777.496zM255.95 456.46c-.918 0-1.863-.16-2.781-.504l-120-44.504c-4.145-1.535-6.258-6.144-4.723-10.28 1.527-4.142 6.16-6.278 10.281-4.72l120 44.504c4.145 1.535 6.254 6.145 4.719 10.281a7.986 7.986 0 01-7.496 5.223z"/><path d="M255.95 456.46a8.011 8.011 0 01-7.504-5.215 7.998 7.998 0 014.723-10.28l120-44.505c4.14-1.558 8.75.578 10.277 4.723a7.993 7.993 0 01-4.719 10.277l-120 44.504a8.05 8.05 0 01-2.777.496zM175.91 80.461a7.996 7.996 0 01-6.793-3.758l-40-64c-2.344-3.754-1.2-8.687 2.535-11.023a7.987 7.987 0 0111.027 2.535l40 64c2.344 3.75 1.2 8.688-2.539 11.023a7.885 7.885 0 01-4.23 1.223zM335.98 80.461c-1.445 0-2.91-.39-4.23-1.215-3.743-2.336-4.88-7.273-2.536-11.023l40-64c2.336-3.754 7.27-4.89 11.023-2.535 3.743 2.336 4.88 7.27 2.536 11.023l-40 64a8.006 8.006 0 01-6.793 3.75zM255.94 80.461a7.958 7.958 0 01-4.992-1.75l-80-64c-3.446-2.77-4.008-7.8-1.246-11.25 2.773-3.43 7.8-4.008 11.246-1.246l80 64c3.449 2.765 4.008 7.8 1.25 11.246a8.014 8.014 0 01-6.258 3z"/><path d="M255.95 80.461a7.977 7.977 0 01-6.254-3c-2.762-3.457-2.191-8.488 1.246-11.246l80-64a8 8 0 0111.25 1.246c2.75 3.45 2.192 8.488-1.25 11.25l-80 64a7.95 7.95 0 01-4.992 1.75z"/><path d="M255.95 104.46c-4.422 0-8-3.574-8-8v-24c0-4.422 3.578-8 8-8 4.426 0 8 3.578 8 8v24c0 4.426-3.574 8-8 8zM175.95 426.77c-4.422 0-8-3.574-8-8V186.79c0-4.422 3.578-8 8-8 4.426 0 8 3.578 8 8v231.98c0 4.426-3.574 8-8 8zM335.95 426.77c-4.422 0-8-3.574-8-8V186.79c0-4.422 3.578-8 8-8 4.426 0 8 3.578 8 8v231.98c0 4.426-3.574 8-8 8z"/></svg>
