<?xml version="1.0" encoding="UTF-8"?>
<svg width="511pt" height="511pt" viewBox="0 -27 511.91 511" xmlns="http://www.w3.org/2000/svg">
<path d="m135.94 411.96c-4.1094 0-7.6055-3.1523-7.9609-7.3203l-15.895-185.81-21.168-38.512c-2.1367-3.8633-0.71875-8.7344 3.1602-10.855 3.8555-2.1289 8.7344-0.71875 10.855 3.1602l21.992 40c0.53516 0.97656 0.86328 2.0586 0.96094 3.168l16.039 187.5c0.375 4.4023-2.8789 8.2734-7.2891 8.6484-0.23047 0.015625-0.46875 0.023437-0.69531 0.023437z"/>
<path d="m82.387 136.57c-2.1992 0-4.3828-0.91406-5.9453-2.6484l-50.48-56.113c-1.582-1.7656-2.3125-4.1445-1.9766-6.4961 0.34766-2.3516 1.7148-4.4297 3.7305-5.6719l104-64c3.7734-2.3203 8.6875-1.1523 11.008 2.6172 2.3125 3.7695 1.1445 8.6953-2.6172 11.008l-95.832 58.977 39.648 44.078 87.863-52.719c3.8008-2.2812 8.7148-1.0391 10.977 2.7461 2.2734 3.7891 1.0469 8.7031-2.7422 10.973l-93.52 56.113c-1.2812 0.76172-2.707 1.1367-4.1133 1.1367z"/>
<path d="m79.906 176.77c-1.0781 0-2.1602-0.21484-3.1836-0.66406l-71.914-31.199c-2.2617-0.98438-3.9492-2.9609-4.5586-5.3594-0.61719-2.4023-0.078125-4.9453 1.4492-6.8984l38.305-49.109c2.7031-3.4883 7.7344-4.1133 11.223-1.3867 3.4883 2.7148 4.1055 7.7461 1.3828 11.227l-31.941 40.961 57.039 24.75 65.488-75.855c2.8711-3.3594 7.9414-3.7188 11.277-0.83203 3.3438 2.8789 3.7227 7.9375 0.83203 11.281l-69.328 80.309c-1.5664 1.8086-3.7969 2.7773-6.0703 2.7773z"/>
<path d="m87.914 216.46c-0.57422 0-1.168-0.0625-1.7422-0.18359l-72-16c-4.1523-0.91797-6.8516-4.9258-6.1602-9.1289l7.9648-48c0.72266-4.3594 4.8516-7.3281 9.2031-6.5742 4.3594 0.71875 7.3008 4.8398 6.5742 9.1992l-6.7266 40.52 57.422 12.762 21.816-69.746c1.3125-4.2148 5.7773-6.5742 10.023-5.2383 4.2109 1.3125 6.5625 5.8086 5.2422 10.023l-24 76.762c-1.0586 3.3906-4.1836 5.6055-7.6172 5.6055z"/>
<path d="m375.95 411.96c-0.22266 0-0.46484-0.007812-0.6875-0.03125-4.4062-0.375-7.6641-4.2461-7.2891-8.6484l16.043-187.5c0.09375-1.1211 0.42188-2.1914 0.95703-3.168l21.992-40c2.1289-3.8711 7.0078-5.2812 10.859-3.1602 3.8711 2.1289 5.2852 6.9922 3.1562 10.855l-21.168 38.512-15.895 185.81c-0.35938 4.1758-3.8555 7.3281-7.9688 7.3281z"/>
<path d="m429.51 136.57c-1.418 0-2.832-0.375-4.1211-1.1445l-93.52-56.113c-3.793-2.2695-5.0156-7.1836-2.7461-10.973 2.2734-3.7852 7.1758-5.0273 10.977-2.7461l87.863 52.719 39.648-44.078-95.824-58.961c-3.7578-2.3125-4.9258-7.2383-2.6133-11.008 2.3008-3.7695 7.2148-4.9375 11.008-2.6172l104 64c2.0156 1.2422 3.3828 3.3203 3.7266 5.6719 0.33594 2.3555-0.39062 4.7305-1.9766 6.4961l-50.48 56.113c-1.5586 1.7188-3.7344 2.6406-5.9414 2.6406z"/>
<path d="m431.98 176.77c-2.2695 0-4.5039-0.96875-6.0547-2.7773l-69.328-80.309c-2.8867-3.3438-2.5117-8.4023 0.83203-11.281 3.3359-2.8867 8.4023-2.5273 11.281 0.83203l65.488 75.855 57.039-24.75-31.945-40.961c-2.7188-3.4883-2.1016-8.5117 1.3867-11.227 3.4805-2.7266 8.5117-2.1016 11.223 1.3867l38.305 49.109c1.5195 1.9531 2.0625 4.5039 1.4453 6.8984-0.60547 2.3984-2.293 4.375-4.5586 5.3594l-71.91 31.199c-1.0508 0.44922-2.1289 0.66406-3.2031 0.66406z"/>
<path d="m423.98 216.46c-3.4297 0-6.5586-2.207-7.6211-5.6055l-24-76.762c-1.3203-4.2148 1.0312-8.7109 5.2383-10.023 4.2422-1.3281 8.7031 1.0312 10.023 5.2383l21.816 69.746 57.426-12.762-6.7305-40.52c-0.72656-4.3594 2.2188-8.4883 6.5781-9.1992 4.4297-0.80078 8.4883 2.2227 9.1992 6.5742l7.9688 48c0.69531 4.1953-2.0078 8.2031-6.1602 9.1289l-72 16c-0.57812 0.12109-1.1602 0.18359-1.7383 0.18359z"/>
<path d="m375.98 16.461h-240.08c-4.4258 0-8-3.5742-8-8 0-4.4219 3.5742-8 8-8h240.08c4.4258 0 8 3.5781 8 8 0 4.4258-3.5742 8-8 8z"/>
<path d="m119.91 224.46c-2.8633 0-5.6406-1.543-7.0781-4.2539-2.0742-3.9062-0.57813-8.7461 3.3281-10.816l136-72c3.918-2.0742 8.7422-0.57031 10.812 3.3281 2.0742 3.9023 0.57813 8.7422-3.3281 10.816l-136 72c-1.1992 0.62891-2.4766 0.92578-3.7344 0.92578z"/>
<path d="m391.94 224.46c-1.2539 0-2.5352-0.29688-3.7344-0.92578l-136-72c-3.9062-2.0742-5.4023-6.9062-3.3281-10.816 2.0703-3.8984 6.8867-5.4023 10.816-3.3281l136 72c3.9023 2.0703 5.3984 6.9023 3.3281 10.816-1.4414 2.7109-4.2188 4.2539-7.082 4.2539z"/>
<path d="m255.95 224.46c-0.91797 0-1.8633-0.16016-2.7812-0.50391l-80-29.672c-4.1445-1.5352-6.2578-6.1445-4.7227-10.281 1.5273-4.1406 6.1445-6.2617 10.281-4.7188l80 29.672c4.1445 1.5352 6.2539 6.1445 4.7188 10.281-1.1914 3.2305-4.2461 5.2227-7.4961 5.2227z"/>
<path d="m255.95 224.46c-3.2461 0-6.3047-1.9922-7.5039-5.2148-1.5352-4.1445 0.57812-8.7461 4.7227-10.281l80-29.672c4.1406-1.543 8.7422 0.57812 10.277 4.7227 1.5352 4.1406-0.57422 8.7422-4.7188 10.277l-80 29.672c-0.91406 0.33594-1.8555 0.49609-2.7773 0.49609z"/>
<path d="m255.95 304.46c-0.91797 0-1.8633-0.16016-2.7812-0.50391l-80-29.672c-4.1445-1.5352-6.2578-6.1445-4.7227-10.281 1.5273-4.1406 6.1445-6.2695 10.281-4.7188l80 29.672c4.1445 1.5352 6.2539 6.1445 4.7188 10.281-1.1914 3.2305-4.2461 5.2227-7.4961 5.2227z"/>
<path d="m255.95 304.46c-3.2461 0-6.3047-1.9922-7.5039-5.2148-1.5352-4.1445 0.57812-8.7461 4.7227-10.281l80-29.672c4.1406-1.5586 8.7422 0.57812 10.277 4.7227 1.5352 4.1406-0.57422 8.7422-4.7188 10.277l-80 29.672c-0.91406 0.33594-1.8555 0.49609-2.7773 0.49609z"/>
<path d="m255.95 384.46c-0.91797 0-1.8633-0.16016-2.7812-0.50391l-80-29.672c-4.1445-1.5352-6.2578-6.1445-4.7227-10.281 1.5273-4.1406 6.1445-6.2617 10.281-4.7188l80 29.672c4.1445 1.5352 6.2539 6.1445 4.7188 10.281-1.1914 3.2305-4.2461 5.2227-7.4961 5.2227z"/>
<path d="m255.95 384.46c-3.2461 0-6.3047-1.9922-7.5039-5.2148-1.5352-4.1445 0.57812-8.7461 4.7227-10.281l80-29.672c4.1406-1.543 8.7422 0.57812 10.277 4.7227 1.5352 4.1406-0.57422 8.7422-4.7188 10.277l-80 29.672c-0.91406 0.33594-1.8555 0.49609-2.7773 0.49609z"/>
<path d="m255.95 456.46c-0.91797 0-1.8633-0.16016-2.7812-0.50391l-120-44.504c-4.1445-1.5352-6.2578-6.1445-4.7227-10.281 1.5273-4.1406 6.1602-6.2773 10.281-4.7188l120 44.504c4.1445 1.5352 6.2539 6.1445 4.7188 10.281-1.1914 3.2305-4.2461 5.2227-7.4961 5.2227z"/>
<path d="m255.95 456.46c-3.2461 0-6.3047-1.9922-7.5039-5.2148-1.5352-4.1445 0.57812-8.7461 4.7227-10.281l120-44.504c4.1406-1.5586 8.75 0.57812 10.277 4.7227 1.5352 4.1406-0.57422 8.7422-4.7188 10.277l-120 44.504c-0.91406 0.33594-1.8555 0.49609-2.7773 0.49609z"/>
<path d="m175.91 80.461c-2.6641 0-5.2734-1.3281-6.793-3.7578l-40-64c-2.3438-3.7539-1.1992-8.6875 2.5352-11.023 3.7617-2.3555 8.6836-1.2109 11.027 2.5352l40 64c2.3438 3.75 1.1992 8.6875-2.5391 11.023-1.3164 0.83203-2.7812 1.2227-4.2305 1.2227z"/>
<path d="m335.98 80.461c-1.4453 0-2.9102-0.39063-4.2305-1.2148-3.7422-2.3359-4.8789-7.2734-2.5352-11.023l40-64c2.3359-3.7539 7.2695-4.8906 11.023-2.5352 3.7422 2.3359 4.8789 7.2695 2.5352 11.023l-40 64c-1.5195 2.4219-4.1289 3.75-6.793 3.75z"/>
<path d="m255.94 80.461c-1.75 0-3.5117-0.56641-4.9922-1.75l-80-64c-3.4453-2.7695-4.0078-7.8008-1.2461-11.25 2.7734-3.4297 7.8008-4.0078 11.246-1.2461l80 64c3.4492 2.7656 4.0078 7.8008 1.25 11.246-1.5859 1.9688-3.9062 3-6.2578 3z"/>
<path d="m255.95 80.461c-2.3516 0-4.6719-1.0234-6.2539-3-2.7617-3.457-2.1914-8.4883 1.2461-11.246l80-64c3.4648-2.7695 8.4961-2.1992 11.25 1.2461 2.75 3.4492 2.1914 8.4883-1.25 11.25l-80 64c-1.4805 1.1836-3.2383 1.75-4.9922 1.75z"/>
<path d="m255.95 104.46c-4.4219 0-8-3.5742-8-8v-24c0-4.4219 3.5781-8 8-8 4.4258 0 8 3.5781 8 8v24c0 4.4258-3.5742 8-8 8z"/>
<path d="m175.95 426.77c-4.4219 0-8-3.5742-8-8v-231.98c0-4.4219 3.5781-8 8-8 4.4258 0 8 3.5781 8 8v231.98c0 4.4258-3.5742 8-8 8z"/>
<path d="m335.95 426.77c-4.4219 0-8-3.5742-8-8v-231.98c0-4.4219 3.5781-8 8-8 4.4258 0 8 3.5781 8 8v231.98c0 4.4258-3.5742 8-8 8z"/>
</svg>
