<?xml version="1.0" encoding="UTF-8"?>
<svg width="512" height="512" viewBox="0 0 64 64" xmlns="http://www.w3.org/2000/svg">
<path d="M59.22,24.98A3.03,3.03,0,0,0,57,24H53.51L52.14,13.99A6,6,0,0,0,52,2H12a6,6,0,0,0-.14,11.99L10.49,24H7.19A3,3,0,0,0,4.2,27.27L5.75,44.36A3.987,3.987,0,0,0,9.74,48H12v9a5,5,0,0,0,5,5H47a5,5,0,0,0,5-5V48h2.45a3.987,3.987,0,0,0,3.99-3.64l1.55-17.09A3.015,3.015,0,0,0,59.22,24.98ZM8,8a3.978,3.978,0,0,1,4-4H52a4.009,4.009,0,0,1,2.84,6.83A4.045,4.045,0,0,1,52,12H12A4,4,0,0,1,8,8Zm38,6V25a1,1,0,0,1-2,0V14ZM20,14V25a1,1,0,0,1-2,0V14ZM12,46H9.74a1.985,1.985,0,0,1-1.99-1.82L7.28,39H12Zm0-9H7.09L6.2,27.09a.944.944,0,0,1,.25-.76A.985.985,0,0,1,7.19,26h3.03l-.59,4.33A5,5,0,0,0,12,35.27ZM50,53H21v2H50v2a3.009,3.009,0,0,1-3,3H17a3.009,3.009,0,0,1-3-3V35.94a5.7,5.7,0,0,0,.58.06H28v1a4,4,0,0,0,8,0V36H49.42a5.7,5.7,0,0,0,.58-.06ZM30,37V33a2.006,2.006,0,0,1,2-2,2.015,2.015,0,0,1,2,2v4a2,2,0,0,1-4,0Zm20.62-3.25a3.039,3.039,0,0,1-1.2.25H36V33a4,4,0,0,0-8,0v1H14.58a2.994,2.994,0,0,1-2.97-3.41L13.87,14H16V25a3,3,0,0,0,6,0V14H42V25a3,3,0,0,0,6,0V14h2.13l2.26,16.59A3.02,3.02,0,0,1,50.62,33.75Zm5.82,10.43A1.985,1.985,0,0,1,54.45,46H52V39h4.91ZM57.1,37H52V35.27a5.012,5.012,0,0,0,2.37-4.94L53.78,26H57a.985.985,0,0,1,.74.33.944.944,0,0,1,.25.76Z"/>
<rect x="16" y="53" width="3" height="2"/>
</svg>
