<svg width="512" height="512" viewBox="0 0 64 64" xmlns="http://www.w3.org/2000/svg"><path d="M59.22 24.98A3.03 3.03 0 0057 24h-3.49l-1.37-10.01A6 6 0 0052 2H12a6 6 0 00-.14 11.99L10.49 24h-3.3a3 3 0 00-2.99 3.27l1.55 17.09A3.987 3.987 0 009.74 48H12v9a5 5 0 005 5h30a5 5 0 005-5v-9h2.45a3.987 3.987 0 003.99-3.64l1.55-17.09a3.015 3.015 0 00-.77-2.29zM8 8a3.978 3.978 0 014-4h40a4.009 4.009 0 012.84 6.83A4.045 4.045 0 0152 12H12a4 4 0 01-4-4zm38 6v11a1 1 0 01-2 0V14zm-26 0v11a1 1 0 01-2 0V14zm-8 32H9.74a1.985 1.985 0 01-1.99-1.82L7.28 39H12zm0-9H7.09l-.89-9.91a.944.944 0 01.25-.76.985.985 0 01.74-.33h3.03l-.59 4.33A5 5 0 0012 35.27zm38 16H21v2h29v2a3.009 3.009 0 01-3 3H17a3.009 3.009 0 01-3-3V35.94a5.7 5.7 0 00.58.06H28v1a4 4 0 008 0v-1h13.42a5.7 5.7 0 00.58-.06zM30 37v-4a2.006 2.006 0 012-2 2.015 2.015 0 012 2v4a2 2 0 01-4 0zm20.62-3.25a3.039 3.039 0 01-1.2.25H36v-1a4 4 0 00-8 0v1H14.58a2.994 2.994 0 01-2.97-3.41L13.87 14H16v11a3 3 0 006 0V14h20v11a3 3 0 006 0V14h2.13l2.26 16.59a3.02 3.02 0 01-1.77 3.16zm5.82 10.43A1.985 1.985 0 0154.45 46H52v-7h4.91zM57.1 37H52v-1.73a5.012 5.012 0 002.37-4.94L53.78 26H57a.985.985 0 01.74.33.944.944 0 01.25.76z"/><path d="M16 53h3v2h-3z"/></svg>
