<svg width="350pt" height="350pt" version="1.0" viewBox="0 0 350 350" xmlns="http://www.w3.org/2000/svg"><path d="M99.3 61.5C96 62.9 92 68.2 92 71c0 1.3-1.4 1.6-7.2 1.5-7.8 0-11.6 1.6-14.1 5.9-.9 1.5-1.3 13.3-1.7 41.1-.5 35-.7 39.4-2.4 43.3-1 2.3-2.8 4.9-3.9 5.7-1.8 1.3-2.5 1-8.1-3.9-8-6.9-13.1-10.3-24.9-16.5-13.6-7.1-20.2-6.9-25.4.8-2.6 3.8-3 9.3-.9 13.1.8 1.4 5.2 5.7 9.8 9.6 10.2 8.6 15.8 15.5 22.2 27 10 18.1 19.8 29.6 32.9 38.9l5.7 4v21.1c0 15 .3 21.3 1.2 22.2 1.7 1.7 64.9 1.7 66.6 0 .8-.8 1.2-6.7 1.2-19.9v-18.8l5.5-7.3c9.2-12.1 13.9-26.4 16.5-49.3.6-5.7 1.1-26.4 1-47.8 0-33.3-.2-38.1-1.6-40.3-2.5-3.7-6.6-5.4-13.4-5.4h-6v-6.1c0-5.8-.2-6.4-3.9-10-3.8-3.8-4-3.9-11.5-3.9H122v-3.9c0-9.4-12.3-15.1-22.7-10.6zm14.1 8.7c1.4 1.9 1.5 5.4 1 24.3-.3 12.1-.2 24 .3 26.4 1 5.4 3.5 7.4 6 4.8 1.6-1.5 1.8-4.2 2.1-20.5.3-10.6.8-19.2 1.4-20 .6-.6 3.2-1.2 5.9-1.2 7.9 0 8.2 1.1 7.4 23.7-.3 10.3-.3 20.8.2 23.2 1 5.3 3.5 7.4 6 4.9 1.3-1.4 1.7-4.5 2.2-16.5l.6-14.8 5.2-.3c4.5-.3 5.3 0 6.4 1.9 1.7 3.3.5 73.6-1.5 88.5-2.7 18.9-8 32.5-16.8 42.8l-4.1 4.8.4 35.8H82l-.2-20.2-.3-20.2-8-6c-14.8-11.1-20.8-18.4-33.9-41-5.8-10.2-12.2-17.5-22.2-25.7-6.1-5-7.4-6.5-7.4-8.9 0-2.1.8-3.5 2.6-4.7 2.5-1.6 2.8-1.6 11.2 2.6 12.4 6.2 21.7 12.4 28 18.8 4.9 5.1 5.6 5.5 8.8 5 7.1-1.2 13.1-8.6 15-18.3.4-2.1.8-20.2.8-40.2.1-34.8.2-36.4 2-37.8 2.3-1.6 7.9-1.8 10.7-.4 1.7 1 1.9 2.3 2 13.3 0 14.5.8 19.6 3.1 21.1 1.4.8 2.2.7 3.5-.7 1.6-1.6 1.8-4 1.8-22.6 0-24 0-24.1 7.6-24.1 3.8 0 5.1.4 6.3 2.2z"/><path d="M84 181.5V221h56v-13H99v-66H84v39.5zM235.4 61.4c-4.5 2-7.4 6.2-7.4 10.7V76h-7.6c-7.5 0-7.7.1-11.5 3.9-3.7 3.6-3.9 4.2-3.9 10V96h-6c-6.8 0-10.9 1.7-13.4 5.4-1.4 2.2-1.6 7-1.6 40.3-.1 21.4.4 42.1 1 47.8 2.6 22.9 7.3 37.2 16.5 49.3l5.5 7.3v18.8c0 13.2.4 19.1 1.2 19.9 1.7 1.7 64.9 1.7 66.6 0 .9-.9 1.2-7.2 1.2-22.2v-21.1l5.7-4c13.1-9.3 22.9-20.8 32.9-38.9 6.4-11.5 12-18.4 22.2-27 4.6-3.9 9-8.2 9.8-9.6 2.1-3.8 1.7-9.3-.9-13.1-5.2-7.7-11.8-7.9-25.4-.8-11.8 6.2-16.9 9.6-24.9 16.5-5.6 4.9-6.3 5.2-8.1 3.9-1.1-.8-2.9-3.4-3.9-5.7-1.7-3.9-1.9-8.3-2.4-43.3-.4-27.8-.8-39.6-1.7-41.1-2.5-4.3-6.3-5.9-14-5.9-5.9.1-7.3-.2-7.3-1.5 0-2.9-4.1-8.1-7.5-9.6-4.3-1.7-11-1.8-15.1 0zm13.7 8.3c1.1 1.2 1.4 6.2 1.4 22.4 0 18.6.2 21 1.8 22.6 1.3 1.4 2.1 1.5 3.5.7 2.3-1.5 3.1-6.6 3.1-21.1.1-11 .3-12.3 2-13.3 2.8-1.4 8.4-1.2 10.7.4 1.8 1.4 1.9 3 2 37.8 0 20 .4 38.1.8 40.2 1.9 9.7 7.9 17.1 15 18.3 3.2.5 3.9.1 8.8-5 6.3-6.4 15.6-12.6 28-18.8 8.4-4.2 8.7-4.2 11.2-2.6 1.8 1.2 2.6 2.6 2.6 4.7 0 2.4-1.3 3.9-7.4 8.9-10 8.2-16.4 15.5-22.2 25.7-13.1 22.6-19.1 29.9-33.9 41l-8 6-.3 20.2-.2 20.2h-54.1l.4-35.8-4.1-4.8c-8.8-10.3-14.1-23.9-16.8-42.8-2-14.9-3.2-85.2-1.5-88.5 1.1-1.9 1.9-2.2 6.4-1.9l5.2.3.6 14.8c.5 12 .9 15.1 2.2 16.5 2.5 2.5 5 .4 6-4.9.5-2.4.5-12.9.2-23.2-.8-22.6-.5-23.7 7.4-23.7 2.7 0 5.3.6 5.9 1.2.6.8 1.1 9.4 1.4 20 .3 16.3.5 19 2.1 20.5 2.5 2.6 5 .6 6-4.8.5-2.4.6-14.3.3-26.4-.7-26-.6-26.5 7.3-26.5 3.3 0 5.3.5 6.2 1.7z"/><path d="M208 183.5V223h15V193.3l13.8-.5c13.2-.4 14.1-.6 19.3-3.5 7.3-4.1 10.9-9.9 11.6-18.6.7-8.9-1.5-15.3-7.1-20.5-5.8-5.3-10.5-6.2-33.6-6.2h-19v39.5zm40.1-24.2c5.4 3.6 6.4 10.7 2.3 15.6-3.2 3.9-7.7 5.1-18.6 5.1H223v-23.2l11.3.4c8.5.3 11.8.8 13.8 2.1z"/></svg>
