<svg viewBox="0 0 452.02 452.02" xmlns="http://www.w3.org/2000/svg"><path d="M362.61 34.125h-55.2l13.6-13.6c4.7-4.7 4.7-12.3 0-17s-12.3-4.7-17 0l-34 34.1c-2.3 2.3-3.5 5.3-3.5 8.5s1.3 6.2 3.5 8.5l34.1 34.1c2.3 2.3 5.4 3.5 8.5 3.5s6.1-1.2 8.5-3.5c4.7-4.7 4.7-12.3 0-17l-13.6-13.6h55.2c35.9 0 65 29.2 65 65v40.3c0 6.6 5.4 12 12 12s12-5.4 12-12v-40.3c0-49.1-40-89-89.1-89zM438.81 230.92h-197.1c-6.6 0-12 5.4-12 12v197.1c0 6.6 5.4 12 12 12h197.1c6.6 0 12-5.4 12-12v-197.1c0-6.7-5.4-12-12-12zm-12 197.1h-173.1v-173.1h173.1v173.1zM147.91 363.32c-4.7-4.7-12.3-4.7-17 0s-4.7 12.3 0 17l13.6 13.6h-55.2c-35.9 0-65-29.2-65-65v-40.3c0-6.6-5.4-12-12-12s-12 5.4-12 12v40.3c0 49.1 39.9 89 89 89h55.2l-13.6 13.6c-4.7 4.7-4.7 12.3 0 17 2.3 2.3 5.4 3.5 8.5 3.5s6.1-1.2 8.5-3.5l34.1-34.1c4.7-4.7 4.7-12.3 0-17l-34.1-34.1zM13.212 24.025c3.2 0 6.3-1.3 8.5-3.5s3.5-5.3 3.5-8.5c0-3.1-1.3-6.3-3.5-8.5s-5.3-3.5-8.5-3.5-6.3 1.3-8.5 3.5-3.5 5.3-3.5 8.5 1.3 6.3 3.5 8.5c2.3 2.2 5.3 3.5 8.5 3.5zM111.81 24.025c6.6 0 12-5.4 12-12s-5.4-12-12-12-12 5.4-12 12 5.3 12 12 12zM62.512 24.025c6.6 0 12-5.4 12-12s-5.4-12-12-12-12 5.4-12 12 5.4 12 12 12zM161.01 24.025c6.6 0 12-5.4 12-12s-5.4-12-12-12-12 5.4-12 12 5.4 12 12 12zM210.31.025c-3.1 0-6.3 1.3-8.5 3.5s-3.5 5.3-3.5 8.5 1.3 6.3 3.5 8.5 5.3 3.5 8.5 3.5 6.3-1.3 8.5-3.5 3.5-5.3 3.5-8.5-1.3-6.3-3.5-8.5-5.3-3.5-8.5-3.5zM210.31 147.92c-6.6 0-12 5.4-12 12s5.4 12 12 12 12-5.4 12-12c0-6.7-5.3-12-12-12zM210.31 98.625c-6.6 0-12 5.4-12 12s5.4 12 12 12 12-5.4 12-12c0-6.7-5.3-12-12-12zM210.31 49.325c-6.6 0-12 5.4-12 12s5.4 12 12 12 12-5.4 12-12-5.3-12-12-12zM210.31 197.12c-3.2 0-6.3 1.3-8.5 3.5s-3.5 5.3-3.5 8.5c0 3.1 1.3 6.3 3.5 8.5s5.3 3.5 8.5 3.5 6.3-1.3 8.5-3.5 3.5-5.3 3.5-8.5-1.3-6.3-3.5-8.5c-2.199-2.2-5.3-3.5-8.5-3.5zM161.01 221.12c6.6 0 12-5.4 12-12s-5.4-12-12-12-12 5.4-12 12c0 6.7 5.4 12 12 12zM111.81 221.12c6.6 0 12-5.4 12-12s-5.4-12-12-12-12 5.4-12 12c0 6.7 5.3 12 12 12zM62.512 221.12c6.6 0 12-5.4 12-12s-5.4-12-12-12-12 5.4-12 12c0 6.7 5.4 12 12 12zM13.212 221.12c3.2 0 6.3-1.3 8.5-3.5s3.5-5.3 3.5-8.5-1.3-6.3-3.5-8.5-5.3-3.5-8.5-3.5-6.3 1.3-8.5 3.5-3.5 5.3-3.5 8.5c0 3.1 1.3 6.3 3.5 8.5 2.3 2.2 5.3 3.5 8.5 3.5zM13.212 171.92c6.6 0 12-5.4 12-12s-5.4-12-12-12-12 5.4-12 12 5.4 12 12 12zM13.212 122.62c6.6 0 12-5.4 12-12s-5.4-12-12-12-12 5.4-12 12 5.4 12 12 12zM13.212 73.325c6.6 0 12-5.4 12-12s-5.4-12-12-12-12 5.4-12 12 5.4 12 12 12z"/></svg>
