<svg width="682pt" height="682pt" viewBox="-21 -80 682.67 682" xmlns="http://www.w3.org/2000/svg"><path d="M588.02 519.04H51.97c-16.828-.047-30.758-13.082-31.926-29.867L.017 189.103c-.195-2.95.84-5.852 2.86-8.004a10.682 10.682 0 017.804-3.367h618.62a10.667 10.667 0 0110.668 11.371l-20.03 300.07c-1.165 16.785-15.099 29.82-31.923 29.867zM22.09 199.06l19.195 288.68c.371 5.613 5.04 9.973 10.664 9.965h536.07c5.625.008 10.293-4.352 10.664-9.965l19.219-288.68z"/><path d="M538.17 455.05H101.83c-11.215-.035-20.504-8.723-21.277-19.914L69.17 264.486a21.346 21.346 0 015.723-16.012 21.343 21.343 0 0115.609-6.742h165.5c5.89 0 10.664 4.777 10.664 10.668s-4.774 10.664-10.664 10.664H90.452l11.37 170.66h436.34l11.372-170.66h-165.54c-5.895 0-10.668-4.774-10.668-10.664s4.773-10.668 10.668-10.668h165.54a21.336 21.336 0 0121.331 22.754l-11.383 170.65c-.773 11.203-10.086 19.898-21.32 19.914zM629.31 199.07H10.69c-5.89 0-10.664-4.777-10.664-10.668v-63.996C.1 53.754 57.362-3.504 128.016-3.584h383.97c70.656.074 127.91 57.336 127.99 127.99v63.996c0 5.89-4.773 10.668-10.668 10.668zM21.36 177.738h597.29v-53.332c-.066-58.879-47.777-106.59-106.66-106.66H128.02c-58.879.063-106.59 47.777-106.66 106.66z"/><path d="M575.98 199.07H64.02c-5.894 0-10.672-4.777-10.672-10.668v-53.328c.09-76.543 62.121-138.57 138.66-138.66h255.98c76.543.086 138.57 62.113 138.66 138.66v53.328c0 2.832-1.121 5.54-3.125 7.543-1.996 2-4.71 3.125-7.54 3.125zM74.69 177.738h490.62v-42.664c-.078-64.766-52.559-117.25-117.32-117.32H192.01c-64.762.074-117.25 52.559-117.32 117.32z"/><path d="M320 348.39c-41.219-.047-74.613-33.445-74.664-74.66v-85.328c0-5.89 4.777-10.664 10.668-10.664h127.99c5.887 0 10.668 4.773 10.668 10.664v85.328c-.05 41.215-33.453 74.613-74.664 74.66zm-53.332-149.32v74.66c0 29.453 23.875 53.328 53.332 53.328 29.449 0 53.328-23.875 53.328-53.328v-74.66z"/><path d="M320 284.39c-17.676 0-32-14.324-32-31.996s14.324-31.996 32-31.996c17.668 0 31.996 14.324 31.996 31.996S337.668 284.39 320 284.39zm0-42.664c-5.894 0-10.668 4.777-10.668 10.668s4.773 10.664 10.668 10.664c5.887 0 10.664-4.773 10.664-10.664s-4.777-10.668-10.664-10.668zM574.17 124.4H65.83c-5.887 0-10.664-4.773-10.664-10.664s4.777-10.668 10.664-10.668h508.34c5.89 0 10.668 4.777 10.668 10.668S580.061 124.4 574.17 124.4zM543.45 60.406H96.55a10.664 10.664 0 01-10.668-10.668c0-5.887 4.773-10.66 10.668-10.66h446.9c5.89 0 10.664 4.773 10.664 10.66 0 5.894-4.773 10.668-10.664 10.668z"/><path d="M320 305.72c-5.894 0-10.668-4.773-10.668-10.664v-21.332c0-5.89 4.773-10.668 10.668-10.668 5.887 0 10.664 4.777 10.664 10.668v21.332c0 5.89-4.777 10.664-10.664 10.664zM556.68 327.05H367.57c-5.895 0-10.668-4.777-10.668-10.664a10.664 10.664 0 0110.668-10.668h189.11c5.89 0 10.664 4.773 10.664 10.668 0 5.887-4.773 10.664-10.664 10.664zM272.43 327.05H83.32c-5.894 0-10.668-4.777-10.668-10.664a10.664 10.664 0 0110.668-10.668h189.11c5.89 0 10.664 4.773 10.664 10.668 0 5.887-4.773 10.664-10.664 10.664zM552.41 391.05H87.59c-5.895 0-10.668-4.781-10.668-10.668 0-5.894 4.773-10.672 10.668-10.672h464.82c5.887 0 10.664 4.777 10.664 10.672 0 5.887-4.777 10.668-10.664 10.668z"/></svg>
