<?xml version="1.0" encoding="UTF-8"?>
<svg width="682pt" height="682pt" viewBox="-21 -80 682.67 682" xmlns="http://www.w3.org/2000/svg">
<path d="m588.02 519.04h-536.05c-16.828-0.046875-30.758-13.082-31.926-29.867l-20.027-300.07c-0.19531-2.9492 0.83984-5.8516 2.8594-8.0039 2.0234-2.1562 4.8516-3.3711 7.8047-3.3672h618.62c2.9531-0.003906 5.7812 1.2109 7.8008 3.3672 2.0234 2.1523 3.0625 5.0547 2.8672 8.0039l-20.031 300.07c-1.1641 16.785-15.098 29.82-31.922 29.867zm-565.93-319.98 19.195 288.68c0.37109 5.6133 5.0391 9.9727 10.664 9.9648h536.07c5.625 0.007812 10.293-4.3516 10.664-9.9648l19.219-288.68z"/>
<path d="m538.17 455.05h-436.34c-11.215-0.035156-20.504-8.7227-21.277-19.914l-11.383-170.65c-0.39062-5.9023 1.6797-11.699 5.7227-16.012 4.0469-4.3125 9.6953-6.7539 15.609-6.7422h165.5c5.8906 0 10.664 4.7773 10.664 10.668s-4.7734 10.664-10.664 10.664h-165.55l11.371 170.66h436.34l11.371-170.66h-165.54c-5.8945 0-10.668-4.7734-10.668-10.664s4.7734-10.668 10.668-10.668h165.54c5.9141-0.011718 11.566 2.4297 15.609 6.7422 4.043 4.3125 6.1172 10.109 5.7227 16.012l-11.383 170.65c-0.77344 11.203-10.086 19.898-21.32 19.914z"/>
<path d="m629.31 199.07h-618.62c-5.8906 0-10.664-4.7773-10.664-10.668v-63.996c0.074219-70.652 57.336-127.91 127.99-127.99h383.97c70.656 0.074219 127.91 57.336 127.99 127.99v63.996c0 5.8906-4.7734 10.668-10.668 10.668zm-607.95-21.332h597.29v-53.332c-0.066406-58.879-47.777-106.59-106.66-106.66h-383.97c-58.879 0.0625-106.59 47.777-106.66 106.66z"/>
<path d="m575.98 199.07h-511.96c-5.8945 0-10.672-4.7773-10.672-10.668v-53.328c0.089844-76.543 62.121-138.57 138.66-138.66h255.98c76.543 0.085938 138.57 62.113 138.66 138.66v53.328c0 2.832-1.1211 5.5391-3.125 7.543-1.9961 2-4.7109 3.125-7.5391 3.125zm-501.29-21.332h490.62v-42.664c-0.078125-64.766-52.559-117.25-117.32-117.32h-255.98c-64.762 0.074218-117.25 52.559-117.32 117.32z"/>
<path d="m320 348.39c-41.219-0.046875-74.613-33.445-74.664-74.66v-85.328c0-5.8906 4.7773-10.664 10.668-10.664h127.99c5.8867 0 10.668 4.7734 10.668 10.664v85.328c-0.050781 41.215-33.453 74.613-74.664 74.66zm-53.332-149.32v74.66c0 29.453 23.875 53.328 53.332 53.328 29.449 0 53.328-23.875 53.328-53.328v-74.66z"/>
<path d="m320 284.39c-17.676 0-32-14.324-32-31.996s14.324-31.996 32-31.996c17.668 0 31.996 14.324 31.996 31.996s-14.328 31.996-31.996 31.996zm0-42.664c-5.8945 0-10.668 4.7773-10.668 10.668s4.7734 10.664 10.668 10.664c5.8867 0 10.664-4.7734 10.664-10.664s-4.7773-10.668-10.664-10.668z"/>
<path d="m574.17 124.4h-508.34c-5.8867 0-10.664-4.7734-10.664-10.664s4.7773-10.668 10.664-10.668h508.34c5.8906 0 10.668 4.7773 10.668 10.668s-4.7773 10.664-10.668 10.664z"/>
<path d="m543.45 60.406h-446.9c-5.8945 0-10.668-4.7734-10.668-10.668 0-5.8867 4.7734-10.66 10.668-10.66h446.9c5.8906 0 10.664 4.7734 10.664 10.66 0 5.8945-4.7734 10.668-10.664 10.668z"/>
<path d="m320 305.72c-5.8945 0-10.668-4.7734-10.668-10.664v-21.332c0-5.8906 4.7734-10.668 10.668-10.668 5.8867 0 10.664 4.7773 10.664 10.668v21.332c0 5.8906-4.7773 10.664-10.664 10.664z"/>
<path d="m556.68 327.05h-189.11c-5.8945 0-10.668-4.7773-10.668-10.664 0-5.8945 4.7734-10.668 10.668-10.668h189.11c5.8906 0 10.664 4.7734 10.664 10.668 0 5.8867-4.7734 10.664-10.664 10.664z"/>
<path d="m272.43 327.05h-189.11c-5.8945 0-10.668-4.7773-10.668-10.664 0-5.8945 4.7734-10.668 10.668-10.668h189.11c5.8906 0 10.664 4.7734 10.664 10.668 0 5.8867-4.7734 10.664-10.664 10.664z"/>
<path d="m552.41 391.05h-464.82c-5.8945 0-10.668-4.7812-10.668-10.668 0-5.8945 4.7734-10.672 10.668-10.672h464.82c5.8867 0 10.664 4.7773 10.664 10.672 0 5.8867-4.7773 10.668-10.664 10.668z"/>
</svg>
