<svg enable-background="new 0 0 24 24" height="512" viewBox="0 0 24 24" width="512" xmlns="http://www.w3.org/2000/svg"><path d="m17 24c-3.394 0-7-1.052-7-3 0-.276.224-.5.5-.5s.5.224.5.5c0 .835 2.282 2 6 2s6-1.165 6-2c0-.276.224-.5.5-.5s.5.224.5.5c0 1.948-3.606 3-7 3z"/><path d="m17 21c-3.394 0-7-1.052-7-3 0-.276.224-.5.5-.5s.5.224.5.5c0 .835 2.282 2 6 2s6-1.165 6-2c0-.276.224-.5.5-.5s.5.224.5.5c0 1.948-3.606 3-7 3z"/><path d="m17 18c-3.394 0-7-1.052-7-3s3.606-3 7-3 7 1.052 7 3-3.606 3-7 3zm0-5c-3.718 0-6 1.165-6 2s2.282 2 6 2 6-1.165 6-2-2.282-2-6-2z"/><path d="m23.5 21.5c-.276 0-.5-.224-.5-.5v-6c0-.276.224-.5.5-.5s.5.224.5.5v6c0 .276-.224.5-.5.5z"/><path d="m10.5 21.5c-.276 0-.5-.224-.5-.5v-6c0-.276.224-.5.5-.5s.5.224.5.5v6c0 .276-.224.5-.5.5z"/><path d="m7 12c-3.394 0-7-1.052-7-3 0-.276.224-.5.5-.5s.5.224.5.5c0 .835 2.282 2 6 2s6-1.165 6-2c0-.276.224-.5.5-.5s.5.224.5.5c0 1.948-3.606 3-7 3z"/><path d="m7 9c-3.394 0-7-1.052-7-3 0-.276.224-.5.5-.5s.5.224.5.5c0 .835 2.282 2 6 2s6-1.165 6-2c0-.276.224-.5.5-.5s.5.224.5.5c0 1.948-3.606 3-7 3z"/><path d="m7 18c-3.394 0-7-1.052-7-3 0-.276.224-.5.5-.5s.5.224.5.5c0 .835 2.282 2 6 2 .544 0 1.018-.022 1.447-.067.271-.03.521.17.55.444s-.17.521-.444.55c-.466.05-.974.073-1.553.073z"/><path d="m7 21c-3.394 0-7-1.052-7-3 0-.276.224-.5.5-.5s.5.224.5.5c0 .835 2.282 2 6 2 .544 0 1.018-.022 1.447-.067.271-.035.521.17.55.444s-.17.521-.444.55c-.466.05-.974.073-1.553.073z"/><path d="m7 15c-3.394 0-7-1.052-7-3 0-.276.224-.5.5-.5s.5.224.5.5c0 .835 2.282 2 6 2 .544 0 1.018-.022 1.447-.067.271-.032.521.169.55.444.029.274-.17.521-.444.55-.466.05-.974.073-1.553.073z"/><path d="m7 6c-3.394 0-7-1.052-7-3s3.606-3 7-3 7 1.052 7 3-3.606 3-7 3zm0-5c-3.718 0-6 1.165-6 2s2.282 2 6 2 6-1.165 6-2-2.282-2-6-2z"/><path d="m.5 18.5c-.276 0-.5-.224-.5-.5v-15c0-.276.224-.5.5-.5s.5.224.5.5v15c0 .276-.224.5-.5.5z"/><path d="m13.5 9.5c-.276 0-.5-.224-.5-.5v-6c0-.276.224-.5.5-.5s.5.224.5.5v6c0 .276-.224.5-.5.5z"/></svg>