<svg width="512" height="512" viewBox="0 0 512.08 512.08" xmlns="http://www.w3.org/2000/svg"><path d="M463.94 470.88v-38.443c0-55.001-21.574-107.11-59.78-145.87a7.49 7.49 0 003.667-6.438 7.5 7.5 0 00-7.5-7.5h-5.112l30.091-78.236c2.495-6.487.97-13.538-3.98-18.401-5-4.913-12.154-6.324-18.671-3.684-3.852 1.561-7.016 3.367-10.076 5.114-6.605 3.771-12.31 7.029-24.358 7.029-4.784 0-8.559-.52-11.796-1.375.632-3.115.958-6.295.958-9.505 0-26.236-21.345-47.581-47.581-47.581s-47.581 21.345-47.581 47.581c0 3.518.386 6.992 1.142 10.385-2.196.314-4.63.496-7.415.496-12.024 0-17.718-3.257-24.311-7.027-7.381-4.221-15.747-9.005-31.757-9.005-16.017 0-24.387 4.784-31.771 9.004-6.598 3.771-12.295 7.028-24.328 7.028-12.029 0-17.725-3.257-24.32-7.027-3.045-1.741-6.195-3.542-10.025-5.099-6.514-2.648-13.67-1.243-18.675 3.668-4.958 4.865-6.486 11.92-3.989 18.411l30.086 78.224h-5.112a7.5 7.5 0 00-7.5 7.5 7.49 7.49 0 003.667 6.438c-38.205 38.757-59.78 90.869-59.78 145.87v38.443c-4.909 4.316-8.016 10.635-8.016 17.67 0 12.976 10.557 23.532 23.532 23.532h384.77c12.976 0 23.532-10.556 23.532-23.532.001-7.035-3.106-13.354-8.015-17.67zM277.22 173.57c0-17.965 14.616-32.581 32.581-32.581s32.581 14.615 32.581 32.581c0 .982-.057 1.958-.143 2.93-5.111-2.886-10.891-5.852-19.394-7.252a7.488 7.488 0 00-2.072-6.649 7.501 7.501 0 00-10.607 0l-6.281 6.282c-10.916 1.297-17.585 5.105-23.599 8.542-.886.506-1.756 1.002-2.627 1.483a32.68 32.68 0 01-.439-5.336zm171.2 323.51H63.64c-4.705 0-8.532-3.827-8.532-8.532s3.828-8.532 8.532-8.532h8.015a7.5 7.5 0 000-15H63.64c-.173 0-.344.009-.516.013v-32.594c0-55.647 23.79-108.12 65.454-144.81h79.413c-5.407 2.91-10.393 6.313-14.353 10.272-5.959 5.958-9.24 13.881-9.24 22.308s3.281 16.35 9.24 22.308c6.15 6.15 14.229 9.226 22.308 9.226s16.158-3.075 22.308-9.226c11.932-11.932 18.83-33.171 22.301-47.253l30.249 30.249c1.464 1.464 3.384 2.196 5.303 2.196s3.839-.732 5.303-2.196a7.5 7.5 0 000-10.606l-27.278-27.278h62.055a7.5 7.5 0 000-15h-32.125c5.408-2.91 10.394-6.313 14.353-10.273 5.959-5.958 9.24-13.881 9.24-22.308s-3.281-16.35-9.24-22.309c-12.301-12.3-32.315-12.301-44.616 0-11.932 11.932-18.83 33.171-22.301 47.253l-30.249-30.249c-2.928-2.929-7.677-2.929-10.606 0s-2.929 7.677 0 10.606l27.277 27.277h-105l-32.157-83.609c-.34-.884-.173-1.664.495-2.319.404-.397 1.269-.989 2.521-.48 2.903 1.18 5.49 2.66 8.229 4.225 7.383 4.222 15.751 9.006 31.765 9.006 16.017 0 24.387-4.784 31.771-9.005 6.598-3.771 12.295-7.027 24.328-7.027 12.023 0 17.717 3.256 24.311 7.026 7.381 4.221 15.747 9.006 31.757 9.006 16.021 0 24.393-4.784 31.779-9.004 6.6-3.771 12.3-7.028 24.338-7.028 12.048 0 17.753 3.257 24.359 7.029 7.391 4.22 15.767 9.003 31.796 9.003s24.406-4.783 31.796-9.003c2.751-1.571 5.351-3.056 8.27-4.238 1.253-.508 2.122.083 2.527.482.666.654.832 1.433.492 2.315l-32.162 83.621h-10.881a7.5 7.5 0 000 15h15.224c41.664 36.684 65.453 89.157 65.453 144.81v32.594c-.172-.004-.343-.013-.516-.013h-32.062a7.5 7.5 0 000 15h32.062c4.705 0 8.532 3.827 8.532 8.532s-3.828 8.535-8.532 8.535zM227.65 331.91c-6.452 6.452-16.951 6.453-23.403 0-3.125-3.125-4.847-7.281-4.847-11.701s1.721-8.576 4.847-11.701c9.425-9.426 28.804-15.658 42.243-18.834-3.166 13.428-9.39 32.786-18.84 42.236zm37.927-61.329c3.177-13.44 9.408-32.812 18.831-42.234a16.493 16.493 0 0111.702-4.839 16.5 16.5 0 0111.702 4.839c3.125 3.125 4.847 7.282 4.847 11.702s-1.721 8.576-4.847 11.701c-9.424 9.422-28.796 15.654-42.235 18.831z"/><path d="M207.94 151.36c26.236 0 47.581-21.345 47.581-47.581s-21.345-47.581-47.581-47.581-47.581 21.345-47.581 47.581 21.345 47.581 47.581 47.581zm0-80.162c17.965 0 32.581 14.616 32.581 32.581s-14.616 32.581-32.581 32.581-32.581-14.616-32.581-32.581 14.616-32.581 32.581-32.581z"/><path d="M208.31 114.75c1.464 1.465 3.384 2.197 5.303 2.197s3.839-.732 5.303-2.197a7.5 7.5 0 000-10.606L207.58 92.808a7.5 7.5 0 00-10.606 0 7.5 7.5 0 000 10.606l11.336 11.336zM297.66 84.288a41.78 41.78 0 007.254-.655c10.602-1.871 21.203-7.664 29.851-16.313 18.866-18.866 22.601-44.688 8.502-58.787-14.099-14.098-39.921-10.363-58.787 8.503-8.648 8.648-14.442 19.25-16.313 29.851-2.043 11.58.73 21.856 7.81 28.936 5.562 5.561 13.095 8.465 21.683 8.465zm-14.72-34.794c1.322-7.488 5.749-15.453 12.147-21.851 8.102-8.102 18.188-12.585 26.426-12.585 4.46 0 8.38 1.315 11.148 4.083 7.879 7.879 3.985 25.086-8.502 37.574-6.398 6.398-14.363 10.825-21.851 12.146-3.833.678-10.975 1.103-15.723-3.645-4.748-4.747-4.321-11.888-3.645-15.722z"/><path d="M303.95 55.347a7.474 7.474 0 005.303-2.197l11.336-11.336c2.929-2.929 2.929-7.677 0-10.606s-7.678-2.929-10.606 0l-11.336 11.336a7.5 7.5 0 005.303 12.803z"/></svg>
