<?xml version="1.0" encoding="UTF-8"?>
<!DOCTYPE svg  PUBLIC '-//W3C//DTD SVG 1.1//EN'  'http://www.w3.org/Graphics/SVG/1.1/DTD/svg11.dtd'>
<svg width="151.12mm" height="153.58mm" clip-rule="evenodd" fill-rule="evenodd" image-rendering="optimizeQuality" shape-rendering="geometricPrecision" text-rendering="geometricPrecision" version="1.1" viewBox="0 0 1562 1587.4" xml:space="preserve" xmlns="http://www.w3.org/2000/svg">
<defs>
<style type="text/css">
<![CDATA[
.fil0 {fill:black}
.fil1 {fill:white}
.fil2 {fill:black;fill-rule:nonzero}
]]>
</style>
</defs>
<path class="fil0" d="m-0 799.91c0 178.64 54.37 339.55 150.68 484.93 80.08 120.87 225.07 236.15 366.44 275.34 143.16 39.69 137.11 24.11 264.2 24.11l99.22 3.14c110.52 0 217.29-39.5 289.34-79.62 91.43-50.9 182.71-133.54 239.62-219.25 45.86-69.08 63.58-100.93 96.47-182.57 74.77-185.64 74.77-438.91 0-624.55-32.74-81.3-49.71-111.97-95.23-180.71-20.75-31.34-57.19-74.22-82.95-99.98-117.72-117.72-273.66-200.76-450.34-200.76h-1.67c-34.88 0.1-62.97 3.14-94.45 3.14l-99.21-3.14c-109.81 0-217.74 39.75-289.35 79.62-36.61 20.39-78.28 49.6-109.69 76.33-88.14 74.98-148.49 159.22-199.4 262.56-9.91 20.13-18.99 44.69-27.44 65.58-37.43 92.58-56.23 214.94-56.23 315.82z"/>
<path class="fil1" d="m220.13 778.21c0 48.66 2 57.47 5.99 105.53 19.11 229.55 149.77 448.75 348.78 569.05 65.59 39.65 141.26 63.61 216.94 74.49 57.63 8.28 120.03 6.01 177.84-5.71 305.92-62.03 500.78-340.66 531.36-640.6 7.82-76.66 7.82-97.84 0-174.51-7.37-72.31-22.21-135.98-47.39-203.73-56.73-152.62-160.82-286.52-301.37-368.35-35.49-20.67-73.93-38.43-115.58-51.85-90.1-29.02-183.82-34.66-276.75-17.14-24.26 4.58-43.6 9.82-67.23 16.54-30.88 8.77-89.39 35.66-115.89 51.54-116.02 69.55-200.03 158.96-261.6 277.9-5.37 10.37-10.37 17.02-15.57 27.79-26.42 54.56-50.63 130.32-62.23 188.92-7.5 37.9-17.29 111.81-17.29 150.12z"/>
<path class="fil1" d="m204.63 1258.8h93.01c-18.69-27.9-45.2-75.49-57.67-108.51h-100.45c4.03 17.29 52.17 102.16 65.11 108.51z"/>
<path class="fil1" d="m151.92 409.26h102.31c5.4-23.18 47.86-88.02 61.65-108.15l-89.55-0.37c-8.15 0-16.34 16.78-20.68 22.83l-36.89 56.03c-6.47 10.78-11.3 19.18-16.85 29.67z"/>
<path class="fil1" d="m179.83 958.04-9.03-65.4c-0.79-10.07 1.14-15.21-9.58-15.21h-99.21c0.01 14.07 2.63 29.35 5.13 44.35 8.18 49.12-13.83 36.26 112.69 36.26z"/>
<polygon class="fil1" points="58.91 765.82 55.19 790.52 55.8 796.82 59.16 821.58 164.32 821.62 164.32 772.01 168.16 741.11 58.91 741.01"/>
<path class="fil1" d="m65.11 682.1h99.21c12.33 0 8.77-9.91 13.14-36.52 2.2-13.37 5.82-30.9 7.99-43.52l-98.64-0.36c-9.57 0-8.78 5.22-10.84 13.73l-10.86 66.67z"/>
<path class="fil1" d="m96.12 545.68h105.42c2.32-28.74 20.65-55.1 24.8-80.62h-102.31c-7.51 23.14-26.05 58.32-27.9 80.62z"/>
<path class="fil1" d="m111.61 1094.5h105.42c-7.33-15.27-20.16-60.71-24.81-80.61h-105.41c2.91 12.53 8.17 29.3 11.98 40.72 3.7 11.11 11.93 29.18 12.82 39.89z"/>
<path class="fil1" d="m406.16 1395.2c-6.71-10.02-53.53-55.48-68.22-80.61h-93.01c12.03 17.95 54.94 57.29 74.92 73.9 10.49 8.72 5.3 6.93 24.08 6.93 20.72 0.01 41.5-0.22 62.23-0.22z"/>
<path class="fil1" d="m272.84 244.94c69.32 0 81.5 8.56 102.6-18.25 18.7-23.77 56.74-55.66 61.72-62.37-75.29 0-63.17-8.03-99.79 21.06-20.51 16.3-50.77 39-64.53 59.55z"/>
<path class="fil0" d="m781.31 1379.7c0 35.81 55.84 31 83.71 31 28.57 0 59.65-58.91-37.2-58.91-15.25 0-46.51-2.68-46.51 27.9z"/>
<path class="fil0" d="m899.13 235.63c15.77 0 30.37 2.47 40.29-12.66 5.36-8.17 6.04-13.89 2.9-24.03-2.78-8.96-7.05-13.92-17.26-17.13-18.69-5.89-42.61-5.09-60.04-5.09-24.57 0-36.43 22.25-26.1 41.38 9.11 16.86 43.74 17.52 60.21 17.52z"/>
<path class="fil0" d="m579.78 1305.3c0 28.69 69.14 55.81 77.51 55.81 6.56 0 24.81-8.05 24.81-31 0-22.73-66.56-52.71-74.41-52.71-15.33 0-27.91 12.58-27.91 27.9z"/>
<path class="fil0" d="m1348.7 815.42v27.9c0 38.96 52.91 41.83 55.82 3.13 3.07-40.73 13.63-80.64-31.02-80.64-20.75 0-24.8 34.91-24.8 49.61z"/>
<path class="fil0" d="m1116.2 310.04c13.42 0 63.18-24.25 0.35-62.45-7.7-4.67-36.93-21.27-43.76-21.27-28.46 0-39.29 35.47-16.97 51.09 7.13 4.99 54.07 32.62 60.38 32.62z"/>
<path class="fil0" d="m319.34 775.12c0 17.75-2.6 46.5 31.01 46.5 34.54 0 41.85-108.51 3.1-108.51-31.43 0-34.11 26.99-34.11 62.01z"/>
<path class="fil0" d="m381.35 607.72c16.59 0 21.89-4.87 28-18.54 6.34-14.2 23.22-51.85 19.36-65.88-3.05-11.09-14.15-21.03-25.65-21.03-26.39 0-31.16 29.39-39.48 50.4-3.77 9.53-10.59 24.73-8.38 34.78 2.57 11.68 13.13 20.27 26.16 20.27z"/>
<path class="fil0" d="m1212.3 387.56c0 19.99 38.16 74.41 58.91 74.41 14.06 0 27.9-12.29 27.9-27.91 0-14.86-15.62-31.15-23.47-41.63-4.86-6.49-8.49-12.1-13.13-17.87-16.78-20.86-50.21-13.7-50.21 13.01z"/>
<path class="fil0" d="m626.29 254.24c0 42.68 41.43 25.35 56.31 19.1 18.29-7.7 49.38-16.95 48.27-40.43-1.36-28.37-26.36-30.09-52.39-19.5-11.61 4.71-20.78 9.1-32.15 14.52-11.87 5.65-20.04 11.41-20.04 26.32z"/>
<path class="fil0" d="m341.05 948.74c0 24.56 4.65 33.34 11.91 56.34 1.94 6.15 4.4 15.43 7.93 19.94 11.86 15.18 63.27 23.76 42.91-46.03-5.82-19.97-11.09-51.95-34.85-51.95-12.1 0-27.9 11.83-27.9 21.7z"/>
<path class="fil0" d="m458.87 387.56c0 30.1 18.02 31 34.11 31 9.3 0 34.6-29.16 40.87-36.64 12.56-14.98 26.03-32.09 8.27-49.73-26.51-26.33-51.19 13.97-66.99 31.25-5.09 5.57-16.25 14.69-16.25 24.12z"/>
<path class="fil0" d="m1339.4 979.74c-8.59 2.52-12.67-2.95-23.73 22.79-5.33 12.41-9.34 23.32-13.11 33.47-14.66 39.45 12.36 50.49 28.52 46.9 21.04-4.67 29.04-39.15 35.83-57.09 4.82-12.72 8.2-22.48 1.32-34.43-7.88-13.7-18.93-14.54-28.83-11.64z"/>
<path class="fil0" d="m1385.9 632.49c0-10.41-12.28-80.61-37.2-80.61-50.14 0-29.72 44.1-20.59 73.32 18.06 57.73 57.79 29.35 57.79 7.29z"/>
<path class="fil0" d="m998.34 1348.7c0 41.42 31.92 33.55 56.72 22.62 21.56-9.5 47.16-16.56 47.15-41.45 0-11.18-8.55-20.49-17.76-24.17-19.61-7.84-86.12 24.25-86.12 43z"/>
<path class="fil0" d="m1178.2 1230.9c0 37.17 32.63 44.65 63.9 5 12.57-15.93 26.01-22.19 26.01-42.21 0-27.57-31.39-34.45-49.63-15.57-8.26 8.54-40.29 41.11-40.29 52.78z"/>
<path class="fil0" d="m427.86 1150.3c0 19.89 39.25 74.41 58.91 74.41 15.32 0 27.91-12.58 27.91-27.91 0-11.54-35.74-71.31-58.92-71.31-13.04 0-27.9 11.07-27.9 24.81z"/>
<path class="fil1" d="m570.48 1513c-30.17-7.03-87.16-60.13-105.37-62.06-10.71-1.13-44.12-0.43-54.72 1.17 34.09 22.58 95.36 46.25 137.7 58.73l14.39 3.68c0.62 0.03 1.58 0.03 2.15 0.01 6.74-0.27 1.64 1.01 5.85-1.53z"/>
<path class="fil1" d="m465.06 108.52c11.18 0 23.32 0.5 34.35 0.17 15.74-0.45 50.57-23.1 65.74-33.4 4.95-3.36 2.19-1.26 5.32-3.99-16.44 1.37-62.19 17.14-80.42 24.94-4.63 1.98-8.7 3.66-13.13 5.53-4.65 1.96-2.02 0.4-6.45 2.86-4.02 2.23-3.06 1.83-5.42 3.88z"/>
<path class="fil2" d="m961.02 1048.2c-7.63 5.36-14.71 10.17-21.06 14.77-6.53 4.73-12.44 8.91-17.98 12.26-5.59 3.38-10.64 6.35-15.53 8.38-4.69 1.95-9.47 3.08-13.92 3.89-5.98 1.09-11.31 0.14-15.74-2.85-4.52-3.05-8.25-8.72-11.19-16.93-3-8.38-5.03-19.52-6.44-33.51-1.39-13.9-2.02-31.61-1.82-52.68 0.08-7.86 0.19-15.72 0.28-23.58 0.12-11.05 0.32-23.92 0.49-38.52 0.17-14.68 0.39-30.14 0.63-46.38 0.25-16.58 0.73-33.25 1.05-50.35 0.31-16.84 0.56-33.34 0.98-49.14 0.42-15.98 0.91-30.92 1.47-44.65s1.19-25.39 1.68-35.07c1.05-20.99 2.38-41.79 3.64-62.61 1.26-20.72 2.66-40.94 4.41-60.71-0.49-0.35-0.91-0.69-1.33-1.04-1.96 7.86-4.38 16.74-7.21 26.77-2.84 10.09-6.44 22.37-10.7 36.71-10.28 34.55-21.16 70.42-31.62 108.22-10.53 38.03-20.59 77.29-30.78 117.89-10.24 40.76-20.66 82.55-31.13 125.14-10.59 43.08-20.85 86.37-31.2 130.15-2.66 0.26-5.32 0.52-7.83 0.69-1.96-12.52-4.58-27.64-7.63-44.82-3.04-17.19-6.39-35.93-10-56.14-3.66-20.46-7.52-41.97-11.61-64.51-4.17-22.97-8.26-46.2-12.45-69.96-4.2-23.84-8.61-47.58-12.87-71.42-4.27-23.91-8.63-47.21-12.17-69.52-3.59-22.6-6.6-43.71-9.65-63.82-3.03-19.96-5.91-37.82-8.32-53.55-2.83-18.47-5-34.64-7-48.88-1.99-14.25-3.71-26.77-5.04-37.91-0.42 0.35-0.84 0.52-1.26 0.69-0.28 6.22-0.35 12.09-0.49 17.79-0.14 6.04-0.34 12.44-0.56 19.26-0.54 16.58-1.2 33.25-1.75 49.92-1.06 31.87-2.6 64.69-4.2 97.77-1.62 33.6-2.66 66.5-3.71 98.89-1.05 32.56-2.37 63.83-3.78 94.31-1.39 30.23-2.91 58.56-4.41 84.21-1.23 21.16-2.49 39.38-3.5 54.32-1.02 15.02-2.13 27.55-3.29 37.83-1.15 10.27-2.53 18.42-4.13 24.44-1.62 6.08-3.69 10.72-6.16 14.25-2.36 3.38-5.23 5.83-8.89 7.26-3.41 1.33-7.5 2.34-12.24 3.11-1.63 0.26-3.22 0.59-4.83 0.86-0.91 0.16-2.07 0.52-3.43 0.6-1.4 0.09-3.15 0.09-5.04 0.17-0.77-0.86-1.47-1.64-2.24-2.59 5.11-20.9 9.76-43.79 13.78-68.83 4.02-25.05 7.7-51.3 10.84-79.11 3.15-27.81 5.94-56.31 8.25-85.76 2.31-29.36 4.37-58.65 6.02-87.92 1.64-29.02 2.98-58.04 4.76-86.28 1.79-28.33 3.61-55.19 4.9-80.58 1.3-25.48 2.42-48.88 3.36-70.3 0.95-21.51 1.69-40.25 2.24-56.22 0.36-10.28 0.17-18.91-0.28-25.65-0.45-6.73-1.38-12.27-3.15-16.5-1.73-4.15-4.07-7.24-7.28-9.24-3.16-1.97-7.22-3.22-12.31-3.89-3.44-0.45-7.42-0.35-11.96-0.09-4.55 0.26-9.65 1.04-15.04 1.73-0.28-9.15-0.49-18.4-0.7-27.64 19.38-5.79 35.32-9.82 47.99-12.18 12.37-2.3 22.38-2.79 29.73-1.64 3.7 0.58 7.02 1.51 9.58 3.2 2.69 1.77 4.94 4.59 6.86 7.95 1.93 3.38 3.69 7.59 5.18 12.95 1.45 5.26 2.61 11.84 3.78 19.52 4.56 29.89 9.34 61.68 14.41 95.09 5.07 33.35 10.43 67.19 15.81 101.65 5.32 34.03 10.58 68.08 16.65 101.83 6.1 33.87 12.22 66.24 17.91 97.42 2.22 12.18 4.25 23.49 6.16 33.77 1.87 10.02 3.62 19.19 5.18 27.9 1.52 8.48 2.85 16.76 4.27 24.35 1.45 7.78 2.73 15.46 3.92 23.06 0.35-0.09 0.63-0.09 1.05-0.09 1.82-8.29 3.55-16.44 5.46-24.53 1.88-7.98 3.92-16.15 6.09-24.87 2.1-8.46 4.4-17.69 6.86-27.46 2.44-9.75 5.23-20.72 8.32-32.82 7.68-30.04 15.47-61.61 23.93-93.62 8.4-31.81 17.61-63.93 27.07-96.73 9.35-32.41 18.84-64.96 28.54-97.68 9.6-32.4 19.12-64.77 28.75-96.56 1.07-3.54 2.38-6.35 4.06-8.38s3.61-3.58 5.67-4.66c1.86-0.99 3.98-1.61 6.02-1.81 2.16-0.22 4.13-0.09 5.95 0.17 2.94 0.43 6.28 1.57 9.86 3.45 3.49 1.83 7 4.23 10.21 7.26-2.31 28.33-4.49 55.53-6.37 81.44-1.9 26.17-3.63 51.47-5.11 76.43-1.46 24.61-2.97 49.14-4.27 73.58-1.29 24.18-2.2 48.62-2.8 73.5-0.59 24.87-1.15 50.01-1.61 75.92-0.45 25.82-0.68 52.6-0.98 80.84-0.19 18.48 0.04 34.46 0.91 47.24 0.88 13.04 2.36 23.67 4.62 31.52 2.36 8.21 5.62 13.62 9.58 16.84 4.01 3.26 8.96 4.43 15.04 3.54 2.17-0.32 4.26-0.62 6.51-1.12 1.95-0.44 3.94-1.36 6.37-2.25 2.08-0.76 4.71-1.43 7.42-2.59 2.75-1.17 5.81-2.68 9.38-4.4 1.4 6.74 2.8 13.3 4.13 19.86zm247.58-538.66c-4.2 31.61-8.27 64.18-12.24 97.77-4 33.77-7.53 67.54-10.7 101.39-3.19 34.03-5.84 67.71-7.91 100.88-2.07 33.25-3.17 65.29-3.5 95.78-0.16 14.77-0.17 27.29-0.07 37.83 0.11 10.54 0.39 19.35 0.91 26.43 0.53 7.26 1.16 12.89 2.17 17.1 0.95 3.99 2.28 7.14 3.71 9.07 1.58 2.13 3.3 3.21 5.39 3.63 1.84 0.36 4.26 0.33 7.14-0.17 4.96-0.88 10.59-2.64 16.37-5.53 5.97-2.98 11.96-6.48 18.05-10.8 0.98 3.02 1.96 6.13 3.01 9.07-3.92 4.4-8.86 9.01-14.69 13.82-5.78 4.77-12.01 9.36-18.33 13.73-6.41 4.44-12.59 8.27-18.82 11.49-6.15 3.18-11.27 5.33-15.74 6.22-3.36 0.67-6.21 0.8-8.53 0.35-2.51-0.49-4.57-1.67-6.23-3.63-1.71-2.02-3.26-4.57-4.48-8.29-1.16-3.53-2-8.29-2.66-14.16-0.88-7.86-1.54-17.1-2.03-27.64s-0.73-22.02-0.56-34.63c0.18-13.39 0.66-27.04 1.68-40.85 1.02-13.82 2.59-27.72 4.48-41.54-0.49-0.09-0.98-0.26-1.47-0.35-8.4 27.81-17.6 53.3-27.42 76.61-9.98 23.67-20.2 44.25-30.5 61.92-10.34 17.73-20.68 32.41-30.92 43.1-10.46 10.91-20.44 17.16-29.87 19.09-9.59 1.96-17.69 0.34-24.56-5.01-6.78-5.28-12.35-13.12-16.58-23.58-4.3-10.61-7.44-23.23-9.37-37.91-1.98-15.02-2.89-30.49-2.73-46.03 0.19-18.83 1.79-36.54 4.76-53.12 3.05-17.02 7.33-33.86 12.87-49.92 5.51-15.98 12.21-30.9 19.8-44.48 7.66-13.71 16.33-25.28 25.82-34.72 9.61-9.56 19.75-16.83 30.85-22.02 10.87-5.09 22.32-7.37 34.28-7.17 8.4 0.14 16.73 1.87 24.91 4.66 8.27 2.82 16.44 7.25 24.63 13.39 0.91-22.45 2.06-45.25 3.29-68.57 1.22-23.06 2.38-45.61 3.78-67.37 1.4-21.85 3.08-42.32 4.62-61.75 1.53-19.34 3.08-36.37 4.9-51.39 0.36-2.94 1.14-5.47 2.59-7.51 1.42-2.01 3.2-3.4 5.32-4.4 2.08-0.98 4.41-1.38 7-1.55s5.33-0.05 8.05 0.52c6.31 1.33 12.73 4.92 19.59 10.28zm-61 268.94c-14.13-8.46-28.26-12.87-42.33-12.87-10.35 0-19.87 2.08-28.47 6.3-8.81 4.32-16.62 10.42-23.72 18.31-6.97 7.74-13.15 17.16-18.47 27.9-5.38 10.86-9.61 22.45-13.15 34.8-3.59 12.52-6.22 25.39-8.19 38.86-1.95 13.39-2.85 26.69-3.01 39.81-0.06 4.84 0.04 9.93 0.28 16.06s0.74 12.35 1.61 18.57c0.88 6.3 2.05 12.61 3.43 18.48 1.42 6.04 3.27 11.21 5.46 15.98 2.08 4.56 4.82 7.95 7.84 10.36 3.14 2.51 6.72 3.31 11.05 2.59 7.56-1.26 15.37-6.37 23.43-15.29 7.95-8.79 15.96-19.9 23.65-33.34 7.63-13.33 15.06-28.32 21.97-44.74 6.87-16.32 13.1-32.97 18.54-49.57 5.48-16.73 9.82-33.18 13.36-49.14 3.53-15.91 5.81-30.23 6.72-43.1z"/>
</svg>
