<?xml version="1.0" encoding="UTF-8"?>
<!DOCTYPE svg  PUBLIC '-//W3C//DTD SVG 20010904//EN'  'http://www.w3.org/TR/2001/REC-SVG-20010904/DTD/svg10.dtd'>
<svg width="350pt" height="350pt" version="1.0" viewBox="0 0 350 350" xmlns="http://www.w3.org/2000/svg">
<g transform="translate(0 350) scale(.1 -.1)">
<path d="m419 2581-24-19-3-631-2-630-67-58c-100-87-103-91-103-123 0-29 22-50 53-50 9 0 38 18 66 40l51 40v-88c0-131 22-175 79-157 31 10 41 59 41 209l1 141 128 108c71 59 131 107 135 107 3 0 6-112 6-249 0-152 4-260 11-279 19-55 79-55 98 0 7 20 11 142 11 334v303l130 110c71 61 132 111 135 111s5-186 5-414c0-271 4-424 11-444 19-55 79-55 98 0 7 21 11 189 11 499v468l133 110 132 111 5-592c3-326 9-601 13-610 21-42 80-33 96 14 8 21 11 235 11 662v632l70 58c71 58 92 94 73 125-17 27-66 25-101-3-16-15-32-26-35-26s-7 39-8 86c-4 76-7 88-28 105-29 24-33 24-62 0-23-18-24-26-27-158-2-84-8-143-15-152-6-7-66-59-132-114l-120-100-5 252c-5 251-5 253-29 272-29 24-33 24-62 0l-24-19-3-306-3-305-132-110-132-111-10 832-24 19c-29 24-33 24-62 0l-24-19-10-942-260-218-10 1160-24 19c-29 24-33 24-62 0z"/>
<path d="m2369 2581-24-19-3-789c-2-539 0-800 8-825 18-64 82-64 100 0 8 25 10 286 8 825l-3 789-24 19c-13 10-27 19-31 19s-18-9-31-19z"/>
<path d="m2759 2581-24-19-3-789c-2-539 0-800 8-825 18-64 82-64 100 0 8 25 10 286 8 825l-3 789-24 19c-13 10-27 19-31 19s-18-9-31-19z"/>
<path d="m3149 2581-24-19-3-789c-2-539 0-800 8-825 18-64 82-64 100 0 8 25 10 286 8 825l-3 789-24 19c-13 10-27 19-31 19s-18-9-31-19z"/>
</g>
</svg>
