<svg width="350pt" height="350pt" version="1.0" viewBox="0 0 350 350" xmlns="http://www.w3.org/2000/svg"><path d="M41.9 91.9l-2.4 1.9-.3 63.1-.2 63-6.7 5.8c-10 8.7-10.3 9.1-10.3 12.3 0 2.9 2.2 5 5.3 5 .9 0 3.8-1.8 6.6-4l5.1-4v8.8c0 13.1 2.2 17.5 7.9 15.7 3.1-1 4.1-5.9 4.1-20.9l.1-14.1 12.8-10.8C71 207.8 77 203 77.4 203c.3 0 .6 11.2.6 24.9 0 15.2.4 26 1.1 27.9 1.9 5.5 7.9 5.5 9.8 0 .7-2 1.1-14.2 1.1-33.4v-30.3l13-11c7.1-6.1 13.2-11.1 13.5-11.1s.5 18.6.5 41.4c0 27.1.4 42.4 1.1 44.4 1.9 5.5 7.9 5.5 9.8 0 .7-2.1 1.1-18.9 1.1-49.9v-46.8l13.3-11 13.2-11.1.5 59.2c.3 32.6.9 60.1 1.3 61 2.1 4.2 8 3.3 9.6-1.4.8-2.1 1.1-23.5 1.1-66.2v-63.2l7-5.8c7.1-5.8 9.2-9.4 7.3-12.5-1.7-2.7-6.6-2.5-10.1.3-1.6 1.5-3.2 2.6-3.5 2.6s-.7-3.9-.8-8.6c-.4-7.6-.7-8.8-2.8-10.5-2.9-2.4-3.3-2.4-6.2 0-2.3 1.8-2.4 2.6-2.7 15.8-.2 8.4-.8 14.3-1.5 15.2-.6.7-6.6 5.9-13.2 11.4l-12 10-.5-25.2c-.5-25.1-.5-25.3-2.9-27.2-2.9-2.4-3.3-2.4-6.2 0l-2.4 1.9-.3 30.6-.3 30.5-13.2 11L90.5 177l-1-83.2-2.4-1.9c-2.9-2.4-3.3-2.4-6.2 0l-2.4 1.9-1 94.2-26 21.8-1-116-2.4-1.9c-2.9-2.4-3.3-2.4-6.2 0zM236.9 91.9l-2.4 1.9-.3 78.9c-.2 53.9 0 80 .8 82.5 1.8 6.4 8.2 6.4 10 0 .8-2.5 1-28.6.8-82.5l-.3-78.9-2.4-1.9c-1.3-1-2.7-1.9-3.1-1.9s-1.8.9-3.1 1.9zM275.9 91.9l-2.4 1.9-.3 78.9c-.2 53.9 0 80 .8 82.5 1.8 6.4 8.2 6.4 10 0 .8-2.5 1-28.6.8-82.5l-.3-78.9-2.4-1.9c-1.3-1-2.7-1.9-3.1-1.9s-1.8.9-3.1 1.9zM314.9 91.9l-2.4 1.9-.3 78.9c-.2 53.9 0 80 .8 82.5 1.8 6.4 8.2 6.4 10 0 .8-2.5 1-28.6.8-82.5l-.3-78.9-2.4-1.9c-1.3-1-2.7-1.9-3.1-1.9s-1.8.9-3.1 1.9z"/></svg>
