<svg xmlns="http://www.w3.org/2000/svg" viewBox="0 0 100 125" x="0px" y="0px"><title>Artboard 4</title><path d="M43.35,35l-.9-2.36a19.88,19.88,0,0,0,2.45-1.14,3.65,3.65,0,0,0,1.5-1.55,2.83,2.83,0,0,0,.22-1.45,2.64,2.64,0,0,0-.14-.7l3.09-1.1,8.75,18.58L53.91,47,48,33.27ZM63.68,24a16.91,16.91,0,0,1,5.37,5.72c1.86,2.93,2.84,5.49,2.86,7.61s-1.31,3.84-4,4.88a7.27,7.27,0,0,1-7.19-.61,17.76,17.76,0,0,1-5.28-6.84c-1.44-3-2-5.32-1.77-7.15s1.53-3.07,3.87-3.91A7,7,0,0,1,63.68,24Zm-1,14a3,3,0,0,0,3.4.9,2,2,0,0,0,1.34-2.68,19.72,19.72,0,0,0-2.3-5.06,19.23,19.23,0,0,0-3.19-4.33,2.73,2.73,0,0,0-3-.62,1.89,1.89,0,0,0-1.42,2.21,16.38,16.38,0,0,0,1.91,4.83A20.76,20.76,0,0,0,62.65,38ZM94.71,40l-6-10a1.93,1.93,0,0,0-.93-.81l-52-22a2,2,0,0,0-2.56.92l-27,52a2,2,0,0,0,.14,2.07l7,10a2,2,0,0,0,.89.7l52,21a2,2,0,0,0,2.53-.94l26-51A2,2,0,0,0,94.71,40Zm-54.8,7.14-3.63-35.4L84.79,32.24,70.55,50.94ZM10.33,60.85l24.2-46.62L38,47.61,19.78,64.83l-9.41-3.92Zm6,8.52L12.51,64l7,2.92h0l25.37,14ZM66.3,89l-.25.49-5.82-2.35L21.69,65.79,39.34,49.05,69.9,52.87Zm2.5-4.91L72,52.38,86.25,33.64l4.46,7.44Z"/><text x="0" y="115" fill="#000000" font-size="5px" font-weight="bold" font-family="'Helvetica Neue', Helvetica, Arial-Unicode, Arial, Sans-serif">Created by Lonnie Tapscott</text><text x="0" y="120" fill="#000000" font-size="5px" font-weight="bold" font-family="'Helvetica Neue', Helvetica, Arial-Unicode, Arial, Sans-serif">from the Noun Project</text></svg>