<svg width="100" height="100" xmlns="http://www.w3.org/2000/svg"><path d="M43.35 35l-.9-2.36a19.88 19.88 0 002.45-1.14 3.65 3.65 0 001.5-1.55 2.83 2.83 0 00.22-1.45 2.64 2.64 0 00-.14-.7l3.09-1.1 8.75 18.58L53.91 47 48 33.27 43.35 35zm20.33-11a16.91 16.91 0 015.37 5.72c1.86 2.93 2.84 5.49 2.86 7.61s-1.31 3.84-4 4.88a7.27 7.27 0 01-7.19-.61 17.76 17.76 0 01-5.28-6.84c-1.44-3-2-5.32-1.77-7.15s1.53-3.07 3.87-3.91a7 7 0 016.14.3zm-1 14a3 3 0 003.4.9 2 2 0 001.34-2.68 19.72 19.72 0 00-2.3-5.06 19.23 19.23 0 00-3.19-4.33 2.73 2.73 0 00-3-.62 1.89 1.89 0 00-1.42 2.21 16.38 16.38 0 001.91 4.83A20.76 20.76 0 0062.65 38h.03zm32.03 2l-6-10a1.93 1.93 0 00-.93-.81l-52-22a2 2 0 00-2.56.92l-27 52a2 2 0 00.14 2.07l7 10a2 2 0 00.89.7l52 21a2 2 0 002.53-.94l26-51a2 2 0 00-.07-1.94zm-54.8 7.14l-3.63-35.4 48.51 20.5-14.24 18.7-30.64-3.8zM10.33 60.85l24.2-46.62L38 47.61 19.78 64.83l-9.41-3.92-.04-.06zm6 8.52L12.51 64l7 2.92 25.37 14-28.55-11.55zM66.3 89l-.25.49-5.82-2.35-38.54-21.35 17.65-16.74 30.56 3.82L66.3 89zm2.5-4.91L72 52.38l14.25-18.74 4.46 7.44L68.8 84.09z"/></svg>
