<svg xmlns="http://www.w3.org/2000/svg" viewBox="0 0 100 100"><path d="M86.08 30.84L49.32 7.32A2 2 0 0047 7.4l-33.24 25a2 2 0 00-.76 1.7l1 30a2 2 0 00.83 1.55L51.6 92.09a2 2 0 001.17.38 2 2 0 001.35-.47l31.23-28.52a2 2 0 00.65-1.41l1-29.48a2 2 0 00-.92-1.75zM48.34 11.43l34.21 21.9-29.85 26-35.14-24.72zM18 63l-.88-26.23 34.65 24.31v26.21zm35.8 23.9V61l29.09-25.32L82 61.09zm-6.34-58.59a2.69 2.69 0 00-1.28-.5 2.46 2.46 0 00-2.29.87c-.94 1.05-.94 2.36 0 3.94a17.91 17.91 0 003 3.29 4.79 4.79 0 010-2.47 5.89 5.89 0 011.23-2.19A6.33 6.33 0 0153 29a9.14 9.14 0 015.75 2.12 10.92 10.92 0 013.85 5.33c.71 2.14.24 4.28-1.43 6.42a6.79 6.79 0 01-7.39 2.47 18.48 18.48 0 01-7.55-4.12A42 42 0 0142.7 38a14.83 14.83 0 01-3.06-4.57 7.54 7.54 0 01-.49-3.69 6.07 6.07 0 011.65-3.39 7.17 7.17 0 014.56-2.5 7.28 7.28 0 014.89 1.3zm7.76 13a3 3 0 002.65-1.14 2.67 2.67 0 00.47-2.65 5.76 5.76 0 00-2.06-2.71A5.4 5.4 0 0053 33.39a3 3 0 00-2.44 1.07 2.92 2.92 0 00-.71 2 4.7 4.7 0 002 3.39 5.57 5.57 0 003.37 1.43z"/></svg>
