<svg width="571.162" height="580.46" clip-rule="evenodd" fill-rule="evenodd" image-rendering="optimizeQuality" shape-rendering="geometricPrecision" text-rendering="geometricPrecision" viewBox="0 0 2796.9 2842.4" xmlns="http://www.w3.org/2000/svg"><defs><style>.prefix__fil0{fill:#000}.prefix__fil1{fill:#fff}</style></defs><path class="prefix__fil0" d="M0 1432.3c0 319.86 97.35 607.99 269.79 868.28 143.38 216.43 403 422.84 656.12 493.01 256.34 71.07 245.5 43.17 473.06 43.17l177.66 5.63c197.89 0 389.07-70.73 518.07-142.56 163.71-91.15 327.15-239.11 429.04-392.58 82.12-123.69 113.84-180.71 172.73-326.9 133.88-332.39 133.88-785.88 0-1118.3-58.62-145.57-89.01-200.49-170.52-323.57-37.16-56.12-102.4-132.89-148.52-179.01C2166.64 148.68 1887.44.01 1571.07.01h-2.99c-62.46.17-112.75 5.63-169.11 5.63L1221.33.01c-196.62 0-389.87 71.18-518.09 142.56-65.55 36.5-140.17 88.82-196.41 136.68C349 413.51 240.94 564.34 149.8 749.38c-17.75 36.05-34 80.02-49.13 117.42C33.64 1032.56-.01 1251.65-.01 1432.29z"/><path class="prefix__fil1" d="M394.16 1393.4c0 87.13 3.58 102.9 10.73 188.96 34.21 411.02 268.16 803.51 624.5 1018.9 117.44 70.99 252.93 113.89 388.45 133.38 103.2 14.83 214.92 10.77 318.43-10.23 547.76-111.06 896.67-609.96 951.42-1147 14-137.27 14-175.19 0-312.46-13.2-129.47-39.77-243.49-84.86-364.79-101.58-273.26-287.96-513.03-539.62-659.54-63.55-37-132.37-68.82-206.95-92.85-161.33-51.95-329.14-62.06-495.53-30.68-43.45 8.2-78.07 17.59-120.37 29.61-55.29 15.7-160.05 63.85-207.51 92.29-207.73 124.54-358.16 284.62-468.41 497.6-9.62 18.56-18.56 30.47-27.89 49.77-47.3 97.69-90.66 233.34-111.43 338.26-13.42 67.86-30.96 200.2-30.96 268.8zM366.39 2253.9h166.54c-33.46-49.96-80.94-135.17-103.27-194.29H249.8c7.22 30.96 93.42 182.92 116.59 194.29zM272.02 732.8h183.19c9.67-41.5 85.69-157.6 110.39-193.65l-160.35-.66c-14.59 0-29.26 30.04-37.02 40.88l-66.05 100.32c-11.58 19.31-20.23 34.35-30.16 53.12zM321.99 1715.4l-16.17-117.11c-1.42-18.02 2.05-27.23-17.16-27.23H111.02c.02 25.2 4.71 52.55 9.19 79.41 14.64 87.95-24.76 64.93 201.77 64.93zM105.47 1371.2l-6.65 44.2 1.1 11.3 6 44.4h188.3v-88.8l6.88-55.3-195.63-.2zM116.59 1221.3h177.64c22.07 0 15.7-17.75 23.53-65.4 3.94-23.95 10.42-55.32 14.31-77.93l-176.62-.64c-17.14 0-15.71 9.34-19.41 24.59l-19.45 119.38zM172.1 977.07h188.75c4.15-51.45 36.97-98.67 44.4-144.35H222.06c-13.44 41.43-46.64 104.43-49.96 144.35zM199.85 1959.7H388.6c-13.13-27.35-36.1-108.7-44.42-144.33H155.44c5.21 22.44 14.62 52.46 21.44 72.91 6.63 19.9 21.36 52.25 22.96 71.42zM727.24 2498.2c-12.02-17.94-95.85-99.34-122.14-144.33H438.56c21.53 32.14 98.37 102.59 134.14 132.32 18.79 15.61 9.48 12.41 43.12 12.41 37.09.02 74.3-.4 111.43-.4zM488.53 438.58c124.12 0 145.93 15.33 183.72-32.68 33.48-42.56 101.6-99.65 110.51-111.67-134.8 0-113.11-14.38-178.68 37.72-36.73 29.19-90.9 69.84-115.54 106.63z"/><path class="prefix__fil0" d="M1399 2470.4c0 64.13 99.98 55.51 149.89 55.51 51.16 0 106.81-105.47-66.61-105.47-27.31 0-83.28-4.79-83.28 49.96zM1609.9 421.91c28.23 0 54.38 4.43 72.15-22.66 9.6-14.62 10.82-24.87 5.19-43.03-4.98-16.04-12.62-24.92-30.91-30.67-33.46-10.54-76.3-9.12-107.5-9.12-43.99 0-65.22 39.83-46.73 74.09 16.31 30.2 78.31 31.38 107.8 31.38zM1038.1 2337.2c0 51.36 123.79 99.93 138.79 99.93 11.74 0 44.42-14.41 44.42-55.51 0-40.7-119.17-94.38-133.24-94.38-27.45 0-49.97 22.52-49.97 49.96zM2414.9 1460v49.96c0 69.75 94.74 74.89 99.95 5.61 5.5-72.93 24.41-144.39-55.55-144.39-37.16 0-44.4 62.51-44.4 88.82zM1998.5 555.14c24.03 0 113.13-43.43.62-111.81-13.79-8.37-66.12-38.08-78.35-38.08-50.96 0-70.34 63.5-30.39 91.48 12.76 8.94 96.81 58.41 108.11 58.41zM571.8 1387.9c0 31.78-4.65 83.26 55.52 83.26 61.85 0 74.93-194.29 5.56-194.29-56.28 0-61.07 48.33-61.07 111.03zM682.83 1088.2c29.71 0 39.19-8.72 50.13-33.2 11.36-25.42 41.57-92.85 34.66-117.96-5.45-19.86-25.34-37.65-45.93-37.65-47.25 0-55.79 52.62-70.69 90.24-6.76 17.07-18.96 44.28-15 62.27 4.6 20.91 23.51 36.29 46.83 36.29zM2170.6 693.94c0 35.79 68.33 133.24 105.47 133.24 25.18 0 49.96-22 49.96-49.97 0-26.6-27.97-55.77-42.02-74.55-8.7-11.62-15.19-21.67-23.51-32-30.04-37.35-89.9-24.54-89.9 23.29zM1121.4 455.23c0 76.42 74.18 45.39 100.82 34.19 32.75-13.79 88.42-30.35 86.42-72.39-2.43-50.79-47.2-53.88-93.8-34.92-20.78 8.44-37.21 16.29-57.56 25.99-21.25 10.12-35.88 20.42-35.88 47.13zM610.66 1698.8c0 43.97 8.33 59.7 21.32 100.87 3.47 11.01 7.88 27.63 14.2 35.7 21.24 27.18 113.29 42.54 76.84-82.41-10.42-35.75-19.86-93.02-62.41-93.02-21.67 0-49.96 21.18-49.96 38.86zM821.62 693.94c0 53.9 32.26 55.51 61.07 55.51 16.65 0 61.96-52.22 73.17-65.6 22.49-26.83 46.61-57.46 14.81-89.05-47.48-47.14-91.65 25.01-119.95 55.95-9.12 9.97-29.1 26.31-29.1 43.19zM2398.2 1754.3c-15.38 4.51-22.68-5.28-42.49 40.81-9.55 22.23-16.72 41.76-23.48 59.93-26.26 70.64 22.12 90.4 51.07 83.97 37.67-8.37 51.99-70.1 64.16-102.22 8.63-22.78 14.69-40.25 2.36-61.64-14.12-24.54-33.9-26.03-51.63-20.84zM2481.5 1132.5c0-18.63-21.99-144.33-66.61-144.33-89.78 0-53.22 78.96-36.87 131.28 32.33 103.37 103.48 52.55 103.48 13.06zM1787.6 2414.9c0 74.16 57.16 60.06 101.56 40.49 38.6-17.02 84.44-29.66 84.43-74.22 0-20.02-15.32-36.69-31.79-43.27-35.11-14.03-154.2 43.41-154.2 76.99zM2109.6 2203.9c0 66.56 58.43 79.95 114.41 8.96 22.51-28.53 46.57-39.73 46.57-75.57 0-49.37-56.21-61.68-88.86-27.89-14.79 15.3-72.13 73.61-72.13 94.5zM766.1 2059.6c0 35.61 70.28 133.24 105.47 133.24 27.44 0 49.97-22.52 49.97-49.97 0-20.66-63.99-127.68-105.49-127.68-23.35 0-49.96 19.83-49.96 44.42z"/><path class="prefix__fil1" d="M1021.5 2709.1c-54.02-12.59-156.07-107.66-188.67-111.11-19.17-2.03-78.99-.76-97.99 2.1 61.03 40.42 170.74 82.81 246.56 105.16l25.77 6.58c1.11.05 2.83.05 3.86.02 12.07-.49 2.94 1.81 10.47-2.74zM832.72 194.31c20.02 0 41.76.89 61.5.31 28.18-.8 90.54-41.36 117.71-59.8 8.86-6.01 3.92-2.26 9.53-7.14-29.43 2.45-111.36 30.68-143.99 44.66-8.28 3.54-15.58 6.55-23.51 9.9-8.32 3.51-3.61.71-11.55 5.12-7.19 3.99-5.49 3.28-9.71 6.95z"/><path d="M1054.1 1049.7c1.06-40.09 1.94-75.51 2.82-105.81.88-30.29 2.44-56.39 4.46-78.62 1.97-21.74 4.73-39.67 8.45-53.6 3.79-14.19 8.99-25.01 15.84-32.32 7-7.45 15.75-11.81 26.17-13.36 10.47-1.55 23.46-.56 38.85 2.64 9.26 1.93 21.89 5.16 38.49 9.79 16.26 4.54 37.4 9.96 62.09 15.69 24.84 5.77 53.87 12.59 87.2 19.89s71.24 14.15 113.49 21.44c23.47 4.05 45.24 7.99 66.31 11.34 20.95 3.33 42.48 6.59 64.55 9.64 21.94 3.02 45.42 5.92 70.18 8.85 25 2.96 53.17 5.91 84.15 9.01 3.76 6.84 7.75 13.52 11.62 20.04-19.83 24.24-41.76 51.8-64.78 82.97-23.69 32.07-48.17 67.48-73.47 105.66-25.98 39.2-52.3 81.15-79.22 125.85-27.53 45.72-54.67 93.45-81.8 142.64-27.55 49.94-54.29 101.43-81.1 154.13-27.17 53.42-52.95 104.76-77.93 155.84-25.02 51.15-48.81 101.88-71.48 150.87-22.98 49.67-43.54 94-62.79 135.8 59.86-15.38 112.08-29.17 155.51-39.31 43.78-10.22 81.19-21.69 112.44-30.3 18.4-5.07 34.77-9.34 49.53-12.89 14.94-3.6 28.58-6.9 41.2-9.79 12.5-2.86 24.13-5.94 34.74-8.7 10.87-2.83 21.58-5.5 31.93-8.55 18.17-5.35 34.14-13.24 48.12-22.53 14.08-9.36 26.09-22.35 36.27-38.22 10.24-15.98 18.8-36.2 25.59-59.98 6.83-23.92 12.21-53.6 15.96-88.41a1690.2 1690.2 0 0138.49-5.13c-.47 49.57-3.67 91.22-9.98 125.08-6.25 33.58-15.44 61.96-26.64 84.21-11.33 22.5-25.11 39.64-41.43 52.67-16.18 12.92-34.52 22.64-55.05 29.68-12.1 4.15-24.27 7.87-36.15 10.41-12.07 2.58-24.75 4.73-38.14 7.15-13.25 2.39-27.46 4.72-42.84 6.83-15.13 2.08-32.26 4.62-51.41 8.24-18.64 3.52-39.9 7.96-63.49 13.52-23.23 5.47-49.98 11.11-79.58 16.94-19.35 3.81-39.96 7.68-61.26 12.74-21.89 5.2-44.96 11.01-69.6 15.54-24.42 4.48-51.03 9.9-79.46 16.31-28.73 6.48-59.5 13.36-92.72 22.22-3.99-6.84-8.1-13.52-12.09-20.35 20.07-39.62 41.67-83.59 65.25-130.98 23.36-46.92 47.46-95.96 73.12-146.21 25.51-49.97 52.16-100.85 78.75-153.51 27.16-53.77 53.5-106.88 80.86-158.95 27.1-51.56 53.9-101.73 80.63-151.8 26.43-49.52 51.87-96.87 76.76-140.93 24.52-43.42 48.08-84.31 70.42-122.13 21.9-37.07 42.6-70.38 61.26-100.53-24.53-3.73-47.41-7.35-68.89-10.72-21.12-3.31-41.43-6.66-60.68-9.63-19.01-2.93-37.17-5.67-54.46-8.39-17.22-2.71-34.16-4.92-50.23-7.46-21.37-3.37-42.82-6.97-64.08-10.57-23.69-4.01-44-6.76-61.26-7.93-17.36-1.17-32.01-.65-44.6 2.02-12.3 2.61-22.84 7.55-31.1 15.69-8.28 8.17-15.08 19.56-20.42 34.65-5.22 14.74-9.18 33.73-12.21 56.4-3.07 23.01-5.87 50.5-7.98 83.13-14.43-2.49-28.87-5.28-43.19-7.93zm1002.3-135.49c-6.81 39.47-13.28 80.64-19.72 122.59-6.48 42.26-12.81 85.13-18.78 128.81-6.01 43.95-11.22 88.58-16.2 133.47-5 45.08-9.72 89.66-13.5 134.24-3.73 44.14-6.75 87.33-9.04 130.51-2.28 43.05-3.84 84.22-4.34 123.68-.32 24.86-.23 45.99.35 63.86.59 18.02 1.35 32.65 2.82 44.91 1.47 12.3 3.52 22.3 6.22 29.37 2.82 7.39 6.5 12.86 10.45 16.47 4.05 3.7 9.02 6.16 14.44 7.3 5.61 1.18 12.32 1.21 19.95.78 14.2-.81 29.39-3.39 46.12-7.92 16.48-4.47 33.1-10.1 49.88-17.4 2.7 6.06 5.4 11.96 8.22 17.56-10.8 7.77-24.26 15.77-40.49 24.08-15.92 8.15-33.16 15.85-51.05 23.31-17.9 7.46-35.18 14.23-52.11 19.42-16.99 5.22-31.82 8.25-44.13 9.32-16.09 1.41-28.49-.8-37.79-7.15-9.36-6.39-15.95-17.28-20.66-33.1-4.68-15.73-7.75-36.52-8.8-62.46-1.05-25.8-1.72-57.33-1.29-94.62.16-13.67.88-32.79 2-57.8 1.11-24.86 2.52-54.24 4.58-87.48 2.05-33.1 4.17-69.46 6.57-108.61 2.41-39.32 5.22-79.56 7.98-121.66 2.75-41.8 5.75-83.44 8.92-125.7 3.16-42.11 6.59-82.8 9.62-121.82 3.06-39.29 6.29-75.8 8.92-110.32 2.64-34.63 5.34-64.93 7.75-91.05.53-5.74 2.18-10.62 6.22-13.83 4.18-3.32 9.16-4.97 15.38-5.75s13.39-.26 21.12.93c7.41 1.14 15.63 2.89 23.36 5.44 18.21 6 36.97 16.31 57.04 30.61z" fill-rule="nonzero"/></svg>
