<svg width="139pt" height="136pt" version="1.0" viewBox="0 0 139 136" xmlns="http://www.w3.org/2000/svg"><path d="M41.7 3.7C36.1 12.8-.1 84.2.3 85.4c.3.7 3 4.8 6.1 9.2l5.6 8 41.6 16.8c22.8 9.2 42.1 16.5 42.8 16.3 1.3-.5 42.6-80.5 42.6-82.5 0-2.4-10.3-18-12.5-19C117.1 29.9 45.8 0 45 0c-.5 0-2 1.7-3.3 3.7zm5.8 35.8l2.5 24L36.9 76c-7.3 6.9-13.8 12.9-14.5 13.3-1.8 1-15-4.6-14.6-6.2.7-3.5 36.7-71.3 36.9-69.6.2 1.1 1.4 12.8 2.8 26zM132 53.2c0 .9-33.2 66-33.5 65.6-.1-.2.9-11 2.2-24.1l2.4-23.7 22.2-29.2 3.3 5.3c1.9 3 3.4 5.7 3.4 6.1zM77.2 68.9c12 1.5 21.9 2.9 22.2 3.2s-4.2 47.2-5.4 56.6c-.1 1.3-37-18.3-64.9-34.4l-4.4-2.6 13.4-12.8c8-7.6 14.2-12.8 15.4-12.8 1.1 0 11.8 1.2 23.7 2.8zM16.7 91.7c5.3 2.4 38.3 20.6 38 20.9-.2.2-9-3.2-19.6-7.5-17.3-7-19.5-8.2-21.7-11.5-2.8-4-2.2-4.4 3.3-1.9z"/></svg>
