<?xml version="1.0" encoding="UTF-8"?>
<!DOCTYPE svg  PUBLIC '-//W3C//DTD SVG 20010904//EN'  'http://www.w3.org/TR/2001/REC-SVG-20010904/DTD/svg10.dtd'>
<svg width="139pt" height="136pt" version="1.0" viewBox="0 0 139 136" xmlns="http://www.w3.org/2000/svg">
<g transform="translate(0 136) scale(.1 -.1)">
<path d="m417 1323c-56-91-418-805-414-817 3-7 30-48 61-92l56-80 416-168c228-92 421-165 428-163 13 5 426 805 426 825 0 24-103 180-125 190-94 43-807 342-815 342-5 0-20-17-33-37zm58-358 25-240-131-125c-73-69-138-129-145-133-18-10-150 46-146 62 7 35 367 713 369 696 2-11 14-128 28-260zm845-137c0-9-332-660-335-656-1 2 9 110 22 241l24 237 222 292 33-53c19-30 34-57 34-61zm-548-157c120-15 219-29 222-32s-42-472-54-566c-1-13-370 183-649 344l-44 26 134 128c80 76 142 128 154 128 11 0 118-12 237-28zm-605-228c53-24 383-206 380-209-2-2-90 32-196 75-173 70-195 82-217 115-28 40-22 44 33 19z"/>
</g>
</svg>
