<?xml version="1.0" encoding="UTF-8"?>
<!DOCTYPE svg  PUBLIC '-//W3C//DTD SVG 20010904//EN'  'http://www.w3.org/TR/2001/REC-SVG-20010904/DTD/svg10.dtd'>
<svg width="116pt" height="133pt" version="1.0" viewBox="0 0 116 133" xmlns="http://www.w3.org/2000/svg">
<g transform="translate(0 133) scale(.1 -.1)">
<path d="m270 1128-271-203 6-210c3-115 8-228 11-251l5-41 291-208c159-114 298-209 307-212 12-3 97 68 262 217 134 121 249 228 255 238 8 11 13 98 15 256l4 238-295 189c-162 104-300 188-307 189-7 0-134-91-283-202zm818-449c-5-139-10-195-20-204-7-7-92-83-188-170s-190-172-207-189l-33-30v201 202l218 190c119 104 222 190 227 190 7 1 8-65 3-190zm-735-13 257-179v-204-204l-57 41c-32 23-151 108-264 188l-206 147-6 95c-4 52-7 144-7 203 0 87 3 106 13 100 8-4 129-89 270-187z"/>
</g>
</svg>
