<svg width="116pt" height="133pt" version="1.0" viewBox="0 0 116 133" xmlns="http://www.w3.org/2000/svg"><path d="M27 20.2L-.1 40.5l.6 21c.3 11.5.8 22.8 1.1 25.1l.5 4.1 29.1 20.8c15.9 11.4 29.8 20.9 30.7 21.2 1.2.3 9.7-6.8 26.2-21.7 13.4-12.1 24.9-22.8 25.5-23.8.8-1.1 1.3-9.8 1.5-25.6l.4-23.8L86 18.9C69.8 8.5 56 .1 55.3 0 54.6 0 41.9 9.1 27 20.2zm81.8 44.9c-.5 13.9-1 19.5-2 20.4-.7.7-9.2 8.3-18.8 17s-19 17.2-20.7 18.9l-3.3 3V84.1l21.8-19c11.9-10.4 22.2-19 22.7-19 .7-.1.8 6.5.3 19zm-73.5 1.3L61 84.3v40.8l-5.7-4.1c-3.2-2.3-15.1-10.8-26.4-18.8L8.3 87.5 7.7 78C7.3 72.8 7 63.6 7 57.7c0-8.7.3-10.6 1.3-10 .8.4 12.9 8.9 27 18.7z"/></svg>
