<svg width="250pt" height="250pt" version="1.0" viewBox="0 0 250 250" xmlns="http://www.w3.org/2000/svg"><path d="M127.3 11.5c-3.3 1.4-7.3 6.7-7.3 9.5 0 1.3-1.4 1.6-7.2 1.5-7.8 0-11.6 1.6-14.1 5.9-.9 1.5-1.3 13.3-1.7 41.1-.5 35-.7 39.4-2.4 43.3-1 2.3-2.8 4.9-3.9 5.7-1.8 1.3-2.5 1-8.1-3.9-8-6.9-13.1-10.3-24.9-16.5-13.6-7.1-20.2-6.9-25.4.8-2.6 3.8-3 9.3-.9 13.1.8 1.4 5.2 5.7 9.8 9.6 10.2 8.6 15.8 15.5 22.2 27 10 18.1 19.8 29.6 32.9 38.9l5.7 4v21.1c0 15 .3 21.3 1.2 22.2 1.7 1.7 64.9 1.7 66.6 0 .8-.8 1.2-6.7 1.2-19.9v-18.8l5.5-7.3c9.2-12.1 13.9-26.4 16.5-49.3.6-5.7 1.1-26.4 1-47.8 0-33.3-.2-38.1-1.6-40.3-2.5-3.7-6.6-5.4-13.4-5.4h-6v-6.1c0-5.8-.2-6.4-3.9-10-3.8-3.8-4-3.9-11.5-3.9H150v-3.9c0-9.4-12.3-15.1-22.7-10.6zm14.1 8.7c1.4 1.9 1.5 5.4 1 24.3-.3 12.1-.2 24 .3 26.4 1 5.4 3.5 7.4 6 4.8 1.6-1.5 1.8-4.2 2.1-20.5.3-10.6.8-19.2 1.4-20 .6-.6 3.2-1.2 5.9-1.2 7.9 0 8.2 1.1 7.4 23.7-.3 10.3-.3 20.8.2 23.2 1 5.3 3.5 7.4 6 4.9 1.3-1.4 1.7-4.5 2.2-16.5l.6-14.8 5.2-.3c4.5-.3 5.3 0 6.4 1.9 1.7 3.3.5 73.6-1.5 88.5-2.7 18.9-8 32.5-16.8 42.8l-4.1 4.8.4 35.8H110l-.2-20.2-.3-20.2-8-6c-14.8-11.1-20.8-18.4-33.9-41-5.8-10.2-12.2-17.5-22.2-25.7-6.1-5-7.4-6.5-7.4-8.9 0-2.1.8-3.5 2.6-4.7 2.5-1.6 2.8-1.6 11.2 2.6 12.4 6.2 21.7 12.4 28 18.8 4.9 5.1 5.6 5.5 8.8 5 7.1-1.2 13.1-8.6 15-18.3.4-2.1.8-20.2.8-40.2.1-34.8.2-36.4 2-37.8 2.3-1.6 7.9-1.8 10.7-.4 1.7 1 1.9 2.3 2 13.3 0 14.5.8 19.6 3.1 21.1 1.4.8 2.2.7 3.5-.7 1.6-1.6 1.8-4 1.8-22.6 0-24 0-24.1 7.6-24.1 3.8 0 5.1.4 6.3 2.2z"/><path d="M112 131.5V171h56v-13h-41V92h-15v39.5z"/></svg>
