<?xml version="1.0" encoding="UTF-8"?>
<!DOCTYPE svg  PUBLIC '-//W3C//DTD SVG 20010904//EN'  'http://www.w3.org/TR/2001/REC-SVG-20010904/DTD/svg10.dtd'>
<svg width="250pt" height="250pt" version="1.0" viewBox="0 0 250 250" xmlns="http://www.w3.org/2000/svg">
<g transform="translate(0 250) scale(.1 -.1)">
<path d="m1273 2385c-33-14-73-67-73-95 0-13-14-16-72-15-78 0-116-16-141-59-9-15-13-133-17-411-5-350-7-394-24-433-10-23-28-49-39-57-18-13-25-10-81 39-80 69-131 103-249 165-136 71-202 69-254-8-26-38-30-93-9-131 8-14 52-57 98-96 102-86 158-155 222-270 100-181 198-296 329-389l57-40v-211c0-150 3-213 12-222 17-17 649-17 666 0 8 8 12 67 12 199v188l55 73c92 121 139 264 165 493 6 57 11 264 10 478 0 333-2 381-16 403-25 37-66 54-134 54h-60v61c0 58-2 64-39 100-38 38-40 39-115 39h-76v39c0 94-123 151-227 106zm141-87c14-19 15-54 10-243-3-121-2-240 3-264 10-54 35-74 60-48 16 15 18 42 21 205 3 106 8 192 14 200 6 6 32 12 59 12 79 0 82-11 74-237-3-103-3-208 2-232 10-53 35-74 60-49 13 14 17 45 22 165l6 148 52 3c45 3 53 0 64-19 17-33 5-736-15-885-27-189-80-325-168-428l-41-48 4-358h-270-271l-2 202-3 202-80 60c-148 111-208 184-339 410-58 102-122 175-222 257-61 50-74 65-74 89 0 21 8 35 26 47 25 16 28 16 112-26 124-62 217-124 280-188 49-51 56-55 88-50 71 12 131 86 150 183 4 21 8 202 8 402 1 348 2 364 20 378 23 16 79 18 107 4 17-10 19-23 20-133 0-145 8-196 31-211 14-8 22-7 35 7 16 16 18 40 18 226 0 240 0 241 76 241 38 0 51-4 63-22z"/>
<path d="m1120 1185v-395h280 280v65 65h-205-205v330 330h-75-75v-395z"/>
</g>
</svg>
