<svg height="512" viewBox="0 0 74 74" width="512" xmlns="http://www.w3.org/2000/svg"><path class="prefix__dh_bg" d="M7.99 72a5.99 5.99 0 01-4.235-10.226l11.594-11.593a1 1 0 01.707-.293 1 1 0 01.707.293l7.056 7.057a1 1 0 010 1.414L12.226 70.246A5.951 5.951 0 017.99 72zm8.066-19.7L5.169 63.188a3.991 3.991 0 000 5.644 4.089 4.089 0 005.643 0L21.7 57.945zM31.338 55.073a1 1 0 01-.707-.293L19.22 43.369a1 1 0 01-.023-1.391L53.626 5.266a1 1 0 01.555-.3l16.644-2.95a1 1 0 011.159 1.159l-2.95 16.644a.99.99 0 01-.3.556L32.021 54.8a.992.992 0 01-.683.273zm-10.02-12.434L31.36 52.681l35.763-33.539 2.643-14.908-14.909 2.643z"/><path class="prefix__dh_bg" d="M30.673 66.2a1.733 1.733 0 01-1.232-.51L8.312 44.559a1.746 1.746 0 010-2.463l5-5a1.743 1.743 0 012.464 0L36.9 58.225a1.743 1.743 0 010 2.464l-5 5a1.73 1.73 0 01-1.227.511zM9.908 43.327l20.766 20.765 4.634-4.635-20.765-20.766z"/><path class="prefix__dh_bg" d="M25.633 49.367a1 1 0 01-.707-1.707L53.784 18.8a1 1 0 011.416 1.416L26.34 49.074a.993.993 0 01-.707.293z"/></svg>
