<svg id="Icons" height="512" viewBox="0 0 74 74" width="512" xmlns="http://www.w3.org/2000/svg"><path class="dh_bg" d="m7.99 72a5.99 5.99 0 0 1 -4.235-10.226l11.594-11.593a1 1 0 0 1 .707-.293 1 1 0 0 1 .707.293l7.056 7.057a1 1 0 0 1 0 1.414l-11.593 11.594a5.951 5.951 0 0 1 -4.236 1.754zm8.066-19.7-10.887 10.888a3.991 3.991 0 0 0 0 5.644 4.089 4.089 0 0 0 5.643 0l10.888-10.887z"/><path class="dh_bg" d="m31.338 55.073a1 1 0 0 1 -.707-.293l-11.411-11.411a1 1 0 0 1 -.023-1.391l34.429-36.712a1 1 0 0 1 .555-.3l16.644-2.95a1 1 0 0 1 1.159 1.159l-2.95 16.644a.99.99 0 0 1 -.3.556l-36.713 34.425a.992.992 0 0 1 -.683.273zm-10.02-12.434 10.042 10.042 35.763-33.539 2.643-14.908-14.909 2.643z"/><path class="dh_bg" d="m30.673 66.2a1.733 1.733 0 0 1 -1.232-.51l-21.129-21.131a1.746 1.746 0 0 1 0-2.463l5-5a1.743 1.743 0 0 1 2.464 0l21.124 21.129a1.743 1.743 0 0 1 0 2.464l-5 5a1.73 1.73 0 0 1 -1.227.511zm-20.765-22.873 20.766 20.765 4.634-4.635-20.765-20.766z"/><path class="dh_bg" d="m25.633 49.367a1 1 0 0 1 -.707-1.707l28.858-28.86a1 1 0 0 1 1.416 1.416l-28.86 28.858a.993.993 0 0 1 -.707.293z"/></svg>
