<svg viewBox="0 0 317.24 317.24" xmlns="http://www.w3.org/2000/svg"><path d="M277.23 141.57c-.942-7.235-4.646-13.67-10.428-18.12s-12.952-6.38-20.186-5.439c-7.235.942-13.67 4.646-18.125 10.435l-12.192 15.884V44.555c0-15.062-12.253-27.315-27.315-27.315a27.143 27.143 0 00-14.03 3.889c-2.812-12.091-13.667-21.13-26.6-21.13-12.934 0-23.789 9.039-26.6 21.129a27.146 27.146 0 00-14.03-3.889c-15.062 0-27.315 12.253-27.315 27.315v16.829a27.142 27.142 0 00-13.315-3.478c-15.062 0-27.315 12.253-27.315 27.315v118.92c0 26.744 11.959 50.745 30.807 66.944l-.002.042v39.103a7 7 0 007 7h103a7 7 0 007-7v-39.103c0-.571-.076-1.123-.205-1.654a88.812 88.812 0 008.099-8.392c.07-.083.138-.168.205-.254l76.108-99.076c4.449-5.781 6.381-12.95 5.439-20.185zM173.58 303.23h-89v-22.291c12.836 7.292 27.667 11.463 43.455 11.463a88.118 88.118 0 0045.545-12.646v23.474zm87.108-150.01l-76.011 98.949c-14.153 16.675-34.789 26.235-56.643 26.235-40.947 0-74.26-33.313-74.26-74.26V85.214c0-7.342 5.973-13.315 13.315-13.315s13.315 5.973 13.315 13.315v60.981a7 7 0 1014 0V44.545c0-7.342 5.973-13.315 13.315-13.315s13.315 5.973 13.315 13.315v101.65a7 7 0 1014 0V27.305c0-7.342 5.973-13.315 13.315-13.315s13.315 5.973 13.315 13.315v118.89a7 7 0 1014 0V44.545c0-7.342 5.973-13.315 13.315-13.315s13.315 5.973 13.315 13.315v120.39a6.999 6.999 0 0012.553 4.262l24.74-32.23a13.229 13.229 0 018.833-5.083 13.218 13.218 0 019.84 2.651c2.818 2.169 4.624 5.306 5.083 8.833s-.482 7.021-2.655 9.845z"/></svg>
