<?xml version="1.0" encoding="UTF-8"?>
<!DOCTYPE svg  PUBLIC '-//W3C//DTD SVG 1.1//EN'  'http://www.w3.org/Graphics/SVG/1.1/DTD/svg11.dtd'>
<svg enable-background="new 0 0 317.235 317.235" version="1.1" viewBox="0 0 317.24 317.24" xml:space="preserve" xmlns="http://www.w3.org/2000/svg">
<path d="m277.23 141.57c-0.942-7.235-4.646-13.67-10.428-18.12s-12.952-6.38-20.186-5.439c-7.235 0.942-13.67 4.646-18.125 10.435l-12.192 15.884v-99.775c0-15.062-12.253-27.315-27.315-27.315-5.127 0-9.927 1.422-14.03 3.889-2.812-12.091-13.667-21.13-26.6-21.13-12.934 0-23.789 9.039-26.6 21.129-4.104-2.467-8.903-3.889-14.03-3.889-15.062 0-27.315 12.253-27.315 27.315v16.829c-3.943-2.211-8.483-3.478-13.315-3.478-15.062 0-27.315 12.253-27.315 27.315v118.92c0 26.744 11.959 50.745 30.807 66.944 0 0.014-2e-3 0.028-2e-3 0.042v39.103c0 3.866 3.134 7 7 7h103c3.866 0 7-3.134 7-7v-39.103c0-0.571-0.076-1.123-0.205-1.654 2.86-2.6 5.569-5.398 8.099-8.392 0.07-0.083 0.138-0.168 0.205-0.254l76.108-99.076c4.449-5.781 6.381-12.95 5.439-20.185zm-103.65 161.66h-89v-22.291c12.836 7.292 27.667 11.463 43.455 11.463 16.262 0 31.955-4.453 45.545-12.646v23.474zm87.108-150.01-76.011 98.949c-14.153 16.675-34.789 26.235-56.643 26.235-40.947 0-74.26-33.313-74.26-74.26v-118.93c0-7.342 5.973-13.315 13.315-13.315s13.315 5.973 13.315 13.315v60.981c0 3.866 3.134 7 7 7s7-3.134 7-7v-101.65c0-7.342 5.973-13.315 13.315-13.315s13.315 5.973 13.315 13.315v101.65c0 3.866 3.134 7 7 7s7-3.134 7-7v-118.89c0-7.342 5.973-13.315 13.315-13.315s13.315 5.973 13.315 13.315v118.89c0 3.866 3.134 7 7 7s7-3.134 7-7v-101.65c0-7.342 5.973-13.315 13.315-13.315s13.315 5.973 13.315 13.315v120.39c0 2.999 1.91 5.664 4.75 6.628 2.837 0.963 5.977 0.013 7.803-2.366l24.74-32.23c2.169-2.818 5.306-4.624 8.833-5.083 3.526-0.462 7.021 0.482 9.84 2.651 2.818 2.169 4.624 5.306 5.083 8.833s-0.482 7.021-2.655 9.845z"/>
</svg>
