<?xml version="1.0" encoding="UTF-8"?>
<svg enable-background="new 0 0 512 512" version="1.1" viewBox="0 0 512 512" xml:space="preserve" xmlns="http://www.w3.org/2000/svg">
<path d="m498.12 92.38-78.505-78.506c-18.496-18.497-48.436-18.5-66.935 0-13.167 13.169-302.64 302.64-308.16 308.16-2.182 2.182-3.725 4.918-4.46 7.915l-39.563 161.12c-3.036 12.368 8.186 23.44 20.431 20.432 8.361-2.053 153.72-37.747 161.12-39.564 2.996-0.735 5.734-2.278 7.915-4.46l308.16-308.16c18.496-18.497 18.501-48.436-1e-3 -66.935zm-458.17 379.66 1.612-6.562 4.951 4.951-6.563 1.611zm44.917-11.029-33.887-33.887 14.736-60.009 79.16 79.16-60.009 14.736zm93.148-29.367-97.668-97.668 252.2-252.21 97.668 97.668-252.2 252.21zm296.22-296.22-19.508 19.507-97.667-97.668 19.507-19.507c5.294-5.293 13.867-5.298 19.163 0l78.506 78.507c5.295 5.295 5.295 13.864-1e-3 19.161z"/>
</svg>
