<svg viewBox="0 0 512 512" xmlns="http://www.w3.org/2000/svg"><path d="M498.12 92.38l-78.505-78.506c-18.496-18.497-48.436-18.5-66.935 0-13.167 13.169-302.64 302.64-308.16 308.16a16.878 16.878 0 00-4.46 7.915L.497 491.069c-3.036 12.368 8.186 23.44 20.431 20.432l161.12-39.564a16.878 16.878 0 007.915-4.46l308.16-308.16c18.496-18.497 18.501-48.436-.001-66.935zM39.95 472.04l1.612-6.562 4.951 4.951-6.563 1.611zm44.917-11.029L50.98 427.124l14.736-60.009 79.16 79.16-60.009 14.736zm93.148-29.367l-97.668-97.668 252.2-252.21 97.668 97.668-252.2 252.21zm296.22-296.22l-19.508 19.507-97.667-97.668 19.507-19.507c5.294-5.293 13.867-5.298 19.163 0l78.506 78.507c5.295 5.295 5.295 13.864-.001 19.161z"/></svg>
