<svg height="512" viewBox="0 0 512.079 512.079" width="512" xmlns="http://www.w3.org/2000/svg"><path d="M495.259 456.672c-.85-20.723 2.7-42.667 6.529-63.134 22.476-106.041 17.864-218.545-115.145-213.884-5.085.177-9.624-1.479-12.837-4.691l-13.289-13.289 38.306-38.306 15.06 15.06a7.5 7.5 0 0011.79-1.539l44.807-77.22c3.223-5.555 2.338-12.338-2.203-16.879-4.541-4.542-11.324-5.427-16.879-2.203l-77.22 44.806a7.5 7.5 0 00-1.539 11.79l15.578 15.578-38.306 38.306-12.813-12.813c-3.213-3.213-4.879-7.772-4.69-12.837 1.668-44.95-10.677-78.681-36.69-100.257a7.5 7.5 0 10-9.576 11.546c22.24 18.446 32.763 48.105 31.277 88.155-.345 9.281 2.877 17.804 9.073 24l12.813 12.813-23.815 23.816-12.813-12.813c-10.606-10.606-16.112-25.46-15.503-41.826 5.874-104.574-94.186-91.402-166.386-76.281-16.9 3.288-29.105 5.674-37.849 5.485-27.401-.103-49.959-13.958-61.397-36.211 22.073 10.023 46.812 9.109 70.092 5.902a353.285 353.285 0 0030.345-4.869c63.379-12.862 109.739-13.169 141.725-.938 9.279 3.227 14.593-10.058 5.357-14.011-34.679-13.324-84.418-13.158-150.532.344-9.368 1.916-19 3.456-28.645 4.577-28.457 4.014-53.291 3.667-78.189-13.379C6.336-2.256-1.216 2.718.166 9.149c.476 2.426 5.171 24.217 23.181 42.227 10.509 10.51 23.277 17.556 38.115 21.075l183.533 183.533-111.119 111.12-39.15.626a7.5 7.5 0 00-5.184 2.195l-19.827 19.827a7.5 7.5 0 0010.606 10.607l17.68-17.681 31.136-.497-.498 31.136-53.229 53.229.374-23.394c.143-4.096-3.491-7.812-7.619-7.619l-23.393.374 14.214-14.214c6.774-7.25-3.336-17.388-10.607-10.607l-27.313 27.312c-4.746 4.625-1.229 12.984 5.423 12.803l34.172-.546-.546 34.172c-.191 6.616 8.152 10.19 12.802 5.424l68.475-68.474a7.502 7.502 0 002.196-5.184l.617-38.607 111.394-111.395L439.608 450.6c7.662 36.351 42.033 58.084 64.748 61.436 5.82.149 9.616-6.876 6.232-11.671-9.13-13.648-14.288-28.35-15.329-43.693zM455.544 55.524l-37.949 65.401-27.452-27.453zM85.264 75.041c47.772-3.533 129.672-32.909 168.892-1.692 13.146 10.922 19.043 29.549 18.028 56.945-.766 20.582 6.297 39.4 19.886 52.989l12.813 12.813-49.282 49.282zM315.49 206.703l13.289 13.289c13.589 13.589 32.402 20.646 52.988 19.887 27.397-1.017 46.024 4.882 56.942 18.023 31.218 39.231 1.846 121.106-1.69 168.894l-170.811-170.81zm155.802 271.405c-12.386-12.386-18.875-28.866-19.286-48.984-.179-8.738 2.198-20.951 5.488-37.86 8.425-43.288 21.156-108.705-7.245-142.943-14.095-16.966-36.678-24.631-69.04-23.432-16.354.599-31.219-4.897-41.825-15.503l-13.289-13.289 23.815-23.815 13.29 13.288c6.196 6.195 14.732 9.427 24 9.073 40.05-1.479 69.709 9.037 88.154 31.277 24.129 28.919 28.03 84.921 11.738 164.612a354.126 354.126 0 00-4.78 29.913c-3.205 23.251-4.114 48.021 5.904 70.074-5.413-2.875-11.4-6.886-16.924-12.411z"/></svg>
