<?xml version="1.0" encoding="UTF-8"?>
<!DOCTYPE svg  PUBLIC '-//W3C//DTD SVG 20010904//EN'  'http://www.w3.org/TR/2001/REC-SVG-20010904/DTD/svg10.dtd'>
<svg width="250pt" height="250pt" version="1.0" viewBox="0 0 250 250" xmlns="http://www.w3.org/2000/svg">
<g transform="translate(0 250) scale(.1 -.1)">
<path d="m1074 2386c-45-20-74-62-74-107v-39h-76c-75 0-77-1-115-39-37-36-39-42-39-100v-61h-60c-68 0-109-17-134-54-14-22-16-70-16-403-1-214 4-421 10-478 26-229 73-372 165-493l55-73v-188c0-132 4-191 12-199 17-17 649-17 666 0 9 9 12 72 12 222v211l57 40c131 93 229 208 329 389 64 115 120 184 222 270 46 39 90 82 98 96 21 38 17 93-9 131-52 77-118 79-254 8-118-62-169-96-249-165-56-49-63-52-81-39-11 8-29 34-39 57-17 39-19 83-24 433-4 278-8 396-17 411-25 43-63 59-140 59-59-1-73 2-73 15 0 29-41 81-75 96-43 17-110 18-151 0zm137-83c11-12 14-62 14-224 0-186 2-210 18-226 13-14 21-15 35-7 23 15 31 66 31 211 1 110 3 123 20 133 28 14 84 12 107-4 18-14 19-30 20-378 0-200 4-381 8-402 19-97 79-171 150-183 32-5 39-1 88 50 63 64 156 126 280 188 84 42 87 42 112 26 18-12 26-26 26-47 0-24-13-39-74-89-100-82-164-155-222-257-131-226-191-299-339-410l-80-60-3-202-2-202h-271-270l4 358-41 48c-88 103-141 239-168 428-20 149-32 852-15 885 11 19 19 22 64 19l52-3 6-148c5-120 9-151 22-165 25-25 50-4 60 49 5 24 5 129 2 232-8 226-5 237 74 237 27 0 53-6 59-12 6-8 11-94 14-200 3-163 5-190 21-205 25-26 50-6 60 48 5 24 6 143 3 264-7 260-6 265 73 265 33 0 53-5 62-17z"/>
<path d="m800 1165v-395h75 75v149 148l138 5c132 4 141 6 193 35 73 41 109 99 116 186 7 89-15 153-71 205-58 53-105 62-336 62h-190v-395zm401 242c54-36 64-107 23-156-32-39-77-51-186-51h-88v116 116l113-4c85-3 118-8 138-21z"/>
</g>
</svg>
