<svg width="250pt" height="250pt" version="1.0" viewBox="0 0 250 250" xmlns="http://www.w3.org/2000/svg"><path d="M107.4 11.4c-4.5 2-7.4 6.2-7.4 10.7V26h-7.6c-7.5 0-7.7.1-11.5 3.9-3.7 3.6-3.9 4.2-3.9 10V46h-6c-6.8 0-10.9 1.7-13.4 5.4-1.4 2.2-1.6 7-1.6 40.3-.1 21.4.4 42.1 1 47.8 2.6 22.9 7.3 37.2 16.5 49.3l5.5 7.3v18.8c0 13.2.4 19.1 1.2 19.9 1.7 1.7 64.9 1.7 66.6 0 .9-.9 1.2-7.2 1.2-22.2v-21.1l5.7-4c13.1-9.3 22.9-20.8 32.9-38.9 6.4-11.5 12-18.4 22.2-27 4.6-3.9 9-8.2 9.8-9.6 2.1-3.8 1.7-9.3-.9-13.1-5.2-7.7-11.8-7.9-25.4-.8-11.8 6.2-16.9 9.6-24.9 16.5-5.6 4.9-6.3 5.2-8.1 3.9-1.1-.8-2.9-3.4-3.9-5.7-1.7-3.9-1.9-8.3-2.4-43.3-.4-27.8-.8-39.6-1.7-41.1-2.5-4.3-6.3-5.9-14-5.9-5.9.1-7.3-.2-7.3-1.5 0-2.9-4.1-8.1-7.5-9.6-4.3-1.7-11-1.8-15.1 0zm13.7 8.3c1.1 1.2 1.4 6.2 1.4 22.4 0 18.6.2 21 1.8 22.6 1.3 1.4 2.1 1.5 3.5.7 2.3-1.5 3.1-6.6 3.1-21.1.1-11 .3-12.3 2-13.3 2.8-1.4 8.4-1.2 10.7.4 1.8 1.4 1.9 3 2 37.8 0 20 .4 38.1.8 40.2 1.9 9.7 7.9 17.1 15 18.3 3.2.5 3.9.1 8.8-5 6.3-6.4 15.6-12.6 28-18.8 8.4-4.2 8.7-4.2 11.2-2.6 1.8 1.2 2.6 2.6 2.6 4.7 0 2.4-1.3 3.9-7.4 8.9-10 8.2-16.4 15.5-22.2 25.7-13.1 22.6-19.1 29.9-33.9 41l-8 6-.3 20.2-.2 20.2H85.9l.4-35.8-4.1-4.8c-8.8-10.3-14.1-23.9-16.8-42.8-2-14.9-3.2-85.2-1.5-88.5 1.1-1.9 1.9-2.2 6.4-1.9l5.2.3.6 14.8c.5 12 .9 15.1 2.2 16.5 2.5 2.5 5 .4 6-4.9.5-2.4.5-12.9.2-23.2C83.7 35.1 84 34 91.9 34c2.7 0 5.3.6 5.9 1.2.6.8 1.1 9.4 1.4 20 .3 16.3.5 19 2.1 20.5 2.5 2.6 5 .6 6-4.8.5-2.4.6-14.3.3-26.4-.7-26-.6-26.5 7.3-26.5 3.3 0 5.3.5 6.2 1.7z"/><path d="M80 133.5V173h15V143.3l13.8-.5c13.2-.4 14.1-.6 19.3-3.5 7.3-4.1 10.9-9.9 11.6-18.6.7-8.9-1.5-15.3-7.1-20.5-5.8-5.3-10.5-6.2-33.6-6.2H80v39.5zm40.1-24.2c5.4 3.6 6.4 10.7 2.3 15.6-3.2 3.9-7.7 5.1-18.6 5.1H95v-23.2l11.3.4c8.5.3 11.8.8 13.8 2.1z"/></svg>
