<?xml version="1.0" encoding="UTF-8"?>
<svg enable-background="new 0 0 512 512" version="1.1" viewBox="0 0 512 512" xml:space="preserve" xmlns="http://www.w3.org/2000/svg">
<path d="m504 200h-496c-4.416 0-8 3.584-8 8v128c0 4.416 3.584 8 8 8h496c4.416 0 8-3.584 8-8v-128c0-4.416-3.584-8-8-8zm-8 128h-480v-112h480v112z"/>
<path d="m504 168h-496c-4.416 0-8 3.584-8 8v32c0 4.416 3.584 8 8 8h496c4.416 0 8-3.584 8-8v-32c0-4.416-3.584-8-8-8zm-8 32h-480v-16h480v16z"/>
<path d="m64 280c-4.416 0-8 3.584-8 8v48c0 4.416 3.584 8 8 8s8-3.584 8-8v-48c0-4.416-3.584-8-8-8z"/>
<path d="m192 280c-4.416 0-8 3.584-8 8v48c0 4.416 3.584 8 8 8s8-3.584 8-8v-48c0-4.416-3.584-8-8-8z"/>
<path d="m320 280c-4.416 0-8 3.584-8 8v48c0 4.416 3.584 8 8 8s8-3.584 8-8v-48c0-4.416-3.584-8-8-8z"/>
<path d="m448 280c-4.416 0-8 3.584-8 8v48c0 4.416 3.584 8 8 8s8-3.584 8-8v-48c0-4.416-3.584-8-8-8z"/>
<path d="m384 240c-4.416 0-8 3.584-8 8v88c0 4.416 3.584 8 8 8s8-3.584 8-8v-88c0-4.416-3.584-8-8-8z"/>
<path d="m256 240c-4.416 0-8 3.584-8 8v88c0 4.416 3.584 8 8 8s8-3.584 8-8v-88c0-4.416-3.584-8-8-8z"/>
<path d="m128 240c-4.416 0-8 3.584-8 8v88c0 4.416 3.584 8 8 8s8-3.584 8-8v-88c0-4.416-3.584-8-8-8z"/>
</svg>
