<svg viewBox="0 0 512 512" xmlns="http://www.w3.org/2000/svg"><path d="M504 200H8c-4.416 0-8 3.584-8 8v128c0 4.416 3.584 8 8 8h496c4.416 0 8-3.584 8-8V208c0-4.416-3.584-8-8-8zm-8 128H16V216h480v112z"/><path d="M504 168H8c-4.416 0-8 3.584-8 8v32c0 4.416 3.584 8 8 8h496c4.416 0 8-3.584 8-8v-32c0-4.416-3.584-8-8-8zm-8 32H16v-16h480v16zM64 280c-4.416 0-8 3.584-8 8v48c0 4.416 3.584 8 8 8s8-3.584 8-8v-48c0-4.416-3.584-8-8-8zM192 280c-4.416 0-8 3.584-8 8v48c0 4.416 3.584 8 8 8s8-3.584 8-8v-48c0-4.416-3.584-8-8-8zM320 280c-4.416 0-8 3.584-8 8v48c0 4.416 3.584 8 8 8s8-3.584 8-8v-48c0-4.416-3.584-8-8-8zM448 280c-4.416 0-8 3.584-8 8v48c0 4.416 3.584 8 8 8s8-3.584 8-8v-48c0-4.416-3.584-8-8-8zM384 240c-4.416 0-8 3.584-8 8v88c0 4.416 3.584 8 8 8s8-3.584 8-8v-88c0-4.416-3.584-8-8-8zM256 240c-4.416 0-8 3.584-8 8v88c0 4.416 3.584 8 8 8s8-3.584 8-8v-88c0-4.416-3.584-8-8-8zM128 240c-4.416 0-8 3.584-8 8v88c0 4.416 3.584 8 8 8s8-3.584 8-8v-88c0-4.416-3.584-8-8-8z"/></svg>
