<?xml version="1.0" encoding="UTF-8"?>
<!DOCTYPE svg  PUBLIC '-//W3C//DTD SVG 1.1//EN'  'http://www.w3.org/Graphics/SVG/1.1/DTD/svg11.dtd'>
<svg enable-background="new 0 0 305.002 305.002" version="1.1" viewBox="0 0 305 305" xml:space="preserve" xmlns="http://www.w3.org/2000/svg">
<path d="m152.5 1e-3c-84.09 0-152.5 68.411-152.5 152.5s68.412 152.5 152.5 152.5c84.089 0 152.5-68.411 152.5-152.5s-68.411-152.5-152.5-152.5zm0 280c-70.305 0-127.5-57.195-127.5-127.5 0-70.304 57.197-127.5 127.5-127.5 70.304 0 127.5 57.196 127.5 127.5 0 70.305-57.196 127.5-127.5 127.5z"/>
<path d="m218.47 93.97-90.546 90.547-41.398-41.398c-4.882-4.881-12.796-4.881-17.678 0-4.881 4.882-4.881 12.796 0 17.678l50.237 50.237c2.441 2.44 5.64 3.661 8.839 3.661s6.398-1.221 8.839-3.661l99.385-99.385c4.881-4.882 4.881-12.796 0-17.678-4.882-4.882-12.797-4.882-17.678-1e-3z"/>
</svg>
