<svg viewBox="0 0 305 305" xmlns="http://www.w3.org/2000/svg"><path d="M152.5.001C68.41.001 0 68.412 0 152.501s68.412 152.5 152.5 152.5c84.089 0 152.5-68.411 152.5-152.5S236.589.001 152.5.001zm0 280c-70.305 0-127.5-57.195-127.5-127.5 0-70.304 57.197-127.5 127.5-127.5 70.304 0 127.5 57.196 127.5 127.5 0 70.305-57.196 127.5-127.5 127.5z"/><path d="M218.47 93.97l-90.546 90.547-41.398-41.398c-4.882-4.881-12.796-4.881-17.678 0-4.881 4.882-4.881 12.796 0 17.678l50.237 50.237c2.441 2.44 5.64 3.661 8.839 3.661s6.398-1.221 8.839-3.661l99.385-99.385c4.881-4.882 4.881-12.796 0-17.678-4.882-4.882-12.797-4.882-17.678-.001z"/></svg>
