<svg viewBox="0 0 512 512" xmlns="http://www.w3.org/2000/svg"><path d="M510.4 312.56l-90.05-178.77a15.048 15.048 0 00-8.338-7.372l-111.02-40.407c1.499-43.15-53.407-63.852-80.495-29.298l-110.87-40.352c-7.101-2.576-15.092.566-18.51 7.354L1.603 201.465c-1.169 2.323-1.67 5.047-1.597 7.224.259 57.706 47.279 104.57 105.04 104.57 57.782 0 104.81-46.894 105.04-104.62.068-2.242-.468-4.956-1.63-7.238l-73.294-143.82 75.797 27.588c.188 11.757 4.842 22.784 13.177 31.118a44.775 44.775 0 0016.855 10.618v277.34h-2.662c-42.617 0-77.289 34.671-77.289 77.288 0 8.284 6.716 15 15 15h159.9c8.284 0 15-6.716 15-15 0-42.617-34.671-77.288-77.289-77.288h-2.662v-277.34c7.273-2.556 13.774-6.92 19.022-12.963l95.943 34.92-82.411 163.7c-1.173 2.33-1.667 5.05-1.596 7.226.261 57.69 47.269 104.54 105.02 104.54 57.752 0 104.76-46.856 105.02-104.55.083-2.468-.532-5.111-1.598-7.225zM104.6 63.66l66.026 129.56H39.356zm.456 219.61c-36.248 0-66.576-25.829-73.544-60.05h147.09c-6.968 34.221-37.296 60.05-73.544 60.05zm168.61 150.99c20.834 0 38.565 13.543 44.851 32.288h-125.02c6.286-18.745 24.017-32.288 44.851-32.288zM245.363 95.08c-5.868-5.868-5.868-15.416 0-21.284 9.421-9.421 25.692-2.729 25.692 10.642 0 13.376-16.275 20.059-25.692 10.642zm161.6 78.813l65.694 130.42h-131.35zm.021 220.44c-36.233 0-66.55-25.819-73.519-60.025h147.04c-6.968 34.205-37.285 60.025-73.518 60.025z"/></svg>
