<?xml version="1.0" encoding="UTF-8"?>
<svg enable-background="new 0 0 511.998 511.998" version="1.1" viewBox="0 0 512 512" xml:space="preserve" xmlns="http://www.w3.org/2000/svg">
<path d="m501.99 438.52h-96.954v-189.89c0.801-0.76 1.596-1.53 2.381-2.315l11.543-11.552c4e-3 -4e-3 8e-3 -0.01 0.012-0.014l49.878-49.867v-2e-3c0.234-0.233 0.455-0.479 0.666-0.734 0.082-0.1 0.152-0.206 0.23-0.309 0.119-0.159 0.242-0.315 0.353-0.481 0.08-0.122 0.15-0.249 0.227-0.375 0.094-0.154 0.191-0.308 0.277-0.468 0.066-0.123 0.121-0.25 0.182-0.375 0.082-0.171 0.166-0.34 0.238-0.516 0.047-0.113 0.084-0.23 0.125-0.344 0.072-0.193 0.145-0.385 0.205-0.584 0.029-0.1 0.051-0.202 0.078-0.303 0.057-0.214 0.115-0.428 0.158-0.648 0.018-0.092 0.027-0.186 0.043-0.279 0.037-0.228 0.076-0.456 0.1-0.689 6e-3 -0.065 4e-3 -0.133 0.01-0.198 0.02-0.255 0.039-0.509 0.039-0.768 0-0.275-0.02-0.544-0.041-0.813-4e-3 -0.049-4e-3 -0.099-8e-3 -0.148-0.025-0.256-0.066-0.507-0.109-0.757-0.012-0.069-0.018-0.139-0.031-0.208-0.049-0.247-0.111-0.487-0.178-0.728-0.02-0.073-0.035-0.146-0.057-0.219-0.07-0.232-0.152-0.457-0.238-0.681-0.031-0.081-0.057-0.163-0.088-0.243-0.09-0.218-0.193-0.429-0.297-0.639-0.041-0.082-0.076-0.167-0.121-0.249-0.115-0.217-0.242-0.426-0.373-0.634-0.043-0.068-0.082-0.14-0.127-0.207-0.172-0.259-0.355-0.509-0.551-0.75-0.01-0.012-0.018-0.025-0.029-0.038-0.43-0.527-0.912-1.01-1.438-1.439-0.018-0.015-0.037-0.026-0.055-0.041-0.236-0.19-0.48-0.371-0.734-0.539-0.072-0.049-0.149-0.09-0.225-0.137-0.201-0.126-0.404-0.251-0.615-0.363-0.088-0.048-0.18-0.086-0.27-0.13-0.203-0.101-0.406-0.2-0.617-0.287-0.088-0.036-0.176-0.064-0.266-0.097-0.217-0.082-0.434-0.163-0.658-0.23-0.08-0.025-0.162-0.041-0.244-0.064-0.232-0.063-0.465-0.124-0.703-0.171-0.08-0.016-0.16-0.023-0.24-0.037-0.24-0.041-0.479-0.081-0.725-0.105-0.074-7e-3 -0.149-6e-3 -0.223-0.012-0.246-0.018-0.49-0.037-0.74-0.037h-53.573l17.553-17.552 64.987 5e-3c3.824 0 7.313-2.18 8.988-5.615 12.691-26.02 15.648-55.742 8.328-83.694-0.908-3.465-3.602-6.181-7.059-7.117-3.461-0.939-7.154 0.048-9.688 2.58l-47.702 47.702v-37.988c0-3.24-1.568-6.279-4.211-8.154-2.643-1.876-6.029-2.356-9.088-1.286-8.957 3.13-17.402 7.244-25.281 12.287v-5.49c0-34.999-28.477-63.474-63.476-63.474h-278.08c-34.999-1e-3 -63.476 28.475-63.476 63.477 0 5.523 4.478 10 10 10h96.952v375.04c0 35.001 28.477 63.477 63.477 63.477h278.09c35.001 0 63.475-28.477 63.475-63.478 0-5.524-4.476-10.001-10-10.001zm-10.25-354.24c1.127 15.628-1.398 31.388-7.449 45.982l-38.532-4e-3 45.981-45.978zm-470.58-30.792c4.53-19.17 21.783-33.478 42.316-33.478 20.531 0 37.772 14.311 42.302 33.478h-84.618zm416.48 134.32-29.889 29.885h-49.421l18.213-18.214c0.018-0.018 0.035-0.034 0.051-0.051l11.621-11.62h49.425zm-99.307 49.884h48.989c-18.398 15.754-41.489 24.342-65.847 24.343-2.414 0-4.824-0.089-7.227-0.261l24.085-24.082zm-38.219 9.93c-2.035-28.943 8.555-57.998 29.535-78.979l29.852-29.851v49.445l-32.379 32.38c-2e-3 2e-3 -4e-3 3e-3 -6e-3 5e-3l-27.002 27zm97.886-147.33 0.592-0.591c7.478-7.479 15.859-13.637 25.029-18.4v42.813l-9.068 9.068c-2e-3 2e-3 -4e-3 4e-3 -6e-3 5e-3l-35.046 35.049v-49.445l18.499-18.499zm-227.57 391.71c-23.974-2e-3 -43.477-19.506-43.477-43.478v-385.04c0-16.806-6.566-32.109-17.266-43.476h231.88c23.973 0 43.476 19.503 43.476 43.474v21.504c-0.191 0.189-0.389 0.372-0.578 0.562l-68.347 68.344-0.594 0.593c-29.051 29.052-41.438 71.031-33.069 110.8l-24.143 24.142c-3.906 3.905-3.906 10.237 0 14.143 1.953 1.953 4.512 2.929 7.07 2.929 2.559 0 5.119-0.977 7.072-2.929l24.141-24.14c8.162 1.72 16.506 2.605 24.883 2.605 22.766-1e-3 44.597-6.269 63.565-17.989v174.48h-161.13c-5.521 0-10 4.478-10 10 1e-3 23.975-19.503 43.479-43.478 43.479zm278.09-2e-3h-231.9c8.541-9.069 14.459-20.634 16.5-33.479h257.71c-4.529 19.171-21.782 33.479-42.315 33.479z"/>
<path d="m247.75 73.482h0.236c5.523 0 10-4.478 10-10 0-5.523-4.477-10-10-10h-0.236c-5.521 0-10 4.477-10 10s4.478 10 10 10z"/>
<path d="m167.99 73.479h51.034c5.523 0 10-4.477 10-10 0-5.522-4.477-10-10-10h-51.034c-5.523 0-10 4.478-10 10 1e-3 5.524 4.477 10 10 10z"/>
<path d="m167.99 113.48h138.97c5.521 0 10-4.478 10-10 0-5.523-4.479-10-10-10h-138.97c-5.523 0-10 4.477-10 10 1e-3 5.522 4.477 10 10 10z"/>
<path d="m167.99 153.48h105.85c5.522 0 10-4.477 10-10 0-5.522-4.478-10-10-10h-105.85c-5.523 0-10 4.478-10 10 1e-3 5.523 4.477 10 10 10z"/>
<path d="m167.99 193.48h80.22c5.521 0 10-4.478 10-10 0-5.523-4.479-10-10-10h-80.22c-5.523 0-10 4.477-10 10 1e-3 5.522 4.477 10 10 10z"/>
<path d="m167.99 233.47h68.97c5.523 0 10-4.477 10-10s-4.477-10-10-10h-68.97c-5.523 0-10 4.477-10 10 1e-3 5.523 4.477 10 10 10z"/>
<path d="m167.99 273.47h51.034c5.523 0 10-4.477 10-10 0-5.522-4.477-10-10-10h-51.034c-5.523 0-10 4.477-10 10s4.477 10 10 10z"/>
<path d="m229.02 303.47c0-5.522-4.477-10-10-10h-51.034c-5.523 0-10 4.478-10 10 0 5.524 4.477 10 10 10h51.034c5.524 0 10-4.477 10-10z"/>
<path d="m290.3 383.2h51.034c5.523 0 10-4.477 10-10 0-5.522-4.477-10-10-10h-51.034c-5.523 0-10 4.478-10 10 1e-3 5.524 4.477 10 10 10z"/>
<path d="m251.33 373.2c0 5.523 4.477 10 10 10h0.234c5.523 0 10-4.477 10-10 0-5.522-4.477-10-10-10h-0.234c-5.524 0-10 4.478-10 10z"/>
</svg>
