<svg viewBox="0 0 512 512" xmlns="http://www.w3.org/2000/svg"><path d="M501.99 438.52h-96.954V248.63c.801-.76 1.596-1.53 2.381-2.315l11.543-11.552.012-.014 49.878-49.867v-.002c.234-.233.455-.479.666-.734.082-.1.152-.206.23-.309.119-.159.242-.315.353-.481.08-.122.15-.249.227-.375.094-.154.191-.308.277-.468.066-.123.121-.25.182-.375.082-.171.166-.34.238-.516.047-.113.084-.23.125-.344.072-.193.145-.385.205-.584.029-.1.051-.202.078-.303.057-.214.115-.428.158-.648.018-.092.027-.186.043-.279.037-.228.076-.456.1-.689.006-.065.004-.133.01-.198.02-.255.039-.509.039-.768 0-.275-.02-.544-.041-.813-.004-.049-.004-.099-.008-.148a10.446 10.446 0 00-.109-.757c-.012-.069-.018-.139-.031-.208a9.904 9.904 0 00-.178-.728c-.02-.073-.035-.146-.057-.219a9.78 9.78 0 00-.238-.681c-.031-.081-.057-.163-.088-.243-.09-.218-.193-.429-.297-.639-.041-.082-.076-.167-.121-.249a9.83 9.83 0 00-.373-.634c-.043-.068-.082-.14-.127-.207a9.63 9.63 0 00-.551-.75l-.029-.038c-.43-.527-.912-1.01-1.438-1.439-.018-.015-.037-.026-.055-.041a9.743 9.743 0 00-.734-.539c-.072-.049-.149-.09-.225-.137a9.922 9.922 0 00-.615-.363c-.088-.048-.18-.086-.27-.13a9.61 9.61 0 00-.617-.287c-.088-.036-.176-.064-.266-.097a9.837 9.837 0 00-.658-.23c-.08-.025-.162-.041-.244-.064a10.288 10.288 0 00-.703-.171c-.08-.016-.16-.023-.24-.037-.24-.041-.479-.081-.725-.105-.074-.007-.149-.006-.223-.012-.246-.018-.49-.037-.74-.037h-53.573l17.553-17.552 64.987.005a10 10 0 008.988-5.615c12.691-26.02 15.648-55.742 8.328-83.694a10.001 10.001 0 00-16.747-4.537l-47.702 47.702V66.127a9.995 9.995 0 00-4.211-8.154 9.996 9.996 0 00-9.088-1.286 120.57 120.57 0 00-25.281 12.287v-5.49c0-34.999-28.477-63.474-63.476-63.474H63.478C28.479.009.002 28.485.002 63.487c0 5.523 4.478 10 10 10h96.952v375.04c0 35.001 28.477 63.477 63.477 63.477h278.09c35.001 0 63.475-28.477 63.475-63.478 0-5.524-4.476-10.001-10-10.001zM491.74 84.28a101.108 101.108 0 01-7.449 45.982l-38.532-.004L491.74 84.28zM21.16 53.488c4.53-19.17 21.783-33.478 42.316-33.478 20.531 0 37.772 14.311 42.302 33.478H21.16zm416.48 134.32l-29.889 29.885H358.33l18.213-18.214.051-.051 11.621-11.62h49.425zm-99.307 49.884h48.989c-18.398 15.754-41.489 24.342-65.847 24.343-2.414 0-4.824-.089-7.227-.261l24.085-24.082zm-38.219 9.93c-2.035-28.943 8.555-57.998 29.535-78.979l29.852-29.851v49.445l-32.379 32.38-.006.005-27.002 27zM398 100.292l.592-.591c7.478-7.479 15.859-13.637 25.029-18.4v42.813l-9.068 9.068-.006.005-35.046 35.049v-49.445L398 100.292zm-227.57 391.71c-23.974-.002-43.477-19.506-43.477-43.478V63.484c0-16.806-6.566-32.109-17.266-43.476h231.88c23.973 0 43.476 19.503 43.476 43.474v21.504c-.191.189-.389.372-.578.562l-68.347 68.344-.594.593c-29.051 29.052-41.438 71.031-33.069 110.8l-24.143 24.142c-3.906 3.905-3.906 10.237 0 14.143a9.967 9.967 0 007.07 2.929 9.975 9.975 0 007.072-2.929l24.141-24.14a120.72 120.72 0 0024.883 2.605c22.766-.001 44.597-6.269 63.565-17.989v174.48h-161.13c-5.521 0-10 4.478-10 10 .001 23.975-19.503 43.479-43.478 43.479zM448.52 492h-231.9c8.541-9.069 14.459-20.634 16.5-33.479h257.71C486.301 477.692 469.048 492 448.515 492z"/><path d="M247.75 73.482h.236c5.523 0 10-4.478 10-10 0-5.523-4.477-10-10-10h-.236c-5.521 0-10 4.477-10 10s4.478 10 10 10zM167.99 73.479h51.034c5.523 0 10-4.477 10-10 0-5.522-4.477-10-10-10H167.99c-5.523 0-10 4.478-10 10 .001 5.524 4.477 10 10 10zM167.99 113.48h138.97c5.521 0 10-4.478 10-10 0-5.523-4.479-10-10-10H167.99c-5.523 0-10 4.477-10 10 .001 5.522 4.477 10 10 10zM167.99 153.48h105.85c5.522 0 10-4.477 10-10 0-5.522-4.478-10-10-10H167.99c-5.523 0-10 4.478-10 10 .001 5.523 4.477 10 10 10zM167.99 193.48h80.22c5.521 0 10-4.478 10-10 0-5.523-4.479-10-10-10h-80.22c-5.523 0-10 4.477-10 10 .001 5.522 4.477 10 10 10zM167.99 233.47h68.97c5.523 0 10-4.477 10-10s-4.477-10-10-10h-68.97c-5.523 0-10 4.477-10 10 .001 5.523 4.477 10 10 10zM167.99 273.47h51.034c5.523 0 10-4.477 10-10 0-5.522-4.477-10-10-10H167.99c-5.523 0-10 4.477-10 10s4.477 10 10 10zM229.02 303.47c0-5.522-4.477-10-10-10h-51.034c-5.523 0-10 4.478-10 10 0 5.524 4.477 10 10 10h51.034c5.524 0 10-4.477 10-10zM290.3 383.2h51.034c5.523 0 10-4.477 10-10 0-5.522-4.477-10-10-10H290.3c-5.523 0-10 4.478-10 10 .001 5.524 4.477 10 10 10zM251.33 373.2c0 5.523 4.477 10 10 10h.234c5.523 0 10-4.477 10-10 0-5.522-4.477-10-10-10h-.234c-5.524 0-10 4.478-10 10z"/></svg>
