<?xml version="1.0" encoding="UTF-8"?>
<svg enable-background="new 0 0 431.942 431.942" version="1.1" viewBox="0 0 431.94 431.94" xml:space="preserve" xmlns="http://www.w3.org/2000/svg">
<path d="m385.73 27.51c0.035-4.418-3.518-8.028-7.936-8.063-1.152-9e-3 -2.293 0.231-3.344 0.703-50.385 23.45-109.69 16.419-153.2-18.16-3.02-2.653-7.54-2.653-10.56 0-43.689 34.137-102.74 41.137-153.2 18.16-4.03-1.812-8.765-0.013-10.577 4.016-0.472 1.051-0.712 2.191-0.703 3.344 0 1.68 0.56 166.64 0 221.28-0.32 29.2 67.84 124 165.68 182.08 2.475 1.429 5.525 1.429 8 0 98-58.08 166.16-152.88 165.84-182.08-0.56-54.64 0-219.6 0-221.28zm-16 221.36c0 17.6-56 106-153.76 165.76-98.08-59.68-153.92-148.08-153.76-165.68 0.48-46.16 0.16-170.4 0-209.6 51.607 18.884 109.22 10.91 153.76-21.28 44.538 32.19 102.15 40.164 153.76 21.28 0 39.12-0.4 163.44 0 209.52z"/>
<path d="m343.97 76.15c0.035-4.418-3.518-8.028-7.936-8.063-1.152-9e-3 -2.293 0.231-3.344 0.703-36.571 17.193-79.719 12.237-111.44-12.8-3.02-2.653-7.54-2.653-10.56 0-31.728 24.747-74.583 29.803-111.2 13.12-4.03-1.812-8.765-0.013-10.577 4.016-0.472 1.051-0.712 2.192-0.703 3.344 0 1.2 0.4 123.36 0 163.84-0.24 22 50.64 93.2 123.68 136.56 2.475 1.429 5.525 1.429 8 0 73.2-43.36 124.08-114.56 124.08-136.88-0.4-40.48 0-162.56 0-163.84zm-16 163.84c0 11.28-40 76.32-112 120-71.44-43.92-112-108.96-112-120 0.56-32.64 0-120 0-152 37.708 13.262 79.514 7.29 112-16 32.486 23.29 74.292 29.262 112 16v152z"/>
</svg>
