<svg viewBox="0 0 431.94 431.94" xmlns="http://www.w3.org/2000/svg"><path d="M385.73 27.51a8 8 0 00-11.28-7.36C324.065 43.6 264.76 36.569 221.25 1.99a8 8 0 00-10.56 0c-43.689 34.137-102.74 41.137-153.2 18.16a8 8 0 00-11.28 7.36c0 1.68.56 166.64 0 221.28-.32 29.2 67.84 124 165.68 182.08a8 8 0 008 0c98-58.08 166.16-152.88 165.84-182.08-.56-54.64 0-219.6 0-221.28zm-16 221.36c0 17.6-56 106-153.76 165.76-98.08-59.68-153.92-148.08-153.76-165.68.48-46.16.16-170.4 0-209.6 51.607 18.884 109.22 10.91 153.76-21.28a165.437 165.437 0 00153.76 21.28c0 39.12-.4 163.44 0 209.52z"/><path d="M343.97 76.15a8 8 0 00-11.28-7.36c-36.571 17.193-79.719 12.237-111.44-12.8a8 8 0 00-10.56 0c-31.728 24.747-74.583 29.803-111.2 13.12a8 8 0 00-11.28 7.36c0 1.2.4 123.36 0 163.84-.24 22 50.64 93.2 123.68 136.56a8 8 0 008 0c73.2-43.36 124.08-114.56 124.08-136.88-.4-40.48 0-162.56 0-163.84zm-16 163.84c0 11.28-40 76.32-112 120-71.44-43.92-112-108.96-112-120 .56-32.64 0-120 0-152a122.478 122.478 0 00112-16 122.478 122.478 0 00112 16v152z"/></svg>
