<svg width="571.162" height="580.46" clip-rule="evenodd" fill-rule="evenodd" image-rendering="optimizeQuality" shape-rendering="geometricPrecision" text-rendering="geometricPrecision" viewBox="0 0 2004.5 2037.2" xmlns="http://www.w3.org/2000/svg"><defs><style>.prefix__fil0{fill:#000}.prefix__fil1{fill:#fff}</style></defs><path class="prefix__fil0" d="M0 1026.5c0 229.24 69.77 435.75 193.36 622.3 102.76 155.12 288.83 303.06 470.25 353.35 183.72 50.94 175.95 30.94 339.05 30.94l127.33 4.03c141.83 0 278.85-50.69 371.31-102.18 117.33-65.33 234.47-171.37 307.5-281.36 58.85-88.65 81.59-129.52 123.79-234.29 95.95-238.23 95.95-563.25 0-801.48-42.01-104.33-63.79-143.69-122.21-231.91-26.63-40.22-73.39-95.24-106.44-128.3C1552.87 106.53 1352.76-.03 1126.02-.03h-2.14C1079.11.09 1043.07 4 1002.68 4L875.36-.03c-140.92 0-279.42 51.01-371.32 102.18-46.98 26.16-100.46 63.66-140.77 97.96-113.12 96.23-190.56 204.33-255.89 336.94-12.72 25.84-24.37 57.35-35.21 84.15C24.13 740 .01 897.03.01 1026.49z"/><path class="prefix__fil1" d="M282.5 998.67c0 62.45 2.56 73.75 7.69 135.43 24.52 294.58 192.19 575.88 447.58 730.25 84.17 50.88 181.28 81.63 278.4 95.59 73.96 10.63 154.04 7.72 228.22-7.33 392.59-79.6 642.65-437.17 681.89-822.07 10.03-98.38 10.03-125.56 0-223.94-9.46-92.79-28.5-174.51-60.82-261.45-72.8-195.85-206.38-367.7-386.75-472.7-45.55-26.52-94.87-49.32-148.32-66.54-115.63-37.24-235.9-44.48-355.15-21.99-31.14 5.87-55.95 12.61-86.27 21.22-39.63 11.25-114.71 45.76-148.72 66.15-148.88 89.26-256.7 203.99-335.71 356.63-6.89 13.3-13.3 21.84-19.99 35.67-33.9 70.02-64.98 167.24-79.86 242.43-9.62 48.64-22.19 143.48-22.19 192.65zM262.6 1615.4h119.36c-23.98-35.81-58.01-96.87-74.01-139.25H179.04c5.18 22.19 66.96 131.1 83.56 139.25zM194.96 525.2h131.3c6.93-29.74 61.42-112.95 79.12-138.79l-114.92-.47c-10.45 0-20.97 21.53-26.53 29.3l-47.34 71.9c-8.3 13.84-14.5 24.62-21.62 38.07zM230.77 1229.4l-11.59-83.93c-1.02-12.92 1.47-19.51-12.3-19.51H79.56c.01 18.06 3.37 37.66 6.58 56.91 10.49 63.03-17.75 46.53 144.61 46.53zM75.59 982.77l-4.76 31.73.78 8.1 4.31 31.7 134.95.1v-63.68l4.93-39.66-140.21-.13zM83.56 875.34h127.32c15.82 0 11.25-12.72 16.86-46.87 2.83-17.16 7.47-39.65 10.25-55.85l-126.58-.46c-12.28 0-11.26 6.7-13.91 17.62l-13.94 85.56zM123.35 700.27h135.28c2.97-36.88 26.5-70.71 31.82-103.46h-131.3c-9.63 29.7-33.43 74.85-35.81 103.46zM143.23 1404.5h135.28c-9.41-19.6-25.87-77.91-31.84-103.45H111.4c3.73 16.08 10.48 37.6 15.37 52.26 4.75 14.26 15.31 37.45 16.45 51.19zM521.22 1790.4c-8.61-12.85-68.7-71.2-87.54-103.44H314.32c15.43 23.04 70.5 73.53 96.14 94.83 13.47 11.19 6.8 8.9 30.9 8.9 26.58.01 53.25-.29 79.86-.29zM350.14 314.33c88.96 0 104.59 10.99 131.67-23.42 23.99-30.5 72.82-71.42 79.2-80.04-96.61 0-81.07-10.3-128.06 27.03-26.32 20.92-65.15 50.05-82.81 76.43z"/><path class="prefix__fil0" d="M1002.7 1770.6c0 45.96 71.66 39.79 107.43 39.79 36.66 0 76.55-75.59-47.74-75.59-19.58 0-59.69-3.44-59.69 35.81zM1153.8 302.38c20.24 0 38.98 3.17 51.71-16.24 6.88-10.48 7.75-17.82 3.72-30.84-3.57-11.5-9.05-17.86-22.15-21.98-23.98-7.55-54.68-6.53-77.05-6.53-31.52 0-46.74 28.55-33.49 53.1 11.69 21.64 56.13 22.49 77.26 22.49zM744.03 1675.1c0 36.81 88.72 71.62 99.47 71.62 8.41 0 31.84-10.33 31.84-39.79 0-29.17-85.41-67.64-95.49-67.64-19.68 0-35.82 16.14-35.82 35.81zM1730.8 1046.4v35.81c0 49.99 67.9 53.68 71.64 4.02 3.94-52.27 17.5-103.48-39.81-103.48-26.63 0-31.82 44.8-31.82 63.66zM1432.4 397.88c17.22 0 81.08-31.13.45-80.14-9.88-6-47.39-27.29-56.15-27.29-36.53 0-50.42 45.51-21.78 65.56 9.15 6.41 69.38 41.87 77.49 41.87zM409.81 994.7c0 22.77-3.33 59.67 39.79 59.67 44.33 0 53.7-139.25 3.98-139.25-40.34 0-43.77 34.64-43.77 79.58zM489.39 779.88c21.29 0 28.09-6.25 35.93-23.8 8.14-18.22 29.79-66.54 24.84-84.54-3.91-14.24-18.16-26.98-32.92-26.98-33.86 0-39.99 37.71-50.66 64.68-4.84 12.23-13.59 31.74-10.75 44.63 3.3 14.99 16.85 26.01 33.56 26.01zM1555.7 497.35c0 25.65 48.97 95.49 75.59 95.49 18.05 0 35.81-15.77 35.81-35.82 0-19.07-20.05-39.97-30.12-53.43-6.24-8.33-10.89-15.53-16.85-22.94-21.53-26.77-64.43-17.58-64.43 16.69zM803.72 326.27c0 54.77 53.17 32.53 72.26 24.51 23.47-9.88 63.37-21.75 61.94-51.88-1.74-36.4-33.83-38.62-67.23-25.03-14.9 6.05-26.67 11.67-41.26 18.63-15.23 7.26-25.71 14.64-25.71 33.78zM437.66 1217.5c0 31.51 5.97 42.79 15.28 72.29 2.49 7.89 5.65 19.8 10.18 25.59 15.22 19.48 81.19 30.49 55.07-59.06-7.47-25.62-14.24-66.67-44.73-66.67-15.53 0-35.81 15.18-35.81 27.85zM588.86 497.35c0 38.63 23.12 39.79 43.77 39.79 11.94 0 44.41-37.42 52.44-47.02 16.12-19.23 33.4-41.18 10.62-63.82-34.03-33.79-65.69 17.92-85.97 40.1-6.53 7.14-20.86 18.85-20.86 30.95zM1718.8 1257.3c-11.03 3.24-16.25-3.78-30.45 29.25-6.85 15.93-11.98 29.93-16.83 42.95-18.82 50.63 15.86 64.79 36.6 60.18 26.99-6 37.26-50.24 45.99-73.26 6.19-16.33 10.53-28.85 1.69-44.18-10.12-17.59-24.29-18.66-37-14.93zM1778.5 811.67c0-13.35-15.76-103.45-47.74-103.45-64.34 0-38.15 56.59-26.42 94.09 23.17 74.09 74.16 37.66 74.16 9.36zM1281.2 1730.8c0 53.15 40.97 43.05 72.79 29.02 27.67-12.2 60.52-21.26 60.51-53.19 0-14.35-10.98-26.3-22.79-31.01-25.16-10.06-110.51 31.11-110.51 55.18zM1511.9 1579.6c0 47.7 41.88 57.3 82 6.42 16.13-20.45 33.38-28.48 33.38-54.16 0-35.38-40.29-44.21-63.68-19.99-10.6 10.96-51.7 52.75-51.7 67.73zM549.07 1476.1c0 25.53 50.37 95.49 75.59 95.49 19.66 0 35.82-16.14 35.82-35.82 0-14.81-45.86-91.51-75.61-91.51-16.74 0-35.81 14.21-35.81 31.84z"/><path class="prefix__fil1" d="M732.09 1941.6c-38.72-9.02-111.86-77.16-135.22-79.64-13.74-1.46-56.61-.55-70.23 1.51 43.74 28.97 122.37 59.35 176.71 75.37l18.47 4.72c.8.04 2.03.04 2.76.01 8.65-.35 2.1 1.29 7.51-1.97zM596.81 139.26c14.35 0 29.93.64 44.08.22 20.2-.57 64.89-29.65 84.37-42.86 6.35-4.31 2.81-1.62 6.83-5.11-21.09 1.75-79.81 21.99-103.2 32.01-5.94 2.54-11.16 4.69-16.85 7.09-5.96 2.51-2.59.51-8.28 3.67-5.15 2.86-3.93 2.35-6.96 4.98z"/><path d="M783.64 1233.6c-.9 6.32-1.53 12.43-1.98 18.2-.45 5.88-.56 11.54-.72 17.42-.83 29.85 1.83 54.47 8.1 74 6.23 19.41 15.52 34.12 28.16 44.38 12.37 10.04 27.88 16.15 45.79 17.75 17.98 1.61 38.24-.07 60.99-5.21 22.41-5.06 44.22-13.45 64.59-24.52 20.65-11.22 38.85-25.42 54.33-41.5 15.82-16.43 28.62-35.21 38.23-56.14 9.64-21 14.82-43.94 15.47-68.9.42-16.09-1.59-30.5-5.4-43.05-3.83-12.63-9.27-24.13-16.37-34.29-7.02-10.04-15.54-19.33-25.37-27.51a289.975 289.975 0 00-32.2-23.3c-11.66-7.27-23.94-13.95-36.88-20.42-13.06-6.52-26.17-13.03-39.49-19.86-13.94-7.15-27.94-14.71-41.83-22.41a336.22 336.22 0 01-39.67-25.85c-12.37-9.36-24.13-19.76-34.81-31.18-10.91-11.66-19.93-24.83-27.44-39.5-7.6-14.84-13.4-31.29-17.36-49.37-4.04-18.42-5.72-38.83-5.04-61.25.85-27.85 4.72-53.66 11.6-78 6.79-24.04 15.71-45.9 27.26-65.57 11.57-19.71 24.84-36.92 40.57-51.59 15.57-14.51 32.42-26.74 50.92-36.28 18.29-9.43 37.88-15.71 58.29-19.75 20.52-4.06 41.64-4.97 63.24-3.44 9.71.69 20.03 1.94 31.22 4.11 11.12 2.16 22.31 4.78 33.46 8.21 11.24 3.45 21.7 7.39 31.93 11.65 10 4.17 18.69 9.05 26.63 14.2 7.62 4.95 13.85 10.25 18.35 15.98 4.58 5.82 6.61 11.87 6.48 17.97-.14 6.55-.32 14.98-.81 24.85-.5 9.99-1.03 21.41-1.71 34.17-.67 12.54-1.35 26.41-2.43 41.38a3339.02 3339.02 0 01-3.78 47.6c-11.33-.44-22.67-.89-33.91-1.22.9-8.32 1.51-16.53 1.71-24.19.6-22.97-2.16-43.3-8.37-61.14-6.11-17.56-15.26-32.68-26.81-45.05-11.66-12.48-25.86-22.08-42.55-29.07-16.96-7.1-35.27-11.03-56.04-12.2-20.6-1.16-39.82 1.76-57.75 8.32-18.14 6.64-33.77 16.69-47.23 29.96-13.44 13.25-24.11 29.73-32.02 48.71-7.92 18.97-12.53 40.39-13.22 63.46-.56 18.64 1.1 35.97 4.95 51.04 3.89 15.22 9.41 29.04 16.64 41.5 7.25 12.5 15.78 23.69 25.91 33.62 10.02 9.82 20.88 19.2 32.84 27.63 11.97 8.44 24.43 16.32 37.87 23.74 13.28 7.33 26.85 14.12 40.39 21.08 14.08 7.24 27.95 14.36 41.83 21.52a495.924 495.924 0 0139.85 22.97c12.72 8.15 24.23 17.05 35.08 26.74 10.65 9.5 19.89 20.46 27.62 32.62a151.794 151.794 0 0118.08 40.39c4.25 15.06 6.11 31.73 5.67 50.82-.72 30.95-5.7 59.57-14.84 85.21-9.3 26.06-21.05 49.27-35.89 70.45-14.93 21.3-31.68 40.37-50.65 57.25-19.18 17.07-38.6 31.57-58.92 44.27-20.52 12.82-40.68 23.48-60.9 31.84-20.26 8.38-39.01 14.78-56.22 18.97-22.45 5.46-43.73 8.98-63.6 10.21-19.71 1.22-37.24 1.05-52.09-1.22-14.83-2.27-26.26-6.12-34.63-11.65-8.26-5.45-12.09-12.32-11.87-20.19.5-17.86 1.53-43.62 3.69-77 2.16-33.3 5.13-73.01 8.64-119.05 11.52-1 22.85-2.11 34.45-3.33zm647.97-582.38c-10.16 40.28-18.76 81.89-26 125.38-7.24 43.5-13.76 86.54-18.98 129.04 10.71.44 20.87.99 31.04 1.33 9.9.33 19.35.45 27.89.78 8.73.33 16.64.72 23.75.78 7.1.05 12.86.29 17.63.33 20.6.18 37.24-.66 50.38-2.88 1.17 3.33 2.05 6.86 2.7 9.65.7 2.98.77 5.66.72 7.99-.21 9.21-4.44 15.23-12.41 17.86-8.49 2.8-20.24 4.05-35.98 3.99-14.75-.05-31.32-.76-49.84-2.55-18.18-1.76-38.41-3.55-60.18-5.21-2.97 23.3-5.3 45.84-7.47 68.01-2.15 22.1-4.22 42.71-5.58 62.46-1.35 19.63-2.7 37.95-3.42 54.7-.71 16.53-.92 31.07-1.17 43.49-.47 23.41.37 44.03 2.43 62.02 2.08 18.18 6.11 33.24 12.32 45.6 6.11 12.16 14.66 21.14 25.64 26.96 10.79 5.72 25.09 7.58 42.19 6.1 12.32-1.07 25.95-4.14 41.29-9.54 15.24-5.36 32.65-12.98 52.09-23.41 5.94 5.1 9.36 11.65 10.16 19.86-14.39 9.65-28.55 18.74-43 26.96-14.61 8.31-28.73 15.78-42.91 22.3-13.79 6.34-27.47 11.33-40.57 15.53-12.81 4.11-25.19 6.71-36.97 7.88-15.12 1.49-29.17.29-41.65-3.88-12.44-4.15-23.3-12.47-32.39-25.41-8.91-12.69-15.54-30.85-20.15-53.92-4.66-23.3-6.63-52.48-5.76-88.65.48-19.97 1.18-40.72 2.34-62.13 1.17-21.63 2.47-43.16 4.14-65.13 1.66-21.85 3.49-43.94 5.85-65.9 2.32-21.64 4.95-43.49 7.38-64.46-17.72.11-34.2.56-49.39 1.77-15.31 1.22-28.34 3.22-39.13 5.88-.72-1.33-1.13-2.99-1.08-4.88.13-4.66 2.38-9.05 7.2-13.31 4.71-4.17 11.32-7.7 19.7-11.09 8.08-3.27 18.09-5.71 29.69-7.88 11.53-2.16 24.11-3.66 37.87-4.44a4115.62 4115.62 0 0119.43-129.7c6.74-40.58 13.19-76.56 19.7-108.29 1.14-5.55 3.28-10.14 6.39-13.65 3.09-3.48 6.8-6.07 10.79-7.99 4.1-1.97 8.46-3.06 13.13-3.55 4.77-.5 9.36-.77 13.67-.44 7.55.56 14.32 2.16 20.15 4.11 5.78 1.93 11.42 4.33 16.37 7.54z" fill-rule="nonzero"/></svg>
