<svg width="512pt" height="512pt" version="1.0" viewBox="0 0 512 512" xmlns="http://www.w3.org/2000/svg"><path d="M177.6 68.1c-34.7 3.7-69.5 17.8-97.5 39.7C64.5 120 41 145.9 41 150.9c0 2.6 3.8 7.1 6 7.1 3.5 0 4.9-1.2 11.8-9.8 13-16.2 30.6-31.7 47.7-42.1 51.2-31 116.7-33.5 170.7-6.5 4.8 2.4 9.7 4.4 10.8 4.4 3.2 0 6.2-3.7 5.8-7.3-.4-4.1-4.9-7.1-20.1-13.7-30.5-13-64.1-18.3-96.1-14.9zM308.2 96.5c-4.8 6.1-5.4 20.6-1.2 30.2 2.6 6.1 10.7 14.2 17.5 17.5 3.8 1.9 4.5 2.6 4 4.3-.4 1.1-.9 6.6-1.2 12.2-.4 8.5-.2 11.4 1.5 17 2.5 8 6.7 15.1 12.9 21.4l4.5 4.6-34.8 70.4c-26.4 53.6-34.8 71.5-35.2 75-.8 8.6 3.3 16.1 11.1 20 5.8 3 14.9 2.3 20.7-1.5 4-2.7 5.6-5.7 38.8-72.6l34.5-69.7 20.4 12.3c12.6 7.6 21.5 12.4 23.1 12.4 2.1 0 4.5-1.8 10-7.6 17.6-18.5 30.2-43.8 34.7-70.1 1.7-9.2 1.7-10.4.3-12.5-1.2-1.7-20.5-10.2-78-34.1-42-17.4-77.6-31.7-79-31.7-1.6 0-3.4 1-4.6 2.5zm71.2 38.9c28.5 11.9 52.2 21.6 52.7 21.6 1.5 0 1 2.5-2.2 12.2-4.3 13.1-10.7 25.9-18.8 38-10.7 15.9-6.9 16-33.6-.3-12.7-7.7-24.5-15.4-26.3-17.2s-5-6.6-7-10.6c-3.3-6.8-3.7-8.3-3.7-15.5 0-6.1.6-9.7 2.4-14.4 3.3-8.6 2.5-10-8.8-15.6-5.7-2.9-10-5.8-11.9-8.2-3-3.7-5.5-11.4-4.5-14 .6-1.6-4.8-3.7 61.7 24zm76.6 34.5c0 3.9-4.2 18.5-8 27.4-4.1 9.9-12 22.8-18.9 31.1l-5.4 6.5-4.1-2.5c-2.3-1.3-4.7-2.8-5.5-3.3-1.1-.7-.5-2.1 3.1-6.7 10.2-13.2 20.4-32.9 25.9-49.5l3.2-9.7 4.8 2c4.1 1.7 4.9 2.5 4.9 4.7zm-87 48.4c0 2.3-66.4 135.5-68.6 137.4-3 2.7-5.1 2.9-8.2.7-1.5-1-2.2-2.5-2.2-4.8 0-2.4 10-23.5 33.9-72l34-68.6 5.5 3.3c3.1 1.7 5.6 3.6 5.6 4z"/><path d="M186.4 99.9c-27.8 4.9-53.8 18.1-74.2 37.5C97.3 151.7 94.5 156.5 99 161c4 4 6.8 2.8 16.1-7.3 22.9-24.6 51.5-38.6 85.4-41.7 19.4-1.8 40.8 1.5 60.2 9.4 9.8 4.1 12.3 4.4 14.5 1.8 4.4-5.1 2.7-9.1-5.4-12.7-25.4-11.4-56.3-15.3-83.4-10.6z"/><path d="M200.5 125c-6.5 1-9.5 3.4-9.5 7.6 0 1.3.9 3.3 2 4.4 1.8 1.8 2.9 1.9 14.7 1.3 11-.5 14.1-.2 21.8 1.6 10.3 2.5 20.8 7.3 27.9 12.7 5.8 4.4 10 4.9 12.8 1.5 1-1.3 1.8-3.2 1.8-4.4 0-5.8-21.3-18.7-37.5-22.7-9.3-2.4-25.4-3.3-34-2zM158 205.3c-13.5 11.7-41.6 36-62.5 54.1-20.9 18-38.5 33.9-39.1 35.4-1.7 3.7-.7 5.7 5.3 11.2 4 3.7 7.1 5.5 12 7 11.3 3.5 19.9 2.2 30-4.6 3.6-2.4 6.7-4.3 6.8-4.2.1.2 5 6.7 10.9 14.5 11 14.5 13.5 16.5 17.7 14.2 1.1-.6 8.4-5.1 16.1-9.9l14.1-8.9 1.7 2.2c.9 1.2 21.6 28.5 45.9 60.7 24.4 32.2 46 60.2 48.1 62.2 6.4 6.2 14.5 7.4 22.8 3.2 9.6-4.8 14.1-17.4 9.4-26.4-1.4-2.7-49.9-67.2-88.8-118.1l-4.3-5.7 18.7-11.7c21.6-13.6 23.2-14.9 23.2-18.5 0-6.5-7.5-23.4-16.5-37.1-11.6-17.7-36.5-40.9-43.9-40.9-2.7 0-7 3.3-27.6 21.3zm41.4 4.8c4.2 3.9 10.6 11 14.2 15.8 6.9 9.1 18 30.1 17.1 32.4-.8 2.1-10 7.2-10.5 5.8-1.1-3.3-8.1-15.7-13.7-24.1-6.6-9.9-18.4-24.1-25-29.9l-3.9-3.4 8.4-7.8 2.9 2c1.6 1.1 6.3 5.3 10.5 9.2zm-25.3 12.1c7.5 7.2 15.1 16.3 20.8 24.7 6.1 9 14.5 25.1 13.5 26.1-1.6 1.6-69.3 44-70.2 44-.5 0-5.7-6.3-11.6-14.1-6-7.7-11.8-14.4-12.9-14.8-3-1.1-5.8.1-12.8 5.5-9.8 7.5-16.7 9.2-24.6 5.9l-3.7-1.6 3-2.9c4.5-4.5 90.8-79 91.5-79 .3 0 3.5 2.8 7 6.2zm64.8 138.5c48.4 63.8 48.5 64 44.4 68.5-2 2.3-6.5 2.3-9.1 0-2.3-2-93.5-122.3-93-122.7 1.2-1 10.4-6.5 11-6.5.4 0 21.4 27.3 46.7 60.7z"/><path d="M137 348c-24.8 8.3-46.7 22.5-62.6 40.7-16.5 18.9-19.4 27.6-10.2 29.9 3.2.7 6.5-2.2 13.5-12.2 13.7-19.4 38.2-36.9 63.3-45.3 5.2-1.8 10-3.7 10.7-4.3 1.4-1.1 1.7-6.6.5-8.4-.8-1.2-4.7-3.4-5.9-3.3-.4 0-4.6 1.3-9.3 2.9zM162.5 369c-21.3 3.4-42 14.5-54.2 29.1-4.8 5.7-5.5 9.5-2.3 12.4 3.7 3.4 6.5 2.3 15.3-6.2 11.9-11.5 23.3-17.7 38.2-20.8 3.9-.8 8.9-1.5 11.1-1.5 5.5 0 8.7-2.6 8.7-6.9 0-1.8-.7-3.9-1.5-4.8-1.9-1.8-8.5-2.4-15.3-1.3z"/></svg>
