<?xml version="1.0" encoding="UTF-8"?>
<!DOCTYPE svg  PUBLIC '-//W3C//DTD SVG 20010904//EN'  'http://www.w3.org/TR/2001/REC-SVG-20010904/DTD/svg10.dtd'>
<svg width="512pt" height="512pt" version="1.0" viewBox="0 0 512 512" xmlns="http://www.w3.org/2000/svg">
<g transform="translate(0 512) scale(.1 -.1)">
<path d="m1776 4439c-347-37-695-178-975-397-156-122-391-381-391-431 0-26 38-71 60-71 35 0 49 12 118 98 130 162 306 317 477 421 512 310 1167 335 1707 65 48-24 97-44 108-44 32 0 62 37 58 73-4 41-49 71-201 137-305 130-641 183-961 149z"/>
<path d="m3082 4155c-48-61-54-206-12-302 26-61 107-142 175-175 38-19 45-26 40-43-4-11-9-66-12-122-4-85-2-114 15-170 25-80 67-151 129-214l45-46-348-704c-264-536-348-715-352-750-8-86 33-161 111-200 58-30 149-23 207 15 40 27 56 57 388 726l345 697 204-123c126-76 215-124 231-124 21 0 45 18 100 76 176 185 302 438 347 701 17 92 17 104 3 125-12 17-205 102-780 341-420 174-776 317-790 317-16 0-34-10-46-25zm712-389c285-119 522-216 527-216 15 0 10-25-22-122-43-131-107-259-188-380-107-159-69-160-336 3-127 77-245 154-263 172s-50 66-70 106c-33 68-37 83-37 155 0 61 6 97 24 144 33 86 25 100-88 156-57 29-100 58-119 82-30 37-55 114-45 140 6 16-48 37 617-240zm766-345c0-39-42-185-80-274-41-99-120-228-189-311l-54-65-41 25c-23 13-47 28-55 33-11 7-5 21 31 67 102 132 204 329 259 495l32 97 48-20c41-17 49-25 49-47zm-870-484c0-23-664-1355-686-1374-30-27-51-29-82-7-15 10-22 25-22 48 0 24 100 235 339 720l340 686 55-33c31-17 56-36 56-40z"/>
<path d="m1864 4121c-278-49-538-181-742-375-149-143-177-191-132-236 40-40 68-28 161 73 229 246 515 386 854 417 194 18 408-15 602-94 98-41 123-44 145-18 44 51 27 91-54 127-254 114-563 153-834 106z"/>
<path d="m2005 3870c-65-10-95-34-95-76 0-13 9-33 20-44 18-18 29-19 147-13 110 5 141 2 218-16 103-25 208-73 279-127 58-44 100-49 128-15 10 13 18 32 18 44 0 58-213 187-375 227-93 24-254 33-340 20z"/>
<path d="m1580 3067c-135-117-416-360-625-541-209-180-385-339-391-354-17-37-7-57 53-112 40-37 71-55 120-70 113-35 199-22 300 46 36 24 67 43 68 42 1-2 50-67 109-145 110-145 135-165 177-142 11 6 84 51 161 99l141 89 17-22c9-12 216-285 459-607 244-322 460-602 481-622 64-62 145-74 228-32 96 48 141 174 94 264-14 27-499 672-888 1181l-43 57 187 117c216 136 232 149 232 185 0 65-75 234-165 371-116 177-365 409-439 409-27 0-70-33-276-213zm414-48c42-39 106-110 142-158 69-91 180-301 171-324-8-21-100-72-105-58-11 33-81 157-137 241-66 99-184 241-250 299l-39 34 84 78 29-20c16-11 63-53 105-92zm-253-121c75-72 151-163 208-247 61-90 145-251 135-261-16-16-693-440-702-440-5 0-57 63-116 141-60 77-118 144-129 148-30 11-58-1-128-55-98-75-167-92-246-59l-37 16 30 29c45 45 908 790 915 790 3 0 35-28 70-62zm648-1385c484-638 485-640 444-685-20-23-65-23-91 0-23 20-935 1223-930 1227 12 10 104 65 110 65 4 0 214-273 467-607z"/>
<path d="m1370 1640c-248-83-467-225-626-407-165-189-194-276-102-299 32-7 65 22 135 122 137 194 382 369 633 453 52 18 100 37 107 43 14 11 17 66 5 84-8 12-47 34-59 33-4 0-46-13-93-29z"/>
<path d="m1625 1430c-213-34-420-145-542-291-48-57-55-95-23-124 37-34 65-23 153 62 119 115 233 177 382 208 39 8 89 15 111 15 55 0 87 26 87 69 0 18-7 39-15 48-19 18-85 24-153 13z"/>
</g>
</svg>
