<svg viewBox="0 0 370.07 370.07" xmlns="http://www.w3.org/2000/svg"><path d="M352.75 166.88l9.906-9.906c4.781-4.781 7.414-11.138 7.414-17.899s-2.633-13.118-7.414-17.899a25.17 25.17 0 00-10.843-6.417c5.529-9.667 4.177-22.228-4.067-30.473-8.248-8.248-20.816-9.598-30.485-4.06a25.163 25.163 0 00-6.404-10.85c-9.87-9.87-25.929-9.87-35.799 0l-42.963 42.963c-3.404-9.168-11.867-16.474-21.924-17.609-10.576-1.188-20.373 4.343-25.132 13.169a25.271 25.271 0 00-6.526-7.808c-5.287-4.215-11.899-6.119-18.618-5.361-6.613.746-12.974 4.34-17.45 9.86a27.616 27.616 0 00-4.446 7.775l-42.99-42.99c-4.781-4.781-11.138-7.414-17.899-7.414s-13.119 2.633-17.899 7.415a25.156 25.156 0 00-6.405 10.849c-9.669-5.538-22.236-4.188-30.485 4.06-8.244 8.244-9.596 20.806-4.067 30.473a25.176 25.176 0 00-10.843 6.417c-4.779 4.781-7.412 11.138-7.412 17.899s2.633 13.118 7.414 17.899l9.906 9.906a25.194 25.194 0 00-9.883 6.117C2.655 177.777.022 184.134.022 190.895s2.633 13.118 7.414 17.899l75.808 75.808c15.158 15.158 35.312 23.506 56.749 23.506 16.306 0 31.863-4.842 45.051-13.826 13.267 9.008 28.999 13.825 45.053 13.825 2.051 0 4.107-.079 6.164-.236a80.26 80.26 0 0050.564-23.269l75.809-75.808c4.781-4.781 7.414-11.138 7.414-17.899s-2.633-13.118-7.414-17.899a25.213 25.213 0 00-9.884-6.116zm-202.32-44.665c-.33-2.925.724-6.135 2.891-8.807 2.182-2.691 5.151-4.429 8.146-4.766 3.001-.341 5.958.512 8.321 2.396s3.851 4.575 4.192 7.6l3.898 33.605-27.087-27.087-.361-2.941zm-57.286 152.49l-75.808-75.808c-2.137-2.137-3.313-4.978-3.313-8s1.177-5.863 3.313-8c2.137-2.137 4.978-3.314 8-3.314s5.863 1.177 8 3.314l38.872 38.872c1.367 1.367 3.158 2.05 4.95 2.05s3.583-.684 4.95-2.05a6.999 6.999 0 000-9.899l-64.795-64.795c-4.411-4.411-4.411-11.589 0-16s11.589-4.411 16 0l64.795 64.795c1.367 1.367 3.158 2.05 4.95 2.05s3.583-.684 4.95-2.05a6.999 6.999 0 000-9.899l-75.785-75.785c-4.411-4.411-4.411-11.589 0-16s11.589-4.411 16 0l75.785 75.785a7 7 0 009.899-9.899L69.111 95.276c-4.411-4.411-4.411-11.589 0-16s11.589-4.411 16 0l93.179 93.179a6.976 6.976 0 004.172 2.115 6.998 6.998 0 007.855-6.171l5.774-49.783a11.24 11.24 0 014.189-7.578 11.232 11.232 0 018.321-2.396c6.263.707 11.729 7.43 11.044 13.506l-13.593 110.87c-.006.047-.005.093-.01.139-.005.048-.015.094-.019.142a66.278 66.278 0 01-19.184 41.407c-12.514 12.514-29.152 19.406-46.849 19.406s-34.333-6.892-46.846-19.406zm259.59-75.808l-16.445 16.444-.013.014-59.35 59.35c-21.666 21.665-54.687 25.581-80.531 10.229.114-.112.233-.217.346-.33a80.287 80.287 0 0023.207-49.875l.001-.007 12.638-103.08 52.371-52.371c2.137-2.137 4.978-3.313 8-3.313s5.863 1.177 8 3.314c4.411 4.411 4.411 11.589 0 16l-64.795 64.795a7 7 0 009.899 9.899l75.785-75.785c4.411-4.411 11.589-4.411 16 0s4.411 11.589 0 16l-75.785 75.785a6.999 6.999 0 004.95 11.949 6.981 6.981 0 004.95-2.05l64.795-64.795c4.411-4.411 11.589-4.411 16 0s4.411 11.589 0 16l-64.795 64.795a6.999 6.999 0 004.95 11.949 6.981 6.981 0 004.95-2.05l38.872-38.872c2.137-2.137 4.978-3.314 8-3.314s5.863 1.177 8 3.314c4.411 4.412 4.411 11.589 0 16z"/></svg>
