<?xml version="1.0" encoding="UTF-8"?>
<!DOCTYPE svg  PUBLIC '-//W3C//DTD SVG 1.1//EN'  'http://www.w3.org/Graphics/SVG/1.1/DTD/svg11.dtd'>
<svg enable-background="new 0 0 370.071 370.071" version="1.1" viewBox="0 0 370.07 370.07" xml:space="preserve" xmlns="http://www.w3.org/2000/svg">
<path d="m352.75 166.88 9.906-9.906c4.781-4.781 7.414-11.138 7.414-17.899s-2.633-13.118-7.414-17.899c-3.068-3.068-6.786-5.246-10.843-6.417 5.529-9.667 4.177-22.228-4.067-30.473-8.248-8.248-20.816-9.598-30.485-4.06-1.146-3.975-3.278-7.723-6.404-10.85-9.87-9.87-25.929-9.87-35.799 0l-42.963 42.963c-3.404-9.168-11.867-16.474-21.924-17.609-10.576-1.188-20.373 4.343-25.132 13.169-1.601-2.98-3.801-5.635-6.526-7.808-5.287-4.215-11.899-6.119-18.618-5.361-6.613 0.746-12.974 4.34-17.45 9.86-1.927 2.376-3.421 5.013-4.446 7.775l-42.99-42.99c-4.781-4.781-11.138-7.414-17.899-7.414s-13.119 2.633-17.899 7.415c-3.126 3.126-5.259 6.874-6.405 10.849-9.669-5.538-22.236-4.188-30.485 4.06-8.244 8.244-9.596 20.806-4.067 30.473-4.056 1.171-7.775 3.349-10.843 6.417-4.779 4.781-7.412 11.138-7.412 17.899s2.633 13.118 7.414 17.899l9.906 9.906c-3.683 1.225-7.059 3.293-9.883 6.117-4.781 4.781-7.414 11.138-7.414 17.899s2.633 13.118 7.414 17.899l75.808 75.808c15.158 15.158 35.312 23.506 56.749 23.506 16.306 0 31.863-4.842 45.051-13.826 13.267 9.008 28.999 13.825 45.053 13.825 2.051 0 4.107-0.079 6.164-0.236 19.067-1.466 37.025-9.729 50.564-23.269l75.809-75.808c4.781-4.781 7.414-11.138 7.414-17.899s-2.633-13.118-7.414-17.899c-2.825-2.823-6.201-4.891-9.884-6.116zm-202.32-44.665c-0.33-2.925 0.724-6.135 2.891-8.807 2.182-2.691 5.151-4.429 8.146-4.766 3.001-0.341 5.958 0.512 8.321 2.396s3.851 4.575 4.192 7.6l3.898 33.605-27.087-27.087-0.361-2.941zm-57.286 152.49-75.808-75.808c-2.137-2.137-3.313-4.978-3.313-8s1.177-5.863 3.313-8c2.137-2.137 4.978-3.314 8-3.314s5.863 1.177 8 3.314l38.872 38.872c1.367 1.367 3.158 2.05 4.95 2.05s3.583-0.684 4.95-2.05c2.734-2.733 2.734-7.166 0-9.899l-64.795-64.795c-4.411-4.411-4.411-11.589 0-16s11.589-4.411 16 0l64.795 64.795c1.367 1.367 3.158 2.05 4.95 2.05s3.583-0.684 4.95-2.05c2.734-2.734 2.734-7.166 0-9.899l-75.785-75.785c-4.411-4.411-4.411-11.589 0-16s11.589-4.411 16 0l75.785 75.785c2.733 2.733 7.166 2.733 9.899 0 2.734-2.733 2.734-7.166 0-9.899l-64.796-64.796c-4.411-4.411-4.411-11.589 0-16s11.589-4.411 16 0l93.179 93.179c1.069 1.124 2.516 1.9 4.172 2.115 3.799 0.495 7.287-2.162 7.828-5.954 0.01-0.072 0.02-0.145 0.027-0.217l5.774-49.783c0.338-3.003 1.827-5.694 4.189-7.578 2.363-1.884 5.32-2.737 8.321-2.396 6.263 0.707 11.729 7.43 11.044 13.506l-13.593 110.87c-6e-3 0.047-5e-3 0.093-0.01 0.139-5e-3 0.048-0.015 0.094-0.019 0.142-1.278 15.609-8.091 30.314-19.184 41.407-12.514 12.514-29.152 19.406-46.849 19.406s-34.333-6.892-46.846-19.406zm259.59-75.808-16.445 16.444c-4e-3 5e-3 -9e-3 9e-3 -0.013 0.014l-59.35 59.35c-21.666 21.665-54.687 25.581-80.531 10.229 0.114-0.112 0.233-0.217 0.346-0.33 13.368-13.367 21.598-31.07 23.207-49.875 0-3e-3 1e-3 -5e-3 1e-3 -7e-3l12.638-103.08 52.371-52.371c2.137-2.137 4.978-3.313 8-3.313s5.863 1.177 8 3.314c4.411 4.411 4.411 11.589 0 16l-64.795 64.795c-2.734 2.733-2.734 7.166 0 9.899 2.733 2.733 7.166 2.733 9.899 0l75.785-75.785c4.411-4.411 11.589-4.411 16 0s4.411 11.589 0 16l-75.785 75.785c-2.734 2.734-2.734 7.166 0 9.899 1.367 1.367 3.158 2.05 4.95 2.05s3.583-0.684 4.95-2.05l64.795-64.795c4.411-4.411 11.589-4.411 16 0s4.411 11.589 0 16l-64.795 64.795c-2.734 2.733-2.734 7.166 0 9.899 1.367 1.367 3.158 2.05 4.95 2.05s3.583-0.684 4.95-2.05l38.872-38.872c2.137-2.137 4.978-3.314 8-3.314s5.863 1.177 8 3.314c4.411 4.412 4.411 11.589 0 16z"/>
</svg>
