<?xml version="1.0"?>
<svg xmlns="http://www.w3.org/2000/svg" id="Icons" viewBox="0 0 74 74" width="512" height="512"><path d="M36.976,19.792a8.9,8.9,0,1,1,8.9-8.9A8.906,8.906,0,0,1,36.976,19.792ZM36.976,4a6.9,6.9,0,1,0,6.9,6.9A6.9,6.9,0,0,0,36.976,4Z"/><path d="M47.571,50.4H45.609a1,1,0,0,1,0-2h1.961a3.871,3.871,0,0,0,3.867-3.867V28.8A4.446,4.446,0,0,0,47,24.36H27a4.446,4.446,0,0,0-4.441,4.44V44.538A3.871,3.871,0,0,0,26.429,48.4h1.89a1,1,0,0,1,0,2h-1.89a5.873,5.873,0,0,1-5.867-5.867V28.8A6.448,6.448,0,0,1,27,22.36H47a6.448,6.448,0,0,1,6.441,6.44V44.538A5.873,5.873,0,0,1,47.571,50.4Z"/><path d="M41.287,72A5.293,5.293,0,0,1,36,66.713V50.05a1,1,0,0,1,2,0V66.713a3.287,3.287,0,0,0,6.574,0V35.126a1,1,0,0,1,2,0V66.713A5.293,5.293,0,0,1,41.287,72Z"/><path d="M32.713,72a5.293,5.293,0,0,1-5.287-5.287V35.126a1,1,0,0,1,2,0V66.713a3.287,3.287,0,0,0,6.574,0V50.05a1,1,0,0,1,2,0V66.713A5.293,5.293,0,0,1,32.713,72Z"/></svg>
