<svg xmlns="http://www.w3.org/2000/svg" viewBox="0 0 74 74" width="512" height="512"><path d="M36.976 19.792a8.9 8.9 0 118.9-8.9 8.906 8.906 0 01-8.9 8.9zm0-15.792a6.9 6.9 0 106.9 6.9 6.9 6.9 0 00-6.9-6.9zM47.571 50.4h-1.962a1 1 0 010-2h1.961a3.871 3.871 0 003.867-3.867V28.8A4.446 4.446 0 0047 24.36H27a4.446 4.446 0 00-4.441 4.44v15.738a3.871 3.871 0 003.87 3.862h1.89a1 1 0 010 2h-1.89a5.873 5.873 0 01-5.867-5.867V28.8A6.448 6.448 0 0127 22.36h20a6.448 6.448 0 016.441 6.44v15.738a5.873 5.873 0 01-5.87 5.862z"/><path d="M41.287 72A5.293 5.293 0 0136 66.713V50.05a1 1 0 012 0v16.663a3.287 3.287 0 006.574 0V35.126a1 1 0 012 0v31.587A5.293 5.293 0 0141.287 72z"/><path d="M32.713 72a5.293 5.293 0 01-5.287-5.287V35.126a1 1 0 012 0v31.587a3.287 3.287 0 006.574 0V50.05a1 1 0 012 0v16.663A5.293 5.293 0 0132.713 72z"/></svg>
