<?xml version="1.0" encoding="UTF-8"?>
<svg enable-background="new 0 0 512 512" version="1.1" viewBox="0 0 512 512" xml:space="preserve" xmlns="http://www.w3.org/2000/svg">
<path d="m484.8 112.94-236.25 236.25c-1.968 1.968-4.436 3.358-7.138 4.021l-94.118 23.113c-1.202 0.295-2.422 0.439-3.632 0.439-3.99 0-7.878-1.57-10.769-4.461-3.767-3.767-5.292-9.228-4.021-14.401l23.113-94.118c0.663-2.701 2.053-5.17 4.021-7.138l222.69-222.69h-290.71c-44.765 0-81.183 36.419-81.183 81.183v315.68c0 44.763 36.418 81.181 81.183 81.181h315.68c44.763 0 81.182-36.419 81.182-81.182v-315.68c0-0.737-0.036-1.464-0.056-2.196z"/>
<path d="m500.2 30.314-25.324-25.322c-6.656-6.656-17.486-6.656-24.141 0l-249.39 249.39c1.034 0.624 2.019 1.367 2.912 2.26l46.742 46.742c0.047 0.047 0.086 0.098 0.132 0.145l249.07-249.07c6.655-6.656 6.655-17.488 0-24.145z"/>
<path d="m182.72 278.18c-0.868-0.868-1.594-1.821-2.208-2.823l-16.057 65.384 64.89-15.936-46.625-46.625z"/>
</svg>
