<svg viewBox="0 0 512 512" xmlns="http://www.w3.org/2000/svg"><path d="M484.8 112.94L248.55 349.19a15.223 15.223 0 01-7.138 4.021l-94.118 23.113a15.238 15.238 0 01-14.401-4.022 15.228 15.228 0 01-4.021-14.401l23.113-94.118a15.228 15.228 0 014.021-7.138l222.69-222.69H87.986c-44.765 0-81.183 36.419-81.183 81.183v315.68c0 44.763 36.418 81.181 81.183 81.181h315.68c44.763 0 81.182-36.419 81.182-81.182v-315.68c0-.737-.036-1.464-.056-2.196z"/><path d="M500.2 30.314L474.876 4.992c-6.656-6.656-17.486-6.656-24.141 0l-249.39 249.39a15.204 15.204 0 012.912 2.26l46.742 46.742c.047.047.086.098.132.145l249.07-249.07c6.655-6.656 6.655-17.488 0-24.145zM182.72 278.18a15.2 15.2 0 01-2.208-2.823l-16.057 65.384 64.89-15.936-46.625-46.625z"/></svg>
