<?xml version="1.0" encoding="UTF-8"?>
<svg width="700pt" height="550pt" version="1.1" viewBox="0 0 700 550" xmlns="http://www.w3.org/2000/svg" xmlns:xlink="http://www.w3.org/1999/xlink">
 <g>
  <path d="m581.99 219.57c0-108.15-103.85-195.83-231.98-195.83-128.13 0-232 87.68-232 195.83 0 46.793 22.938 80.645 22.938 80.645 14.004 20.676 21.609 47.383 18.762 63.543-0.60547 3.4141-1.7734 8.8242-1.7734 12.305v10.02c0 38.242 24.566 69.223 54.875 69.223h9.4883c9.1914-4.5977 16.703 12.551 16.703 38.125 0 12.797 5.8203 21.281 15.188 26.562l3.9102-11.145c1.5781-4.5117 6.5586-8.043 11.336-8.043h8.1016c3.8203 0 7.1016 2.2969 8.5859 5.5664 1.8359-3.293 5.4023-5.5664 9.2461-5.5664h12.387c3.293 0 6.1875 1.7031 7.8789 4.2656 1.8633-2.5547 4.8789-4.2656 8.1328-4.2656h23.57c2.4258 0 4.6133 0.94531 6.2891 2.4531 1.6758-1.5117 3.8594-2.4531 6.2891-2.4531h21.828c3.8477 0 7.3633 2.2695 9.1602 5.5508 1.4883-3.2695 4.7695-5.5508 8.5859-5.5508h10.086c3.8242 0 7.3516 2.2383 9.1992 5.4883 1.5-3.2305 4.7617-5.4883 8.5352-5.4883h3.293c4.7695 0 9.7539 3.5273 11.336 8.0352l3.8906 11.145c9.375-5.2812 15.18-13.766 15.18-26.555 0-25.555 7.5312-42.723 16.703-38.125h9.4805c30.312 0 54.879-30.98 54.879-69.223v-10.02c0-3.4766-1.1641-8.8945-1.7656-12.312-2.8398-16.156 4.7422-42.855 18.762-63.531-0.007812-0.003906 22.926-33.855 22.926-80.648zm-327.63 172.12c-33.758 0-71.445-7.4805-71.445-54.93 0-30.34 6.2383-44.609 50.785-44.609 33.758 0 81.777 14.27 81.777 44.609 0 30.352-20.305 54.93-61.117 54.93zm115.42 58.855c-10.879-8.2812-28.695-8.2812-39.574 0-10.879 8.2812-12.438-6.9844-3.457-33.918l6.9102-20.715c8.9805-26.953 23.688-26.953 32.664 0l6.9062 20.715c9 26.934 7.4375 42.207-3.4492 33.918zm72.559-58.855c-40.809 0-61.105-24.586-61.105-54.93 0-30.34 48.027-44.609 81.77-44.609 44.559 0 50.785 14.27 50.785 44.609 0 47.445-37.68 54.93-71.449 54.93z"/>
  <path d="m307.74 507.09h-12.387c-1.9336 0-3.8984 1.668-4.2109 3.5742l-3.1992 19.402c-0.11719 0.72266 0.027344 1.3711 0.42188 1.8359 0.39062 0.46094 1.0078 0.71094 1.7422 0.71094h17.641c1.7344 0 3.1484-1.4102 3.1484-3.1484v-19.234c-0.011719-1.7266-1.4219-3.1406-3.1562-3.1406z"/>
  <path d="m277.52 507.09h-8.1016c-2.1211 0-4.6992 1.8203-5.3984 3.8242l-6.1758 17.617c-0.20312 0.57812-0.20703 1.0703-0.023437 1.332 0.18359 0.26172 0.66016 0.41406 1.2656 0.41406h18.434c1.7344 0 3.1406-1.4102 3.1406-3.1484v-16.902c0.003907-1.7227-1.4102-3.1367-3.1406-3.1367z"/>
  <path d="m427.3 530.27h13.625c0.59766 0 1.082-0.15234 1.2695-0.41406 0.17969-0.26172 0.16797-0.75781-0.027344-1.3281l-6.1641-17.617c-0.71875-2-3.2812-3.8242-5.4102-3.8242h-3.293c-1.7305 0-3.1484 1.4102-3.1484 3.1484v16.902c0 1.7227 1.418 3.1328 3.1484 3.1328z"/>
  <path d="m359.9 536.26h26.996c0.75 0 1.3906-0.26172 1.793-0.74609 0.41406-0.46875 0.58203-1.1406 0.46484-1.8711l-3.3438-23.027c-0.28125-1.875-2.1836-3.5273-4.082-3.5273h-21.828c-1.7305 0-3.1484 1.4102-3.1484 3.1484v22.883c0 1.7305 1.418 3.1406 3.1484 3.1406z"/>
  <path d="m347.32 507.09h-23.57c-1.832 0-3.5898 1.5977-3.7617 3.4102l-2.2227 22.949c-0.074219 0.77344 0.14453 1.4766 0.61719 2 0.46875 0.51953 1.1641 0.8125 1.9375 0.8125h27.004c1.7344 0 3.1484-1.4102 3.1484-3.1484v-22.883c-0.003906-1.7266-1.4141-3.1406-3.1523-3.1406z"/>
  <path d="m399.48 532.61h15.242c0.73828 0 1.3672-0.25391 1.7578-0.71875 0.38672-0.46484 0.53906-1.1211 0.42578-1.8438l-3.1523-19.398c-0.30859-1.9023-2.2578-3.5664-4.1875-3.5664h-10.086c-1.7344 0-3.1484 1.4102-3.1484 3.1484v19.234c0 1.7344 1.4102 3.1445 3.1484 3.1445z"/>
  </g>
</svg>