<?xml version="1.0" encoding="UTF-8" standalone="no"?>
<!-- Created with Inkscape (http://www.inkscape.org/) -->

<svg
   xmlns:dc="http://purl.org/dc/elements/1.1/"
   xmlns:cc="http://creativecommons.org/ns#"
   xmlns:rdf="http://www.w3.org/1999/02/22-rdf-syntax-ns#"
   xmlns:svg="http://www.w3.org/2000/svg"
   xmlns="http://www.w3.org/2000/svg"
   version="1.1"
   width="173"
   height="173"
   id="svg14701">
  <defs
     id="defs14703">
    <clipPath
       id="clipPath4185">
      <path
         d="m 52.6,626 7.4,0 0,5.9 -7.4,0 0,-5.9 z"
         id="path4187" />
    </clipPath>
    <clipPath
       id="clipPath4167">
      <path
         d="m 67,628.2 7.4,0 0,3.2 -7.4,0 0,-3.2 z"
         id="path4169" />
    </clipPath>
    <clipPath
       id="clipPath4149">
      <path
         d="m 60.2,627.1 7.4,0 0,4.4 -7.4,0 0,-4.4 z"
         id="path4151" />
    </clipPath>
    <clipPath
       id="clipPath3541">
      <path
         d="m 27.6,650.7 6.5,0 0,6.8 -6.5,0 0,-6.8 z"
         id="path3543" />
    </clipPath>
    <clipPath
       id="clipPath3523">
      <path
         d="m 30.3,663.6 3.5,0 0,6.8 -3.5,0 0,-6.8 z"
         id="path3525" />
    </clipPath>
    <clipPath
       id="clipPath3505">
      <path
         d="m 29.1,657.5 4.8,0 0,6.8 -4.8,0 0,-6.8 z"
         id="path3507" />
    </clipPath>
    <clipPath
       id="clipPath3487">
      <path
         d="m 28.6,627.4 6.8,0 0,6.4 -6.8,0 0,-6.4 z"
         id="path3489" />
    </clipPath>
    <clipPath
       id="clipPath3465">
      <path
         d="m 290,651 6.5,0 0,6.8 -6.5,0 0,-6.8 z"
         id="path3467" />
    </clipPath>
    <clipPath
       id="clipPath3447">
      <path
         d="m 290.2,664 3.5,0 0,6.8 -3.5,0 0,-6.8 z"
         id="path3449" />
    </clipPath>
    <clipPath
       id="clipPath3429">
      <path
         d="m 290.2,657.8 4.7,0 0,6.8 -4.7,0 0,-6.8 z"
         id="path3431" />
    </clipPath>
    <clipPath
       id="clipPath3411">
      <path
         d="m 261.9,626.5 7.4,0 0,5.9 -7.4,0 0,-5.9 z"
         id="path3413" />
    </clipPath>
    <clipPath
       id="clipPath3393">
      <path
         d="m 247.4,628.9 7.4,0 0,3.2 -7.4,0 0,-3.2 z"
         id="path3395" />
    </clipPath>
    <clipPath
       id="clipPath3375">
      <path
         d="m 254.2,627.8 7.4,0 0,4.4 -7.4,0 0,-4.4 z"
         id="path3377" />
    </clipPath>
    <clipPath
       id="clipPath3357">
      <path
         d="m 288.3,627.4 7.1,0 0,6.2 -7.1,0 0,-6.2 z"
         id="path3359" />
    </clipPath>
    <clipPath
       id="clipPath3335">
      <path
         d="m 261.4,758.6 7.4,0 0,5.9 -7.4,0 0,-5.9 z"
         id="path3337" />
    </clipPath>
    <clipPath
       id="clipPath3317">
      <path
         d="m 246.9,758.8 7.4,0 0,3.2 -7.4,0 0,-3.2 z"
         id="path3319" />
    </clipPath>
    <clipPath
       id="clipPath3299">
      <path
         d="m 253.8,758.8 7.4,0 0,4.4 -7.4,0 0,-4.4 z"
         id="path3301" />
    </clipPath>
    <clipPath
       id="clipPath3281">
      <path
         d="m 290,733.6 6.5,0 0,6.7 -6.5,0 0,-6.7 z"
         id="path3283" />
    </clipPath>
    <clipPath
       id="clipPath3263">
      <path
         d="m 290.2,720.6 3.5,0 0,6.7 -3.5,0 0,-6.7 z"
         id="path3265" />
    </clipPath>
    <clipPath
       id="clipPath3245">
      <path
         d="m 290.2,726.7 4.7,0 0,6.7 -4.7,0 0,-6.7 z"
         id="path3247" />
    </clipPath>
    <clipPath
       id="clipPath3227">
      <path
         d="m 288.6,757.1 6.8,0 0,6.4 -6.8,0 0,-6.4 z"
         id="path3229" />
    </clipPath>
    <clipPath
       id="clipPath3205">
      <path
         d="m 27.6,733.2 6.5,0 0,6.7 -6.5,0 0,-6.7 z"
         id="path3207" />
    </clipPath>
    <clipPath
       id="clipPath3187">
      <path
         d="m 30.3,720.3 3.5,0 0,6.7 -3.5,0 0,-6.7 z"
         id="path3189" />
    </clipPath>
    <clipPath
       id="clipPath3169">
      <path
         d="m 29.1,726.4 4.8,0 0,6.7 -4.8,0 0,-6.7 z"
         id="path3171" />
    </clipPath>
    <clipPath
       id="clipPath3151">
      <path
         d="m 54.7,758.6 7.5,0 0,5.9 -7.5,0 0,-5.9 z"
         id="path3153" />
    </clipPath>
    <clipPath
       id="clipPath3133">
      <path
         d="m 69.2,758.8 7.5,0 0,3.2 -7.5,0 0,-3.2 z"
         id="path3135" />
    </clipPath>
    <clipPath
       id="clipPath3115">
      <path
         d="m 62.3,758.8 7.5,0 0,4.4 -7.5,0 0,-4.4 z"
         id="path3117" />
    </clipPath>
    <clipPath
       id="clipPath3097">
      <path
         d="m 28.6,757.4 7.1,0 0,6.1 -7.1,0 0,-6.1 z"
         id="path3099" />
    </clipPath>
    <clipPath
       id="clipPath3071">
      <path
         d="m 33.8,632.1 256.1,0 0,126.9 -256.1,0 0,-126.9 z"
         id="path3073" />
    </clipPath>
  </defs>
  <metadata
     id="metadata14706">
    <rdf:RDF>
      <cc:Work
         rdf:about="">
        <dc:format>image/svg+xml</dc:format>
        <dc:type
           rdf:resource="http://purl.org/dc/dcmitype/StillImage" />
        <dc:title></dc:title>
      </cc:Work>
    </rdf:RDF>
  </metadata>
  <g
     transform="translate(-207.34456,-445.76495)"
     id="layer1">
    <path
       d="m 226.67639,462.67468 -10.875,0 -1,0 0,0.875 0,136.25 0,0.875 1,0 10.875,0 0,9.5 0,0.875 1,0 132.04424,0 1,0 0,-0.875 0,-9.5 10.375,0 1,0 0,-0.875 0,-136.25 0,-0.875 -1,0 -10.375,0 0,-9.25 0,-0.875 -1,0 -132.04424,0 -1,0 0,0.875 z"
       id="path3083"
       style="fill:none;stroke:#c8a800;stroke-width:1.83950007;stroke-linecap:butt;stroke-linejoin:round;stroke-miterlimit:10;stroke-opacity:1;stroke-dasharray:none" />
    <path
       d="m 236.05139,448.17468 -15.75,0 0,9.25 -10.5,0 0,14.125"
       id="path3087"
       style="fill:none;stroke:#c8a800;stroke-width:1.23812497;stroke-linecap:butt;stroke-linejoin:round;stroke-miterlimit:10;stroke-opacity:1;stroke-dasharray:none" />
    <path
       d="m 227.67639,465.04968 -10.25,0 0,133.25 10.25,0 1.625,0 0,1.5 0,8.875 128.89924,0 0,-8.875 0,-1.5 1.625,0 9.75,0 0,-133.25 -9.75,0 -1.625,0 0,-1.5 0,-8.625 -128.89924,0 0,8.625 0,1.5 z"
       id="path3091"
       style="fill:none;stroke:#c8a800;stroke-width:0.60137498;stroke-linecap:butt;stroke-linejoin:round;stroke-miterlimit:10;stroke-opacity:1;stroke-dasharray:none" />
    <g
       transform="matrix(1.25,0,0,-1.25,172.55139,1401.1747)"
       id="g3101">
      <g
         clip-path="url(#clipPath3097)"
         id="g3103"
         style="opacity:0.84999001">
        <path
           d="m 35.7,762.8 0,-5.4 -6.4,0 c 0,0 -0.7,1.4 2.1,3.7 2.9,2.3 4.3,1.7 4.3,1.7 z"
           id="path3105"
           style="fill:#c8a800;fill-opacity:1;fill-rule:evenodd;stroke:none" />
      </g>
    </g>
    <path
       d="m 217.17639,447.67468 0,6.75 -8,0 c 0,0 -0.875,-1.75 2.625,-4.625 3.625,-2.875 5.375,-2.125 5.375,-2.125 z"
       id="path3109"
       style="fill:none;stroke:#c8a800;stroke-width:1.23812497;stroke-linecap:butt;stroke-linejoin:round;stroke-miterlimit:10;stroke-opacity:1;stroke-dasharray:none" />
    <g
       transform="matrix(1.25,0,0,-1.25,172.55139,1401.1747)"
       id="g3119">
      <g
         clip-path="url(#clipPath3115)"
         id="g3121"
         style="opacity:0.84999001">
        <path
           d="m 62.3,758.9 c 0,0 3.7,4.1 4.2,3.4 0.6,-0.9 -0.8,-1.9 3.1,-3.4 0.1,-0.1 -7.3,0 -7.3,0 z"
           id="path3123"
           style="fill:#c8a800;fill-opacity:1;fill-rule:evenodd;stroke:none" />
      </g>
    </g>
    <path
       d="m 250.42639,452.54968 c 0,0 4.625,-5.125 5.25,-4.25 0.75,1.125 -1,2.375 3.875,4.25 0.125,0.125 -9.125,0 -9.125,0 z"
       id="path3127"
       style="fill:none;stroke:#c8a800;stroke-width:1.23812497;stroke-linecap:butt;stroke-linejoin:round;stroke-miterlimit:10;stroke-opacity:1;stroke-dasharray:none" />
    <g
       transform="matrix(1.25,0,0,-1.25,172.55139,1401.1747)"
       id="g3137">
      <g
         clip-path="url(#clipPath3133)"
         id="g3139"
         style="opacity:0.84999001">
        <path
           d="m 69.2,758.9 c 0,0 3.8,3 4.3,2.2 0.6,-0.7 -0.9,-0.7 3,-2.2 0.1,-0.1 -7.3,0 -7.3,0 z"
           id="path3141"
           style="fill:#c8a800;fill-opacity:1;fill-rule:evenodd;stroke:none" />
      </g>
    </g>
    <path
       d="m 259.05139,452.54968 c 0,0 4.75,-3.75 5.375,-2.75 0.75,0.875 -1.125,0.875 3.75,2.75 0.125,0.125 -9.125,0 -9.125,0 z"
       id="path3145"
       style="fill:none;stroke:#c8a800;stroke-width:1.23812497;stroke-linecap:butt;stroke-linejoin:round;stroke-miterlimit:10;stroke-opacity:1;stroke-dasharray:none" />
    <g
       transform="matrix(1.25,0,0,-1.25,172.55139,1401.1747)"
       id="g3155">
      <g
         clip-path="url(#clipPath3151)"
         id="g3157"
         style="opacity:0.84999001">
        <path
           d="m 54.7,758.7 c 0,0 2.8,5.7 3.3,4.9 0.6,-0.8 0,-3.4 3.9,-4.9 0.2,-0.1 -7.2,0 -7.2,0 z"
           id="path3159"
           style="fill:#c8a800;fill-opacity:1;fill-rule:evenodd;stroke:none" />
      </g>
    </g>
    <path
       d="m 240.92639,452.79968 c 0,0 3.5,-7.125 4.125,-6.125 0.75,1 0,4.25 4.875,6.125 0.25,0.125 -9,0 -9,0 z"
       id="path3163"
       style="fill:none;stroke:#c8a800;stroke-width:1.23812497;stroke-linecap:butt;stroke-linejoin:round;stroke-miterlimit:10;stroke-opacity:1;stroke-dasharray:none" />
    <g
       transform="matrix(1.25,0,0,-1.25,172.55139,1401.1747)"
       id="g3173">
      <g
         clip-path="url(#clipPath3169)"
         id="g3175"
         style="opacity:0.84999001">
        <path
           d="m 33.7,733 c 0,0 -4.6,-3.3 -3.8,-3.8 0.9,-0.4 2.1,0.8 3.8,-2.7 0.1,-0.1 0,6.5 0,6.5 z"
           id="path3177"
           style="fill:#c8a800;fill-opacity:1;fill-rule:evenodd;stroke:none" />
      </g>
    </g>
    <path
       d="m 214.67639,484.92468 c 0,0 -5.75,4.125 -4.75,4.75 1.125,0.5 2.625,-1 4.75,3.375 0.125,0.125 0,-8.125 0,-8.125 z"
       id="path3181"
       style="fill:none;stroke:#c8a800;stroke-width:1.23812497;stroke-linecap:butt;stroke-linejoin:round;stroke-miterlimit:10;stroke-opacity:1;stroke-dasharray:none" />
    <g
       transform="matrix(1.25,0,0,-1.25,172.55139,1401.1747)"
       id="g3191">
      <g
         clip-path="url(#clipPath3187)"
         id="g3193"
         style="opacity:0.84999001">
        <path
           d="m 33.7,726.9 c 0,0 -3.4,-3.4 -2.5,-3.9 0.9,-0.4 0.8,0.9 2.5,-2.6 0.1,-0.1 0,6.5 0,6.5 z"
           id="path3195"
           style="fill:#c8a800;fill-opacity:1;fill-rule:evenodd;stroke:none" />
      </g>
    </g>
    <path
       d="m 214.67639,492.54968 c 0,0 -4.25,4.25 -3.125,4.875 1.125,0.5 1,-1.125 3.125,3.25 0.125,0.125 0,-8.125 0,-8.125 z"
       id="path3199"
       style="fill:none;stroke:#c8a800;stroke-width:1.23812497;stroke-linecap:butt;stroke-linejoin:round;stroke-miterlimit:10;stroke-opacity:1;stroke-dasharray:none" />
    <g
       transform="matrix(1.25,0,0,-1.25,172.55139,1401.1747)"
       id="g3209">
      <g
         clip-path="url(#clipPath3205)"
         id="g3211"
         style="opacity:0.84999001">
        <path
           d="m 33.9,739.8 c 0,0 -6.3,-2.5 -5.5,-3 0.9,-0.5 3.8,0 5.5,-3.4 0.1,-0.2 0,6.4 0,6.4 z"
           id="path3213"
           style="fill:#c8a800;fill-opacity:1;fill-rule:evenodd;stroke:none" />
      </g>
    </g>
    <path
       d="m 214.92639,476.42468 c 0,0 -7.875,3.125 -6.875,3.75 1.125,0.625 4.75,0 6.875,4.25 0.125,0.25 0,-8 0,-8 z"
       id="path3217"
       style="fill:none;stroke:#c8a800;stroke-width:1.23812497;stroke-linecap:butt;stroke-linejoin:round;stroke-miterlimit:10;stroke-opacity:1;stroke-dasharray:none" />
    <g
       transform="translate(-162.45921,-0.2322331)"
       id="g15258">
      <path
         d="m 540.30138,471.54968 0,-14 -10.5,0 0,-9.375 -15.75,0"
         id="path3221"
         style="fill:none;stroke:#c8a800;stroke-width:1.23812497;stroke-linecap:butt;stroke-linejoin:round;stroke-miterlimit:10;stroke-opacity:1;stroke-dasharray:none" />
      <g
         transform="matrix(1.25,0,0,-1.25,172.55139,1401.1747)"
         clip-path="url(#clipPath3227)"
         id="g3233"
         style="opacity:0.84999001">
        <path
           d="m 294.7,757.2 -6.1,0 0,5.6 c 0,0 1.6,0.7 4.2,-1.9 2.5,-2.5 1.9,-3.7 1.9,-3.7 z"
           id="path3235"
           style="fill:#c8a800;fill-opacity:1;fill-rule:evenodd;stroke:none" />
      </g>
      <path
         d="m 540.92638,454.67468 -7.625,0 0,-7 c 0,0 2,-0.875 5.25,2.375 3.125,3.125 2.375,4.625 2.375,4.625 z"
         id="path3239"
         style="fill:none;stroke:#c8a800;stroke-width:1.23812497;stroke-linecap:butt;stroke-linejoin:round;stroke-miterlimit:10;stroke-opacity:1;stroke-dasharray:none" />
      <g
         transform="matrix(1.25,0,0,-1.25,172.55139,1401.1747)"
         clip-path="url(#clipPath3245)"
         id="g3251"
         style="opacity:0.84999001">
        <path
           d="m 290.3,733.4 c 0,0 4.6,-3.3 3.7,-3.8 -0.9,-0.4 -2.1,0.8 -3.8,-2.7 0,-0.1 0.1,6.5 0.1,6.5 z"
           id="path3253"
           style="fill:#c8a800;fill-opacity:1;fill-rule:evenodd;stroke:none" />
      </g>
      <path
         d="m 535.42638,484.42468 c 0,0 5.75,4.125 4.625,4.75 -1.125,0.5 -2.625,-1 -4.75,3.375 0,0.125 0.125,-8.125 0.125,-8.125 z"
         id="path3257"
         style="fill:none;stroke:#c8a800;stroke-width:1.23812497;stroke-linecap:butt;stroke-linejoin:round;stroke-miterlimit:10;stroke-opacity:1;stroke-dasharray:none" />
      <g
         transform="matrix(1.25,0,0,-1.25,172.55139,1401.1747)"
         clip-path="url(#clipPath3263)"
         id="g3269"
         style="opacity:0.84999001">
        <path
           d="m 290.3,727.3 c 0,0 3.4,-3.4 2.5,-3.9 -0.9,-0.5 -0.9,0.9 -2.6,-2.6 0,-0.1 0.1,6.5 0.1,6.5 z"
           id="path3271"
           style="fill:#c8a800;fill-opacity:1;fill-rule:evenodd;stroke:none" />
      </g>
      <path
         d="m 535.42638,492.04968 c 0,0 4.25,4.25 3.125,4.875 -1.125,0.625 -1.125,-1.125 -3.25,3.25 0,0.125 0.125,-8.125 0.125,-8.125 z"
         id="path3275"
         style="fill:none;stroke:#c8a800;stroke-width:1.23812497;stroke-linecap:butt;stroke-linejoin:round;stroke-miterlimit:10;stroke-opacity:1;stroke-dasharray:none" />
      <g
         transform="matrix(1.25,0,0,-1.25,172.55139,1401.1747)"
         clip-path="url(#clipPath3281)"
         id="g3287"
         style="opacity:0.84999001">
        <path
           d="m 290.1,740.2 c 0,0 6.3,-2.5 5.4,-3 -0.8,-0.5 -3.7,0 -5.5,-3.5 0,-0.1 0.1,6.5 0.1,6.5 z"
           id="path3289"
           style="fill:#c8a800;fill-opacity:1;fill-rule:evenodd;stroke:none" />
      </g>
      <path
         d="m 535.17638,475.92468 c 0,0 7.875,3.125 6.75,3.75 -1,0.625 -4.625,0 -6.875,4.375 0,0.125 0.125,-8.125 0.125,-8.125 z"
         id="path3293"
         style="fill:none;stroke:#c8a800;stroke-width:1.23812497;stroke-linecap:butt;stroke-linejoin:round;stroke-miterlimit:10;stroke-opacity:1;stroke-dasharray:none" />
      <g
         transform="matrix(1.25,0,0,-1.25,172.55139,1401.1747)"
         clip-path="url(#clipPath3299)"
         id="g3305"
         style="opacity:0.84999001">
        <path
           d="m 261.2,758.9 c 0,0 -3.7,4.1 -4.2,3.4 -0.5,-0.9 0.8,-1.9 -3.1,-3.4 -0.1,-0.1 7.3,0 7.3,0 z"
           id="path3307"
           style="fill:#c8a800;fill-opacity:1;fill-rule:evenodd;stroke:none" />
      </g>
      <path
         d="m 499.05138,452.54968 c 0,0 -4.625,-5.125 -5.25,-4.25 -0.625,1.125 1,2.375 -3.875,4.25 -0.125,0.125 9.125,0 9.125,0 z"
         id="path3311"
         style="fill:none;stroke:#c8a800;stroke-width:1.23812497;stroke-linecap:butt;stroke-linejoin:round;stroke-miterlimit:10;stroke-opacity:1;stroke-dasharray:none" />
      <g
         transform="matrix(1.25,0,0,-1.25,172.55139,1401.1747)"
         clip-path="url(#clipPath3317)"
         id="g3323"
         style="opacity:0.84999001">
        <path
           d="m 254.3,758.9 c 0,0 -3.8,3 -4.3,2.2 -0.6,-0.7 1,-0.7 -2.9,-2.2 -0.2,-0.1 7.2,0 7.2,0 z"
           id="path3325"
           style="fill:#c8a800;fill-opacity:1;fill-rule:evenodd;stroke:none" />
      </g>
      <path
         d="m 490.42638,452.54968 c 0,0 -4.75,-3.75 -5.375,-2.75 -0.75,0.875 1.25,0.875 -3.625,2.75 -0.25,0.125 9,0 9,0 z"
         id="path3329"
         style="fill:none;stroke:#c8a800;stroke-width:1.23812497;stroke-linecap:butt;stroke-linejoin:round;stroke-miterlimit:10;stroke-opacity:1;stroke-dasharray:none" />
      <g
         transform="matrix(1.25,0,0,-1.25,172.55139,1401.1747)"
         clip-path="url(#clipPath3335)"
         id="g3341"
         style="opacity:0.84999001">
        <path
           d="m 268.8,758.7 c 0,0 -2.8,5.7 -3.4,4.9 -0.5,-0.8 0,-3.4 -3.8,-4.9 -0.2,-0.1 7.2,0 7.2,0 z"
           id="path3343"
           style="fill:#c8a800;fill-opacity:1;fill-rule:evenodd;stroke:none" />
      </g>
      <path
         d="m 508.55138,452.79968 c 0,0 -3.5,-7.125 -4.25,-6.125 -0.625,1 0,4.25 -4.75,6.125 -0.25,0.125 9,0 9,0 z"
         id="path3347"
         style="fill:none;stroke:#c8a800;stroke-width:1.23812497;stroke-linecap:butt;stroke-linejoin:round;stroke-miterlimit:10;stroke-opacity:1;stroke-dasharray:none" />
      <path
         d="m 514.05138,615.54968 15.75,0 0,-9.25 10.5,0 0,-14"
         id="path3351"
         style="fill:none;stroke:#c8a800;stroke-width:1.23812497;stroke-linecap:butt;stroke-linejoin:round;stroke-miterlimit:10;stroke-opacity:1;stroke-dasharray:none" />
      <g
         transform="matrix(1.25,0,0,-1.25,172.55139,1401.1747)"
         clip-path="url(#clipPath3357)"
         id="g3363"
         style="opacity:0.84999001">
        <path
           d="m 288.3,628.1 0,5.4 6.3,0 c 0,0 0.7,-1.5 -2.1,-3.8 -2.9,-2.2 -4.2,-1.6 -4.2,-1.6 z"
           id="path3365"
           style="fill:#c8a800;fill-opacity:1;fill-rule:evenodd;stroke:none" />
      </g>
      <path
         d="m 532.92638,616.04968 0,-6.75 7.875,0 c 0,0 0.875,1.875 -2.625,4.75 -3.625,2.75 -5.25,2 -5.25,2 z"
         id="path3369"
         style="fill:none;stroke:#c8a800;stroke-width:1.23812497;stroke-linecap:butt;stroke-linejoin:round;stroke-miterlimit:10;stroke-opacity:1;stroke-dasharray:none" />
      <g
         transform="matrix(1.25,0,0,-1.25,172.55139,1401.1747)"
         clip-path="url(#clipPath3375)"
         id="g3381"
         style="opacity:0.84999001">
        <path
           d="m 261.6,632 c 0,0 -3.6,-4.2 -4.2,-3.4 -0.5,0.8 0.8,1.9 -3,3.4 -0.2,0 7.2,0 7.2,0 z"
           id="path3383"
           style="fill:#c8a800;fill-opacity:1;fill-rule:evenodd;stroke:none" />
      </g>
      <path
         d="m 499.55138,611.17468 c 0,0 -4.5,5.25 -5.25,4.25 -0.625,-1 1,-2.375 -3.75,-4.25 -0.25,0 9,0 9,0 z"
         id="path3387"
         style="fill:none;stroke:#c8a800;stroke-width:1.23812497;stroke-linecap:butt;stroke-linejoin:round;stroke-miterlimit:10;stroke-opacity:1;stroke-dasharray:none" />
      <g
         transform="matrix(1.25,0,0,-1.25,172.55139,1401.1747)"
         clip-path="url(#clipPath3393)"
         id="g3399"
         style="opacity:0.84999001">
        <path
           d="m 254.7,632 c 0,0 -3.7,-3.1 -4.3,-2.3 -0.5,0.8 1,0.8 -2.9,2.3 -0.1,0 7.2,0 7.2,0 z"
           id="path3401"
           style="fill:#c8a800;fill-opacity:1;fill-rule:evenodd;stroke:none" />
      </g>
      <path
         d="m 490.92638,611.17468 c 0,0 -4.625,3.875 -5.375,2.875 -0.625,-1 1.25,-1 -3.625,-2.875 -0.125,0 9,0 9,0 z"
         id="path3405"
         style="fill:none;stroke:#c8a800;stroke-width:1.23812497;stroke-linecap:butt;stroke-linejoin:round;stroke-miterlimit:10;stroke-opacity:1;stroke-dasharray:none" />
      <g
         transform="matrix(1.25,0,0,-1.25,172.55139,1401.1747)"
         clip-path="url(#clipPath3411)"
         id="g3417"
         style="opacity:0.84999001">
        <path
           d="m 269.3,632.2 c 0,0 -2.9,-5.7 -3.4,-4.9 -0.5,0.8 0,3.4 -3.9,4.9 -0.1,0.1 7.3,0 7.3,0 z"
           id="path3419"
           style="fill:#c8a800;fill-opacity:1;fill-rule:evenodd;stroke:none" />
      </g>
      <path
         d="m 509.17638,610.92468 c 0,0 -3.625,7.125 -4.25,6.125 -0.625,-1 0,-4.25 -4.875,-6.125 -0.125,-0.125 9.125,0 9.125,0 z"
         id="path3423"
         style="fill:none;stroke:#c8a800;stroke-width:1.23812497;stroke-linecap:butt;stroke-linejoin:round;stroke-miterlimit:10;stroke-opacity:1;stroke-dasharray:none" />
      <g
         transform="matrix(1.25,0,0,-1.25,172.55139,1401.1747)"
         clip-path="url(#clipPath3429)"
         id="g3435"
         style="opacity:0.84999001">
        <path
           d="m 290.3,657.9 c 0,0 4.6,3.3 3.7,3.7 -0.9,0.5 -2,-0.7 -3.8,2.8 0,0.1 0.1,-6.5 0.1,-6.5 z"
           id="path3437"
           style="fill:#c8a800;fill-opacity:1;fill-rule:evenodd;stroke:none" />
      </g>
      <path
         d="m 535.42638,578.79968 c 0,0 5.75,-4.125 4.625,-4.625 -1.125,-0.625 -2.5,0.875 -4.75,-3.5 0,-0.125 0.125,8.125 0.125,8.125 z"
         id="path3441"
         style="fill:none;stroke:#c8a800;stroke-width:1.23812497;stroke-linecap:butt;stroke-linejoin:round;stroke-miterlimit:10;stroke-opacity:1;stroke-dasharray:none" />
      <g
         transform="matrix(1.25,0,0,-1.25,172.55139,1401.1747)"
         clip-path="url(#clipPath3447)"
         id="g3453"
         style="opacity:0.84999001">
        <path
           d="m 290.3,664 c 0,0 3.4,3.4 2.5,3.9 -0.9,0.5 -0.8,-0.9 -2.6,2.6 0,0.1 0.1,-6.5 0.1,-6.5 z"
           id="path3455"
           style="fill:#c8a800;fill-opacity:1;fill-rule:evenodd;stroke:none" />
      </g>
      <path
         d="m 535.42638,571.17468 c 0,0 4.25,-4.25 3.125,-4.875 -1.125,-0.625 -1,1.125 -3.25,-3.25 0,-0.125 0.125,8.125 0.125,8.125 z"
         id="path3459"
         style="fill:none;stroke:#c8a800;stroke-width:1.23812497;stroke-linecap:butt;stroke-linejoin:round;stroke-miterlimit:10;stroke-opacity:1;stroke-dasharray:none" />
      <g
         transform="matrix(1.25,0,0,-1.25,172.55139,1401.1747)"
         clip-path="url(#clipPath3465)"
         id="g3471"
         style="opacity:0.84999001">
        <path
           d="m 290.1,651.1 c 0,0 6.3,2.5 5.4,3 -0.8,0.5 -3.8,0 -5.5,3.5 0,0.1 0.1,-6.5 0.1,-6.5 z"
           id="path3473"
           style="fill:#c8a800;fill-opacity:1;fill-rule:evenodd;stroke:none" />
      </g>
      <path
         d="m 535.17638,587.29968 c 0,0 7.875,-3.125 6.75,-3.75 -1,-0.625 -4.75,0 -6.875,-4.375 0,-0.125 0.125,8.125 0.125,8.125 z"
         id="path3477"
         style="fill:none;stroke:#c8a800;stroke-width:1.23812497;stroke-linecap:butt;stroke-linejoin:round;stroke-miterlimit:10;stroke-opacity:1;stroke-dasharray:none" />
    </g>
    <path
       d="m 209.67639,592.17468 0,14 10.5,0 0,9.375 15.75,0"
       id="path3481"
       style="fill:none;stroke:#c8a800;stroke-width:1.23812497;stroke-linecap:butt;stroke-linejoin:round;stroke-miterlimit:10;stroke-opacity:1;stroke-dasharray:none" />
    <g
       transform="matrix(1.25,0,0,-1.25,172.55139,1401.1747)"
       id="g3491">
      <g
         clip-path="url(#clipPath3487)"
         id="g3493"
         style="opacity:0.84999001">
        <path
           d="m 29.3,633.7 6.1,0 0,-5.6 c 0,0 -1.6,-0.7 -4.2,1.9 -2.6,2.5 -1.9,3.7 -1.9,3.7 z"
           id="path3495"
           style="fill:#c8a800;fill-opacity:1;fill-rule:evenodd;stroke:none" />
      </g>
    </g>
    <path
       d="m 209.17639,609.04968 7.625,0 0,7 c 0,0 -2,0.875 -5.25,-2.375 -3.25,-3.125 -2.375,-4.625 -2.375,-4.625 z"
       id="path3499"
       style="fill:none;stroke:#c8a800;stroke-width:1.23812497;stroke-linecap:butt;stroke-linejoin:round;stroke-miterlimit:10;stroke-opacity:1;stroke-dasharray:none" />
    <g
       transform="matrix(1.25,0,0,-1.25,172.55139,1401.1747)"
       id="g3509">
      <g
         clip-path="url(#clipPath3505)"
         id="g3511"
         style="opacity:0.84999001">
        <path
           d="m 33.7,657.5 c 0,0 -4.6,3.3 -3.8,3.8 0.9,0.4 2.1,-0.8 3.8,2.7 0.1,0.1 0,-6.5 0,-6.5 z"
           id="path3513"
           style="fill:#c8a800;fill-opacity:1;fill-rule:evenodd;stroke:none" />
      </g>
    </g>
    <path
       d="m 214.67639,579.29968 c 0,0 -5.75,-4.125 -4.75,-4.75 1.125,-0.5 2.625,1 4.75,-3.375 0.125,-0.125 0,8.125 0,8.125 z"
       id="path3517"
       style="fill:none;stroke:#c8a800;stroke-width:1.23812497;stroke-linecap:butt;stroke-linejoin:round;stroke-miterlimit:10;stroke-opacity:1;stroke-dasharray:none" />
    <g
       transform="matrix(1.25,0,0,-1.25,172.55139,1401.1747)"
       id="g3527">
      <g
         clip-path="url(#clipPath3523)"
         id="g3529"
         style="opacity:0.84999001">
        <path
           d="m 33.7,663.6 c 0,0 -3.4,3.4 -2.5,3.9 0.9,0.5 0.8,-0.8 2.5,2.6 0.1,0.2 0,-6.5 0,-6.5 z"
           id="path3531"
           style="fill:#c8a800;fill-opacity:1;fill-rule:evenodd;stroke:none" />
      </g>
    </g>
    <path
       d="m 214.67639,571.67468 c 0,0 -4.25,-4.25 -3.125,-4.875 1.125,-0.625 1,1 3.125,-3.25 0.125,-0.25 0,8.125 0,8.125 z"
       id="path3535"
       style="fill:none;stroke:#c8a800;stroke-width:1.23812497;stroke-linecap:butt;stroke-linejoin:round;stroke-miterlimit:10;stroke-opacity:1;stroke-dasharray:none" />
    <g
       transform="matrix(1.25,0,0,-1.25,172.55139,1401.1747)"
       id="g3545">
      <g
         clip-path="url(#clipPath3541)"
         id="g3547"
         style="opacity:0.84999001">
        <path
           d="m 33.9,650.7 c 0,0 -6.3,2.5 -5.5,3 0.9,0.5 3.8,0 5.5,3.5 0.1,0.1 0,-6.5 0,-6.5 z"
           id="path3549"
           style="fill:#c8a800;fill-opacity:1;fill-rule:evenodd;stroke:none" />
      </g>
    </g>
    <path
       d="m 214.92639,587.79968 c 0,0 -7.875,-3.125 -6.875,-3.75 1.125,-0.625 4.75,0 6.875,-4.375 0.125,-0.125 0,8.125 0,8.125 z"
       id="path3553"
       style="fill:none;stroke:#c8a800;stroke-width:1.23812497;stroke-linecap:butt;stroke-linejoin:round;stroke-miterlimit:10;stroke-opacity:1;stroke-dasharray:none" />
    <g
       transform="matrix(1.25,0,0,-1.25,172.55139,1401.1747)"
       id="g4153">
      <g
         clip-path="url(#clipPath4149)"
         id="g4155"
         style="opacity:0.84999001">
        <path
           d="m 60.2,631.2 c 0,0 3.6,-4.1 4.2,-3.3 0.5,0.8 -0.8,1.8 3,3.4 0.2,0 -7.2,-0.1 -7.2,-0.1 z"
           id="path4157"
           style="fill:#c8a800;fill-opacity:1;fill-rule:evenodd;stroke:none" />
      </g>
    </g>
    <path
       d="m 247.80139,612.17468 c 0,0 4.5,5.125 5.25,4.125 0.625,-1 -1,-2.25 3.75,-4.25 0.25,0 -9,0.125 -9,0.125 z"
       id="path4161"
       style="fill:none;stroke:#c8a800;stroke-width:1.23812497;stroke-linecap:butt;stroke-linejoin:round;stroke-miterlimit:10;stroke-opacity:1;stroke-dasharray:none" />
    <g
       transform="matrix(1.25,0,0,-1.25,172.55139,1401.1747)"
       id="g4171">
      <g
         clip-path="url(#clipPath4167)"
         id="g4173"
         style="opacity:0.84999001">
        <path
           d="m 67,631.2 c 0,0 3.8,-3 4.4,-2.2 0.5,0.7 -1,0.7 2.9,2.2 0.1,0.1 -7.3,0 -7.3,0 z"
           id="path4175"
           style="fill:#c8a800;fill-opacity:1;fill-rule:evenodd;stroke:none" />
      </g>
    </g>
    <path
       d="m 256.55139,611.92468 c 0,0 4.75,3.75 5.375,2.75 0.75,-0.875 -1.125,-0.875 3.625,-2.75 0.25,-0.125 -9,0 -9,0 z"
       id="path4179"
       style="fill:none;stroke:#c8a800;stroke-width:1.23812497;stroke-linecap:butt;stroke-linejoin:round;stroke-miterlimit:10;stroke-opacity:1;stroke-dasharray:none" />
    <g
       transform="matrix(1.25,0,0,-1.25,172.55139,1401.1747)"
       id="g4189">
      <g
         clip-path="url(#clipPath4185)"
         id="g4191"
         style="opacity:0.84999001">
        <path
           d="m 52.6,631.7 c 0,0 2.8,-5.7 3.4,-4.9 0.5,0.8 0,3.3 3.8,4.9 0.2,0.1 -7.2,0 -7.2,0 z"
           id="path4193"
           style="fill:#c8a800;fill-opacity:1;fill-rule:evenodd;stroke:none" />
      </g>
    </g>
    <path
       d="m 238.30139,611.92468 c 0,0 3.5,7.125 4.25,6.125 0.625,-1 0,-4.25 4.75,-6.125 0.25,-0.125 -9,0 -9,0 z"
       id="path4197"
       style="fill:none;stroke:#c8a800;stroke-width:1.23812497;stroke-linecap:butt;stroke-linejoin:round;stroke-miterlimit:10;stroke-opacity:1;stroke-dasharray:none" />
  </g>
</svg>
