<?xml version="1.0" encoding="utf-8"?>
<!-- Generator: Adobe Illustrator 19.0.0, SVG Export Plug-In . SVG Version: 6.00 Build 0)  -->
<svg version="1.0" id="GRAFICOS" xmlns="http://www.w3.org/2000/svg" xmlns:xlink="http://www.w3.org/1999/xlink" x="0px" y="0px"
	 viewBox="0 0 26.221 26.22" enable-background="new 0 0 26.221 26.22" xml:space="preserve">
<g id="antepasados">
	<g id="XMLID_1534_">
		<g id="XMLID_1539_">
			<g id="XMLID_1540_">
				<path d="M10.83,12.011c0.739,0.127,1.503,0.19,2.28,0.19c0.777,0,1.541-0.063,2.28-0.19c0,0-2.149,2.862-2.149,6.899h-0.266
					C12.975,14.874,10.83,12.011,10.83,12.011z"/>
			</g>
		</g>
	</g>
	<g id="XMLID_1533_">
		<path id="XMLID_1676_" d="M19.371,23.392l-0.922-1.593c3.295-1.905,5.342-5.45,5.342-9.251c0-5.888-4.792-10.679-10.682-10.679
			C7.22,1.869,2.43,6.66,2.43,12.548c0,3.798,2.046,7.343,5.339,9.251l-0.922,1.592C2.988,21.154,0.59,17,0.59,12.548
			c0-6.903,5.616-12.519,12.519-12.519c6.904,0,12.521,5.616,12.521,12.519C25.63,17.003,23.232,21.159,19.371,23.392z"/>
	</g>
	<g id="XMLID_1532_">
		<rect id="XMLID_1667_" x="12.19" y="20.41" width="1.84" height="5.781"/>
	</g>
	<g id="XMLID_1527_">
		<rect id="XMLID_1666_" x="8.713" y="20.41" width="1.84" height="5.781"/>
	</g>
	<g id="XMLID_1526_">
		<rect id="XMLID_1660_" x="15.667" y="20.41" width="1.84" height="5.781"/>
	</g>
	<g id="XMLID_1524_">
		<path d="M11.454,8.561l-3.183,5.512l-2.054-3.557C5.716,9.647,6.344,8.561,7.347,8.561H11.454z"/>
	</g>
	<g id="XMLID_1523_">
		<path d="M14.481,8.561l3.183,5.512l2.054-3.557c0.502-0.869-0.125-1.955-1.129-1.955H14.481z"/>
	</g>
</g>
<g id="caos_1_">
</g>
<g id="ley">
</g>
<g id="elementos">
</g>
<g id="XMLID_69_">
</g>
<g id="XMLID_70_">
</g>
<g id="XMLID_71_">
</g>
<g id="XMLID_72_">
</g>
<g id="XMLID_73_">
</g>
<g id="XMLID_74_">
</g>
<g id="XMLID_75_">
</g>
<g id="XMLID_76_">
</g>
<g id="XMLID_77_">
</g>
<g id="XMLID_79_">
</g>
<g id="XMLID_80_">
</g>
<g id="XMLID_81_">
</g>
</svg>
