<?xml version="1.0" encoding="utf-8"?>
<!-- Generator: Adobe Illustrator 19.0.0, SVG Export Plug-In . SVG Version: 6.00 Build 0)  -->
<svg version="1.0" id="GRAFICOS" xmlns="http://www.w3.org/2000/svg" xmlns:xlink="http://www.w3.org/1999/xlink" x="0px" y="0px"
	 viewBox="0 0 36.85 36.85" enable-background="new 0 0 36.85 36.85" xml:space="preserve">
<g id="XMLID_3646_">
	<g id="XMLID_3721_">
		<path id="XMLID_3729_" fill="#357C95" d="M13.091,36.845H1.768C0.792,36.845,0,36.053,0,35.077V23.723
			C1.809,30.035,6.79,35.015,13.091,36.845z"/>
		<path id="XMLID_3728_" fill="#357C95" d="M13.091,0.005C6.79,1.835,1.809,6.816,0,13.127V1.774c0-0.977,0.792-1.768,1.768-1.768
			H13.091z"/>
		<path id="XMLID_3724_" fill="#357C95" d="M18.426,0.739c-9.753,0-17.687,7.934-17.687,17.677c0,9.764,7.934,17.697,17.687,17.697
			s17.687-7.934,17.687-17.697C36.112,8.672,28.179,0.739,18.426,0.739z M18.426,35.53c-9.431,0-17.105-7.674-17.105-17.115
			c0-9.431,7.674-17.105,17.105-17.105c9.431,0,17.105,7.674,17.105,17.105C35.53,27.856,27.857,35.53,18.426,35.53z"/>
		<path id="XMLID_3723_" fill="#357C95" d="M36.85,1.774v11.354C35.041,6.816,30.06,1.835,23.759,0.005h11.323
			C36.059,0.005,36.85,0.797,36.85,1.774z"/>
		<path id="XMLID_3722_" fill="#357C95" d="M36.85,23.723v11.354c0,0.977-0.792,1.769-1.768,1.769H23.759
			C30.06,35.015,35.041,30.035,36.85,23.723z"/>
	</g>
	<g id="XMLID_3716_">
		<path id="XMLID_3717_" fill="#FFFFFF" d="M18.426,0.739c-9.753,0-17.687,7.934-17.687,17.677c0,9.764,7.934,17.697,17.687,17.697
			s17.687-7.934,17.687-17.697C36.112,8.672,28.179,0.739,18.426,0.739z M18.426,35.53c-9.431,0-17.105-7.674-17.105-17.115
			c0-9.431,7.674-17.105,17.105-17.105c9.431,0,17.105,7.674,17.105,17.105C35.53,27.856,27.857,35.53,18.426,35.53z"/>
	</g>
	<g id="XMLID_3711_">
		<path id="XMLID_3712_" fill="#357C95" d="M18.426,0.739c-9.753,0-17.687,7.934-17.687,17.677c0,9.764,7.934,17.697,17.687,17.697
			s17.687-7.934,17.687-17.697C36.112,8.672,28.179,0.739,18.426,0.739z M18.426,35.104c-9.192,0-16.668-7.487-16.668-16.689
			c0-9.192,7.476-16.668,16.668-16.668s16.668,7.476,16.668,16.668C35.094,27.617,27.617,35.104,18.426,35.104z"/>
	</g>
</g>
<g id="antepasados">
</g>
<g id="caos_1_">
</g>
<g id="ley">
</g>
<g id="elementos">
</g>
<g id="XMLID_3_">
</g>
<g id="XMLID_4_">
</g>
<g id="XMLID_5_">
</g>
<g id="XMLID_7_">
</g>
<g id="XMLID_8_">
</g>
<g id="XMLID_9_">
</g>
<g id="XMLID_10_">
</g>
<g id="XMLID_88_">
</g>
<g id="XMLID_89_">
</g>
<g id="XMLID_90_">
</g>
<g id="XMLID_91_">
</g>
<g id="XMLID_92_">
</g>
</svg>
