<?xml version="1.0" encoding="utf-8"?>
<!-- Generator: Adobe Illustrator 19.0.0, SVG Export Plug-In . SVG Version: 6.00 Build 0)  -->
<svg version="1.0" id="GRAFICOS" xmlns="http://www.w3.org/2000/svg" xmlns:xlink="http://www.w3.org/1999/xlink" x="0px" y="0px"
	 viewBox="0 0 36.85 36.85" enable-background="new 0 0 36.85 36.85" xml:space="preserve">
<g id="antepasados">
</g>
<g id="caos_1_">
	<g id="XMLID_1518_">
		<g id="XMLID_1519_">
			<g id="XMLID_1522_">
				<path id="XMLID_5_" d="M15.931,29.302c0.808,0.139,1.645,0.208,2.495,0.208c0.85,0,1.686-0.069,2.495-0.208
					c0,0-2.351,3.132-2.351,7.548h-0.291C18.277,32.435,15.931,29.302,15.931,29.302z"/>
			</g>
		</g>
	</g>
	<g id="XMLID_1509_">
		<g id="XMLID_1510_">
			<g id="XMLID_1514_">
				<path d="M29.302,20.92c0.139-0.808,0.208-1.645,0.208-2.495c0-0.85-0.069-1.686-0.208-2.495c0,0,3.132,2.351,7.548,2.351v0.291
					C32.435,18.573,29.302,20.92,29.302,20.92z"/>
			</g>
		</g>
	</g>
	<g id="XMLID_1502_">
		<g id="XMLID_1507_">
			<g id="XMLID_1508_">
				<path d="M20.92,7.548c-0.808-0.139-1.645-0.208-2.495-0.208c-0.85,0-1.686,0.069-2.495,0.208c0,0,2.351-3.132,2.351-7.548h0.291
					C18.573,4.416,20.92,7.548,20.92,7.548z"/>
			</g>
		</g>
	</g>
	<g id="XMLID_1475_">
		<g id="XMLID_1483_">
			<g id="XMLID_1488_">
				<path d="M7.548,15.931c-0.139,0.808-0.208,1.645-0.208,2.495c0,0.85,0.069,1.686,0.208,2.495c0,0-3.132-2.351-7.548-2.351
					v-0.291C4.416,18.277,7.548,15.931,7.548,15.931z"/>
			</g>
		</g>
	</g>
	<g id="XMLID_1463_">
		<g id="XMLID_1464_">
			<g id="XMLID_1471_">
				<path d="M8.97,24.353c0.474,0.67,1.016,1.31,1.617,1.911c0.601,0.601,1.241,1.143,1.911,1.617c0,0-3.877,0.552-7,3.675
					L5.292,31.35C8.415,28.227,8.97,24.353,8.97,24.353z"/>
			</g>
		</g>
	</g>
	<g id="XMLID_1452_">
		<g id="XMLID_1454_">
			<g id="XMLID_1462_">
				<path d="M24.353,27.88c0.67-0.474,1.31-1.016,1.911-1.617c0.601-0.601,1.143-1.241,1.617-1.911c0,0,0.552,3.877,3.675,7
					l-0.206,0.206C28.227,28.436,24.353,27.88,24.353,27.88z"/>
			</g>
		</g>
	</g>
	<g id="XMLID_1367_">
		<g id="XMLID_1373_">
			<g id="XMLID_1442_">
				<path d="M27.88,12.498c-0.474-0.67-1.016-1.31-1.617-1.911c-0.601-0.601-1.241-1.143-1.911-1.617c0,0,3.877-0.552,7-3.675
					l0.206,0.206C28.436,8.623,27.88,12.498,27.88,12.498z"/>
			</g>
		</g>
	</g>
	<g id="XMLID_1250_">
		<g id="XMLID_1264_">
			<g id="XMLID_1361_">
				<path d="M12.498,8.97c-0.67,0.474-1.31,1.016-1.911,1.617c-0.601,0.601-1.143,1.241-1.617,1.911c0,0-0.552-3.877-3.675-7
					l0.206-0.206C8.624,8.415,12.498,8.97,12.498,8.97z"/>
			</g>
		</g>
	</g>
	<g id="XMLID_1190_">
		<path id="XMLID_1624_" d="M18.425,27.687c-5.068,0-9.191-4.123-9.191-9.191c0-5.068,4.123-9.191,9.191-9.191
			c5.067,0,9.19,4.123,9.19,9.191C27.616,23.564,23.493,27.687,18.425,27.687z M18.425,11.074c-4.093,0-7.422,3.33-7.422,7.422
			s3.329,7.421,7.422,7.421c4.092,0,7.421-3.329,7.421-7.421S22.517,11.074,18.425,11.074z"/>
	</g>
	<g id="XMLID_1176_">
		
			<rect id="XMLID_1615_" x="24.439" y="10.08" transform="matrix(0.7071 0.7071 -0.7071 0.7071 15.6464 -14.3758)" width="1.475" height="3.238"/>
	</g>
	<g id="XMLID_1146_">
		<rect id="XMLID_1610_" x="17.655" y="7.297" width="1.475" height="3.238"/>
	</g>
	<g id="XMLID_1134_">
		
			<rect id="XMLID_1609_" x="10.01" y="11.008" transform="matrix(0.7071 0.7071 -0.7071 0.7071 11.711 -4.7825)" width="3.237" height="1.475"/>
	</g>
	<g id="XMLID_1103_">
		<rect id="XMLID_1608_" x="7.227" y="17.791" width="3.237" height="1.475"/>
	</g>
	<g id="XMLID_1093_">
		
			<rect id="XMLID_1604_" x="10.937" y="23.674" transform="matrix(0.7071 0.7071 -0.7071 0.7071 21.3041 -0.847)" width="1.475" height="3.238"/>
	</g>
	<g id="XMLID_1082_">
		<rect id="XMLID_1603_" x="17.72" y="26.457" width="1.475" height="3.237"/>
	</g>
	<g id="XMLID_1059_">
		
			<rect id="XMLID_1599_" x="23.603" y="24.509" transform="matrix(0.707 0.7072 -0.7072 0.707 25.2435 -10.4402)" width="3.238" height="1.475"/>
	</g>
	<g id="XMLID_1054_">
		<rect id="XMLID_1598_" x="26.386" y="17.726" width="3.237" height="1.475"/>
	</g>
</g>
<g id="ley">
</g>
<g id="elementos">
</g>
<g id="XMLID_3_">
</g>
<g id="XMLID_4_">
</g>
<g id="XMLID_7_">
</g>
<g id="XMLID_8_">
</g>
<g id="XMLID_9_">
</g>
<g id="XMLID_10_">
</g>
<g id="XMLID_88_">
</g>
<g id="XMLID_89_">
</g>
<g id="XMLID_90_">
</g>
<g id="XMLID_91_">
</g>
<g id="XMLID_92_">
</g>
<g id="XMLID_93_">
</g>
</svg>
