<?xml version="1.0" encoding="utf-8"?>
<!-- Generator: Adobe Illustrator 19.0.0, SVG Export Plug-In . SVG Version: 6.00 Build 0)  -->
<svg version="1.0" id="GRAFICOS" xmlns="http://www.w3.org/2000/svg" xmlns:xlink="http://www.w3.org/1999/xlink" x="0px" y="0px"
	 viewBox="0 0 25.058 25.058" enable-background="new 0 0 25.058 25.058" xml:space="preserve">
<g id="antepasados">
</g>
<g id="caos_1_">
</g>
<g id="ley">
</g>
<g id="elementos">
	<g id="XMLID_982_">
		<g id="XMLID_990_">
			<g id="XMLID_991_">
				<path id="XMLID_7_" d="M9.596,1.04c0.951,0.163,1.934,0.244,2.933,0.244c0.999,0,1.983-0.081,2.933-0.244
					c0,0-2.765,3.683-2.765,8.875h-0.342C12.355,4.722,9.596,1.04,9.596,1.04z"/>
			</g>
		</g>
	</g>
	<g id="XMLID_925_">
		<g id="XMLID_928_">
			<g id="XMLID_981_">
				<path id="XMLID_8_" d="M1.04,15.462c0.163-0.951,0.244-1.934,0.244-2.933c0-0.999-0.081-1.983-0.244-2.933
					c0,0,3.683,2.765,8.875,2.765v0.342C4.722,12.703,1.04,15.462,1.04,15.462z"/>
			</g>
		</g>
	</g>
	<g id="XMLID_866_">
		<g id="XMLID_867_">
			<g id="XMLID_871_">
				<path id="XMLID_9_" d="M15.462,24.019c-0.951-0.163-1.934-0.244-2.933-0.244c-0.999,0-1.983,0.081-2.933,0.244
					c0,0,2.765-3.683,2.765-8.875h0.342C12.703,20.336,15.462,24.019,15.462,24.019z"/>
			</g>
		</g>
	</g>
	<g id="XMLID_826_">
		<g id="XMLID_828_">
			<g id="XMLID_829_">
				<path id="XMLID_10_" d="M24.019,9.596c-0.163,0.951-0.244,1.934-0.244,2.933c0,0.999,0.081,1.983,0.244,2.933
					c0,0-3.683-2.765-8.875-2.765v-0.342C20.336,12.355,24.019,9.596,24.019,9.596z"/>
			</g>
		</g>
	</g>
	<g id="XMLID_825_">
		<path id="XMLID_1565_" d="M12.529,25.049c-6.903,0-12.52-5.616-12.52-12.52S5.626,0.01,12.529,0.01s12.52,5.616,12.52,12.52
			S19.432,25.049,12.529,25.049z M12.529,1.85c-5.889,0-10.68,4.791-10.68,10.68s4.791,10.68,10.68,10.68s10.68-4.791,10.68-10.68
			S18.418,1.85,12.529,1.85z"/>
	</g>
</g>
<g id="XMLID_3_">
</g>
<g id="XMLID_4_">
</g>
<g id="XMLID_5_">
</g>
<g id="XMLID_310_">
</g>
<g id="XMLID_311_">
</g>
<g id="XMLID_312_">
</g>
<g id="XMLID_313_">
</g>
<g id="XMLID_314_">
</g>
<g id="XMLID_315_">
</g>
<g id="XMLID_316_">
</g>
<g id="XMLID_317_">
</g>
<g id="XMLID_318_">
</g>
</svg>
