<?xml version="1.0" encoding="utf-8"?>
<!-- Generator: Adobe Illustrator 19.0.0, SVG Export Plug-In . SVG Version: 6.00 Build 0)  -->
<svg version="1.0" id="GRAFICOS" xmlns="http://www.w3.org/2000/svg" xmlns:xlink="http://www.w3.org/1999/xlink" x="0px" y="0px"
	 viewBox="0 0 155.906 216.442" enable-background="new 0 0 155.906 216.442" xml:space="preserve">
<g id="XMLID_3596_">
	<g id="XMLID_4771_">
		<path id="XMLID_4772_" fill="#357C95" d="M150.233,10.512c0.49-4.09,1-7.34,1.05-7.39c-10.15,0-18.27,3.66-23.94,7.42
			c-15.75-10.38-28.17-11.54-33.29-9.97c-7.02,2.16-7.37,6.51-2.56,10.26c0,0-4.91,3.5-7.75-0.71c1.14,2.6,4.26,5.89,8.33,3.09
			c1.21-0.84,0.59-2.05,0.16-3.31c-0.54-1.58-0.37-3.94,2.08-5.75c1.59-1.17,9.08-5.97,28.03,4.09
			c9.19,4.88,31.72,16.35,31.72,52.55v144.69c0,3.81-1.28,6.84-3.86,8.53c-6.92,4.55-25.11-1.96-26.28-2.46
			c-13.72-5.9-21.39-9.15-27.52-7.48c-3.1,0.85-3.56,4.5-3.21,6.15c0.25,1.23,2.09,2.41,4.42,2.88c1.98,0.41,9.67,0.82,11.99,0.94
			c-2.86-0.24-13.86-1.46-10.44-6.18c1.81-2.51,5.12-0.46,7.7,2.54c2.73,3.17,6.73,3.08,11.52,4.27l-20.6-0.07
			c-2.65,0-4.51-1.62-5.03-4.14c-0.49-2.37,0.38-5.61,3.87-7.13c4.61-1.99,11.93-0.43,24.74,5.46c1.15,0.53,16.84,8.77,27.59,4.77
			c2.29-0.85,3.11-4.91,3.11-8.08V60.792c0-34.97-23.46-48.78-30.61-51.83c-19.65-8.39-25.35-3.64-25.95-3.2
			c-1.55,1.14-1.43,2.44-1.28,3.95c0.12,1.34-0.09,2.93-1.44,3.96c-2,1.54-5.31,1.94-7.54-0.3c-1.17-1.17-1.83-2.41-1.95-4.2
			c-0.01-0.01-0.01-0.03-0.01-0.04c-0.6-2.73,3.74-5.54,2.58-6.92c-1.78-2.14-2.93,1.81-7.91,1.62c-4.98,0.19-6.13-3.76-7.91-1.62
			c-1.16,1.38,3.18,4.19,2.58,6.92c0,0.01,0,0.03-0.01,0.04c-0.12,1.79-0.78,3.03-1.95,4.2c-2.23,2.24-5.54,1.84-7.54,0.3
			c-1.35-1.03-1.56-2.62-1.44-3.96c0.15-1.51,0.27-2.81-1.28-3.95c-0.6-0.44-6.3-5.19-25.95,3.2c-7.15,3.05-30.61,16.86-30.61,51.83
			v144.69c0,3.17,0.82,7.23,3.11,8.08c10.75,4,26.44-4.24,27.59-4.77c12.81-5.89,20.13-7.45,24.74-5.46
			c3.49,1.52,4.36,4.76,3.87,7.13c-0.52,2.52-2.38,4.14-5.03,4.14l-20.6,0.07c4.79-1.19,8.79-1.1,11.52-4.27
			c2.58-3,5.89-5.05,7.7-2.54c3.42,4.72-7.58,5.94-10.44,6.18c2.32-0.12,10.01-0.53,11.99-0.94c2.33-0.47,4.17-1.65,4.42-2.88
			c0.35-1.65-0.11-5.3-3.21-6.15c-6.13-1.67-13.8,1.58-27.52,7.48c-1.17,0.5-19.36,7.01-26.28,2.46c-2.58-1.69-3.86-4.72-3.86-8.53
			V60.792c0-36.2,22.53-47.67,31.72-52.55c18.95-10.06,26.44-5.26,28.03-4.09c2.45,1.81,2.62,4.17,2.08,5.75
			c-0.43,1.26-1.05,2.47,0.16,3.31c4.07,2.8,7.19-0.49,8.33-3.09c-2.84,4.21-7.75,0.71-7.75,0.71c4.81-3.75,4.46-8.1-2.56-10.26
			c-5.12-1.57-17.54-0.41-33.29,9.97c-5.67-3.76-13.79-7.42-23.94-7.42c0.05,0.05,0.56,3.3,1.05,7.39
			c-3.44,2.58-5.67,6.7-5.67,11.33v186.02c0,4.74,3.84,8.58,8.58,8.58h57.04c4.75,0,12.33-0.96,12.33-4.71
			c0,3.75,7.58,4.71,12.33,4.71h57.04c4.74,0,8.58-3.84,8.58-8.58V21.842C155.903,17.212,153.673,13.092,150.233,10.512z
			 M133.453,12.372c0,0,0.82-0.79,5.08-3.25c4.27-2.46,9.27-3.23,9.27-3.23c-0.08,0.75-0.15,1.5-0.2,2.25
			c-3.35,1-7.68,2.78-11.91,5.91C134.973,13.482,134.233,12.922,133.453,12.372z M137.283,15.372c3.59-2.56,7.25-4.13,10.21-5.07
			c-0.05,1.02-0.06,2.02-0.04,3c-2.6,0.98-5.5,2.22-8.35,3.75C138.523,16.482,137.923,15.932,137.283,15.372z M140.573,18.552
			c2.35-1.23,4.73-2.26,6.93-3.1c0.05,1.19,0.13,2.35,0.23,3.47c-1.63,0.56-3.34,1.24-5.03,2.07
			C142.043,20.172,141.333,19.352,140.573,18.552z M143.973,22.632c1.33-0.64,2.67-1.18,3.97-1.64c0.79,6.92,2.27,11.95,2.48,12.64
			C148.663,30.002,146.663,26.252,143.973,22.632z M13.203,20.992c-1.69-0.83-3.4-1.51-5.03-2.07c0.1-1.12,0.18-2.28,0.23-3.47
			c2.2,0.84,4.58,1.87,6.93,3.1C14.573,19.352,13.863,20.172,13.203,20.992z M16.803,17.052c-2.85-1.53-5.75-2.77-8.35-3.75
			c0.02-0.98,0.01-1.98-0.04-3c2.96,0.94,6.62,2.51,10.21,5.07C17.983,15.932,17.383,16.482,16.803,17.052z M17.373,9.122
			c4.26,2.46,5.08,3.25,5.08,3.25c-0.78,0.55-1.52,1.11-2.24,1.68c-4.23-3.13-8.56-4.91-11.91-5.91c-0.05-0.75-0.12-1.5-0.2-2.25
			C8.103,5.892,13.103,6.662,17.373,9.122z M7.963,20.992c1.3,0.46,2.64,1,3.97,1.64c-2.69,3.62-4.69,7.37-6.45,11
			C5.693,32.942,7.173,27.912,7.963,20.992z M148.933,205.862c0,0-0.42-1.67-2.46-1.67c-2.04,0-7.79-0.83-6.45-4.33
			c2.57-6.74,8.91-10.07,8.91-19.48V205.862z M83.453,213.562c-4.34-2.83,0.16-8.16,0.16-8.16l-5.66,0.08l-5.66-0.08
			c0,0,4.5,5.33,0.16,8.16c-4.07,2.67-9.75,0.67-10.05,0.67c0.3-0.21,5.88-5.93-1.2-11.25c-7.2-5.42-26.83,5.33-36.83,8.5
			c-10,3.16-18.05,3.43-17.01-2.5c0.7-4.03,11.62-0.33,11.9-7.55c0.4-9.87-13.59-21.96-13.59-37.46v-95.05
			c0.84-11.22-1.38-24.48,6.45-35.5c8.08-11.38,14.33-12.66,19.5-13.99c5.17-1.34,6.17-0.84,6.17-0.84s-2.1-2.64-6.03-5.73
			c4.33-1.45,8.85-2.16,12.86-2.12c7.32,0.07,18.62,5.08,22.5,4.52c3.79-0.55,6.96-4.25,9.67-4.53h2.32
			c2.71,0.28,5.88,3.98,9.67,4.53c3.88,0.56,15.18-4.45,22.5-4.52c4.01-0.04,8.53,0.67,12.86,2.12c-3.93,3.09-6.03,5.73-6.03,5.73
			s1-0.5,6.17,0.84c5.17,1.33,11.42,2.61,19.5,13.99c7.83,11.02,5.61,24.28,6.45,35.5v95.05c0,15.5-13.99,27.59-13.59,37.46
			c0.28,7.22,11.2,3.52,11.9,7.55c1.04,5.93-7.01,5.66-17.01,2.5c-10-3.17-29.63-13.92-36.83-8.5c-7.08,5.32-1.5,11.04-1.2,11.25
			C93.203,214.232,87.523,216.232,83.453,213.562z M6.973,205.862v-25.48c0,9.41,6.34,12.74,8.91,19.48
			c1.34,3.5-4.41,4.33-6.45,4.33C7.393,204.192,6.973,205.862,6.973,205.862z"/>
	</g>
</g>
<g id="antepasados">
</g>
<g id="caos_1_">
</g>
<g id="ley">
</g>
<g id="elementos">
</g>
<g id="XMLID_3_">
</g>
<g id="XMLID_4_">
</g>
<g id="XMLID_5_">
</g>
<g id="XMLID_7_">
</g>
<g id="XMLID_8_">
</g>
<g id="XMLID_9_">
</g>
<g id="XMLID_10_">
</g>
<g id="XMLID_101_">
</g>
<g id="XMLID_102_">
</g>
<g id="XMLID_103_">
</g>
<g id="XMLID_104_">
</g>
<g id="XMLID_105_">
</g>
</svg>
