<?xml version="1.0" encoding="utf-8"?>
<!-- Generator: Adobe Illustrator 19.0.0, SVG Export Plug-In . SVG Version: 6.00 Build 0)  -->
<svg version="1.0" id="GRAFICOS" xmlns="http://www.w3.org/2000/svg" xmlns:xlink="http://www.w3.org/1999/xlink" x="0px" y="0px"
	 viewBox="0 0 155.906 294.094" enable-background="new 0 0 155.906 294.094" xml:space="preserve">
<g id="XMLID_2205_">
	<g id="XMLID_4953_">
		<path id="XMLID_4954_" fill="#357C95" d="M77.953,0.004L0,0l0.004,294.093c0,0,0.6-7.092,17.71-7.092h49.61
			c6.632,0,10.594,3.518,10.627,3.547v0.003l0.001-0.001l0.002,0.001v-0.003c0.033-0.029,3.994-3.547,10.627-3.547h49.61
			c17.11,0,17.71,7.092,17.71,7.092L155.906,0L77.953,0.004z M106.168,8.374c0-2.96,0.983-4.83,7.183-4.83
			c11.383,0,14.55,10.66,24.87,10.66c3.54,0,5.6-1.39,7.02-3.57c1.85-2.84,0-7.05,0-7.09h7.09c0,0.27-1.42,5.01-4.41,8.42
			c-1.91,2.19-5.85,3.24-9.7,3.24c-6.8,0-11.16-2.39-15-4.5c-3.1-1.7-5.796-2.873-9.17-2.455c-7.067,0.875-7.893,4.725-7.893,6.625
			L106.168,8.374z M10.664,3.544c0,0.04-1.85,4.25,0,7.09c1.42,2.18,3.48,3.57,7.02,3.57c10.32,0,12.92-10.66,24.303-10.66
			c6.2,0,7.75,1.87,7.75,4.83l0.01,6.5c0-1.9-0.826-5.75-7.893-6.625c-3.374-0.418-6.07,0.755-9.17,2.455c-3.84,2.11-8.2,4.5-15,4.5
			c-3.85,0-7.79-1.05-9.7-3.24c-2.99-3.41-4.41-8.15-4.41-8.42H10.664z M2.834,116.356c0,0,1.94,5.66,5.64,5.66
			c-3.7,0.06-5.64,5.67-5.64,5.67V116.356z M152.361,283.461H3.544V132.526c0-4.7,3.63-10.17,14.17-8.51v-3.54
			c-10.54,1.88-14.17-3.81-14.17-8.51V26.224c0-4.7,3.81-8.51,8.5-8.51h131.817c4.69,0,8.5,3.81,8.5,8.51v85.742
			c0,4.7-3.63,10.39-14.17,8.51v3.54c10.54-1.66,14.17,3.81,14.17,8.51V283.461z M153.071,127.686c0,0-1.94-5.61-5.64-5.67
			c3.7,0,5.64-5.66,5.64-5.66V127.686z"/>
	</g>
</g>
<g id="antepasados">
</g>
<g id="caos_1_">
</g>
<g id="ley">
</g>
<g id="elementos">
</g>
<g id="XMLID_3_">
</g>
<g id="XMLID_4_">
</g>
<g id="XMLID_5_">
</g>
<g id="XMLID_7_">
</g>
<g id="XMLID_8_">
</g>
<g id="XMLID_9_">
</g>
<g id="XMLID_10_">
</g>
<g id="XMLID_245_">
</g>
<g id="XMLID_246_">
</g>
<g id="XMLID_247_">
</g>
<g id="XMLID_248_">
</g>
<g id="XMLID_249_">
</g>
</svg>
