<?xml version="1.0" encoding="utf-8"?>
<!-- Generator: Adobe Illustrator 19.0.0, SVG Export Plug-In . SVG Version: 6.00 Build 0)  -->
<svg version="1.0" id="GRAFICOS" xmlns="http://www.w3.org/2000/svg" xmlns:xlink="http://www.w3.org/1999/xlink" x="0px" y="0px"
	 viewBox="0 0 25.058 25.058" enable-background="new 0 0 25.058 25.058" xml:space="preserve">
<g id="antepasados">
</g>
<g id="caos_1_">
</g>
<g id="ley">
	<g id="XMLID_1017_">
		<g id="XMLID_1029_">
			<path id="XMLID_3_" d="M16.81,15.915c-1.387-0.238-2.822-0.357-4.281-0.357c-1.459,0-2.894,0.119-4.281,0.357
				c0,0,4.035-5.375,4.035-12.954h0.499C12.783,10.54,16.81,15.915,16.81,15.915z"/>
		</g>
	</g>
	<g id="XMLID_1008_">
		<rect id="XMLID_1591_" x="11.762" y="7.802" width="1.533" height="15.841"/>
	</g>
	<g id="XMLID_1006_">
		<path id="XMLID_1583_" d="M12.529,25.049c-6.903,0-12.52-5.616-12.52-12.52S5.626,0.01,12.529,0.01s12.52,5.616,12.52,12.52
			S19.432,25.049,12.529,25.049z M12.529,1.85c-5.889,0-10.68,4.791-10.68,10.68s4.791,10.68,10.68,10.68s10.68-4.791,10.68-10.68
			S18.418,1.85,12.529,1.85z"/>
	</g>
</g>
<g id="elementos">
</g>
<g id="XMLID_4_">
</g>
<g id="XMLID_5_">
</g>
<g id="XMLID_7_">
</g>
<g id="XMLID_8_">
</g>
<g id="XMLID_9_">
</g>
<g id="XMLID_10_">
</g>
<g id="XMLID_297_">
</g>
<g id="XMLID_298_">
</g>
<g id="XMLID_299_">
</g>
<g id="XMLID_300_">
</g>
<g id="XMLID_301_">
</g>
<g id="XMLID_302_">
</g>
</svg>
