<?xml version="1.0" encoding="utf-8"?>
<!-- Generator: Adobe Illustrator 19.0.0, SVG Export Plug-In . SVG Version: 6.00 Build 0)  -->
<svg version="1.0" id="GRAFICOS" xmlns="http://www.w3.org/2000/svg" xmlns:xlink="http://www.w3.org/1999/xlink" x="0px" y="0px"
	 viewBox="0 0 155.906 67.323" enable-background="new 0 0 155.906 67.323" xml:space="preserve">
<g id="XMLID_824_">
	<g id="XMLID_2505_">
		<g id="XMLID_4990_">
			<path id="XMLID_4991_" fill="#357C95" d="M137.203,0.007h-118.5c-10.33,0-18.7,8.37-18.7,18.7v48.616h155.9V18.707
				C155.903,8.377,147.533,0.007,137.203,0.007z M151.543,19.987h-6.95l6.7-2.78C151.463,18.117,151.543,19.037,151.543,19.987z
				 M150.993,15.897l-9.86,4.09h-1.58l10.37-6.92C150.373,13.967,150.743,14.917,150.993,15.897z M149.283,11.887v0.01l-12.13,8.09
				h-0.31l10.58-10.57C148.113,10.177,148.743,10.997,149.283,11.887z M135.923,4.367c0.95,0,1.87,0.08,2.78,0.25l-2.78,6.69V4.367z
				 M135.923,14.777l4.09-9.86c0.98,0.25,1.93,0.62,2.83,1.07l-6.92,10.37V14.777z M135.923,18.747l8.09-12.12h0.01
				c0.89,0.54,1.71,1.17,2.47,1.85l-10.57,10.57V18.747z M19.983,4.367v6.94l-2.78-6.69C18.113,4.447,19.033,4.367,19.983,4.367z
				 M15.893,4.917l4.09,9.86v1.58l-6.92-10.37C13.963,5.537,14.913,5.167,15.893,4.917z M11.883,6.627h0.01l8.09,12.12v0.3
				L9.413,8.477C10.173,7.797,10.993,7.167,11.883,6.627z M6.623,11.887c0.54-0.89,1.17-1.71,1.86-2.47l10.58,10.57h-0.31
				l-12.13-8.09V11.887z M5.983,13.067l10.37,6.92h-1.58l-9.86-4.09C5.163,14.917,5.533,13.967,5.983,13.067z M4.613,17.207
				l6.7,2.78h-6.95C4.363,19.037,4.443,18.117,4.613,17.207z M152.363,63.783H3.543V24.807h148.82V63.783z"/>
		</g>
	</g>
</g>
<g id="antepasados">
</g>
<g id="caos_1_">
</g>
<g id="ley">
</g>
<g id="elementos">
</g>
<g id="XMLID_3_">
</g>
<g id="XMLID_4_">
</g>
<g id="XMLID_5_">
</g>
<g id="XMLID_7_">
</g>
<g id="XMLID_8_">
</g>
<g id="XMLID_9_">
</g>
<g id="XMLID_10_">
</g>
<g id="XMLID_88_">
</g>
<g id="XMLID_89_">
</g>
<g id="XMLID_90_">
</g>
<g id="XMLID_91_">
</g>
<g id="XMLID_92_">
</g>
</svg>
