<?xml version="1.0" encoding="utf-8"?>
<!-- Generator: Adobe Illustrator 19.0.0, SVG Export Plug-In . SVG Version: 6.00 Build 0)  -->
<svg version="1.0" id="GRAFICOS" xmlns="http://www.w3.org/2000/svg" xmlns:xlink="http://www.w3.org/1999/xlink" x="0px" y="0px"
	 viewBox="0 0 155.906 38.835" enable-background="new 0 0 155.906 38.835" xml:space="preserve">
<g id="XMLID_4267_">
	<path id="XMLID_4270_" fill="#357C95" d="M46.315,38.835c0,0,88.64,0,90.26,0h10.58c1.54,0,8.75,0,8.75,0v-17.3
		c0-1.57-0.37-3.12-1.07-4.52c0,0-6.86-3.987-4.29-7.227c2.98-2.38,5.36,2.27,5.36,2.27c0-0.49-0.01-0.98-0.02-1.45l0.02,0.04V0.018
		h-38.711c-13.014,0-13.78,0-13.78,0v5.155c0,0,1.016-3.235,13.82-3.235h24.831c6.84,0,11.792,0.079,12.82,5.99
		c-1.01-0.67-2.84-2.797-6.34-0.88c-4.155,2.275,0.93,6.987,4.61,11.097c1.265,1.61,1.367,2.837,1.367,4.007
		c0,0-1.044,14.156-0.384,14.946l-4.424-0.264c-4.107,0-5.51-3.205-5.51-3.205s-0.973,3.205-5.07,3.205h-87.99L46.315,38.835z"/>
	<path id="XMLID_4269_" fill="#357C95" d="M109.59,38.835c0,0-88.64,0-90.26,0H8.75c-1.54,0-8.75,0-8.75,0v-17.3
		c0-1.57,0.37-3.12,1.07-4.52c0,0,6.86-3.987,4.29-7.227C2.38,7.408,0,12.058,0,12.058c0-0.49,0.01-0.98,0.02-1.45L0,10.648V0.018
		h38.711c13.014,0,13.78,0,13.78,0v5.155c0,0-1.016-3.235-13.82-3.235H13.84C7,1.938,2.047,2.017,1.02,7.928
		c1.01-0.67,2.84-2.797,6.34-0.88c4.155,2.275-0.93,6.987-4.61,11.097c-1.265,1.61-1.367,2.837-1.367,4.007
		c0,0,1.044,14.156,0.384,14.946l4.424-0.264c4.107,0,5.51-3.205,5.51-3.205s0.972,3.205,5.07,3.205h87.99L109.59,38.835z"/>
</g>
<g id="antepasados">
</g>
<g id="caos_1_">
</g>
<g id="ley">
</g>
<g id="elementos">
</g>
<g id="XMLID_3_">
</g>
<g id="XMLID_4_">
</g>
<g id="XMLID_5_">
</g>
<g id="XMLID_7_">
</g>
<g id="XMLID_8_">
</g>
<g id="XMLID_9_">
</g>
<g id="XMLID_10_">
</g>
<g id="XMLID_88_">
</g>
<g id="XMLID_89_">
</g>
<g id="XMLID_90_">
</g>
<g id="XMLID_91_">
</g>
<g id="XMLID_92_">
</g>
</svg>
