<?xml version="1.0" encoding="utf-8"?>
<!-- Generator: Adobe Illustrator 19.0.0, SVG Export Plug-In . SVG Version: 6.00 Build 0)  -->
<svg version="1.0" id="GRAFICOS" xmlns="http://www.w3.org/2000/svg" xmlns:xlink="http://www.w3.org/1999/xlink" x="0px" y="0px"
	 viewBox="0 0 329.528 114.145" enable-background="new 0 0 329.528 114.145" xml:space="preserve">
<g id="XMLID_2361_">
	<g id="XMLID_2366_">
		<path id="XMLID_2371_" fill="#357C95" d="M221.768,0.55c-3.936,1.968-8.276,2.993-12.677,2.993H0v10.63l0.409-0.819
			C2.33,9.513,4.917,5.458,13.833,5.458h0.143C3.608,8.084,0,15.091,0,25.559c0,0,3.52-4.59,6.5-2.21
			c2.57,3.24-5.43,10.71-5.43,10.71c-0.7,1.4-1.07,2.95-1.07,4.52v64.937c0,0,3.81-5.41,6.31-2.91c3.51,3.51-6.31,13.54-6.31,13.54
			s7.21,0,8.75,0h10.58c1.62,0,170.295,0,170.295,0l-4.83-2.567H19.33c-2.25,0-3.4-1.81-3.43-1.87l-1.64-2.73l-1.77,2.66
			c-0.05,0.08-1.31,1.94-3.74,1.94H4.47c0.66-0.79,1.36-1.113,2.02-2.043c3.58-5.04,4.26-8.73,2.01-10.98
			c-1.29-1.29-2.61-1.56-3.49-1.56c-1.12,0-1.563,0.41-2.443,1.02V38.579c0-1.17,0.26-2.33,0.75-3.39
			c3.68-4.11,8.533-11.23,5.183-14.58c-0.79-0.8-1.8-1.22-2.89-1.22c-0.01,0-0.01,0-0.01,0c-1.14,0-2.27,0.48-3.28,1.15
			C6.933,6.818,28.828,6.115,34.755,6.025h174.301c3.52,0,8.367,2.448,11.516,4.022l2.298,1.149V0L221.768,0.55z M220.869,7.394
			c-1.599-0.798-3.53-1.742-5.524-2.506c1.891-0.399,3.744-0.976,5.524-1.724V7.394z"/>
	</g>
	<g id="XMLID_2362_">
		<path id="XMLID_2363_" fill="#357C95" d="M275.132,0v11.197l2.298-1.149c3.149-1.574,7.995-4.022,11.516-4.022h5.828
			c11.502-0.23,27.821,0.793,32.434,14.514c-1.01-0.67-2.14-1.15-3.28-1.15c0,0,0,0-0.01,0c-1.09,0-2.1,0.42-2.89,1.22
			c-3.35,3.35,1.503,10.47,5.183,14.58c0.49,1.06,0.75,2.22,0.75,3.39v59.437c-0.88-0.61-1.323-1.02-2.443-1.02
			c-0.88,0-2.2,0.27-3.49,1.56c-2.25,2.25-1.57,5.94,2.01,10.98c0.66,0.93,1.36,1.253,2.02,2.043h-4.28c-2.43,0-3.69-1.86-3.74-1.94
			l-1.77-2.66l-1.64,2.73c-0.03,0.06-1.18,1.87-3.43,1.87H144.733l-4.83,2.567c0,0,168.675,0,170.295,0h10.58c1.54,0,8.75,0,8.75,0
			s-9.82-10.03-6.31-13.54c2.5-2.5,6.31,2.91,6.31,2.91V38.579c0-1.57-0.37-3.12-1.07-4.52c0,0-8-7.47-5.43-10.71
			c2.98-2.38,6.5,2.21,6.5,2.21c0-10.468-3.608-17.475-13.976-20.101h0.143c8.917,0,11.503,4.054,13.424,7.896l0.409,0.819V3.543
			H288.91c-4.401,0-8.741-1.025-12.677-2.993L275.132,0z M277.132,3.163c1.78,0.748,3.634,1.326,5.524,1.724
			c-1.994,0.764-3.926,1.709-5.524,2.506V3.163z"/>
	</g>
</g>
<g id="antepasados">
</g>
<g id="caos_1_">
</g>
<g id="ley">
</g>
<g id="elementos">
</g>
<g id="XMLID_3_">
</g>
<g id="XMLID_4_">
</g>
<g id="XMLID_5_">
</g>
<g id="XMLID_7_">
</g>
<g id="XMLID_8_">
</g>
<g id="XMLID_9_">
</g>
<g id="XMLID_10_">
</g>
<g id="XMLID_88_">
</g>
<g id="XMLID_89_">
</g>
<g id="XMLID_90_">
</g>
<g id="XMLID_91_">
</g>
<g id="XMLID_92_">
</g>
</svg>
