<?xml version="1.0" encoding="utf-8"?>
<!-- Generator: Adobe Illustrator 19.0.0, SVG Export Plug-In . SVG Version: 6.00 Build 0)  -->
<svg version="1.0" id="GRAFICOS" xmlns="http://www.w3.org/2000/svg" xmlns:xlink="http://www.w3.org/1999/xlink" x="0px" y="0px"
	 viewBox="0 0 155.898 219.687" enable-background="new 0 0 155.898 219.687" xml:space="preserve">
<g id="XMLID_3445_">
	<path id="XMLID_3450_" fill="#357C95" d="M7.79,17.72h70.16V0H26.22c-4.7,0-8.51,3.81-8.51,8.5v5.68c0-6.04-4.06-9.92-10.16-12.07
		C3.87,0.81,0,3.55,0,7.46v205.137c0,3.92,3.17,7.09,7.09,7.09h70.86v-3.54H7.79c-2.35,0-4.25-1.9-4.25-4.25V21.97
		C3.54,19.62,5.44,17.72,7.79,17.72z M3.54,8.46c0,0,5.52,5.82,10.63,6.71c-2.57,0-9.53-0.83-10.63,2.55V8.46z"/>
	<path id="XMLID_3446_" fill="#357C95" d="M152.358,21.97v189.927c0,2.35-1.9,4.25-4.25,4.25h-70.16v3.54h70.86
		c3.92,0,7.09-3.17,7.09-7.09V7.46c0-3.91-3.87-6.65-7.55-5.35c-6.1,2.15-10.16,6.03-10.16,12.07V8.5c0-4.69-3.81-8.5-8.51-8.5
		h-51.73v17.72h70.16C150.458,17.72,152.358,19.62,152.358,21.97z M152.358,17.72c-1.1-3.38-8.06-2.55-10.63-2.55
		c5.11-0.89,10.63-6.71,10.63-6.71V17.72z"/>
</g>
<g id="antepasados">
</g>
<g id="caos_1_">
</g>
<g id="ley">
</g>
<g id="elementos">
</g>
<g id="XMLID_3_">
</g>
<g id="XMLID_4_">
</g>
<g id="XMLID_5_">
</g>
<g id="XMLID_7_">
</g>
<g id="XMLID_8_">
</g>
<g id="XMLID_9_">
</g>
<g id="XMLID_10_">
</g>
<g id="XMLID_88_">
</g>
<g id="XMLID_89_">
</g>
<g id="XMLID_90_">
</g>
<g id="XMLID_91_">
</g>
<g id="XMLID_92_">
</g>
</svg>
