<?xml version="1.0" encoding="utf-8"?>
<!-- Generator: Adobe Illustrator 19.0.0, SVG Export Plug-In . SVG Version: 6.00 Build 0)  -->
<svg version="1.0" id="TEXTO_1_" xmlns="http://www.w3.org/2000/svg" xmlns:xlink="http://www.w3.org/1999/xlink" x="0px" y="0px"
	 viewBox="0 0 652.8 221.1" style="enable-background:new 0 0 652.8 221.1;" xml:space="preserve">
<g id="XMLID_5804_">
</g>
<g id="XMLID_143_">
	<g id="XMLID_2_">
		<path id="XMLID_27_" style="fill:#357C95;" d="M115.2,196.9c0.1-0.2,0.2-0.4,0.2-0.7c0-0.2-0.2-0.4-0.3-0.7h3.9l4.1,10.6
			c0.2,0.5,0.5,0.7,0.7,1h-4.6c0.1-0.2,0.3-0.4,0.3-0.7c0-0.2,0-0.3-0.1-0.5l-0.6-1.6h-3.9l-0.6,1.6c0,0.1-0.1,0.3-0.1,0.5
			c0,0.2,0.1,0.5,0.3,0.7h-3.6c0.3-0.3,0.5-0.6,0.7-1.1L115.2,196.9z M115.6,202.3h2.5l-1.2-3.3L115.6,202.3z"/>
		<path id="XMLID_46_" style="fill:#357C95;" d="M127.2,196.6c-0.2-0.5-0.4-0.8-0.7-1h4.6c-0.1,0.2-0.3,0.4-0.3,0.7
			c0,0.2,0.1,0.4,0.1,0.6l2.1,6.4h0l2-6.4c0-0.1,0.1-0.4,0.1-0.6c0-0.2-0.1-0.5-0.3-0.7h3.6c-0.3,0.3-0.5,0.8-0.7,1.3l-3.5,10.3
			h-3.4L127.2,196.6z"/>
		<path id="XMLID_54_" style="fill:#357C95;" d="M144.6,197.1c0-0.3,0-1-0.4-1.6h8.3v2.9c-0.5-0.4-1.1-0.4-1.4-0.4h-2.9v2h2.3
			c0.3,0,1,0,1.6-0.4v3.3c-0.5-0.4-1.3-0.4-1.6-0.4h-2.3v2.2h2.9c0.3,0,1.2,0,1.7-0.4v2.9h-8.6c0.4-0.5,0.4-1.3,0.4-1.6V197.1z"/>
		<path id="XMLID_69_" style="fill:#357C95;" d="M158.9,207.2c0.4-0.5,0.4-1.3,0.4-1.6v-8.5c0-0.3,0-1-0.4-1.6h4.1l4.7,6.6h0v-5
			c0-0.3,0-1-0.4-1.6h3.3c-0.4,0.5-0.4,1.3-0.4,1.6v10h-2.9l-5.5-7.5h0v5.9c0,0.3,0,1,0.4,1.6H158.9z"/>
		<path id="XMLID_127_" style="fill:#357C95;" d="M179.8,198h-1.7c-0.3,0-1,0-1.6,0.4v-2.9h10.1v2.9c-0.5-0.4-1.3-0.4-1.6-0.4h-1.7
			v7.6c0,0.3,0,1,0.4,1.6h-4.4c0.4-0.5,0.4-1.3,0.4-1.6V198z"/>
		<path id="XMLID_130_" style="fill:#357C95;" d="M202.8,202.7c0,2.2-0.8,4.7-4.8,4.7c-4.3,0-5.1-1.7-5.1-4.7v-5.6
			c0-0.3,0-1-0.4-1.6h4.4c-0.4,0.5-0.4,1.3-0.4,1.6v5.6c0,1.2,0.1,2.2,1.8,2.2c1.6,0,2-0.8,2-2.2v-5.6c0-0.3,0-1-0.4-1.6h3.3
			c-0.4,0.5-0.4,1.3-0.4,1.6V202.7z"/>
		<path id="XMLID_277_" style="fill:#357C95;" d="M210.2,197.1c0-0.3,0-1-0.4-1.6h5.4c2.2,0,5.2,0.1,5.2,3.7c0,1.8-1.4,2.7-2,2.8
			l2,4.1c0.2,0.4,0.4,0.7,0.7,1h-4.1l-1.7-4.1h-1.4v2.6c0,0.3,0,1,0.4,1.6h-4.4c0.4-0.5,0.4-1.3,0.4-1.6V197.1z M213.8,200.6h0.8
			c1.5,0,2.2-0.2,2.2-1.2c0-1.3-0.8-1.4-2.2-1.4h-0.8V200.6z"/>
		<path id="XMLID_311_" style="fill:#357C95;" d="M230.1,196.9c0.1-0.2,0.2-0.4,0.2-0.7c0-0.2-0.2-0.4-0.3-0.7h3.9l4.1,10.6
			c0.2,0.5,0.5,0.7,0.7,1h-4.6c0.1-0.2,0.3-0.4,0.3-0.7c0-0.2,0-0.3-0.1-0.5l-0.6-1.6h-3.9l-0.6,1.6c0,0.1-0.1,0.3-0.1,0.5
			c0,0.2,0.1,0.5,0.3,0.7h-3.6c0.3-0.3,0.5-0.6,0.7-1.1L230.1,196.9z M230.5,202.3h2.5l-1.2-3.3L230.5,202.3z"/>
		<path id="XMLID_315_" style="fill:#357C95;" d="M252.5,199.7c-0.8-0.7-2.2-1.9-4-1.9c-0.6,0-1.4,0.3-1.4,0.8
			c0,0.8,0.8,0.9,2.9,1.6c1.5,0.5,3.1,1.3,3.1,3.4c0,2.9-2.6,3.8-4.8,3.8c-1.8,0-3.3-0.9-3.7-0.9c-0.2,0-0.4,0.1-0.7,0.3v-3.6
			c0.9,0.7,2,1.8,4.2,1.8c0.7,0,1.6-0.2,1.6-0.8c0-0.9-1.3-0.9-3.3-1.7c-1.4-0.5-2.6-1.4-2.6-3.3c0-2,1.6-3.7,4.6-3.7
			c2.1,0,2.9,0.9,3.7,0.9c0.2,0,0.3-0.1,0.5-0.3V199.7z"/>
		<path id="XMLID_318_" style="fill:#357C95;" d="M270,197.1c0-0.3,0-1-0.4-1.6h8.3v2.9c-0.5-0.4-1.1-0.4-1.4-0.4h-2.9v2h2.3
			c0.3,0,1,0,1.6-0.4v3.3c-0.5-0.4-1.3-0.4-1.6-0.4h-2.3v2.2h2.9c0.3,0,1.2,0,1.7-0.4v2.9h-8.6c0.4-0.5,0.4-1.3,0.4-1.6V197.1z"/>
		<path id="XMLID_338_" style="fill:#357C95;" d="M284.4,207.2c0.4-0.5,0.4-1.3,0.4-1.6v-8.5c0-0.3,0-1-0.4-1.6h4.1l4.7,6.6h0v-5
			c0-0.3,0-1-0.4-1.6h3.3c-0.4,0.5-0.4,1.3-0.4,1.6v10h-2.9l-5.5-7.5h0v5.9c0,0.3,0,1,0.4,1.6H284.4z"/>
		<path id="XMLID_340_" style="fill:#357C95;" d="M305.3,198h-1.7c-0.3,0-1,0-1.6,0.4v-2.9h10.1v2.9c-0.5-0.4-1.3-0.4-1.6-0.4h-1.7
			v7.6c0,0.3,0,1,0.4,1.6h-4.4c0.4-0.5,0.4-1.3,0.4-1.6V198z"/>
		<path id="XMLID_342_" style="fill:#357C95;" d="M318.6,197.1c0-0.3,0-1-0.4-1.6h5.4c2.2,0,5.2,0.1,5.2,3.7c0,1.8-1.4,2.7-2,2.8
			l2,4.1c0.2,0.4,0.4,0.7,0.7,1h-4.1l-1.7-4.1h-1.4v2.6c0,0.3,0,1,0.4,1.6h-4.4c0.4-0.5,0.4-1.3,0.4-1.6V197.1z M322.1,200.6h0.8
			c1.5,0,2.2-0.2,2.2-1.2c0-1.3-0.8-1.4-2.2-1.4h-0.8V200.6z"/>
		<path id="XMLID_349_" style="fill:#357C95;" d="M335.6,197.1c0-0.3,0-1-0.4-1.6h8.3v2.9c-0.5-0.4-1.1-0.4-1.4-0.4h-2.9v2h2.3
			c0.3,0,1,0,1.6-0.4v3.3c-0.5-0.4-1.3-0.4-1.6-0.4h-2.3v2.2h2.9c0.3,0,1.2,0,1.7-0.4v2.9h-8.6c0.4-0.5,0.4-1.3,0.4-1.6V197.1z"/>
		<path id="XMLID_351_" style="fill:#357C95;" d="M360.3,207.2c0.4-0.5,0.4-1.3,0.4-1.6v-8.5c0-0.3,0-1-0.4-1.6h4.4
			c-0.4,0.5-0.4,1.3-0.4,1.6v7.6h2.9c0.3,0,1,0,1.6-0.4v2.9H360.3z"/>
		<path id="XMLID_369_" style="fill:#357C95;" d="M377.7,196.9c0.1-0.2,0.2-0.4,0.2-0.7c0-0.2-0.2-0.4-0.3-0.7h3.9l4.1,10.6
			c0.2,0.5,0.5,0.7,0.7,1h-4.6c0.1-0.2,0.3-0.4,0.3-0.7c0-0.2,0-0.3-0.1-0.5l-0.6-1.6h-3.9l-0.6,1.6c0,0.1-0.1,0.3-0.1,0.5
			c0,0.2,0.1,0.5,0.3,0.7h-3.6c0.3-0.3,0.5-0.6,0.7-1.1L377.7,196.9z M378.1,202.3h2.5l-1.2-3.3L378.1,202.3z"/>
		<path id="XMLID_384_" style="fill:#357C95;" d="M401.9,207.2c0.4-0.5,0.4-1.3,0.4-1.6v-8.5c0-0.3,0-1-0.4-1.6h4.4
			c-0.4,0.5-0.4,1.3-0.4,1.6v7.6h2.9c0.3,0,1,0,1.6-0.4v2.9H401.9z"/>
		<path id="XMLID_413_" style="fill:#357C95;" d="M416.5,197.1c0-0.3,0-1-0.4-1.6h8.3v2.9c-0.5-0.4-1.1-0.4-1.4-0.4h-2.9v2h2.3
			c0.3,0,1,0,1.6-0.4v3.3c-0.5-0.4-1.3-0.4-1.6-0.4h-2.3v2.2h2.9c0.3,0,1.2,0,1.7-0.4v2.9h-8.6c0.4-0.5,0.4-1.3,0.4-1.6V197.1z"/>
		<path id="XMLID_557_" style="fill:#357C95;" d="M433.9,203.5l-3.4-6.8c-0.3-0.6-0.5-0.8-0.8-1.1h4.6c-0.1,0.2-0.3,0.3-0.3,0.5
			c0,0.2,0.2,0.7,0.3,0.9l1.7,3.8l1.5-3.2c0.3-0.6,0.6-1.2,0.6-1.5c0-0.1-0.1-0.4-0.2-0.5h3.7c-0.5,0.5-0.8,0.9-1.1,1.7l-3.2,6.3
			v2.1c0,0.3,0,1,0.4,1.6h-4.4c0.4-0.5,0.4-1.3,0.4-1.6V203.5z"/>
		<path id="XMLID_559_" style="fill:#357C95;" d="M460.8,203.5l-3.4-6.8c-0.3-0.6-0.5-0.8-0.8-1.1h4.6c-0.1,0.2-0.3,0.3-0.3,0.5
			c0,0.2,0.2,0.7,0.3,0.9l1.7,3.8l1.5-3.2c0.3-0.6,0.6-1.2,0.6-1.5c0-0.1-0.1-0.4-0.2-0.5h3.7c-0.5,0.5-0.8,0.9-1.1,1.7l-3.2,6.3
			v2.1c0,0.3,0,1,0.4,1.6h-4.4c0.4-0.5,0.4-1.3,0.4-1.6V203.5z"/>
		<path id="XMLID_587_" style="fill:#357C95;" d="M485.1,197.1c0-0.3,0-1-0.4-1.6h8.3v2.9c-0.5-0.4-1.1-0.4-1.4-0.4h-2.9v2h2.3
			c0.3,0,1,0,1.6-0.4v3.3c-0.5-0.4-1.3-0.4-1.6-0.4h-2.3v2.2h2.9c0.3,0,1.2,0,1.7-0.4v2.9h-8.6c0.4-0.5,0.4-1.3,0.4-1.6V197.1z"/>
		<path id="XMLID_623_" style="fill:#357C95;" d="M499.4,207.2c0.4-0.5,0.4-1.3,0.4-1.6v-8.5c0-0.3,0-1-0.4-1.6h4.4
			c-0.4,0.5-0.4,1.3-0.4,1.6v7.6h2.9c0.3,0,1,0,1.6-0.4v2.9H499.4z"/>
		<path id="XMLID_635_" style="fill:#357C95;" d="M532.7,206.7c-0.2-0.1-0.2-0.2-0.4-0.2c-0.3,0-1.2,0.9-3.1,0.9
			c-3.2,0-5.5-2.7-5.5-6s2.6-6,5.5-6c1.5,0,2.1,0.6,2.6,0.6c0.2,0,0.4-0.1,0.6-0.2v3.3c-0.5-0.4-1.2-1.2-2.4-1.2
			c-1.5,0-2.7,1.4-2.7,3.6s1.2,3.6,2.7,3.6c1.2,0,2.2-1,2.8-1.5V206.7z"/>
		<path id="XMLID_742_" style="fill:#357C95;" d="M542,196.9c0.1-0.2,0.2-0.4,0.2-0.7c0-0.2-0.2-0.4-0.3-0.7h3.9l4.1,10.6
			c0.2,0.5,0.5,0.7,0.7,1H546c0.1-0.2,0.3-0.4,0.3-0.7c0-0.2,0-0.3-0.1-0.5l-0.6-1.6h-3.9l-0.6,1.6c0,0.1-0.1,0.3-0.1,0.5
			c0,0.2,0.1,0.5,0.3,0.7h-3.6c0.3-0.3,0.5-0.6,0.7-1.1L542,196.9z M542.4,202.3h2.5l-1.2-3.3L542.4,202.3z"/>
		<path id="XMLID_747_" style="fill:#357C95;" d="M554.9,201.4c0-3.4,2.8-6,6.3-6c3.6,0,6.3,2.7,6.3,6s-2.8,6-6.3,6
			C557.7,207.4,554.9,204.7,554.9,201.4z M561.3,204.9c1.5,0,2.7-1.4,2.7-3.6s-1.2-3.6-2.7-3.6c-1.5,0-2.7,1.4-2.7,3.6
			S559.7,204.9,561.3,204.9z"/>
		<path id="XMLID_750_" style="fill:#357C95;" d="M582.4,199.7c-0.8-0.7-2.2-1.9-4-1.9c-0.6,0-1.4,0.3-1.4,0.8
			c0,0.8,0.8,0.9,2.9,1.6c1.5,0.5,3.1,1.3,3.1,3.4c0,2.9-2.6,3.8-4.8,3.8c-1.8,0-3.3-0.9-3.7-0.9c-0.2,0-0.4,0.1-0.7,0.3v-3.6
			c0.9,0.7,2,1.8,4.2,1.8c0.7,0,1.6-0.2,1.6-0.8c0-0.9-1.3-0.9-3.3-1.7c-1.4-0.5-2.6-1.4-2.6-3.3c0-2,1.6-3.7,4.6-3.7
			c2.1,0,2.9,0.9,3.7,0.9c0.2,0,0.3-0.1,0.5-0.3V199.7z"/>
	</g>
	<g id="XMLID_62_">
		<g id="XMLID_6188_">
			<g id="XMLID_6020_">
				<path id="XMLID_9_" style="fill:#357C95;" d="M249.6,95.3v75.2c0,1.2-0.3,2.4-0.8,3.4c-0.8,1.5-2,2.7-3.6,3.4
					c-0.9,0.4-1.9,0.6-3,0.6h-55.8c1.2-1.1,2.6-2,3.3-4.3c0.1-0.5,0.2-1,0.3-1.7c0-0.4,0-0.8,0-1.2v-68.3c0-4.2-1.6-5.4-3.2-6.7
					c-0.1-0.1-0.3-0.3-0.4-0.4h55.2v15.8c-2.4-2.2-2-4-10-4H207v22.3h22.9c6.6,0,6.4-1.5,8.3-3.5v18.9c-2.4-2.6-3-3.5-8.3-3.5H207
					V166H238c7.9,0,10-1.9,10-4V95.3H249.6z"/>
			</g>
		</g>
		<g id="XMLID_6145_">
			<g id="XMLID_6033_">
				<path id="XMLID_10_" style="fill:#357C95;" d="M424.8,87.5c-0.4-0.5-0.8-1-1.2-1.7c-0.5-0.7-0.9-1.4-1.4-2.3l-16.5-28.7
					c11.8-3.5,17.5-14.1,17.5-20.5c0-19-12.8-25.1-37.6-25.1h-29.8v0.4c0.6,0.5,1.1,0.9,1.6,1.5c0.9,1,1.6,2.5,1.6,5.3v68.3
					c0,0.4,0,0.8-0.1,1.2c0,0.6-0.2,1.2-0.3,1.7c-0.5,1.7-1.5,2.6-2.4,3.4c-0.1,0.1-0.3,0.3-0.4,0.4c-0.2,0.1-0.3,0.3-0.4,0.4h24.2
					c-1.2-1.1-2.6-2-3.3-4.3c-0.1-0.5-0.3-1-0.3-1.7c0-0.4-0.1-0.8-0.1-1.2V58.4h13.5l14.8,27.4l0.9,1.7l1.9,4.3h25.3
					C429.1,91.4,426.4,89.5,424.8,87.5z M386.2,46.5H376V21.1h10c14.4,0,20.2,4.2,20.2,13.5C406.2,42.6,400.5,46.5,386.2,46.5z"/>
			</g>
		</g>
		<g id="XMLID_6134_">
			<path id="XMLID_6_" style="fill:#357C95;" d="M354.2,9.2v77.6c-1,0-2.2,0.2-4.1-3.3c-1.2-2.1-5.6-9.8-5.6-9.8l-10.9-19
				c11.8-3.5,17.5-14.1,17.5-20.5c0-19-12.8-25.1-37.6-25.1h-26.6v82.6h20.6c-1.2-1.1-2.6-2-3.3-4.3c-0.1-0.5-0.3-1-0.3-1.7
				c0-0.4-0.1-0.8-0.1-1.2V58.4h13.5l14.8,27.4l0.9,1.7l2.3,4.3h13c1.2,0,2.3-0.3,3.3-0.8c1-0.5,1.9-1.2,2.6-2.1c0,0,0,0,0-0.1
				c0,0,0.1-0.1,0.1-0.1c0,0,0,0,0,0c0.9-1.2,1.4-2.7,1.4-4.4V9.2H354.2z M314.2,46.5h-10.3V21.1h10c14.4,0,20.2,4.2,20.2,13.5
				C334.1,42.6,328.5,46.5,314.2,46.5z"/>
		</g>
		<g id="XMLID_6125_">
			<path id="XMLID_11_" style="fill:#357C95;" d="M283.8,91.8h-1.6V25c0-2.3-2-4-10-4h-31v22.3h22.9c6.6,0,6.4-1.5,8.3-3.5v18.9
				c-2.4-2.6-3-3.5-8.3-3.5h-22.9v24.7h25.7c7.9,0,7.6-1.8,10-4v15.8h-56.2c1.2-1.1,2.6-2,3.3-4.3c0.1-0.5,0.2-1,0.3-1.7
				c0-0.4,0-0.8,0-1.2V16.3c0-0.4,0-0.8,0-1.2c-0.3-3.6-2-4.6-3.6-5.9h55.7c4.1,0,7.4,3.3,7.4,7.4V91.8z"/>
		</g>
		<g id="XMLID_6114_">
			<path id="XMLID_12_" style="fill:#357C95;" d="M607,129.2c-8-2.7-14.9-5.2-15.9-10.8c-0.1-0.4-0.1-0.9-0.1-1.4
				c0-7.2,5.9-11.5,13.5-11.5c10.4,0,20.2,7.7,24.2,14.1v-17.8c-0.1,0.1-1-1.1-2.9-2.1c-2.9-1.5-10.1-6-21.3-6.1c-0.1,0-0.2,0-0.3,0
				c-17.6,0-30.1,10.2-30.1,24.8c0,29.3,42.8,21,42.8,38.5c0,7.1-6.1,10.9-15.1,10.9c-7.4,0-11.7-2.3-16.2-5.5
				c-0.9-0.6-0.8-0.7-1.6-1.4l2.9,7.6c0.4,1,1.9,5.7,6.5,8.6c2.4,1.5,5.5,2.4,8.4,2.5c0.4,0,0.7,0,1.1,0c8.5,0,15.8-2.1,21.1-6
				c0.7-0.5,1.4-1.1,2.1-1.7c5-4.4,7.8-10.5,7.8-17.8C633.7,137.7,619.1,133.3,607,129.2z"/>
		</g>
		<g id="XMLID_6063_">
			<path id="XMLID_13_" style="fill:#357C95;" d="M211.7,9.2v82.6h-1.6V24.1c0-1.9-2.5-3-6.7-3h-32.6v63.6c0,4.5,2,5.7,3.6,7.1
				h-24.2c1.5-1.5,3.6-2.6,3.6-7.1V21.1h-16.3c-6.2,0-6.3,3.3-8.3,5.1v-17H211.7z"/>
		</g>
		<g id="XMLID_6095_">
			<g id="XMLID_6027_">
				<path id="XMLID_17_" style="fill:#357C95;" d="M190,84.7V38.1c0-4.7-1.9-5.7-3.6-7.1h20.6v53.7c0,0.4,0,0.8,0.1,1.2
					c0,0.6,0.2,1.2,0.3,1.7c0.7,2.3,2.1,3.2,3.3,4.3h-24.2c1.1-1.1,2.6-2,3.2-4.3c0.2-0.5,0.3-1,0.3-1.7C190,85.5,190,85.1,190,84.7
					z"/>
			</g>
		</g>
		<g id="XMLID_6080_">
			<g id="XMLID_6050_">
				<path id="XMLID_18_" style="fill:#357C95;" d="M296.1,134.6v-0.2c8.3-0.8,17.2-4.7,17.2-19.3c0-19.7-24.7-19.7-32.1-19.7h-32
					c0.1,0.1,0.3,0.3,0.4,0.4c1.6,1.3,3.2,2.5,3.2,6.7v68.3c0,2.6-0.7,4.1-1.6,5.2c-0.5,0.6-1,1.1-1.6,1.5c-0.2,0.1-0.3,0.3-0.4,0.4
					h32c13.6,0,37.8-0.9,37.8-22.2C318.9,139.1,305.2,134.9,296.1,134.6z M269.7,107.2h5.3c13.3,0,21.3,1.1,21.3,10.7
					c0,8.5-5.3,11.8-15.2,11.8h-11.4V107.2z M281.1,166h-11.4v-25.6h11.4c9.7,0,20.8,0.6,20.8,13.5C302,165.8,289.3,166,281.1,166z"
					/>
			</g>
		</g>
		<g id="XMLID_6076_">
			<path id="XMLID_15_" style="fill:#357C95;" d="M186.3,102.7v41.6c0,21.6-5.2,35.3-31,35.3c-20.2,0-30.5-6-32.8-25.9
				c-0.1-0.9-0.2-1.9-0.3-2.9c-0.1-1.2-0.1-2.5-0.2-3.9c0-0.9,0-1.8,0-2.7v-16.4c0-5.5-2.5-10-4.6-13.7c-0.1-0.2-0.2-0.3-0.3-0.5
				C110.6,102,99,93.5,84.9,91.2c-2.5-0.4-5-0.6-7.6-0.6c-2.6,0-5.2,0.2-7.6,0.6c-22.3,3.7-38.4,22.8-38.4,45.4
				c0,25.4,20.7,46.1,46.1,46.1h1.2v6.8H76V185c-26.2-0.6-47.3-22.1-47.3-48.4c0-23.8,17-43.9,40.4-47.8c5.2-0.9,10.9-0.9,16.1,0
				c15.3,2.6,27.8,12,34.7,24.9h22.7c-1.6,1.5-3.6,2.6-3.6,7.1v23.5c0,13.8,0.8,23.4,17.9,23.4c16.7,0,17.5-11.2,17.5-23.4v-41.9
				c0-4.4-2.1-5.8-3.6-7.1h8.1C183,95.3,186.3,98.6,186.3,102.7z"/>
		</g>
		<g id="XMLID_6072_">
			<path id="XMLID_19_" style="fill:#357C95;" d="M408.6,95.3l-0.6,1.5l-0.6,1.6l-25.2,64.3l-12.5-21.8
				c11.8-3.5,17.5-14.1,17.5-20.5c0-19-12.8-25.1-37.6-25.1h-30.2c1.7,1.5,3.6,2.5,3.6,7.1v68.3c0,0.4,0,0.8-0.1,1.2
				c0,0.6-0.2,1.2-0.3,1.7c-0.7,2.3-2.1,3.2-3.2,4.3h24.2c-1.2-1.1-2.6-2-3.3-4.3c-0.1-0.5-0.3-1-0.3-1.7c0-0.4-0.1-0.8-0.1-1.2
				v-26.2h13.5l14.8,27.4l0.9,1.7l2.3,4.3c3.8,0,9.4-7.6,11.7-13.5c2.3-5.9,22.9-58.5,22.9-58.5l1.8-4.7l1.3-3.4l0.6-1.6l0.4-1
				H408.6z M350.3,132.6h-10.3v-25.5h10c14.4,0,20.2,4.2,20.2,13.5C370.3,128.7,364.6,132.6,350.3,132.6z"/>
		</g>
		<g id="XMLID_6097_">
			<path id="XMLID_20_" style="fill:#357C95;" d="M452.2,95.3v58.2l-2.1-5.4l-17.9-46.8l-2.3-5.9h-21.4l-0.6,1.5
				c0.2,0.2,0.4,0.4,0.6,0.5c0.3,0.2,0.5,0.4,0.7,0.6l0.6-1.6c0.9,0.8,1.7,1.5,1.7,2.6c0,0.7-0.1,1.5-0.3,2.3
				c-0.5,2.1-1.5,4.2-2.2,5.8l-16.1,41l-7.5,19.1c-0.8,2-1.5,3.5-2.2,4.8c-0.3,0.6-0.7,1.2-1,1.7c-1.3,1.9-2.4,3.1-3.6,4.3h20.8
				c-0.8-0.8-2.8-1.9-2.8-3.7c0-0.2,0-0.3,0-0.5c0-0.5,0.2-1.1,0.3-1.7c0.4-1.6,1.1-3.5,1.7-4.9l5.1-13.6h30.4l0.9,2.3l4.7,12.3
				c0.5,1.3,1.1,2.6,1.5,3.9c0.2,0.6,0.3,1.1,0.4,1.7c0,0.3,0,0.6,0,0.9c0,1.5-1.8,2.7-2.5,3.4h7.1c0.9,0,1.7-0.1,2.4-0.4
				c1.7-0.6,3.1-1.7,4-3.3c0.7-1.1,1-2.4,1-3.7V95.3H452.2z M407.7,142.7l11.3-30.3l11.5,30.3H407.7z"/>
		</g>
		<g id="XMLID_6038_">
			<path id="XMLID_21_" style="fill:#357C95;" d="M470.2,91.8h24.9c-1.4-1-2.5-2-3.8-4.3c-0.3-0.5-0.6-1-0.9-1.7
				c-0.6-1.2-1.2-2.6-1.9-4.5L481.2,62l-17.9-46.8L461,9.2h-21.3c1.4,1.3,2.8,2,2.8,3.6c0,0.7-0.1,1.5-0.3,2.3
				c-0.5,2.1-1.5,4.2-2.2,5.8L424,62l-3.5,9.1l-0.4,0.9l-0.4,1c1.6,5.4,6.4,13.9,12.1,18.8l0.8,0c-2.4-2.7-4.6-5.6-2.8-10.9
				c1.5-4.7,5.1-13.6,5.1-13.6h30.4l5.6,14.6c0.5,1.3,1.1,2.6,1.5,3.9c0.2,0.6,0.3,1.1,0.4,1.7c0,0.3,0,0.6,0,0.9
				C472.7,89.9,470.9,91.1,470.2,91.8z M438.7,56.6L450,26.3l11.5,30.3H438.7z"/>
		</g>
		<g id="XMLID_6100_">
			<path id="XMLID_22_" style="fill:#357C95;" d="M612.2,88.8c-2.2-0.4-4.5-0.6-6.8-0.6v-4.2H603v6.6h1.2c2.6,0,5.2,0.2,7.6,0.6
				c22.3,3.7,38.4,22.8,38.4,45.4c0,25.4-20.7,46.1-46.1,46.1c-4.6,0-8-0.8-13.5-2.9c-5.5-2.1,0,0,0,0c-4-2.4-4-4.2-5.7-7.8
				c-1.6-3.6-1.2-2.6-1.9-4.5l-7.4-19.4l-12.5-32.6l-1.1-2.9l-4.3-11.3l-2.3-5.9h-21.3c0.4,0.4,0.8,0.7,1.2,1
				c0.9,0.8,1.7,1.5,1.7,2.6c0,0.7-0.1,1.5-0.3,2.3c-0.5,2.1-1.5,4.2-2.2,5.8l-5,12.8l-5.6,14.4l-5.4,13.8l-7.5,19.1
				c-0.1,0.3-0.2,0.5-0.3,0.7c-0.7,1.6-1.3,3-1.9,4.1c-0.3,0.6-0.7,1.2-1,1.7c-1,1.4-1.8,2.5-2.7,3.4c-0.3,0.3-0.6,0.6-0.8,0.9H525
				c-0.8-0.8-2.8-1.9-2.8-3.7c0-0.2,0-0.3,0-0.5c0-0.5,0.2-1.1,0.3-1.7c0.4-1.6,1.1-3.5,1.7-4.9l5.1-13.6h30.4l3.4,8.9l2.2,5.7
				c0.5,1.3,1.1,2.6,1.5,3.9c0.2,0.6,0.3,1.1,0.4,1.7c0,0.3,0,0.6,0,0.9c0,1.5-1.8,2.7-2.5,3.4l18.9,0l0,0c5.7,5.4,13,7.2,20.5,7.2
				c26.7,0,48.4-21.7,48.4-48.5C652.6,112.8,635.6,92.7,612.2,88.8z M533.1,142.7l11.3-30.3l11.5,30.3H533.1z"/>
		</g>
		<g id="XMLID_6167_">
			<path id="XMLID_24_" style="fill:#357C95;" d="M534,95.3l-0.6,1.5l-0.6,1.6l-6.1,15.6l-0.8,2l-0.8,2c-7.3-15.4-24-22.5-47.8-22.5
				h-24c0.1,0.1,0.3,0.3,0.4,0.4c1.4,1.2,2.9,2.3,3.1,5.6c0,0.4,0,0.8,0,1.2v68.3c0,0.8-0.1,1.5-0.2,2.1c0,0.1,0,0.3-0.1,0.4
				c-0.1,0.4-0.2,0.7-0.3,1c-0.1,0.3-0.2,0.5-0.3,0.8c0,0,0,0.1-0.1,0.1c-0.1,0.2-0.3,0.5-0.5,0.7c0,0,0,0,0,0
				c-0.2,0.2-0.3,0.4-0.5,0.6c-0.2,0.2-0.4,0.4-0.6,0.6c-0.2,0.2-0.5,0.4-0.7,0.6l-0.3,0.2h24c10.6,0,26.4-1,30.1-10.6l1.5-3.7
				l11.8-30.2l5.3-13.5l0.8-2.1l0.8-2l5.7-14.7l1.3-3.2l0.6-1.6l0.4-1H534z M474,166v-58.8c15,0,38.5,0.9,38.5,29.4
				C512.4,164.2,488.9,166,474,166z"/>
		</g>
		<g id="XMLID_6029_">
			<path id="XMLID_25_" style="fill:#357C95;" d="M541.6,68c0,7.3-2.8,13.4-7.8,17.8c-0.7,0.6-1.4,1.2-2.1,1.7
				c-5.3,3.8-12.6,6-21.1,6c-0.4,0-0.8,0-1.1,0c-2.9-0.1-5-0.2-8.3-1.1c-3.2-0.9-6.1-4.7-7-6.3c0,0,0,0-0.1-0.1
				c-0.3-0.5-0.5-0.9-0.8-1.5c-0.4-0.9-0.9-1.9-1.3-2.9l-2.9-7.6c0,0-23.5-61.3-24-62.7c-0.5-1.4-4.2-2-4.2-2h5.1l25.5,66.7
				c4.5,3.2,10.5,5.7,17.9,5.7c9.1,0,15.1-3.7,15.1-10.9c0-17.4-42.8-9.2-42.8-38.5c0-14.6,12.4-24.8,30.1-24.8c0.1,0,0.2,0,0.3,0
				c11.2,0.1,17.8,5.3,21,5.3c1.7,0,2.3-2.1,3.2-2.7v23.4c-4-6.4-13.8-14.1-24.2-14.1c-7.6,0-13.5,4.3-13.5,11.5
				c0,0.5,0,0.9,0.1,1.4c0.9,5.7,7.9,8.2,15.9,10.8C527,47.1,541.6,51.6,541.6,68z"/>
		</g>
		<g id="XMLID_6015_">
			<path id="XMLID_26_" style="fill:#357C95;" d="M121.2,163.1c-1.7,1.5-2.8,2.6-7,2.8c-0.6,0-1.3,0-2,0h-6.6v-0.2
				c7.4-5.2,11.8-13.1,13.2-22.4c0.3-2.2,0.5-4.4,0.5-6.7c0-2.3-0.2-4.5-0.5-6.6c-3-21.3-20.6-36.5-41.5-36.5
				c-24.2,0-42.3,19.6-42.3,43.1c0,23.9,18.5,42.9,42.3,42.9c2.7,0,5.1-0.2,7.5-0.6c2.4-0.2,4.2-0.7,6.8-1.1c21.5,0,40.5,0,40.5,0
				C125.7,173.8,123.3,169.9,121.2,163.1z M77.4,167.7c-14.9,0-25.3-13.2-25.3-31c0-17,9.8-31.2,25.3-31.2c15.2,0,25,14.4,25,31.2
				C102.4,152.9,92.7,167.7,77.4,167.7z"/>
		</g>
		<g id="XMLID_5282_">
			<g id="XMLID_6180_">
				<path id="XMLID_31_" style="fill:#357C95;" d="M603.3,84.7"/>
			</g>
			<g id="XMLID_6010_">
				<path id="XMLID_297_" style="fill:#357C95;" d="M614.9,86.1c-3.5-0.6-7.1-0.9-10.7-0.9c-3.7,0-7.3,0.3-10.7,0.9
					c0,0,10.1-13.5,10.1-32.5h1.3C604.8,72.6,614.9,86.1,614.9,86.1z"/>
			</g>
		</g>
		<g id="XMLID_1263_">
			<g id="XMLID_1009_">
				<g id="XMLID_6009_">
					<path id="XMLID_294_" style="fill:#357C95;" d="M85.8,85.5c-2.8-0.5-5.7-0.7-8.6-0.7c-2.9,0-5.8,0.2-8.6,0.7
						c0,0,8.1-10.8,8.1-25.9h1C77.7,74.8,85.8,85.5,85.8,85.5z"/>
				</g>
				<g id="XMLID_6008_">
					<path id="XMLID_200_" style="fill:#357C95;" d="M47.2,94.4c-2.3,1.6-4.5,3.5-6.6,5.6c-2.1,2.1-3.9,4.3-5.6,6.6
						c0,0-1.9-13.3-12.6-24.1l0.7-0.7C33.9,92.5,47.2,94.4,47.2,94.4z"/>
				</g>
				<g id="XMLID_6007_">
					<path id="XMLID_145_" style="fill:#357C95;" d="M26.2,128c-0.5,2.8-0.7,5.7-0.7,8.6c0,2.9,0.2,5.8,0.7,8.6
						c0,0-10.8-8.1-25.9-8.1v-1C15.4,136.1,26.2,128,26.2,128z"/>
				</g>
				<g id="XMLID_6006_">
					<path id="XMLID_138_" style="fill:#357C95;" d="M35,166.6c1.6,2.3,3.5,4.5,5.6,6.6c2.1,2.1,4.3,3.9,6.6,5.6
						c0,0-13.3,1.9-24.1,12.6l-0.7-0.7C33.1,180,35,166.6,35,166.6z"/>
				</g>
				<g id="XMLID_6002_">
					<path id="XMLID_81_" style="fill:#357C95;" d="M68.6,187.7c2.8,0.5,5.7,0.7,8.6,0.7c2.9,0,5.8-0.2,8.6-0.7
						c0,0-8.1,10.8-8.1,25.9h-1C76.7,198.4,68.6,187.7,68.6,187.7z"/>
				</g>
				<g id="XMLID_6001_">
					<path id="XMLID_71_" style="fill:#357C95;" d="M119.4,106.6c-1.6-2.3-3.5-4.5-5.6-6.6c-2.1-2.1-4.3-3.9-6.6-5.6
						c0,0,13.3-1.9,24.1-12.6l0.7,0.7C121.3,93.2,119.4,106.6,119.4,106.6z"/>
				</g>
			</g>
		</g>
	</g>
</g>
</svg>
