<?xml version="1.0" encoding="UTF-8" standalone="no"?>
<!-- Created with Inkscape (http://www.inkscape.org/) -->

<svg
   xmlns:dc="http://purl.org/dc/elements/1.1/"
   xmlns:cc="http://creativecommons.org/ns#"
   xmlns:rdf="http://www.w3.org/1999/02/22-rdf-syntax-ns#"
   xmlns:svg="http://www.w3.org/2000/svg"
   xmlns="http://www.w3.org/2000/svg"
   xmlns:sodipodi="http://sodipodi.sourceforge.net/DTD/sodipodi-0.dtd"
   xmlns:inkscape="http://www.inkscape.org/namespaces/inkscape"
   width="210mm"
   height="297mm"
   viewBox="0 0 210 297"
   version="1.1"
   id="svg8"
   inkscape:version="0.92.2 (5c3e80d, 2017-08-06)"
   sodipodi:docname="agressao.svg">
  <defs
     id="defs2" />
  <sodipodi:namedview
     id="base"
     pagecolor="#ffffff"
     bordercolor="#666666"
     borderopacity="1.0"
     inkscape:pageopacity="0.0"
     inkscape:pageshadow="2"
     inkscape:zoom="0.35"
     inkscape:cx="-247.14286"
     inkscape:cy="560"
     inkscape:document-units="mm"
     inkscape:current-layer="layer1"
     showgrid="false"
     inkscape:window-width="1842"
     inkscape:window-height="1051"
     inkscape:window-x="69"
     inkscape:window-y="-9"
     inkscape:window-maximized="1" />
  <metadata
     id="metadata5">
    <rdf:RDF>
      <cc:Work
         rdf:about="">
        <dc:format>image/svg+xml</dc:format>
        <dc:type
           rdf:resource="http://purl.org/dc/dcmitype/StillImage" />
        <dc:title></dc:title>
      </cc:Work>
    </rdf:RDF>
  </metadata>
  <g
     inkscape:label="Camada 1"
     inkscape:groupmode="layer"
     id="layer1">
    <path
       style="fill:#000000;stroke-width:1"
       d="M 3.0344483,296.92184 C 2.5120302,296.69514 1.7782229,295.81953 1.4945807,295.0844 1.392445,294.81968 1.2413881,294.12462 1.1588991,293.5398 1.0382246,292.68427 0.90999701,292.2663 0.50264699,291.40072 0.02092424,290.37709 -0.00343508,290.28085 2.9561997e-4,289.41582 0.00489988,288.34789 0.26672256,287.6776 0.87514612,287.17608 c 0.96622588,-0.79644 2.95180398,-0.70551 4.71158658,0.21579 0.7428004,0.38887 0.9568083,0.45301 1.4874797,0.44579 0.3409185,-0.005 0.798174,-0.0726 1.0161241,-0.15098 3.3686725,-1.21189 8.9467085,-3.35458 8.8840095,-3.41261 -0.141315,-0.1308 -8.3973482,-3.48267 -8.9331215,-3.62676 -0.7192447,-0.19344 -1.2263701,-0.0914 -2.0680215,0.41626 -0.4032199,0.24319 -0.9269865,0.49877 -1.163926,0.56795 -0.5737562,0.16753 -2.3650066,0.16566 -2.8497842,-0.003 -0.9006565,-0.31328 -1.48537079,-1.30845 -1.48425227,-2.52615 7.6805e-4,-0.85557 0.14439467,-1.33655 0.54932777,-1.8398 0.5372342,-0.66769 0.6551824,-1.05796 0.6745979,-2.23215 0.021748,-1.31538 0.2294688,-1.84366 1.0430063,-2.65265 0.8058735,-0.80137 1.2108652,-0.96732 2.2142023,-0.90732 1.0375025,0.062 1.8162065,0.42087 2.592371,1.19457 0.6838186,0.68164 1.4587975,1.27823 2.0598729,1.58571 0.2411427,0.12336 4.0083353,1.62898 8.3715383,3.34581 l 7.933097,3.12153 7.815304,-3.07831 c 4.298413,-1.69307 8.164522,-3.26118 8.591348,-3.48469 0.429841,-0.22509 1.133202,-0.73661 1.576625,-1.14662 0.871822,-0.80611 1.59744,-1.19825 2.480706,-1.34062 1.133723,-0.18273 2.141979,0.1602 3.016788,1.02607 0.616655,0.61036 0.796666,1.1026 0.795793,2.17609 -8.08e-4,0.9814 0.258506,1.89219 0.71558,2.51342 0.351278,0.47746 0.479591,0.9617 0.478924,1.80745 -0.0016,1.93143 -0.806073,2.78598 -2.613885,2.77627 -0.898445,-0.005 -2.198702,-0.35836 -2.893666,-0.7868 -0.176474,-0.1088 -0.543779,-0.25384 -0.816227,-0.32234 -0.767408,-0.19292 -2.158666,0.21713 -6.401031,1.88658 -2.030648,0.7991 -3.748582,1.48395 -3.817626,1.5219 -0.113219,0.0622 7.397208,2.99786 8.684105,3.39441 0.292906,0.0903 0.85302,0.17063 1.244698,0.1786 0.643727,0.0131 0.772173,-0.0226 1.336933,-0.37105 1.051582,-0.64889 1.848301,-0.86218 3.031256,-0.81151 1.114906,0.0478 1.459134,0.17394 2.00909,0.73644 0.44939,0.45965 0.681636,1.20328 0.692591,2.21762 0.0092,0.85193 -0.01589,0.93375 -0.597082,1.9465 -0.152733,0.26615 -0.446892,1.11942 -0.653688,1.89617 -0.466028,1.75044 -0.874995,2.59163 -1.469288,3.02214 -0.604892,0.43818 -1.16837,0.5718 -2.06403,0.48946 -0.980384,-0.0901 -1.660739,-0.41544 -2.572524,-1.23008 -1.367311,-1.22162 -2.123727,-1.63508 -5.288429,-2.89069 -4.600277,-1.82519 -13.15645,-5.13996 -13.267408,-5.13996 -0.166859,0 -15.287483,5.96764 -16.1371895,6.36885 -0.9587641,0.4527 -2.2205898,1.27735 -2.3637116,1.54478 -0.2055702,0.38411 -1.3622507,1.04686 -2.1330078,1.22217 -0.7534622,0.17137 -1.9529496,0.21463 -2.2597538,0.0815 z m 1.7831378,-2.10265 c 0.2083183,-0.087 0.6014893,-0.35431 0.8737138,-0.59393 1.3476291,-1.18624 2.5213522,-1.76328 7.6867301,-3.77909 6.965214,-2.71821 9.77094,-3.84253 9.77094,-3.91547 0,-0.0392 -0.700452,-0.35014 -1.556559,-0.69102 l -1.556558,-0.61978 -0.502313,0.18917 c -0.276273,0.10403 -2.726933,1.07051 -5.445913,2.14772 -2.718981,1.0772 -5.2286598,2.03241 -5.5770656,2.1227 -0.7860008,0.20367 -1.9217358,0.20905 -2.6596756,0.0126 -0.3078495,-0.082 -0.9248429,-0.32942 -1.3710967,-0.54992 -0.891836,-0.44066 -1.7537518,-0.59443 -2.032989,-0.36268 -0.09242,0.0767 -0.2426845,0.28381 -0.3339211,0.46024 -0.1619002,0.31308 -0.1525809,0.34667 0.3879632,1.3982 0.4277437,0.8321 0.5784591,1.25749 0.6619393,1.86832 0.05945,0.43499 0.079743,0.90385 0.045095,1.0419 -0.068655,0.27354 0.1675094,0.93427 0.4425769,1.23821 0.2103467,0.23243 0.6592016,0.24506 1.1671327,0.0328 z m 43.3433749,-0.0404 c 0.137469,-0.13747 0.222148,-0.43779 0.275176,-0.97595 0.146431,-1.48603 0.69076,-3.08907 1.259732,-3.70988 0.28299,-0.30877 0.176991,-0.79448 -0.252196,-1.15562 -0.512475,-0.43122 -1.014978,-0.37032 -2.302234,0.279 -1.026867,0.51798 -1.145729,0.55224 -2.085904,0.60135 -0.710895,0.0371 -1.187979,0.003 -1.662566,-0.1185 -0.58542,-0.15004 -31.116011,-12.16088 -34.0502312,-13.39547 -1.3846277,-0.5826 -2.502001,-1.26006 -3.3060364,-2.00445 -0.3339648,-0.3092 -0.7685556,-0.64032 -0.9657569,-0.73582 -0.3427546,-0.166 -0.3712836,-0.16343 -0.647677,0.0584 -0.423006,0.33949 -0.645321,0.86492 -0.8023093,1.89622 -0.1633542,1.07312 -0.4628526,1.92862 -0.9020807,2.57676 -0.3784859,0.5585 -0.3941088,0.86078 -0.073787,1.42764 0.234373,0.41477 0.2608921,0.42882 0.8691205,0.46035 0.5569871,0.0289 0.6946556,-0.009 1.2271142,-0.33482 0.8248827,-0.50526 1.5861984,-0.87874 2.1112825,-1.03576 0.5287323,-0.1581 1.4997241,-0.0201 2.6013345,0.36966 2.2660038,0.80177 33.7188838,13.32764 34.5927028,13.77628 0.666716,0.3423 1.299238,0.7686 1.711272,1.15333 0.359492,0.33567 0.822077,0.71264 1.027967,0.8377 0.468458,0.28454 1.106393,0.29828 1.375077,0.0296 z m -4.508177,-16.03291 c 0.827599,-0.0675 2.494369,0.29524 3.361575,0.7315 1.138501,0.57275 2.12452,0.67011 2.12452,0.20979 0,-0.11306 0.04813,-0.2353 0.106953,-0.27166 0.208242,-0.1287 0.115494,-0.97929 -0.15916,-1.45971 -0.364566,-0.63766 -0.660217,-1.57036 -0.852439,-2.68917 -0.262593,-1.52839 -0.595421,-1.78594 -1.700827,-1.31614 -0.449225,0.19093 -0.892487,0.50138 -1.357085,0.95048 -0.778265,0.75231 -1.709894,1.27922 -3.33561,1.88656 -1.661796,0.62083 -12.735941,4.93581 -12.893286,5.02381 -0.08198,0.0458 0.518704,0.33773 1.48743,0.72278 l 1.624944,0.64587 5.464601,-2.19 c 4.468992,-1.791 5.585539,-2.19986 6.128384,-2.24411 z m -21.492754,0.12628 c -1.487566,-0.26898 -2.659583,-0.88429 -3.539472,-1.85822 -0.809378,-0.89589 -1.10042,-1.82778 -1.237451,-3.96221 -0.06561,-1.02206 -0.174725,-1.79004 -0.319998,-2.25238 -0.257537,-0.81961 -0.991626,-2.08 -1.92159,-3.29925 -2.595831,-3.40334 -3.68988,-6.34479 -3.831582,-10.30152 -0.22636,-6.32062 2.204562,-10.10586 7.72129,-12.02299 1.907988,-0.66305 3.819276,-0.98278 6.417262,-1.0735 6.708343,-0.23426 11.368092,1.7438 13.443339,5.70666 0.987103,1.88496 1.369818,3.69042 1.36749,6.45114 -0.0036,4.21438 -1.033594,7.29194 -3.531241,10.55062 -0.2939,0.38345 -0.891375,1.29804 -1.327716,2.03241 -0.936254,1.57571 -1.097019,2.14313 -1.238566,4.37139 -0.139785,2.20056 -0.558963,3.31516 -1.562546,4.15485 -0.900195,0.75319 -2.798808,1.38085 -4.731275,1.5641 -1.606223,0.15232 -4.711508,0.11908 -5.707944,-0.0611 z m 6.613887,-2.77694 c 0.520836,-0.0908 1.222013,-0.28857 1.558173,-0.43943 0.838509,-0.3763 0.958915,-0.65466 1.080166,-2.49711 0.05226,-0.79414 0.184566,-1.8925 0.294009,-2.4408 0.240679,-1.20577 0.765039,-2.18521 2.756654,-5.14905 1.465978,-2.18161 1.871553,-2.92172 2.36032,-4.30718 0.590444,-1.67366 0.709448,-2.47958 0.706978,-4.78785 -0.0024,-2.41838 -0.182137,-3.38751 -0.901598,-4.86643 -1.493955,-3.07094 -4.464046,-4.63297 -9.458158,-4.97421 -6.545532,-0.44725 -11.450232,1.9225 -12.875571,6.22095 -0.97602,2.94342 -0.585801,6.70441 1.02585,9.88733 0.352558,0.69629 1.248215,2.05312 2.307499,3.49562 0.834616,1.13656 1.593189,2.57576 1.816108,3.4456 0.09045,0.35295 0.311425,1.484 0.491049,2.51343 0.408098,2.33883 0.557132,2.79839 1.03533,3.19256 0.384894,0.31726 1.196324,0.60714 2.124767,0.75905 0.982437,0.16075 4.650075,0.12685 5.678424,-0.0525 z m -6.692383,-2.11133 c -0.455594,-0.23052 -0.533787,-0.54773 -0.532954,-2.16214 6.46e-4,-1.23968 0.03562,-1.5741 0.203239,-1.94329 0.340339,-0.74958 0.974402,-0.90238 1.512332,-0.36445 0.263439,0.26343 0.312636,0.39808 0.312636,0.85563 v 0.543 h 0.588249 c 0.583692,0 0.588249,-0.002 0.588249,-0.3243 0,-0.44972 0.250471,-1.00467 0.547272,-1.21256 0.341596,-0.23926 0.864931,-0.2187 1.203051,0.0473 0.247817,0.19493 0.28181,0.29815 0.28181,0.85564 v 0.63396 h 0.588249 c 0.583692,0 0.588249,-0.002 0.588249,-0.3243 0,-0.44972 0.250471,-1.00467 0.547272,-1.21256 0.33403,-0.23397 0.869521,-0.22041 1.178888,0.0298 0.246544,0.19943 0.253282,0.25106 0.285832,2.19083 l 0.03335,1.98659 -0.269121,0.26911 c -0.593896,0.5939 -1.776204,0.0934 -1.776204,-0.75197 0,-0.11706 -0.14513,-0.1554 -0.588248,-0.1554 h -0.58825 v 0.48394 c 0,0.42107 -0.03564,0.49749 -0.274348,0.58825 -0.557586,0.21199 -1.006273,0.12853 -1.39414,-0.25934 -0.200004,-0.2 -0.363645,-0.46471 -0.363645,-0.58825 0,-0.20094 -0.06197,-0.2246 -0.588249,-0.2246 h -0.588249 v 0.36657 c 0,0.65963 -0.805091,1.02175 -1.495253,0.67255 z m 2.564851,-7.35706 c -0.403795,-0.16943 -0.729788,-0.51826 -0.805201,-0.86161 -0.09039,-0.41154 0.197292,-1.24655 0.662429,-1.92274 0.220422,-0.32044 0.42589,-0.79259 0.499925,-1.14881 0.166718,-0.80213 0.224411,-0.87215 0.718649,-0.87215 0.463557,0 0.849323,0.28554 0.849323,0.62866 0,0.39495 0.336765,0.99481 0.906271,1.61429 0.935687,1.01779 1.039543,1.95164 0.267483,2.40514 -0.306656,0.18013 -0.586549,0.22274 -1.601572,0.24383 -0.680606,0.0141 -1.349379,-0.0245 -1.497307,-0.0866 z m -5.277864,-5.56882 c -0.946797,-0.14124 -1.963996,-1.02977 -2.261427,-1.97538 -0.145172,-0.46155 -0.173565,-0.89744 -0.144358,-2.21627 l 0.03636,-1.64172 0.402326,-0.60562 c 0.671279,-1.01047 1.560308,-1.53954 2.759597,-1.64225 0.567643,-0.0486 0.797554,-0.0178 1.201454,0.16082 1.401482,0.61995 2.125836,1.82025 1.626067,2.6945 -0.105542,0.18463 -0.154025,0.62201 -0.156641,1.41314 -0.0045,1.3589 -0.250117,2.16746 -0.837304,2.7563 -0.204333,0.20491 -0.417247,0.50376 -0.473143,0.6641 -0.0559,0.16034 -0.205878,0.32462 -0.333295,0.36506 -0.32962,0.10462 -1.212587,0.11787 -1.819634,0.0273 z m 11.033449,0.004 c -0.833423,-0.12644 -1.804612,-0.9206 -2.192878,-1.79317 -0.262641,-0.59024 -0.32591,-3.11079 -0.09778,-3.89551 0.225654,-0.77623 1.022512,-1.66426 1.861906,-2.07493 0.510362,-0.2497 0.745656,-0.2976 1.464215,-0.29809 0.99729,-8.1e-4 1.301061,0.12865 2.082346,0.88657 0.653575,0.63403 0.810961,1.12405 0.579757,1.80504 -0.184768,0.54422 -0.158303,2.25394 0.04606,2.97485 0.177452,0.62601 0.05326,1.08944 -0.418353,1.56105 -0.614598,0.6146 -1.139027,0.83977 -2.043972,0.87761 -0.429057,0.0179 -1.00564,-0.002 -1.281294,-0.0434 z"
       id="path878"
       inkscape:connector-curvature="0" />
  </g>
</svg>
