<?xml version="1.0" encoding="UTF-8" standalone="no"?>
<!-- Created with Inkscape (http://www.inkscape.org/) -->

<svg
   xmlns:dc="http://purl.org/dc/elements/1.1/"
   xmlns:cc="http://creativecommons.org/ns#"
   xmlns:rdf="http://www.w3.org/1999/02/22-rdf-syntax-ns#"
   xmlns:svg="http://www.w3.org/2000/svg"
   xmlns="http://www.w3.org/2000/svg"
   xmlns:sodipodi="http://sodipodi.sourceforge.net/DTD/sodipodi-0.dtd"
   xmlns:inkscape="http://www.inkscape.org/namespaces/inkscape"
   width="210mm"
   height="297mm"
   viewBox="0 0 210 297"
   version="1.1"
   id="svg8"
   inkscape:version="0.92.2 (5c3e80d, 2017-08-06)"
   sodipodi:docname="armadura.svg"
   inkscape:export-filename="C:\Users\fabio\Documents\GitHub\roll20-character-sheets\Tagmar\icons\suporte.png"
   inkscape:export-xdpi="72"
   inkscape:export-ydpi="72">
  <defs
     id="defs2" />
  <sodipodi:namedview
     id="base"
     pagecolor="#ffffff"
     bordercolor="#666666"
     borderopacity="1.0"
     inkscape:pageopacity="0.0"
     inkscape:pageshadow="2"
     inkscape:zoom="0.35"
     inkscape:cx="-247.14286"
     inkscape:cy="560"
     inkscape:document-units="mm"
     inkscape:current-layer="layer1"
     showgrid="false"
     inkscape:window-width="1842"
     inkscape:window-height="1051"
     inkscape:window-x="69"
     inkscape:window-y="-9"
     inkscape:window-maximized="1" />
  <metadata
     id="metadata5">
    <rdf:RDF>
      <cc:Work
         rdf:about="">
        <dc:format>image/svg+xml</dc:format>
        <dc:type
           rdf:resource="http://purl.org/dc/dcmitype/StillImage" />
        <dc:title></dc:title>
      </cc:Work>
    </rdf:RDF>
  </metadata>
  <g
     inkscape:label="Camada 1"
     inkscape:groupmode="layer"
     id="layer1">
    <path
       style="fill:#000000;stroke-width:1"
       d="m 15.698589,296.70935 c -0.05414,-0.15986 -0.686741,-2.54031 -1.405875,-5.28989 -1.351292,-5.16661 -3.51011,-12.81784 -4.7481646,-16.82836 -0.8380834,-2.71484 -0.8628399,-3.14242 -0.2286792,-3.94863 0.5676336,-0.72162 1.2576178,-3.24845 1.0411098,-3.81267 -0.118299,-0.30828 -0.290803,-0.1561 -0.7879201,0.69509 -0.837565,1.43409 -7.0961583,6.22285 -8.1328739,6.22285 -1.21364972,0 -1.436212364775,-0.54341 -1.43598387006,-3.50615 C 3.7789511e-4,268.02384 0.11453737,267.16409 0.69248839,265.02813 1.502177,262.03569 1.4913323,262.1216 1.0595388,262.1216 0.58147511,262.1216 0,261.20132 0,260.4447 c 0,-1.92431 1.9690268,-4.94804 4.0561767,-6.22887 2.4297161,-1.49105 2.792513,-1.89814 2.7214511,-3.05374 -0.061518,-1.00003 -0.042623,-1.02844 1.172257,-1.76212 4.7017442,-2.8395 13.1665072,-5.36166 14.0770232,-4.19439 0.416608,0.53408 1.949456,7.19751 1.805978,7.85076 -0.127869,0.5822 -0.06143,0.64918 0.915693,0.92275 1.13293,0.3172 3.106518,0.22592 4.142363,-0.19159 0.540478,-0.21784 0.638775,-0.39355 0.635163,-1.13544 -0.0062,-1.30917 0.966972,-7.10713 1.255007,-7.47578 0.356179,-0.45588 2.765946,-0.2078 5.376164,0.55345 3.467742,1.01136 8.905678,3.33449 9.940338,4.24659 0.442735,0.39027 0.545504,1.45016 0.176415,1.81926 -0.152327,0.15233 0.3701,0.66004 1.540318,1.49695 2.790351,1.99558 3.88601,3.39496 4.772542,6.09547 0.425325,1.2956 0.429579,1.4181 0.06846,1.96927 -0.211806,0.32326 -0.568249,0.63563 -0.792103,0.69416 -0.378317,0.0989 -0.369924,0.19944 0.118984,1.42531 1.028727,2.57941 1.275712,8.85396 0.388282,9.86408 -0.793025,0.90265 -1.6192,0.53851 -4.896377,-2.15811 -1.704755,-1.40276 -3.221969,-2.5515 -3.37158,-2.55275 -0.149611,-8.7e-4 -0.502811,-0.39363 -0.784897,-0.87196 l -0.512883,-0.86968 -0.01028,1.17629 c -0.0079,0.9525 0.149647,1.43912 0.830394,2.55775 l 0.840685,1.38145 -0.347646,1.27888 c -0.191206,0.70338 -1.136647,3.99939 -2.100992,7.32447 -0.964335,3.32507 -2.293498,8.13828 -2.953689,10.69604 -0.660192,2.55775 -1.294115,4.88588 -1.408723,5.17363 L 37.446153,297 H 26.621568 c -8.452195,0 -10.846143,-0.0637 -10.922944,-0.29065 z m 19.761119,-2.73214 c 0.09484,-0.15346 -2.865367,-0.23252 -8.705877,-0.23252 -5.744709,0 -8.849583,0.0815 -8.849583,0.23252 0,0.15088 3.05697,0.23252 8.705869,0.23252 5.553107,0 8.757921,-0.0842 8.849591,-0.23252 z m 0.68312,-3.31345 c 0.990657,-3.30124 1.817825,-6.16188 1.842784,-6.373 0.0493,-0.41678 -10.635208,-7.2877 -11.3326,-7.2877 -0.370724,0 -2.622917,1.31754 -6.007908,3.51466 -2.978183,1.93306 -5.458018,3.55445 -5.510748,3.60309 -0.05273,0.0487 0.229989,1.21371 0.628273,2.58905 0.398284,1.37535 0.793131,2.89302 0.877455,3.37259 l 0.153302,0.87197 H 26.4245 c 7.503353,0 9.650378,-0.0643 9.718328,-0.29066 z M 18.17367,278.4941 c 2.089848,-1.22613 4.04774,-2.38778 4.350873,-2.58145 l 0.551156,-0.35212 -0.470479,-0.47048 -0.470489,-0.47049 -4.082383,2.52875 c -3.774302,2.33792 -4.44598,2.92008 -3.945972,3.42009 0.08525,0.0853 0.180344,0.15502 0.211296,0.15502 0.03093,0 1.766159,-1.0032 3.855998,-2.22932 z m 20.773878,1.40639 c 0,-0.31056 -1.13329,-1.15085 -3.952888,-2.93093 -2.174083,-1.37255 -4.014564,-2.502 -4.08995,-2.5099 -0.0754,-0.008 -0.254974,0.24441 -0.399075,0.56068 -0.255791,0.56139 -0.180862,0.62271 3.159862,2.58567 1.882024,1.10584 3.735775,2.20547 4.119435,2.4436 0.812826,0.5045 1.162616,0.45964 1.162616,-0.14912 z m -20.328392,-6.76998 c 1.141445,-0.70942 2.075364,-1.37417 2.075364,-1.4772 0,-0.26582 -4.651335,-5.81134 -4.874293,-5.81134 -0.101346,0 -0.323812,0.16814 -0.494375,0.37365 -0.232713,0.28041 -0.553212,0.34034 -1.284201,0.24015 l -0.974082,-0.13351 0.117288,0.87448 c 0.118712,0.88505 0.0092,1.38202 -0.848181,3.85114 l -0.475507,1.36928 0.51146,2.1484 0.511459,2.14841 1.829856,-1.1468 c 1.006413,-0.63073 2.763766,-1.72723 3.905212,-2.43666 z m 22.207164,1.48919 0.701294,-2.15084 -0.766863,-1.26858 c -0.68777,-1.13777 -0.766855,-1.44969 -0.766855,-3.02453 v -1.75594 l -1.104482,-0.004 c -0.607462,-0.003 -1.270659,-0.0847 -1.473773,-0.1831 -0.279704,-0.13554 -0.995596,0.5095 -2.951203,2.65913 l -2.58192,2.83808 3.997559,2.51239 c 2.198655,1.38181 4.053224,2.51598 4.121263,2.52038 0.06802,0.004 0.439272,-0.95989 0.82498,-2.14285 z m -13.238844,-0.95809 c 0.487925,-0.4197 0.640779,-0.75964 0.640779,-1.42509 0,-2.23134 -3.296704,-2.39414 -3.72362,-0.18389 -0.120646,0.62465 -0.02883,0.86167 0.562721,1.45327 0.855914,0.85591 1.649107,0.90492 2.52012,0.15571 z m -2.229704,-0.53171 c -0.747582,-0.9504 -0.161458,-2.17244 1.041954,-2.17244 1.116003,0 1.691986,1.63916 0.845246,2.40546 -0.619001,0.56018 -1.332564,0.47208 -1.8872,-0.23302 z m -2.338028,-4.60957 c 0,-0.14054 -1.111293,-1.5907 -2.469536,-3.22257 -2.36992,-2.84736 -2.483166,-2.94756 -2.807646,-2.4843 -0.185968,0.26551 -0.304144,0.56657 -0.262611,0.66903 0.04157,0.10245 1.174182,1.50915 2.517001,3.12599 2.142235,2.57939 2.477112,2.89237 2.732138,2.55355 0.159858,-0.21238 0.290654,-0.50115 0.290654,-0.6417 z m 26.833189,-0.0625 c -0.265317,-2.24483 -0.815313,-5.2913 -0.986095,-5.46208 -0.164332,-0.16434 -3.677183,0.87226 -4.037177,1.19133 -0.372894,0.33049 1.26456,2.33749 3.091762,3.78951 1.075077,0.85433 1.978844,1.56063 2.008372,1.56953 0.02953,0.009 -0.0053,-0.48083 -0.0769,-1.08829 z M 4.8712788,267.94358 c 1.7165842,-1.30673 3.5191878,-3.54598 3.0753368,-3.82029 -0.281567,-0.17401 -3.3340279,-1.30412 -3.5225009,-1.30412 -0.176187,0 -1.0487732,2.83097 -1.2542339,4.06915 -0.063627,0.38366 -0.1798517,1.08995 -0.2582166,1.56953 -0.078391,0.47957 -0.07927,0.87196 -0.00176,0.87196 0.077337,0 0.9599942,-0.62381 1.9615568,-1.38623 z M 32.96009,266.41751 c 1.310839,-1.58556 2.383358,-3.03765 2.383358,-3.22687 0,-0.79516 -0.495842,-0.47815 -2.249934,1.43847 -3.414371,3.73074 -3.387725,3.69447 -3.104119,4.22439 0.140199,0.26197 0.329709,0.46968 0.421125,0.46158 0.09141,-0.008 1.238722,-1.312 2.54957,-2.89757 z m -2.669714,-3.16498 c 2.405364,-3.06683 2.901944,-3.82842 2.71906,-4.17013 -0.383537,-0.71665 -0.247231,-1.50812 0.357568,-2.0763 0.725146,-0.68124 0.72751,-0.87344 0.01476,-1.19821 -0.466578,-0.21258 -0.846072,-0.14627 -2.149775,0.37563 -0.870759,0.34859 -2.002212,0.70493 -2.514339,0.79187 l -0.931151,0.15807 -0.11626,2.16478 c -0.09624,1.79199 -0.193992,2.2215 -0.567625,2.49407 -1.301312,0.94938 -2.049351,0.0284 -2.178969,-2.68282 l -0.09859,-2.06193 -0.777506,-0.14586 c -0.427628,-0.0802 -1.359974,-0.40346 -2.071884,-0.7183 -1.503153,-0.66476 -1.732017,-0.68831 -2.341157,-0.24092 -0.439993,0.32317 -0.435256,0.34836 0.188086,1.00095 0.761837,0.79758 0.788509,1.07869 0.176178,1.85713 -0.555233,0.70587 -0.818714,0.29233 3.137268,4.92406 3.742251,4.38149 3.326083,4.40895 7.154372,-0.47209 z M 14.6009,262.41225 c 0.907968,-1.29395 2.404186,-4.2379 2.266817,-4.46016 -0.24419,-0.3951 -6.335684,-3.96878 -6.764973,-3.96878 -1.208552,0 -5.300163,3.04266 -6.2214976,4.62651 l -0.4204303,0.72275 0.65295,0.25445 c 1.100413,0.42883 9.7109989,3.43648 9.8798919,3.45103 0.08718,0.008 0.360468,-0.27411 0.607242,-0.6258 z m 30.275972,-1.27675 c 2.621696,-0.90846 4.807538,-1.68327 4.857437,-1.7218 0.169174,-0.13062 -1.830436,-2.61696 -2.590462,-3.22099 -0.415562,-0.33028 -1.50034,-1.00378 -2.410602,-1.49667 l -1.655022,-0.89616 -3.137452,1.71468 c -1.725601,0.94308 -3.268951,1.87312 -3.429671,2.06677 -0.242345,0.29202 -0.122113,0.63999 0.704643,2.03927 1.945272,3.29237 2.085928,3.47886 2.502492,3.31799 0.215558,-0.0832 2.536941,-0.89463 5.158637,-1.80309 z m -24.209736,-9.37196 c 0.272919,-0.2546 0.252882,-0.57461 -0.132799,-2.12096 -0.433261,-1.73715 -0.482695,-1.81807 -1.071869,-1.75501 -1.600825,0.17134 -8.30138,2.85328 -8.30138,3.32267 0,0.10026 1.177143,0.81158 2.615878,1.58072 l 2.615878,1.39844 1.976444,-1.06301 c 1.087046,-0.58466 2.121081,-1.19794 2.297848,-1.36285 z m 20.314982,-0.0721 c 0.351688,-0.2014 0.639434,-0.45466 0.639434,-0.56283 0,-0.53356 -7.936026,-3.7032 -8.317305,-3.32193 -0.04983,0.0498 -0.298115,0.90041 -0.551639,1.89009 -0.536101,2.09268 -0.648626,1.88647 1.879053,3.44341 l 1.729696,1.06542 1.990664,-1.074 c 1.094859,-0.5907 2.278408,-1.23877 2.630097,-1.44016 z"
       id="path917"
       inkscape:connector-curvature="0"
       inkscape:export-xdpi="72"
       inkscape:export-ydpi="72" />
  </g>
</svg>
