<?xml version="1.0" encoding="UTF-8" standalone="no"?>
<!-- Created with Inkscape (http://www.inkscape.org/) -->

<svg
   xmlns:dc="http://purl.org/dc/elements/1.1/"
   xmlns:cc="http://creativecommons.org/ns#"
   xmlns:rdf="http://www.w3.org/1999/02/22-rdf-syntax-ns#"
   xmlns:svg="http://www.w3.org/2000/svg"
   xmlns="http://www.w3.org/2000/svg"
   xmlns:sodipodi="http://sodipodi.sourceforge.net/DTD/sodipodi-0.dtd"
   xmlns:inkscape="http://www.inkscape.org/namespaces/inkscape"
   width="210mm"
   height="297mm"
   viewBox="0 0 210 297"
   version="1.1"
   id="svg8"
   inkscape:version="0.92.2 (5c3e80d, 2017-08-06)"
   sodipodi:docname="carga.svg"
   inkscape:export-filename="C:\Users\fabio\Documents\GitHub\roll20-character-sheets\Tagmar\icons\suporte.png"
   inkscape:export-xdpi="72"
   inkscape:export-ydpi="72">
  <defs
     id="defs2" />
  <sodipodi:namedview
     id="base"
     pagecolor="#ffffff"
     bordercolor="#666666"
     borderopacity="1.0"
     inkscape:pageopacity="0.0"
     inkscape:pageshadow="2"
     inkscape:zoom="0.35"
     inkscape:cx="-247.14286"
     inkscape:cy="560"
     inkscape:document-units="mm"
     inkscape:current-layer="layer1"
     showgrid="false"
     inkscape:window-width="1842"
     inkscape:window-height="1051"
     inkscape:window-x="69"
     inkscape:window-y="-9"
     inkscape:window-maximized="1" />
  <metadata
     id="metadata5">
    <rdf:RDF>
      <cc:Work
         rdf:about="">
        <dc:format>image/svg+xml</dc:format>
        <dc:type
           rdf:resource="http://purl.org/dc/dcmitype/StillImage" />
        <dc:title></dc:title>
      </cc:Work>
    </rdf:RDF>
  </metadata>
  <g
     inkscape:label="Camada 1"
     inkscape:groupmode="layer"
     id="layer1">
    <path
       style="fill:#000000;stroke-width:1"
       d="m 2.5622704,296.87253 c -0.205669,-0.20566 -0.1476872,-5.48071 0.075352,-6.85532 0.2928388,-1.8048 1.2172948,-4.04304 2.3487507,-5.68666 0.6074558,-0.88243 2.6893397,-3.11641 5.4153879,-5.81102 5.26903,-5.20827 6.049921,-6.24065 6.07463,-8.03103 0.02215,-1.60459 -1.25206,-1.98549 -2.531074,-0.75662 -0.436159,0.41907 -1.273779,0.93129 -1.912785,1.16972 -0.95871,0.35772 -1.243523,0.58269 -1.817773,1.43581 -1.011428,1.5026 -1.7135136,1.90191 -3.3439534,1.90191 -1.5814109,0 -2.4113849,-0.35966 -3.5535876,-1.53995 -0.5253354,-0.54285 -0.9351373,-0.7947 -1.2930907,-0.7947 -0.6821611,0 -1.63995524,-1.077 -1.93620452,-2.17719 -0.2874342,-1.06745 0.14859672,-2.92809 1.03469592,-4.41529 0.3459536,-0.58063 1.9868979,-2.46676 3.6465423,-4.19138 1.6596443,-1.72463 3.4454826,-3.79031 3.968529,-4.59041 1.1243026,-1.71983 2.489293,-3.50362 4.016302,-5.24854 l 1.106676,-1.26461 0.134743,-2.04126 c 0.195367,-2.95966 0.425478,-3.89266 0.960069,-3.89266 0.418087,0 2.042556,1.50282 2.708776,2.50593 l 0.307574,0.46311 0.395168,-0.64981 c 0.217343,-0.35739 0.448826,-0.8941 0.514407,-1.19268 0.06558,-0.29859 0.221718,-0.54206 0.346973,-0.54105 0.472362,0.004 2.219271,1.15885 2.911569,1.92514 0.712189,0.7883 0.734384,0.79679 2.082252,0.79679 1.073028,0 1.362389,0.0612 1.362389,0.2879 0,0.58551 0.64341,1.87053 1.044808,2.08671 0.227894,0.12273 1.2023,0.23918 2.165346,0.25877 l 1.750993,0.0357 0.09804,1.14608 c 0.05392,0.63034 0.160797,1.243 0.237499,1.36147 0.0767,0.11847 0.674563,0.32896 1.328585,0.46775 0.654021,0.13879 1.305628,0.36885 1.448013,0.51123 0.142387,0.14239 0.449558,0.83187 0.682605,1.53217 0.389726,1.17113 0.49658,1.3102 1.331944,1.73351 0.499523,0.25313 1.115394,0.62799 1.368603,0.83303 0.45898,0.37165 0.459418,0.37609 0.144058,1.46089 -0.173974,0.59845 -0.316319,1.13386 -0.316319,1.18979 0,0.056 0.492971,0.38375 1.095494,0.72847 l 1.095491,0.62678 -0.114927,1.23074 c -0.145648,1.5597 0.218838,2.8288 1.062397,3.69913 l 0.630099,0.6501 -0.400804,0.43997 c -1.029502,1.13013 -1.103725,2.18302 -0.248908,3.53093 l 0.589627,0.92975 -0.589627,0.67155 c -0.815922,0.92928 -0.790657,1.72673 0.09131,2.88216 0.374518,0.49065 0.680942,1.01509 0.680942,1.16544 0,0.15033 -0.337739,0.69676 -0.75053,1.21428 l -0.750532,0.94094 0.58225,0.81752 0.582252,0.81751 -0.618949,0.96455 -0.618949,0.96455 0.59319,0.96405 c 0.826835,1.34378 1.963147,3.84584 2.273032,5.005 0.172455,0.64509 0.260834,2.19458 0.262365,4.59987 0.002,3.12933 -0.03992,3.64329 -0.305436,3.74518 -0.42182,0.16186 -39.2842451,0.15042 -39.4462843,-0.0116 z m 36.1547666,-4.72842 c 0,-1.14746 -0.04304,-1.28063 -0.486387,-1.50493 -0.379878,-0.19219 -3.879306,-0.24669 -15.980579,-0.24894 -14.5032555,-0.003 -15.5212393,0.019 -15.9171105,0.33959 -0.5055132,0.40934 -0.7395238,1.74393 -0.4128233,2.35437 l 0.2238492,0.41827 16.2865256,-0.0498 16.286525,-0.0497 z m -1.10827,-5.35021 c 0.183516,-0.18352 -0.5844,-1.86122 -0.938703,-2.05084 -0.490756,-0.26264 -27.8039623,-0.2617 -28.4948753,7.4e-4 -0.5047941,0.19193 -1.0732883,1.19397 -1.0733251,1.89189 -1.69e-5,0.33004 0.7317335,0.34446 15.2062454,0.29955 8.363445,-0.026 15.248741,-0.0897 15.300658,-0.14158 z m -2.296439,-5.84372 c 0,-0.0542 0.127715,-0.95158 0.283815,-1.99418 0.156097,-1.04259 0.380529,-3.4571 0.498737,-5.36556 0.330021,-5.32816 -0.111064,-7.91679 -2.02767,-11.8999 -1.63025,-3.38801 -3.764078,-5.97168 -6.866389,-8.31395 -0.848304,-0.64048 -1.299978,-0.83382 -2.252099,-0.96403 -1.383634,-0.18922 -2.087901,-0.5812 -2.087901,-1.16207 0,-0.38037 -1.295457,-1.9996 -1.891835,-2.36464 -0.166101,-0.10167 -0.472134,0.0206 -0.852304,0.34047 -0.736154,0.61943 -1.358111,0.62184 -2.606118,0.0101 l -0.972774,-0.47683 -0.05525,1.80925 -0.05525,1.80924 -0.880598,0.42783 c -1.298904,0.63106 -2.630307,1.97763 -3.470099,3.50965 -0.408153,0.74458 -1.173109,1.88648 -1.699903,2.53753 l -0.9578055,1.18374 h 0.5856515 c 0.694923,0 1.083715,0.56673 0.897575,1.30837 -0.137795,0.54902 -4.4833507,5.24781 -5.0088376,5.41599 -0.5242126,0.16777 -1.1290175,-0.27031 -1.2570604,-0.91053 l -0.1170616,-0.5853 -0.6498135,0.62982 c -0.8542471,0.82797 -1.3474407,2.25823 -1.0237072,2.96875 0.3480456,0.76387 0.9355954,0.64038 2.1944868,-0.46125 0.6114038,-0.53502 1.1878451,-0.97277 1.2809799,-0.97277 0.2035593,0 0.7807947,0.55463 0.7807947,0.75022 0,0.0763 -0.1797436,0.65017 -0.3994301,1.27521 -0.8256746,2.34919 -0.1587809,2.63816 2.0456508,0.88638 0.8265305,-0.65682 2.0247922,-1.50015 2.6628032,-1.87408 0.638012,-0.37393 1.233553,-0.87327 1.323423,-1.10965 0.09693,-0.25495 0.0558,-1.13894 -0.101133,-2.17311 -0.145493,-0.95885 -0.267639,-1.76523 -0.271434,-1.79198 -0.0038,-0.0268 0.105528,-0.0486 0.24294,-0.0486 0.137411,0 0.719216,0.47528 1.292898,1.05618 1.506939,1.52589 2.930559,2.12095 5.070365,2.11936 2.578237,-0.002 4.351618,-0.86935 6.125629,-2.99629 1.386306,-1.66211 1.976131,-3.14309 2.337811,-5.86997 0.156813,-1.18229 0.483045,-1.18229 1.080161,0 0.665117,1.31693 0.749707,3.29542 0.200294,4.68479 -0.854652,2.16126 -3.074376,4.85423 -4.673724,5.67015 -0.452213,0.2307 -1.493064,0.54772 -2.313005,0.70448 -1.98143,0.37882 -2.183841,0.60358 -2.376785,2.63907 -0.286194,3.01925 -0.925647,4.15243 -3.530195,6.25589 -0.995265,0.80379 -2.291096,1.90282 -2.879625,2.4423 l -1.070051,0.98086 11.721927,0.009 c 6.447059,0.005 11.721926,-0.0355 11.721926,-0.0897 z m -12.451507,-8.10842 c 0,-0.15499 0.720555,-0.65664 1.605077,-1.11746 2.169904,-1.13049 5.053302,-3.03458 6.450579,-4.25974 1.834334,-1.60838 2.078865,-1.27971 0.9151,1.22996 -0.69367,1.4959 -2.09433,2.87074 -3.711732,3.64331 -1.099205,0.52505 -1.53972,0.61897 -3.264838,0.69606 -1.65063,0.0738 -1.994186,0.0407 -1.994186,-0.19213 z m 0.0071,-2.4181 c 0.0046,-0.23656 0.59122,-0.77429 1.64824,-1.51092 2.147305,-1.49645 4.513171,-3.70897 5.762336,-5.38884 0.55089,-0.74083 1.120904,-1.34697 1.2667,-1.34697 0.386462,0 0.334579,1.09822 -0.120819,2.55735 -0.929032,2.97672 -4.169401,5.54018 -7.497587,5.93134 -0.96091,0.11294 -1.065328,0.0891 -1.05887,-0.24196 z M 13.9113,258.92602 c -0.734367,-0.27002 -0.972774,-0.69872 -0.972774,-1.74924 0,-1.42358 0.488674,-1.92028 2.06536,-2.09925 0.629637,-0.0715 1.626083,-0.24636 2.214327,-0.38863 1.263448,-0.30559 1.421071,-0.18357 1.253592,0.97044 -0.187614,1.29273 -0.45706,1.95304 -1.014378,2.48582 -0.722824,0.69101 -2.641482,1.1135 -3.546127,0.78086 z"
       id="path904"
       inkscape:connector-curvature="0" />
  </g>
</svg>
