<?xml version="1.0" encoding="UTF-8" standalone="no"?>
<!-- Created with Inkscape (http://www.inkscape.org/) -->

<svg
   xmlns:dc="http://purl.org/dc/elements/1.1/"
   xmlns:cc="http://creativecommons.org/ns#"
   xmlns:rdf="http://www.w3.org/1999/02/22-rdf-syntax-ns#"
   xmlns:svg="http://www.w3.org/2000/svg"
   xmlns="http://www.w3.org/2000/svg"
   xmlns:sodipodi="http://sodipodi.sourceforge.net/DTD/sodipodi-0.dtd"
   xmlns:inkscape="http://www.inkscape.org/namespaces/inkscape"
   width="210mm"
   height="297mm"
   viewBox="0 0 210 297"
   version="1.1"
   id="svg8"
   inkscape:version="0.92.2 (5c3e80d, 2017-08-06)"
   sodipodi:docname="postura.svg">
  <defs
     id="defs2" />
  <sodipodi:namedview
     id="base"
     pagecolor="#ffffff"
     bordercolor="#666666"
     borderopacity="1.0"
     inkscape:pageopacity="0.0"
     inkscape:pageshadow="2"
     inkscape:zoom="0.35"
     inkscape:cx="-247.14286"
     inkscape:cy="560"
     inkscape:document-units="mm"
     inkscape:current-layer="layer1"
     showgrid="false"
     inkscape:window-width="1842"
     inkscape:window-height="1051"
     inkscape:window-x="69"
     inkscape:window-y="-9"
     inkscape:window-maximized="1" />
  <metadata
     id="metadata5">
    <rdf:RDF>
      <cc:Work
         rdf:about="">
        <dc:format>image/svg+xml</dc:format>
        <dc:type
           rdf:resource="http://purl.org/dc/dcmitype/StillImage" />
        <dc:title></dc:title>
      </cc:Work>
    </rdf:RDF>
  </metadata>
  <g
     inkscape:label="Camada 1"
     inkscape:groupmode="layer"
     id="layer1">
    <path
       style="fill:#000000;stroke-width:1"
       d="m 18.360582,296.87668 c -1.246798,-0.2068 -2.629782,-0.59382 -3.827086,-1.07098 l -1.013053,-0.40374 -0.03085,-1.81259 -0.03085,-1.81256 -1.415505,-1.62056 c -1.545384,-1.76922 -1.777326,-2.16815 -2.741947,-4.71597 -0.8265549,-2.18313 -1.5595377,-5.12408 -1.9497667,-7.82302 -0.1231119,-0.85147 -0.119959,-1.32061 0.019804,-2.94152 l 0.166278,-1.92847 -3.1730399,-5.51682 c -3.51398554,-6.10959 -4.01080225,-7.08049 -4.26633673,-8.33753 -0.21743445,-1.0696 -0.07769036,-1.89051 0.45726212,-2.68604 0.54074481,-0.80417 1.26760891,-1.20201 2.29047721,-1.25366 0.7191912,-0.0363 0.9096101,-0.002 1.440864,0.25765 1.1219778,0.54893 1.7766433,1.41974 4.7286855,6.28982 1.4844525,2.44896 2.7161205,4.43554 2.7370365,4.41462 0.02093,-0.0209 -0.703516,-2.86702 -1.609852,-6.32466 -1.8309275,-6.98492 -2.0814888,-8.07909 -2.0814888,-9.08941 0,-2.3671 1.1090396,-3.5768 3.2791368,-3.5768 1.550684,0 2.629551,0.82408 3.492272,2.66758 0.204444,0.43686 1.201708,3.68257 2.247255,7.31396 l 1.879702,6.52855 0.04609,-7.93557 c 0.04864,-8.37633 0.03961,-8.22596 0.568966,-9.47649 0.267587,-0.63215 1.026995,-1.38564 1.679356,-1.66629 0.884526,-0.38052 2.231765,-0.3607 3.061006,0.045 1.285267,0.62883 1.960938,2.01111 2.150938,4.40037 0.03939,0.49527 -0.0079,4.09162 -0.105008,7.99186 -0.09714,3.90025 -0.173209,7.19268 -0.169042,7.31649 0.0042,0.12382 0.916806,-2.4848 2.028088,-5.79691 2.251298,-6.70989 2.826044,-8.07958 3.858046,-9.19426 0.786621,-0.84965 1.476109,-1.20012 2.375463,-1.20746 1.367053,-0.0111 2.424325,0.56504 2.816581,1.53495 0.279828,0.6919 0.333173,2.08486 0.130593,3.41007 -0.09485,0.62048 -1.113564,4.78465 -2.263806,9.25373 l -2.091351,8.12561 0.227294,1.26228 c 0.125013,0.69427 0.227296,1.40539 0.227296,1.5803 0,0.1749 0.01527,0.318 0.03394,0.318 0.01867,0 0.626084,-0.24472 1.349808,-0.54383 l 1.315865,-0.54383 0.479306,-0.72249 c 0.263619,-0.39737 0.885159,-1.13195 1.3812,-1.63242 0.710414,-0.71673 1.104726,-1.00975 1.857269,-1.38013 2.179432,-1.07268 4.037819,-0.9158 6.151027,0.51925 0.835836,0.56761 2.064556,1.59053 2.064556,1.71876 0,0.0536 -1.566872,1.58847 -3.481938,3.41099 l -3.481939,3.31368 -3.02763,4.03962 c -2.846826,3.79841 -3.107747,4.11041 -4.369215,5.22467 -1.624101,1.4346 -2.852346,2.44356 -4.012643,3.29625 l -0.870075,0.63942 -0.03042,2.33212 -0.03042,2.33212 -0.731649,0.26461 c -1.17345,0.42441 -2.453204,0.79507 -3.601964,1.04324 -1.379468,0.29802 -4.788928,0.39163 -6.134592,0.16843 z m 5.740628,-2.03346 c 0.495269,-0.0978 1.369027,-0.3102 1.941683,-0.47209 l 1.041192,-0.29436 v -2.16512 -2.16513 l 1.321878,-1.05565 c 0.727034,-0.58059 1.882866,-1.53684 2.568519,-2.12499 2.722029,-2.33486 3.035807,-2.68198 5.884417,-6.50961 2.694542,-3.62062 2.719038,-3.64919 4.76822,-5.56144 1.13287,-1.05717 2.453154,-2.30048 2.933964,-2.76291 0.992596,-0.95469 1.006343,-0.85021 -0.198833,-1.51106 -0.622376,-0.34128 -0.754852,-0.37033 -1.688419,-0.37033 -0.898769,0 -1.095843,0.0393 -1.746952,0.34779 -0.975621,0.46235 -1.933305,1.3725 -2.746201,2.60988 l -0.666068,1.01388 -0.966071,0.36505 c -2.752866,1.04025 -4.961503,2.46504 -7.094823,4.57685 -0.832556,0.82417 -1.562415,1.49848 -1.621912,1.49848 -0.167926,0 -1.310526,-0.89327 -1.310526,-1.02456 0,-0.25292 0.768405,-1.21945 1.738474,-2.18675 0.989309,-0.98647 1.937026,-1.72675 2.998641,-2.34227 l 0.516065,-0.29921 -0.09566,-0.69945 c -0.05262,-0.38471 -0.221525,-1.25822 -0.375364,-1.94113 -0.153837,-0.68292 -0.279704,-1.364 -0.279704,-1.51352 0,-0.14952 0.938959,-3.78254 2.086578,-8.07338 1.147616,-4.29084 2.190064,-8.2717 2.316544,-8.84637 0.416293,-1.89141 0.193721,-3.11454 -0.615856,-3.3844 -0.72625,-0.24209 -1.44873,0.32441 -2.102046,1.64819 -0.248761,0.50406 -1.554383,4.18357 -2.901383,8.17668 l -2.44909,7.2602 -1.552109,0.0314 -1.552107,0.0314 0.06811,-1.83234 c 0.223384,-6.00924 0.396427,-15.96816 0.290411,-16.71348 -0.206224,-1.44982 -0.667164,-2.26375 -1.423309,-2.5133 -0.495235,-0.16345 -1.174917,0.0252 -1.591572,0.44194 -0.655581,0.65557 -0.635624,0.34452 -0.700921,10.92542 l -0.06005,9.73151 -1.069332,0.19634 c -0.588133,0.10801 -1.198624,0.19891 -1.356646,0.20202 -0.285454,0.006 -0.301028,-0.0447 -2.406637,-7.78919 -1.165628,-4.28718 -2.267256,-8.17477 -2.448062,-8.63908 -0.355391,-0.91265 -0.940295,-1.80034 -1.373136,-2.08394 -0.426691,-0.27958 -1.002986,-0.32825 -1.438679,-0.12144 -0.800309,0.37977 -1.015274,1.28061 -0.674001,2.82453 0.123162,0.55718 1.241047,4.70322 2.484194,9.21342 1.243148,4.51019 2.260267,8.22004 2.260267,8.24409 0,0.0934 -2.258688,1.17139 -2.454242,1.17139 -0.152533,0 -1.183775,-1.59332 -3.9135515,-6.04669 -4.1406971,-6.75513 -4.662629,-7.46066 -5.5191847,-7.46066 -1.0812875,0 -1.3723099,1.16605 -0.6810998,2.72899 0.1536909,0.34753 1.7955658,3.23141 3.6486099,6.40862 1.8530441,3.17722 3.4228423,5.87842 3.488437,6.00265 0.085991,0.16285 0.064561,0.83811 -0.076791,2.42007 -0.189914,2.12541 -0.1893894,2.23298 0.016775,3.43235 0.4234457,2.4635 1.1080681,5.02691 1.8939211,7.09137 0.855187,2.24661 1.067162,2.6056 2.653826,4.49435 l 1.506116,1.79289 v 1.42866 1.42867 l 1.210035,0.34872 c 1.096833,0.31612 1.962615,0.49268 3.067296,0.62558 0.788169,0.0948 3.568198,-0.0361 4.446173,-0.20941 z"
       id="path865"
       inkscape:connector-curvature="0" />
  </g>
</svg>
