<?xml version="1.0" encoding="UTF-8" standalone="no"?>
<!-- Created with Inkscape (http://www.inkscape.org/) -->

<svg
   xmlns:dc="http://purl.org/dc/elements/1.1/"
   xmlns:cc="http://creativecommons.org/ns#"
   xmlns:rdf="http://www.w3.org/1999/02/22-rdf-syntax-ns#"
   xmlns:svg="http://www.w3.org/2000/svg"
   xmlns="http://www.w3.org/2000/svg"
   xmlns:sodipodi="http://sodipodi.sourceforge.net/DTD/sodipodi-0.dtd"
   xmlns:inkscape="http://www.inkscape.org/namespaces/inkscape"
   width="210mm"
   height="297mm"
   viewBox="0 0 210 297"
   version="1.1"
   id="svg8"
   inkscape:version="0.92.2 (5c3e80d, 2017-08-06)"
   sodipodi:docname="precisao.svg">
  <defs
     id="defs2" />
  <sodipodi:namedview
     id="base"
     pagecolor="#ffffff"
     bordercolor="#666666"
     borderopacity="1.0"
     inkscape:pageopacity="0.0"
     inkscape:pageshadow="2"
     inkscape:zoom="0.35"
     inkscape:cx="-247.14286"
     inkscape:cy="560"
     inkscape:document-units="mm"
     inkscape:current-layer="layer1"
     showgrid="false"
     inkscape:window-width="1842"
     inkscape:window-height="1051"
     inkscape:window-x="69"
     inkscape:window-y="-9"
     inkscape:window-maximized="1" />
  <metadata
     id="metadata5">
    <rdf:RDF>
      <cc:Work
         rdf:about="">
        <dc:format>image/svg+xml</dc:format>
        <dc:type
           rdf:resource="http://purl.org/dc/dcmitype/StillImage" />
        <dc:title></dc:title>
      </cc:Work>
    </rdf:RDF>
  </metadata>
  <g
     inkscape:label="Camada 1"
     inkscape:groupmode="layer"
     id="layer1">
    <path
       style="fill:#000000;stroke-width:0.99999988"
       d="M 24.093229,296.92285 C 17.491109,296.36988 12.155607,293.82987 7.4480128,288.99873 2.3641016,283.78141 0,277.94868 0,270.62295 c 0,-5.03461 0.95017332,-8.87953 3.210803,-12.99264 2.0837033,-3.79121 5.795445,-7.59517 9.734645,-9.97649 6.194703,-3.74482 14.700827,-4.62448 21.814853,-2.25601 8.205712,2.73193 15.350624,10.46596 17.355851,18.78686 0.512403,2.12627 0.700131,3.82329 0.702677,6.35216 0.0043,4.45314 -0.699553,7.75672 -2.432178,11.41262 -3.264826,6.88892 -9.790218,12.33306 -17.015459,14.19601 -2.704912,0.69743 -6.467992,1.01272 -9.277963,0.77739 z m 6.365699,-4.43283 c 4.337357,-0.85115 7.599751,-2.50371 11.050293,-5.59748 4.962013,-4.44899 7.411637,-10.33997 7.159121,-17.21662 -0.173768,-4.73211 -1.590579,-8.89026 -4.222609,-12.39276 -6.055979,-8.05885 -15.677428,-11.2219 -24.975151,-8.21057 -6.128374,1.98484 -11.9519762,7.64957 -14.1222937,13.73702 -0.7405289,2.0771 -1.058791,3.66607 -1.2293523,6.13773 -0.4222566,6.11909 1.4806382,11.7185 5.4926508,16.16255 4.0245512,4.45793 8.8694032,7.02864 14.3571512,7.61799 1.182102,0.12694 5.423272,-0.0285 6.49019,-0.23786 z m -5.489541,-16.69604 c -1.443362,-0.47001 -3.003148,-1.80497 -3.587818,-3.07069 -0.331905,-0.71851 -0.368763,-0.93317 -0.368763,-2.14775 0,-1.24725 0.03067,-1.41417 0.404995,-2.20425 0.495984,-1.04686 1.157881,-1.72764 2.301607,-2.36724 2.239383,-1.25234 3.853511,-1.20914 5.79475,0.15504 1.494939,1.05053 2.094768,2.11132 2.097644,3.7096 0.0039,2.26515 -0.42542,3.55498 -1.553386,4.66493 -1.049587,1.0328 -1.827169,1.3611 -3.322243,1.40266 -0.779068,0.0217 -1.422416,-0.0302 -1.766786,-0.1423 z"
       id="path826"
       inkscape:connector-curvature="0" />
  </g>
</svg>
