<?xml version="1.0" encoding="UTF-8" standalone="no"?>
<!-- Created with Inkscape (http://www.inkscape.org/) -->

<svg
   xmlns:dc="http://purl.org/dc/elements/1.1/"
   xmlns:cc="http://creativecommons.org/ns#"
   xmlns:rdf="http://www.w3.org/1999/02/22-rdf-syntax-ns#"
   xmlns:svg="http://www.w3.org/2000/svg"
   xmlns="http://www.w3.org/2000/svg"
   xmlns:sodipodi="http://sodipodi.sourceforge.net/DTD/sodipodi-0.dtd"
   xmlns:inkscape="http://www.inkscape.org/namespaces/inkscape"
   width="210mm"
   height="297mm"
   viewBox="0 0 210 297"
   version="1.1"
   id="svg8"
   inkscape:version="0.92.2 (5c3e80d, 2017-08-06)"
   sodipodi:docname="protecao.svg">
  <defs
     id="defs2" />
  <sodipodi:namedview
     id="base"
     pagecolor="#ffffff"
     bordercolor="#666666"
     borderopacity="1.0"
     inkscape:pageopacity="0.0"
     inkscape:pageshadow="2"
     inkscape:zoom="0.35"
     inkscape:cx="-247.14286"
     inkscape:cy="560"
     inkscape:document-units="mm"
     inkscape:current-layer="layer1"
     showgrid="false"
     inkscape:window-width="1842"
     inkscape:window-height="1051"
     inkscape:window-x="69"
     inkscape:window-y="-9"
     inkscape:window-maximized="1" />
  <metadata
     id="metadata5">
    <rdf:RDF>
      <cc:Work
         rdf:about="">
        <dc:format>image/svg+xml</dc:format>
        <dc:type
           rdf:resource="http://purl.org/dc/dcmitype/StillImage" />
        <dc:title></dc:title>
      </cc:Work>
    </rdf:RDF>
  </metadata>
  <g
     inkscape:label="Camada 1"
     inkscape:groupmode="layer"
     id="layer1">
    <path
       style="fill:#000000;stroke-width:1"
       d="M 22.464628,296.3072 C 14.47689,293.60252 8.0190296,287.89178 4.1218927,280.08656 0.40502504,272.64237 -1.0690576,261.26955 0.82729151,254.66809 1.9181161,250.87078 4.2022258,246.68377 6.2292694,244.76571 l 0.7108953,-0.67267 2.1677498,1.07584 c 3.6094435,1.79137 4.9696385,2.17007 7.8755975,2.19273 3.034123,0.0237 4.363244,-0.36125 6.731573,-1.94939 0.875003,-0.58675 1.751986,-1.06683 1.948851,-1.06683 0.196867,0 0.756214,0.31336 1.242997,0.69634 4.033188,3.17321 8.967509,3.21112 15.192092,0.11672 l 2.162685,-1.07513 0.715957,0.67753 c 1.879381,1.7785 4.05087,5.58339 5.118484,8.96861 1.308882,4.15025 1.435842,9.43476 0.37727,15.70235 -2.204922,13.05476 -10.28711,23.03673 -21.766287,26.88261 -2.733384,0.91577 -3.519296,0.91486 -6.242506,-0.007 z m 4.736781,-1.5856 c 4.644621,-1.36323 9.848008,-4.68826 13.152473,-8.40462 5.072778,-5.70507 7.92521,-12.90101 8.6943,-21.93339 0.312267,-3.66736 0.157217,-5.93038 -0.617767,-9.01624 -0.900354,-3.58508 -3.797025,-8.7952 -4.728225,-8.50446 -0.200977,0.0628 -1.259778,0.51003 -2.352876,0.99394 -2.845508,1.25971 -4.983512,1.65645 -8.213809,1.52422 -2.88759,-0.1182 -4.437205,-0.55862 -6.448369,-1.8327 l -1.081131,-0.6849 -1.084207,0.68605 c -2.016061,1.2757 -3.556934,1.71284 -6.482305,1.83901 -2.023077,0.0873 -3.183065,0.0113 -4.582427,-0.30002 -1.795393,-0.39944 -5.086129,-1.63762 -5.5696764,-2.09565 -0.4480907,-0.42446 -0.8301736,-0.20591 -1.6915803,0.96757 -1.3749608,1.87306 -2.7847173,4.91415 -3.4733668,7.49266 -0.5557774,2.08099 -0.6328553,2.83523 -0.6271867,6.13731 0.017479,10.18114 3.4406732,19.3495 9.5158032,25.48622 2.630735,2.65741 4.775038,4.24158 7.763378,5.73543 2.231183,1.11535 5.305774,2.26249 6.126762,2.2859 0.209531,0.006 0.974626,-0.16337 1.70021,-0.37633 z"
       id="path852"
       inkscape:connector-curvature="0" />
  </g>
</svg>
