<?xml version="1.0" encoding="UTF-8" standalone="no"?>
<!-- Created with Inkscape (http://www.inkscape.org/) -->

<svg
   xmlns:dc="http://purl.org/dc/elements/1.1/"
   xmlns:cc="http://creativecommons.org/ns#"
   xmlns:rdf="http://www.w3.org/1999/02/22-rdf-syntax-ns#"
   xmlns:svg="http://www.w3.org/2000/svg"
   xmlns="http://www.w3.org/2000/svg"
   xmlns:sodipodi="http://sodipodi.sourceforge.net/DTD/sodipodi-0.dtd"
   xmlns:inkscape="http://www.inkscape.org/namespaces/inkscape"
   width="210mm"
   height="297mm"
   viewBox="0 0 210 297"
   version="1.1"
   id="svg8"
   inkscape:version="0.92.2 (5c3e80d, 2017-08-06)"
   sodipodi:docname="restrita.svg"
   inkscape:export-filename="C:\Users\fabio\Documents\GitHub\roll20-character-sheets\Tagmar\icons\suporte.png"
   inkscape:export-xdpi="72"
   inkscape:export-ydpi="72">
  <defs
     id="defs2" />
  <sodipodi:namedview
     id="base"
     pagecolor="#ffffff"
     bordercolor="#666666"
     borderopacity="1.0"
     inkscape:pageopacity="0.0"
     inkscape:pageshadow="2"
     inkscape:zoom="0.35"
     inkscape:cx="-247.14286"
     inkscape:cy="560"
     inkscape:document-units="mm"
     inkscape:current-layer="layer1"
     showgrid="false"
     inkscape:window-width="1842"
     inkscape:window-height="1051"
     inkscape:window-x="69"
     inkscape:window-y="-9"
     inkscape:window-maximized="1" />
  <metadata
     id="metadata5">
    <rdf:RDF>
      <cc:Work
         rdf:about="">
        <dc:format>image/svg+xml</dc:format>
        <dc:type
           rdf:resource="http://purl.org/dc/dcmitype/StillImage" />
        <dc:title></dc:title>
      </cc:Work>
    </rdf:RDF>
  </metadata>
  <g
     inkscape:label="Camada 1"
     inkscape:groupmode="layer"
     id="layer1">
    <path
       style="fill:#000000;stroke-width:1"
       d="m 0.41842934,296.79223 c -0.36060612,-0.18216 -0.37308706,-0.24019 -0.41365926,-1.92347 -0.07272484,-3.01723 0.68550411,-5.70722 2.31726922,-8.22105 1.5128604,-2.33065 3.2994056,-3.98453 5.6816148,-5.25972 1.2722124,-0.68101 6.8783509,-2.39987 7.8272919,-2.39987 0.518638,0 0.686308,0.10228 1.472981,0.89849 2.393547,2.42256 5.426095,3.81779 8.629378,3.97025 3.612753,0.17195 6.521249,-0.98608 9.411217,-3.74715 1.020214,-0.9747 1.244664,-1.12159 1.713837,-1.12159 0.887479,0 6.575479,1.74971 7.979037,2.45446 4.216057,2.11696 6.936889,5.93247 7.662311,10.74509 0.26958,1.78844 0.292976,4.36721 0.04188,4.6183 -0.26759,0.26759 -51.79301999,0.25406 -52.32317253,-0.0137 z M 24.140847,281.81936 c -1.940936,-0.51403 -3.412486,-1.31931 -5.092628,-2.78688 -1.82298,-1.59233 -3.702867,-4.33026 -4.657015,-6.78262 -0.359356,-0.92363 -0.474401,-1.07976 -0.871422,-1.18263 -1.521306,-0.39422 -2.539231,-3.1163 -2.349462,-6.28281 0.122552,-2.0449 0.772508,-3.56582 1.778603,-4.16199 l 0.409007,-0.24236 v -2.95741 c 0,-1.62657 0.0502,-2.98786 0.111547,-3.02509 0.06135,-0.0372 3.156792,0.29272 6.878757,0.73321 3.721966,0.44048 7.13693,0.80163 7.588812,0.80254 0.610995,0.001 2.180551,-0.39864 6.123019,-1.55999 2.915781,-0.85892 5.440715,-1.56166 5.610968,-1.56166 0.305449,0 0.309547,0.05 0.309547,3.77641 v 3.77642 l 0.601737,0.72266 c 0.330955,0.39747 0.812492,1.15769 1.070082,1.68941 0.805335,1.66235 0.75387,4.30933 -0.120021,6.17297 -0.431984,0.92124 -1.329127,1.81694 -2.077604,2.07425 -0.537514,0.1848 -0.588844,0.26052 -1.026144,1.51384 -1.382576,3.96252 -4.152965,7.15696 -7.484796,8.63045 -2.085384,0.92226 -4.798867,1.18203 -6.802987,0.65128 z m 4.014538,-2.46389 c 1.377101,-0.28445 1.978662,-0.53428 3.198861,-1.32849 2.301344,-1.49791 4.035356,-4.07803 5.200457,-7.738 0.260132,-0.81717 0.505659,-1.51845 0.545613,-1.5584 0.03996,-0.04 0.419915,-0.10758 0.844354,-0.15028 l 0.771706,-0.0776 0.445935,-0.89238 c 0.384241,-0.76892 0.445971,-1.05766 0.446189,-2.08704 2.98e-4,-1.65229 -0.286456,-2.25482 -1.308403,-2.7487 l -0.773561,-0.37383 -0.04176,-1.72954 -0.04177,-1.72953 -0.718526,0.27302 c -1.013541,0.38511 -2.80219,0.82445 -4.626587,1.13641 -1.252276,0.21413 -2.386698,0.26634 -5.726101,0.26355 -4.599855,-0.004 -6.221185,-0.20137 -9.006909,-1.09721 l -1.329818,-0.42765 v 1.2388 c 0,1.27362 -0.165389,2.00181 -0.454659,2.00181 -0.09051,0 -0.449434,0.23343 -0.797609,0.51873 -0.769714,0.63072 -0.978986,1.23958 -0.97785,2.84494 0.0013,1.98886 0.391416,2.88298 1.257531,2.88298 0.264944,0 0.685292,0.15987 0.967175,0.36784 0.43483,0.3208 0.542753,0.54262 0.844205,1.73515 1.130186,4.47096 4.24699,7.8691 7.955734,8.67383 1.261983,0.27383 2.006171,0.27419 3.32579,0.002 z m -7.881516,-12.73494 c -0.482952,-0.26415 -0.669284,-0.59392 -0.669284,-1.18446 0,-0.42318 0.09345,-0.6292 0.391882,-0.86395 0.34207,-0.26907 0.598146,-0.30826 2.014614,-0.30826 1.524594,0 1.644809,0.0221 1.987795,0.36507 0.511717,0.51171 0.485024,1.17388 -0.06968,1.72859 -0.422317,0.42232 -0.476538,0.43462 -1.896306,0.43023 -0.803855,-0.002 -1.595414,-0.0777 -1.759017,-0.16722 z m 8.712111,-0.2133 c -0.591372,-0.49761 -0.630045,-1.24079 -0.09254,-1.7783 0.343711,-0.34371 0.461546,-0.36507 2.014613,-0.36507 1.553067,0 1.670903,0.0214 2.014614,0.36507 0.511717,0.51171 0.485023,1.17388 -0.06968,1.72859 -0.422546,0.42255 -0.476493,0.43475 -1.922076,0.43475 -1.383112,0 -1.519392,-0.027 -1.944929,-0.38504 z m 15.508146,-1.95973 c -0.0943,-0.0601 -0.713383,-1.1923 -1.375752,-2.51602 -0.956,-1.91052 -1.204306,-2.54083 -1.204306,-3.05705 0,-0.63763 0.02165,-0.66608 1.111313,-1.46023 l 1.111311,-0.80992 0.0042,-3.2449 c 0.0039,-3.02103 -0.0138,-3.2397 -0.256117,-3.16956 -2.018244,0.5842 -15.778168,3.96042 -16.140841,3.96042 -0.702193,0 -20.0761551,-2.19797 -20.3708921,-2.31107 -0.5807503,-0.22286 -0.9394722,-1.55501 -0.5740655,-2.13186 0.1334224,-0.21063 17.8403706,-4.62622 18.5808366,-4.63351 0.856957,-0.008 20.203311,2.12338 20.592865,2.26918 0.22808,0.0854 0.486367,0.28913 0.573969,0.45282 0.104095,0.1945 0.151224,1.75209 0.136041,4.49575 l -0.02322,4.19814 1.048111,1.03368 c 0.855712,0.84392 1.048117,1.11928 1.048117,1.50001 0,0.25649 -0.09247,0.51987 -0.205492,0.58529 -0.113021,0.0654 -0.717877,1.12286 -1.344122,2.34988 -0.626245,1.22702 -1.205697,2.31461 -1.28767,2.41686 -0.160944,0.20077 -1.144253,0.25053 -1.424232,0.0721 z"
       id="path943"
       inkscape:connector-curvature="0" />
  </g>
</svg>
