<?xml version="1.0" encoding="UTF-8" standalone="no"?>
<!-- Created with Inkscape (http://www.inkscape.org/) -->

<svg
   xmlns:dc="http://purl.org/dc/elements/1.1/"
   xmlns:cc="http://creativecommons.org/ns#"
   xmlns:rdf="http://www.w3.org/1999/02/22-rdf-syntax-ns#"
   xmlns:svg="http://www.w3.org/2000/svg"
   xmlns="http://www.w3.org/2000/svg"
   xmlns:sodipodi="http://sodipodi.sourceforge.net/DTD/sodipodi-0.dtd"
   xmlns:inkscape="http://www.inkscape.org/namespaces/inkscape"
   width="210mm"
   height="297mm"
   viewBox="0 0 210 297"
   version="1.1"
   id="svg8"
   inkscape:version="0.92.2 (5c3e80d, 2017-08-06)"
   sodipodi:docname="suporte.svg">
  <defs
     id="defs2" />
  <sodipodi:namedview
     id="base"
     pagecolor="#ffffff"
     bordercolor="#666666"
     borderopacity="1.0"
     inkscape:pageopacity="0.0"
     inkscape:pageshadow="2"
     inkscape:zoom="0.35"
     inkscape:cx="-247.14286"
     inkscape:cy="560"
     inkscape:document-units="mm"
     inkscape:current-layer="layer1"
     showgrid="false"
     inkscape:window-width="1842"
     inkscape:window-height="1051"
     inkscape:window-x="69"
     inkscape:window-y="-9"
     inkscape:window-maximized="1" />
  <metadata
     id="metadata5">
    <rdf:RDF>
      <cc:Work
         rdf:about="">
        <dc:format>image/svg+xml</dc:format>
        <dc:type
           rdf:resource="http://purl.org/dc/dcmitype/StillImage" />
        <dc:title></dc:title>
      </cc:Work>
    </rdf:RDF>
  </metadata>
  <g
     inkscape:label="Camada 1"
     inkscape:groupmode="layer"
     id="layer1">
    <path
       style="fill:#000000;stroke-width:0.99999994"
       d="M 2.2439061,296.93431 C 1.6477156,296.81245 1.1852618,296.53086 0.75412853,296.02718 0.11799903,295.28401 5.0517332e-5,294.64097 5.0517332e-5,291.91609 c 0,-3.47389 -0.04951762733,-3.32527 2.952073682668,-8.86014 l 1.6505515,-3.04359 0.5035066,-9.62713 c 0.276929,-5.29492 0.5035071,-9.73189 0.5035071,-9.85993 0,-0.18036 -0.4469616,-0.5105 -1.9841705,-1.46558 -1.0912938,-0.67803 -2.1262722,-1.35086 -2.2999521,-1.49518 l -0.3157816,-0.26241 v -4.1349 c 0,-4.1312 2.248e-4,-4.13515 0.252434,-4.41183 0.1609983,-0.17662 1.6950774,-0.89851 4.2352777,-1.99299 2.1905639,-0.94384 3.9996725,-1.75604 4.0202408,-1.8049 0.064986,-0.15436 0.5884623,-0.0963 0.9251673,0.10258 0.61491,0.36324 0.68917,0.7162 0.64652,3.07294 l -0.03838,2.12104 1.718316,-7e-5 c 0.969787,-4e-5 1.812849,-0.0507 1.935326,-0.11621 0.204303,-0.10933 0.217034,-0.25879 0.217429,-2.55238 3.37e-4,-2.2184 0.02,-2.46836 0.219425,-2.79543 0.426727,-0.69986 0.473696,-0.70665 4.884928,-0.70665 3.323988,0 4.048369,0.0281 4.318183,0.16764 0.653731,0.33806 0.674395,0.43481 0.674395,3.15783 0,1.36962 0.03066,2.57006 0.0681,2.66767 0.05836,0.1521 0.338041,0.17746 1.956751,0.17746 1.388988,0 1.912036,-0.0371 1.977041,-0.14024 0.04862,-0.0771 0.114706,-1.19243 0.146865,-2.47844 0.05724,-2.28875 0.06407,-2.34273 0.323335,-2.55238 0.265549,-0.21475 0.86173,-0.29368 0.931857,-0.12338 0.02057,0.0499 1.829685,0.86244 4.020245,1.80554 2.531778,1.09001 4.07481,1.8154 4.235277,1.99102 0.252183,0.276 0.252437,0.28034 0.252437,4.39619 0,3.54726 -0.0243,4.15457 -0.174651,4.36926 -0.09606,0.13714 -0.222373,0.24935 -0.280699,0.24935 -0.05833,0 -1.014709,0.56793 -2.125301,1.26207 -1.891106,1.18197 -2.019161,1.28343 -2.017779,1.59874 8.48e-4,0.18518 0.225464,4.61905 0.499222,9.85305 l 0.497741,9.51637 1.868281,3.466 c 2.771871,5.14234 2.74318,5.05205 2.742294,8.63028 -3.35e-4,1.50001 -0.05107,2.71052 -0.124611,2.97543 -0.209516,0.75467 -0.694944,1.34224 -1.355469,1.64067 l -0.594858,0.26876 -17.614271,0.0162 c -9.687847,0.009 -17.7909706,-0.0199 -18.0069418,-0.0641 z m 33.3104409,-3.51586 c 0.709488,-0.36462 0.957735,-1.39863 0.639895,-2.66535 -0.138749,-0.55297 -0.275963,-0.81433 -0.573653,-1.09263 l -0.391287,-0.36581 -15.379983,0.0292 -15.3799846,0.0292 -0.3204401,0.35865 c -0.176242,0.19725 -0.3737612,0.55066 -0.4389317,0.78535 -0.1779809,0.64093 -0.1494569,2.00718 0.049956,2.3928 0.3645045,0.70487 -0.6982669,0.66117 16.1543504,0.66429 11.982756,0.002 15.429849,-0.0277 15.640078,-0.13575 z m -0.786693,-6.43671 c 0.228984,-0.16039 0.255511,-0.2527 0.209673,-0.72974 -0.105254,-1.09541 -1.291507,-2.48614 -2.374189,-2.78341 -0.33124,-0.091 -3.927182,-0.11724 -12.857158,-0.094 l -12.3973022,0.0323 -0.5048678,0.26736 c -1.2432145,0.65838 -1.907277,1.56684 -1.907277,2.60922 0,0.9625 -1.3744639,0.88188 15.033833,0.88188 13.277819,0 14.55781,-0.0159 14.797288,-0.18362 z m -24.645087,-6.49185 c 0.151009,-1.25092 0.153904,-3.06269 0.0051,-3.21178 -0.1932302,-0.19364 -1.6525127,0.55704 -2.2274701,1.14585 -0.4227258,0.43291 -0.4357034,0.47088 -0.554569,1.62242 l -0.1217108,1.17914 1.4086794,-0.0312 1.4086805,-0.0312 z m 8.950257,-1.17803 v -1.90727 h -3.590169 -3.590169 v 1.90727 1.90728 h 3.590169 3.590169 z m 9.312002,0 v -1.90727 h -3.758457 -3.758463 v 1.90727 1.90728 h 3.758463 3.758457 z m 4.216811,1.48656 c -0.04172,-0.2314 -0.105827,-0.809 -0.142446,-1.28355 -0.05554,-0.71973 -0.117848,-0.92503 -0.375738,-1.23789 -0.35787,-0.43416 -1.220558,-0.93274 -1.799544,-1.04002 l -0.400867,-0.0743 -0.105653,0.70996 c -0.0654,0.43947 -0.0663,1.21224 -0.0025,2.02823 l 0.103291,1.31827 h 1.399594 1.399597 l -0.07587,-0.42072 z M 9.0364132,275.55403 c 0.4616157,-0.12902 1.3189208,-0.20592 2.7719278,-0.24866 l 2.103615,-0.0619 v -2.18935 -2.18934 l -1.654844,0.0587 c -1.891051,0.0671 -2.7813385,0.30297 -3.8694893,1.02524 -0.7089445,0.47057 -0.6824928,0.37711 -0.824425,2.91289 l -0.074315,1.3277 0.4396083,-0.22427 c 0.2417849,-0.12335 0.7403503,-0.30833 1.1079219,-0.41105 z m 23.3412358,-0.58964 c -0.04011,-0.66334 -0.102214,-1.51889 -0.13802,-1.90124 l -0.0651,-0.69516 -0.860139,-0.44749 c -1.264288,-0.65776 -2.297358,-0.91975 -3.911255,-0.99193 l -1.374359,-0.0615 v 2.18819 2.1882 l 2.103611,0.0619 c 2.165509,0.0637 3.005888,0.20503 3.839084,0.64566 0.217908,0.11523 0.414847,0.21175 0.437643,0.21447 0.02281,0.003 0.0087,-0.53777 -0.03146,-1.20111 z m -7.919572,-1.87923 V 270.8974 H 20.082559 15.70704 v 2.18776 2.18776 h 4.375519 4.375518 z M 9.7608227,267.12892 c 0,-0.95093 -0.024408,-1.72896 -0.054241,-1.72896 -0.029831,0 -0.4284596,0.18517 -0.8858393,0.41148 l -0.8315989,0.41149 -0.071061,0.96288 c -0.039083,0.52958 -0.1005396,1.27675 -0.1365691,1.66037 l -0.065508,0.6975 1.0224087,-0.3429 1.0224084,-0.34289 z m 22.3994313,1.83316 c -0.03575,-0.32396 -0.09793,-1.07976 -0.13821,-1.67956 -0.0819,-1.21959 -0.07922,-1.21564 -1.31192,-1.93226 l -0.535617,-0.31137 0.03074,1.93819 0.03074,1.93819 0.897544,0.30912 c 0.493645,0.17001 0.941224,0.31307 0.994614,0.31791 0.05339,0.005 0.06783,-0.25626 0.0321,-0.58022 z m -13.08743,-2.27781 v -2.19367 l -3.506025,0.0512 c -1.928313,0.0282 -3.720593,0.0866 -3.982844,0.12988 l -0.476819,0.0787 v 2.06378 2.06378 h 3.982844 3.982844 z m 9.010712,1.94123 c 0.03278,-0.13884 0.09502,-1.06874 0.138291,-2.06644 l 0.07868,-1.81402 -0.434658,-0.12069 c -0.264323,-0.0734 -1.72072,-0.12093 -3.7163,-0.12131 l -3.281643,-4.2e-4 v 2.18776 2.18776 h 3.57801 3.578005 z M 9.3681482,263.19464 c 1.3190908,-0.46097 2.9859308,-0.82359 3.7865058,-0.82374 l 0.757302,-1.5e-4 v -1.90447 -1.90447 l -0.308531,0.0506 c -1.36933,0.22461 -3.517963,0.67447 -4.3755184,0.91611 l -1.037783,0.29243 v 1.90396 c 0,1.76895 0.013925,1.89831 0.1963377,1.82407 0.1079852,-0.0439 0.5497443,-0.20339 0.9816869,-0.35434 z m 22.1889228,-3.41749 c -0.04782,-0.0473 -0.591716,-0.21704 -1.208654,-0.37708 -0.948649,-0.24609 -1.788438,-0.41069 -4.011111,-0.78614 l -0.308528,-0.0521 v 1.90447 1.90447 h 0.716858 c 1.186829,0 3.754242,0.61213 4.6334,1.10471 0.192152,0.10766 0.20497,0.0119 0.234131,-1.74916 0.01696,-1.02468 -0.0083,-1.9018 -0.0561,-1.94915 z m -7.124512,0.54608 -0.03057,-2.04751 -0.897544,-0.0897 c -1.170279,-0.11702 -5.819887,-0.11779 -6.899855,-10e-4 l -0.841446,0.0909 -0.03058,2.04752 -0.03058,2.04751 h 4.380572 4.380581 z M 7.6040938,257.09472 c 5.0115862,-1.62267 8.5604582,-2.19382 13.0557132,-2.10116 4.200909,0.0866 7.759281,0.71332 11.667644,2.055 0.8243,0.28297 1.582239,0.54062 1.684313,0.57256 0.113667,0.0356 0.645179,-0.26111 1.371543,-0.76559 l 1.185952,-0.82367 -0.02523,-2.90466 -0.02523,-2.90466 -2.552386,-1.09556 -2.552386,-1.09556 v 1.3177 c 0,2.07268 -0.478265,3.66126 -1.234122,4.09918 -0.363216,0.21044 -0.548299,0.2247 -2.467146,0.19 -1.960898,-0.0354 -2.108314,-0.0535 -2.692627,-0.32946 -0.832959,-0.3934 -1.712019,-1.24443 -2.03119,-1.96644 -0.221313,-0.50064 -0.264556,-0.81885 -0.304199,-2.23844 l -0.04621,-1.65485 h -2.680397 -2.680399 v 1.2847 c 0,0.70658 -0.0555,1.55223 -0.12333,1.87922 -0.239371,1.15393 -0.970205,2.0328 -2.21144,2.65937 -0.648907,0.32756 -0.688654,0.33291 -2.723994,0.36624 -1.810229,0.0296 -2.11115,0.009 -2.4350656,-0.16628 -0.8099738,-0.43856 -1.2572076,-1.87175 -1.2572076,-4.02879 v -1.41215 l -2.552386,1.09556 -2.5523856,1.09556 -0.025171,2.90466 -0.025171,2.90466 1.1470968,0.80672 c 0.6309034,0.44368 1.1913291,0.80971 1.2453911,0.81339 0.054062,0.004 0.8820679,-0.24709 1.8400135,-0.55725 z"
       id="path891"
       inkscape:connector-curvature="0" />
  </g>
</svg>
