<svg viewBox="0 0 12 12"
  xmlns="http://www.w3.org/2000/svg">
  <g fill="none" fill-rule="evenodd">
    <path d="m6 0c3.3137085 0 6 2.6862915 6 6s-2.6862915 6-6 6-6-2.6862915-6-6 2.6862915-6 6-6z" fill="#fff"/>
    <path d="m3.6593055 2.96359116c-.19486814-.13499605-.46429254-.1157109-.63785889.05785545-.19526215.19526215-.19526215.51184463 0 .70710678l2.27155339 2.27144661-2.20567981 2.20557302-.05785545.06924789c-.13499605.19486814-.1157109.46429254.05785545.6378589.19526215.19526214.51184464.19526214.70710679 0l2.20557302-2.20567981 2.20557302 2.20567981.06924789.05785545c.19486814.13499605.46429254.1157109.6378589-.05785545.19526214-.19526215.19526214-.51184464 0-.70710679l-2.20567981-2.20557302 2.27155339-2.27144661.05785545-.06924789c.13499605-.19486814.1157109-.46429254-.05785545-.63785889-.19526215-.19526215-.51184463-.19526215-.70710678 0l-2.27144661 2.27155339-2.27144661-2.27155339z" fill="#2c2c2c"/>
  </g>
</svg>
