<?xml version="1.0" encoding="UTF-8"?>
<svg id="a" data-name="Layer 1" xmlns="http://www.w3.org/2000/svg" viewBox="0 0 26.82 27.34">
  <defs>
    <style>
      .b {
        fill: #ffd457;
      }
    </style>
  </defs>
  <rect x="-.9" y="-.64" width="28.63" height="28.63"/>
  <path class="b" d="M6.8,18.99l-.1-.58c.31.16.36.37.39.54l-.28.04ZM18.9,8.36l-4.04,2.95c.03.22-.12.46-.36.67l-.18-.2-.7.62.22.1c-.47.39-.99.84-1.15,1.41.12.14.32.22.53.22.08.01.24,0,1.54-.09l.1-.23c1.99-.26,2.86.61,3.05,2.05.12.09.23.15.26.41s-.41,1.45-.91,2.22l-.4-.03c-.67,1.28-3.76,2.47-5.63,3.07-.39-.17-.65-.13-.6.26-1.01-.09-3.62-1.39-3.78-2.57l.39-.05c.17-.86-.44-1.93.51-3.87h-.37c.96-1.45,2.42-3.3,3.97-5.06.49-.07.79-.19.5-.55,2.27-2.49,4.66-4.62,5.84-4.78.39-.05.83.13,1.28.32.15,1.09.08,2.16-.08,3.15ZM10.68,16.55l-1.19,2.3c.56.1.94.16,1.12-.26.82-.18,2.1-.59,3.02-1.16-.92-.38-1.11-1-2.95-.89ZM12.31,13.62c-.18.25-.25.52-.12.66l.33-.48-.21-.17ZM13.53,17.85l.22.08.55-.4c-.25-.08-.53.16-.77.32Z"/>
</svg>