<?xml version="1.0" encoding="UTF-8"?>
<svg id="a" data-name="Layer 1" xmlns="http://www.w3.org/2000/svg" viewBox="0 0 26.82 27.34">
  <defs>
    <style>
      .b {
        fill: #7c5fa9;
      }
    </style>
  </defs>
  <rect x="-.9" y="-.64" width="28.63" height="28.63"/>
  <path class="b" d="M18.29,17.13c-.98.13-1.22.85-2.65,1.32v-.2c.39-.15.8-.35,1.04-.52l-.07-.15c-1.24.65-1.59.15-1.74,1.06-.89.17-.3-.39-1.3-.39l-.54.57c-1.17.24-2.65.61-4,.8-.39-.39-.83-.3-.74.09-.3.02-.63.04-.91.04-.61,0-.91-.87-1.37-1.56.22-.33.37-.67-.07-.76,2.3-3.48,8.41-5.56,8.41-6.91-.22-.3-.57-.46-1-.46-.89,0-2.11.54-3.06,1.06-.46.26-.48-.28-1.04-1.09-.43-.61-.02-.76-.46-1.09.3-.26.26-.63.72-.89,1.26-.74,4.37-.89,6.15-1.06l-.09.24c1.65,0,2.74,1.02,2.74,2,0,.89-.24,1.82-.78,2.5-.65.09-1.11.65-1.15,1.3l-1.22.67-.06-.2c.33-.2.7-.41.67-.74-1.8.96-4,1.93-5.17,3.3,2.09.13,5.08-.52,6.91-.7.87.37,1.24.52,2.17.52l.09.2h-.91l.15.22,1.56.09c-.3.67-1.17.57-2.28.72ZM14.03,14.35l-.04-.13.83-.54.04.24-.83.43ZM19.33,17.26l1.02-.2.09.2c-.46.04-.98.15-1.11,0Z"/>
</svg>