<?xml version="1.0" encoding="UTF-8"?>
<svg id="a" data-name="Layer 1" xmlns="http://www.w3.org/2000/svg" viewBox="0 0 26.82 27.34">
  <defs>
    <style>
      .b {
        fill: #f281b3;
      }
    </style>
  </defs>
  <rect x="-1" y="-.64" width="28.63" height="28.63"/>
  <path class="b" d="M12.29,9.87c-.31.42-.64.94-.46,1.45l.54,1.5c.3.92,1.37.84,2.38,1.19.65.74,1.07,1.72,1.18,2.71.15,1.58-1.81,3.23-3.78,4.25-1.76.24-2.77-.01-4.19-1.13-.01-.09-.03-.22-.06-.3l.83.28c-.2-.37-.54-.45-.93-.68-.04-.13-.06-.3-.08-.43l.51-.6.64.2c.57.18.35.79.82.72.15-.02,2.96-1.4,2.88-3.42-.6-1.19-1.76-1.47-3.07-2.06l-.97-2.23-1.21.32c-.54-1.05,0-1.78.52-2.57l.56-.21c.06-.49.33-1.08.48-1.6.32-.04.49-.13.64-.15.19-.03.42,0,.94.29l7.27-2.65c.88.03,1.69.95,1.73,1.27.02.17-.04.33-.11.45l.48.81c-2.02,1.61-5.72,1.97-7.56,2.6ZM13.78,19.14c-.52.07-.58.28-.98.99l1.02-.71-.04-.28ZM18.99,6.67l-1.08.57-.1.25,1.26-.59-.08-.23Z"/>
</svg>