<?xml version="1.0" encoding="UTF-8"?>
<svg id="a" data-name="Layer 1" xmlns="http://www.w3.org/2000/svg" viewBox="0 0 26.82 27.34">
  <defs>
    <style>
      .b {
        fill: #7c5fa9;
      }
    </style>
  </defs>
  <rect x="-.86" y="-.64" width="28.63" height="28.63"/>
  <path class="b" d="M18.56,17.16l-.28-.13c-1.22,1.06-2.32,1.5-3.61,2.15l-.11-.24c-.65.28-1.39.57-2.13.83l-.11-.37c-.24.02-.46.24-.5.57-1.43.46-2.76.78-4.21.98-.13.02-.26-.04-.24-.26.02-.24.54-.61.41-.87l-.65.28c-.35-.85-.26-1.61-.04-2.3,1.54,0,3.3.04,4.58-.63.09.22.39.22.85.09,1.28-.37,4.61-1.5,4.89-2.83-.57-.65-1.96-.46-3.58-.65l-.11.26c-1.17-.59-1.54-.39-1.95-1.52l.22-.96c1.17-.3,2.91-1.67,3.32-2.56-1.52,0-3.93.85-5.11,1.45-.06-.13-.13-.3-.17-.43l1.5-.72c-.35-.3-.96.11-1.56.5-.13-.52-.17-1.09-.17-1.65,0-.83,2.06-1.76,3.67-1.76.35,0,.7.02,1.04.04l.17.2c1.06,0,2.19.15,2.96.22.41.5.67,1.02.78,1.61-.2.93-.57,1.87-.89,2.52,1.24.41,1.95,1.09,2.52,1.91,0,1.65-.22,3.15-1.48,4.28ZM11.11,19.6c-.15.02-.3.07-.5.11l.04.24.89-.24c-.13-.11-.28-.13-.43-.11ZM15.13,18.29l-.67.28.13.24.61-.33-.07-.2Z"/>
</svg>