<?xml version="1.0" encoding="UTF-8"?>
<svg id="a" data-name="Layer 1" xmlns="http://www.w3.org/2000/svg" viewBox="0 0 26.82 27.34">
  <defs>
    <style>
      .b {
        fill: #f281b3;
      }
    </style>
  </defs>
  <rect x="-1.13" y="-.64" width="28.63" height="28.63"/>
  <path class="b" d="M18.53,14.47c-.39.17-.91.44-1.22,1.04-.28.57-.8,1.2-1.26,1.96-.41-.02-.76.09-.89.5l.48.22c-.04.09-.09.22-.13.3l-.46-.24-.17.48.37.26c-.2.57-.28,1.15-.22,1.74-1.22.46-.85-.48-1.59.02-.33-.56-.67-.98-1.32-1.26,0-1.26,1.22-2.46,1.5-3.67-.83-.24-.67.02-2.11.04l-.11.39c-.63-.09-.96-.15-1.06.02-.11.18-.54.07-1.39-.59l-.24.19c-1.17-.61-2.11-1.72-2.11-2.46,0-.82,3.89-5.69,6.04-7.52.26.15.72.13.98.07.63.39.5,1.13.2,2.24l-.22-.13c-.72,1.48-2.3,3.63-3.26,5.3,1,0,2.06-.04,2.89-.35l-.04.3c1.63.11,2.78-2.3,3.17-3.65l.87-.59c.87,1.17,1.24,1.94,1.04,3.06.63.09,1.5-.63,2.06-1.04.09.3.09.56.37.48-.15,1.67-1.76,2.69-2.17,2.87ZM10.78,15.77l-.15.15.59.09.04-.17-.48-.07ZM13.43,13.1v-.17l.46-.24.07.24-.52.17ZM14.8,18.98l-.15.44.15.13.22-.46-.22-.11ZM18.18,12.62l-.06.24c.26.02.33-.11.46-.41l-.39.17Z"/>
</svg>