<?xml version="1.0" encoding="UTF-8"?>
<svg id="a" data-name="Layer 1" xmlns="http://www.w3.org/2000/svg" viewBox="0 0 26.82 27.34">
  <defs>
    <style>
      .b {
        fill: #7c5fa9;
      }
    </style>
  </defs>
  <rect x="-.9" y="-.64" width="28.63" height="28.63"/>
  <path class="b" d="M12.6,20.4l-.61.37s-.09-.11-.15-.17l.54-1.54c-.46-.09-.67.65-.8,1.32-.33-.28-.7-.57-.93-.74,0-.35-.09-.46-.44-.24-.02-.3-.13-.59-.13-.85s.43-.52.43-1c0-1.43,1.59-5.06,2.72-6.97-.37-.04-1.46.52-2.06.87-.85-.87-1.48-2.69-.33-3,1.56-.41,3.11-1.45,4.71-1.89.5,0,1.04.22,1.3.3.17.57.33,1.26.39,2.06-1.85,4.74-3.37,6.21-4.65,11.47Z"/>
</svg>