<svg width="740" height="60" xmlns="http://www.w3.org/2000/svg">
 <!-- Iniciativa -->

 <!-- Hlaseni akce -->
 <!-- Rozsahle -->
 <!-- Obrana -->
 <!-- Presne -->
 <!-- Mocne -->
 <!-- Vycerpani -->
 <!-- Lstive -->
 <g>
  <title>Layer 1</title>
  <line x1="10" x2="730" y1="30" y2="30" stroke="black" id="svg_2"/>
  <circle cx="46" cy="30" r="6" stroke="black" fill="white" id="svg_3"/>
  <text stroke="null" fill="black" font-size="12" x="21" y="52" id="svg_4" font-weight="normal" font-style="normal" font-family="'Poppins'">Iniciativa</text>
  <circle cx="120" cy="30" r="6" stroke="black" fill="white" id="svg_5"/>
  <text fill="black" font-size="12" x="84" y="52" id="svg_6" font-weight="normal" font-style="normal" font-family="'Poppins'">Hlášení akce</text>
  <rect x="187" y="22.5" width="15" height="15" stroke="black" fill="white" transform="rotate(45 194.50000000000003,30.000000000000004) " id="svg_7"/>
  <text font-family="'Poppins SemiBold'" font-style="italic" font-weight="normal" fill="black" font-size="12" x="169" y="14" id="svg_8">Rozsáhle</text>
  <rect x="199" y="-184.74874" width="15" height="15" stroke="black" fill="white" transform="rotate(45 -11,5.251262664794921) " id="svg_9"/>
  <text fill="black" font-size="12" x="247" y="53" id="svg_10" font-weight="normal" font-style="italic" font-family="'Poppins SemiBold'">Obrana</text>
  <rect x="257" y="-234.74874" width="15" height="15" stroke="black" fill="white" transform="rotate(45 -2.9999999999999982,5.251262664794922) " id="svg_11"/>
  <circle cx="375" cy="30" r="6" stroke="black" fill="white" id="svg_12"/>
  <rect x="283" y="-289.74874" width="15" height="15" stroke="black" fill="black" transform="rotate(45 -31.999999999999993,5.251262664794922) " id="svg_13"/>
  <text font-family="'Poppins SemiBold'" font-style="italic" font-weight="normal" fill="black" font-size="12" x="356" y="14" id="svg_14">Přesně</text>
  <text fill="black" font-size="12" x="342" y="53" id="svg_15" font-weight="normal" font-style="normal" font-family="'Poppins'">Hod kostkou</text>
  <rect x="339" y="-344.74874" width="15" height="15" stroke="black" fill="white" transform="rotate(45 -30.999999999999996,5.251262664794924) " id="svg_16"/>
  <rect x="359" y="-364.74874" width="15" height="15" stroke="black" fill="black" transform="rotate(45 -30.999999999999996,5.251262664794924) " id="svg_17"/>
  <text font-family="'Poppins SemiBold'" font-style="italic" font-weight="normal" fill="black" font-size="12" x="473" y="14" id="svg_18">Mocně</text>
  <circle cx="579" cy="30" r="6" stroke="black" fill="white" id="svg_19"/>
  <text fill="black" font-size="12" x="552" y="52" id="svg_20" font-weight="normal" font-style="normal" font-family="'Poppins'">Vyčerpání</text>
  <rect x="465" y="-464.74874" width="15" height="15" stroke="black" fill="white" transform="rotate(45 -24.999999999999996,5.251262664794922) " id="svg_21"/>
  <rect x="485" y="-484.74874" width="15" height="15" stroke="black" fill="black" transform="rotate(45 -24.999999999999996,5.251262664794922) " id="svg_22"/>
  <text font-family="'Poppins SemiBold'" font-style="italic" font-weight="normal" fill="black" font-size="12" x="651" y="13" id="svg_23">Lstivě</text>
 </g>
</svg>