<svg xmlns="http://www.w3.org/2000/svg" viewBox="0 0 62.64 65.09"><defs><style>.cls-1{fill:#fff;}</style></defs><title>Asset 1</title><g id="Layer_2" data-name="Layer 2"><g id="Layer_1-2" data-name="Layer 1"><path class="cls-1" d="M51,54a223.73,223.73,0,0,0-8.43-29.78s-.37-1.06-1-2.64c10.92,2.8,18.69,9.88,18.69,18.17,0,5.63-3.59,10.7-9.31,14.25M31.32,59.2A40.73,40.73,0,0,1,18,57c5.86-6.64,14.39-15.43,19.32-15.64,1.67,0,6.39,8.59,9.6,14.78A39.82,39.82,0,0,1,31.32,59.2m-29-19.45c0-8.35,7.89-15.48,18.94-18.23q-.53,1.46-1.06,2.95A240,240,0,0,0,11.63,54c-5.74-3.56-9.35-8.64-9.35-14.28m60.35,0c0-9.72-9.24-18-21.94-20.75C38,11.88,33.25,0,31.41,0c-.46,0-1.24,0-4.53,7.37-1.46,3.27-3.08,7.27-4.71,11.58C9.35,21.67,0,30,0,39.75c0,6.67,4.35,12.64,11.18,16.64a72,72,0,0,0-1,8.08.61.61,0,0,0,.15.44.61.61,0,0,0,.44.18c.35,0,.41,0,2.79-2.88.76-.91,1.74-2.06,2.85-3.35a42.38,42.38,0,0,0,14.95,2.64,41.75,41.75,0,0,0,16.62-3.33l1.35,2.65c2.08,4.13,2.08,4.13,2.53,4.13a.57.57,0,0,0,.41-.18.64.64,0,0,0,.16-.44,69.24,69.24,0,0,0-.91-7.95c6.82-4,11.17-10,11.17-16.63"/></g></g></svg>