<?xml version="1.0" encoding="UTF-8"?>
<svg id="Camada_1" data-name="Camada 1" xmlns="http://www.w3.org/2000/svg" viewBox="0 0 74.3 61.48">
  <defs>
    <style>
      .cls-1 {
        fill: #010101;
        stroke-width: 0px;
      }
    </style>
  </defs>
  <path class="cls-1" d="M24.27,34.82l-.21-3.49,14.29-.11,1.8-.39-1.8-.46-14.29-.11.26-3.7h43.5c.55,0,1.08.53,1.48.91l2.96,3.49-3.01,3.4c-.38.31-.85.47-1.34.48l-43.64-.02Z"/>
  <polygon class="cls-1" points="3.55 28.1 6.57 28.1 8.08 30.71 6.57 33.32 3.55 33.32 2.04 30.71 3.55 28.1"/>
  <polygon class="cls-1" points="18.87 37.14 18.87 33.02 7.36 33.13 8.82 30.69 7.36 28.36 18.92 28.36 18.98 24.97 13.79 21.16 22.78 21.84 22.76 39.68 14 40.32 18.87 37.14"/>
</svg>