<?xml version="1.0" encoding="UTF-8"?>
<svg id="Camada_6" data-name="Camada 6" xmlns="http://www.w3.org/2000/svg" viewBox="0 0 1920 1080">
  <defs>
    <style>
      .cls-1 {
        fill: #222b54;
      }

      .cls-1, .cls-2 {
        stroke-width: 0px;
      }

      .cls-2 {
        fill: #fff;
      }
    </style>
  </defs>
  <polygon class="cls-1" points="566.76 818.91 650.82 787.29 714.56 888.65 727.46 973.76 612.01 916.65 566.76 818.91"/>
  <polygon class="cls-1" points="952.31 908.31 941.13 842.46 1038.97 571.16 916.94 361.1 1100.47 107.58 997.86 47 838.35 165.53 693.48 204.34 663.48 236.16 619.37 276.42 520.49 278.78 392.34 298.47 368.62 396.27 383.37 476.12 344.89 516.42 355.22 560.33 416.59 644.54 454.35 630.11 506.27 661.38 525.14 687.85 596.67 685.45 722.43 757.63 771.31 824.35 813.78 832.21 894.02 877.93 952.31 908.31"/>
  <polygon class="cls-1" points="1537.35 425.57 1498.8 403.91 1458.39 360.6 1386.69 329.33 1239.63 265.44 1212.05 235.82 1145.19 215.58 1083.86 188.16 949.2 386.13 1068.19 550.4 972.04 867.49 985.49 965.16 1034.37 1001.57 1113.09 914.96 1164.85 880.31 1212.05 838.28 1268.53 844.22 1344.84 808.93 1444.43 777.01 1472 722.22 1490.07 719.1 1575.11 447.22 1537.35 425.57"/>
  <path class="cls-1" d="m1191.39,932.56s77.31-64.83,76.35-51.12c-.95,13.71,12.36,61.32,12.36,61.32l-60.31,76-20.71-27.73-7.69-58.48Z"/>
  <path class="cls-1" d="m1103.15,996.1s32.32-44.28,34.34-37.5c2.02,6.79,18.6,27.57,18.6,27.57l-20.45,46.84-17.11-9.93-15.38-26.98Z"/>
  <polygon class="cls-1" points="1413.06 833.53 1474.94 865.3 1439.64 944.02 1344.11 949.26 1413.06 833.53"/>
  <g>
    <path class="cls-1" d="m629.65,780.15c-1.13-.27-5.91-1.33-14.36-3.19l-21.36-39.01c3.71-11.67,12.71-19.48,20.13-24.98,1.14-.85,2.02-1.53,2.67-2.05,2.02-4.78,2.49-8.04,2.49-10.04v-50.05c0-.12-.01-.24-.01-.37l-.47-13.79c-.35-10.3-.52-18-.52-23.52h27.37l-27.27-2.31c.05-.8.16-2.99.33-6.59l.04-.65c.17-2.46.04-3.51.04-3.52l-.16-1.35s0-.03,0-.03c.02,0,.22.86.91,2.07l1.12-32.74c.79-1.19,1.85-3.27,1.85-7.61,0-3.88-.86-10.75-4.97-21.45l-2.08-11.24c0-.97-.04-2.68-.19-5.57-.65-1.01-1.42-2.04-2.3-3.07l-15.74-9.45c-6.94-9.97-7.02-21.39-6.77-26.76.18-11.95,8.13-29.28,29.81-29.81l25.96-.59c29.81-.43,74.23-.91,136.03-1.48h.01c7.61,0,16.75.78,28.19,2.37l24.45,24.2c1.31,7.13,2.12,19.77-.76,63.54-.64,10.35-5.5,19.98-14.44,28.61h-.02s5.11,4.71,5.11,4.71c.82,5.35,1.51,12.45,2.11,21.7l.04,3.3c-.43,10.78-2.05,31-4.95,61.8-1.76,17.19-15.4,34.38-41.27,32.13l-25.71-23.57-1.77-8.45c-2.62-.08-6.01-.14-10.4-.14h-22.36c-.56,2.36-1.34,5.45-2.44,9.68l-.17.62h0c.39,1.25.76,2.57,1.13,3.96l1.06,8.12c0,3.55-.26,8.13-.83,14.43-.53,5.94-.58,8.21-.58,8.77,0,.29,0,.55.02.78,4.22,1.73,11.1,4.54,22.28,9.08l2.56,10.29c9.47,8.38,9.82,20.81,9.81,22.81-.01,3.28-.58,6.63-1.67,9.85l1.08,4.33c-3.27,4.15-7.12,7.56-11.41,10.15-4.37,3.28-9.9,5.44-16.5,5.75-.86.04-2.14.08-3.85.11v-.42c-1.29-.06-4.63-.2-12.89-.43-12.47-.28-28.25-1-46.79-2.14-4.58-.19-7.63-.23-9.74-.24-1.17.58-2.41,1.17-3.73,1.77,0,0-32.28-1.7-18.14,1.68Z"/>
    <path class="cls-1" d="m692.92,764.36c4.92,8.7,13.86,14.23,22.53,15.11l-.2-8.29-.64,1.64c-9.36-3.63-16.36-6.34-21.68-8.46Z"/>
    <path class="cls-1" d="m704.68,723.19c-.9.7-1.72,1.49-2.42,2.35l12.11,10-.38-15.63c-3.17.52-6.34,1.64-9.31,3.29Z"/>
    <path class="cls-1" d="m713.31,709.14l2.7,2.48c-.89-.93-1.8-1.76-2.7-2.48Z"/>
    <path class="cls-1" d="m695.43,661.99s.06,0,.09,0c-.03,0-.06,0-.09,0Z"/>
    <path class="cls-1" d="m730.45,575.41h24.54c.06-.06.13-.12.21-.19.51-1.47,1.08-3.07,1.73-4.82l9.16-12.84c.59-.48,1.19-.94,1.8-1.37l-6.41-5.89c-.42-5-.84-8.44-1.18-10.74-4.96-.43-13.69-.89-28.47-.89h-15.72c.24,2.74.51,5.89.82,9.48.5,6.26-.03,13.78-1.73,24.55-.02.13-.04.27-.06.4,2.93.05,5.62.48,11.94,1.7,1.68.33,2.75.51,3.38.62Z"/>
    <path class="cls-1" d="m672.42,555.81c4.19,1.92,8.98,2.91,14.24,2.59l-1.83-29.84h-17.52c2.98,9.57,4.67,18.59,5.11,27.24Z"/>
    <path class="cls-1" d="m773.88,537.1l-.02.25.02-.25Z"/>
    <path class="cls-1" d="m599.63,516.38c.15.15.3.3.45.44l-.45-.44Z"/>
    <path class="cls-1" d="m945.75,780.43c-15.22,0-24.49-6.52-29.87-12.62l-7.45-17.88c-.5-7.33-.04-13.81,1.39-19.8l14.85-12.96c-1.53-6.68-3.42-14.86-5.66-24.52-.25-.66-.67-1.75-1.36-3.53-3.72.19-8.13.43-13.36.71l-1.21.04-30.32.43c-.42.99-.86,2.03-1.33,3.14-2.5,7.66-3,10.03-3.05,10.29.01-.07.26-1.35.28-3.38l-25.15.96c-.32,1.01-.61,1.96-.89,2.85l-1.33,3.48c-1.57,3.44-3.01,6.6-4.32,9.48,2.59.09,4.98.18,7.18.29,3.4-.7,5.27-1.19,6.17-1.44l3,10.55c4.75-2.69,8.58-6.58,11.19-10.99-.05-.13-.1-.25-.15-.38l.02.06c-.03-.06-.05-.12-.07-.17-.01-.03-.03-.06-.04-.1v.03c-1.75-4.27-3.96-6.54-4.06-6.63.02.02.51.51,1.84,1.61,1.49,1.23,2.2,1.66,2.2,1.66,0,0-.09-.05-.29-.15l1.91,1.47c.94-2.02,1.62-4.12,2.02-6.23-.05.25-.3,1.63-1.11,6.94l15.21,11.74c.84,1.47,1.52,2.64,2.05,3.47l-17.23,45.07c-3.86,1.1-8.73,2.2-14.88,3.37l-7.25.48c-6.95-.38-17.2-.7-30.49-.95-3.87.78-8.54,1.51-14.32,2.23l-3.74.23c-2.3,0-2.35,0-19.19-2.14l-24.17-18.68c-1.72-4.28-2.59-8.69-2.59-13.11,0-14.56,9.39-24.1,15.33-28.94,2.28-2.62,5.06-5.43,8.49-8.59l1.38-1.08c.05-.11.11-.22.17-.36,2.24-4.81,5.6-12.14,10.08-22,2.09-6.69,5.06-16.26,8.91-28.71l1.15-3.11c1.67-3.85,4.72-11.65,9.77-26.94,3.22-9.67,7.95-24.13,14.08-43.07l6.65-10.89c0-.13.01-.26.02-.39l.19.04.45-.74c-.18.18-.4.4-.64.67.1-1.66.26-3.48.49-5.55l1.78-7.37c2.06-5.4,4.94-13.32,8.57-23.55,1.64-7.27,4.83-15.97,9.88-26.96.64-2.2,1.47-5.08,2.48-8.62l.11-.39c1.54-5.11,4.03-11.64,7.8-20.44,1.05-3.34,2.57-6.97,4.67-11.16l4.06-6.11c10.84-12.65,26.32-11.92,34.3-11.34,5.94.17,14.35.68,25.67,1.53l26.19,20.17c3.46,9.96,9.86,26.4,19.05,48.86l2.08,8.26c0,.07.19,1.72,1.3,6.42,1.37,3.76,3.11,7.27,5.18,10.45l-.4,17.24,4.42-1.94.52,1.19c-.03-.47-.08-.88-.15-1.24,0,.03.11.61.48,2l8.95,20.47,1.22,3.3c2.78,9.15,7.24,22.3,13.26,39.09l1.59,6.96c.03.31.39,3.22,2.85,11.2l.53,3.52c1.71,3.81,4.18,9.56,7.5,17.44,1.62,2.53,3.49,5.64,5.74,9.53l2.06,10.25.78-.27c1.67,4.89,4.29,11.92,7.8,20.9.7,1.24,1.51,2.7,2.45,4.41,2.11.71,4.98,1.69,8.61,2.94l20.33,28.49v5.7l-17.93,27.55c-7.31,3.24-15.79,4.39-25.95,3.53-3.92-.34-6.82-.6-8.76-.77-.54-.05-1.07-.11-1.6-.17h-15.34c-22.98,0-35.63,1.45-42.18,2.66-3.92.7-7.54,1.01-10.87,1.01Z"/>
    <path class="cls-1" d="m1035.9,747.72l9.81.53c.54-9.93-4-19.23-11.3-25.16l-3.01,8.08,4.32,9.74h2.52l-1.1,3.21,1.1,2.49h-1.96l-.38,1.1Z"/>
    <path class="cls-1" d="m927.28,728.32c.3,1.34.73,2.74,1.33,4.17l-1.33-4.17Z"/>
    <path class="cls-1" d="m1026.98,718.69c-.3.11-.62.25-.95.39l5.22,11.8,2.72-8.11c-2.12-1.66-4.48-3.04-6.99-4.07Z"/>
    <path class="cls-1" d="m1043.52,717.08l.35.68c-.11-.23-.23-.46-.35-.68Z"/>
    <path class="cls-1" d="m863.05,711.06l.24.09c-.05-.02-.11-.04-.17-.07,0,0-.05-.02-.07-.03Z"/>
    <path class="cls-1" d="m862.94,711.02s.01,0,.01,0c-.04-.01-.08-.03-.12-.04l.11.04Z"/>
    <path class="cls-1" d="m778,704.72c-.8.52-1.43,1.04-1.89,1.47l1.89-1.47Z"/>
    <path class="cls-1" d="m866.66,698.18l1.99,2.15c0-.69-.01-1.46-.08-2.3l-1.91.15Z"/>
    <path class="cls-1" d="m1029.07,687.75l1.07,5.31c.43-3.34,0-5.45-.02-5.54l-1.05.23Z"/>
    <path class="cls-1" d="m1013.44,649.43l.47,3.16c0-1.45-.13-2.57-.23-3.23l-.24.07Z"/>
    <path class="cls-1" d="m829.82,636.24c.24,1.97.72,3.97,1.44,5.93.75-.79,1.5-1.53,2.27-2.23l-3.71-3.71Z"/>
    <path class="cls-1" d="m945.14,628.79c.09.02.18.04.27.06l-.13-.39-.13.33Z"/>
    <path class="cls-1" d="m828,575.27c.77,6.44,3.65,12.25,7.94,16.74l5.14-.96.59-2.77c1.15-3,2.2-5.59,3.2-7.82.23-.92.42-1.7.58-2.37l-17.44-2.82Z"/>
    <polygon class="cls-1" points="878.94 583.51 879.67 583.67 879.65 583.62 878.94 583.51"/>
    <path class="cls-1" d="m979.36,566.14l-.31,13.3c3.79-5.28,5.09-10.82,5.34-14.75l-5.03,1.45Z"/>
    <path class="cls-1" d="m830.18,572.19l15.79,3.66c.09-.39.15-.68.19-.89l1.17-2.97-12.28-4.07c-1.87,1.31-3.49,2.77-4.86,4.27Z"/>
    <path class="cls-1" d="m902.77,530.57l7.71.18c-1.53-3.81-2.97-7.4-4.31-10.79-.85,2.96-1.53,5.3-2.03,7l-1.37,3.62Z"/>
    <path class="cls-1" d="m826.02,571.51l.18-.24h.01c-.06.08-.13.15-.2.24Z"/>
    <path class="cls-1" d="m1112.09,616.2l-9.13-5.52-9.21-8.66c-1.05-1.52-1.77-2.22-2-2.43-.36-.21-1.29-.74-3.13-1.62-4.9-2.34-8.68-4.48-11.83-6.72l-14.2-10.07-12.63-22.47c-.15-2.18-.31-4.18-.49-5.96l2.17-7.75c-.68-7.38-1.57-13.78-2.65-19.15-1.55-.75-2.26-.97-2.29-.98.02,0,.8.24,2.16.34-.42-2.02-.87-3.88-1.36-5.59l1.75-.49-31.56-23.69c0-19.27,14.19-38.78,41.31-38.78,3.52,0,7.54.32,12.65,1,1.65.22,2.9.39,3.79.47h104.82l30.03,27.64c.42,5.11.82,31.02-33.27,39.53-4.32,1.05-8.48,2.07-12.58,3.09-.22.1-.43.2-.64.3-1.2,5.77-2.44,14.15-3.25,25.96l-2.81,37.99-45.64,23.56Zm48.02-85.9l-.05.03s.03-.02.05-.03Zm-110.05-5.04c.14,0,.29,0,.43,0l1.93-3.75-2.68-2.01-2.1.63c.65,2.16,1.57,3.88,2.42,5.13Zm2.39-3.73l-1.92,3.73c1.54-.03,3.48-.24,5.7-.89l-3.78-2.84Zm22.29-63.39h-.13.21-.07Z"/>
    <path class="cls-1" d="m1110.06,689.87l-2.36-1.42-9.36-8.75c-1.05-1.52-1.76-2.21-2-2.42-.35-.21-1.28-.73-3.1-1.6h0c-4.96-2.37-8.73-4.51-11.87-6.74l-20.07-14.22-12.71-24.36c-.15-20.41-.5-37.37-1.01-50.41l47.53-25.78c26.42,18.73,43.72,31.66,52.89,39.51l10.42,20.4c.15,1.81.31,3.95.31,6.38,0,5.09-.62,10.94-1.94,18.42-.99,5.57-1.02,7.71-1.02,7.94v17.28l-45.73,25.78Z"/>
    <path class="cls-1" d="m1242.03,803.16l-187.26-1.68-8.63-1.35c.15.03-1.18-.31-5.75-1.07-6.48-1.08-10.68-2.01-14.04-3.13l-20.63-28.6c0-13.82,6.47-25.99,17.75-33.4l17.29-4.94c.38,0,.8-.06,1.31-.19-.04-.9-.1-1.98-.2-3.27l-.07-1.28c-.43-13.06-.17-18.21.11-21.24.11-1.41.43-4.37,2.47-18.61,1.04-8.12,1.2-12.17,1.2-13.86,0-4.09,0-8.02-.02-11.89l45-26.29c3.54,2.01,6.42,3.81,8.8,5.49,17.78,12.6,31.76,22.82,41.56,30.36l11.74,23.87v19.77c1.03,3.1,2.21,6.65,3.53,10.64,3.27.49,6.88,1.06,10.87,1.7,9.26-1.29,18.68-2.67,28.04-4.1,6.27-1.08,10.3-2.36,12.77-3.39.46-.92,1.02-2.12,1.7-3.65,5.22-12.42,9.96-20.49,15.33-26.15,7.66-8.17,18.46-12.75,30.27-12.75,5.5,0,11.43,1.26,21.14,4.5l19.45,36.81c-2.96,10.44-5.92,20.8-8.88,31.09l-.09.31c-4.4,14.7-10.73,28.81-18.82,41.95l-25.93,14.34Zm-199.96-70.48h0Zm227.48-5.41h0,0Zm-105.23-2.64c-.69.1-1.37.23-2.05.4l2.05-.4Zm5.59.05l1.13.22c-.37-.09-.75-.16-1.13-.22Z"/>
    <path class="cls-1" d="m1345.33,616.2l-9.13-5.52-9.21-8.66c-1.05-1.52-1.77-2.22-2-2.43-.35-.21-1.29-.74-3.13-1.62-4.89-2.33-8.65-4.47-11.81-6.7l-14.22-10.08-12.63-22.47c-.15-2.18-.31-4.18-.49-5.96l2.17-7.72c-.68-7.4-1.57-13.81-2.66-19.18-1.55-.75-2.25-.97-2.29-.98.02,0,.8.24,2.16.34-.42-2.02-.87-3.88-1.36-5.59l1.76-.49-31.56-23.69c0-19.27,14.19-38.78,41.31-38.78,3.52,0,7.54.32,12.65,1,1.65.22,2.9.39,3.79.47h104.82l30.03,27.64c.43,5.11.82,31.02-33.27,39.53-4.32,1.05-8.48,2.07-12.57,3.09-.22.1-.43.2-.64.3-1.19,5.76-2.44,14.14-3.26,25.97l-2.81,37.98-45.64,23.56Zm48.02-85.9l-.05.03s.03-.02.05-.03Zm-110.05-5.04c.14,0,.29,0,.43,0l1.93-3.75-2.68-2.01-2.11.63c.65,2.16,1.57,3.88,2.42,5.13Zm2.39-3.74l-1.92,3.74c1.54-.03,3.49-.24,5.71-.89l-3.79-2.84Zm22.29-63.39h-.13.21-.07Z"/>
    <path class="cls-1" d="m1343.3,689.87l-2.46-1.49-9.24-8.68c-1.05-1.52-1.76-2.21-2-2.43-.36-.21-1.29-.74-3.1-1.6h0c-4.97-2.38-8.75-4.53-11.88-6.75l-20.05-14.21-12.71-24.36c-.15-20.41-.5-37.37-1.01-50.41l47.53-25.78c26.42,18.73,43.72,31.66,52.89,39.51l10.42,20.4c.15,1.81.31,3.95.31,6.38,0,5.03-.63,11.06-1.93,18.42-.99,5.57-1.02,7.71-1.02,7.94v17.28l-45.73,25.78Z"/>
    <path class="cls-1" d="m1475.27,803.16l-187.26-1.68-8.63-1.35c.16.03-1.18-.31-5.75-1.07-6.46-1.07-10.66-2.01-14.02-3.12l-20.64-28.6c0-13.82,6.47-26,17.76-33.41l17.28-4.93c.36,0,.81-.06,1.31-.19-.04-.9-.1-1.99-.2-3.28l-.07-1.26c-.43-12.86-.18-18.07.1-21.13.15-1.73.5-4.86,2.48-18.73,1.04-8.12,1.2-12.17,1.2-13.87,0-4.09,0-8.02-.02-11.89l45-26.29c3.54,2.01,6.42,3.81,8.8,5.49,17.78,12.6,31.76,22.82,41.56,30.37l11.74,23.87v19.77c1.03,3.1,2.21,6.65,3.53,10.64,3.27.49,6.88,1.06,10.87,1.7,9.26-1.29,18.68-2.67,28.04-4.1,6.27-1.08,10.3-2.36,12.77-3.39.46-.93,1.03-2.12,1.7-3.65,5.22-12.42,9.95-20.49,15.33-26.15,7.66-8.17,18.46-12.75,30.28-12.75,5.5,0,5.49-4.67,15.2-1.43l25.38,42.73c-2.96,10.44-5.92,20.81-8.89,31.1l-.09.3c-4.39,14.68-10.72,28.8-18.81,41.95l-25.94,14.35Zm-77.71-78.53c-.69.1-1.37.23-2.05.4l2.05-.4Zm5.59.05l1.13.22c-.37-.09-.75-.16-1.13-.22Zm36.46-5.23h0Z"/>
    <g>
      <path class="cls-2" d="m1063.74,499.55c7.24,3.73,11.49,7.7,12.76,11.92,2.53,9,4.36,20.6,5.48,34.8-1.27,1.83-2.11,3.03-2.53,3.58.2,2.02.38,4.29.55,6.76l14.19,10.06c1.67,1.18,4.16,2.57,7.46,4.15,3.3,1.58,5.78,2.96,7.46,4.15,3.34,2.37,6.48,5.68,9.41,9.92.62.38,3.68,2.23,9.16,5.54.36-4.81,1.29-17.4,2.8-37.83,1.13-16.31,3.16-29.38,6.12-39.23.98-3.23,3.51-6.12,7.59-8.64.42-.28,3.8-1.9,10.12-4.85,5.06-1.27,10.19-2.53,15.4-3.8,7.31-1.82,10.82-4.43,10.54-7.8h-105.65c-.98,0-3.3-.25-6.96-.74-3.66-.49-6.54-.74-8.64-.74-7.46,0-11.18,2.88-11.18,8.65,3.37-.98,8.68.39,15.92,4.11Z"/>
      <path class="cls-2" d="m1106.27,648.49c3.3,1.58,5.78,2.96,7.46,4.15,3.34,2.37,6.48,5.68,9.41,9.92.29.17,1.17.71,2.52,1.52v-17.28c0-3.23.49-7.62,1.48-13.18.98-5.55,1.47-9.94,1.47-13.18,0-1.26-.1-2.58-.21-3.9-8.36-7.17-25.25-19.76-50.7-37.81.53,13.4.88,30.52,1.04,51.39l20.06,14.22c1.67,1.18,4.16,2.57,7.46,4.15Z"/>
      <path class="cls-2" d="m1255.17,701.41c-3.51,0-6.32,1.13-8.43,3.38-2.67,2.81-5.84,8.57-9.49,17.29-3.52,8.01-6.47,12.94-8.86,14.76-6.61,4.64-16.1,8.01-28.47,10.12-10.12,1.55-20.24,3.03-30.37,4.43-1.69.42-3.45.42-5.27,0-10.41-1.69-18.42-2.88-24.04-3.59-4.5-.7-7.17-2.25-8.01-4.64-4.22-12.79-7.46-22.57-9.7-29.31v-24.65c-9.48-7.31-23-17.18-40.59-29.65-1.56-1.11-3.67-2.41-6.25-3.87.01,3.9.02,7.86.02,11.98,0,4.36-.49,10.33-1.47,17.92-1.41,9.84-2.18,15.61-2.32,17.29-.29,3.1-.29,8.93,0,17.5.56,7.46.42,12.65-.42,15.61-1.81,7.17-6.53,12.58-14.17,16.24-5.84,2.81-11.6,4.15-17.3,4.01-2.78,1.83-4.17,4.57-4.17,8.22,1.69.56,4.85,1.23,9.49,2,4.64.77,7.87,1.44,9.7,2l187.26,1.69c6.75-10.97,11.95-22.57,15.61-34.8,2.95-10.26,5.9-20.59,8.86-31-5.9-1.97-9.77-2.95-11.6-2.95Z"/>
    </g>
    <g>
      <path class="cls-2" d="m1296.98,499.55c7.24,3.73,11.49,7.7,12.76,11.92,2.53,9,4.36,20.6,5.48,34.8-1.27,1.83-2.11,3.03-2.53,3.58.2,2.02.38,4.29.55,6.76l14.19,10.06c1.67,1.18,4.16,2.57,7.46,4.15,3.3,1.58,5.78,2.96,7.46,4.15,3.34,2.37,6.48,5.68,9.41,9.92.62.38,3.68,2.23,9.16,5.54.36-4.81,1.29-17.4,2.8-37.83,1.13-16.31,3.16-29.38,6.12-39.23.98-3.23,3.51-6.12,7.59-8.64.42-.28,3.8-1.9,10.12-4.85,5.06-1.27,10.19-2.53,15.4-3.8,7.31-1.82,10.82-4.43,10.54-7.8h-105.65c-.98,0-3.3-.25-6.96-.74-3.66-.49-6.54-.74-8.64-.74-7.46,0-11.18,2.88-11.18,8.65,3.37-.98,8.68.39,15.92,4.11Z"/>
      <path class="cls-2" d="m1339.5,648.49c3.3,1.58,5.78,2.96,7.46,4.15,3.34,2.37,6.48,5.68,9.41,9.92.29.17,1.17.71,2.52,1.52v-17.28c0-3.23.49-7.62,1.48-13.18.98-5.55,1.47-9.94,1.47-13.18,0-1.26-.1-2.58-.21-3.9-8.36-7.17-25.25-19.76-50.7-37.81.53,13.4.88,30.52,1.04,51.39l20.06,14.22c1.67,1.18,4.16,2.57,7.46,4.15Z"/>
      <path class="cls-2" d="m1488.4,701.41c-3.51,0-6.32,1.13-8.43,3.38-2.67,2.81-5.84,8.57-9.49,17.29-3.52,8.01-6.47,12.94-8.86,14.76-6.61,4.64-16.1,8.01-28.47,10.12-10.12,1.55-20.24,3.03-30.37,4.43-1.69.42-3.45.42-5.27,0-10.41-1.69-18.42-2.88-24.04-3.59-4.5-.7-7.17-2.25-8.01-4.64-4.22-12.79-7.46-22.57-9.7-29.31v-24.65c-9.48-7.31-23-17.18-40.59-29.65-1.56-1.11-3.67-2.41-6.25-3.87.01,3.9.02,7.86.02,11.98,0,4.36-.49,10.33-1.47,17.92-1.41,9.84-2.18,15.61-2.32,17.29-.29,3.1-.29,8.93,0,17.5.56,7.46.42,12.65-.42,15.61-1.81,7.17-6.53,12.58-14.17,16.24-5.84,2.81-11.6,4.15-17.3,4.01-2.78,1.83-4.17,4.57-4.17,8.22,1.69.56,4.85,1.23,9.49,2,4.64.77,7.87,1.44,9.7,2l187.26,1.69c6.75-10.97,11.95-22.57,15.61-34.8,2.95-10.26,5.9-20.59,8.86-31-5.9-1.97-9.77-2.95-11.6-2.95Z"/>
    </g>
    <g>
      <path class="cls-2" d="m729.16,746.57c-.87.18-1.77.32-2.73.35,4.53-.08,5.41-.19,2.73-.35Z"/>
      <path class="cls-2" d="m705.76,729.62c-7.59-6.18-11.39-14.76-11.39-25.73,0-2.48.24-6.26.71-11.31l-10.78,3.29c-2,.1-5.49.6-10.46,1.5-4.97.9-8.38,1.37-10.24,1.42-.66-3.55.29-6.71,2.85-9.47,5.96-1.89,11.72-5.23,17.29-10.04,4.31-3.7,7.42-7.65,9.38-11.82.31-2.21.85-4.67,1.67-7.43.3-1.09.57-2.08.82-3.03.02-3.19-.8-7.8-2.46-13.85-1.85-8.23-2.91-13.9-3.18-17.02-.16-1.69,5.8,2.36,5.48-7.71-.36-7.73-.93-13.71-1.72-17.95-9.18-49.2,4.43-48.83-.46-65.04.34-.69,1-2.16,1.98-4.38-3.75-13.4-7.75-24.03-12.02-31.88-.46-.8-1.12-1.51-1.87-2.18-.16-5.97-.68-11.86-1.54-17.64-11.5.13-21.73.26-30.58.38-19.97.42-29.6.63-28.89.63-.28,4.22.14,7.1,1.26,8.64,5.62.56,9.21,1.62,10.76,3.16,5.48,5.21,9.63,10.76,12.44,16.66.7,1.55,1.12,3.52,1.27,5.9.28,4.22.42,7.59.42,10.12,4.92,12.23,7.38,23.13,7.38,32.69s-2.46,17.86-7.38,24.88c1.68,2.81,2.74,6.26,3.16,10.33.42,2.81.49,6.19.21,10.12-.28,5.63-.42,8.09-.42,7.38,0,5.06.18,12.55.53,22.46.35,9.91.53,14.8.53,14.66v50.62c0,8.58-2.6,17.79-7.8,27.62-1.12,1.97-4.57,4.99-10.33,9.07-5.77,4.08-9.07,7.38-9.91,9.91,10.68,2.25,15.96,3.37,15.82,3.37,3.23-1.41,5.76-2.67,7.59-3.8,3.09-.56,9.77-.63,20.03-.21,19.26,1.13,35.36,1.83,48.29,2.11,7.69.2,12.65.36,14.96.5,3.11-.64,5.73-2.19,7.81-4.71-20.66-8.01-31.07-12.09-31.21-12.23Z"/>
      <path class="cls-2" d="m796.66,578c-1.41,3.8-2.4,6.75-2.95,8.86-7.45,10.55-16.24,15.82-26.36,15.82h-27c-.98,0-3.48-.38-7.49-1.16-4.01-.77-6.29-1.16-6.85-1.16h-11.92l2.61,28.46c.83-.15,1.49-.36,1.93-.62h31.21c13.92,0,22.63.5,26.15,1.48,5.9,1.83,9.98,6.33,12.23,13.5,1.27,5.77,2.53,11.53,3.79,17.29,6.75.56,10.34-1.13,10.76-5.06,2.95-29.95,4.64-49.98,5.06-60.1-.56-8.3-1.2-14.62-1.9-18.98-4.64-.14-7.73.42-9.28,1.69Z"/>
      <path class="cls-2" d="m816.69,480.36c-10.55-1.4-18.98-2.11-25.31-2.11-24.53.22-46.61.42-66.3.62-.24.21-.42.38-.49.46-3.79,3.91-5.9,7.61-6.34,11.1-.55,4.55-.8,9.65-.79,15.24h25.83c21.93,0,36.17.95,42.71,2.85,6.54,1.9,11.14,7,13.81,15.29,1.26,4.08,2.32,11.11,3.16,21.09,4.08,0,6.4-.07,6.96-.21,3.51-3.23,5.34-6.05,5.48-8.44,2.11-30.65,2.53-49.28,1.27-55.88Z"/>
    </g>
    <path class="cls-2" d="m1028.95,737.77c-7.17-2.67-11.18-4.85-12.03-6.53-3.38-6.33-5.77-10.68-7.18-13.07-4.08-10.4-7.11-18.48-9.07-24.25-.43-1.97-.57-3.51-.42-4.64-2.68-4.64-4.78-8.08-6.33-10.33-4.36-10.4-7.39-17.43-9.07-21.08-.7-2.39-1.06-4.14-1.06-5.27-2.25-7.31-3.59-12.93-4.01-16.87-6.19-17.29-10.77-30.78-13.72-40.48-4.31-9.86-7.57-17.33-9.79-22.4-1.83-6.32-2.39-9.98-1.69-10.96-3.66-5.62-6.61-11.74-8.86-18.34-1.27-5.2-2.04-9.13-2.32-11.8-9.42-23.05-15.97-39.85-19.62-50.39-11.11-.84-19.41-1.34-24.9-1.48-5.77-.42-9.07-.14-9.91.84-1.69,3.37-2.74,5.98-3.16,7.8-3.66,8.43-6.12,14.76-7.39,18.98-1.41,4.92-2.46,8.58-3.16,10.97-5.07,10.83-8.09,18.98-9.07,24.46-4.08,11.53-7.25,20.24-9.49,26.15-.28,2.53-.42,4.5-.42,5.91.7-2.11,1.19-3.37,1.48-3.8.14,0,.21.21.21.63,0,2.39-.7,6.32-2.11,11.81-1.55,6.05-2.82,9.07-3.8,9.07-.7,0-1.26-1.12-1.69-3.38-.84,1.13-1.55,1.97-2.11,2.53-6.18,19.12-10.9,33.53-14.13,43.23-4.36,13.22-7.94,23.06-10.75,29.52-4.22,13.64-7.38,23.83-9.49,30.58-4.92,10.83-8.58,18.81-10.97,23.94-2.39,5.13-5.2,8.75-8.44,10.86-3.66,3.37-6.26,6.12-7.8,8.22-4.22,3.09-6.33,5.48-6.33,7.17,0,.56.14,1.19.42,1.9,9.98,1.27,15.11,1.9,15.39,1.9,6.75-.84,11.74-1.69,14.97-2.53,15.32.26,27.06.61,35.22,1.06,5.2-.98,9.28-1.9,12.23-2.74-.71-1.12-1.62-2.66-2.74-4.63-1.55-.42-2.67-.77-3.38-1.05-2.67-.98-5.87-3.01-9.6-6.1-3.73-3.08-5.87-5.33-6.43-6.73-.98-2.39-.98-6.87,0-13.46,1.4-9.4,2.11-13.6,2.11-12.62-.14-1.82,1.4-7.64,4.64-17.46,2.53-6.03,4.5-10.59,5.91-13.68,2.15-4.61,4.42-7.4,6.82-8.41-.16-.3-.32-.63-.48-.93-.46-.8-1.12-1.51-1.87-2.18-.18-6.95-.84-13.8-1.97-20.49l8.24-2.68c-.02-1.32-.06-2.14-.13-2.45,1-1.72,1.84-3.14,2.49-4.16,1.42-5.9,2.48-10.46,3.19-13.7,1.27-2.53,2.4-4.49,3.4-5.9.57-3.79.92-6.88,1.06-9.27,1.4-3.66,2.59-6.47,3.57-8.44,1.12-4.36,1.89-7.6,2.31-9.71,1.12-1.82,2.1-3.16,2.95-4.01,6.17-11.81,11.79-23.49,16.84-35.02,2.1,5.48,3.58,9.7,4.42,12.65,2.81,6.32,5.05,11.18,6.74,14.55,3.51,11.11,6.11,19.48,7.79,25.1,2.85,7.84,5.29,14.54,7.35,20.18l9.54-3.11c.8,2.8-1.58,6.05-7.1,9.77,3.65,9.97,5.53,15.04,5.61,15.12h-28.6c-2.71,2.31-4.21,3.62-4.47,3.91-3.79,3.91-5.9,7.61-6.34,11.1-.33,2.74-.56,5.68-.69,8.8l12.89-.18c20.66-1.12,32.19-1.69,34.58-1.69,1.69,0,2.6.42,2.74,1.27,0,2.95,1.13,7.24,3.38,12.86,2.81,7.03,4.35,11.04,4.64,12.02,3.79,16.31,6.61,28.54,8.44,36.69.7,1.69.49,4.01-.63,6.96-1.13,2.95-2.74,5.06-4.85,6.33-5.06,1.69-9,2.67-11.81,2.95-.71,2.95-.92,6.54-.63,10.75,2.11,2.39,6.32,3.02,12.65,1.9,11.39-2.11,27.27-3.16,47.66-3.16h16.87c-.57,0,3.23.35,11.39,1.06,4.92.42,8.65.07,11.18-1.06v-5.7c-4.08-1.4-7.18-2.46-9.29-3.16Z"/>
    <path class="cls-1" d="m590.29,451.39v-7.22c-.55.44-1.11.85-1.67,1.25l-.41,5.9c-.7-.04-3.18-.17-7.43-.38l-.99-.07c-1.81-.15-3.2-.24-4.24-.29-6.5.93-12.88-.29-18.35-3.19-5.74.64-10.27.54-29.03-4-16.02-3.91-27.54-8.52-36.27-14.53-12.77-8.71-14.93-23.25-17.02-37.32l-.05-.37c-1.32-9.72-1.96-21.05-1.96-34.63,0-12.73.68-23.07,2.08-31.64l34.88-24.15,25.15,9.36c8.64,10.82,8.19,23.65,8.05,27.87l-.1,3.64c.42,1.99.91,4.32,1.48,6.99.46.68,1.05,1.54,1.81,2.62l.91,1.37c.15.23,1.4,2.17,5.67,6.92,1.1.56,3.04,1.36,6.23,2.16l1.36.37c4.24,1.27,8.58,2.64,12.89,4.07,3.19.89,4.52.98,4.58.99l2.86.8c1.78-.26,3.48-.38,5.18-.38,2.99,0,5.71.38,10.46,1.4,2.33-1.13,4.63-1.98,7.01-2.58l1.11-.26c2.03-.43,4.53-.96,7.5-1.57.12-.23.24-.47.37-.71l.84-4.06c.58-2.06,1.35-4.11,2.45-6.45-.41-.69-.94-1.57-1.62-2.65-.62-.45-1.29-.92-1.99-1.42l-1.39-1.05c-9.38-7.55-18.15-12.71-26.06-15.35l-5.78-2.63c-1.73-1.02-5.06-2.9-11.17-6.12-8.22-3.6-19.35-9.77-34.72-19.27-1.16-.5-2.44-1.08-3.88-1.75l-6.52-4.14c-5.84-4.86-11.5-10.76-17.32-18.04-7.52-9.47-9.18-11.47-9.51-11.86.55.64.97,1.05,1.19,1.27l-8.82-21.31c0-.11,0-.33-.01-.65-.33-.69-.68-1.41-1.05-2.18l-2.95-12.99c0-1.2-.07-4.07-.53-9.81l1.56-5.38h1.59l-1.17-1.44,3.45-11.88,4.18-5.12-6.06-.83c.13-.92.28-1.87.45-2.86-.71,1.06-1.33,2.15-1.86,3.25.09-.19.56-1.2,2.17-4.94.71-3.61,1.73-7.71,3.1-12.41l1.39-3.8c2.55-5.76,6.01-9.95,17.64-21.35l4.27-.71,2.96-4.19c16.87-16.13,32.86-26,48.89-30.16,11.57-2.94,25.65-4.34,43.22-4.34,2.1,0,2.8,0,24.73,2.51,10.21,1.17,15.21,1.72,17.65,1.98,1.35-.17,3.2-.42,5.56-.74,9.2-1.25,11.28-1.43,13.65-1.43,20.54,0,36.03,15.13,36.03,35.19l-.12,2.73-3.04,33.43v16.98c0,1.02,0,1.33-.48,9.2-.33,5.41-.36,7.61-.36,8.31l-30.13,30.13c9.06,0,15.18-4.07,16.37-4.93-6.01,4.35-12.88,6.62-19.96,6.62h-.96c13.27,8.62,23.79,17.89,31.74,27.92,7.23,9.09,12.19,19.75,14.72,31.64,2.26,10.6,3.4,21.51,3.4,32.41,0,7.06-1.96,15.33-6.77,28.55-5.35,14.68-8.28,20.16-11.27,24.25l-1.07,1.38c-7.85,9.52-16.38,18.04-25.35,25.31l-.27.22c-6.93,5.49-15.54,9.9-25.59,13.11-19.99,6.28-39.28,9.44-57.45,9.44Z"/>
    <path class="cls-1" d="m582.5,368.4l9.78,2.74c.07-.04.14-.08.2-.13-1.5-.78-5.02-2.32-9.98-2.62Z"/>
    <path class="cls-1" d="m545.33,353.06l.36,2.03c-.1-.71-.22-1.39-.36-2.03Z"/>
    <path class="cls-1" d="m485.02,343.27c.47.92,1.03,1.89,1.71,2.88l2.26-2.73-3.97-.15Z"/>
    <path class="cls-1" d="m587.61,211.76c.85.77,1.75,1.61,2.73,2.49l1.01.96c4.7,4.7,14.3,11.94,33.4,19.81,11.84,4.85,22.48,9.91,31.96,15.21l-22.4-20.4c-.23-2.4-.79-7.02-2.2-15.49-2.47-8.47-5.84-9.67-7.88-10.4-.13-.04-5.97-1.97-26.48-2.03-.93.19-3.33.77-7.97,2.35-.47.39-1.64,1.45-3.34,3.75.23.94.59,2.17,1.17,3.74Z"/>
    <path class="cls-1" d="m513.32,242.77l-.11.07c1.84-.06,3.72-.29,5.65-.7v-.03c-1.99.42-3.86.61-5.54.66Z"/>
    <path class="cls-1" d="m487.48,229.55c3.4,5.07,8.66,9.4,15.09,11.65l2.86-.2-11.54-14.16-6.4,2.72Z"/>
    <path class="cls-1" d="m589.18,204.47s-.03,0-.03,0c0,0,.01,0,.03,0Z"/>
    <path class="cls-1" d="m514,201.54l.9.38,3.03-13.43-4.7-5.92c-2.33-.07-4.61.16-6.78.62l.03-.04c2.11-.43,4.36-.65,6.74-.59l-7.09-8.92c-.77,3.35-.94,6.64-.62,9.76-5.77,1.4-10.81,4.45-14.58,8.26l6.36,2.73,8.31-10.17c.9,6.88,4.15,12.95,8.4,17.32Z"/>
    <path class="cls-1" d="m503.15,299.73c.67-.08,1.59-.25,2.76-.47l1.19.45c-2.23-.17-3.72,0-3.95.02Z"/>
    <path class="cls-1" d="m484.76,215.65l-2.42-2.96,4.63-5.67c-1.19,2.65-1.95,5.6-2.21,8.63Z"/>
    <path class="cls-1" d="m703.76,447.28c-3.66,0-7.39-.45-11.16-1.34l-.43-.1c-16.91-4.26-27.84-17.72-27.84-34.29,0-3.02.37-6.03,1.1-8.96l2.28-6.17c4.77-9.56,13.31-15.71,25.39-18.29.15-1.22.32-2.66.5-4.35.64-5.8,1.4-14.37,2.28-25.65-.48-7.16-.8-16.72-.97-29.11l.11-2.99c.24-2.84.84-5.53,1.72-8.17-.52-2.68-.78-5.44-.78-8.25v-20.7c0-4.38.03-7.67.07-9.87,0-.13,0-.27,0-.41-1.34-8.31-1.05-17.5.9-27.85l-2.03-6.02v-17.94h29.02l-25.26-13.97c-.64,1.15-2.71,5.39-2.71,11.63v-26.56c-1.2-.19-2.56-.39-4.11-.59l-24.72-20.38c-1.29-3.9-1.95-7.81-1.95-11.61,0-9.7,3.78-18.67,10.65-25.23,5.25-5.01,14.77-10.83,30.12-10.15l.34.02,32.68,1.85h13.59c.49-.08,1.06-.17,1.73-.28,4.42-.71,8.36-1.05,12.08-1.05,22.64,0,27.55-.36,28.31-.43l27.29,12.59,8.15-10.76c9.83-2.77,22.82-3.23,41.72-1.42,1.17-.16,2.42-.3,3.74-.43l5.23-.03c2.03.17,4.32.35,6.73.68,9.75-.33,23.06-.86,40.57-1.6l31.41,30.1c0,5.53-.66,10.96-1.95,16.14l-32.45,22.67c-2.05-.22-3.8-.08-5.53.46-2.46,2.26-5.58,5.11-9.42,8.59l-5.18,3.77s-.04.02-.06.03c-9.49,10.28-22.27,24.03-38.93,41.87l-6.83,4.57h.01c-.67.61-4.5,4.21-20.64,21.09,1.75,1.78,3.49,3.6,5.23,5.44l1.82,3.7c4.11,4.07,10.07,9.74,17.76,16.89,2.06,1.28,4.61,2.91,7.71,4.91l1.1.75c5.44,3.86,11.96,10.15,21.8,21.04.9.99,1.81,1.87,2.76,2.67,1.68.92,3.76,2.08,6.25,3.47l9.82,8.79c.94,1.32,2.16,2.98,3.65,4.99,2.11,1.81,6.77,5.73,16.99,14.21l3.23,3.12c2.55,2.86,7.74,8.02,17.95,16.4l.8.81c1.49.65,3.18,1.39,5.07,2.2.58.03,1.19.06,1.84.08l23,12.29c5.41,7.38,8.15,16.28,8.15,26.46l-30.72,30.13-32.18-.63h-19.24l-32.61.63-26.74-15.17c-4.79-8.38-6.36-17.51-4.74-26.09-6.32-5.75-14.54-12.94-24.46-21.37l-2.82-2.73c-1.37-1.51-3.97-4.25-8.76-8.97-3.38-2.33-7.04-5.16-11.07-8.54.06.49.11.99.17,1.5.68,2.82,1.49,6.42,2.47,10.92,3.96.99,8.24,2.44,13.06,4.38l18.82,26.78c.19,5.02.78,20.32-11.91,30.86l-17.67,6.91c-.66.04-3.42.23-11.08,1.25l-4,.27h-18.98c-3.11,0-5.27-.39-11.04-1.43-1.45-.26-2.59-.46-3.4-.55.75.08,1.35.06,1.79.08l-2.69-.12s0-.01-.55,0c-.95,0-3.21.06-7.43.48-4.35.57-7.02.93-8.02,1.08,2.54-.4,5.06-1.18,7.48-2.31l-2.87-28.13-2.16.17c-2.34,3.17-4.87,6-7.61,8.47v22.26h-23.95c-2.24.35-4.52.53-6.82.53Z"/>
    <path class="cls-1" d="m744.31,415.85l3.63,27.75c7.2-3.61,13.3-10.28,15.65-18.95-3.64-2.7-6.97-5.89-9.94-9.53l-9.35.73Z"/>
    <path class="cls-1" d="m847.82,397.98c.14,1.1.33,2.13.56,3.09.12-.37.25-.75.39-1.12l-.94-1.98Z"/>
    <path class="cls-1" d="m701.05,387.25c-.61.1-1.26.25-1.93.45l2.01-.29-.08-.16Z"/>
    <path class="cls-1" d="m701.35,387.2l.08.16,2.42-.34c-.8.03-1.57.04-2.5.18Z"/>
    <path class="cls-1" d="m871.01,380.74c-1.67.92-3.43,2.15-5.11,3.7l5.49-3.26-.38-.43Z"/>
    <path class="cls-1" d="m786.69,321.26c-.04.09-.45.91-.82,2.38l.6.15c.73-.52,1.42-1.06,2.07-1.61l-1.85-.93Z"/>
    <path class="cls-1" d="m837.79,312.96l.4.25c-.11-.17-.22-.33-.33-.5l-.06.25Z"/>
    <path class="cls-1" d="m726.63,298.24l10.67,3.3c.22-2.38.61-4.89,1.26-7.43,4.44-1.96,8.16-4.92,11.03-8.4-1.55-1.32-3.4-2.59-5.5-3.68.24-.32.48-.64.73-.96l-4.51-2.04c-.78-5.62-1.21-10.59-1.3-15.05l-12.58,3.19,1.05,11.6c-2.27.22-4.63.72-7.04,1.55l6.18,17.93Z"/>
    <path class="cls-1" d="m848.21,282.85l3.37,6.82c-.69-4.27-2.18-6.88-2.47-7.36l-.9.54Z"/>
    <path class="cls-1" d="m697.37,242.05c.17,3.91,1.37,7.29,2.84,9.7.09-.16.18-.32.27-.48l-3.11-9.23Z"/>
    <path class="cls-1" d="m854.82,250.23l-.22.15c.08-.03.17-.06.25-.1l-.03-.05Z"/>
    <path class="cls-1" d="m698.29,234.75c-.17.55-.31,1.11-.43,1.66l.43-1.66Z"/>
    <path class="cls-1" d="m801.26,188.53c-.71,3.91-1.64,9.15-2.77,15.71.39-.27,1.01-.72,1.91-1.39,8.84-8.56,16.07-16.01,21.55-22.19l-4.07-2.06c-1.06-1.06-2.01-2.14-2.85-3.25l-10.19,12.46-3.58.72Z"/>
    <path class="cls-1" d="m1012.87,448.21l-25.9-13.43c.13.2.28.42.47.66-.13-.16-.28-.34-.46-.53l-7.5-22.24c1.62-21.65,20.96-28.94,33.34-32.38.07-.1.15-.21.22-.33,1.36-2.07,2.08-3.55,2.46-4.46l-2.59-12.8c.24-2.09.53-5.85.72-12.47l-2.25-7.81c-.33-3.38-.78-10.12-.78-29.6,0-4.46-.22-8.58-.64-12.31-.66-1.09-1.37-2.29-2.14-3.58-2.08-2.69-4.67-6.25-8-11l-.99-1.51c-7.27-11.83-17.9-28.96-31.87-51.41-6.75-8.49-15.72-20.61-27.34-36.98l-1.47-2.27c-.43-.75-1.6-2.61-4.21-6.15l-9.73-3.51-19.63-24.37c-1.25-9.39,1.23-18.44,6.99-25.5,5.72-7.01,13.98-11.24,23.28-11.9l.64-.04c1.25-.06,4.58-.23,68.29-2.14h1.87c4.25.14,10.55.28,18.92.41l18.45,6.69c7.78,6.29,12.25,15.53,12.25,25.34,0,8.58-3.42,15.16-7.34,20.08l1.97,3.78c.03.08.56,1.92,2.79,6.88,4.46,7.4,8.76,14.28,12.86,20.61,1.48-3.19,2.94-6.1,4.39-8.75.45-1.54.98-3.35,1.59-5.41l4.07-8.51c.2-.29.77-1.16,1.77-2.94.08-.36.15-.71.22-1.04-.06-.04-.11-.08-.17-.13l-7.34-41.07c1.93-2.9,4.3-5.48,7.45-8.11l17.72-6.96c5.82-.31,17.17-.39,48.97,2.26,7.19-1.16,16.21-2.16,27.42-3.05l32.52,30.04c0,2.37-.22,4.9-.72,8.47l-22.77,25.04c-.1.02-2.13.53-7.5,2.95-1.55,1.67-4.17,4.75-8.08,10.09-4.18,7.89-10.21,19.06-17.95,33.25l-5.15,6.88s-.27.27-.84.9c-.92,1.75-2.98,5.85-6.96,14.69-1.7,4.03-4.27,9.47-8.06,17.06l-3.44,5.38c-2.05,2.56-5.03,6.56-8.87,11.91-.31,1.29-.76,3.46-1.3,6.86-.13.97-.58,5.35-.11,17.05v2.01c-.12,5.08-.11,13.86.02,26.08.14,9.18.21,18.41.21,27.35.23,7.95,1.1,12.94,1.85,15.81,3.35,1.5,6.88,3.37,10.63,5.65l7.01,12.45c1.25,1.78,2.27,3.62,3.08,5.46l4.42,7.85c0,9.63-3.45,18.14-9.26,24.32-4.48,5.14-11.17,9.16-20.65,10.21-.66.08-1.33.13-2.01.18l-1.92-28.6-11.91,19.65c-2.98-1.81-4.28-2.29-4.33-2.31.15.06.3.1.44.13l-7.6-3.24c-.12-.07-.24-.15-.36-.22,5.32,8.65,14.67,13.89,23.42,14.27-.99-.04-2.88-.05-5.66-.05h-.9s-20.85-.64-20.85-.64c-5.41,0-9.86,0-13.78-.33-5.22.52-11.88.69-20.84.55l-30.55.83Z"/>
    <polygon class="cls-1" points="1099.91 413.46 1105.37 413.46 1104.29 397.32 1100.19 404.14 1099.91 413.46"/>
    <path class="cls-1" d="m1084.76,398.38c-3.37,4.3-5.41,9.57-5.41,15.07h20.43v-8.65l-1.9,3.16,1.9-6.98v-12.22c-5.55,1.48-10.95,4.82-15.03,9.61Z"/>
    <path class="cls-1" d="m1100.66,388.56l-.31,10.38,2.95-10.85c-.88.11-1.76.26-2.64.47Z"/>
    <path class="cls-1" d="m1047.29,387.17c2.9.03,5.1,0,6.77-.05-.37-2.34-.68-4.75-.93-7.25l-5.73,3.44-.11,3.87Z"/>
    <path class="cls-1" d="m1115.21,384.47v.04s0-.03,0-.04Z"/>
    <path class="cls-1" d="m1067.04,223.64l6.49.56c-.91-.22-1.87-.4-2.88-.52-1.23-.1-2.44-.11-3.62-.04Z"/>
    <path class="cls-1" d="m1044.28,165.69l.18.35c-.07-.15-.13-.28-.18-.35Z"/>
    <g>
      <path class="cls-2" d="m526.57,228.76c2.84,1.45,7.89,2.52,15.17,3.21,8.35,1.2,14.03,2.23,17.03,3.09,1.63.45-4.26,4.58,5.26,7.86,7.34,2.42,13.14,4.01,17.38,4.78,1.24.23,2.43.46,3.61.69-5.83-3.79-10.85-7.74-14.98-11.86-3.24-2.95-5.76-5.27-7.59-6.96-4.36-9.28-6.54-17.22-6.54-23.83,0-4.07,1.12-7.87,3.37-11.39,6.32-9.84,13-15.95,20.03-18.35,8.15-2.81,13.92-4.22,17.29-4.22,18,0,30.58,1.26,37.75,3.8,13.78,4.92,22.84,15.68,27.2,32.26,1.4,8.3,2.32,14.69,2.74,19.19h4.85c.7,0,1.44-.28,2.22-.84.77-.56,1.23-.84,1.37-.84,0-2.11.14-5.48.42-10.12.28-4.64.42-7.1.42-7.38v-18.35l3.16-34.8c0-3.37-1.97-5.06-5.9-5.06-.71,0-3.9.39-9.6,1.16-5.7.77-8.83,1.16-9.39,1.16-.71,0-7.8-.77-21.3-2.32-13.5-1.54-20.6-2.32-21.3-2.32-14.9,0-26.78,1.13-35.64,3.37-10.83,2.81-22.7,10.41-35.64,22.78-1.26,2.79-2.09,5.1-2.52,6.91-.17-.18-1.64-.93-4.44-2.28-6.89,6.75-10.62,10.76-11.18,12.02-1.55,5.34-2.53,9.56-2.95,12.65-2.95,6.89-4.42,10.2-4.42,9.91,0-.13.64,1.33,1.92,4.35,3.1,5.43,7.15,9.35,12.17,11.72Z"/>
      <path class="cls-2" d="m571.45,420.41c-.11,0-.25,0-.35,0,.14.42.26.39.35,0Z"/>
      <path class="cls-2" d="m683.64,319.65c-2.3-4.93-5.01-8.22-8.12-9.87-9.47-4.98-22.11-9.53-37.93-13.64-24-6.37-36.89-9.8-38.66-10.27-7.91,1.67,23.25-5.58,16.95-6.72-3.15-.57-7.4-1.89-12.77-3.95-5.37-2.07-9.62-3.38-12.76-3.95l-44.34-12.38c-4.4.85-10.21,1.96-17.22,3.29,4.46,5.57,8.79,10.11,12.98,13.59,2.11.99,3.72,1.69,4.85,2.11,15.61,9.7,26.92,16.03,33.95,18.98,5.9,3.1,10.4,5.56,13.5,7.38,11.39,3.8,23.2,10.62,35.43,20.46,2.95,2.11,5.2,3.73,6.75,4.85,5.06,7.73,7.94,12.72,8.65,14.97,1.27,3.66,1.9,8.08,1.9,13.28,0,.71-.71,2.32-2.11,4.85-1.41,2.53-2.25,4.29-2.53,5.27-.29,2.11-.42,3.66-.42,4.64-1.83,3.52-3.23,6.19-4.21,8.01-2.4,6.75-5.56,10.55-9.49,11.39-7.59,1.55-13.36,2.74-17.29,3.58-1.13.29-2.78,1.23-4.96,2.85-2.18,1.62-3.55,2.42-4.11,2.42s-3.16-.53-7.8-1.58c-4.64-1.05-7.31-1.58-8.01-1.58-.56,0-1.41.14-2.53.42-1.13.28-1.97.42-2.53.42-.71,0-1.76-.42-3.16-1.26-3.51,0-7.94-.77-13.28-2.32-4.22-1.4-8.44-2.74-12.66-4.01-7.87-1.97-14.13-4.78-18.77-8.44-5.48-5.9-9.28-10.54-11.39-13.92-3.66-5.2-5.56-8.29-5.7-9.28-1.41-6.61-2.46-11.6-3.16-14.97,0,.14.07-2.32.21-7.38.14-3.93-.35-6.61-1.48-8.01-3.8.7-6.05.98-6.75.84-1.13,6.89-1.69,15.82-1.69,26.78,0,12.09.56,22.28,1.69,30.58,1.54,10.41,2.95,16.03,4.22,16.87,5.48,3.8,14.27,7.17,26.36,10.12,9.28,2.25,15.26,3.38,17.93,3.38,2.53,0,4.21-1.27,5.06-3.8-3.94-1.69-6.05-2.67-6.33-2.95,1.82-1.82,3.79-2.74,5.9-2.74,5.76,0,10.4,1.69,13.92,5.06,0,4.14-.1,6.57-.28,7.37,2.4-.11,5.98.03,10.83.43,5.62.28,8.29.42,8.01.42,15.18,0,31.28-2.67,48.29-8.01,6.61-2.11,11.95-4.78,16.03-8.01,7.45-6.05,14.48-13.07,21.09-21.09,1.54-2.11,3.97-7.7,7.27-16.77,3.3-9.07,4.96-15.15,4.96-18.24,0-8.3-.84-16.47-2.44-24.52-1.07-2.99-1.69-4.65-1.85-4.97Z"/>
    </g>
    <g>
      <path class="cls-2" d="m807.79,240.23c2.56,1.31,6.96,2.3,13.14,3,10.31-10.72,16.63-17.09,18.83-18.94,1.69-.98,3.09-1.69,4.22-2.11,17.85-19.12,31.71-34.02,41.54-44.71,1.97-1.27,3.45-2.18,4.43-2.74,5.9-5.34,10.12-9.21,12.65-11.6,8.01-4.36,16.59-6.04,25.73-5.06.7-2.81,1.05-5.76,1.05-8.86-18.56.79-32.9,1.35-43.02,1.69.14-.11-2.53-.39-8.01-.84-2.39.22-4.15.51-5.27.84-16.74-1.82-28.33-1.82-34.8,0,0,3.66.28,5.77.84,6.33,3.65.56,7.31,1.05,10.97,1.47,4.5.71,8.15,2.64,10.97,5.8,2.81,3.16,3.23,6.72,1.26,10.65-2.81,5.63-5.33,10.06-7.57,13.29-3.93,4.92-6.8,8.37-8.63,10.33-6.46,7.45-15.15,16.45-26.09,26.99-2.95,2.25-5.12,3.8-6.52,4.64-1.94,2.27-4.57,5.18-7.85,8.68.69.41,1.39.8,2.12,1.15Z"/>
      <path class="cls-2" d="m953.43,407.55c-6.89-2.95-11.88-5.13-14.97-6.54-1.41-1.27-2.39-2.25-2.95-2.95-9.42-7.73-16.52-14.27-21.3-19.61-12.37-10.26-19.05-15.89-20.03-16.87-2.53-3.38-4.5-6.05-5.9-8.01-3.52-1.97-6.19-3.45-8.01-4.43-3.1-2.25-5.98-4.85-8.65-7.8-7.87-8.72-13.5-14.27-16.87-16.66-4.36-2.81-7.59-4.85-9.7-6.12-9.7-8.99-16.94-15.89-21.72-20.67-.84-1.4-1.34-2.53-1.48-3.37-6.89-7.31-13.78-13.99-20.67-20.03-1.11-.74-2.08-1.35-2.96-1.85-8.66-.76-17.08-.32-25.28,1.35l.09-1.25c-1.58,1.23-2.57,1.98-2.85,2.17-1.12-8.14-1.33-14.25-.63-18.32-1.4-8.56-2.11-12.91-2.11-13.05.3-5.33.65-9.61,1.06-12.84-.99-2.81-1.34-5.26-1.06-7.37,0-.42.42-1.12,1.26-2.1.85-.98,1.27-1.62,1.27-1.9,0-1.82-.56-4.21-1.69-7.16-.7-2.52-.99-4.21-.84-5.05,1.86-10.95,3.3-19.16,4.3-24.63,1.01-7.16,1.65-11.02,1.94-11.58,3.01-4.91,7.24-8.28,12.7-10.11,4.16-.84,8.32-1.68,12.48-2.52v-2.11c.14-1.12.21-1.75.21-1.89,0-1.4-.5-2.81-1.48-4.21-3.93.38-14.34.57-31.21.57-2.11,0-4.53.22-7.28.67-2.74.44-4.18.66-4.32.66h-16.66l-33.53-1.9c-6.19-.28-9.28,1.48-9.28,5.28,0,.56.14,1.27.42,2.11,9.77,1.27,16.69,2.89,20.73,4.86,2.93,1.41,5.38,5.14,7.33,11.19,1.54,4.79,2.3,8.87,2.3,12.25v28.73c0,.71-.35,1.69-1.05,2.96v17.32c2.25,2.96,2.95,5.85,2.11,8.66-2.11,9.57-2.36,17.32-.75,23.23-.2-.85-.3,3.24-.3,12.25v20.7c0,2.68.7,4.97,2.11,6.86,1.4,1.9,2.11,2.64,2.11,2.22-3.37,4.93-5.13,8.24-5.27,9.93.17,13.1.53,22.95,1.05,29.57-.98,12.82-1.83,22.39-2.53,28.73-.99,9.44-2.04,15.21-3.16,17.32-2.95,5.21-6.33,8.8-10.12,10.77-1.69.85-4.85,1.62-9.49,2.32-3.52.56-5.55,1.41-6.12,2.54-.14.56-.21,1.13-.21,1.69,0,2.54,1.69,4.22,5.06,5.07,2.95.7,5.62.7,8.01,0h26.99c-.42,0,2.81-.45,9.7-1.35,6.32-.64,11.03-.82,14.13-.55,1.12,0,3.44.32,6.96.95,3.51.63,5.41.95,5.69.95h18.98c6.32-.85,10.82-1.34,13.5-1.47.84-.7,1.19-2.88,1.05-6.53-5.2-2.1-9.42-3.37-12.65-3.79-7.59-1.4-13.5-5.68-17.72-12.84-.7-3.93-.98-7.02-.84-9.26-1.13-5.19-2.04-9.19-2.74-12-.99-8.42-1.69-14.74-2.11-18.95.21-9.4.42-16.49.63-21.26-.71-8.28-1.27-14.45-1.69-18.52-.56-7.44,0-11.72,1.69-12.84,4.52,3.1,7.91,5.7,10.17,7.81,3.95,3.23,6.99,5.55,9.11,6.96,3.53,4.5,5.93,7.73,7.2,9.7,3.39,1.97,6.08,3.24,8.05,3.8,1.41,1.55,2.4,2.81,2.96,3.8,2.97,1.69,5.3,2.88,6.99,3.58.71-1.4,1.2-2.67,1.48-3.8-1.55-.42-2.32-1.12-2.32-2.11,1.69-.14,3.23.74,4.64,2.64s2.46,2.99,3.16,3.27c5.34,1.55,8.72,3.73,10.12,6.54-3.37-.84-5.13-1.34-5.27-1.48l-4.85-1.69c.14,0-.91.28-3.16.84,5.06,4.36,9.35,7.66,12.87,9.91,5.34,5.2,9.35,9.28,12.02,12.23,13.07,11.11,23.27,20.11,30.58,27,3.09,2.95,4.71,4.99,4.85,6.12,3.79,3.94,6.75,6.75,8.86,8.43.28.84.42,1.62.42,2.32,0,2.11-3.09,3.45-9.28,4.01-1.41,2.11-1.27,4.64.42,7.59l32.9-.63h19.82l32.48.63c0-3.65-.78-6.54-2.32-8.65-3.23-.14-5.77-.28-7.59-.42Z"/>
    </g>
    <g>
      <path class="cls-2" d="m1145.55,153.64c-24.46-2.11-40.7-2.95-48.71-2.53-.85.7-1.41,1.27-1.69,1.69,3.09,2.25,5.34,3.66,6.75,4.22,4.92,3.24,7.38,8.01,7.38,14.34,0,1.55-1.13,7.38-3.37,17.5-2.11,4.08-3.94,7.24-5.48,9.49-1.13,3.8-1.97,6.68-2.53,8.65-2.11,3.52-4.36,8.01-6.75,13.5-.87,1.33-1.66,2.51-2.4,3.56.01,1.32.19,2.65.56,3.99.57,2.4,2.74,6.14,6.5,11.24,3,4.47,5.18,7.9,6.56,10.32,1.84-3.81,3.24-6.85,4.17-9.08,5.06-11.25,8.44-18.06,10.12-20.46,1.68-1.97,3.02-3.44,4.01-4.43,8.44-15.46,14.69-27.06,18.77-34.79,6.88-9.56,12.44-16.03,16.66-19.4,7.59-3.65,13.42-5.97,17.5-6.96.28-1.97.42-3.37.42-4.22-12.38.98-21.86,2.11-28.47,3.37Z"/>
      <path class="cls-2" d="m1107.24,417.78c-.4.16-.82.28-1.33.31,1.88-.14,2.32-.24,1.33-.31Z"/>
      <path class="cls-2" d="m1086.5,393.63c-2.39-7.03-3.73-16.03-4.01-26.99,0-9.14-.07-18.28-.21-27.42-.14-12.65-.14-21.72,0-27.2-.42-10.4-.29-17.99.42-22.78,1.4-8.86,2.88-14.48,4.43-16.87.19-.27.37-.52.56-.78l-9.91-20.06c-.85-.69-1.78-1.45-2.76-2.25-2.64,3.43-5.14,4.88-7.5,4.32-2.39.14-5.69-2.61-9.91-8.24-9.42-12.54-19.97-28.53-31.63-47.97-2.53-5.49-4.22-9.72-5.06-12.68-4.08-5.07-6.12-10.57-6.12-16.48,0-3.66,1.72-7,5.17-10.04,3.44-3.03,5.16-4.9,5.16-5.6s-.35-1.34-1.05-1.9c-8.58-.14-15.05-.28-19.4-.42-42.32,1.27-64.88,1.97-67.69,2.12-1.97.14-2.81,1.27-2.53,3.38,3.51,1.27,7.03,2.53,10.55,3.8,4.22,1.55,7.38,3.31,9.49,5.28,4.5,5.78,7.73,10.36,9.7,13.74,11.81,16.63,20.95,28.96,27.42,36.99,14.48,23.26,25.44,40.94,32.9,53.06,3.65,5.21,6.39,8.95,8.22,11.2,2.67,4.51,4.71,7.89,6.11,10.15,1.26,6.77,1.9,14.38,1.9,22.83,0,13.53.21,22.41.63,26.63.98,1.97,1.83,3.46,2.53,4.44-.14,9.86-.5,17.26-1.05,22.19,1.82,3.24,3.44,5.5,4.85,6.77-.14-.56-.98,2.33-2.53,8.67-1.13,4.65-3.45,9.65-6.96,15.01-4.36,6.62-8.93,10.57-13.71,11.84-9.84,2.54-14.84,4.72-14.97,6.55,1.12,1.27,1.96,2.32,2.53,3.17l31.21-.84c10.55.18,17.57-.1,21.09-.84.7.42,5.41.63,14.13.63l21.3.63c3.97,0,6.45.04,7.45.11,1.48-.58,2.25-2,2.25-4.32-4.64-2.81-8.51-4.64-11.6-5.48-5.62-3.37-9.42-8.15-11.39-14.34Z"/>
      <path class="cls-2" d="m1099.79,254.87c.38-.77.75-1.52,1.11-2.25-.66.34-1.17.97-1.11,2.25Z"/>
    </g>
  </g>
  <g>
    <g>
      <path class="cls-1" d="m960.5,931.62h-19.64c-3.07,0-6.09-.45-8.96-1.32-2.85.86-5.86,1.32-8.99,1.32h-26.78c-17.2,0-31.14-13.94-31.14-31.14v-3.36c0-6.46,1.99-12.55,5.46-17.61v-27.68c-3.47-5.05-5.46-11.14-5.46-17.61v-3.37c0-17.2,13.94-31.14,31.14-31.14h29.73c6.13,0,11.47.47,16.34,1.45,5.9,1.18,11.35,3.13,16.22,5.8,5.01,2.7,9.53,6.36,13.27,10.77,3.74,4.42,6.59,9.47,8.51,15.03,1.79,5.18,2.7,10.86,2.7,16.86,0,7.93-1.59,15.27-4.73,21.84v.03c8.21,5.67,13.45,15.11,13.45,25.62v3.36c0,17.2-13.94,31.14-31.14,31.14Z"/>
      <path class="cls-1" d="m992.69,931.62h-27.44c-17.2,0-31.14-13.94-31.14-31.14v-3.36c0-6.46,1.99-12.55,5.46-17.61v-27.68c-3.47-5.05-5.46-11.14-5.46-17.61v-3.37c0-17.2,13.94-31.14,31.14-31.14h29.63c15.42,0,27.69,3.42,37.49,10.46,12.52,8.99,19.4,23.02,19.4,39.5,0,10.24-2.51,19.61-7.47,27.84-4.86,8.06-11.91,14.56-20.48,18.89,0,.23,0,.47,0,.7v3.36c0,17.2-13.94,31.14-31.14,31.14Z"/>
      <path class="cls-1" d="m1058.54,932.44c-24.29,0-38.44-10.76-46.04-19.79-9.71-11.53-21.76-14.6-14.63-46.39,2.15-9.61,1.52-18.96,4.53-27.1,3.39-9.16,8.4-16.95,14.92-23.18,6.31-6.03,13.6-10.51,21.68-13.32,7.14-2.48,14.76-3.75,22.65-3.75,10.34,0,20.15,1.32,29.16,3.93,13.31,3.85,22.48,16.05,22.48,29.91v14.48c0,.79-.03,1.57-.09,2.34,3.93,5.21,6.26,11.7,6.26,18.72v3.37c0,6.2-1.83,12.06-5.05,17v11.05c0,14.75-10.35,27.48-24.79,30.48l-7.34,1.53c-4.5.94-9.07.85-13.4-.15-3.35.57-6.8.86-10.34.86Zm38.74-30.95h-.01s.01,0,.01,0Z"/>
    </g>
    <g>
      <path class="cls-2" d="m922.92,900.48h-26.78v-3.36c1.26-.34,2.25-.71,2.98-1.1.73-.39,1.28-.94,1.63-1.63.36-.69.58-1.58.69-2.65.1-1.07.15-2.42.15-4.05v-43.96c0-1.6-.04-2.94-.13-4.03-.08-1.09-.3-1.97-.66-2.65-.36-.68-.9-1.23-1.63-1.66-.73-.43-1.74-.81-3.03-1.15v-3.37h29.73c4.01,0,7.42.28,10.23.84,2.8.56,5.26,1.42,7.37,2.57,1.77.95,3.26,2.15,4.49,3.6,1.22,1.45,2.17,3.13,2.83,5.05.66,1.92,1,4.16,1,6.71,0,3.33-.59,6.19-1.76,8.57s-2.75,4.36-4.74,5.94c-1.99,1.58-4.65,3.07-7.98,4.46v.51c2.51,1.09,4.6,2.54,6.25,4.36s3.14,4.12,4.46,6.91l3.21,6.94c1.43,3.09,2.85,5.42,4.26,6.96,1.41,1.55,3.08,2.49,5.02,2.83v3.36h-19.64c-1.97-2.72-4.2-6.76-6.68-12.14l-3.98-8.72c-1.19-2.58-2.21-4.42-3.06-5.51-.85-1.09-1.73-1.84-2.63-2.24s-2.28-.61-4.16-.61h-2.96v16.42c0,2.55.12,4.34.36,5.36.24,1.02.69,1.84,1.38,2.45s1.94,1.16,3.78,1.63v3.36Zm-5.51-63.55v28.36h5.05c2.72,0,4.96-.36,6.73-1.1,1.77-.73,3.17-1.75,4.21-3.06,1.04-1.31,1.75-2.85,2.14-4.62.39-1.77.58-3.71.58-5.81,0-4.62-1.09-8.09-3.26-10.4-2.17-2.31-5.41-3.47-9.69-3.47-2.92,0-4.84.03-5.77.1Z"/>
      <path class="cls-2" d="m986.52,887.73c0,2.24.09,3.83.26,4.77.17.94.45,1.68.84,2.24.39.56.95,1.03,1.68,1.4.73.37,1.86.7,3.39.97v3.36h-27.44v-3.36c1.26-.34,2.25-.71,2.98-1.1.73-.39,1.28-.94,1.63-1.63.36-.69.58-1.58.69-2.65.1-1.07.15-2.42.15-4.05v-43.96c0-1.6-.04-2.94-.13-4.03-.08-1.09-.3-1.97-.66-2.65-.36-.68-.9-1.23-1.63-1.66-.73-.43-1.74-.81-3.03-1.15v-3.37h29.63c8.6,0,15.05,1.54,19.33,4.62,4.29,3.08,6.43,7.81,6.43,14.2,0,4.52-1,8.45-3.01,11.78-2.01,3.33-4.91,5.86-8.72,7.58-3.81,1.72-8.57,2.57-14.28,2.57-3.3,0-6-.07-8.11-.2v16.32Zm0-22.09h4.39c3.4,0,6.1-.48,8.11-1.45,2-.97,3.49-2.5,4.46-4.62.97-2.11,1.45-4.95,1.45-8.52s-.49-6.35-1.45-8.44c-.97-2.09-2.39-3.58-4.26-4.46s-4.27-1.33-7.19-1.33c-2.38,0-4.22.03-5.51.1v28.71Z"/>
      <path class="cls-2" d="m1082.15,832.75v14.48h-6.99c-.78-2.86-1.68-5.06-2.68-6.61-1-1.55-2.29-2.7-3.87-3.47-1.58-.76-3.61-1.15-6.1-1.15-3.37,0-6.34,1.03-8.92,3.09-2.59,2.06-4.62,5.34-6.12,9.84s-2.24,10.21-2.24,17.11c0,5.95.5,11.11,1.51,15.48,1,4.37,2.53,7.76,4.59,10.18,2.06,2.41,4.6,3.62,7.62,3.62s5.2-.89,6.63-2.68c1.43-1.78,2.14-4.63,2.14-8.54v-1.94c0-2.58-.08-4.43-.25-5.53s-.43-1.93-.79-2.47c-.36-.54-.82-.99-1.4-1.33s-1.6-.73-3.06-1.17v-3.37h26.11v3.37c-1.7.51-2.86,1.09-3.47,1.73-.61.65-1.03,1.51-1.25,2.58-.22,1.07-.33,2.57-.33,4.51v19.23l-7.34,1.53-3.47-3.67c-4.05,2.48-8.69,3.72-13.92,3.72-9.93,0-17.33-2.9-22.21-8.7-4.88-5.8-7.32-14.58-7.32-26.34,0-6.19.87-11.63,2.6-16.32,1.73-4.69,4.14-8.51,7.22-11.45,3.08-2.94,6.54-5.08,10.4-6.43,3.86-1.34,8-2.02,12.42-2.02,7.45,0,14.28.9,20.51,2.7Z"/>
    </g>
  </g>
</svg>