<?xml version="1.0" encoding="UTF-8"?>
<svg id="Camada_1" data-name="Camada 1" xmlns="http://www.w3.org/2000/svg" viewBox="0 0 59.49 61.48">
  <defs>
    <style>
      .cls-1 {
        fill: #010101;
        stroke-width: 0px;
      }
    </style>
  </defs>
  <g>
    <polygon class="cls-1" points="55.18 48.35 56.47 53.15 54.79 59.45 43.36 60.03 28.49 52.63 19.3 43.93 19 39.88 21.92 36.18 24.43 31.61 26.68 32.39 26.65 34.84 24.73 41.37 28.34 45.03 40.38 46.23 44.12 47.6 46.82 50.85 55.18 48.35"/>
    <polygon class="cls-1" points="11.17 25.96 10.77 27.17 13.75 35.84 15.12 41.58 16.5 45.34 22.2 49.28 17.79 43.82 18 38.39 18.79 36.29 16.67 30.95 14.63 26.85 12.68 25.56 11.17 25.96"/>
    <polygon class="cls-1" points="10.88 30.6 5.51 27.96 2.83 27.73 1.65 28.58 1.84 30.09 5.29 32.95 10.03 36.55 13.48 38.52 11.45 33.94 10.88 30.6"/>
    <polygon class="cls-1" points="32.7 42.76 41.83 43.65 48.02 48.51 52.9 47.08 51 45.26 54.16 35.61 57.84 29.89 56.89 28.61 53.91 28.45 50.89 31.43 48.55 36.51 32.7 42.76"/>
  </g>
  <polyline class="cls-1" points="44.01 22.04 34.67 26.98 25.28 20.29 24.51 9.75 33.56 4.12 43.67 8.95 43.04 18.2 34.95 20.92 29.83 17.82 29.48 12.49 34.53 8.86 39.37 11.6 35.01 15.7 33.24 14.22 34.21 11.25 31.11 14.62 35.4 18.06 41.84 11.03 34.56 6.71 27.16 10.9 27.41 18.76 34.81 23.7 45.27 19.85 45.58 8.17 33.83 1.45 22.23 8.09 22.82 21.05 34.47 30.79"/>
</svg>