<?xml version="1.0" encoding="UTF-8"?>
<svg id="Camada_1" data-name="Camada 1" xmlns="http://www.w3.org/2000/svg" viewBox="0 0 59.49 61.48">
  <defs>
    <style>
      .cls-1 {
        fill: #010101;
        stroke-width: 0px;
      }
    </style>
  </defs>
  <polyline class="cls-1" points="24.61 22.44 44.35 24.49 53.1 36.93 51.15 49.47 57.02 43.59 52.72 21.94 33.35 10.15 26.77 9.54 33.35 13.62 33.4 16.5 31.2 17.77 29 13.21 19.14 9.39 15.14 5.54 16.52 9.92 2.47 1.44 16.52 24.95 12.21 23.39 18.88 33.24"/>
  <polyline class="cls-1" points="20.69 3.21 28.25 5.55 29.62 6.83 31.71 8.91 26.23 8.15"/>
  <polyline class="cls-1" points="16.26 34.98 11.33 30.42 5.38 28.4 8.29 42.58 14.06 44.7 16.18 46 24.37 60.04 40.06 55.74 27.13 54.48"/>
  <polygon class="cls-1" points="11.28 28.91 5.39 19.98 5.89 27.13 11.28 28.91"/>
  <polyline class="cls-1" points="23.65 38.77 28.64 29.45 40.16 29.76 46.68 38.07 42.33 47.8 31.25 49.43 26.6 41.41 31.79 34.63 37.77 34.34 41.03 38.57 38.88 44.4 33.32 44.84 34.65 39 36.95 39.23 37.81 42.24 38.5 37.72 33.02 37.26 31.6 46.69 40.06 46.2 43.85 38.59 39.25 32.22 30.35 32.25 23.82 41.29 30.1 51.15 43.59 50.16 49.5 38.17 41.77 27.75 26.67 26.19"/>
</svg>