<?xml version="1.0" encoding="UTF-8"?>
<svg id="Camada_1" data-name="Camada 1" xmlns="http://www.w3.org/2000/svg" viewBox="0 0 59.49 61.48">
  <defs>
    <style>
      .cls-1 {
        fill: #010101;
        stroke-width: 0px;
      }
    </style>
  </defs>
  <polyline class="cls-1" points="19.93 20.1 36.83 24.51 46.43 41.17 38.21 48.96 26.09 59.56 38.76 59.79 49.19 54.33 55.28 32.65 50.26 19.91 56.77 11.51 44.38 1.69 37.25 10.18 22.39 10.28 5.87 21.22 2.72 32.13 5.81 43.43"/>
  <polyline class="cls-1" points="30.18 50.01 19.75 48.3 16.31 37.3 22.06 28.44 32.68 29.41 37.81 39.37 31.72 46.36 23.63 43.64 21.42 38.08 24.36 33.62 30.58 33.78 32.79 38.89 26.84 39.52 26.31 37.27 28.89 35.48 24.38 36.3 25.72 41.63 35.1 39.92 31.91 32.08 23.48 30.95 18.93 37.36 21.84 45.78 32.51 49.03 39.81 39.9 34.51 27.45 21.25 25.73 13.89 36.42 17.29 51.22"/>
</svg>