<?xml version="1.0" encoding="UTF-8"?>
<svg id="Camada_1" data-name="Camada 1" xmlns="http://www.w3.org/2000/svg" viewBox="0 0 74.3 61.48">
  <defs>
    <style>
      .cls-1 {
        fill: #010101;
        stroke-width: 0px;
      }
    </style>
  </defs>
  <polygon class="cls-1" points="30.27 9.12 30.38 17.58 31.54 16.63 35.35 3.93 21.17 5.73 20.01 7.32 28.89 7.74 2.59 30.86 32.92 57.58 25.93 48.38 12.39 30.7 30.27 9.12"/>
  <polygon class="cls-1" points="44.03 52.4 43.92 43.93 42.76 44.88 38.95 57.58 53.13 55.78 54.29 54.19 45.4 53.77 71.7 30.65 41.38 3.93 48.37 13.14 61.91 30.81 44.03 52.4"/>
  <path class="cls-1" d="M33.64,40.91v-3.15c0-.17.14-.31.31-.31h1.59c.17,0,.31-.14.31-.31v-11.65c0-.1-.1-.17-.21-.14l-1.8.62c-.17.07-.35-.03-.41-.21l-.76-2.84c-.07-.14,0-.31.14-.38l3.6-2.01c.07-.03.21-.07.31-.07h2.59c.17,0,.31.14.31.31v16.35c0,.17.14.31.31.31h1.56c.17,0,.31.14.31.31v3.15c0,.17-.14.31-.31.31h-7.54c-.17,0-.31-.14-.31-.31Z"/>
</svg>