<svg id="Layer_1" enable-background="new 0 0 512 512" height="512" viewBox="0 0 512 512" width="512" xmlns="http://www.w3.org/2000/svg"><path d="m484 167.383c4.142 0 7.5-3.358 7.5-7.5v-27.165c0-15.297-8.91-29.031-22.354-35.402l-196.266-93.486c-10.73-5.107-23.033-5.106-33.751.001l-143.1 68.161c-3.74 1.781-5.327 6.257-3.546 9.996s6.256 5.327 9.996 3.546l143.101-68.162c6.622-3.155 14.222-3.155 20.852 0l196.278 93.491c1.212.574 2.361 1.258 3.452 2.021l-210.162 100.106-210.156-100.103c1.096-.765 2.251-1.452 3.471-2.03l24.285-11.567c3.739-1.781 5.327-6.257 3.545-9.996-1.782-3.74-6.255-5.326-9.997-3.545l-24.271 11.56c-13.563 6.428-22.377 20.203-22.377 35.409v246.583c0 15.039 8.776 28.936 22.358 35.405l131.112 62.445c3.739 1.781 8.215.194 9.996-3.546s.194-8.215-3.546-9.996l-131.111-62.445c-8.389-3.996-13.809-12.577-13.809-21.863v-246.583c0-2.595.411-5.144 1.209-7.567l211.791 100.881v269.776c-.999-.325-1.976-.714-2.921-1.165l-36.271-17.275c-3.74-1.784-8.216-.194-9.996 3.546-1.781 3.74-.194 8.215 3.546 9.996l36.264 17.272c5.231 2.499 11.068 3.82 16.879 3.82 5.819 0 11.659-1.321 16.882-3.816l196.265-93.474c.043-.021.111-.053.154-.074l.254-.123c13.332-6.545 21.946-20.364 21.946-35.204v-187.615c0-4.142-3.358-7.5-7.5-7.5s-7.5 3.358-7.5 7.5v187.612c0 9.164-5.321 17.697-13.644 21.783l-196.433 93.555c-.945.451-1.923.84-2.923 1.165v-269.78l211.791-100.881c.798 2.423 1.209 4.972 1.209 7.567v27.165c-.002 4.143 3.356 7.501 7.498 7.501z"/><path d="m359.334 301.469c-2.886 21.371 9.721 36.918 24.916 36.918 13.591 0 25.526-12.466 27.866-29.789 2.511-18.589-7.114-34.716-21.913-36.715-14.807-1.997-28.358 10.998-30.869 29.586zm37.916 5.122c-1.315 9.741-7.845 17.563-13.996 16.729-6.14-.829-10.371-10.102-9.055-19.843 1.316-9.742 7.862-17.562 13.996-16.729 6.14.83 10.371 10.102 9.055 19.843z"/><path d="m218.905 261.602c-1.022-18.73-13.453-32.771-28.316-31.955-14.856.811-25.692 16.118-24.669 34.847.994 18.214 12.783 31.99 27.094 31.989 13.743 0 27.037-13.891 25.891-34.881zm-25.488 19.87c-6.126.334-11.986-7.981-12.521-17.796-.536-9.815 4.376-18.718 10.51-19.053 6.13-.319 11.985 7.981 12.521 17.796.426 7.804-3.248 18.656-10.51 19.053z"/><path d="m57.015 358.592c1.061 19.451 14 31.988 27.156 31.987 14.131 0 26.948-14.43 25.831-34.879-1.102-20.207-14.887-32.691-28.317-31.955-13.5.736-25.767 14.775-24.67 34.847zm25.487-19.87c7.299-.387 12.095 9.982 12.522 17.795.417 7.643-3.172 18.652-10.511 19.053-7.299.39-12.094-9.982-12.521-17.795-.425-7.804 3.249-18.657 10.51-19.053z"/><path d="m165.31 135.177c18.73-1.022 32.767-13.46 31.957-28.316-.747-13.69-14.983-25.749-34.849-24.669-18.73 1.022-32.768 13.46-31.957 28.316.876 16.025 17.659 25.613 34.849 24.669zm-2.075-38.008c7.578-.41 18.65 3.127 19.054 10.509.334 6.135-7.981 11.986-17.796 12.522-9.818.542-18.718-4.375-19.054-10.51-.335-6.134 7.981-11.985 17.796-12.521z"/><path d="m252.29 37.786c-18.73 1.022-32.768 13.46-31.957 28.315.72 13.211 14.436 25.78 34.849 24.669 18.73-1.022 32.767-13.46 31.957-28.315-.812-14.855-16.118-25.693-34.849-24.669zm2.075 38.008c-7.663.415-18.653-3.181-19.054-10.509-.334-6.134 7.981-11.985 17.796-12.521 7.706-.42 18.654 3.194 19.054 10.51.334 6.133-7.981 11.984-17.796 12.52z"/><path d="m349.283 138.349c20.208-1.102 32.69-14.887 31.957-28.316-.75-13.747-15.06-25.75-34.849-24.669-18.73 1.022-32.767 13.46-31.957 28.316.748 13.677 14.687 25.776 34.849 24.669zm-2.075-38.008c7.578-.41 18.65 3.127 19.054 10.509.398 7.283-9.967 12.093-17.796 12.521-9.813.543-18.719-4.375-19.054-10.509-.334-6.134 7.982-11.985 17.796-12.521z"/><path d="m258.634 126.598c-18.73 1.022-32.767 13.46-31.957 28.316.776 14.206 14.806 24.736 32.412 24.736 21.36 0 35.163-14.298 34.394-28.383-.75-13.748-15.057-25.748-34.849-24.669zm2.074 38.008c-9.821.538-18.718-4.375-19.054-10.509-.334-6.135 7.981-11.986 17.796-12.522 7.571-.409 18.65 3.121 19.054 10.51.399 7.283-9.966 12.093-17.796 12.521z"/></svg>