<svg id="bold" enable-background="new 0 0 24 24" height="512" viewBox="0 0 24 24" width="512" xmlns="http://www.w3.org/2000/svg"><path d="m23.525 5.054c-.705-.778-1.724-1.243-2.525-1.516v-1.538c0-.552-.448-1-1-1h-4c-1.634 0-3.087.788-4 2.003-.913-1.215-2.366-2.003-4-2.003h-4c-.552 0-1 .448-1 1v1.538c-.801.273-1.82.738-2.526 1.517-.306.338-.474.797-.474 1.291l.002 10.471c.001 5.737.001 5.737.477 6.03.359.221.815.195 1.146-.065 3.021-2.385 6.144-2.367 9.827.053.165.11.357.165.548.165s.383-.055.549-.165c3.683-2.42 6.805-2.437 9.827-.053.331.262.787.287 1.146.065.475-.293.475-.293.477-6.03l.001-10.471c0-.494-.168-.953-.475-1.292zm-7.525-2.054h3v12.89c-2.374-.1-4.333.811-6 2.769v-12.659c0-1.654 1.346-3 3-3zm-11 0h3c1.654 0 3 1.346 3 3v12.659c-1.584-1.859-3.429-2.777-5.641-2.777-.119 0-.238.002-.359.008zm-2.997 17.135c-.001-2.931-.002-8.628-.003-11.821l-.043-1.917c.228-.252.598-.493 1.043-.704v11.307c0 .294.129.573.354.763.225.189.522.273.811.223 1.503-.251 3.189-.188 4.874 1.487-2.462-.761-4.816-.551-7.036.662zm19.997-11.821c0 3.193-.001 8.89-.002 11.821-2.22-1.213-4.574-1.421-7.035-.661 1.686-1.675 3.372-1.738 4.874-1.487.288.049.586-.034.811-.223.223-.191.352-.47.352-.764v-11.309c.441.207.8.436 1 .655z"/></svg>