<svg enable-background="new 0 0 24 24" height="512" viewBox="0 0 24 24" width="512" xmlns="http://www.w3.org/2000/svg"><path d="m21.25 4h-12.88c-.761 0-1.494.319-2.012.876l-6.157 6.613c-.269.288-.269.734 0 1.022l6.157 6.612c.518.558 1.251.877 2.012.877h12.88c1.517 0 2.75-1.233 2.75-2.75v-10.5c0-1.517-1.233-2.75-2.75-2.75zm-1.768 10.819c.376.405.353 1.038-.052 1.414-.192.179-.437.267-.681.267-.269 0-.536-.107-.732-.319l-2.517-2.712-2.518 2.711c-.196.212-.464.319-.732.319-.244 0-.488-.088-.681-.267-.404-.376-.428-1.009-.052-1.414l2.619-2.818-2.618-2.819c-.376-.405-.353-1.038.052-1.414.403-.376 1.038-.354 1.413.052l2.518 2.711 2.518-2.711c.374-.406 1.009-.428 1.413-.052s.428 1.009.052 1.414l-2.62 2.819z"/></svg>