<svg height="512pt" viewBox="0 0 512 512" width="512pt" xmlns="http://www.w3.org/2000/svg"><path d="m304 0h-266.667969c-20.585937 0-37.332031 16.746094-37.332031 37.332031v53.335938c0 20.585937 16.746094 37.332031 37.332031 37.332031h266.667969c20.585938 0 37.332031-16.746094 37.332031-37.332031v-53.335938c0-20.585937-16.746093-37.332031-37.332031-37.332031zm0 0"/><path d="m304 192h-266.667969c-20.585937 0-37.332031 16.746094-37.332031 37.332031v53.335938c0 20.585937 16.746094 37.332031 37.332031 37.332031h266.667969c20.585938 0 37.332031-16.746094 37.332031-37.332031v-53.335938c0-20.585937-16.746093-37.332031-37.332031-37.332031zm0 0"/><path d="m304 384h-266.667969c-20.585937 0-37.332031 16.746094-37.332031 37.332031v53.335938c0 20.585937 16.746094 37.332031 37.332031 37.332031h266.667969c20.585938 0 37.332031-16.746094 37.332031-37.332031v-53.335938c0-20.585937-16.746093-37.332031-37.332031-37.332031zm0 0"/><path d="m506.902344 244.265625-74.667969-69.332031c-3.027344-2.796875-6.933594-4.265625-10.902344-4.265625-2.175781 0-4.328125.445312-6.398437 1.320312-5.824219 2.5625-9.601563 8.320313-9.601563 14.679688v138.664062c0 6.359375 3.777344 12.117188 9.601563 14.679688 5.824218 2.515625 12.628906 1.386719 17.300781-2.945313l74.667969-69.332031c3.242187-3.03125 5.097656-7.277344 5.097656-11.734375s-1.855469-8.683594-5.097656-11.734375zm0 0"/></svg>