<svg id="bold" enable-background="new 0 0 24 24" height="512" viewBox="0 0 24 24" width="512" xmlns="http://www.w3.org/2000/svg"><g><path d="m23 22h-13c-.552 0-1-.448-1-1s.448-1 1-1h13c.552 0 1 .448 1 1s-.448 1-1 1z"/></g><g><path d="m20.268 4.146-1.414-1.414c-.756-.756-2.073-.755-2.828 0l-2.068 2.068 4.242 4.242 2.068-2.068c.378-.377.586-.879.586-1.414 0-.534-.208-1.036-.586-1.414z"/><path d="m12.543 6.215-10.306 10.306c-.066.065-.112.148-.133.239l-1.09 4.625c-.04.168.011.346.133.468.094.095.222.147.353.147.038 0 .077-.004.115-.013l4.625-1.09c.09-.021.173-.067.239-.133l10.306-10.306z"/></g></svg>