<?xml version="1.0" encoding="iso-8859-1"?>
<!-- Generator: Adobe Illustrator 19.0.0, SVG Export Plug-In . SVG Version: 6.00 Build 0)  -->
<svg version="1.1" id="Capa_1" xmlns="http://www.w3.org/2000/svg" xmlns:xlink="http://www.w3.org/1999/xlink" x="0px" y="0px"
	 viewBox="0 0 512.016 512.016" style="enable-background:new 0 0 512.016 512.016;" xml:space="preserve">
<g>
	<g>
		<path d="M507.336,244.68l-96-96c-4.576-4.576-11.456-5.952-17.44-3.456c-5.984,2.496-9.888,8.32-9.888,14.784v48h-80v-80h48
			c6.464,0,12.32-3.904,14.784-9.888s1.088-12.864-3.456-17.44l-96-96c-6.24-6.24-16.384-6.24-22.624,0l-96,96
			c-4.576,4.608-5.952,11.456-3.488,17.44s8.32,9.888,14.784,9.888h48v80h-80v-48c0-6.464-3.904-12.32-9.888-14.784
			s-12.832-1.088-17.44,3.456l-96,96c-6.24,6.24-6.24,16.384,0,22.624l96,96c4.576,4.576,11.456,5.952,17.44,3.456
			c5.984-2.432,9.888-8.288,9.888-14.752v-48h80v80h-48c-6.464,0-12.32,3.904-14.784,9.888c-2.496,5.984-1.12,12.864,3.456,17.44
			l96,96c6.24,6.24,16.384,6.24,22.624,0l96-96c4.576-4.576,5.952-11.456,3.456-17.44c-2.496-5.984-8.288-9.888-14.752-9.888h-48
			v-80h80v48c0,6.464,3.904,12.32,9.888,14.784c5.984,2.496,12.864,1.12,17.44-3.456l96-96
			C513.576,261.064,513.576,250.952,507.336,244.68z"/>
	</g>
</g>
<g>
</g>
<g>
</g>
<g>
</g>
<g>
</g>
<g>
</g>
<g>
</g>
<g>
</g>
<g>
</g>
<g>
</g>
<g>
</g>
<g>
</g>
<g>
</g>
<g>
</g>
<g>
</g>
<g>
</g>
</svg>
