<svg version="1.2" baseProfile="tiny-ps" xmlns="http://www.w3.org/2000/svg" viewBox="0 0 880 128" width="880" height="128">
	<style>
		tspan { white-space:pre }
	</style>
	<path fill="#ffffff" aria-label="concerted"  d="M81.84 72.19L85.04 72.19Q85.04 92.67 76.08 103.68Q67.25 114.56 51.25 114.56Q30 114.56 19.76 101.76Q9.52 88.96 9.52 64.9Q9.52 40.19 19.38 26.88Q29.36 13.44 50.48 13.44Q61.23 13.44 68.53 19.07Q75.82 24.7 79.28 35.2L79.28 16L82.48 16L82.48 58.11L79.28 58.11Q79.28 38.27 72.11 27.65Q65.07 16.9 50.61 16.9Q37.3 16.9 32.3 27.9Q27.44 38.91 27.44 65.02Q27.44 89.6 32.56 100.22Q37.68 110.85 51.25 110.85Q65.33 110.85 73.52 101.38Q81.84 91.9 81.84 72.19ZM149.55 13.44Q170.29 13.44 180.78 26.88Q191.28 40.19 191.28 64.9Q191.28 88.83 180.53 101.76Q169.78 114.56 149.55 114.56Q129.33 114.56 118.7 101.76Q108.08 88.83 108.08 64.9Q108.08 40.19 118.58 26.88Q129.07 13.44 149.55 13.44ZM149.55 16.64Q136.24 16.64 131.12 27.78Q126 38.91 126 65.02Q126 89.73 131.25 100.61Q136.5 111.36 149.55 111.36Q162.61 111.36 167.98 100.61Q173.36 89.73 173.36 65.02Q173.36 38.91 168.11 27.78Q162.86 16.64 149.55 16.64ZM244.02 108.8L254.64 108.8L254.64 112L214.32 112L214.32 108.8L227.63 108.8L227.63 19.2L214.32 19.2L214.32 16L242.74 16L242.74 33.79Q245.04 23.04 250.54 18.3Q256.05 13.44 263.73 13.44Q270.77 13.44 275.89 15.36Q281.14 17.15 284.46 21.63Q287.92 25.98 289.58 33.54Q291.25 40.96 291.25 52.22L291.25 108.8L304.56 108.8L304.56 112L263.6 112L263.6 108.8L274.86 108.8L274.86 57.47Q274.86 45.44 274.22 37.76Q273.71 29.95 272.18 25.6Q270.64 21.12 268.08 19.46Q265.52 17.66 261.68 17.66Q251.82 17.66 247.86 27.01Q244.02 36.35 244.02 56.83L244.02 108.8ZM399.28 72.19L402.48 72.19Q402.48 92.67 393.52 103.68Q384.69 114.56 368.69 114.56Q347.44 114.56 337.2 101.76Q326.96 88.96 326.96 64.9Q326.96 40.19 336.82 26.88Q346.8 13.44 367.92 13.44Q378.67 13.44 385.97 19.07Q393.26 24.7 396.72 35.2L396.72 16L399.92 16L399.92 58.11L396.72 58.11Q396.72 38.27 389.55 27.65Q382.51 16.9 368.05 16.9Q354.74 16.9 349.74 27.9Q344.88 38.91 344.88 65.02Q344.88 89.6 350 100.22Q355.12 110.85 368.69 110.85Q382.77 110.85 390.96 101.38Q399.28 91.9 399.28 72.19ZM500.14 75.9L503.6 75.9Q503.6 94.59 494.26 104.58Q485.04 114.56 468.53 114.56Q446.64 114.56 436.02 101.76Q425.52 88.96 425.52 64.9Q425.52 40.19 435.12 26.88Q444.85 13.44 464.05 13.44Q484.14 13.44 493.87 27.39Q503.73 41.34 503.6 67.07L443.44 67.07Q443.57 90.5 448.94 100.74Q454.45 110.85 468.53 110.85Q483.25 110.85 491.7 102.27Q500.14 93.7 500.14 75.9ZM464.18 16.9Q452.78 16.9 448.18 27.65Q443.57 38.27 443.44 63.62L485.68 63.62Q485.55 38.4 480.82 27.65Q476.08 16.9 464.18 16.9ZM558.13 108.8L576.43 108.8L576.43 112L526.64 112L526.64 108.8L541.74 108.8L541.74 19.2L526.64 19.2L526.64 16L556.85 16L556.85 30.72Q559.02 21.12 563.38 17.28Q567.73 13.44 574 13.44Q579.25 13.44 582.96 15.87Q586.67 18.3 588.72 24.19L588.72 16L591.92 16L591.92 56.06L588.72 56.06L588.72 52.35Q588.72 41.73 587.82 34.94Q586.93 28.03 585.14 24.19Q583.34 20.22 580.53 18.69Q577.71 17.15 574 17.15Q564.91 17.15 561.46 26.62Q558.13 36.1 558.13 56.83L558.13 108.8ZM622.38 83.07L622.38 36.48L606.26 36.48L606.26 33.02L616.11 33.02L635.44 13.44L638.64 13.44L638.64 33.02L666.8 33.02L666.8 36.48L638.64 36.48L638.64 83.07Q638.64 97.79 640.94 103.81Q643.25 109.82 649.39 109.82Q651.57 109.82 653.87 108.67Q656.18 107.52 657.97 105.09Q659.89 102.66 661.04 98.69Q662.19 94.72 662.19 89.09L665.52 89.09Q665.52 96 663.86 100.99Q662.32 105.86 659.63 108.93Q656.94 111.87 653.36 113.28Q649.9 114.56 646.06 114.56Q634.03 114.56 628.14 106.62Q622.38 98.56 622.38 83.07ZM759.98 75.9L763.44 75.9Q763.44 94.59 754.1 104.58Q744.88 114.56 728.37 114.56Q706.48 114.56 695.86 101.76Q685.36 88.96 685.36 64.9Q685.36 40.19 694.96 26.88Q704.69 13.44 723.89 13.44Q743.98 13.44 753.71 27.39Q763.57 41.34 763.44 67.07L703.28 67.07Q703.41 90.5 708.78 100.74Q714.29 110.85 728.37 110.85Q743.09 110.85 751.54 102.27Q759.98 93.7 759.98 75.9ZM724.02 16.9Q712.62 16.9 708.02 27.65Q703.41 38.27 703.28 63.62L745.52 63.62Q745.39 38.4 740.66 27.65Q735.92 16.9 724.02 16.9ZM842.03 19.2L793.26 19.2L793.26 16L871.09 16L871.09 19.2L858.42 19.2L858.42 99.46Q858.42 105.73 859.44 107.78Q860.46 109.7 862.64 109.7Q865.46 109.7 866.35 106.75Q867.38 103.81 867.38 96.64L867.38 87.17L870.58 87.17L870.58 96.9Q870.58 107.01 868.27 110.85Q866.1 114.56 859.18 114.56Q851.25 114.56 846.77 112Q842.29 109.31 842.29 100.61Q839.6 107.78 834.61 111.23Q829.74 114.56 823.34 114.56Q805.81 114.56 796.85 103.04Q788.02 91.52 788.02 70.27Q788.02 49.02 796.85 37.63Q805.81 26.11 823.34 26.11Q828.21 26.11 831.54 27.52Q834.86 28.8 837.04 30.72Q839.22 32.51 840.37 34.69Q841.52 36.74 842.03 38.14L842.03 19.2ZM823.22 111.1Q828.98 111.1 832.56 108.8Q836.27 106.5 838.32 102.53Q840.5 98.43 841.26 92.93Q842.03 87.42 842.03 81.02L842.03 53.5Q842.03 39.42 836.53 34.56Q831.02 29.57 823.09 29.57Q817.84 29.57 814.38 31.23Q811.06 32.9 809.14 37.38Q807.34 41.73 806.58 49.66Q805.94 57.6 805.94 69.89Q805.94 81.92 806.7 89.86Q807.6 97.79 809.52 102.53Q811.57 107.26 814.9 109.18Q818.22 111.1 823.22 111.1Z" />
</svg>
