<svg version="1.2" baseProfile="tiny-ps" xmlns="http://www.w3.org/2000/svg" viewBox="0 0 880 128" width="880" height="128">
	<style>
		tspan { white-space:pre }
	</style>
	<path fill="#ffffff" aria-label="creative"  d="M81.84 74.19L85.04 74.19Q85.04 94.67 76.08 105.68Q67.25 116.56 51.25 116.56Q30 116.56 19.76 103.76Q9.52 90.96 9.52 66.9Q9.52 42.19 19.38 28.88Q29.36 15.44 50.48 15.44Q61.23 15.44 68.53 21.07Q75.82 26.7 79.28 37.2L79.28 18L82.48 18L82.48 60.11L79.28 60.11Q79.28 40.27 72.11 29.65Q65.07 18.9 50.61 18.9Q37.3 18.9 32.3 29.9Q27.44 40.91 27.44 67.02Q27.44 91.6 32.56 102.22Q37.68 112.85 51.25 112.85Q65.33 112.85 73.52 103.38Q81.84 93.9 81.84 74.19ZM139.57 110.8L157.87 110.8L157.87 114L108.08 114L108.08 110.8L123.18 110.8L123.18 21.2L108.08 21.2L108.08 18L138.29 18L138.29 32.72Q140.46 23.12 144.82 19.28Q149.17 15.44 155.44 15.44Q160.69 15.44 164.4 17.87Q168.11 20.3 170.16 26.19L170.16 18L173.36 18L173.36 58.06L170.16 58.06L170.16 54.35Q170.16 43.73 169.26 36.94Q168.37 30.03 166.58 26.19Q164.78 22.22 161.97 20.69Q159.15 19.15 155.44 19.15Q146.35 19.15 142.9 28.62Q139.57 38.1 139.57 58.83L139.57 110.8ZM268.72 77.9L272.18 77.9Q272.18 96.59 262.83 106.58Q253.62 116.56 237.1 116.56Q215.22 116.56 204.59 103.76Q194.1 90.96 194.1 66.9Q194.1 42.19 203.7 28.88Q213.42 15.44 232.62 15.44Q252.72 15.44 262.45 29.39Q272.3 43.34 272.18 69.07L212.02 69.07Q212.14 92.5 217.52 102.74Q223.02 112.85 237.1 112.85Q251.82 112.85 260.27 104.27Q268.72 95.7 268.72 77.9ZM232.75 18.9Q221.36 18.9 216.75 29.65Q212.14 40.27 212.02 65.62L254.26 65.62Q254.13 40.4 249.39 29.65Q244.66 18.9 232.75 18.9ZM365.74 46.54L365.74 98.77Q365.74 105.04 367.02 108.37Q368.43 111.7 370.86 111.7Q374.7 111.7 375.86 108.75Q377.14 105.81 377.14 98.51L377.14 89.04L380.34 89.04L380.34 98.77Q380.34 109.01 377.52 112.85Q374.83 116.56 366.38 116.56Q357.55 116.56 353.46 111.95Q349.36 107.34 349.36 98.51L349.36 93.26Q347.57 97.74 344.5 102.1Q341.42 106.32 337.58 109.52Q333.74 112.72 329.26 114.64Q324.91 116.56 320.3 116.56Q308.27 116.56 302.9 110.03Q297.52 103.38 297.52 94.03Q297.52 87.89 300.59 83.15Q303.66 78.42 308.27 74.7Q313.01 70.86 318.77 67.79Q324.66 64.72 330.03 61.9Q333.74 59.98 337.2 58.19Q340.78 56.27 343.47 54.22Q346.16 52.18 347.7 49.74Q349.36 47.31 349.36 44.24L349.36 43.98Q349.36 30.54 346.42 24.78Q343.47 18.9 334.64 18.9Q328.62 18.9 322.99 21.58Q317.49 24.27 313.26 29.52Q309.04 34.64 306.48 42.45Q303.92 50.26 303.92 60.37L303.92 63.18L300.72 63.18L300.72 18L303.92 18L303.92 39.76Q307.89 28.24 316.08 21.84Q324.4 15.44 334.9 15.44Q350.9 15.44 358.32 24.02Q365.74 32.46 365.74 46.54ZM315.44 88.14Q315.44 98.64 316.98 105.17Q318.64 111.57 324.14 111.57Q328.88 111.57 333.49 108.5Q338.1 105.42 341.55 100.82Q345.01 96.21 347.18 90.7Q349.36 85.07 349.36 79.95L349.36 52.43Q346.93 55.76 342.45 58.58Q338.1 61.39 331.18 64.98Q323.12 69.2 319.28 73.94Q315.44 78.54 315.44 88.14ZM408.62 85.07L408.62 38.48L392.5 38.48L392.5 35.02L402.35 35.02L421.68 15.44L424.88 15.44L424.88 35.02L453.04 35.02L453.04 38.48L424.88 38.48L424.88 85.07Q424.88 99.79 427.18 105.81Q429.49 111.82 435.63 111.82Q437.81 111.82 440.11 110.67Q442.42 109.52 444.21 107.09Q446.13 104.66 447.28 100.69Q448.43 96.72 448.43 91.09L451.76 91.09Q451.76 98 450.1 102.99Q448.56 107.86 445.87 110.93Q443.18 113.87 439.6 115.28Q436.14 116.56 432.3 116.56Q420.27 116.56 414.38 108.62Q408.62 100.56 408.62 85.07ZM494 34.26Q489.26 34.26 485.94 30.93Q482.61 27.6 482.61 22.99Q482.61 18.26 485.94 14.93Q489.26 11.6 494 11.6Q498.74 11.6 502.06 14.93Q505.39 18.26 505.39 22.99Q505.39 27.6 502.06 30.93Q498.74 34.26 494 34.26ZM502.19 110.8L516.27 110.8L516.27 114L471.6 114L471.6 110.8L485.81 110.8L485.81 41.68L471.6 41.68L471.6 38.48L516.4 38.48L516.4 41.55L502.19 41.55L502.19 110.8ZM548.27 21.2L535.6 21.2L535.6 18L573.49 18L573.49 21.2L564.66 21.2L564.66 78.16Q564.66 89.42 565.04 96.08Q565.55 102.61 566.83 105.94Q568.11 109.14 570.42 110.03Q572.72 110.93 576.3 110.93Q581.68 110.93 586.42 106.45Q591.28 101.97 594.99 94.54Q598.83 86.99 601.39 76.88Q603.95 66.77 604.85 55.63Q602.42 56.91 599.6 57.68Q596.78 58.32 593.84 58.32Q583.34 58.32 578.22 52.56Q573.23 46.67 573.23 37.07Q573.23 27.47 578.1 21.46Q583.09 15.44 591.15 15.44Q598.83 15.44 603.95 22.74Q609.07 29.9 609.07 42.58Q609.07 43.86 609.07 45.26Q609.07 46.54 608.94 47.82Q612.53 43.47 614.58 36.05Q616.62 28.62 616.37 18L620.08 18Q620.08 31.06 616.88 39.76Q613.81 48.34 608.69 52.82Q607.92 65.23 604.98 76.75Q602.16 88.27 597.42 97.1Q592.82 105.94 586.29 111.31Q579.89 116.56 571.82 116.56Q560.56 116.56 554.42 107.98Q548.27 99.28 548.27 78.16L548.27 21.2ZM576.82 37.07Q576.82 45.52 580.91 50.13Q585.01 54.74 595.38 54.74Q597.81 54.74 600.37 53.97Q602.93 53.2 605.1 51.54Q605.23 49.49 605.23 47.31Q605.36 45.14 605.36 43.09Q605.36 31.7 601.52 25.42Q597.68 19.02 591.28 19.02Q584.75 19.02 580.78 23.76Q576.82 28.5 576.82 37.07ZM713.26 77.9L716.72 77.9Q716.72 96.59 707.38 106.58Q698.16 116.56 681.65 116.56Q659.76 116.56 649.14 103.76Q638.64 90.96 638.64 66.9Q638.64 42.19 648.24 28.88Q657.97 15.44 677.17 15.44Q697.26 15.44 706.99 29.39Q716.85 43.34 716.72 69.07L656.56 69.07Q656.69 92.5 662.06 102.74Q667.57 112.85 681.65 112.85Q696.37 112.85 704.82 104.27Q713.26 95.7 713.26 77.9ZM677.3 18.9Q665.9 18.9 661.3 29.65Q656.69 40.27 656.56 65.62L698.8 65.62Q698.67 40.4 693.94 29.65Q689.2 18.9 677.3 18.9Z" />
</svg>
