<svg version="1.2" baseProfile="tiny-ps" xmlns="http://www.w3.org/2000/svg" viewBox="0 0 880 128" width="880" height="128">
	<style>
		tspan { white-space:pre }
	</style>
	<path fill="#ffffff" aria-label="careful"  d="M81.84 72.19L85.04 72.19Q85.04 92.67 76.08 103.68Q67.25 114.56 51.25 114.56Q30 114.56 19.76 101.76Q9.52 88.96 9.52 64.9Q9.52 40.19 19.38 26.88Q29.36 13.44 50.48 13.44Q61.23 13.44 68.53 19.07Q75.82 24.7 79.28 35.2L79.28 16L82.48 16L82.48 58.11L79.28 58.11Q79.28 38.27 72.11 27.65Q65.07 16.9 50.61 16.9Q37.3 16.9 32.3 27.9Q27.44 38.91 27.44 65.02Q27.44 89.6 32.56 100.22Q37.68 110.85 51.25 110.85Q65.33 110.85 73.52 101.38Q81.84 91.9 81.84 72.19ZM178.61 44.54L178.61 96.77Q178.61 103.04 179.89 106.37Q181.3 109.7 183.73 109.7Q187.57 109.7 188.72 106.75Q190 103.81 190 96.51L190 87.04L193.2 87.04L193.2 96.77Q193.2 107.01 190.38 110.85Q187.7 114.56 179.25 114.56Q170.42 114.56 166.32 109.95Q162.22 105.34 162.22 96.51L162.22 91.26Q160.43 95.74 157.36 100.1Q154.29 104.32 150.45 107.52Q146.61 110.72 142.13 112.64Q137.78 114.56 133.17 114.56Q121.14 114.56 115.76 108.03Q110.38 101.38 110.38 92.03Q110.38 85.89 113.46 81.15Q116.53 76.42 121.14 72.7Q125.87 68.86 131.63 65.79Q137.52 62.72 142.9 59.9Q146.61 57.98 150.06 56.19Q153.65 54.27 156.34 52.22Q159.02 50.18 160.56 47.74Q162.22 45.31 162.22 42.24L162.22 41.98Q162.22 28.54 159.28 22.78Q156.34 16.9 147.5 16.9Q141.49 16.9 135.86 19.58Q130.35 22.27 126.13 27.52Q121.9 32.64 119.34 40.45Q116.78 48.26 116.78 58.37L116.78 61.18L113.58 61.18L113.58 16L116.78 16L116.78 37.76Q120.75 26.24 128.94 19.84Q137.26 13.44 147.76 13.44Q163.76 13.44 171.18 22.02Q178.61 30.46 178.61 44.54ZM128.3 86.14Q128.3 96.64 129.84 103.17Q131.5 109.57 137.01 109.57Q141.74 109.57 146.35 106.5Q150.96 103.42 154.42 98.82Q157.87 94.21 160.05 88.7Q162.22 83.07 162.22 77.95L162.22 50.43Q159.79 53.76 155.31 56.58Q150.96 59.39 144.05 62.98Q135.98 67.2 132.14 71.94Q128.3 76.54 128.3 86.14ZM245.81 108.8L264.11 108.8L264.11 112L214.32 112L214.32 108.8L229.42 108.8L229.42 19.2L214.32 19.2L214.32 16L244.53 16L244.53 30.72Q246.7 21.12 251.06 17.28Q255.41 13.44 261.68 13.44Q266.93 13.44 270.64 15.87Q274.35 18.3 276.4 24.19L276.4 16L279.6 16L279.6 56.06L276.4 56.06L276.4 52.35Q276.4 41.73 275.5 34.94Q274.61 28.03 272.82 24.19Q271.02 20.22 268.21 18.69Q265.39 17.15 261.68 17.15Q252.59 17.15 249.14 26.62Q245.81 36.1 245.81 56.83L245.81 108.8ZM374.96 75.9L378.42 75.9Q378.42 94.59 369.07 104.58Q359.86 114.56 343.34 114.56Q321.46 114.56 310.83 101.76Q300.34 88.96 300.34 64.9Q300.34 40.19 309.94 26.88Q319.66 13.44 338.86 13.44Q358.96 13.44 368.69 27.39Q378.54 41.34 378.42 67.07L318.26 67.07Q318.38 90.5 323.76 100.74Q329.26 110.85 343.34 110.85Q358.06 110.85 366.51 102.27Q374.96 93.7 374.96 75.9ZM338.99 16.9Q327.6 16.9 322.99 27.65Q318.38 38.27 318.26 63.62L360.5 63.62Q360.37 38.4 355.63 27.65Q350.9 16.9 338.99 16.9ZM456.5 112L399.02 112L399.02 108.8L411.7 108.8L411.7 87.81L398.9 87.81L398.9 84.61L411.7 84.61L411.7 55.3Q411.7 34.3 419.63 23.94Q427.7 13.44 443.82 13.44Q454.06 13.44 459.82 19.71Q465.58 25.86 465.58 36.99Q465.58 47.23 460.08 52.61Q454.58 57.98 447.79 61.95Q441.01 65.92 434.99 70.53Q428.98 75.01 428.08 83.58L428.08 84.61L456.5 84.61L456.5 87.81L428.08 87.81L428.08 108.8L456.5 108.8L456.5 112ZM462 36.99Q462 26.62 456.75 21.76Q451.63 16.9 444.08 16.9Q434.99 16.9 431.54 25.34Q428.08 33.79 428.08 55.3L428.08 74.75Q431.02 68.74 436.66 65.02Q442.42 61.31 447.92 57.86Q453.55 54.27 457.78 49.66Q462 45.06 462 36.99ZM496.82 75.78L496.82 19.2L483.5 19.2L483.5 16L560.43 16L560.43 96.77Q560.43 103.42 561.84 106.62Q563.25 109.7 566.06 109.7Q569.14 109.7 570.16 106.75Q571.18 103.81 571.18 96.51L571.18 87.04L574.38 87.04L574.38 96.77Q574.38 107.01 571.7 110.85Q569.14 114.56 561.2 114.56Q553.39 114.56 549.3 110.59Q545.33 106.62 545.33 94.34L545.33 94.21Q543.02 104.96 537.52 109.82Q532.02 114.56 524.34 114.56Q517.3 114.56 512.05 112.77Q506.93 110.85 503.47 106.5Q500.14 102.02 498.48 94.59Q496.82 87.04 496.82 75.78ZM513.2 19.2L513.2 70.53Q513.2 82.56 513.71 90.37Q514.35 98.05 515.89 102.53Q517.42 106.88 519.98 108.67Q522.54 110.34 526.38 110.34Q536.24 110.34 540.08 100.99Q544.05 91.65 544.05 71.17L544.05 19.2L513.2 19.2ZM625.07 108.8L643.63 108.8L643.38 112L595.12 112L595.12 108.8L608.69 108.8L608.69 47.62Q608.69 29.31 614.83 21.38Q621.1 13.44 634.42 13.44Q640.82 13.44 644.14 17.92Q647.6 22.4 647.6 29.82Q647.6 38.91 644.14 46.21Q640.82 53.5 636.59 61.31Q632.5 69.12 628.91 78.85Q625.46 88.45 625.07 102.4L625.07 108.8ZM625.07 47.62L625.07 82.3Q627.5 72.7 630.7 65.92Q634.03 59.01 636.98 53.38Q639.92 47.62 641.97 42.11Q644.14 36.61 644.14 29.82Q644.14 23.3 641.33 20.1Q638.64 16.9 634.29 16.9Q631.47 16.9 629.68 18.3Q627.89 19.58 626.86 23.04Q625.84 26.37 625.46 32.38Q625.07 38.4 625.07 47.62Z" />
</svg>
