<?xml version="1.0" encoding="utf-8"?>
<!-- Generator: Adobe Illustrator 25.4.1, SVG Export Plug-In . SVG Version: 6.00 Build 0)  -->
<!DOCTYPE svg PUBLIC "-//W3C//DTD SVG 1.1//EN" "http://www.w3.org/Graphics/SVG/1.1/DTD/svg11.dtd" [
	<!ENTITY ns_extend "http://ns.adobe.com/Extensibility/1.0/">
	<!ENTITY ns_ai "http://ns.adobe.com/AdobeIllustrator/10.0/">
	<!ENTITY ns_graphs "http://ns.adobe.com/Graphs/1.0/">
	<!ENTITY ns_vars "http://ns.adobe.com/Variables/1.0/">
	<!ENTITY ns_imrep "http://ns.adobe.com/ImageReplacement/1.0/">
	<!ENTITY ns_sfw "http://ns.adobe.com/SaveForWeb/1.0/">
	<!ENTITY ns_custom "http://ns.adobe.com/GenericCustomNamespace/1.0/">
	<!ENTITY ns_adobe_xpath "http://ns.adobe.com/XPath/1.0/">
]>
<svg version="1.1" id="Layer_1" xmlns:x="&ns_extend;" xmlns:i="&ns_ai;" xmlns:graph="&ns_graphs;"
	 xmlns="http://www.w3.org/2000/svg" xmlns:xlink="http://www.w3.org/1999/xlink" x="0px" y="0px" width="26px" height="14px"
	 viewBox="0 0 26 14" style="enable-background:new 0 0 26 14;" xml:space="preserve">
<style type="text/css">
	.st0{fill:#FFFFFF;}
	.st1{clip-path:url(#SVGID_00000179634713759182849580000005965815603769850558_);}
</style>
<metadata>
	<sfw  xmlns="&ns_sfw;">
		<slices></slices>
		<sliceSourceBounds  bottomLeftOrigin="true" height="13" width="24.6" x="0.7" y="-13.5"></sliceSourceBounds>
	</sfw>
</metadata>
<path class="st0" d="M13,1.5C6.9,1.5,1.7,4,1.7,7s5.2,5.5,11.3,5.5S24.3,10,24.3,7S19.1,1.5,13,1.5z"/>
<g>
	<defs>
		<rect id="SVGID_1_" x="0.7" y="0.5" width="24.6" height="13"/>
	</defs>
	<clipPath id="SVGID_00000095298048697063551160000011384100546083690373_">
		<use xlink:href="#SVGID_1_"  style="overflow:visible;"/>
	</clipPath>
	<path style="clip-path:url(#SVGID_00000095298048697063551160000011384100546083690373_);" d="M13,12c5.8,0,10.5-2.2,10.5-5
		c0-2.8-4.7-5-10.5-5S2.5,4.2,2.5,7C2.5,9.8,7.2,12,13,12"/>
	<path style="clip-path:url(#SVGID_00000095298048697063551160000011384100546083690373_);" d="M13,13.5C6.1,13.5,0.7,10.6,0.7,7
		c0-3.6,5.4-6.5,12.3-6.5c6.9,0,12.3,2.8,12.3,6.5C25.3,10.6,19.9,13.5,13,13.5z M13,1.5C6.9,1.5,1.7,4,1.7,7s5.2,5.5,11.3,5.5
		S24.3,10,24.3,7S19.1,1.5,13,1.5z"/>
</g>
</svg>
