<?xml version="1.0" encoding="utf-8"?>
<!-- Generator: Adobe Illustrator 25.4.1, SVG Export Plug-In . SVG Version: 6.00 Build 0)  -->
<!DOCTYPE svg PUBLIC "-//W3C//DTD SVG 1.1//EN" "http://www.w3.org/Graphics/SVG/1.1/DTD/svg11.dtd" [
	<!ENTITY ns_extend "http://ns.adobe.com/Extensibility/1.0/">
	<!ENTITY ns_ai "http://ns.adobe.com/AdobeIllustrator/10.0/">
	<!ENTITY ns_graphs "http://ns.adobe.com/Graphs/1.0/">
	<!ENTITY ns_vars "http://ns.adobe.com/Variables/1.0/">
	<!ENTITY ns_imrep "http://ns.adobe.com/ImageReplacement/1.0/">
	<!ENTITY ns_sfw "http://ns.adobe.com/SaveForWeb/1.0/">
	<!ENTITY ns_custom "http://ns.adobe.com/GenericCustomNamespace/1.0/">
	<!ENTITY ns_adobe_xpath "http://ns.adobe.com/XPath/1.0/">
]>
<svg version="1.1" id="Layer_1" xmlns:x="&ns_extend;" xmlns:i="&ns_ai;" xmlns:graph="&ns_graphs;"
	 xmlns="http://www.w3.org/2000/svg" xmlns:xlink="http://www.w3.org/1999/xlink" x="0px" y="0px" width="51.5px" height="72px"
	 viewBox="0 0 51.5 72" style="enable-background:new 0 0 51.5 72;" xml:space="preserve">
<style type="text/css">
	.st0{fill:#FFFFFF;}
</style>
<metadata>
	<sfw  xmlns="&ns_sfw;">
		<slices></slices>
		<sliceSourceBounds  bottomLeftOrigin="true" height="51.2" width="51.5" x="10.8" y="10.7"></sliceSourceBounds>
	</sfw>
</metadata>
<g>
	<polygon class="st0" points="1.2,24.4 25.6,12 50,24.3 50.1,45.1 43.8,41.9 43.9,58.9 25.8,49.8 7.7,59 7.6,42.1 1.3,45.3 	"/>
	<path d="M25.8,51.3l-19.5,10V44.9L0.1,48L0,23.2l25.6-13.1L51.4,23l0.1,24.8l-6.1-3v16.4L25.8,51.3z M43.4,57.9l-0.1-16.5l6.1,3
		l-0.1-20.2L25.6,12.4L2,24.5l0.1,20.2l6.1-3V58l17.5-8.9L43.4,57.9z M25.7,30.6l-21.5,11V26l21.5-11l21.5,10.8l0.1,15.6L25.7,30.6z
		 M25.7,45.9l-15.5,8V42.6l15.5-8l15.5,7.9v11.1L25.7,45.9z"/>
</g>
</svg>
