<?xml version="1.0" encoding="utf-8"?>
<!-- Generator: Adobe Illustrator 25.4.1, SVG Export Plug-In . SVG Version: 6.00 Build 0)  -->
<!DOCTYPE svg PUBLIC "-//W3C//DTD SVG 1.1//EN" "http://www.w3.org/Graphics/SVG/1.1/DTD/svg11.dtd" [
	<!ENTITY ns_extend "http://ns.adobe.com/Extensibility/1.0/">
	<!ENTITY ns_ai "http://ns.adobe.com/AdobeIllustrator/10.0/">
	<!ENTITY ns_graphs "http://ns.adobe.com/Graphs/1.0/">
	<!ENTITY ns_vars "http://ns.adobe.com/Variables/1.0/">
	<!ENTITY ns_imrep "http://ns.adobe.com/ImageReplacement/1.0/">
	<!ENTITY ns_sfw "http://ns.adobe.com/SaveForWeb/1.0/">
	<!ENTITY ns_custom "http://ns.adobe.com/GenericCustomNamespace/1.0/">
	<!ENTITY ns_adobe_xpath "http://ns.adobe.com/XPath/1.0/">
]>
<svg version="1.1" id="Layer_1" xmlns:x="&ns_extend;" xmlns:i="&ns_ai;" xmlns:graph="&ns_graphs;"
	 xmlns="http://www.w3.org/2000/svg" xmlns:xlink="http://www.w3.org/1999/xlink" x="0px" y="0px" width="65.2px" height="72px"
	 viewBox="0 0 65.2 72" style="enable-background:new 0 0 65.2 72;" xml:space="preserve">
<style type="text/css">
	.st0{fill:#FFFFFF;}
</style>
<metadata>
	<sfw  xmlns="&ns_sfw;">
		<slices></slices>
		<sliceSourceBounds  bottomLeftOrigin="true" height="52.5" width="65.2" x="4" y="10"></sliceSourceBounds>
	</sfw>
</metadata>
<polygon class="st0" points="2.6,60.6 31.7,12.1 60.8,60.6 "/>
<path d="M63.1,62h-0.6H0L31.5,9.5L65.2,54L63.1,62z M60.8,60.6L31.7,12.1L2.6,60.6H60.8z M37,31.5l-2.1,11.4h2.2l-0.6,3.3h-2.2
	l-0.9,4.7h-4l0.9-4.7H22l0.5-2.9l9.3-11.8H37z M31.7,38.6c0.1-0.7,0.3-1.3,0.4-1.9c0.2-0.6,0.3-1.2,0.5-1.8h-0.1
	c-0.5,0.7-0.9,1.3-1.3,1.9c-0.4,0.6-0.8,1.2-1.3,1.9l-3.1,4.1l-0.1,0.1h4.1L31.7,38.6z"/>
</svg>
