<?xml version="1.0" encoding="utf-8"?>
<!-- Generator: Adobe Illustrator 25.4.1, SVG Export Plug-In . SVG Version: 6.00 Build 0)  -->
<!DOCTYPE svg PUBLIC "-//W3C//DTD SVG 1.1//EN" "http://www.w3.org/Graphics/SVG/1.1/DTD/svg11.dtd" [
	<!ENTITY ns_extend "http://ns.adobe.com/Extensibility/1.0/">
	<!ENTITY ns_ai "http://ns.adobe.com/AdobeIllustrator/10.0/">
	<!ENTITY ns_graphs "http://ns.adobe.com/Graphs/1.0/">
	<!ENTITY ns_vars "http://ns.adobe.com/Variables/1.0/">
	<!ENTITY ns_imrep "http://ns.adobe.com/ImageReplacement/1.0/">
	<!ENTITY ns_sfw "http://ns.adobe.com/SaveForWeb/1.0/">
	<!ENTITY ns_custom "http://ns.adobe.com/GenericCustomNamespace/1.0/">
	<!ENTITY ns_adobe_xpath "http://ns.adobe.com/XPath/1.0/">
]>
<svg version="1.1" id="Layer_1" xmlns:x="&ns_extend;" xmlns:i="&ns_ai;" xmlns:graph="&ns_graphs;"
	 xmlns="http://www.w3.org/2000/svg" xmlns:xlink="http://www.w3.org/1999/xlink" x="0px" y="0px" width="57.9px" height="72px"
	 viewBox="0 0 57.9 72" style="enable-background:new 0 0 57.9 72;" xml:space="preserve">
<style type="text/css">
	.st0{fill:#FFFFFF;}
</style>
<metadata>
	<sfw  xmlns="&ns_sfw;">
		<slices></slices>
		<sliceSourceBounds  bottomLeftOrigin="true" height="46.4" width="58" x="7.5" y="13"></sliceSourceBounds>
	</sfw>
</metadata>
<g>
	<path class="st0" d="M54.6,35l-0.1-0.2c0.3-1.7,0.4-3.6,0.3-5.7c-0.1-0.5-0.1-1.1-0.2-1.8c-0.1-0.7-0.2-1.4-0.4-2.2
		c-0.2-0.8-0.4-1.6-0.7-2.4s-0.7-1.6-1.1-2.3l-1-1.7c-2.4-3.5-5.5-5.2-9.1-5.2c-1.3,0-2.5,0.2-3.8,0.6c-0.7,0.2-1.4,0.2-2.1-0.1
		c-2.6-1-5.2-1.2-7.9-0.3c-1.4,0.5-3,0.5-4.7,0.1c-0.4-0.1-0.9-0.1-1.4-0.2c-0.5-0.1-1.1-0.1-1.7-0.1c-1.7,0-3.3,0.5-4.9,1.4
		c-0.4,0.3-0.9,0.5-1.4,0.6s-1.1,0.2-1.8,0.2C12,15.8,11.5,15.9,11,16c-0.5,0.1-0.9,0.3-1.4,0.4c-0.1,0.1-0.3,0.2-0.4,0.2
		c-0.2,0-0.3,0.1-0.4,0.1c-0.8,0.2-1.4,0.6-2,1.4l-1,1.3l-0.1,0.2l-0.7,1c-0.5,0.8-1,1.6-1.5,2.3c-0.5,0.8-1,1.5-1.5,2.3
		c-1.2,2.1-1.3,4.3-0.3,6.8c0.1,0.5,0.2,0.9,0.3,1.3c0.1,0.4,0.2,0.7,0.3,1.1c0.5,2.8,1.6,5.5,3.5,8.2c1.4,1.9,3.5,3.1,6.4,3.7
		c0.1,0,0.1,0,0.2,0.1c0.9,0.9,2.1,1.6,3.6,2.1c1.4,0.5,2.8,0.6,4.3,0.4c1.5-0.2,2.8-0.7,3.9-1.5c1.1,1.2,2.5,2,4.2,2.5l1,0.3
		c-0.1,0.3-0.1,0.6-0.1,0.9c0,0.3,0,0.6,0,0.9c0.1,1.9,0.8,3.5,2.2,4.7c1.3,1.2,2.9,1.9,4.9,1.9h0.5c1-0.1,1.9-0.2,2.9-0.3
		s1.9-0.2,2.8-0.3l0.6-0.1c0-0.1,0.5-0.1,1.4-0.1h1h-0.1c0.2,0.1,0.4,0.1,0.6,0.1s0.3,0,0.5,0.1c3.2,0.3,5.7-1,7.5-3.8
		c0.8-1.4,1.5-3,1.9-4.7s0.7-3.6,0.8-5.7C57.2,40.7,56.4,37.8,54.6,35z"/>
	<path d="M55.5,35c1.8,2.9,2.6,5.9,2.4,8.9C57.8,46,57.5,48,57,49.7s-1.1,3.3-2,4.8c-1.8,2.9-4.4,4.2-7.8,3.9
		c-0.2-0.1-0.4-0.1-0.5-0.1c-0.2,0-0.4,0-0.6-0.1h-0.2h-1c-1,0-1.4,0-1.4,0.1l-0.6,0.1c-1,0.1-1.9,0.2-2.9,0.3s-2,0.2-3,0.3h-0.5
		c-2,0-3.6-0.6-5-1.9c-1.4-1.3-2.1-2.9-2.2-4.9c-0.1-0.3-0.1-0.6-0.1-0.9c0-0.3,0.1-0.6,0.1-0.9l-1.1-0.3c-1.7-0.5-3.1-1.4-4.3-2.6
		c-1.2,0.8-2.6,1.4-4.1,1.6c-1.5,0.2-3,0.1-4.4-0.4c-1.5-0.5-2.7-1.3-3.7-2.1c-0.1-0.1-0.1-0.1-0.2-0.1c-3-0.6-5.2-1.9-6.6-3.8
		C3,40,1.8,37.2,1.3,34.3C1.2,34,1.1,33.6,1,33.2c-0.1-0.4-0.2-0.8-0.4-1.3c-1-2.5-0.8-4.8,0.4-7c0.5-0.8,1-1.6,1.5-2.4
		s1-1.6,1.5-2.4L4.7,19l0.1-0.2l1.1-1.3c0.6-0.8,1.3-1.3,2.1-1.4C8.1,16,8.3,16,8.4,16c0.2,0,0.3-0.1,0.5-0.2
		c0.5-0.1,0.9-0.3,1.4-0.4c0.5-0.1,1-0.3,1.6-0.3c0.7-0.1,1.3-0.1,1.9-0.2c0.5-0.1,1-0.3,1.4-0.6c1.6-1,3.2-1.4,5-1.4
		c0.7,0,1.3,0,1.8,0.1s1,0.2,1.4,0.2c1.7,0.4,3.3,0.4,4.8-0.1c2.7-0.8,5.5-0.7,8.1,0.4c0.7,0.3,1.4,0.3,2.1,0.1
		c1.3-0.4,2.6-0.6,3.9-0.6c3.8,0,6.9,1.8,9.4,5.4l1.1,1.8c0.5,0.7,0.9,1.5,1.2,2.3s0.5,1.7,0.7,2.5s0.3,1.6,0.4,2.3
		c0.1,0.7,0.2,1.3,0.2,1.9c0.2,2.1,0.1,4.1-0.3,5.9L55.5,35z M56.1,43.7c0.1-2.7-0.7-5.4-2.2-7.9c0-0.1,0-0.1-0.1-0.2l-0.4-0.4
		l0.1-0.6c0.3-1.7,0.4-3.6,0.3-5.5c-0.1-1-0.3-2.3-0.6-3.8c-0.3-1.6-0.8-3-1.7-4.4l-1.2-1.7c-2-3-4.6-4.6-7.7-4.6
		c-1,0-2.1,0.2-3.4,0.5c-1.3,0.4-2.4,0.3-3.5-0.1c-2.2-1-4.4-1.1-6.7-0.4c-0.9,0.3-1.8,0.5-2.7,0.5s-2-0.1-3.1-0.3
		c-0.4-0.1-0.8-0.2-1.3-0.3s-1-0.1-1.6-0.1c-1.6,0-2.9,0.4-3.9,1.2c-0.6,0.4-1.2,0.6-1.9,0.8c-0.7,0.1-1.4,0.3-2.3,0.3
		c-0.5,0.1-0.9,0.1-1.3,0.3c-0.4,0.1-0.8,0.2-1.3,0.4c-0.3,0.2-0.6,0.3-1,0.4s-0.8,0.3-1.1,0.7l-1,1.4L5.8,21
		c-0.5,0.8-1,1.6-1.5,2.3c-0.5,0.8-1,1.6-1.5,2.4c-1,1.7-1,3.5-0.3,5.5c0.2,0.5,0.3,1,0.5,1.5c0.1,0.4,0.2,0.9,0.3,1.3
		c0.5,2.7,1.6,5.3,3.3,7.6c1,1.6,2.8,2.6,5.4,3.1c0.1,0.1,0.2,0.1,0.3,0.1l0.5,0.1l0.4,0.4c0.4,0.4,0.8,0.8,1.3,1
		c0.5,0.3,1.1,0.5,1.7,0.8c1.2,0.4,2.4,0.5,3.6,0.3s2.3-0.7,3.3-1.4l1.1-0.8l1,1.1c1,1,2.1,1.8,3.6,2.2c0.2,0.1,0.5,0.1,0.6,0.1
		c0.2,0,0.4,0.1,0.6,0.1l1.5,0.3l-0.3,1.4c-0.1,0.3-0.1,0.6-0.1,0.9c0,0.3,0,0.6,0,0.9c0.1,1.5,0.6,2.7,1.6,3.7s2.3,1.4,3.8,1.4H37
		c1-0.1,1.9-0.2,2.9-0.3s1.9-0.2,2.9-0.3l0.6-0.1c0.1-0.1,0.7-0.1,1.7-0.1h1h0.4c0.2,0.1,0.4,0.1,0.5,0.1c0.2,0,0.4,0,0.5,0.1
		c2.6,0.2,4.5-0.8,5.9-3C55,51,55.9,47.7,56.1,43.7z M35.7,44.6c-0.1,0.1-0.2,0.2-0.4,0.4c-0.1,0.1-0.2,0.2-0.4,0.4
		c-0.2,0.1-0.3,0.2-0.4,0.3C33.4,46.5,32.2,47,31,47c-0.6,0-1.2-0.1-1.7-0.3c-2.1-0.7-3.5-2-3.9-3.9c-0.1-0.2-0.2-0.6-0.2-1.1
		s0-1,0-1.5v-2V29c-0.7,0.8-1,1.5-1.1,2.3C24,32,24,32.8,24,33.7l0.1,1.3c0.1,0.4,0.1,0.7,0,1.1c0,0.4,0,0.7,0,1.2v1V39L24,40.1v0.3
		l-0.1,0.4v0.7v0.4c-0.2,0.6-0.5,1.1-0.9,1.5L22.4,44c-1,1-2.3,1.5-3.8,1.5c-0.7,0-1.3-0.1-1.9-0.3c-2.1-0.7-3.2-2.1-3.4-4.1
		L13,37.5v-7.8l-0.5-0.1c-0.5,1.3-0.7,2.6-0.8,3.9s0,2.7,0,4c0,1.7,0.1,3,0.3,3.9c0.1,0.5,0.1,1,0.3,1.3c-0.8-0.2-1.6-0.5-2.3-0.8
		c-0.7-0.4-1.3-0.9-1.8-1.5c-0.8-1-1.4-2.1-1.9-3.2c-0.5-1.1-0.9-2.4-1-3.7C5.2,33,5,32.5,4.9,32c-0.1-0.5-0.3-1-0.5-1.6
		c-0.2-0.7-0.4-1.3-0.4-2s0.2-1.3,0.5-1.9c0.6-1,1.2-2,1.8-3c0.6-0.9,1.2-1.9,1.9-2.9l1-1.3c0.6-0.2,1.1-0.4,1.7-0.5
		c0.5-0.2,1-0.3,1.5-0.4c1-0.1,1.8-0.3,2.7-0.4c0.8-0.2,1.7-0.5,2.5-1c0.7-0.5,1.6-0.8,2.8-0.8c0.4,0,0.8,0,1.2,0.1s0.8,0.1,1.2,0.2
		c1,0.2,2,0.4,3.2,0.4c1.3,0,2.5-0.2,3.8-0.5c0.7-0.2,1.4-0.4,2.1-0.4c1.1,0,2.1,0.2,3,0.6s1.8,0.5,2.6,0.5c0.4,0,0.8,0,1.2-0.1
		s0.7-0.1,1.2-0.3c0.5-0.2,1-0.3,1.4-0.4c0.5-0.1,0.9-0.1,1.3-0.1c2.4,0,4.4,1.2,6,3.7l1.1,1.6c0.5,0.9,1,2,1.3,3.3
		c0.4,1.3,0.6,2.6,0.7,4s0.1,2.8-0.1,4.2c-0.2,1.4-0.4,2.6-0.9,3.6l-2.1,5.7c-1,1.8-2.6,2.7-4.7,2.7c-0.5,0-1-0.1-1.6-0.3
		c-1.2-0.3-2.2-1-3.1-2c-0.9-1-1.2-2.1-1.1-3.3c0.1-0.5,0-1.1,0-1.6C38,37.3,38,36.7,38,36.2c0-0.6,0-1.2,0-1.7s0-1.1-0.1-1.7v-0.4
		l-0.1-4.9c-0.6,0.9-0.9,1.8-1,2.6c-0.1,0.9-0.1,1.7-0.1,2.5c-0.1,1.6-0.1,3.1,0,4.7c0.1,1.6,0,3.1-0.1,4.7
		C36.7,43,36.4,43.8,35.7,44.6z M52.7,38.1c1,1.8,1.5,3.7,1.4,5.5c-0.1,1.6-0.3,3.2-0.7,4.7s-1,3-1.8,4.3c-0.9,1.4-2.1,2.1-3.6,2.1
		h-0.4c-0.2,0-0.6-0.1-1.1-0.2h-1.6c-0.4,0-0.7,0-1,0s-0.6,0-0.9,0.1c-1,0.1-2.1,0.3-3.1,0.4c-1.1,0.1-2.1,0.2-3.1,0.3h-0.3
		c-0.9,0-1.7-0.3-2.3-0.9c-0.6-0.6-1-1.3-1-2.2c-0.1-2.2,0.9-4,2.8-5.5l1.6-0.9h0.1l0.1-0.1c0.2-0.1,0.4-0.2,0.8-0.4
		c0.9,0.8,2,1.3,3.4,1.7c0.7,0.2,1.4,0.3,2.1,0.3c3,0,5.2-1.3,6.7-3.8c0-0.1,0-0.1,0-0.2s0-0.1,0-0.2L52.7,38.1z M42.5,53.4
		c0.1-0.1,0.1-0.3,0.2-0.5c0.1-0.3,0.2-0.8,0.2-1.4c-0.2-1.1-0.8-1.8-2-2c-0.5-0.1-0.9-0.2-1.3-0.3c-0.4-0.1-0.8-0.2-1.3-0.3h-0.2
		c-0.1,0-0.3,0-0.4,0.1c-0.1,0.1-0.3,0.4-0.4,0.9c-0.2,0.8-0.3,1.6-0.5,2.4c-0.1,0.8-0.3,1.6-0.4,2.5c1.1-0.2,2.2-0.3,3.3-0.3
		C40.7,54.5,41.7,54.2,42.5,53.4z"/>
</g>
</svg>
