<?xml version="1.0" encoding="utf-8"?>
<!-- Generator: Adobe Illustrator 25.4.1, SVG Export Plug-In . SVG Version: 6.00 Build 0)  -->
<!DOCTYPE svg PUBLIC "-//W3C//DTD SVG 1.1//EN" "http://www.w3.org/Graphics/SVG/1.1/DTD/svg11.dtd" [
	<!ENTITY ns_extend "http://ns.adobe.com/Extensibility/1.0/">
	<!ENTITY ns_ai "http://ns.adobe.com/AdobeIllustrator/10.0/">
	<!ENTITY ns_graphs "http://ns.adobe.com/Graphs/1.0/">
	<!ENTITY ns_vars "http://ns.adobe.com/Variables/1.0/">
	<!ENTITY ns_imrep "http://ns.adobe.com/ImageReplacement/1.0/">
	<!ENTITY ns_sfw "http://ns.adobe.com/SaveForWeb/1.0/">
	<!ENTITY ns_custom "http://ns.adobe.com/GenericCustomNamespace/1.0/">
	<!ENTITY ns_adobe_xpath "http://ns.adobe.com/XPath/1.0/">
]>
<svg version="1.1" id="Layer_1" xmlns:x="&ns_extend;" xmlns:i="&ns_ai;" xmlns:graph="&ns_graphs;"
	 xmlns="http://www.w3.org/2000/svg" xmlns:xlink="http://www.w3.org/1999/xlink" x="0px" y="0px" width="67.7px" height="72px"
	 viewBox="0 0 67.7 72" style="enable-background:new 0 0 67.7 72;" xml:space="preserve">
<style type="text/css">
	.st0{fill:#FFFFFF;}
</style>
<metadata>
	<sfw  xmlns="&ns_sfw;">
		<slices></slices>
		<sliceSourceBounds  bottomLeftOrigin="true" height="71.1" width="67.7" x="2.7" y="0.4"></sliceSourceBounds>
	</sfw>
</metadata>
<polygon class="st0" points="14,31 21.4,54.9 46,55.1 53.8,31.3 34,16.4 "/>
<path d="M67.7,25.2l-0.1,0.3l-1.3,22L53.1,64.9l-0.4,0.4l-0.1,0.1L32,71.6L13.8,63L0.3,46.9L0,25.6v-0.2l0.3-0.3L13,7.2l19.9-6.7
	l23.8,9l10.7,15.4L67.7,25.2z M53.8,31.3L34,16.4L14,31l7.4,23.9L46,55.1L53.8,31.3z M25.7,32.7l-3.3,1.5l-0.1-2.9l4.7-2.1h3
	l-3.2,17.1h-3.6L25.7,32.7z M31.8,46.3l0.5-2.5l3.6-2.8c1.7-1.4,3.1-2.6,4.1-3.7c1-1.1,1.5-2.2,1.5-3.2c0-0.6-0.2-1.1-0.6-1.5
	c-0.4-0.4-1-0.6-1.7-0.6c-0.8,0-1.4,0.1-2,0.3s-1.1,0.4-1.6,0.7l-0.7-2.7c0.7-0.4,1.4-0.8,2.4-1.1c0.9-0.3,1.9-0.4,2.8-0.4
	c1.7,0,3,0.4,3.9,1.3s1.3,2,1.3,3.3c0,1.8-0.6,3.3-1.7,4.6c-1.2,1.3-2.5,2.5-4,3.6L37.8,43v0.1h6.1l-0.6,3.2H31.8z"/>
</svg>
