<?xml version="1.0" encoding="utf-8"?>
<!-- Generator: Adobe Illustrator 25.4.1, SVG Export Plug-In . SVG Version: 6.00 Build 0)  -->
<!DOCTYPE svg PUBLIC "-//W3C//DTD SVG 1.1//EN" "http://www.w3.org/Graphics/SVG/1.1/DTD/svg11.dtd" [
	<!ENTITY ns_extend "http://ns.adobe.com/Extensibility/1.0/">
	<!ENTITY ns_ai "http://ns.adobe.com/AdobeIllustrator/10.0/">
	<!ENTITY ns_graphs "http://ns.adobe.com/Graphs/1.0/">
	<!ENTITY ns_vars "http://ns.adobe.com/Variables/1.0/">
	<!ENTITY ns_imrep "http://ns.adobe.com/ImageReplacement/1.0/">
	<!ENTITY ns_sfw "http://ns.adobe.com/SaveForWeb/1.0/">
	<!ENTITY ns_custom "http://ns.adobe.com/GenericCustomNamespace/1.0/">
	<!ENTITY ns_adobe_xpath "http://ns.adobe.com/XPath/1.0/">
]>
<svg version="1.1" id="Layer_1" xmlns:x="&ns_extend;" xmlns:i="&ns_ai;" xmlns:graph="&ns_graphs;"
	 xmlns="http://www.w3.org/2000/svg" xmlns:xlink="http://www.w3.org/1999/xlink" x="0px" y="0px" width="51.4px" height="72px"
	 viewBox="0 0 51.4 72" style="enable-background:new 0 0 51.4 72;" xml:space="preserve">
<style type="text/css">
	.st0{fill:#FFFFFF;}
</style>
<metadata>
	<sfw  xmlns="&ns_sfw;">
		<slices></slices>
		<sliceSourceBounds  bottomLeftOrigin="true" height="51.1" width="51.4" x="10.8" y="10.7"></sliceSourceBounds>
	</sfw>
</metadata>
<g>
	<polygon class="st0" points="50.2,47.1 25.8,59.5 1.4,47.3 1.3,26.4 7.6,29.6 7.5,12.6 25.6,21.7 43.7,12.5 43.8,29.4 50.1,26.2 	
		"/>
	<path d="M25.6,20.2l19.5-10v16.5l6.2-3.1l0.1,24.8L25.8,61.3L0.1,48.5L0,23.7l6.1,3V10.3L25.6,20.2z M8,13.6L8.1,30L2,27l0.1,20.2
		l23.7,11.9L49.4,47l-0.1-20.2l-6.1,3l0-16.3l-17.5,8.9L8,13.6z M25.7,40.9l21.5-11v15.6l-21.5,11L4.2,45.7L4.1,30.1L25.7,40.9z
		 M25.7,25.7l15.5-8v11.2l-15.5,8L10.2,29V17.9L25.7,25.7z"/>
</g>
</svg>
