<?xml version="1.0" encoding="utf-8"?>
<!-- Generator: Adobe Illustrator 25.4.1, SVG Export Plug-In . SVG Version: 6.00 Build 0)  -->
<!DOCTYPE svg PUBLIC "-//W3C//DTD SVG 1.1//EN" "http://www.w3.org/Graphics/SVG/1.1/DTD/svg11.dtd" [
	<!ENTITY ns_extend "http://ns.adobe.com/Extensibility/1.0/">
	<!ENTITY ns_ai "http://ns.adobe.com/AdobeIllustrator/10.0/">
	<!ENTITY ns_graphs "http://ns.adobe.com/Graphs/1.0/">
	<!ENTITY ns_vars "http://ns.adobe.com/Variables/1.0/">
	<!ENTITY ns_imrep "http://ns.adobe.com/ImageReplacement/1.0/">
	<!ENTITY ns_sfw "http://ns.adobe.com/SaveForWeb/1.0/">
	<!ENTITY ns_custom "http://ns.adobe.com/GenericCustomNamespace/1.0/">
	<!ENTITY ns_adobe_xpath "http://ns.adobe.com/XPath/1.0/">
]>
<svg version="1.1" id="Layer_1" xmlns:x="&ns_extend;" xmlns:i="&ns_ai;" xmlns:graph="&ns_graphs;"
	 xmlns="http://www.w3.org/2000/svg" xmlns:xlink="http://www.w3.org/1999/xlink" x="0px" y="0px" width="54.8px" height="72px"
	 viewBox="0 0 54.8 72" style="enable-background:new 0 0 54.8 72;" xml:space="preserve">
<style type="text/css">
	.st0{fill:#FFFFFF;}
</style>
<metadata>
	<sfw  xmlns="&ns_sfw;">
		<slices></slices>
		<sliceSourceBounds  bottomLeftOrigin="true" height="66.1" width="54.8" x="8.6" y="3.2"></sliceSourceBounds>
	</sfw>
</metadata>
<g>
	<polygon class="st0" points="1.6,41.9 27.4,4.6 53.3,41.9 	"/>
	<path d="M54.8,42l-0.5,0.5L27.4,68.8L0.5,42.6L0,42L27.4,2.7L54.8,42z M53.3,41.9L27.4,4.6L1.6,41.9H53.3z M33.3,23.1
		c0,0.8-0.2,1.6-0.7,2.2s-1.1,1.1-2,1.4v0.1c0.7,0.4,1.2,0.8,1.5,1.4c0.4,0.6,0.5,1.2,0.5,1.9c0,1.7-0.6,2.9-1.9,3.8
		C29.4,34.6,28,35,26.6,35c-1.6,0-2.8-0.4-3.6-1.1c-0.9-0.7-1.3-1.7-1.3-2.8c0-1.1,0.3-2,0.9-2.7s1.4-1.3,2.2-1.6l0.1-0.1
		c-1-0.7-1.5-1.6-1.5-2.8c0-1.4,0.6-2.6,1.7-3.4c1.1-0.8,2.4-1.3,3.9-1.3c1.2,0,2.2,0.3,3.1,1C33,20.9,33.3,21.9,33.3,23.1z
		 M29.1,30.4c0-0.7-0.2-1.1-0.5-1.5c-0.4-0.3-0.8-0.6-1.3-0.9c-0.6,0.2-1.1,0.5-1.6,0.9s-0.7,1-0.7,1.7c0,0.5,0.2,1,0.5,1.4
		c0.3,0.4,0.8,0.6,1.5,0.6c0.5,0,1-0.2,1.5-0.6C28.9,31.6,29.1,31,29.1,30.4z M26.5,23.7c0,0.5,0.2,0.9,0.5,1.2
		c0.4,0.3,0.8,0.6,1.3,0.8c0.5-0.2,0.9-0.5,1.3-0.9c0.4-0.4,0.5-0.8,0.5-1.4c0-0.5-0.1-0.9-0.4-1.2c-0.3-0.2-0.7-0.4-1.3-0.4
		c-0.5,0-1,0.2-1.4,0.6C26.7,22.8,26.5,23.2,26.5,23.7z"/>
</g>
</svg>
