<?xml version="1.0" encoding="utf-8"?>
<!-- Generator: Adobe Illustrator 25.4.1, SVG Export Plug-In . SVG Version: 6.00 Build 0)  -->
<!DOCTYPE svg PUBLIC "-//W3C//DTD SVG 1.1//EN" "http://www.w3.org/Graphics/SVG/1.1/DTD/svg11.dtd" [
	<!ENTITY ns_extend "http://ns.adobe.com/Extensibility/1.0/">
	<!ENTITY ns_ai "http://ns.adobe.com/AdobeIllustrator/10.0/">
	<!ENTITY ns_graphs "http://ns.adobe.com/Graphs/1.0/">
	<!ENTITY ns_vars "http://ns.adobe.com/Variables/1.0/">
	<!ENTITY ns_imrep "http://ns.adobe.com/ImageReplacement/1.0/">
	<!ENTITY ns_sfw "http://ns.adobe.com/SaveForWeb/1.0/">
	<!ENTITY ns_custom "http://ns.adobe.com/GenericCustomNamespace/1.0/">
	<!ENTITY ns_adobe_xpath "http://ns.adobe.com/XPath/1.0/">
]>
<svg version="1.1" id="Layer_1" xmlns:x="&ns_extend;" xmlns:i="&ns_ai;" xmlns:graph="&ns_graphs;"
	 xmlns="http://www.w3.org/2000/svg" xmlns:xlink="http://www.w3.org/1999/xlink" x="0px" y="0px" width="43.9px" height="72px"
	 viewBox="0 0 43.9 72" style="enable-background:new 0 0 43.9 72;" xml:space="preserve">
<style type="text/css">
	.st0{fill:#FFFFFF;}
</style>
<metadata>
	<sfw  xmlns="&ns_sfw;">
		<slices></slices>
		<sliceSourceBounds  bottomLeftOrigin="true" height="51.8" width="43.9" x="14.6" y="10.3"></sliceSourceBounds>
	</sfw>
</metadata>
<g>
	<path class="st0" d="M34.1,17.2c-2.6-0.7-4.9-1.5-6.7-2.5c-2.1-1.1-4-2.4-5.6-3.9c-1.6,1.5-3.5,2.8-5.6,3.9c-1.8,1-4.1,1.8-6.7,2.5
		S3.9,18.1,0.6,18C0.5,22.8,1,27.5,1.9,31.8c0.3,1.9,0.8,3.8,1.5,5.8c0.6,2,1.4,3.8,2.3,5.7s2,3.5,3.3,5.1s2.8,3,4.5,4.1
		c1.4,0.9,2.7,1.9,3.9,2.9c1,0.8,1.9,1.7,2.8,2.7c0.9,1,1.4,1.9,1.6,2.8c0.2-0.9,0.8-1.8,1.7-2.8s1.8-1.9,2.8-2.7
		c1.2-1,2.5-1.9,3.9-2.9c1.7-1.2,3.2-2.5,4.5-4.1s2.4-3.3,3.3-5.1s1.7-3.7,2.3-5.7s1.1-3.9,1.5-5.8c0.9-4.4,1.3-9,1.3-13.8
		C39.8,18.1,36.8,17.8,34.1,17.2z"/>
	<path d="M43.9,17.3c0,5-0.5,9.8-1.3,14.3c-0.4,2-0.9,4-1.6,6c-0.6,2-1.4,4-2.4,5.9s-2.1,3.6-3.4,5.3s-2.9,3.1-4.7,4.3
		c-1.5,1-2.8,1.9-4,2.9c-1,0.8-2,1.8-2.9,2.8s-1.5,2-1.7,2.9c-0.2-0.9-0.8-1.8-1.7-2.9c-0.9-1-1.8-1.9-2.9-2.8c-1.2-1-2.5-2-4-2.9
		c-1.8-1.2-3.3-2.6-4.7-4.3s-2.4-3.4-3.4-5.3c-1-1.9-1.8-3.8-2.4-5.9c-0.7-2-1.2-4-1.5-6c-1-4.5-1.4-9.3-1.3-14.3
		c3.4,0.2,6.5-0.1,9.2-0.8c2.7-0.7,5-1.6,6.9-2.6c2.2-1.1,4.1-2.5,5.8-4c1.7,1.6,3.6,2.9,5.8,4c1.9,1,4.2,1.9,6.9,2.6
		S40.4,17.5,43.9,17.3z M29.6,51.1c1.6-1.1,2.9-2.3,4.1-3.8c1.2-1.5,2.2-3,3-4.7c0.9-1.7,1.6-3.4,2.1-5.2c0.6-1.8,1-3.5,1.4-5.3
		c0.8-4.1,1.2-8.3,1.2-12.8c-3.1,0.2-5.8-0.1-8.2-0.8c-2.4-0.7-4.4-1.4-6.2-2.3c-2-1-3.7-2.2-5.2-3.6c-1.5,1.4-3.2,2.6-5.2,3.6
		c-1.7,0.8-3.8,1.6-6.2,2.3c-2.4,0.7-5.1,0.9-8.2,0.8c0,4.5,0.4,8.7,1.3,12.8c0.4,1.7,0.8,3.5,1.4,5.3s1.3,3.5,2.1,5.2
		c0.8,1.7,1.8,3.3,3,4.7c1.2,1.5,2.5,2.7,4.2,3.8c1.3,0.8,2.5,1.7,3.6,2.6c0.9,0.8,1.8,1.6,2.6,2.5s1.3,1.8,1.5,2.6
		c0.2-0.8,0.7-1.7,1.5-2.6c0.8-0.9,1.7-1.7,2.6-2.5C27,52.8,28.2,52,29.6,51.1z M21.9,15.1c1.3,1.2,2.9,2.2,4.7,3.1
		c1.6,0.8,3.4,1.5,5.5,2.1s4.6,0.8,7.4,0.7c0,4-0.4,7.8-1.1,11.4c-0.3,1.6-0.7,3.1-1.3,4.7c-0.5,1.6-1.2,3.2-2,4.7s-1.7,2.9-2.7,4.2
		c-1,1.3-2.3,2.4-3.7,3.4c-1.2,0.8-2.3,1.6-3.2,2.3c-0.8,0.7-1.6,1.4-2.3,2.2s-1.2,1.6-1.3,2.3C21.9,56.2,21.9,15.1,21.9,15.1z"/>
</g>
</svg>
