<?xml version="1.0" encoding="utf-8"?>
<!-- Generator: Adobe Illustrator 27.3.1, SVG Export Plug-In . SVG Version: 6.00 Build 0)  -->
<!DOCTYPE svg PUBLIC "-//W3C//DTD SVG 1.1//EN" "http://www.w3.org/Graphics/SVG/1.1/DTD/svg11.dtd" [
	<!ENTITY ns_extend "http://ns.adobe.com/Extensibility/1.0/">
	<!ENTITY ns_ai "http://ns.adobe.com/AdobeIllustrator/10.0/">
	<!ENTITY ns_graphs "http://ns.adobe.com/Graphs/1.0/">
	<!ENTITY ns_vars "http://ns.adobe.com/Variables/1.0/">
	<!ENTITY ns_imrep "http://ns.adobe.com/ImageReplacement/1.0/">
	<!ENTITY ns_sfw "http://ns.adobe.com/SaveForWeb/1.0/">
	<!ENTITY ns_custom "http://ns.adobe.com/GenericCustomNamespace/1.0/">
	<!ENTITY ns_adobe_xpath "http://ns.adobe.com/XPath/1.0/">
]>
<svg version="1.1" id="Layer_1" xmlns:x="&ns_extend;" xmlns:i="&ns_ai;" xmlns:graph="&ns_graphs;"
	 xmlns="http://www.w3.org/2000/svg" xmlns:xlink="http://www.w3.org/1999/xlink" x="0px" y="0px" width="72.7px" height="72px"
	 viewBox="0 0 72.7 72" style="enable-background:new 0 0 72.7 72;" xml:space="preserve">
<style type="text/css">
	.st0{fill:#FFFFFF;}
</style>
<metadata>
	<sfw  xmlns="&ns_sfw;">
		<slices></slices>
		<sliceSourceBounds  bottomLeftOrigin="true" height="72" width="72" x="0.3" y="0"></sliceSourceBounds>
	</sfw>
</metadata>
<circle class="st0" cx="36.3" cy="36" r="36"/>
<g>
	<g>
		<path d="M37.5,69.2c-0.9,0-1.6,0-2.5,0c-0.1,0-0.1,0-0.2,0c-0.7-0.1-1.4-0.1-2.1-0.2c-2.4-0.2-4.8-0.8-7-1.5
			c-5.3-1.8-9.9-4.8-13.7-8.9c-5.5-6-8.6-13-8.9-21.2c-0.2-2.8,0.1-5.5,0.7-8.2c1.4-6.9,4.7-12.7,9.7-17.4c5.9-5.6,13-8.7,21.2-9
			c1.8-0.1,3.6,0,5.4,0.2c2.3,0.3,4.5,0.8,6.6,1.4c5.2,1.7,9.7,4.6,13.5,8.5c2.4,2.5,4.4,5.3,6,8.4c2.7,5.4,3.8,11.1,3.3,17.2
			c-0.2,2-0.5,4-1,5.9c-1.6,6-4.7,11.2-9.1,15.5c-3.3,3.2-7.2,5.7-11.7,7.3c-3,1-5.9,1.7-9,1.9C38.3,69.1,37.9,69.2,37.5,69.2z
			 M38.9,43.1c-0.1,0-0.2,0.1-0.3,0.1c-2.6,0.9-5.2,1.8-7.8,2.7c-0.2,0.1-0.3,0.2-0.3,0.4c0,4.6,0,9.1,0,13.7c0,0.2,0.1,0.3,0.3,0.4
			c1.2,0.3,2.6,0.5,3.9,0.6c2.2,0.1,4.3,0,6.4-0.4c5-1,9.4-3.2,13-6.9c5-5,7.5-11.2,7.3-18.4c0-1.7-0.3-3.4-0.7-5
			C59,23,54.7,17.4,48.2,13.8c-0.1,0-0.2-0.1-0.3-0.1c0,0.3,0,0.5,0,0.7c-0.1,1.7-0.1,3.3-0.2,5c-0.1,1.7-0.1,3.3-0.2,5
			c-0.1,1.7-0.1,3.4-0.2,5.1c-0.1,1.6-0.1,3.2-0.2,4.9c-0.1,2.1-0.2,4.2-0.3,6.3c-0.1,1.7-0.1,3.3-0.2,5c-0.1,1.7-0.1,3.4-0.2,5
			c-0.1,1.5-0.1,3-0.2,4.5c0,0.2-0.1,0.3-0.3,0.3c-1,0-2.1,0-3.1,0c-1,0-2,0-3,0c-0.2,0-0.3,0-0.3-0.2c0-0.7-0.1-1.3-0.1-2.1
			c-0.1-1.1-0.1-2.2-0.2-3.3c-0.1-1.8-0.2-3.7-0.3-5.5C39,44.1,39,43.6,38.9,43.1z M23.2,57.2c0-0.3,0-0.5,0-0.7
			c-0.1-1-0.1-2.1-0.2-3.1c-0.1-1.3-0.2-2.7-0.3-4c-0.2-1.1-0.2-2.2-0.3-3.3c-0.1-1.6-0.2-3.2-0.4-4.9c-0.1-1-0.1-2.1-0.2-3.1
			c-0.1-1.3-0.2-2.7-0.3-4c-0.1-1-0.1-2.1-0.2-3.2c-0.1-1.6-0.2-3.2-0.4-4.9c-0.1-1-0.1-2.1-0.2-3.1c-0.1-1.5-0.2-3.1-0.3-4.7
			c0-0.6-0.1-0.4,0.4-0.5c2.4-0.4,4.7-0.9,7-1.2c0.7-0.1,1.4-0.3,2.1-0.4c0.1,7.5,0.3,15,0.4,22.5c0.1,0,0.2,0,0.3-0.1
			c2.5-0.7,4.9-1.2,7.3-1.9c0.3-0.1,0.3-0.2,0.3-0.5c0-3.9,0-7.7,0-11.6c0-2.8,0-5.6,0-8.4c0-1.7,0-3.5,0-5.2
			c-8.9-0.9-21.5,4.2-25.8,17.4C8.5,40.3,14.4,52.1,23.2,57.2z"/>
	</g>
</g>
</svg>
