<?xml version="1.0" encoding="utf-8"?>
<!-- Generator: Adobe Illustrator 25.4.1, SVG Export Plug-In . SVG Version: 6.00 Build 0)  -->
<!DOCTYPE svg PUBLIC "-//W3C//DTD SVG 1.1//EN" "http://www.w3.org/Graphics/SVG/1.1/DTD/svg11.dtd" [
	<!ENTITY ns_extend "http://ns.adobe.com/Extensibility/1.0/">
	<!ENTITY ns_ai "http://ns.adobe.com/AdobeIllustrator/10.0/">
	<!ENTITY ns_graphs "http://ns.adobe.com/Graphs/1.0/">
	<!ENTITY ns_vars "http://ns.adobe.com/Variables/1.0/">
	<!ENTITY ns_imrep "http://ns.adobe.com/ImageReplacement/1.0/">
	<!ENTITY ns_sfw "http://ns.adobe.com/SaveForWeb/1.0/">
	<!ENTITY ns_custom "http://ns.adobe.com/GenericCustomNamespace/1.0/">
	<!ENTITY ns_adobe_xpath "http://ns.adobe.com/XPath/1.0/">
]>
<svg version="1.1" id="Layer_1" xmlns:x="&ns_extend;" xmlns:i="&ns_ai;" xmlns:graph="&ns_graphs;"
	 xmlns="http://www.w3.org/2000/svg" xmlns:xlink="http://www.w3.org/1999/xlink" x="0px" y="0px" width="53.4px" height="72px"
	 viewBox="0 0 53.4 72" style="enable-background:new 0 0 53.4 72;" xml:space="preserve">
<style type="text/css">
	.st0{fill:#FFFFFF;}
</style>
<metadata>
	<sfw  xmlns="&ns_sfw;">
		<slices></slices>
		<sliceSourceBounds  bottomLeftOrigin="true" height="50.7" width="53.4" x="9.8" y="10.9"></sliceSourceBounds>
	</sfw>
</metadata>
<g>
	<polygon class="st0" points="18.2,12.8 35,12.8 35.1,27.8 50.9,27.7 50.9,43.6 35.1,43.7 35.2,58.7 18.4,58.8 18.4,43.8 2.5,43.8 
		2.5,27.9 18.3,27.8 	"/>
	<path d="M53.4,25v21.3L38,46.4L38.1,61l-22.5,0.1V46.5H0.1L0,25.2l15.4-0.1l-0.1-14.6l22.5-0.1V25H53.4z M34.9,43.5l15.4-0.1V27.9
		L34.9,28l-0.1-14.7l-16.5,0.1L18.5,28L3.1,28.1v15.6h15.5v14.6l16.5-0.1L34.9,43.5z M33.4,29.4l15.4-0.1V42l-15.4,0.1l0.1,14.6
		l-13.4,0.1L20,42.1L33.4,29.4z"/>
</g>
</svg>
