<?xml version="1.0" encoding="utf-8"?>
<!-- Generator: Adobe Illustrator 25.4.1, SVG Export Plug-In . SVG Version: 6.00 Build 0)  -->
<!DOCTYPE svg PUBLIC "-//W3C//DTD SVG 1.1//EN" "http://www.w3.org/Graphics/SVG/1.1/DTD/svg11.dtd" [
	<!ENTITY ns_extend "http://ns.adobe.com/Extensibility/1.0/">
	<!ENTITY ns_ai "http://ns.adobe.com/AdobeIllustrator/10.0/">
	<!ENTITY ns_graphs "http://ns.adobe.com/Graphs/1.0/">
	<!ENTITY ns_vars "http://ns.adobe.com/Variables/1.0/">
	<!ENTITY ns_imrep "http://ns.adobe.com/ImageReplacement/1.0/">
	<!ENTITY ns_sfw "http://ns.adobe.com/SaveForWeb/1.0/">
	<!ENTITY ns_custom "http://ns.adobe.com/GenericCustomNamespace/1.0/">
	<!ENTITY ns_adobe_xpath "http://ns.adobe.com/XPath/1.0/">
]>
<svg version="1.1" id="Layer_1" xmlns:x="&ns_extend;" xmlns:i="&ns_ai;" xmlns:graph="&ns_graphs;"
	 xmlns="http://www.w3.org/2000/svg" xmlns:xlink="http://www.w3.org/1999/xlink" x="0px" y="0px" width="72px" height="72px"
	 viewBox="0 0 72 72" style="enable-background:new 0 0 72 72;" xml:space="preserve">
<style type="text/css">
	.st0{fill:#FFFFFF;}
</style>
<metadata>
	<sfw  xmlns="&ns_sfw;">
		<slices></slices>
		<sliceSourceBounds  bottomLeftOrigin="true" height="71.2" width="16383" x="-8155" y="-71.5"></sliceSourceBounds>
	</sfw>
</metadata>
<g>
	<path class="st0" d="M64.8,32.7l-9.6,1.2c-1.2-2.4-2.7-4.6-4.5-6.6c-1.8-2-3.9-3.6-6.2-5.1c-2.3-1.4-4.8-2.5-7.4-3.3
		c-2.7-0.8-5.4-1.1-8.2-1.1c-1.4,0-2.6,0.1-3.9,0.3c-6.6,0.9-12.2,3.5-16.8,8c-2.7,2.6-4.7,5.3-6,8c-1.3,2.7-2,5.7-2.2,9.1v1.5
		L0,46.9h2.4l12.6-0.3l1.2-0.1l0.6-0.9l0.4-0.7c0.8-1.1,1.6-2.2,2.4-3.2l1.1,0.5l22.8,10.8l0.4,0.2l0.5,0.3l0.6-0.1l1-0.1h0.7
		l0.6-0.5l19.3-16.5l5.4-4.7L64.8,32.7z M24.7,36.8c0.6-0.4,1.1-0.8,1.6-1.2c0.7,0.7,1.3,1.3,1.8,1.9l-5,0.7
		C23.7,37.7,24.2,37.2,24.7,36.8z"/>
	<path d="M28.9,17.9c2.8,0,5.6,0.4,8.2,1.1c2.7,0.8,5.1,1.8,7.4,3.3c2.3,1.4,4.3,3.1,6.2,5.1s3.3,4.1,4.5,6.6l9.6-1.2l7.2-1
		l-5.4,4.7L47.4,52.9l-0.6,0.5h-0.7l-1,0.1l-0.6,0.1L44,53.3l-0.4-0.2L20.7,42.3l-1.1-0.5c-0.8,1-1.6,2.1-2.4,3.2l-0.4,0.7l-0.6,0.9
		l-1.2,0.1L2.4,46.9H0l0.1-2.2v-1.5c0.1-3.3,0.8-6.4,2.2-9.1c1.3-2.7,3.3-5.4,6-8c4.6-4.4,10.2-7.1,16.8-8
		C26.3,18,27.6,17.9,28.9,17.9z M28.9,20c-1.2,0-2.4,0.1-3.6,0.3c-6,0.8-11.2,3.3-15.5,7.4c-2.5,2.5-4.3,4.9-5.5,7.4
		c-1.2,2.5-1.9,5.2-2,8.2l-0.1,1.5l12.7-0.3l0.4-0.7c3.3-4.8,7-8.4,11.3-10.9c1.2,0.8,2.2,1.7,3.1,2.8s1.7,2.2,2.3,3.4l-10.3,1.3
		l22.9,10.8l0.4,0.2l0.9-0.1l19.3-16.5l-11.3,1.5c-1-2.5-2.3-4.7-4-6.7c-1.7-2-3.6-3.7-5.8-5.1c-2.2-1.4-4.6-2.5-7.1-3.3
		C34.3,20.4,31.7,20,28.9,20z M60.6,36.8L45.2,50l-18.5-8.8l7.5-1c-0.8-1.9-1.8-3.6-3.1-5.1c-1.3-1.5-2.8-2.8-4.5-3.8
		c-2.8,1.5-5.2,3.2-7.3,5.3c-2,2.1-3.8,4.2-5.3,6.5L3.9,43.3c0.1-3,0.8-5.7,2-8c1.2-2.3,2.9-4.5,5-6.6c1.9-1.9,4.1-3.4,6.5-4.6
		c2.5-1.2,5.2-2,8-2.4c3-0.4,6-0.3,8.9,0.4c2.9,0.6,5.5,1.7,8,3.1c2.4,1.4,4.6,3.2,6.4,5.4c1.8,2.2,3.2,4.6,4.1,7.2L60.6,36.8z
		 M12.9,41.6c1.5-2.1,3.2-4.1,5.2-6c2-1.9,4.4-3.6,7.1-5c-1.7-0.9-3.5-1.6-5.5-2c-2-0.4-4-0.5-6.1-0.3c-2.5,2.2-4.3,4.3-5.5,6.5
		c-1.2,2.1-2,4.4-2.3,6.7L12.9,41.6z M28.2,37.4c-0.5-0.6-1.1-1.2-1.8-1.9c-0.5,0.4-1.1,0.8-1.6,1.2c-0.6,0.4-1.1,0.9-1.5,1.3
		L28.2,37.4z"/>
</g>
</svg>
