<?xml version="1.0" encoding="utf-8"?>
<!-- Generator: Adobe Illustrator 25.4.1, SVG Export Plug-In . SVG Version: 6.00 Build 0)  -->
<!DOCTYPE svg PUBLIC "-//W3C//DTD SVG 1.1//EN" "http://www.w3.org/Graphics/SVG/1.1/DTD/svg11.dtd" [
	<!ENTITY ns_extend "http://ns.adobe.com/Extensibility/1.0/">
	<!ENTITY ns_ai "http://ns.adobe.com/AdobeIllustrator/10.0/">
	<!ENTITY ns_graphs "http://ns.adobe.com/Graphs/1.0/">
	<!ENTITY ns_vars "http://ns.adobe.com/Variables/1.0/">
	<!ENTITY ns_imrep "http://ns.adobe.com/ImageReplacement/1.0/">
	<!ENTITY ns_sfw "http://ns.adobe.com/SaveForWeb/1.0/">
	<!ENTITY ns_custom "http://ns.adobe.com/GenericCustomNamespace/1.0/">
	<!ENTITY ns_adobe_xpath "http://ns.adobe.com/XPath/1.0/">
]>
<svg version="1.1" id="Layer_1" xmlns:x="&ns_extend;" xmlns:i="&ns_ai;" xmlns:graph="&ns_graphs;"
	 xmlns="http://www.w3.org/2000/svg" xmlns:xlink="http://www.w3.org/1999/xlink" x="0px" y="0px" width="59px" height="72px"
	 viewBox="0 0 59 72" style="enable-background:new 0 0 59 72;" xml:space="preserve">
<style type="text/css">
	.st0{fill:#FFFFFF;}
</style>
<metadata>
	<sfw  xmlns="&ns_sfw;">
		<slices></slices>
		<sliceSourceBounds  bottomLeftOrigin="true" height="63.9" width="59" x="6.6" y="4.8"></sliceSourceBounds>
	</sfw>
</metadata>
<g>
	<polygon class="st0" points="5.1,36.7 29.4,5.2 53.8,36.7 29.5,47.5 	"/>
	<path d="M59,37L29.6,67l-0.2,0.2L29.3,67L0,37l2-6.3L29.5,3.3L57,30.8L59,37z M53.8,36.7L29.4,5.2L5.1,36.7l24.4,10.8L53.8,36.7z
		 M22.5,26.1L22.5,26.1l-3,1.3l-0.1-2.6l4.2-1.9h2.7l-2.9,15.3h-3.2L22.5,26.1z M39.1,28c0,1.2-0.1,2.4-0.4,3.6
		C38.4,32.9,38,34,37.4,35s-1.3,1.8-2.2,2.5s-1.9,1-3.1,1c-1.6,0-2.6-0.5-3.3-1.6c-0.7-1-1-2.3-1-3.9c0-1.2,0.2-2.4,0.5-3.6
		s0.7-2.3,1.3-3.3s1.3-1.8,2.1-2.4c0.9-0.6,1.9-0.9,3.1-0.9c1.6,0,2.7,0.5,3.4,1.6C38.8,25.4,39.1,26.6,39.1,28z M31,33.1
		c0,0.6,0.1,1.2,0.3,1.8s0.6,0.9,1.3,0.9c0.5,0,1-0.3,1.4-0.9c0.4-0.6,0.8-1.4,1-2.2c0.3-0.8,0.5-1.7,0.6-2.6s0.2-1.6,0.2-2.1
		s-0.1-1-0.2-1.7c-0.1-0.6-0.5-0.9-1.2-0.9c-0.5,0-1,0.3-1.5,0.9c-0.4,0.6-0.8,1.3-1.1,2.1c-0.3,0.8-0.5,1.7-0.6,2.5
		C31.1,31.9,31,32.6,31,33.1z"/>
</g>
</svg>
