<?xml version="1.0" encoding="utf-8"?>
<!-- Generator: Adobe Illustrator 25.4.1, SVG Export Plug-In . SVG Version: 6.00 Build 0)  -->
<!DOCTYPE svg PUBLIC "-//W3C//DTD SVG 1.1//EN" "http://www.w3.org/Graphics/SVG/1.1/DTD/svg11.dtd" [
	<!ENTITY ns_extend "http://ns.adobe.com/Extensibility/1.0/">
	<!ENTITY ns_ai "http://ns.adobe.com/AdobeIllustrator/10.0/">
	<!ENTITY ns_graphs "http://ns.adobe.com/Graphs/1.0/">
	<!ENTITY ns_vars "http://ns.adobe.com/Variables/1.0/">
	<!ENTITY ns_imrep "http://ns.adobe.com/ImageReplacement/1.0/">
	<!ENTITY ns_sfw "http://ns.adobe.com/SaveForWeb/1.0/">
	<!ENTITY ns_custom "http://ns.adobe.com/GenericCustomNamespace/1.0/">
	<!ENTITY ns_adobe_xpath "http://ns.adobe.com/XPath/1.0/">
]>
<svg version="1.1" id="Layer_1" xmlns:x="&ns_extend;" xmlns:i="&ns_ai;" xmlns:graph="&ns_graphs;"
	 xmlns="http://www.w3.org/2000/svg" xmlns:xlink="http://www.w3.org/1999/xlink" x="0px" y="0px" width="53.8px" height="72px"
	 viewBox="0 0 53.8 72" style="enable-background:new 0 0 53.8 72;" xml:space="preserve">
<style type="text/css">
	.st0{fill:#FFFFFF;}
</style>
<metadata>
	<sfw  xmlns="&ns_sfw;">
		<slices></slices>
		<sliceSourceBounds  bottomLeftOrigin="true" height="58.8" width="53.8" x="9.6" y="6.9"></sliceSourceBounds>
	</sfw>
</metadata>
<g>
	<rect x="1.9" y="14.6" class="st0" width="49.9" height="49.9"/>
	<path d="M53.8,13v52.1H0V13l8.4-6.7h36L53.8,13z M51.9,14.6h-50v48.7h49.9L51.9,14.6L51.9,14.6z M32.4,31.5c-0.2,0-0.5,0-0.7,0
		s-0.5,0-0.8,0.1c-1.7,0.1-3.1,0.6-4.3,1.4c-1.1,0.8-1.9,1.8-2.4,3h0.1c1-1,2.2-1.4,3.8-1.4c1.4,0,2.5,0.5,3.4,1.5
		c0.9,1,1.3,2.3,1.3,3.8c0,2.1-0.7,3.9-2.1,5.4c-1.4,1.5-3.2,2.3-5.4,2.3c-2.1,0-3.7-0.6-4.7-1.9c-1-1.3-1.6-2.8-1.6-4.7
		c0-2.1,0.4-4.1,1.3-5.9s2-3.2,3.3-4.2c2.1-1.7,4.7-2.7,7.6-2.8c0.7-0.1,1.2-0.1,1.5,0L32.4,31.5z M28.6,40.3c0-1.8-0.8-2.7-2.3-2.7
		c-0.5,0-1,0.2-1.5,0.5c-0.5,0.4-0.9,0.8-1.2,1.3c-0.2,0.4-0.3,0.7-0.3,1c-0.1,0.2-0.1,0.6-0.1,1c0,0.8,0.2,1.5,0.6,2.1
		c0.4,0.6,1,0.9,1.7,0.9c1,0,1.8-0.4,2.3-1.3C28.3,42.1,28.6,41.2,28.6,40.3z"/>
</g>
</svg>
