<svg xmlns="http://www.w3.org/2000/svg" viewBox="0 0 185 199.07"><defs><style>.cls-1{fill:#231f20;}</style></defs><title>5eBorder</title><g id="Layer_2" data-name="Layer 2"><g id="Layer_1-2" data-name="Layer 1"><path class="cls-1" d="M176.87,197.82h-2.25a21.19,21.19,0,0,0,4.12-3.23,21.59,21.59,0,0,0,2.51-3.1v2.59c-1.1.41-3.9,1.65-4.38,3.74M3.75,194.08v-2.59a21.59,21.59,0,0,0,2.51,3.1,21.19,21.19,0,0,0,4.12,3.23H8.13c-.48-2.09-3.28-3.33-4.38-3.74M1,178.6a2.71,2.71,0,0,0,1.21-.94,4.78,4.78,0,0,0,.29-.44v9.64A24.07,24.07,0,0,1,1,178.6M8.13,1.25h2.51C7.37,3,5,6.4,3.75,8.63V5c1.1-.41,3.9-1.65,4.38-3.74M181.25,5V8.63C180,6.4,177.63,3,174.36,1.25h2.51c.48,2.09,3.28,3.33,4.38,3.74m0,179.7a88.36,88.36,0,0,1-.85-11.46V9.2c.4.69.68,1.25.85,1.6Zm-177.5,3.5a97.39,97.39,0,0,0,1.34-15V8.35C6.75,5.68,9.69,2,13.58,1.25H171.42c3.88.72,6.83,4.44,8.48,7.11V173.23a97.52,97.52,0,0,0,1.35,15v1.37a19.92,19.92,0,0,1-3.19,4.29,19.08,19.08,0,0,1-5.6,4H12.54a19.84,19.84,0,0,1-8.79-8.27Zm0-177.4c.16-.34.45-.9.84-1.6v164a88.22,88.22,0,0,1-.84,11.46Zm179,166.87a2.75,2.75,0,0,0,1.2.94,24,24,0,0,1-1.49,8.25v-9.63a4.78,4.78,0,0,0,.29.44m2.21.54,0-.47-.47,0s-1.56-.16-2-4V4.09L182.06,4c-1.12-.35-4-1.63-4-3.32V0H7V.63c0,1.69-2.89,3-4,3.32l-.44.14v169.6c-.45,3.85-2,4-2,4H0v.5a24.29,24.29,0,0,0,2.5,11.15V195l.44.14c1.12.35,4,1.62,4,3.32v.63h171.1v-.63c0-1.7,2.89-3,4-3.32l.44-.14v-5.63A24.42,24.42,0,0,0,185,178.2"/></g></g></svg>