<svg xmlns="http://www.w3.org/2000/svg" viewBox="0 0 53.25 62.45"><defs><style>.cls-1{fill:#fff;}.cls-2{fill:#dcddde;}.cls-3{fill:#231f20;}</style></defs><title>Asset 26</title><g id="Layer_2" data-name="Layer 2"><g id="Layer_1-2" data-name="Layer 1"><path class="cls-1" d="M.76,20.47A94.29,94.29,0,0,1,2.26,42s-3.13,3.13.25,8.19l-.28,5.47H51l-.28-5.47C54.12,45.1,51,42,51,42a94.29,94.29,0,0,1,1.5-21.5l-1.43-1.06a37.52,37.52,0,0,0,1.09-4L51.2,3.83C48.35,5,46.51.7,46.51.7H6.74S4.9,5,2.05,3.83L1.1,15.38a35.65,35.65,0,0,0,1.1,4Z"/><path class="cls-1" d="M26.63,43.53c6.73,0,12.2,3.69,12.2,8.24S33.36,60,26.63,60s-12.21-3.7-12.21-8.24,5.47-8.24,12.21-8.24"/><path class="cls-2" d="M26.63,61.25c7.43,0,13.45-4.24,13.45-9.48s-6-9.49-13.45-9.49-13.46,4.25-13.46,9.49,6,9.48,13.46,9.48m0-2.5c-5.94,0-11-3.2-11-7s5-7,11-7,11,3.2,11,7-5,7-10.95,7"/><path class="cls-3" d="M2.78,32.27A94.4,94.4,0,0,0,2.2,20.11a8.16,8.16,0,0,1-.84.69C2,22.94,2.42,28.55,2.78,32.27m0,22.82H7.49a12.43,12.43,0,0,0-4.56-1.82c-.06.77-.11,1.39-.15,1.82M3,52.35a8.89,8.89,0,0,1,1.19.23c-.37-.36-.74-.76-1.12-1.2,0,.34,0,.67-.07,1m12.86,6a10.43,10.43,0,0,1-1.84-2H12.85c.56.8,1.66,2,3,2m-2-6.6a6.37,6.37,0,0,0,1,3.32,5.91,5.91,0,0,0,.41.61l0,.06c.16.21.33.42.51.62,2.26,2.5,6.26,4.17,10.84,4.17s8.58-1.67,10.83-4.17c.18-.2.35-.41.51-.62L38,55.7c.14-.2.28-.4.4-.61a6.37,6.37,0,0,0,1-3.32c0-4.85-5.72-8.79-12.75-8.79s-12.76,3.94-12.76,8.79m25.37,4.61a10.49,10.49,0,0,1-1.85,2c1.34,0,2.43-1.19,3-2Zm6.53-1.29h4.71c0-.43-.1-1.05-.16-1.82a12.32,12.32,0,0,0-4.55,1.82m3.29-2.51a8.89,8.89,0,0,1,1.19-.23c0-.3,0-.63-.07-1-.37.44-.75.84-1.12,1.2m1.42-20.31c.35-3.72.82-9.33,1.41-11.47a8.16,8.16,0,0,1-.84-.69,94.31,94.31,0,0,0-.57,12.16M1.53,52.22h.18c.05-.73.1-1.56.15-2.47A8.86,8.86,0,0,1,.41,45.89a6.18,6.18,0,0,1,1.7-4.75v-.77S1.2,23.44.37,20.74l-.11-.35.31-.19A8.73,8.73,0,0,0,2,19a4.22,4.22,0,0,0,1-1.47,3.4,3.4,0,0,0,.27-2.22c0-.07-.38-.89-.73-1.94l-.17,1.87c.18.52.33,1.07.47,1.64a3.5,3.5,0,0,1-1,1.33,23.2,23.2,0,0,0-.7-2.68l0-.13.81-9a21,21,0,0,0,.91,4.29A24.68,24.68,0,0,0,4.2,15a4.7,4.7,0,0,1-.89,3.87c1.08,6.09,0,27.82-.11,30.35A10.11,10.11,0,0,1,2,46.93c0-1.31.08-2.74.1-4.21a5,5,0,0,0-.75,3.09,7.83,7.83,0,0,0,1.38,3.56.71.71,0,0,0,.1.14,4.43,4.43,0,0,0,.29.42l0,0h0a19.59,19.59,0,0,0,3.78,3.73,24.84,24.84,0,0,1,2.29,1.38h0l.17.12c.52.35,1,.72,1.5,1.09l.12.08H5.23c-.08.52-.07,2.06,2.58,2.62,0,0,.39,1.33,4.33,2.26s.81-3.93-.39-4.88h0l-1.62-1.28h1.52a11.36,11.36,0,0,1-.58-2.73,2.84,2.84,0,0,1-3.42,1.18c.39.11,2,.34,3.45-2.69v0a5.41,5.41,0,0,1,1.66-3.5,8.89,8.89,0,0,0-.63,6.76,1.13,1.13,0,0,0,.88.42,7.38,7.38,0,0,1-.56-2.78c0-5.62,6.36-10.2,14.17-10.2s14.16,4.58,14.16,10.2a7.57,7.57,0,0,1-.55,2.78,1.15,1.15,0,0,0,.88-.42,8.94,8.94,0,0,0-.63-6.76,5.43,5.43,0,0,1,1.65,3.5v0c1.44,3,3.05,2.8,3.45,2.69a2.86,2.86,0,0,1-3.43-1.18,10.9,10.9,0,0,1-.58,2.73h1.52l-1.63,1.29c-1.2.95-4.33,5.8-.39,4.88S45.41,59,45.41,59c2.66-.56,2.67-2.1,2.59-2.62H42.22l.12-.08c.48-.37,1-.74,1.51-1.09l.16-.12h0a23.72,23.72,0,0,1,2.3-1.38A19.68,19.68,0,0,0,50.09,50h0l0,0,.3-.42.1-.14a7.93,7.93,0,0,0,1.37-3.56,5,5,0,0,0-.75-3.09c0,1.47.05,2.9.11,4.21a10.59,10.59,0,0,1-1.21,2.29c-.14-2.53-1.19-24.26-.11-30.35A4.7,4.7,0,0,1,49.05,15a23.82,23.82,0,0,0,1.38-4.38,21,21,0,0,0,.91-4.29l.81,9.05,0,.13a21.31,21.31,0,0,0-.71,2.68,3.38,3.38,0,0,1-1-1.33c.14-.57.29-1.12.46-1.64l-.17-1.87c-.35,1.05-.7,1.87-.73,1.94a3.4,3.4,0,0,0,.27,2.22,4.19,4.19,0,0,0,1,1.47,8.91,8.91,0,0,0,1.44,1.22l.31.19-.11.35c-.83,2.7-1.74,19.63-1.74,19.63v.77a6.18,6.18,0,0,1,1.7,4.75,8.61,8.61,0,0,1-1.45,3.87c0,.91.1,1.74.15,2.47h.18c1-.08,1.84.46,1.42,1.15a1.63,1.63,0,0,1-1.12.76,1.63,1.63,0,0,0,.49-.57c.11-.19,0-.28-.09-.33l-.25,0h0a5.15,5.15,0,0,0-.55,0c.11,1.52.21,2.44.21,2.49l.08.71H49.34c-1.19,4.56-9.52,6.07-9.52,6.07a3.84,3.84,0,0,0-3.22-1,3.72,3.72,0,0,0,1.69-2.29l-1.88.45a4.15,4.15,0,0,0-2.51,1.6l-5.19.59,0,0a17.43,17.43,0,0,1-4.25,0l0,0-5.18-.59a4.24,4.24,0,0,0-2.54-1.61h0l-1.88-.45a3.72,3.72,0,0,0,1.69,2.29,3.84,3.84,0,0,0-3.22,1s-8.33-1.51-9.52-6.07H1.35l.07-.71c0-.05.1-1,.22-2.49a5,5,0,0,0-.55,0h0l-.25,0c-.11.05-.2.14-.09.33a1.63,1.63,0,0,0,.49.57,1.63,1.63,0,0,1-1.12-.76c-.42-.69.44-1.23,1.42-1.15M3,9A22.9,22.9,0,0,1,2,4.11l0-.27.41-.13c1-.3,3.73-1.51,3.73-3.07V0H47.07V.64c0,1.56,2.75,2.77,3.72,3.07l.41.13,0,.27A23.14,23.14,0,0,1,50.28,9L50,4.8c-1.06-.39-3.66-1.53-4.14-3.51H7.4c-.48,2-3.07,3.12-4.14,3.51Z"/></g></g></svg>