<svg xmlns="http://www.w3.org/2000/svg" viewBox="0 0 53.25 61.96"><defs><style>.cls-1{fill:#fff;}.cls-2{fill:#dcddde;}.cls-3{fill:#231f20;}</style></defs><title>Asset 27</title><g id="Layer_2" data-name="Layer 2"><g id="Layer_1-2" data-name="Layer 1"><path class="cls-1" d="M.76,20.47A94.29,94.29,0,0,1,2.26,42s-3.13,3.13.25,8.19l-.28,5.47H51l-.28-5.47C54.12,45.1,51,42,51,42a94.29,94.29,0,0,1,1.5-21.5l-1.43-1.06a37.52,37.52,0,0,0,1.09-4L51.2,3.83C48.35,5,46.51.7,46.51.7H6.74S4.9,5,2.05,3.83L1.1,15.38a35.65,35.65,0,0,0,1.1,4Z"/><path class="cls-1" d="M26.63,43.53c6.73,0,12.2,3.69,12.2,8.24S33.36,60,26.63,60s-12.21-3.7-12.21-8.24,5.47-8.24,12.21-8.24"/><path class="cls-2" d="M26.63,61.25c7.43,0,13.45-4.24,13.45-9.48s-6-9.49-13.45-9.49-13.46,4.25-13.46,9.49,6,9.48,13.46,9.48m0-2.5c-5.94,0-11-3.2-11-7s5-7,11-7,11,3.2,11,7-5,7-10.95,7"/><path class="cls-3" d="M1.36,20.8a8.16,8.16,0,0,0,.84-.69,94.4,94.4,0,0,1,.58,12.16C2.42,28.55,2,22.94,1.36,20.8M2.93,53.28a12.22,12.22,0,0,1,4.56,1.81H2.78c0-.43.09-1.05.15-1.81m.14-1.9c.38.44.76.84,1.12,1.2A8.89,8.89,0,0,0,3,52.35c0-.3,0-.63.07-1m-3,2a1.63,1.63,0,0,0,1.12.76,1.78,1.78,0,0,1-.49-.56c-.11-.2,0-.29.09-.34a2.3,2.3,0,0,1,.26,0h0a5.06,5.06,0,0,1,.55,0c-.12,1.52-.21,2.44-.22,2.49l-.08.71H6.17c1.45.6,4.38,2.11,3.72,4.24a3.3,3.3,0,0,1,1.19-1,10.27,10.27,0,0,0-3.37-3.21h2a3.43,3.43,0,0,1,2.05,1.29A2,2,0,0,0,11,56.38h0l-.11-.08c-.49-.37-1-.73-1.51-1.09l-.17-.12h0a24.84,24.84,0,0,0-2.29-1.38A19.26,19.26,0,0,1,3.16,50h0l0,0q-.17-.21-.3-.42l-.1-.15a7.83,7.83,0,0,1-1.38-3.56,5,5,0,0,1,.75-3.09c0,1.47-.05,2.9-.1,4.21a10.53,10.53,0,0,0,1.2,2.29c.14-2.53,1.2-24.26.11-30.35A4.7,4.7,0,0,0,4.2,15a24.68,24.68,0,0,1-1.38-4.38,21,21,0,0,1-.91-4.29L1.1,15.38l0,.13a23.2,23.2,0,0,1,.7,2.68,3.5,3.5,0,0,0,1-1.33c-.14-.57-.29-1.12-.47-1.64l.17-1.87c.35,1.05.7,1.87.73,2A3.37,3.37,0,0,1,3,17.51,4.22,4.22,0,0,1,2,19,8.17,8.17,0,0,1,.57,20.2l-.31.19.11.35c.83,2.7,1.74,19.63,1.74,19.63v.77A6.19,6.19,0,0,0,.41,45.9a8.74,8.74,0,0,0,1.45,3.86c-.05.91-.1,1.74-.15,2.47H1.53c-1-.08-1.84.46-1.42,1.15M3,9A22.9,22.9,0,0,1,2,4.11l0-.28.41-.12c1-.3,3.73-1.51,3.73-3.06V0H47.07V.65c0,1.55,2.75,2.76,3.72,3.06l.41.12,0,.28A23.14,23.14,0,0,1,50.28,9L50,4.8c-1.06-.39-3.66-1.53-4.14-3.51H7.4c-.48,2-3.07,3.12-4.14,3.51ZM51.05,20.11a8.16,8.16,0,0,0,.84.69c-.59,2.14-1.06,7.75-1.41,11.47a94.31,94.31,0,0,1,.57-12.16m-5.28,35a12.12,12.12,0,0,1,4.55-1.81c.06.76.12,1.38.16,1.81Zm4.41-3.71c0,.34,0,.67.07,1a8.89,8.89,0,0,0-1.19.23c.37-.36.75-.76,1.12-1.2M49.05,15a4.7,4.7,0,0,0,.89,3.87c-1.08,6.09,0,27.82.11,30.35a10.59,10.59,0,0,0,1.21-2.29c-.06-1.31-.09-2.74-.11-4.21a5,5,0,0,1,.75,3.09,7.93,7.93,0,0,1-1.37,3.56l-.1.15-.3.42,0,0h0a19.34,19.34,0,0,1-3.77,3.73A23.72,23.72,0,0,0,44,55.09h0l-.16.12c-.52.36-1,.72-1.51,1.09l-.12.08h0a2,2,0,0,0-.75,1.29,3.42,3.42,0,0,1,2-1.29h2a10.29,10.29,0,0,0-3.36,3.21,3.3,3.3,0,0,1,1.19,1c-.45-1.46.79-2.63,2.08-3.42a9.41,9.41,0,0,1,3.63-.82h2.86l-.08-.71c0-.05-.1-1-.22-2.49a5.24,5.24,0,0,1,.56,0h0a1.9,1.9,0,0,1,.25,0c.11.05.2.14.09.34a1.65,1.65,0,0,1-.49.56,1.63,1.63,0,0,0,1.12-.76c.42-.69-.44-1.23-1.41-1.15h-.18c-.06-.73-.11-1.56-.16-2.47a8.62,8.62,0,0,0,1.45-3.86,6.19,6.19,0,0,0-1.7-4.76c0-.25,0-.51,0-.77,0,0,.9-16.93,1.73-19.63l.11-.35-.31-.19A8.32,8.32,0,0,1,51.24,19a4.19,4.19,0,0,1-1-1.47,3.37,3.37,0,0,1-.27-2.21c0-.08.38-.9.73-2l.17,1.87c-.17.52-.32,1.07-.46,1.64a3.38,3.38,0,0,0,1,1.33,21.31,21.31,0,0,1,.71-2.68l0-.13-.81-9a21,21,0,0,1-.91,4.29A23,23,0,0,1,49.05,15M15.8,56.38h0a7.43,7.43,0,0,1-.52-.62l0-.06a5.91,5.91,0,0,1-.41-.61,6.46,6.46,0,0,1-1-3.32c0-4.85,5.72-8.79,12.76-8.79s12.75,3.94,12.75,8.79a6.51,6.51,0,0,1-1,3.33l-.41.6-.05.06c-.16.21-.33.42-.51.62-2.25,2.5-6.26,4.17-10.83,4.17s-8.58-1.67-10.83-4.17m23.44,0h1.49a4.16,4.16,0,0,0-1.4,2.09,4.42,4.42,0,0,1,1.11.39c-.58-1.36,1-2.48,1-2.48l1.63-1.29H41.59a10.9,10.9,0,0,0,.58-2.73,2.84,2.84,0,0,0,3.42,1.18c-.39.11-2,.34-3.44-2.69v0a5.43,5.43,0,0,0-1.65-3.5,8.94,8.94,0,0,1,.63,6.76,1.15,1.15,0,0,1-.88.42,7.53,7.53,0,0,0,.55-2.78c0-5.62-6.36-10.19-14.16-10.19S12.47,46.15,12.47,51.77A7.72,7.72,0,0,0,13,54.55a1.12,1.12,0,0,1-.87-.42,8.89,8.89,0,0,1,.63-6.76,5.41,5.41,0,0,0-1.66,3.5v0c-1.45,3-3.06,2.8-3.45,2.69a2.84,2.84,0,0,0,3.42-1.18,11.36,11.36,0,0,0,.58,2.73H10.14l1.62,1.28h0s1.62,1.12,1,2.48a4.42,4.42,0,0,1,1.11-.39,4.16,4.16,0,0,0-1.4-2.09H14a10.63,10.63,0,0,0,2.05,2.15A10.1,10.1,0,0,0,10.21,61c3.4-.94,4.92,0,4.92,0a1.3,1.3,0,0,0-1-.94c.07-1.1,2.7-.38,2.7-.38h0a4.17,4.17,0,0,1,2.53,1.61l5.19.59,0,0a17.43,17.43,0,0,0,4.25,0l0,0,5.19-.59a4.15,4.15,0,0,1,2.51-1.6s2.63-.72,2.7.38a1.3,1.3,0,0,0-1,.94S39.62,60,43,61a10,10,0,0,0-5.83-2.44,11,11,0,0,0,2.05-2.16"/></g></g></svg>