<svg xmlns="http://www.w3.org/2000/svg" viewBox="0 0 53.25 62.43"><defs><style>.cls-1{fill:#fff;}.cls-2{fill:#dcddde;}.cls-3{fill:#231f20;}</style></defs><title>Asset 29</title><g id="Layer_2" data-name="Layer 2"><g id="Layer_1-2" data-name="Layer 1"><path class="cls-1" d="M.76,20.47A94.29,94.29,0,0,1,2.26,42s-3.13,3.13.25,8.19l-.28,5.47H51l-.28-5.47C54.12,45.1,51,42,51,42a94.29,94.29,0,0,1,1.5-21.5l-1.43-1.06a37.52,37.52,0,0,0,1.09-4L51.2,3.84C48.35,5,46.51.7,46.51.7H6.74S4.9,5,2.05,3.84L1.1,15.38a35.65,35.65,0,0,0,1.1,4Z"/><path class="cls-1" d="M26.63,43.53c6.73,0,12.2,3.69,12.2,8.24S33.36,60,26.63,60s-12.21-3.7-12.21-8.24,5.48-8.24,12.21-8.24"/><path class="cls-2" d="M26.63,61.26c7.43,0,13.45-4.25,13.45-9.49s-6-9.49-13.45-9.49-13.46,4.25-13.46,9.49,6,9.49,13.46,9.49m0-2.5c-5.94,0-11-3.2-11-7s5-7,11-7,11,3.2,11,7-5,7-10.95,7"/><path class="cls-3" d="M1.36,20.8a8.16,8.16,0,0,0,.84-.69,94.47,94.47,0,0,1,.58,12.17C2.42,28.55,2,22.94,1.36,20.8M2.93,53.28a12.22,12.22,0,0,1,4.56,1.81H2.78c0-.43.09-1.05.15-1.81m.14-1.9c.38.44.76.84,1.12,1.2A8.89,8.89,0,0,0,3,52.35c0-.3,0-.63.07-1m-3,2a1.59,1.59,0,0,0,1.12.76,1.65,1.65,0,0,1-.49-.56c-.11-.2,0-.29.09-.34l.25,0h0a5.06,5.06,0,0,1,.55,0c-.12,1.52-.21,2.44-.22,2.49l-.08.71H9.51a2.84,2.84,0,0,1,1.39,2.35s.17.74.7.56,1.05-1.48-.57-2.91h0a8.34,8.34,0,0,0-.8-.59h0l-.8-.58-.17-.12h0a24.84,24.84,0,0,0-2.29-1.38A19.39,19.39,0,0,1,3.16,50h0l0,0q-.17-.21-.3-.42l-.1-.15a7.83,7.83,0,0,1-1.38-3.56,5,5,0,0,1,.75-3.09c0,1.47-.05,2.9-.1,4.21a10.11,10.11,0,0,0,1.2,2.29c.14-2.53,1.19-24.26.11-30.35A4.7,4.7,0,0,0,4.2,15a24.68,24.68,0,0,1-1.38-4.38,21,21,0,0,1-.91-4.29L1.1,15.38l0,.13a21.31,21.31,0,0,1,.71,2.68,3.5,3.5,0,0,0,1-1.33c-.14-.57-.3-1.12-.47-1.64l.17-1.87c.35,1.05.7,1.87.73,1.94A3.4,3.4,0,0,1,3,17.51,4.22,4.22,0,0,1,2,19,7.68,7.68,0,0,1,.57,20.2l-.31.19.11.35c.83,2.71,1.74,19.63,1.74,19.63v.77A6.19,6.19,0,0,0,.41,45.9a8.86,8.86,0,0,0,1.45,3.86c-.05.91-.1,1.74-.15,2.47H1.53c-1-.08-1.84.47-1.42,1.15M3,9A22.9,22.9,0,0,1,2,4.11l0-.27.41-.13c1-.3,3.73-1.51,3.73-3.06V0H47.07V.65c0,1.55,2.75,2.76,3.72,3.06l.41.13,0,.27A23.14,23.14,0,0,1,50.28,9L50,4.8c-1.07-.39-3.66-1.53-4.14-3.51H7.4c-.48,2-3.07,3.12-4.14,3.51ZM51.05,20.11a8.16,8.16,0,0,0,.84.69c-.59,2.14-1.06,7.75-1.41,11.48a94.38,94.38,0,0,1,.57-12.17m-5.28,35a12.12,12.12,0,0,1,4.55-1.81c.06.76.12,1.38.16,1.81Zm4.41-3.71c0,.34,0,.67.07,1a8.89,8.89,0,0,0-1.19.23c.37-.36.75-.76,1.12-1.2M49.05,15a4.7,4.7,0,0,0,.89,3.87c-1.08,6.09,0,27.82.11,30.35a10.59,10.59,0,0,0,1.21-2.29c-.06-1.31-.09-2.74-.11-4.21a5,5,0,0,1,.75,3.09,7.93,7.93,0,0,1-1.37,3.56l-.1.15-.3.42,0,0h0a19.78,19.78,0,0,1-3.77,3.72A23.72,23.72,0,0,0,44,55.09h0l-.16.12c-.28.19-.54.38-.8.58h0a6.42,6.42,0,0,0-.77.57l0,0h0c-1.62,1.43-1,2.76-.56,2.91s.7-.56.7-.56a2.79,2.79,0,0,1,1.39-2.35h8.16l-.08-.71c0-.05-.1-1-.22-2.49a5.24,5.24,0,0,1,.56,0h0a1.9,1.9,0,0,1,.25,0c.11.05.2.14.09.34a1.65,1.65,0,0,1-.49.56,1.59,1.59,0,0,0,1.12-.76c.42-.68-.44-1.23-1.42-1.15h-.18c0-.73-.1-1.56-.15-2.47a8.62,8.62,0,0,0,1.45-3.86,6.19,6.19,0,0,0-1.7-4.76v-.77s.91-16.92,1.74-19.63l.11-.35-.31-.19A7.81,7.81,0,0,1,51.24,19a4.19,4.19,0,0,1-1-1.47,3.4,3.4,0,0,1-.27-2.22c0-.07.38-.89.73-1.94l.17,1.87c-.17.52-.32,1.07-.46,1.64a3.38,3.38,0,0,0,1,1.33,21.31,21.31,0,0,1,.71-2.68l0-.13-.81-9a21,21,0,0,1-.91,4.29A23.82,23.82,0,0,1,49.05,15M26.63,60.55c-4.58,0-8.58-1.67-10.84-4.17-.18-.2-.35-.41-.51-.62l0-.06a5.91,5.91,0,0,1-.41-.61,6.37,6.37,0,0,1-1-3.32c0-4.85,5.72-8.79,12.76-8.79s12.75,3.94,12.75,8.79a6.37,6.37,0,0,1-1,3.32c-.12.21-.26.41-.4.61l-.05.06c-.16.21-.33.42-.51.62-2.25,2.5-6.26,4.17-10.83,4.17m14.85-4.17,1.63-1.29H41.59a10.9,10.9,0,0,0,.58-2.73,2.84,2.84,0,0,0,3.42,1.18c-.39.11-2,.34-3.44-2.69v0a5.41,5.41,0,0,0-1.66-3.5,8.84,8.84,0,0,1,.63,6.76,1.1,1.1,0,0,1-.87.42,7.53,7.53,0,0,0,.55-2.78c0-5.62-6.36-10.19-14.16-10.19S12.46,46.15,12.46,51.77A7.34,7.34,0,0,0,13,54.55a1.13,1.13,0,0,1-.88-.42,8.89,8.89,0,0,1,.63-6.76,5.41,5.41,0,0,0-1.66,3.5v0c-1.45,3-3.06,2.8-3.45,2.69a2.84,2.84,0,0,0,3.42-1.18,11.36,11.36,0,0,0,.58,2.73H10.14l1.63,1.29h0A3.75,3.75,0,0,1,13.17,60s-.28.79.42.91,1.46-1.43-.69-4.56H14a9.81,9.81,0,0,0,1.07,1.28h0l.05.09c2.29,3.4.39,4,.38,4a.31.31,0,0,0-.17.46c.36.58,2.56.35,1.62-2.47a4.08,4.08,0,0,1,2.38,1.56l5.19.59,0,0a17.43,17.43,0,0,0,4.25,0l0,0,5.19-.59a4,4,0,0,1,2.38-1.56c-.94,2.82,1.26,3,1.62,2.47a.31.31,0,0,0-.17-.46s-1.91-.55.38-4l.06-.09h0a10.77,10.77,0,0,0,1.08-1.28h1.12c-2.16,3.13-1.36,4.67-.7,4.56s.42-.91.42-.91a3.77,3.77,0,0,1,1.4-3.65"/></g></g></svg>