<svg xmlns="http://www.w3.org/2000/svg" viewBox="0 0 60.38 452.98"><defs><style>.cls-1{fill:#dcddde;}</style></defs><title>Asset 21</title><g id="Layer_2" data-name="Layer 2"><g id="Layer_1-2" data-name="Layer 1"><path class="cls-1" d="M15.72,445.36a18.92,18.92,0,0,1,1.86-1.62,23.43,23.43,0,0,1-9.72,1.07,11.18,11.18,0,0,0,3.41.55ZM1.17,433.41,0,429.05v9.26c.25.38.53.8.87,1.24a13.37,13.37,0,0,1,.3-6.14m37.61,15.46h-.91a11.5,11.5,0,0,1-15.36,0H21.6c.27.27.56.53.86.78a.42.42,0,0,1,.16,0,.56.56,0,0,1,.56.57h0a12.07,12.07,0,0,0,14,0h0a.56.56,0,0,1,.56-.57.47.47,0,0,1,.17,0c.3-.25.58-.51.86-.78m21.6-9.23v1.83a25.41,25.41,0,0,1-12.56,7.39H39.45a13,13,0,0,1-1,1h4.95v0c.24,0,.47,0,.7,0h8.08l.72-1H49.75a26.44,26.44,0,0,0,10.63-6.67v2.53s-3.65,2.17-4.58,4.14H53.85l-1.28,1.72h-7.3c-2.82.35-6.38,1-8.07,2.18,0,0-1.2.73-1.2-.46,0-.73,2.74-1.35,4.87-1.72H38.14a.53.53,0,0,1-.39.16.58.58,0,0,1-.31-.11,12.58,12.58,0,0,1-14.5,0,.62.62,0,0,1-.32.11.55.55,0,0,1-.39-.16H19.51c2.12.37,4.86,1,4.86,1.72,0,1.19-1.2.46-1.2.46-1.68-1.17-5.24-1.83-8.07-2.18H7.81l-1.28-1.71H4.58c-.93-2-4.58-4.15-4.58-4.15v-2.53a26.48,26.48,0,0,0,10.63,6.68H7.46l.72,1h8.08l.7,0v0h4.95c-.34-.3-.67-.63-1-1H12.57A25.46,25.46,0,0,1,0,441.47v-1.83c2,2.73,5.7,6.47,11.27,6.47H23.69a.78.78,0,0,0,.68.41.79.79,0,0,0,0-1.58.77.77,0,0,0-.68.42H16.83a19.78,19.78,0,0,1,26.71,0H36.68a.76.76,0,0,0-.68-.42.79.79,0,0,0,0,1.58.77.77,0,0,0,.68-.41H49.1c5.57,0,9.29-3.74,11.28-6.47m-.87-.08c.33-.45.62-.87.87-1.25V429l-1.18,4.37a13.44,13.44,0,0,1,.31,6.15m-10.41,5.8a11.29,11.29,0,0,0,3.42-.55,23.25,23.25,0,0,1-9.72-1.07,20.16,20.16,0,0,1,1.86,1.62Zm0-437.73H44.66A21.66,21.66,0,0,1,42.8,9.24a23.4,23.4,0,0,1,9.72-1.06,11,11,0,0,0-3.42-.55M59.2,19.57l1.18,4.37V14.67c-.25-.38-.54-.8-.87-1.24a13.39,13.39,0,0,1-.31,6.14M37.92,3.34a.86.86,0,0,1-.17,0,.56.56,0,0,1-.56-.56v0a12.07,12.07,0,0,0-14,0v0a.56.56,0,0,1-.56.56.76.76,0,0,1-.16,0,9,9,0,0,0-.86.78h.91a11.47,11.47,0,0,1,15.36,0h.91a10.44,10.44,0,0,0-.86-.78m11.83.77h3.16l-.72-1H44.11c-.23,0-.46,0-.7,0v0H38.46q.52.47,1,1h8.36a25.53,25.53,0,0,1,12.57,7.4v1.83c-2-2.73-5.71-6.46-11.28-6.46H36.68A.76.76,0,0,0,36,6.46.79.79,0,0,0,36,8a.77.77,0,0,0,.68-.41h6.86a19.7,19.7,0,0,1-13.35,5.19A19.74,19.74,0,0,1,16.83,7.63h6.86a.8.8,0,0,0,.68.41.79.79,0,1,0-.68-1.16H11.27C5.7,6.88,2,10.61,0,13.35V11.51A25.41,25.41,0,0,1,12.56,4.12h8.36c.32-.34.65-.66,1-1H17v0l-.69,0H8.18l-.72,1h3.17A26.37,26.37,0,0,0,0,10.79V8.26S3.65,6.09,4.58,4.12h2L7.81,2.4H15.1c2.83-.35,6.39-1,8.07-2.18,0,0,1.2-.73,1.2.46,0,.73-2.74,1.35-4.86,1.72h2.72a.6.6,0,0,1,.39-.16.62.62,0,0,1,.32.11,12.58,12.58,0,0,1,14.5,0,.53.53,0,0,1,.7,0h2.73C38.74,2,36,1.41,36,.68,36-.51,37.2.22,37.2.22c1.69,1.17,5.25,1.83,8.07,2.18h7.3l1.28,1.71H55.8c.93,2,4.58,4.15,4.58,4.15v2.53A26.63,26.63,0,0,0,49.75,4.11m9,15.38a13.29,13.29,0,0,0,.11-6.93,16,16,0,0,0-3.34-3c-4.87-2.35-12-.09-14,.65a20.43,20.43,0,0,1-11.23,3.34A20.46,20.46,0,0,1,19,10.23c-2.06-.74-9.2-3-14.06-.64a15.86,15.86,0,0,0-3.32,3,13.35,13.35,0,0,0,.1,6.93l0,.07,0,.07L0,25.86V427.12l1.69,6.3,0,.07a13.25,13.25,0,0,0-.1,6.93,15.77,15.77,0,0,0,3.34,3c4.86,2.36,12,.09,14-.65a20.62,20.62,0,0,1,22.47,0c2.06.75,9.2,3,14.07.64a15.77,15.77,0,0,0,3.31-3,13.14,13.14,0,0,0-.1-6.93l0-.07,0-.07,1.68-6.23V25.86l-1.7-6.3ZM.87,13.43c-.34.44-.62.86-.87,1.24v9.27l1.17-4.37a13.37,13.37,0,0,1-.3-6.14m7-5.25a10.93,10.93,0,0,1,3.41-.55h4.44a21.78,21.78,0,0,0,1.87,1.61A23.28,23.28,0,0,0,7.86,8.18"/></g></g></svg>