<svg xmlns="http://www.w3.org/2000/svg" viewBox="0 0 53.25 61.96"><defs><style>.cls-1{fill:#fff;}.cls-2{fill:#dcddde;}.cls-3{fill:#231f20;}</style></defs><title>Asset 25</title><g id="Layer_2" data-name="Layer 2"><g id="Layer_1-2" data-name="Layer 1"><path class="cls-1" d="M.76,20.47A94.29,94.29,0,0,1,2.26,42s-3.13,3.13.25,8.19l-.28,5.47H51l-.28-5.47C54.12,45.1,51,42,51,42a94.29,94.29,0,0,1,1.5-21.5l-1.43-1.06a37.52,37.52,0,0,0,1.09-4L51.2,3.84C48.35,5,46.51.7,46.51.7H6.74S4.9,5,2.05,3.84L1.1,15.38a35.65,35.65,0,0,0,1.1,4Z"/><path class="cls-1" d="M26.63,43.53c6.73,0,12.2,3.69,12.2,8.24S33.36,60,26.63,60s-12.21-3.7-12.21-8.24,5.48-8.24,12.21-8.24"/><path class="cls-2" d="M26.63,61.26c7.43,0,13.45-4.25,13.45-9.49s-6-9.49-13.45-9.49-13.46,4.25-13.46,9.49,6,9.49,13.46,9.49m0-2.5c-5.94,0-11-3.2-11-7s5-7,11-7,11,3.2,11,7-5,7-10.95,7"/><path class="cls-3" d="M1.36,20.8a8.16,8.16,0,0,0,.84-.69,94.47,94.47,0,0,1,.58,12.17C2.42,28.55,2,22.94,1.36,20.8M2.93,53.28a12.33,12.33,0,0,1,4.56,1.81H2.78c0-.43.09-1.05.15-1.81m.14-1.9c.38.44.76.84,1.12,1.2A7.5,7.5,0,0,0,3,52.36c0-.31,0-.64.07-1m-3,2a1.59,1.59,0,0,0,1.12.76,1.65,1.65,0,0,1-.49-.56c-.11-.2,0-.29.09-.34l.25,0h0a5,5,0,0,1,.55,0c-.12,1.52-.21,2.44-.22,2.49l-.07.71H9.66c.72.53,1.2,1.09.58,1.37a2.58,2.58,0,0,1-2.65-.51c1.27,1.65,3.85,1.82,4.28,1.06S11,56.38,11,56.38h0l-.12-.08c-.48-.37-1-.73-1.5-1.09l-.17-.12h0c-.75-.5-1.52-1-2.29-1.38A19.26,19.26,0,0,1,3.16,50h0l0,0q-.17-.21-.3-.42l-.1-.15a7.83,7.83,0,0,1-1.38-3.56,5,5,0,0,1,.75-3.09c0,1.48-.05,2.9-.1,4.21a10.11,10.11,0,0,0,1.2,2.29c.14-2.53,1.19-24.26.11-30.35A4.7,4.7,0,0,0,4.2,15a24.68,24.68,0,0,1-1.38-4.38,21,21,0,0,1-.91-4.29L1.1,15.38l0,.13a21.31,21.31,0,0,1,.71,2.68,3.5,3.5,0,0,0,1-1.33c-.14-.57-.29-1.12-.47-1.64l.17-1.87c.35,1.05.7,1.87.73,1.94A3.33,3.33,0,0,1,3,17.51,4.22,4.22,0,0,1,2,19,8.17,8.17,0,0,1,.57,20.2l-.31.19.11.35c.83,2.71,1.74,19.63,1.74,19.63v.77A6.2,6.2,0,0,0,.41,45.9a8.86,8.86,0,0,0,1.45,3.86c-.05.91-.1,1.74-.15,2.47H1.53c-1-.08-1.84.47-1.42,1.15M3,9A22.9,22.9,0,0,1,2,4.11l0-.27.41-.13c1-.3,3.73-1.51,3.73-3.06V0H47.07V.65c0,1.55,2.75,2.76,3.72,3.06l.41.13,0,.27A23.14,23.14,0,0,1,50.28,9L50,4.8c-1.06-.39-3.66-1.53-4.14-3.51H7.4c-.48,2-3.07,3.12-4.14,3.51ZM51.05,20.11a8.16,8.16,0,0,0,.84.69c-.59,2.14-1.06,7.75-1.41,11.48a94.38,94.38,0,0,1,.57-12.17m-5.28,35a12.29,12.29,0,0,1,4.55-1.81c.06.76.12,1.38.16,1.81Zm4.41-3.71c0,.34,0,.67.07,1a7.5,7.5,0,0,0-1.19.22c.37-.36.75-.76,1.12-1.2M49.06,15a4.66,4.66,0,0,0,.88,3.87c-1.08,6.09,0,27.82.11,30.35a10.11,10.11,0,0,0,1.2-2.29c0-1.31-.08-2.73-.1-4.21a5,5,0,0,1,.75,3.09,7.93,7.93,0,0,1-1.37,3.56l-.1.15-.3.42,0,0h0a19.34,19.34,0,0,1-3.77,3.73A25.91,25.91,0,0,0,44,55.09h0l-.16.12c-.52.36-1,.72-1.51,1.09l-.12.08s-1.29,1.16-.86,1.92,3,.59,4.28-1.06a2.61,2.61,0,0,1-2.66.51c-.61-.28-.13-.84.58-1.37h8.35l-.08-.71c0-.05-.1-1-.22-2.49a5.24,5.24,0,0,1,.56,0h0l.25,0c.11.05.2.14.09.34a1.65,1.65,0,0,1-.49.56,1.59,1.59,0,0,0,1.12-.76c.42-.68-.44-1.23-1.41-1.15h-.19c0-.73-.1-1.56-.15-2.47a8.62,8.62,0,0,0,1.45-3.86,6.2,6.2,0,0,0-1.7-4.76v-.77s.91-16.92,1.75-19.63l.1-.35-.31-.19A8.32,8.32,0,0,1,51.24,19a4.19,4.19,0,0,1-1-1.47,3.4,3.4,0,0,1-.27-2.22c0-.07.38-.89.73-1.94l.17,1.87c-.17.52-.32,1.07-.46,1.64a3.38,3.38,0,0,0,1,1.33,21.31,21.31,0,0,1,.71-2.68l0-.13-.81-9a21,21,0,0,1-.91,4.29A25,25,0,0,1,49.06,15M15.79,56.38h0a7.64,7.64,0,0,1-.51-.62l0-.06a7.11,7.11,0,0,1-.41-.6,6.5,6.5,0,0,1-1-3.33c0-4.85,5.72-8.79,12.76-8.79s12.75,3.94,12.75,8.79a6.4,6.4,0,0,1-1,3.33c-.12.2-.26.4-.4.6l-.05.06a7.64,7.64,0,0,1-.51.62c-2.25,2.5-6.26,4.17-10.83,4.17s-8.58-1.67-10.84-4.17m21.33,2.2a11,11,0,0,0,2.12-2.2h2.24l1.63-1.29H41.59a10.47,10.47,0,0,0,.58-2.73,2.85,2.85,0,0,0,3.43,1.18c-.4.11-2,.35-3.45-2.69v0a5.41,5.41,0,0,0-1.66-3.5,8.84,8.84,0,0,1,.63,6.76,1.1,1.1,0,0,1-.87.42,7.53,7.53,0,0,0,.55-2.78c0-5.62-6.36-10.19-14.16-10.19S12.47,46.15,12.47,51.77A7.52,7.52,0,0,0,13,54.55a1.12,1.12,0,0,1-.87-.42,8.89,8.89,0,0,1,.63-6.76,5.41,5.41,0,0,0-1.66,3.5v0c-1.45,3-3.06,2.8-3.45,2.69a2.84,2.84,0,0,0,3.42-1.18,11.36,11.36,0,0,0,.58,2.73H10.14l1.63,1.29H14a10.61,10.61,0,0,0,2.1,2.2c-.05,0-4.15,2.4-7.3.36,0,0,.92,1.9,3.94,1.78h.18c3.47-.34,5.08,1.13,5.08,1.13a2.89,2.89,0,0,0-2.29-1.75c.35-.13.71-.27,1.09-.44h0a4.15,4.15,0,0,1,2.53,1.6l5.19.59,0,0a17.43,17.43,0,0,0,4.25,0l0,0,5.19-.59a4.18,4.18,0,0,1,2.51-1.6c.38.17.74.31,1.09.44a2.92,2.92,0,0,0-2.3,1.75s1.62-1.47,5.09-1.13h.18c3,.12,3.94-1.78,3.94-1.78-3.09,2-7.09-.24-7.29-.36"/></g></g></svg>