<svg xmlns="http://www.w3.org/2000/svg" viewBox="0 0 53.25 62.43"><defs><style>.cls-1{fill:#fff;}.cls-2{fill:#dcddde;}.cls-3{fill:#231f20;}</style></defs><title>Asset 24</title><g id="Layer_2" data-name="Layer 2"><g id="Layer_1-2" data-name="Layer 1"><path class="cls-1" d="M.76,20.47A94.29,94.29,0,0,1,2.26,42s-3.13,3.13.25,8.19l-.28,5.47H51l-.28-5.47C54.12,45.1,51,42,51,42a94.29,94.29,0,0,1,1.5-21.5l-1.43-1.06a37.52,37.52,0,0,0,1.09-4L51.2,3.83C48.35,5,46.51.7,46.51.7H6.74S4.9,5,2.05,3.83L1.1,15.38a35.65,35.65,0,0,0,1.1,4Z"/><path class="cls-1" d="M26.63,43.53c6.73,0,12.2,3.69,12.2,8.24S33.36,60,26.63,60s-12.21-3.7-12.21-8.24,5.47-8.24,12.21-8.24"/><path class="cls-2" d="M26.63,61.25c7.43,0,13.45-4.24,13.45-9.48s-6-9.49-13.45-9.49-13.46,4.25-13.46,9.49,6,9.48,13.46,9.48m0-2.5c-5.94,0-11-3.2-11-7s5-7,11-7,11,3.2,11,7-5,7-10.95,7"/><path class="cls-3" d="M2.78,32.27A94.4,94.4,0,0,0,2.2,20.11a9.75,9.75,0,0,1-.84.69C2,22.94,2.42,28.55,2.78,32.27m0,22.82H7.49a12.43,12.43,0,0,0-4.56-1.82c-.06.77-.11,1.39-.15,1.82M3,52.35a8.89,8.89,0,0,1,1.19.23c-.37-.36-.74-.76-1.12-1.2,0,.34,0,.67-.07,1m10.15,7a11.19,11.19,0,0,0-3.33.39c1.82.75,4.1,1.44,4.8,1.05l.05,0c-.28-.27-.81-.77-1.52-1.4m13.48,1.18c4.57,0,8.58-1.67,10.83-4.17.18-.2.35-.41.51-.62l.05-.07a6.25,6.25,0,0,0,.4-.6,6.37,6.37,0,0,0,1-3.32c0-4.85-5.72-8.79-12.75-8.79s-12.76,3.94-12.76,8.79a6.46,6.46,0,0,0,1,3.32,5.91,5.91,0,0,0,.41.61l0,.06c.16.21.33.42.51.62,2.26,2.5,6.26,4.17,10.84,4.17m12,.22.05,0c.7.39,3-.3,4.81-1.05a11.3,11.3,0,0,0-3.34-.39c-.71.63-1.24,1.13-1.52,1.4m7.19-5.68h4.71c0-.43-.1-1.05-.16-1.82a12.32,12.32,0,0,0-4.55,1.82m3.29-2.51a8.89,8.89,0,0,1,1.19-.23c0-.3,0-.63-.07-1-.37.44-.75.84-1.12,1.2m1.42-20.31c.35-3.72.82-9.33,1.41-11.47a9.75,9.75,0,0,1-.84-.69,94.31,94.31,0,0,0-.57,12.16M1.53,52.22h.18c.05-.73.1-1.56.15-2.47A8.78,8.78,0,0,1,.41,45.89a6.18,6.18,0,0,1,1.7-4.75v-.77S1.2,23.44.37,20.74l-.11-.35.31-.19A8.51,8.51,0,0,0,2,19,4.11,4.11,0,0,0,3,17.5a3.36,3.36,0,0,0,.27-2.21c0-.07-.38-.89-.73-1.94l-.17,1.87c.18.52.33,1.07.47,1.64a3.5,3.5,0,0,1-1,1.33,23.2,23.2,0,0,0-.7-2.68l0-.13.81-9a21,21,0,0,0,.91,4.29A23.82,23.82,0,0,0,4.2,15a4.7,4.7,0,0,1-.89,3.87c1.08,6.09,0,27.82-.11,30.35A10.11,10.11,0,0,1,2,46.93c0-1.31.08-2.74.1-4.21a5,5,0,0,0-.75,3.09,7.83,7.83,0,0,0,1.38,3.56.71.71,0,0,0,.1.14,4.43,4.43,0,0,0,.29.42l0,0h0A19.06,19.06,0,0,0,6.94,53.7c.77.41,1.54.89,2.29,1.39h0l.17.12c.52.35,1,.72,1.5,1.09l.12.08h0c.93.71,1.78,1.42,2.48,2,.91,0,1.81.07,2.6.15A10.78,10.78,0,0,1,14,56.38H11.77l-1.63-1.29h1.52a11.33,11.33,0,0,1-.58-2.74,2.84,2.84,0,0,1-3.42,1.19c.39.11,2,.34,3.45-2.69v0a5.41,5.41,0,0,1,1.66-3.5,8.89,8.89,0,0,0-.63,6.76,1.13,1.13,0,0,0,.88.42,7.38,7.38,0,0,1-.56-2.78c0-5.63,6.36-10.2,14.17-10.2s14.16,4.57,14.16,10.2a7.57,7.57,0,0,1-.55,2.78,1.1,1.1,0,0,0,.87-.42,8.83,8.83,0,0,0-.62-6.76,5.43,5.43,0,0,1,1.65,3.5v0c1.44,3,3.05,2.8,3.44,2.69a2.84,2.84,0,0,1-3.42-1.19,10.87,10.87,0,0,1-.58,2.74h1.52l-1.63,1.29H39.24a11.11,11.11,0,0,1-2.1,2.19c.79-.08,1.69-.14,2.6-.15.7-.62,1.55-1.33,2.49-2h0l.12-.08c.48-.37,1-.74,1.51-1.09l.16-.12h0a26,26,0,0,1,2.3-1.39A19.44,19.44,0,0,0,50.09,50h0l0,0,.3-.42.1-.14a7.93,7.93,0,0,0,1.37-3.56,5,5,0,0,0-.75-3.09c0,1.47.05,2.9.1,4.21a10.11,10.11,0,0,1-1.2,2.29c-.14-2.53-1.19-24.26-.11-30.35A4.7,4.7,0,0,1,49.05,15a23.82,23.82,0,0,0,1.38-4.38,21,21,0,0,0,.91-4.29l.81,9.05,0,.13a21.31,21.31,0,0,0-.71,2.68,3.38,3.38,0,0,1-1-1.33c.14-.57.29-1.12.46-1.64l-.17-1.87c-.35,1.05-.7,1.87-.73,1.94a3.36,3.36,0,0,0,.27,2.21,4.08,4.08,0,0,0,1,1.47,8.68,8.68,0,0,0,1.44,1.23l.31.19-.11.35c-.83,2.7-1.73,19.63-1.73,19.63,0,.26,0,.52,0,.77a6.18,6.18,0,0,1,1.7,4.75,8.66,8.66,0,0,1-1.45,3.87c0,.91.1,1.74.15,2.47h.19c1-.08,1.83.46,1.41,1.15a1.63,1.63,0,0,1-1.12.76,1.63,1.63,0,0,0,.49-.57c.11-.19,0-.28-.09-.33a1.9,1.9,0,0,0-.25,0h0a5.15,5.15,0,0,0-.56,0c.12,1.52.22,2.44.22,2.49l.08.71h-8.1c-1,.69-1.87,1.41-2.65,2.07a7.76,7.76,0,0,1,4.62,1.39L44,60.56h0a19.69,19.69,0,0,1-3.52,1.14h0l-.22,0-.16,0c-6.35,1.1-7,.5-7,.5a6.61,6.61,0,0,0,4.45-1.79l.16-.15c.07-.07.41-.41.95-.92l-1.18.08h0l-.29,0a5.45,5.45,0,0,0-.78.14l-.57.18-.09,0a4.34,4.34,0,0,0-.63.28l-.07.05a4.1,4.1,0,0,0-.5.35l-.15.13a3.28,3.28,0,0,0-.49.56l-5.19.6,0,0a17.43,17.43,0,0,1-4.25,0l0,0-5.19-.6a2.94,2.94,0,0,0-.49-.56l-.15-.13a4.49,4.49,0,0,0-.52-.37l-.06,0a4.88,4.88,0,0,0-.62-.29l-.12,0-.57-.18a6.26,6.26,0,0,0-.75-.13l-.28,0h0l-1.18-.08c.55.51.89.85,1,.92l.16.15a6.61,6.61,0,0,0,4.45,1.79s-.66.6-7-.5l-.16,0-.22,0h0a19.31,19.31,0,0,1-3.51-1.14h0l-1.81-.72a7.76,7.76,0,0,1,4.62-1.39c-.78-.66-1.69-1.38-2.65-2.07H1.34l.08-.71c0-.05.1-1,.22-2.49a5,5,0,0,0-.55,0h0l-.25,0c-.11.05-.2.14-.09.33a1.63,1.63,0,0,0,.49.57,1.63,1.63,0,0,1-1.12-.76c-.42-.69.44-1.23,1.42-1.15M3,9A22.9,22.9,0,0,1,2,4.11l0-.28.41-.12c1-.3,3.73-1.51,3.73-3.07V0H47.07V.64c0,1.56,2.75,2.77,3.72,3.07l.41.12,0,.28A23.14,23.14,0,0,1,50.28,9L50,4.8c-1.06-.39-3.66-1.53-4.14-3.51H7.4c-.48,2-3.07,3.12-4.14,3.51Z"/></g></g></svg>