<svg xmlns="http://www.w3.org/2000/svg" viewBox="0 0 48 55.08"><defs><style>.cls-1{fill:#fff;}.cls-2{fill:#231f20;}</style></defs><title>Asset 11</title><g id="Layer_2" data-name="Layer 2"><g id="Layer_1-2" data-name="Layer 1"><path class="cls-1" d="M40.69,5.88,24,.78,7.31,5.88S6.63,14.56.73,15.76V27.6S6.26,49.56,24,54.3c17.75-4.74,23.27-26.7,23.27-26.7V15.76c-5.9-1.2-6.58-9.88-6.58-9.88"/><path class="cls-2" d="M24.85,50.52A1.1,1.1,0,0,0,24,50.1a1.08,1.08,0,0,0-.84.42C9.86,45.8,4.65,29.32,4,27.14V18.91a1.13,1.13,0,0,0,.71-1.06.76.76,0,0,0,0-.16c3.69-2.43,5.07-7,5.54-9.19L23.14,4.56A1.11,1.11,0,0,0,24,5a1.08,1.08,0,0,0,.86-.44L37.77,8.5c.47,2.19,1.85,6.76,5.54,9.19,0,0,0,.1,0,.16A1.14,1.14,0,0,0,44,18.91v8.23c-.63,2.18-5.85,18.66-19.14,23.38M38.51,8.1l0-.24L25.09,3.77a1.09,1.09,0,0,0-2.18,0L9.54,7.86l0,.24c-.39,2-1.65,6.51-5.21,8.87a1.1,1.1,0,0,0-.68-.26A1.13,1.13,0,0,0,2.5,17.85a1.15,1.15,0,0,0,.71,1.06V27.2l0,.11c.57,2,5.87,19.09,19.67,24A1.13,1.13,0,0,0,24,52.38a1.11,1.11,0,0,0,1.1-1.11c5.65-2,10.52-6.17,14.48-12.47a47.44,47.44,0,0,0,5.19-11.48l0-8.41a1.14,1.14,0,0,0,.71-1.06,1.12,1.12,0,0,0-1.11-1.14,1.1,1.1,0,0,0-.68.26c-3.55-2.36-4.82-6.92-5.2-8.87m8,19.41C46.13,29,40.41,49,24,53.52,7.59,49,1.87,29,1.47,27.51V16.35c5.06-1.48,6.27-8,6.51-9.88l16-4.9,16,4.9c.24,1.91,1.45,8.4,6.52,9.88ZM47.41,15c-5.28-1.07-6-9.11-6-9.19l0-.51L24,0,6.62,5.32l0,.51c0,.08-.71,8.12-6,9.19L0,15.14V27.61l0,.18C.08,28,5.86,50.24,23.82,55l.18,0,.18,0c18-4.79,23.74-27,23.8-27.24l0-12.65Z"/></g></g></svg>