<svg xmlns="http://www.w3.org/2000/svg" viewBox="0 0 587.44 97.99"><defs><style>.cls-1{fill:#dcddde;}.cls-2{fill:#fff;}.cls-3{fill:#231f20;}.cls-4,.cls-5{fill:none;stroke:#231f20;stroke-miterlimit:10;}.cls-4{stroke-width:1.38px;}.cls-5{stroke-width:0.75px;}.cls-6{fill:#bfc0c3;}</style></defs><title>Asset 1</title><g id="Layer_2" data-name="Layer 2"><g id="Layer_1-2" data-name="Layer 1"><polygon class="cls-1" points="388.92 82.78 407.02 81.42 384.7 79.75 418.86 77.2 388.44 74.92 430.58 71.78 358.82 66.41 378.1 64.97 342.9 62.33 311.62 64.67 297.56 62.84 332.07 60.26 304.41 58.19 285.13 59.63 262.76 57.96 241.84 59.53 263.09 61.12 239.68 62.87 216.26 61.12 229.83 60.1 213.62 58.89 161.78 62.76 180.15 64.14 121.9 68.49 156.2 71.06 138.1 72.41 160.42 74.08 126.27 76.63 156.68 78.91 114.54 82.06 172.46 86.39 145.94 88.37 173.93 90.47 181.17 89.92 202.22 91.5 233.5 89.16 247.55 90.99 211.1 93.72 261.14 97.45 272.08 96.64 252.38 95.16 280.51 93.06 300.22 94.53 313.13 93.57 331.5 94.94 383.34 91.07 364.98 89.69 423.23 85.34 388.92 82.78"/><polygon class="cls-1" points="296.08 96.58 314.97 97.99 333.86 96.58 314.97 95.16 296.08 96.58"/><polygon class="cls-1" points="183.01 91.28 201.9 92.69 183.01 94.11 164.12 92.69 183.01 91.28"/><polygon class="cls-1" points="553.09 36.77 568.02 35.66 549.61 34.28 577.78 32.17 552.69 30.3 587.44 27.7 528.26 23.27 544.16 22.09 515.13 19.91 489.33 21.84 477.73 20.33 506.2 18.2 483.38 16.5 467.49 17.69 449.03 16.31 431.78 17.6 449.31 18.91 430 20.35 410.69 18.91 421.88 18.07 408.51 17.07 365.75 20.27 380.9 21.4 332.86 24.99 361.15 27.11 346.22 28.22 364.63 29.6 336.46 31.71 361.55 33.58 326.79 36.18 374.56 39.75 352.69 41.39 375.77 43.11 381.74 42.67 399.11 43.97 424.9 42.04 436.49 43.55 406.43 45.8 447.7 48.88 456.72 48.2 440.48 46.99 463.67 45.25 479.93 46.47 490.57 45.67 505.73 46.81 548.49 43.61 533.34 42.48 581.38 38.89 553.09 36.77"/><polygon class="cls-1" points="476.52 48.16 492.1 49.32 507.68 48.16 492.1 46.99 476.52 48.16"/><polygon class="cls-1" points="383.26 43.79 398.84 44.95 383.26 46.12 367.68 44.95 383.26 43.79"/><polygon class="cls-1" points="337.78 30.55 360.06 28.88 332.58 26.83 374.63 23.68 337.19 20.88 389.06 17.01 300.72 10.4 324.46 8.63 281.12 5.38 242.62 8.26 225.3 6.01 267.79 2.83 233.74 0.29 210.01 2.06 182.46 0 156.71 1.93 182.87 3.88 154.04 6.04 125.22 3.88 141.93 2.63 121.97 1.14 58.15 5.91 80.77 7.6 9.05 12.96 51.29 16.12 29 17.79 56.48 19.84 14.43 22.98 51.88 25.79 0 29.66 71.29 35 38.65 37.44 73.11 40.01 82.02 39.35 107.94 41.29 146.44 38.41 163.74 40.66 118.87 44.02 180.47 48.62 193.94 47.61 169.69 45.8 204.32 43.21 228.58 45.02 244.47 43.84 267.09 45.53 330.91 40.76 308.3 39.07 380.01 33.71 337.78 30.55"/><polygon class="cls-1" points="223.49 47.54 246.74 49.28 270 47.54 246.74 45.8 223.49 47.54"/><polygon class="cls-1" points="84.29 41.02 107.54 42.76 84.29 44.5 61.03 42.76 84.29 41.02"/><polygon class="cls-2" points="169.93 26.69 197.2 24.29 169.93 22.36 141.04 24.52 169.93 26.69"/><polygon class="cls-2" points="175.28 21.07 193.46 19.47 175.28 18.18 156.02 19.63 175.28 21.07"/><polygon class="cls-2" points="160.45 18.59 173.88 17.41 160.45 16.45 146.23 17.52 160.45 18.59"/><polygon class="cls-2" points="188.41 16.44 201.02 15.33 188.41 14.44 175.06 15.44 188.41 16.44"/><polygon class="cls-2" points="168.16 29.27 186.31 27.68 168.16 26.39 148.94 27.83 168.16 29.27"/><polygon class="cls-2" points="63.52 14.26 82.23 12.63 63.52 11.31 43.7 12.79 63.52 14.26"/><polygon class="cls-2" points="66.7 15.98 81.07 14.73 66.7 13.72 51.48 14.85 66.7 15.98"/><polygon class="cls-2" points="58.23 24.45 72.6 23.2 58.23 22.19 43 23.32 58.23 24.45"/><polygon class="cls-2" points="62.63 27.38 75.34 26.27 62.63 25.38 49.17 26.38 62.63 27.38"/><path class="cls-3" d="M253.53,35a5.38,5.38,0,0,1-.89-1c-.07.07-.19.09-.23,0l0-.09a.31.31,0,0,1,0,.12.35.35,0,0,0-.06.23l0,0h0a1.13,1.13,0,0,0,0,.15.22.22,0,0,1-.08.18.67.67,0,0,1-.41.51,4.33,4.33,0,0,1,1.21.44l.32-.21a2.66,2.66,0,0,1-.95-.45.16.16,0,0,1,.06-.31,1.19,1.19,0,0,1,.61.17,1.84,1.84,0,0,0,.46.2m-3.93-1.55-.1-.07a.14.14,0,0,1,0,.07h.08m-3,.58a3.11,3.11,0,0,1-.23-.28.73.73,0,0,0,.08.33l.15,0m-.73.25a1.18,1.18,0,0,1,0-.2.5.5,0,0,0,0,.12.28.28,0,0,0,0,.09h0l.05,0m-51,9.76c.08.23.15.46.23.7l.47-.13a2.6,2.6,0,0,1,.88-.29c.62-.22,1.24-.44,1.87-.63-.27-.41-.5-.86-.76-1.28l-.33-.57a.31.31,0,0,1-.12,0,.09.09,0,0,1,0-.16h0l-.12-.25c-.15.15-.31.29-.48.43l-.48.43a.18.18,0,0,1-.12.05q-.34.26-.69.48a.71.71,0,0,1-.06.23.08.08,0,0,1,0,.06.54.54,0,0,1,0,.25.19.19,0,0,1,0,.07.22.22,0,0,1-.1.22c0,.11-.09.22-.14.34a.17.17,0,0,1-.12.1m1.38-8.45a.54.54,0,0,1,0,.11h.06l-.11-.1M197.49,41l0,.07,0-.07h-.08m.31.45.06.09a.3.3,0,0,1,.06-.2,2.75,2.75,0,0,1,.23-.33l0-.06h0l-.06.09a3.89,3.89,0,0,1-.33.42m.57.59v0h0M203,32.24a1.69,1.69,0,0,0,.11-.27l-.08,0a1.53,1.53,0,0,0,0,.3m.44-7.32.06.18,0,0,.09,0c-.05-.07-.11-.13-.16-.19h0m.69,9.42a1,1,0,0,1,.26.36,3.81,3.81,0,0,1,.23-.4,1.38,1.38,0,0,1-.49,0m.27-9.41a2.46,2.46,0,0,1,.17.27l-.09-.29h0l0,0m.27.72h0a.43.43,0,0,0,0,0s0,0,0,0M207,27.94l.13.33c.13.35.39.93.56,1.52.17-.66.37-1.34.6-2,.06-.18.13-.35.21-.53a8.2,8.2,0,0,1,.93-1.76.93.93,0,0,1,0-.37l0-.05h-.07a7.13,7.13,0,0,0-.76,1,4.39,4.39,0,0,1-1,1.8.53.53,0,0,1-.59.1m2.8,1.72,0,0h0v0m6.05-5A2.37,2.37,0,0,0,216,25l.1,0c-.07-.11-.13-.23-.19-.34m3.8.08.08.24h.09l-.17-.24m4.12,3.39a3.65,3.65,0,0,1,.17.67,2.11,2.11,0,0,1,0-.5c0-.25.42-.38.54-.1a1.67,1.67,0,0,1,.11,1.41h0l.49.28c.44.23.71-.1.9-.46-.6-.25-1-1.1-.39-1.5a1,1,0,0,1,1-.14c.25-.1.52-.25.77-.11a.39.39,0,0,1,.14.17,1.39,1.39,0,0,1,.55.36,1.2,1.2,0,0,1,.53.61h0a.85.85,0,0,1,.35-.24c0-1.05-.07-2.08-.18-3.13,0-.28-.06-.55-.08-.82a4.27,4.27,0,0,1-.92.9s-.8-.27-1.09.09-.84,1.73-1.16,1.85a13.84,13.84,0,0,0-1.73.64m4.33-7.86.5-.13c0-.46-.06-.92-.08-1.38l0,0a.42.42,0,0,0,0-.1,12.92,12.92,0,0,1-.35,1.64m.35-2.78c0,.1,0,.21,0,.31v-.11a.85.85,0,0,0,0-.16l-.05,0m.31,1.19c0,.47.06.94.1,1.4a10.15,10.15,0,0,1,1.81-.16c-.62-.7-1.16-1.48-1.74-2.23a6.66,6.66,0,0,1-.11.91.12.12,0,0,1-.06.08m3.3,12.08v0a.44.44,0,0,1,.12-.15l0,0a.37.37,0,0,1-.1.17m-6.79.21h0m-7.14,10.87a1.83,1.83,0,0,0,.25-.06.13.13,0,0,0,0-.06s0,0-.08-.06l-.16.18M203,45.12l0,0h0a.29.29,0,0,0,0,.09l0-.05m26-20.56c0-.1,0-.21,0-.31s0,0,0,0a2.51,2.51,0,0,0,0,.27m-5,4.71h0s0-.09,0-.13v.12m-32.84,3.47a.52.52,0,0,1-.06-.16l-.06.27.12-.11m-1,5.17h0v0l0,0a.07.07,0,0,1,0-.05m-.72.88h-.06l-.1,0h0a.41.41,0,0,0,.15,0h0m-.77-.74c-.31,0-.63,0-.93,0v0l.42.11.07,0a1,1,0,0,1,.39-.07h0l0,0m-.53-2.75a.4.4,0,0,1-.1-.12.33.33,0,0,1,0,.1l.1,0m.3-11.53v0h0m14.29-.7a.31.31,0,0,1,0-.19l-.05.09a.49.49,0,0,1-.17.18v.05a1,1,0,0,1,.22-.13M201.87,33l0-.1-.08.06.11,0m-.63-.42c0-.07,0-.14,0-.25h0a.62.62,0,0,1-.26-.25,3.39,3.39,0,0,0-.29-.53h0c0,.09,0,.17,0,.25a4.61,4.61,0,0,0,.59.8M198,24.85l-.4-.62h0l.27.46a1.83,1.83,0,0,1,.13.16m-1-1.62-.07-.11h0l.08.1m-.29-.48h0s0,0,0,0m-.08,1.11-.11-.12s0,0,0,0a.3.3,0,0,1,.06.11l.07,0m-2.23-1.36h0v0l0,0m6.24-2.45-.25.23a1,1,0,0,0-.08.3.86.86,0,0,1,.22-.42l.11-.1h0m-.36.78h0a0,0,0,0,0,0,0h0v0M254.43,34.6a5.62,5.62,0,0,0,0,.58,1,1,0,0,0,.15-.24c-.06-.11-.11-.23-.17-.34m-.33,1.2c0,.15.05.29.08.44a2.53,2.53,0,0,1,1.16,2.07.42.42,0,0,1-.33.4,2.08,2.08,0,0,1,.29.71c.27,1.14-1.27,1.48-1.82.6a2.89,2.89,0,0,0-.32-.42,9.2,9.2,0,0,0-2.79-.14,17.21,17.21,0,0,1-3.08,3.88,1.42,1.42,0,0,1-2.21-.56c-.14.11-.28.23-.43.33a.62.62,0,0,1-.91-.78c.1-.21.21-.41.31-.62a.77.77,0,0,1-.57-.23,1,1,0,0,1-1.18.26l-.15.23-.07.08A1.61,1.61,0,0,1,241,44.14c-2.18.49-4-.19-5.86-1a.82.82,0,0,1-.42.71,1,1,0,0,1-.4.34c-5.09,2.34-10.54,3.73-15.79,5.66a.93.93,0,0,1-1.19-.49A.92.92,0,0,1,216,48.17c-.44.33-.89.67-1.35,1a.85.85,0,0,1-.92,0c-.36.33-.71.65-1.08,1a.91.91,0,0,1-1.46-1c.08-.21.18-.4.27-.61-.38.41-.75.83-1.14,1.23a.88.88,0,0,1-1.4-.21c-.09.09-.17.18-.26.26a.86.86,0,0,1-1.4-.57c-.09.12-.18.25-.28.37-.58.74-1.5-.1-1.39-.81l.06-.26c-.2.2-.38.41-.59.6-.51.43-1.5,0-1.32-.74,0-.08.05-.16.07-.23l-.43.37a.81.81,0,0,1-1.28-.33l-.26.25c-.41.41-1.35.32-1.34-.42a10.76,10.76,0,0,1,.17-1.7,11.11,11.11,0,0,1-2.39,1.19c-.45.16-1-.43-.57-.81l.38-.38-.37.13a.51.51,0,0,1-.66-.28c-.48.22-1,.43-1.46.63.17.72.31,1.44.47,2.15a.32.32,0,0,1-.1.31,1.38,1.38,0,0,1,.44.33.25.25,0,0,1,0,.25l-.06.13a.24.24,0,0,1-.14.14,1.07,1.07,0,0,1,0,.59c-.05.14-.27.18-.33,0a1.93,1.93,0,0,1-.1-.63l0,0a.18.18,0,0,1-.13.11,2.11,2.11,0,0,1-1,0c-.29-.08-.18-.51.11-.5l.6,0a.64.64,0,0,0,.11-.2c0-.09.15-.09.17,0a.81.81,0,0,1,0,.22h0a.17.17,0,0,1,.14-.11h0a1.8,1.8,0,0,0-.06-.22.34.34,0,0,1-.26-.11.33.33,0,0,1-.55,0,11.5,11.5,0,0,1-.64-1.75l-.06-.14c-.74.27-1.49.52-2.26.72a.67.67,0,0,1-.51-.09.8.8,0,0,1-.8-.38l-.31.11c-.87.37-1.5-1.09-.67-1.51,1-.52,2-1,3.1-1.48a.88.88,0,0,1,.39,0v0a4,4,0,0,1-.43-1.53.8.8,0,0,1,.17-.83,2.26,2.26,0,0,1,.68-.81h0A49.82,49.82,0,0,0,196,36.94v0a7.45,7.45,0,0,1-1.23-1.34,6.67,6.67,0,0,1-2.35-.59,2.87,2.87,0,0,0-.76.33c-.22.44-.4.9-.61,1.36a4.78,4.78,0,0,1-.52,1.6.2.2,0,0,1-.33,0,1.94,1.94,0,0,1-.13.54.17.17,0,0,1,.19.19,3,3,0,0,1-.16.59.36.36,0,0,1-.43.26,7.68,7.68,0,0,1-.79-.32h-.09l-.15-.05c0,.17-.1.35-.29.24a9.4,9.4,0,0,1-2.76-2.44.79.79,0,0,1-.22-.09,39.51,39.51,0,0,1-4.38-3.6A43,43,0,0,1,176,29.36c0-.05,0-.14.08-.1,3.21,1.61,5.77,4.28,8.8,6.19l.28-.09c.26-.08.39.2.32.4l.17.14.36.21a.57.57,0,0,1,.31.38,10.25,10.25,0,0,1,1.22,1.28c.45,0,.89.06,1.33.12a.35.35,0,0,1,.33,0h0s.05,0,0,.05a.2.2,0,0,1,0,.17.31.31,0,0,1,0,.19.61.61,0,0,1-.07.14l.28-.06s0,0,0-.06l0-.09a.32.32,0,0,1-.16-.29h0a.47.47,0,0,1-.21-.45,6,6,0,0,1,.14-1.12,3.43,3.43,0,0,1-.44-.19,3.89,3.89,0,0,1-1-.55.47.47,0,0,1-.67-.08,7.37,7.37,0,0,1-.94-3.25,7.05,7.05,0,0,1,0-2,.49.49,0,0,1-.18-.51c.25-.95,1.56-1.39,2.42-1.52a2.81,2.81,0,0,1,1,0,4.35,4.35,0,0,0,.59-1.13l0-.06a.21.21,0,0,1-.18-.11.91.91,0,0,1-.11-.16.25.25,0,0,1-.16-.17l0-.11c-.13-.18-.25-.37-.37-.56l-.29-.22a.85.85,0,0,1-.42,0c0,.12,0,.24,0,.36s-.21.15-.29.06a.83.83,0,0,1-.18-.42h0s0,.06,0,.09a.12.12,0,0,1-.08.1,2.44,2.44,0,0,1,.1.24c.06.15-.11.28-.22.16a1.13,1.13,0,0,1-.17-.23.26.26,0,0,1-.46.05,2.21,2.21,0,0,1-.34-1,3.27,3.27,0,0,1-.21-1.58,2.18,2.18,0,0,1,.17-.92c-.19,0-.24-.32,0-.35h.1a.16.16,0,0,1,.1,0,1.53,1.53,0,0,1,2.18-.94h0a.17.17,0,0,1,.16.05l.05.06a2.07,2.07,0,0,1,.8.81,2.21,2.21,0,0,1,.51,1.78c.07.16.13.32.18.47a.22.22,0,0,1,0,.08.81.81,0,0,1,.31.26,1.75,1.75,0,0,1,.16.25.08.08,0,0,1,0,0,6.18,6.18,0,0,1,.9,1.48v0a8.15,8.15,0,0,1,2.74,3,33.16,33.16,0,0,1,1.47,3,3.45,3.45,0,0,1,.41.64,5.31,5.31,0,0,1,.47.84.16.16,0,0,1,0,.19s0,.08,0,.12l.13,0h0a5.73,5.73,0,0,1,1.72.93,1.1,1.1,0,0,1,.21,1.4.4.4,0,0,1,.05.48l-.06.12a1.6,1.6,0,0,1-.62,1.42,6.41,6.41,0,0,1-1,1.64l.2,0a.28.28,0,0,1,.2.12v0a.85.85,0,0,1,.09-.14c.18-.39.36-.79.57-1.17,0-.06.13,0,.12,0a2.57,2.57,0,0,1-.23.76l.14-.13c.2-.22.63-.05.54.27l0,.11a.28.28,0,0,1,0,.22,3.79,3.79,0,0,1-.3.71,1.25,1.25,0,0,0,0,.19s0,0,.06.06c.1.23.21.45.32.67a.59.59,0,0,1,0-.13,8.37,8.37,0,0,1-.18-1,.26.26,0,0,1,.5-.13h0c.16.6.36,1.18.56,1.77a3,3,0,0,1,.56-.6c-.21-.5-.46-1-.72-1.48a.62.62,0,0,1,0-.68,4.9,4.9,0,0,1,.41-1.38.14.14,0,0,0,0-.06c-.35-1.58-.44-3.13,1-2.64a5,5,0,0,1,1.25-1.36,5.36,5.36,0,0,1-.06-.69h0a1.47,1.47,0,0,1-1.32,0,2.93,2.93,0,0,1-1.23-1.17.28.28,0,0,1-.2-.22.62.62,0,0,1,0-.19,4,4,0,0,1-.42-1.9.26.26,0,0,1,.52,0,3.47,3.47,0,0,0,.1.37,2.77,2.77,0,0,1,.12-.41.12.12,0,0,1-.05-.05,4.05,4.05,0,0,1-.12-.5c0-.06,0-.1.09-.11l-.07-.25a.18.18,0,0,1,.06-.21c-.11-.3-.23-.59-.35-.89-.53-.63-1-1.28-1.52-2A19.93,19.93,0,0,1,197,24.4a4.5,4.5,0,0,0-.82,0c-.27.14-.65.37-.66.37a.53.53,0,0,0-.14.12,1.13,1.13,0,0,0-.22.27c.05.17.09.33.13.51a.36.36,0,0,1-.06.28,4.06,4.06,0,0,0,.8,1.69c.08.1-.06.24-.16.18a1.14,1.14,0,0,1-.25-.18h0a4.55,4.55,0,0,1-1.38-1.74,4.32,4.32,0,0,1-.63-2,0,0,0,0,1,0,0c0,.1.09.19.14.29s0-.05,0-.08a.2.2,0,0,1-.11-.19,4.48,4.48,0,0,1,.26-1.37.18.18,0,0,1-.08-.22,1.18,1.18,0,0,1,.76-.47,3,3,0,0,1,.64-.34,3,3,0,0,0,.57-.35v-.06a3.92,3.92,0,0,0-.13-.49l0,0c.15,0,.24.17.29.32a.13.13,0,0,1,.16.06c1.08,1.58,2.16,3.24,3.11,4.95a6.49,6.49,0,0,1,.55,1c.24.45.46.91.68,1.37,0-.07.05-.14.07-.2s-.07-.24-.1-.36,0-.16,0-.26a.58.58,0,0,1-.18-.81h0c.21-.28.43-.55.62-.83a5.43,5.43,0,0,1,.4-.93,3.66,3.66,0,0,1,0-1.32c0-.09.18-.09.19,0s0,.07,0,.1a2.58,2.58,0,0,1,.06-.37l-.06,0a1.72,1.72,0,0,1-.76-.29,3.3,3.3,0,0,1-.32-.18.73.73,0,0,1-.2.48.26.26,0,0,1-.32,0c-.45-.32-.32-1.41-.31-1.91a2.82,2.82,0,0,1,.08-.65.12.12,0,0,1,0-.13.7.7,0,0,0,.08-.1,1.91,1.91,0,0,1,.57-.76.09.09,0,0,1,0-.07,1.49,1.49,0,0,1,.2-.15.13.13,0,0,1,0-.09,1.23,1.23,0,0,1,.34-.28c.05-.14.1-.29.14-.43a2,2,0,0,0,0-.6,4.1,4.1,0,0,1-.54-.56c-.09-.11,0-.24.14-.24a3.54,3.54,0,0,1,1.55.47.24.24,0,0,1,.32-.19,2.55,2.55,0,0,1,1.6,1.54c.28.33-.26.81-.58.55h-.14a1.87,1.87,0,0,1-.88-.43v0a.51.51,0,0,1,.16.19.32.32,0,0,1,.36.29,3.68,3.68,0,0,1,.07.58l0-.06c.17-.25.74-.14.68.2s0,.4,0,.6a1.82,1.82,0,0,1-.11.38,2.77,2.77,0,0,1-.42.8.35.35,0,0,1-.42.12,2.75,2.75,0,0,1-.15.36l.06-.07a.36.36,0,0,1,.44,0,.17.17,0,0,1,.18,0c.13.06.26.13.39.18a.72.72,0,0,0,.27.07v0c.11-.18.39-.07.41.11a.47.47,0,0,1-.18.47.62.62,0,0,1,.47.27c-.05-.22-.1-.43-.13-.65a.19.19,0,0,1,.37-.09c.49,1.35,1.07,2.66,1.62,4,.12-.8.68-1.55.88-2.33a.69.69,0,0,1,.49-.46,2.53,2.53,0,0,1-.14-.49.37.37,0,0,0,0-.11,2,2,0,0,1-.28-.31.68.68,0,0,1-.52-.68c-.84-.85-.58-2.37,0-3.32a.32.32,0,0,1,.35-.15,2.32,2.32,0,0,1,1-1.45.47.47,0,0,1,.52,0c.18-.15.35-.31.53-.45a.26.26,0,0,1,.38.14,1.32,1.32,0,0,1,.09.41l.47,0a.61.61,0,0,1,.5.57c0,.26,0,.51,0,.77.55.55.41,1.64.17,2.53a2.75,2.75,0,0,1,.23,1.7.32.32,0,0,1,.17.09,5.07,5.07,0,0,1,.89,1.09c.33.35.65.72,1,1.09.18.2.37.4.56.59,0,0,0-.09,0-.13a.86.86,0,0,1,.74-.85,2.19,2.19,0,0,1,.18-1.26c-.35-.76.16-1.47,1-1.76a.58.58,0,0,1,.69.42,4.53,4.53,0,0,0,.7,1.74.45.45,0,0,1,.59.15c.18.34.36.68.55,1a6.49,6.49,0,0,1,0-.76c0-.25.35-.24.44-.06a3.85,3.85,0,0,1,.22.52l.19-.13c0-.14,0-.27-.08-.4-.15-.55-.3-1.09-.44-1.64l-.39-.48a.35.35,0,0,1,.14-.55v-.05c0-.24.36-.36.43-.12a2.41,2.41,0,0,0,.08.25,11.94,11.94,0,0,1,1.89,2.29.3.3,0,0,1,.25-.23,2.72,2.72,0,0,1-.43-.65v0h0a.29.29,0,0,1,0-.1l.06.05c.46-.77.89-1,1.26-.56l.15.17a5.8,5.8,0,0,1,.34.52,4.72,4.72,0,0,1,.27.61,1.68,1.68,0,0,1,.08.36,2.38,2.38,0,0,1,.23.81.93.93,0,0,1,0,.23,2.33,2.33,0,0,1,.43-.35c.65-.36,1.89-1.2,1.89-1.2s.28.29.61-.32,1.52-2.2,1.3-2.78l-.35.09a.07.07,0,0,1-.06-.12,4.41,4.41,0,0,1,1.34-.66,19,19,0,0,1,.41-2,9.28,9.28,0,0,1-.17-2.73,0,0,0,0,1,.09,0c.05.6.1,1.18.17,1.76a3.37,3.37,0,0,1,.13-1.08c0-.36.07-.71.13-1.08,0,0,.1,0,.1,0s0,.33,0,.5c.07-.16.14-.31.22-.46s0,0,0,0a6.48,6.48,0,0,0-.17,1c.11-.36.23-.72.33-1.06a0,0,0,1,1,.05,0c-.1.48-.16,1-.22,1.46,0,.32-.05.65-.07,1,.73.72,1.37,1.53,2.06,2.29h.33a.26.26,0,0,1,0,.52h-.1a31.75,31.75,0,0,1-1.93,3.4,34.92,34.92,0,0,0,.4,4.8.38.38,0,0,1,.11.08c.32.32.5.63,1,.75a4.08,4.08,0,0,0,.59.11c.81-.73,2,.43,1.81,1.35l.06.07c.15.25.28.5.4.75.21,0,.29.09.49.13s.43.71.57.9a2.51,2.51,0,0,0,.48.44,1.16,1.16,0,0,0,.35.18s.09-.09.1-.12a1.24,1.24,0,0,0,.09-.33.35.35,0,0,1,.32-.26.73.73,0,0,1-.36-.47c-.19-.94,1-2,1.83-2.37a1.56,1.56,0,0,1,2.28,1.5.58.58,0,0,1,0,.33s0,0,0,0,.07.09.09.13a1.28,1.28,0,0,1,1.32-.52,1.17,1.17,0,0,1,.35.08,1.91,1.91,0,0,1,1.13,1.13.11.11,0,0,1,.19.08l0,.19.19.08.28-.13a.65.65,0,0,1,.15-.46,2,2,0,0,1,.6-.56l.08,0a1.4,1.4,0,0,1,.48-.38,2.29,2.29,0,0,1,.46-.17s0,0,0,0c.2-.5.63-.47.95-.2.12,0,.19.15.31.19s0,0,0,0c.62,0,.76,1.16.07,1.23v0c.15.27.29.55.43.82a4.48,4.48,0,0,0,.08-.64.14.14,0,0,1,.2-.12A19.73,19.73,0,0,1,249,27.14a.16.16,0,0,1,.31.1c-.24,1.65-.5,3.43-.92,5.11a.21.21,0,0,1,0,.17c0,.1,0,.2-.08.3l0,0a1.56,1.56,0,0,1,.73-.22,1.23,1.23,0,0,1,1.13.74.9.9,0,0,1,.59.07.64.64,0,0,1,.49.06l.25.14.31,0c0-.1,0-.2,0-.3s0,0,0,0l.14.29h0a.43.43,0,0,1,.37.14.43.43,0,0,1,0-.12.27.27,0,0,1,.5-.12A3.76,3.76,0,0,0,254.17,35a6.07,6.07,0,0,0-.08-1c-.14-.26-.29-.53-.42-.8a.38.38,0,0,1,0-.1.81.81,0,0,0-.4-.11c-.34.08-.29-.54,0-.4s.39,0,.54.18,0,0,0,0a.29.29,0,0,1,.34,0,7.16,7.16,0,0,1,1.48,2.2c.3.39-.39,1-.71.52l-.12-.18,0,.08a.58.58,0,0,1-.71.36m-1.94-2.86c-.12-.09.05-.25.16-.16s0,.25-.16.16"/><path class="cls-3" d="M170.68,20.86h0m-1.22,31.9c-.08-.07,0-.17.11-.11.26.22.55.41.8.64a0,0,0,0,1,0,.05,3.28,3.28,0,0,1-.88-.58M158.15,39.65c.09,0,.07.15,0,.15a1.08,1.08,0,0,1-.18,0,.07.07,0,0,1,0-.14,1.09,1.09,0,0,1,.18,0m-15-21.06a.1.1,0,0,0,.05.06.08.08,0,0,0,0,.07,1.85,1.85,0,0,0,0,.23.61.61,0,0,1-.05-.36m.21,1,0,.07a3.06,3.06,0,0,0-.15,1.12l-.06-.15c0-.1-.07-.21-.12-.32v0h0a.59.59,0,0,1,0-.08.38.38,0,0,0-.08-.09,1.21,1.21,0,0,0,.43-.52m.53,1.6a.14.14,0,0,1,0-.06h0a.09.09,0,0,0,0,.05m1.23,1.68a.22.22,0,0,1,0,.08h0l0-.07m-.93.61,0,.06h0l-.05.06s0,0,0,0a.25.25,0,0,0,0-.09h0m2.87-.15a5.16,5.16,0,0,0-1,.06l0,0,.25-.19a3.64,3.64,0,0,1,.67.16m1.79,17h-.05l0-.09s0,.06,0,.1M154.72,34h0m4,15.28a.29.29,0,0,0-.21-.35h-.09a.18.18,0,0,0,.07-.05,3.88,3.88,0,0,0,.48.3c-.08-.06-.2,0-.22.11h0m5.35,2.64a1.89,1.89,0,0,0-.41-.1,1.19,1.19,0,0,0-.23-.16c.06-.12.11-.24.16-.36.12.18.27.35.4.52l.08.1m4.06-1.37.08.16-.17-.15a.22.22,0,0,0,0-.14.54.54,0,0,1,.07.13m.13.34a.09.09,0,0,0,0-.05,1.3,1.3,0,0,1,.08.17l-.09-.12m.6-5.23h0M174,31.1l-.06,0-.14,0-.05,0,.25.07M171,30.19a1.75,1.75,0,0,0,.48.21h0a.09.09,0,0,0,0,.07l-.14,0c-.22-.13-.43-.27-.63-.41l.27.14m-7.72-6.51h-.06l.1,0,0,0h-.07m3.3-3.79.27.07a4.37,4.37,0,0,1-.28.71h-.16a2.08,2.08,0,0,0,.17-.79m-5.79,2.22a6.78,6.78,0,0,1-1.49.14,14.73,14.73,0,0,1,1.49-.14m-6.66-2a.3.3,0,0,0-.06-.11,3.24,3.24,0,0,1,1.54-.55,3.7,3.7,0,0,1,.56,0c-.28,0-.54.1-.76.15a5,5,0,0,0-1.28.48m-9.71,4a0,0,0,0,1,0,0h0s0,0,0,0m3.55-.68-.26-.13.28.07.07.08-.09,0M151,35.51v0h0s0,0,0,0m11.85,15.81c0-.08,0-.15,0-.23l.06,0a1.6,1.6,0,0,1-.05.21m1.35,1.89-.72-.24a.13.13,0,0,0,0-.06l.35.13.36.17m-2.64-27.27a.62.62,0,0,0,.21,0s0,0,0,0l-.19-.07m-.11-.09a.27.27,0,0,0,.1.08l-.13-.05,0,0m3.32-2.94Zm3.35-2.56-.06,0-.09,0a.31.31,0,0,0-.37.15l0,.09,0,0a.18.18,0,0,0-.1.17.37.37,0,0,0-.19-.11H167a2.55,2.55,0,0,0,.13-.61l1,.31m-2,1a.43.43,0,0,0,0-.19h0a.24.24,0,0,0,0,.12.16.16,0,0,0,0,.15l-.1.06a0,0,0,0,0,0,0,.67.67,0,0,0,.06-.12m-7.92.18-.27.09a4.82,4.82,0,0,0-1-.15,6.34,6.34,0,0,1,1.23.06m-13-4.57a6,6,0,0,1,.73,0,5.39,5.39,0,0,1-.67,0h-.05v0m-.87.19h0l.07,0-.1.08-.2.09.18-.14m-.82,1.67v0c0,.05.08.05.07,0s0-.28.1-.35.49-.2.62-.07,0,.27,0,.38c-.08.27-.19.53-.28.79h0a.76.76,0,0,1-.53-.77m.28,2h0v0s0,0,0,0m.26,0h0M147.64,23c-.31-.13-.62-.26-.93-.41a.93.93,0,0,0-.1-.39c-.34-.68.39-1.23,1-1.06l0,0s0,0,0,0a1.55,1.55,0,0,0,.1.52,1.38,1.38,0,0,0-.28-.19.19.19,0,0,0-.26,0c-.29.5.1,1,.45,1.43M166,44.88c-.12.2-.23.4-.34.61a2.72,2.72,0,0,1,.26-.6H166m3.37-1.73s0,0,0,0v0a.14.14,0,0,1,0,.09m7.38-6.47-.91.11.13-.06a.29.29,0,0,0,.11-.11.9.9,0,0,1,.67.06m-1.37-.38h0v0m-1.23-1,.6.1-.18.06-.39-.12,0,0M167.45,22h0l0,0a.25.25,0,0,0-.16-.1c0-.1,0-.2,0-.3a.1.1,0,0,0,.08-.12h0a1,1,0,0,0,0,.25.27.27,0,0,0,.18.24m0-1.1h0l-.06.15-.08-.07,0,0a.13.13,0,0,0,.09,0m-3.61.8h0m-18.13-4.32h0a0,0,0,0,0,0,0h0m-1.22.82a.05.05,0,0,0,0,0h0m2.58,2.76a1.94,1.94,0,0,0-.63.44.94.94,0,0,0,.06-.15.25.25,0,0,0,.17-.12h0a1.38,1.38,0,0,0,.31-.17h.09m.48,1.27.07.08a0,0,0,0,0,0,0,.93.93,0,0,0-.05-.1m.32.48-.11-.14h0a.71.71,0,0,1,.08.15m.64.64,0,0h0s0,0,0,0m10.21,24.8c.07-.24.13-.49.19-.75A23.71,23.71,0,0,0,161,44.41a2.9,2.9,0,0,0,.41-.06c0,.12,0,.25,0,.37s.23.21.26.05h0a.12.12,0,0,0,.07.05,2.7,2.7,0,0,0,1.09-.13,9.82,9.82,0,0,0,1.48-.48h0a.16.16,0,0,0,0,.07.39.39,0,0,0,.13.17c-.25.66-.55,1.3-.81,2a20.59,20.59,0,0,0-1,2.24c-.08.21-.15.42-.22.64-.28-.08-.55-.15-.82-.24-1-.32-1.92-.67-2.9-.93m13.12-11.39h0m-18.72-16,.1-.08a.47.47,0,0,1-.1.1v0m-6.8.8h0a.41.41,0,0,0-.07.11.28.28,0,0,1,0-.09l.07,0m-.94.15a.22.22,0,0,0,0-.18.11.11,0,0,0,0-.08.32.32,0,0,0,.27.18v.08s0,0,0,0a.29.29,0,0,0-.32,0h0m2.51-.2v0h0m.41,1.42s0,0,0,0h0v0m1.16,1.41h0m.8-1a.75.75,0,0,0,.07-.12l0,.12h0m16.05,13.25a.24.24,0,0,0,0,.08h0v-.08m-.67,7.16,0,0,0,0h.07m-4.14-1.38h0M165.64,41c0,.07,0,.14,0,.21h0V41m-2.32-9.54.16.28,0,0c0-.1-.08-.2-.13-.3M146,19.07h0l-.05.06,0-.05,0,0m.58-.54a.65.65,0,0,0,0-.13,1.85,1.85,0,0,0,.11.42s0,0-.05-.06a.54.54,0,0,1-.1-.23m-.45,1.61s0-.06,0-.09,0,0,0,0l.07-.05a.87.87,0,0,0-.07.17m1-.48a1.48,1.48,0,0,0,0-.21.46.46,0,0,0,.07.07.36.36,0,0,0,0,.09.19.19,0,0,0-.1.05m20.75,15.22s0,0,0,0l0,0h0m-5,8.93v0l.3,0-.3,0m-1.05.45.08,0,.18.16c.07.08.19,0,.12-.12l-.11-.11.08,0,.18.07a.32.32,0,0,0,.35-.06h.15c-.35.14-.71.26-1,.43h0c0-.11,0-.22,0-.33m-12.7-23.62h0v0m22.51,16,0,0,.1,0,0,0h-.05M143.9,17.6h0a.24.24,0,0,0-.07.17l-.06,0a.47.47,0,0,1,0-.1.44.44,0,0,1,.08-.11m4.44,9.9h0l0-.06h0l0,.05m27.75,8.15a.26.26,0,0,0,.17.24,4,4,0,0,0,.82.29.15.15,0,0,0,0,.07l-1.65-.55a.4.4,0,0,0-.09-.22h0l.75.17m-17,13.53a.12.12,0,0,0-.05,0l.22.1h-.13l0,0m-.87-.15-.06-.06.15,0a.47.47,0,0,0-.06.09h0M143.41,19.34l0,.05s0,0,0,0,0-.06,0-.08m-.27-.89s0,0,0,.05a.11.11,0,0,0,0,.06c-.25.2-.1.65.05.87a.1.1,0,0,0,.12,0,.07.07,0,0,1,0,.05,0,0,0,0,0-.06,0,1.72,1.72,0,0,1-.32.34.86.86,0,0,0-.25.14.09.09,0,0,0,0,.15h.08c-.06.14.07.43.12.56a1.47,1.47,0,0,0,.3.7s0,0,0,.06a1.51,1.51,0,0,0,.15.37s.05,0,0,0a1.43,1.43,0,0,1-.09-.27h0a.43.43,0,0,1,0,.05.77.77,0,0,1,0,.15s0,0,0,0a1.67,1.67,0,0,0,.08-.2.77.77,0,0,1,.07-.16,2.93,2.93,0,0,1,.19.4s.07,0,.08,0a1.5,1.5,0,0,0,0-.43.54.54,0,0,1,.05.28c0,.07,0,.11.11.08a.32.32,0,0,0,.19-.36.47.47,0,0,0,0-.17l.2,0h0s0,0,0,0a.28.28,0,0,0,0,.13s0,.08,0,.12,0,.1,0,.16a.1.1,0,0,0,.05.06s.05.05.08,0,.09,0,.12-.09a.26.26,0,0,0,0-.08,1,1,0,0,0,0-.15l.07,0,.2.11a.86.86,0,0,0,0,.45.06.06,0,0,0,.06.06c0,.12.05.26.07.39a1.51,1.51,0,0,1-.18.26,1.2,1.2,0,0,1-.33.28c0-.1-.18-.11-.19,0a.27.27,0,0,0,0,.09l0,0a.38.38,0,0,1,0-.15c0-.08-.11-.13-.14,0a1.24,1.24,0,0,0-.06.29h0a.19.19,0,0,0,0-.08c0-.06-.07-.09-.11-.06l0-.08c0-.07-.13-.05-.14,0a2.22,2.22,0,0,0,.12.85c.07.18.14.42.33.49h0a.06.06,0,0,0,.09,0A2.81,2.81,0,0,1,145,24a5.91,5.91,0,0,1,2.21-.25,6.77,6.77,0,0,1,1.28.27l.14.07c.09.12.19.32.29.48a7.79,7.79,0,0,1-.14,2,2,2,0,0,1-.21.41v0a1.3,1.3,0,0,0-.05-.8c0-.07-.12-.05-.13,0s0,0,0,.07,0,0,0,0v.07a4.72,4.72,0,0,1-.84,1.73,2.29,2.29,0,0,0-.52,1,1.24,1.24,0,0,0-.14.18,0,0,0,0,0,.06.06l.14-.11a.17.17,0,0,0,.2,0,3.16,3.16,0,0,0,.34-.38l.29-.2a.18.18,0,0,0,.27,0l.36-.4a10.09,10.09,0,0,1-1.38,2.17,0,0,0,0,0,0,0,5.53,5.53,0,0,0,1.53-1.91.28.28,0,0,0,0,.13c0,.05,0,.09,0,.09a.25.25,0,0,0-.14.23,7.71,7.71,0,0,1-1,1.26,0,0,0,0,0,.06.07,6.18,6.18,0,0,0,.78-.66l-.26.39a.05.05,0,0,0,.08.06,8.68,8.68,0,0,0,1-1.21.22.22,0,0,0,.19-.17l.06-.23h0a3.16,3.16,0,0,0,.38.87.09.09,0,0,0-.05.11,3.13,3.13,0,0,0,.75,1.16c0,.52,0,1-.06,1.57a21.52,21.52,0,0,0-.67,3.93l-.26-.14a.16.16,0,0,0-.09,0,.26.26,0,0,0-.27,0,.59.59,0,0,0-.23,0,.1.1,0,0,0,0,.17l.12.09c0,.06,0,.13,0,.2h0c0-.06,0-.12,0-.19a.09.09,0,0,0-.12-.06c0-.14-.08-.28-.13-.41s0,0,0,0a2,2,0,0,0,0,.69c-.14,1-.17,2-.28,3l-.24.77a2.25,2.25,0,0,0-1.09.16l-.11,0a2.15,2.15,0,0,0-.71,0l-.16,0a.63.63,0,0,0-.57.19.52.52,0,0,0-.14.31.5.5,0,0,0,0,.12.61.61,0,0,0-.05.12c0,.09.09.13.14.06a1.94,1.94,0,0,1,.23-.27l.1-.07.28,0a3.94,3.94,0,0,1,.47.1.66.66,0,0,0-.22.35.41.41,0,0,0,.1.41.11.11,0,0,0,.14,0,1.83,1.83,0,0,1,.24-.31,9.12,9.12,0,0,0,1.15.17l-.13.12a9,9,0,0,0-.77.87.1.1,0,0,0,.12.15l1.09-.67.32-.18a.5.5,0,0,0,.28-.1.74.74,0,0,0,.21,0l.19-.07.11.06a.1.1,0,0,0,.11,0h0l.26.07a.15.15,0,0,0,.11-.27l0,0s.07,0,.08-.06l.07-.06a.16.16,0,0,0-.05-.24l0-.05c.09-.26.14-.53.21-.8a1.28,1.28,0,0,0,.34-.6c.52-.21,1.1-1,.81-1.61l.11-.12.21-.06a.27.27,0,0,0,.2-.31l.13-.09c.08-.07,0-.21-.11-.17a.11.11,0,0,0,0-.07,4.46,4.46,0,0,0-1.2-.76.25.25,0,0,0,.08-.1s0,0,0,.06h0a.5.5,0,0,1,.21-.39c.21-.11.51-.21.59-.46a.19.19,0,0,0-.11-.22.43.43,0,0,0-.25,0,5.09,5.09,0,0,1,0-.55.1.1,0,0,0,0-.08c0-.11,0-.23.05-.34.08-.4.2-.78.31-1.17s.22-.64.34-1a8.68,8.68,0,0,0,1.89,1.3,3.25,3.25,0,0,0,1.42,1,1.38,1.38,0,0,0,.8.41s.06-.05,0-.07l-.27-.21.23.16.34.24a11.86,11.86,0,0,1,.84,1.76c.09.21.45.06.38-.15a8.49,8.49,0,0,0-.46-1.14,3.1,3.1,0,0,0,1.53.47c.07.16.13.33.19.5a.56.56,0,0,1,0,.12c-.15.68-.33,1.34-.48,2a2.71,2.71,0,0,0-.1,1.49,0,0,0,0,0,.08,0c.07-.13.14-.27.2-.41l-.12.38-.36.76a.2.2,0,0,0,0,.15c-1,1-2.22,1.93-3.29,2.91-.08.07,0,.18.13.13a14.59,14.59,0,0,0,3.89-2.73.61.61,0,0,1-.05.12,0,0,0,0,0,0,.05,30,30,0,0,1-2.78,2.12.07.07,0,0,0,0,.11q-.62.35-1.2.72a.07.07,0,0,0,.07.12c1.37-.74,3-1.17,4.28-1.9,0,.12-.06.23-.08.34a1.48,1.48,0,0,0-.14.42.08.08,0,0,0,.08.09.43.43,0,0,0,0,.05c-.07.29-.13.57-.19.85s-.28.7-.4,1.05a.43.43,0,0,0-.11.12,4.7,4.7,0,0,0-.34,1.47.74.74,0,0,0-.45.49c0-.07-.14-.12-.19,0a1.71,1.71,0,0,0,.11,1.52.24.24,0,0,0,.42.06l.14.16-.08,0c-.29.06-.25.45,0,.54a16.63,16.63,0,0,0,4.21.52,5.79,5.79,0,0,0,0,.72l-.27-.1a.18.18,0,0,0-.2.29,1.43,1.43,0,0,0,.53.42,0,0,0,0,1,0,0,1.36,1.36,0,0,0-.35,0,.15.15,0,0,0-.08,0,1.77,1.77,0,0,1-.31-.15c-.2-.11-.41.18-.2.31a4.93,4.93,0,0,0,.83.41h0a.17.17,0,0,0,.06.16l.12.08a.09.09,0,0,0,.06,0l.06,0a.09.09,0,0,0,0,.13,14.49,14.49,0,0,0,4,2c1.19.44,2.36,1,3.58,1.34l.14.11a2.21,2.21,0,0,0,.84.51h0a.2.2,0,0,0,.09.06s0,.08.08.1a.14.14,0,0,0,.13,0l0,0a.15.15,0,0,0,0-.17,1,1,0,0,0-.48-.53l-.09-.08s0,0,0,0c-.05-.41-.5-.6-.86-.72a7.4,7.4,0,0,0-.92-.5,19,19,0,0,0-2.6-1.58,15.68,15.68,0,0,1-1.33-.86.25.25,0,0,0,0-.14,5.32,5.32,0,0,0-.81-.76c-.2-.18-.39-.4-.61-.58l0-.13a0,0,0,0,0,0,0,1.62,1.62,0,0,1,.1-.18l1,.14a.23.23,0,0,0,.16.14,3.41,3.41,0,0,0,1.24,0,2.6,2.6,0,0,0,.4,0,5.26,5.26,0,0,0,.88.63,4.71,4.71,0,0,1,1.22,1.09.16.16,0,0,0,.13.07,1.37,1.37,0,0,0,.17.17c.21.17.43.33.63.5s.24,0,.17-.16a2.86,2.86,0,0,0-.38-.4,3.75,3.75,0,0,1-.64-1.2c0-.09-.09-.18-.14-.27a.79.79,0,0,0,.31.27,2.64,2.64,0,0,0,.53.87,2.36,2.36,0,0,0,.88.54c0,.06,0,.16.08.16a1.61,1.61,0,0,0,.38,0,.17.17,0,0,0,0-.33,1.66,1.66,0,0,1-1-.65,4.72,4.72,0,0,1-.81-1,.08.08,0,0,0-.08,0,3.29,3.29,0,0,0-.21-.42,2.21,2.21,0,0,0-.42-.58c.34-.2,0-.74-.32-.52a1.6,1.6,0,0,0-.42.44.2.2,0,0,0,0,.11c-.43,0-.86.07-1.29.08h-.28a2.39,2.39,0,0,0-.37-.15.41.41,0,0,0-.13-.1l-1.11-.33c.38-.8.72-1.63,1.08-2.41l.25-.55a4.67,4.67,0,0,0,.84-1.82,4.94,4.94,0,0,1,.55.15,1.29,1.29,0,0,1,.34.25.1.1,0,0,0,.1,0,3.3,3.3,0,0,1,.47.52.08.08,0,0,0,0,0,.18.18,0,0,0,.16.29l0,0c-.22.28.18.65.41.37a1.8,1.8,0,0,1,.2-.19v.08a.05.05,0,1,0,.1,0v-.15a.88.88,0,0,1,.22-.1h0a.06.06,0,0,0,.11,0,.07.07,0,0,1,0,0c.18-.08.16-.28.06-.42s0-.25,0-.38l.12-.08c.07.26.13.53.19.81,0,0,.1,0,.1,0,0-.3-.07-.6-.12-.89a.51.51,0,0,0,.15-.35.12.12,0,0,0,0-.09,4.63,4.63,0,0,0-.12-.89.74.74,0,0,0,.46-.47.77.77,0,0,0-.51-.94h-.08a2.61,2.61,0,0,0,0-.58,8.16,8.16,0,0,0-.51-3.15c-.1-.26-.22-.5-.34-.75a8.51,8.51,0,0,0-.71-1.53c.44.09.89.17,1.34.24a9.24,9.24,0,0,1,1.43.93,2.48,2.48,0,0,1,.19.26.15.15,0,0,0,.27-.12.26.26,0,0,0,.09-.18h.07a.28.28,0,0,0,.24-.42l.09-.08a2.94,2.94,0,0,1,.51-.05l.12.05s0,0,.05,0l.18,0a10.94,10.94,0,0,1,2.13,1,.16.16,0,0,0,.25-.13.34.34,0,0,0,.24-.2l.2-.36a.93.93,0,0,1,.21-.1,9.29,9.29,0,0,0,2-.39.32.32,0,0,0,.28.19l.1.08c.08.06.22,0,.15-.13l0,0a4.77,4.77,0,0,1,.47-.13l1.57.34c.06,0,.09,0,.09-.09a.35.35,0,0,0,.21-.37,19.58,19.58,0,0,1,1.87.82,0,0,0,0,0,0-.08,23.74,23.74,0,0,0-3-1.58A.29.29,0,0,0,179,36h0a23.66,23.66,0,0,0-2.64-.95l.55,0a19.52,19.52,0,0,0,2.74.25.06.06,0,0,0,0-.11,9.11,9.11,0,0,0-1.87-.59h0c.09,0,0-.18-.05-.18a20,20,0,0,1-2.44-.15l-.19-.06A.28.28,0,0,0,175,34c-.79-.45-1.55-1-2.37-1.34a7,7,0,0,0,.92-.09l.07,0a20.21,20.21,0,0,0,3.34-.77c.07,0,0-.13,0-.11l-.17,0s0,0,0,0a13,13,0,0,1-1.62.26,2.11,2.11,0,0,0,.31-.21,5.61,5.61,0,0,0,.58,0,.15.15,0,0,0,.14-.12l.17-.05a0,0,0,0,0,.05,0,1.19,1.19,0,0,0,.46-.06.08.08,0,0,0,0-.15l-.71.05a.19.19,0,0,0-.09-.05l-.29-.08a.27.27,0,0,0-.19-.17h-.13s-.08.06-.2.07h0a9.92,9.92,0,0,0-2.33-.57,17.53,17.53,0,0,0-1.69-.68.09.09,0,0,0-.11,0l-.21-.13a6.67,6.67,0,0,0-.88-.46,8.86,8.86,0,0,0,4.79-.35.06.06,0,0,0,0-.12,14.41,14.41,0,0,1-3.83,0,5.92,5.92,0,0,0,3.37-.49s0,0,0,0c-1,.46-2.14.08-3.14-.08a20.18,20.18,0,0,1-4-1c-2-.78-3.86-2.3-6.13-2.12a.25.25,0,0,0-.26.23l-.22-.07s0-.06,0-.06h-.06l-.15-.11a4.71,4.71,0,0,1-.92-1,4.18,4.18,0,0,0,1.15-.15,1.34,1.34,0,0,0,.39.16,1.36,1.36,0,0,0,.53,0,.37.37,0,0,0,.24.32.37.37,0,0,0,.62-.07h.05c.18,0,.37,0,.56-.07a4.17,4.17,0,0,0,.6-.1h0l.53-.1a.15.15,0,0,0,.19,0h.06c.13,0,.09-.26,0-.27h-.05s0-.09,0-.13a.5.5,0,0,0,.15-.17.87.87,0,0,0,.07-.17.36.36,0,0,0,0,.09.78.78,0,0,0,1.11.34.42.42,0,0,0,.22-.38.49.49,0,0,0,.38-.12.89.89,0,0,0,.26-.45.75.75,0,0,1,.28-.52.41.41,0,0,0,.11.07s0,0,0,0-.05.14-.08.2A.25.25,0,0,0,167,23a1.91,1.91,0,0,0,1-.36.2.2,0,0,0-.18-.34,1.26,1.26,0,0,1-.41.19,2.11,2.11,0,0,0,.19-.23l0,0a.22.22,0,0,0,.33,0l0-.07a.88.88,0,0,0,.27.16.41.41,0,0,0,.51-.23,1.31,1.31,0,0,0-.05-.85,1.17,1.17,0,0,0,.48-.12h.13l.18-.07a.25.25,0,0,0,.13-.21c.21,0,.41.09.62.12h.07a.26.26,0,0,0,.31-.08l0,0v0a.18.18,0,0,0,.3-.2l.07,0a.18.18,0,0,0,.2-.14c0-.22-.09-.3-.26-.39s-.23.08-.15.17v0l-.09,0a.1.1,0,0,0-.07.07.27.27,0,0,0-.17-.14l-.1,0,0,0-.12,0h-.07a6.45,6.45,0,0,1-1-.32c1.2-1.72,9.52-13.64,11.67-17.08a10.73,10.73,0,0,0,.36-1.29c0-.16-.5.29-.5.29l-12.8,17.55,0,0-.4-.15s0,0,0,0a.33.33,0,0,0-.14-.36c-.1-.07-.16,0-.25,0a.28.28,0,0,0-.35-.08,1.92,1.92,0,0,1-.25.12.3.3,0,0,0-.23.11.42.42,0,0,0-.09.84l.17,0a4.56,4.56,0,0,1-.37.85l0,0-.07,0a3.79,3.79,0,0,0,.26-.58c0-.11-.12-.15-.18-.07a3.78,3.78,0,0,1-.38.48.76.76,0,0,0,0-.15.33.33,0,0,0-.62-.11,6,6,0,0,1-.41.69h0a.1.1,0,0,0-.18,0c-.08.11-.15.23-.22.34l-.07.05a.27.27,0,0,0-.31-.24c-.66.08-1.31.2-2,.3a.24.24,0,0,0-.09.45.3.3,0,0,0,0,.1.57.57,0,0,0,0,.13.29.29,0,0,0-.32-.14l-.1,0h0l-.09,0h0a.08.08,0,0,0-.07-.08,9.9,9.9,0,0,0-2.1-.15.26.26,0,0,0,0-.37,2.4,2.4,0,0,0-.86-.55,2.4,2.4,0,0,1,.28,0c.24,0,.31-.32.15-.44a.11.11,0,0,0,0-.13c-1.1-.54-2.49,0-3.63.11a.2.2,0,0,0-.13.07,1.78,1.78,0,0,0-.57.22l-.18.07a2.44,2.44,0,0,1,.51-.36,5.27,5.27,0,0,1,1.66-.47c.61-.08,1.52,0,2-.36,0,0,0,0,0,0h-.06l.19-.07a0,0,0,0,0,0-.09c-.87,0-1.76-.36-2.64-.35,0,0,0-.07,0-.09a.19.19,0,0,0,0-.08c-.35-.68-1.67-.26-2.15,0a3.08,3.08,0,0,0-1.2,1.28l-.06-.07a.23.23,0,0,0-.24,0,1.86,1.86,0,0,0-.19.11h0l.05-.07a.23.23,0,0,0-.13-.3c0-.09-.15-.11-.2,0a.41.41,0,0,0,0,.09,3.31,3.31,0,0,0-1,1.39.14.14,0,0,0-.19.09,1.16,1.16,0,0,0,0,.18.25.25,0,0,0-.24.22c0,.05,0,.1,0,.15l-.16.06-.31-.13a2.82,2.82,0,0,1,.25-.49c.09-.13-.11-.3-.22-.18a4.22,4.22,0,0,0-.27.36,1.28,1.28,0,0,0-.07-.39,1.76,1.76,0,0,0,.74-1.78,3.37,3.37,0,0,0-.23-.79,3.5,3.5,0,0,0-.48-1.09s-.07,0-.06,0a3.08,3.08,0,0,1,.16.38,2.87,2.87,0,0,0-.62-.68h.17a.06.06,0,0,0,0-.11c-1.22-.4-3.08-1-4.37-.46a.44.44,0,0,0-.27.14l0,0,0,.05-.07.06,0-.09c0-.08-.09-.12-.14-.05-.19.29-.38.56-.58.84a1.58,1.58,0,0,0-.37.67c0,.07.05.11.11.11"/><path class="cls-3" d="M59.56,12.49a.13.13,0,0,0,.12,0,2.4,2.4,0,0,1,.11.23.11.11,0,0,1,0,0l-.22-.22a.76.76,0,0,1-.11-.14l.11.08M47.64,52.08c.09-.16.17-.33.24-.49,0,.12,0,.25,0,.37a.3.3,0,0,0,0,.16.63.63,0,0,0-.3,0m.11-3.41c0,.22.09.43.15.65a3,3,0,0,1,0,.52.61.61,0,0,0-.05.12c0-.43,0-.86-.08-1.29m9.79-34.11h0m6.19,1.58,0,0a.88.88,0,0,0-.17-.38.31.31,0,0,0-.44-.08l-.51-.38a.25.25,0,0,0-.25-.35l0,0a10.09,10.09,0,0,0-1.69-1.51c0-.12,0-.23,0-.35a2.88,2.88,0,0,0-.09-.4.34.34,0,0,0-.07-.17h0a.84.84,0,0,0-.18-.28.22.22,0,0,0-.1-.11A.6.6,0,0,0,60,12v0a0,0,0,0,0,0,0A.08.08,0,0,0,60,12l-.07,0h0v0l0,0,.07,0v0h0v0l0,0a.17.17,0,0,0,0-.07.28.28,0,0,0-.2-.37,1.11,1.11,0,0,0-.51.1h0c.09-.28.18-.55.28-.82,0,0,0,0,0,0a.06.06,0,0,0,0,0v0l0-.06h0a.17.17,0,0,0-.07-.2.17.17,0,0,0,.18,0l0,0h0a3,3,0,0,0-.12.32,1.62,1.62,0,0,1-.19.37s0,.1.07.06a2.44,2.44,0,0,0,.39-.75.08.08,0,0,0,0-.09h0v0h0a.14.14,0,0,0,0-.17.13.13,0,0,0-.16-.06.54.54,0,0,0-.22.13.18.18,0,0,0,0,.22l0,.06a.16.16,0,0,0-.23,0,2.77,2.77,0,0,0-.41.9L46.32,2A25,25,0,0,0,44,.53L43.9.43l0,0h0L43.41.08s0,0,0,0l.11.11L43.15,0c0,.78,2.66,2.77,2.66,2.77L58.15,12.87c0,.11-.09.21-.13.32l-.13.37c-.15.23-.28.47-.41.71a.14.14,0,0,0,0,.09l-.06,0a.32.32,0,0,0-.08.12.49.49,0,0,1,0,.07.1.1,0,0,0,.1.16.05.05,0,0,0,0,0s.09,0,.13,0a1.08,1.08,0,0,0,.2-.16.1.1,0,0,0,0-.09l0-.05h0a3.45,3.45,0,0,0,.41-.59,1.11,1.11,0,0,0,.11-.16l.15-.22a1.18,1.18,0,0,0,.15.39,1.24,1.24,0,0,0,.16.19,11.89,11.89,0,0,0-.39,2.3c-.13.29-.24.59-.39.88s-.17.32-.28.49l-.08,0-.19.16,0,0s-.05,0,0,0a.15.15,0,0,0-.1.17l-.13.19a.08.08,0,0,0,0,0,3.24,3.24,0,0,0-.17.32v0s-.07,0-.07,0,0,.23,0,.35a1.76,1.76,0,0,0-.07.4,2.62,2.62,0,0,1-.19.49c-.22-.05-.44.19-.58.32l-.08.08h0a1.64,1.64,0,0,0-.32.37,4,4,0,0,0-.32.4l-.06.09-.08.09a.73.73,0,0,0-.34.12,2.94,2.94,0,0,0,.12-.59c0-.12-.11-.14-.19-.11s0-.09,0-.14A2.7,2.7,0,0,0,55,19a.08.08,0,0,0,0-.07.5.5,0,0,0,0-.12,1.44,1.44,0,0,0-.58-2s0,0,0,0a.15.15,0,0,0,0-.06.16.16,0,0,0,0-.07s0,0,0,0l0-.05-.17-.27a0,0,0,0,0-.08,0,2.36,2.36,0,0,0-.62-.43s-.08,0-.07.08a2.08,2.08,0,0,0-1.15-.13.06.06,0,0,0,0,.12l.42.05a2.9,2.9,0,0,0-2,1.24s0,0,0,0a2.31,2.31,0,0,1,.78-.57,6.27,6.27,0,0,0-.89,1c0,.05,0,.12.08.08l.55-.52c-.18.23-.36.47-.53.72l-.28.17a14.45,14.45,0,0,1-1.54.73c-.62.24-2.11.84-2.45-.1a0,0,0,0,0,0,0c0,1.16,1.76.68,2.38.49a10.25,10.25,0,0,0,1.6-.68,6.68,6.68,0,0,0-1.41,1.63c-.62.56-1.28.94-2,.47h0c.45.56,1.14.37,1.69.07a0,0,0,0,1,0,0c-.19.2-.36.44-.56.64a1,1,0,0,1-1.67-.21h0c.21.51.45,1,1,1a3.28,3.28,0,0,0-.2.31.81.81,0,0,1-.2-.18,2.87,2.87,0,0,1-.47-.88,0,0,0,0,0-.09,0,2.18,2.18,0,0,0,.58,1.22.89.89,0,0,1-.61-.76s-.06,0-.05,0a1.12,1.12,0,0,0,.63,1c-.08.17-.15.35-.22.51s-.05.14-.07.21l-.08-.16A6.66,6.66,0,0,1,46,22.1s-.07,0-.06,0A5.79,5.79,0,0,0,46.43,24a6.19,6.19,0,0,0-.23,1.43.57.57,0,0,0,0,.14s0,0,0,0c0,.21,0,.41,0,.61,0,0,0,0,0,0a8.62,8.62,0,0,1,.11-.87,2,2,0,0,1,.31-.33,5.86,5.86,0,0,0,0,.94s0,0,0,0c0-.36.08-.71.15-1.07a7.57,7.57,0,0,1,1.19-.54l.5-.17a4.07,4.07,0,0,0-.45.88c0,.05.06.08.08,0a9,9,0,0,1,1.21-1.54c.29-.29.61-.55.92-.82,0,.18,0,.35,0,.53-.21.33-.56.5-.8.81,0,0,0,0,0,0a2.47,2.47,0,0,0-1,2.08.09.09,0,0,0,0,.05,2,2,0,0,1-.25.41,1.56,1.56,0,0,0-.43.87.11.11,0,0,0,0,.08l-.25.44a1.21,1.21,0,0,0-.22.77,1.59,1.59,0,0,0-.07.2h-.13a2.18,2.18,0,0,0-.23.09.76.76,0,0,0-.32.17,2.59,2.59,0,0,1-.53-.12,1.25,1.25,0,0,0-.69,0l-.35-.1a1,1,0,0,1-.2-.12,1.14,1.14,0,0,0-.31-1.17.12.12,0,0,0-.2.12,1.49,1.49,0,0,1,.08.41s0,0,0,0a.2.2,0,0,0-.19-.11h0l-.09,0c-.18-.09-.26-.37-.33-.57s0-.36.07-.54,0-.14,0-.2.1-.39,0-.52,0,0-.08,0-.07,0-.07,0a.14.14,0,0,1,0,.06.19.19,0,0,0,0,.08l-.06.12c-.08.22-.13.44-.2.66a2.07,2.07,0,0,0-.09.71l0,0a.69.69,0,0,0-.09.25.83.83,0,0,1-.07-.13l-.11-.2a1,1,0,0,0-.09-.34.17.17,0,0,0-.06-.06.11.11,0,0,1,0-.08c0-.1-.14-.11-.14,0v.12s0,0,0,0a.65.65,0,0,0,0,.63,1.82,1.82,0,0,0,.15.23l-.09-.07s-.15,0-.1.09.17.22.25.34a2.88,2.88,0,0,0-.34-.27c-.1-.06-.22.07-.15.16.38.51.77,1.53,1.51,1.58a.14.14,0,0,0,.09,0l.18.11.08.06a2.32,2.32,0,0,0,.59.34H45l.52.23.87.6a.12.12,0,0,0,.13,0,2.66,2.66,0,0,0,2.12.23.23.23,0,0,0,.15-.31,1.64,1.64,0,0,1,.43-.24.2.2,0,0,0,.1-.24.28.28,0,0,0,.08-.15l.08-.05s0,.06,0,.1a.58.58,0,0,0-.05.14.19.19,0,0,0,.07.23c0,.39,0,.78.05,1.17a.3.3,0,0,0,0,.1v0a.83.83,0,0,0,0,.15s-.08,0-.09,0a9.24,9.24,0,0,1-1.14,1.88,18.12,18.12,0,0,0-1.22,2.2,22.7,22.7,0,0,0-1,2.25c-.15.38-.28.76-.41,1.15s-.17.82-.28,1.22a.09.09,0,0,0-.12.06,1.08,1.08,0,0,0,.45,1.19s0,0,0,.05a16.73,16.73,0,0,0,1,3.59c.47,1.3.35,2.72.78,4a.11.11,0,0,0,0,.08c-.15.25-.29.49-.45.73a.33.33,0,0,0,0,.38,4.22,4.22,0,0,1-.65,1l-.05.07a.34.34,0,0,0,.27.61h0a.31.31,0,0,0,0,.1.37.37,0,0,0,.25.09v0a.14.14,0,0,0,.25.09l.1-.18.36-.14a5,5,0,0,0,.81-.38.23.23,0,0,0,.3,0c.17-.22.32-.44.48-.67a5.26,5.26,0,0,0,.48-.6.27.27,0,0,0-.08-.41.3.3,0,0,0,.16-.17c.24-.54.48-1.1.7-1.66a15.65,15.65,0,0,0,1.5-4c.1-.25.19-.5.28-.75.16-.42.68-1.51.26-1.92l0,0c0-.1,0-.19,0-.28v-.08a1.2,1.2,0,0,0,.05-.38c0-.12,0-.24,0-.35a.08.08,0,0,0,0,0l0-.05a.07.07,0,0,0-.11-.07l0,0a.71.71,0,0,0-.31-.33l0-.15L52,40.51c.12-.36.24-.73.33-1.11l.22-.34a.17.17,0,0,0,.23,0,7.59,7.59,0,0,0,1.61-1.95l.21-.31.21-.24a2.17,2.17,0,0,0,.64-1.35,2.27,2.27,0,0,0,.33-.61,2.86,2.86,0,0,0,.38-.48,5.23,5.23,0,0,0,.56,0,1.83,1.83,0,0,0,.88-.41c.55-.45.92-1.18,1.64-1.39a.29.29,0,0,0,0-.52c-.35-.24-1-.54-1.06-1l0,0c-.06-.28-.2-.57-.26-.83a2.57,2.57,0,0,0-.18-.8,3.13,3.13,0,0,0-.07-.82.22.22,0,0,0-.31-.17c-.44.15-.88.27-1.31.46-.12.05-.52.2-.46.4a.11.11,0,0,0,.06.07l-.09,0a4.81,4.81,0,0,0-.17-.73v-.05l0-.2a.15.15,0,0,0,.1-.09,4.51,4.51,0,0,0,.18-1.83.17.17,0,0,0,0-.14v-.32a13.8,13.8,0,0,0,1-1.88.05.05,0,0,1,0,0,.09.09,0,0,1,0-.05c0-.07,0-.15.07-.23s.26-.26.4-.38.39-.31.56-.49a.37.37,0,0,0,.27-.16h.06a.09.09,0,0,0,.08-.09.36.36,0,0,0-.06-.2.15.15,0,0,0,.2-.16A6.6,6.6,0,0,0,58,20.91s0,0,0,0a9.57,9.57,0,0,0,.45-1c.12-.24.22-.49.32-.74a.15.15,0,0,0,.15-.09,6.19,6.19,0,0,0,.3-1,1,1,0,0,0,.48-1,1.25,1.25,0,0,0-.13-.54l0-.05c.07-.35.12-.7.17-1s.11-.6.16-.89l.9.24c.74.54,1.52,1,2.23,1.57l.05,0a1.34,1.34,0,0,0,.12.24c.15.2.56.19.54-.13l0-.08a.28.28,0,0,0-.05-.28"/><path class="cls-3" d="M92.73,24a1.15,1.15,0,0,0,.14-.17.06.06,0,0,0,.06.06.75.75,0,0,1-.2.11m.19-.3s0-.06,0-.08l0,0v0a.56.56,0,0,0,0,.08M86,21.6l-.13,0h0l.12,0m.1,0-.07,0,.09,0,0,0m-5.48,31h0m.73-16.91h0M69.13,42.53v0h0m-.21,0h0M64.4,49.88v.06l-.06,0-.17-.08.23.05m16.22-14.3h0l0,0h0l0,0m1.11,5.27,0,0h0c0,.07,0,.14,0,.2a2.07,2.07,0,0,0,0-.22M68.87,51.22v.05h0l0-.05m-.14-19h0c0,.06,0,.11,0,.16l-.06-.16m12.85,8,0,.08s0,.09,0,.14,0-.15,0-.22M67.06,48.65h0M76.44,41V41c0,.16.08.31.13.46v.15L76.44,41m17-19.81a1.09,1.09,0,0,0-1.22-.3c-.27.07-.62.27-.63.58v0l-.18.12-.14.05,0-.11v0l.07-.14c.34.1.46-.42.17-.56l-.16-.08a2,2,0,0,1-.39-.24.25.25,0,0,0-.36.06,2.29,2.29,0,0,0-.16.38c-.25.22-.34.58-.55.84l0,.06c-.16.11-.34.2-.52.3l-.41,0a2,2,0,0,0-.55-.15h0c-.13-.3-.77-.35-1-.42s-.57-.12-.86-.16a.63.63,0,0,0-.73,0h-.08a.06.06,0,0,0-.06.08l0,0a.35.35,0,0,0,0-.15,2.09,2.09,0,0,0-.47-.48L68.68,24c0,.36-.55.49-.55.49a3.16,3.16,0,0,1-.23.39.45.45,0,0,0-.1.41c0,.1.39.32.51.59s-.51.39-.51.39l-.1.6a2.81,2.81,0,0,0-.46.56,3,3,0,0,0-.24.65,1,1,0,0,0-.06.62.16.16,0,0,0,.13.11c0,.18,0,.36,0,.54s0,.12,0,.18a1.55,1.55,0,0,0,0,.21h-.2c-.17,0-.23.21-.16.33a1.69,1.69,0,0,1,.17.91c-.25.17-.43.31-.43.66a2.73,2.73,0,0,0,.06.5c0,.18,0,.39.21.49l0,0h0a.19.19,0,0,0,.23-.07h0l.26-.14.08,0a.85.85,0,0,0,.22.2,3,3,0,0,1,.31,1.57c0,.61,0,1.23,0,1.84s0,1.15.08,1.72a.24.24,0,0,0-.07.12c0,.41,0,.83,0,1.24s-.06.77-.07,1.16a12.17,12.17,0,0,0,.22,2.25.12.12,0,0,0,.17.08.23.23,0,0,0,.23.1,3.92,3.92,0,0,0,.59.15c.17,0,.34.11.52.15a6.47,6.47,0,0,0,.47,1.61c-.76.45-1.59.82-2.36,1.2s-1.81.68-2.25,1.4h0a.89.89,0,0,0-.68.08,2.55,2.55,0,0,0-.71,1,3,3,0,0,0-.33.27,1,1,0,0,0-.39.51.17.17,0,0,0-.2.23c0-.1,0-.12,0,0s.06.28.18.26a2.69,2.69,0,0,0,.76.58l.75.39.24.12a.12.12,0,0,0,.19.06l0,0h0a.16.16,0,0,0,.13-.12l.25-.22a3,3,0,0,1,.65.59l.32.39a5.47,5.47,0,0,0,.51.57l.14.2a1.5,1.5,0,0,0,.47.56.18.18,0,0,0,.16,0,11.48,11.48,0,0,0,1.44-.1,4,4,0,0,0,.83-.21,3.51,3.51,0,0,0,.58-.14h0a.1.1,0,0,0,.16,0,.44.44,0,0,0,0-.1.17.17,0,0,0,0-.14.66.66,0,0,0-.3-.35,2,2,0,0,0-.33-.16,1,1,0,0,0-.24-.08,1.67,1.67,0,0,0-.28-.18l-.15,0c.06-.29.08-.61-.14-.78l0,0q-.15-.3-.33-.6a5.79,5.79,0,0,1-.29-.68h.07l.48.07c.25,0,.52.17.77,0l0,0c.08.06.18,0,.18-.11a1.2,1.2,0,0,1,.15-.45.36.36,0,0,0,0-.09l.42-.49c.22-.1.45-.19.67-.27l1.41-.58c.54-.24,1-.57,1.58-.84A10.39,10.39,0,0,0,76,45.57a1.06,1.06,0,0,0,.59-.18l0,0,.23.21a1.68,1.68,0,0,0,.69.85h0a5.45,5.45,0,0,1,.29.53c.08.23.17.45.26.67a9.54,9.54,0,0,1,.58,1.86,7.08,7.08,0,0,0,.43,1.64.33.33,0,0,0,.12.14,3,3,0,0,0,.3,1.6c.18.32.62.09.64-.21a.44.44,0,0,0,.71-.07h0a.42.42,0,0,0,.71.1,4.92,4.92,0,0,0,.24-.45l.1-.06a9.11,9.11,0,0,0,1.7-1.19c.25-.21,0-.58-.31-.52a3.27,3.27,0,0,0-1.1.47V51c0-.07.05-.13.07-.2s.11-.25.17-.37c.22,0,.4-.24.49-.42a1.19,1.19,0,0,0,.1-.28.32.32,0,0,0,.15-.21.37.37,0,0,0,0-.5.56.56,0,0,0,0-.08.2.2,0,0,0-.06-.07.13.13,0,0,0,0-.05L83,48.51a4.87,4.87,0,0,0,0-1.7c-.07-.78-.21-1.55-.34-2.32l-.27-1.77c0-.34-.11-.68-.17-1l0-.2A14.66,14.66,0,0,0,82,40a5.62,5.62,0,0,0,0-1.3l0,0,.07-.1.14-.25a1.51,1.51,0,0,0,.11-.22.25.25,0,0,0,0-.09,3.22,3.22,0,0,0-.93-2.76.08.08,0,0,0-.1,0,5.86,5.86,0,0,0-.55-.3h0a.31.31,0,0,0,.09-.51,4.08,4.08,0,0,0-1-.58,1.54,1.54,0,0,0-.45-.79,1,1,0,0,0-.54-.32,3.74,3.74,0,0,0-.27-.31,5.2,5.2,0,0,0-.48-1c0-.17,0-.34,0-.51a.14.14,0,0,0,0-.1l.06-.27,0-.09a.83.83,0,0,0,0-.15l.13,0a.13.13,0,0,0,.2-.07,1.64,1.64,0,0,0,0-.63.18.18,0,0,0,.07-.15c0-.5,0-1,0-1.54,0,0,.06,0,.06,0s0,0,.11-.29,0-.19,0-.44.31-.38.15-1,.13-.35.09-.61a.4.4,0,0,1,.08-.37,1,1,0,0,0,.13-.51c0-.38.23-.39.23-.39s0,.3.35.13.62-1.05.62-1.05l.14-.31.6-.4.08.29a4.28,4.28,0,0,0,.54.86.85.85,0,0,0,.15.3,1.53,1.53,0,0,0,.13.16,1.94,1.94,0,0,0,.21.34c.28.34.82.75,1.27.57a.62.62,0,0,0,0,.13.11.11,0,0,0,.13.06,1.57,1.57,0,0,1,.44-.1,2.92,2.92,0,0,1,.65.15,1.8,1.8,0,0,0,.89.18.14.14,0,0,0,.21-.06c.08-.2.15-.38.36-.45a5.44,5.44,0,0,0,.54-.15.13.13,0,0,0,.08-.1c.37-.08.73-.14,1.1-.2a6.49,6.49,0,0,0,1.87-.32.1.1,0,0,0,.06-.05H90c.11,0,.22,0,.33,0a.75.75,0,0,0,.51,0c.14,0,.22,0,.36.06h.06a1.25,1.25,0,0,0,.7.06,2.71,2.71,0,0,0,.55-.12,4.2,4.2,0,0,0,.72-.17.19.19,0,0,0,.1-.28c-.06-.11,0-.32,0-.46a.59.59,0,0,1,.12-.2c.07-.12,0-.29,0-.41a.4.4,0,0,0-.15-.24l0,0,0-.05.1-.19h0a.17.17,0,0,0-.07-.14c0-.1-.06-.2-.08-.3a.37.37,0,0,0,.18-.54m-32.32-1.8a1.29,1.29,0,0,0-.17.15,1.8,1.8,0,0,0,.05-.19l.12,0m8.55-5.63v0h0l-.1.07a2.14,2.14,0,0,0,.13-.19.06.06,0,0,0,0,0l0,0M79.34,6h0l0,0h0M81,5.91a2.06,2.06,0,0,0-.65-.11l0,0a1.76,1.76,0,0,1,.7.15m2.54,12.73,0-.06s0,.07,0,.11ZM58.76,25.37h0l0,0,0,0m-.5-1.13v0l0,0,0,0m2.28-3.62-.21.39.2-.41v0m16-8.11a.5.5,0,0,0,0-.12l.08.12h-.06m6.73-1.59h0a.17.17,0,0,1,0,.07v-.06m-.35,3.16a.88.88,0,0,0,0-.15,1.69,1.69,0,0,1,0,.23l0-.08m-1.57-1,0,0h0v0m.75-1.88h0v-.06l0,0,0,0m-.18-.3s0,0,0,0l0,0h0m1.28,0v0h0M82.82,16a1.21,1.21,0,0,1,0-.14l.12.16-.07,0M66.57,20.51a.1.1,0,0,0,0,0l0,0,.09,0m-.62.18H66a.19.19,0,0,0-.09,0l0,0m9-8.61a.19.19,0,0,1,0-.07l0-.06a.52.52,0,0,1,.1.11l-.06,0m5.42,3.24,0,0h.12l-.1,0m2,.07h0s0,0,0,0M62.53,22.65h0a.48.48,0,0,0,.12,0,1,1,0,0,0-.17.1.47.47,0,0,0,.05-.1M60.5,24l-.13,0,0,0,0,0a.25.25,0,0,0,.14,0m10-11h.13l0,0,0,0a.31.31,0,0,0-.13.08l-.19.16a1.27,1.27,0,0,0,.24-.28m-1.37,1.23h0l-.05,0h0l0,0M59,27.2h0m-.72-1.3a1.71,1.71,0,0,0,.53.32.09.09,0,0,0,.11,0c.06.06.12.11.18.07.28-.2,0-.57-.18-.75.18.17.36.34.55.49s.14,0,.12-.07,0,0,0-.05l.07,0a3.69,3.69,0,0,0-.5.78h0a.24.24,0,0,0-.18.17s0,0,0,.06a.3.3,0,0,0-.07.23.29.29,0,0,0,.18.21l.14,0h.1s0,0,.06,0,.14-.05.15-.12h0a.36.36,0,0,0,.08-.09.21.21,0,0,0,0-.27.21.21,0,0,0,0-.06l0,0a2.25,2.25,0,0,0,.26-.22c.25-.27.5-.52.76-.78l.42-.43a.42.42,0,0,0,.41-.13s0,0,0,0l-.14-.1.11-.11,23-4.3a34.63,34.63,0,0,0,3.51-1,27,27,0,0,0-4,.16L62.53,23.8c.27-.27.54-.55.8-.83a2.28,2.28,0,0,0,.29-.33.29.29,0,0,0-.32-.42l0-.08a.44.44,0,0,1,.44-.08,2.29,2.29,0,0,1,.23.1l-.12.08c-.13.1,0,.29.12.3a2,2,0,0,0,.48-.06c.18,0,.35,0,.51-.11a.24.24,0,0,0,.06-.11,1.38,1.38,0,0,0,.13-.28c.08-.18.18-.35.28-.53l0-.09a.46.46,0,0,0,.19.08c.17,0,.25-.12.22-.26A.29.29,0,0,1,66,21a1,1,0,0,1,.24-.2l.17.12a.17.17,0,0,0,.22,0,5.76,5.76,0,0,1,.72-.56l.28-.09.11,0,.75-.24a12.29,12.29,0,0,1,.21,2.35l15.52-2.79-.07-.1c.06-.23-.12-.56-.18-.79a2.45,2.45,0,0,1-.07-1.23.2.2,0,0,0,.08-.12,2.53,2.53,0,0,0-.64-1.6,3.7,3.7,0,0,0-1.33-1.22.1.1,0,0,0-.15.1,1.65,1.65,0,0,0-.53.16,1.47,1.47,0,0,1-.62.05c-.25-.07-.49-.2-.74-.25a.61.61,0,0,0-.23,0l-.09-.22c0-.51,0-1,0-1.54a4.53,4.53,0,0,1,.41-1.75.07.07,0,0,0,.07-.09c-.07-.67-.41-1.27-.19-2a1.2,1.2,0,0,1,1.33-.73,1.49,1.49,0,0,1,.85.44,3.48,3.48,0,0,0,.4.9l0,0a.1.1,0,0,0,0,.14,0,0,0,0,1,0,0,3.1,3.1,0,0,0,.36.53l0,.06a1.55,1.55,0,0,0,0,.21,6.15,6.15,0,0,0-.85-.71c.26-.34,0-.88-.22-1.17a.9.9,0,0,0-1-.25c-1,.45-.65,1.84,0,2.46a0,0,0,0,1,0,0c-.47.1-.8.73-.92,1.14a1.73,1.73,0,0,0,0,1.23,2,2,0,0,0,.09.33h0a.11.11,0,0,0,0,.07v0a.24.24,0,0,0,.09.22,1.91,1.91,0,0,0,2.31-.1,4.83,4.83,0,0,0,.43.58.12.12,0,0,0,.11,0l0,0a.13.13,0,0,0,0-.12,18,18,0,0,0,.49-2.94,8.86,8.86,0,0,0,.11-2.86.08.08,0,0,0,0-.08,4.14,4.14,0,0,0-1.36-2.19,1.94,1.94,0,0,0-2.13-.63,1.64,1.64,0,0,0-.38,0,1.58,1.58,0,0,0-.73.24s0,.08,0,.09h0c-.8,0-1.39,1.19-1.56,1.83a6.56,6.56,0,0,0-.15,3,3.06,3.06,0,0,0-.3.32c-.09.1-.18.21-.28.31l-.06.06,0,0a.08.08,0,0,0-.09.1l0,0,0,0a.11.11,0,0,0,.08.17h0a1.19,1.19,0,0,1,.08.2.19.19,0,0,0,.34,0h.16a2.63,2.63,0,0,1,1.26,1.14c.26.36.51.72.75,1.09a.16.16,0,0,0,0,.11c-.5-.83-1.66-2.61-2.31-1.92a4.67,4.67,0,0,1-.54-.72c-.07-.1-.26-.06-.26.06a1.84,1.84,0,0,0,0,.53l-.21-.1a3.59,3.59,0,0,0-.9-1,.48.48,0,0,0-.68.09,1.38,1.38,0,0,0-.18,1,4.73,4.73,0,0,0-1.45-.07,4.62,4.62,0,0,0-2.3.63.14.14,0,0,0-.12,0c-.25.08-.4.38-.52.66l0-.06a.09.09,0,0,0-.14,0,5.17,5.17,0,0,0-.39.68.36.36,0,0,1,0-.11c0-.06-.1-.11-.15-.06a1.83,1.83,0,0,0-.31.5,3,3,0,0,1-.2.29.41.41,0,0,1,0-.11c0-.18-.23-.18-.3-.06-.24.36-.5.7-.77,1a1,1,0,0,0-.13-.56.1.1,0,0,0,0-.05h0a.06.06,0,0,0-.1,0c-.28.12-.48.49-.7.7a10.07,10.07,0,0,1-1.22.93c-.55.38-1.11.74-1.64,1.15a2.33,2.33,0,0,0-.52.47c-.09.13,0,.44,0,.63l-.07.06-.44.36a1.9,1.9,0,0,0-.35.4l-.1,0-.41-.23a1.88,1.88,0,0,0-.73-.26h0s0,0,0,0h0a.14.14,0,0,0-.12.18c-.37.58-.66,1.27-1,1.87a9.17,9.17,0,0,0-.89,2.18A4.68,4.68,0,0,1,58,24a.16.16,0,0,0-.1.17,6.15,6.15,0,0,1-.06.74c-.12.09-.14.24,0,.41a.53.53,0,0,1-.06.1.13.13,0,0,0,0,.16,2.61,2.61,0,0,0,.47.35"/><polygon class="cls-2" points="21.85 44.76 21.85 82.26 57.35 77.62 57.35 40.12 21.85 44.76"/><polygon class="cls-4" points="21.85 44.76 21.85 82.26 57.35 77.62 57.35 40.12 21.85 44.76"/><path class="cls-5" d="M22.63,47.27l34.72-4.42M22.63,79.48l34.72-4.93"/><polygon class="cls-6" points="57.35 40.12 33.13 36.54 33.13 74.04 57.35 77.62 57.35 40.12"/><polygon class="cls-4" points="57.35 40.12 33.13 36.54 33.13 74.04 57.35 77.62 57.35 40.12"/><path class="cls-2" d="M252.17,74c-61.75,11.25-157.29-11.25-219,0V36.54c61.75-11.25,157.29,11.25,219,0Z"/><path class="cls-5" d="M252.17,39.46s-19.87,8-114-.29c-66.51-5.89-99.72-.73-104.85.17M253.05,70.42s-20.5,8.66-114.67.33c-66.51-5.89-99.72-.73-104.85.17"/><path class="cls-4" d="M252.17,74c-61.75,11.25-157.29-11.25-219,0V36.54c61.75-11.25,157.29,11.25,219,0Z"/><path class="cls-3" d="M110.91,13.56a4.15,4.15,0,0,1,1.18-3.48,4.87,4.87,0,0,1,4-1.42A4.2,4.2,0,0,1,120.42,13a6.43,6.43,0,0,1-1.26,3.42.8.8,0,0,0-.13-.13l-.48-.45a9.21,9.21,0,0,1-1.39-1.47c.8-1.45.35-3.51-1.34-3.51a1.86,1.86,0,0,0-1.74,2.1,4.85,4.85,0,0,0-.34,2.13,2.59,2.59,0,0,1-1.08-1.1L112,12.47,111.55,14a2.71,2.71,0,0,0-.08,1.17h0a3.34,3.34,0,0,1-.55-1.61M109,18.9c.83-.83,2.53-1.35,2.65-1.8s-.77-1.21-1.1-1.35a5.06,5.06,0,0,1,1.82.18,2.14,2.14,0,0,1-.24-1.75c.66,1.59,3,1.84,3.6,3.15a2.55,2.55,0,0,0-1.24-1.57,3.77,3.77,0,0,1,.32-2.89c-.14,2.29,3.12,3.59,3.8,5.25-.4-1.42-1.92-2.32-2.64-3.17a2.33,2.33,0,0,1,.2-1.85c-.07,1.53,1.58,2.72,2.46,3.58a3,3,0,0,1,1.2,2.62.62.62,0,0,1,.48.66,1.31,1.31,0,0,0,.76-.69A2.75,2.75,0,0,1,119.8,22a1,1,0,0,0-.14-.95c-.33-.41-1.29-.42-1.61-.39,0,0,.39-.59.24-.89s-2.07-.2-2.9.1a3.57,3.57,0,0,1,1.19.14c-.13.2-.47,1-.23,1.27s.53-.17.53-.17-.29.9-.08,1.11.65.06.65.06a2.47,2.47,0,0,1-2.12,1.19,1.57,1.57,0,0,0,.78-.86,2,2,0,0,1-.91.12,1.41,1.41,0,0,0,.58-1.44c-.22-1-1.67-1.17-2.4-.67A2.86,2.86,0,0,1,114.87,19a6.3,6.3,0,0,0-1.1-.28,4.21,4.21,0,0,1,2.22-.66,3.76,3.76,0,0,0-3.32,1,5.31,5.31,0,0,1,1.1.2,6.7,6.7,0,0,0-2.86,1.61,3.17,3.17,0,0,0,.13-1.47c-.2-.51-.82-.73-2.05-.47m9.4.11a1.85,1.85,0,0,0-1.09-1.11c.17.58.39,1.11,1.09,1.11m12.77,8.08a3,3,0,0,0-3.48-2.81A1.6,1.6,0,0,1,129,25.74c0,1.31-1.64,1.72-2.54,1.51a2.1,2.1,0,0,0-.33-3.27,1.15,1.15,0,0,1-1.92,1.21c-.63-.52-2.1-1.75-2.75-2.27s-1.42-.22-1.73-.45-.12-1-.59-1.27-.78-.1-1.24-.25a.86.86,0,0,1-.67-.9,1.13,1.13,0,0,0,.12,1.22c.32.36.84.58,1,1s-.19,1.23,1.06,2.21c.59.46,1.51,1.23,2.11,1.75,1,.89.47,2,.6,3a2.35,2.35,0,0,0,1.67,1.91,1.75,1.75,0,0,1,0-2.39,3.16,3.16,0,0,0,2.27,2.83,3.82,3.82,0,0,0,3.77-1.15,2.65,2.65,0,0,1-2.33-.49,3.06,3.06,0,0,0,3.65-2.79m-10-.43c-.51-.46-1.28-1.1-1.87-1.56-.66,1.13-2.06,2.6-3.49,2.6-2.62,0-3.94-3.71-1-6.75a1.2,1.2,0,0,0-.39-.06,1.14,1.14,0,0,0-.66.18l-1.16.8.26-1.48.09-.23a6.51,6.51,0,0,0-1.57,1.08l-1.14,1.24.13-1.75c0-.13,0-.27.07-.39a2.14,2.14,0,0,0,.09-.76.22.22,0,0,0-.08-.09,5.63,5.63,0,0,0-2.21,3.67,1.65,1.65,0,0,1,.54-.5c.17-.06.31,0,.15.5-.06.19-1.49,4.07,1.33,6.76,0,0-.31-.79-.12-1s.21-.13.37.08.25.32.38.47h0a5.17,5.17,0,0,0,4.07,1.8c3.49,0,5.34-2.41,6.37-4.43l-.16-.15m6-8.43c-2.6.13-4.84,2.34-6,3.9a2,2,0,0,1,.62.33l1,.8a13.9,13.9,0,0,1,2.08-3.3,2.78,2.78,0,0,1,3.55-.54,5.16,5.16,0,0,1,3.58-.71,5.11,5.11,0,0,0-3.46-1.6c-1.22,0-1.92.6-2.09.33s.83-.86.83-.86c-1.45.06-2.5,1.76-2.94,1.55-.26-.13.39-.95.39-.95A6.34,6.34,0,0,0,122,20.57a6.55,6.55,0,0,1,5.11-2.34m.44,6.63a1,1,0,0,1,.78.88.78.78,0,0,1-.42.69,1.62,1.62,0,0,1-.42.19,2.65,2.65,0,0,0,.12-.9c0-.55-.06-.86-.06-.86"/><path class="cls-3" d="M101.86,24.68h-2v-9h2c2.58,0,4,1.65,4,4.52s-1.47,4.48-4,4.48m27.59-8v-.48a5.9,5.9,0,0,0-.95.37,4.33,4.33,0,0,1,.95.11M108,24.5l-.55.76.2-2.15a5.83,5.83,0,0,1,2-3.71c-.15,0-.32,0-.5.08l-1.93.39,1.39-1.39a7.3,7.3,0,0,1,1.73-1.14l.21-.12a8.27,8.27,0,0,0-4-4.72,9.57,9.57,0,0,0-4.3-1.05H98.68a25.63,25.63,0,0,1-5.07-.26A5.6,5.6,0,0,1,92,10.5l-.22-.14,0,.25a5.5,5.5,0,0,0,2.46,3.61c.43.31.74.62.74,1.73V26c0,1.08-.22,1.38-.72,1.68l-1.66,1-.39.23h9.14a9.55,9.55,0,0,0,5.9-1.59,6.9,6.9,0,0,0,.68-.53,7.78,7.78,0,0,1,0-2.31m17.5.24a.61.61,0,0,0,.06-.56L125,22.63l1.42.85a2.4,2.4,0,0,1,.37.28l.86-.06a4,4,0,0,1,1.83.24V19.53a2.37,2.37,0,0,0-.68.33l-.36.33-.39-.3a1.75,1.75,0,0,0-1-.3,2.3,2.3,0,0,0-1.72.76c-.25.29-.48.6-.7.9v3.5c.35.27.71.26.9,0M136,12.5a9.57,9.57,0,0,0-4.3-1.05h-3.52a25.51,25.51,0,0,1-5.06-.26,5.91,5.91,0,0,1-1.59-.68l-.21-.14,0,.25a5.51,5.51,0,0,0,2.45,3.61c.44.31.74.62.74,1.73v.73a9.25,9.25,0,0,1,1.61-.78,5,5,0,0,0-.65.7,4.33,4.33,0,0,1,1.68-.61,6.15,6.15,0,0,1,2.24,0v-.28h2c2.58,0,4.05,1.65,4.05,4.52s-1.47,4.48-4.05,4.48h-.77a3.26,3.26,0,0,1,1.11,2.41,3.21,3.21,0,0,1-.6,1.84,9.47,9.47,0,0,0,5.7-1.59,8.3,8.3,0,0,0,1.87-1.71,8.89,8.89,0,0,0,1.82-5.48A8.45,8.45,0,0,0,136,12.5"/></g></g></svg>