<svg xmlns="http://www.w3.org/2000/svg" viewBox="0 0 174.16 37.12"><defs><style>.cls-1{fill:#fff;}.cls-2{fill:#dcddde;}.cls-3{fill:#231f20;}</style></defs><title>Cantrip</title><g id="Layer_2" data-name="Layer 2"><g id="Layer_1-2" data-name="Layer 1"><polygon class="cls-1" points="168.65 31.63 173.48 25.8 173.48 11.32 168.65 5.49 10.46 5.49 10.46 31.63 168.65 31.63"/><polygon class="cls-1" points="3 30.54 3 6.58 5.7 4.04 15.92 12.9 15.92 24.22 5.7 33.08 3 30.54"/><path class="cls-2" d="M5.66,2,1.5,5.93V31.19L5.66,35.1,17.42,24.9V12.22Zm.08,4,8.68,7.53v9.94L5.74,31.06,4.5,29.89V7.23Z"/><path class="cls-3" d="M172.79,25.52l-5.43,5.42h-5.22a17.58,17.58,0,0,0,10.65-8.72Zm0-5.16a16.09,16.09,0,0,1-6.72,8v0H30.65A8.81,8.81,0,0,1,26.29,25l2.52-3.17V15.34l-2.52-3.18a8.81,8.81,0,0,1,4.36-3.34H166a16.14,16.14,0,0,1,6.82,8Zm0-5.36a17.69,17.69,0,0,0-11-8.82h5.54l5.43,5.43ZM158.43,6.18a21.2,21.2,0,0,1,6.46,2H23.16l-1.63-2Zm-138.65,0L25.16,13a10.68,10.68,0,0,0-.5,1.13l-6.49-7.9ZM24.66,23a10,10,0,0,0,.5,1.14l-5.38,6.77H18.17Zm1.26,2.39A9.84,9.84,0,0,0,29.2,28.3H23.64ZM23.63,8.82h5.56a9.92,9.92,0,0,0-3.27,2.88Zm3.81,7v5.49l-1.88,2.36a11.14,11.14,0,0,1-1-4,1.18,1.18,0,0,0,0-2.26,11.14,11.14,0,0,1,1-4Zm-5.9,15.12,1.62-2H165.08a21.21,21.21,0,0,1-6.05,2Zm152.62-4.85V11L167.93,4.8H8.87l1.58,1.38h7l7,8.57A12.13,12.13,0,0,0,24,17.41a1.17,1.17,0,0,0,0,2.3,12.24,12.24,0,0,0,.48,2.66l-7,8.57H10.45L8.86,32.32H167.93Z"/><path class="cls-3" d="M5.62,0l-1,.93L.47,4.84,0,5.29V31.83l.47.45,4.16,3.91,1,.93,1-.89L18.4,26l.52-.45v-14l-.52-.45L6.64.89Zm0,2,11.76,10.2V24.9L5.66,35.1,1.5,31.18V5.93Z"/></g></g></svg>