<svg xmlns="http://www.w3.org/2000/svg" viewBox="0 0 319.34 79.51"><defs><style>.cls-1{fill:#fff;}.cls-2,.cls-3{fill:none;stroke:#231f20;stroke-miterlimit:10;}.cls-2{stroke-width:1.25px;}.cls-3{stroke-width:0.75px;}</style></defs><title>Asset 2</title><g id="Layer_2" data-name="Layer 2"><g id="Layer_1-2" data-name="Layer 1"><path class="cls-1" d="M.63,3.13V76.39a11.66,11.66,0,0,1,2.09-3.57V6.69A11.5,11.5,0,0,1,.63,3.13"/><path class="cls-1" d="M318.72,3.13V76.39a11.78,11.78,0,0,0-2.1-3.57V6.69a11.61,11.61,0,0,0,2.1-3.56"/><rect class="cls-1" x="2.72" y="9.44" width="313.89" height="60.64"/><rect class="cls-2" x="2.72" y="9.44" width="313.89" height="60.64"/><path class="cls-2" d="M.63,3.13V76.39a11.66,11.66,0,0,1,2.09-3.57V6.69A11.5,11.5,0,0,1,.63,3.13Z"/><path class="cls-2" d="M2.72,62.19s1.07,10.33,8.4,10.33h22s7.17-2.44,20.5-2.44M2.72,17.32S3.79,7,11.12,7h22s7.17,2.45,20.5,2.45"/><path class="cls-2" d="M318.72,3.13V76.39a11.78,11.78,0,0,0-2.1-3.57V6.69A11.61,11.61,0,0,0,318.72,3.13Z"/><path class="cls-2" d="M316.62,62.19s-1.07,10.33-8.4,10.33h-22s-7.17-2.44-20.5-2.44m50.9-52.76S315.55,7,308.22,7h-22s-7.17,2.45-20.5,2.45"/><path class="cls-3" d="M24.62,70.08a103.81,103.81,0,0,1,17.21-1.92H277.51a103.81,103.81,0,0,1,17.21,1.92m0-60.64a104.88,104.88,0,0,1-17.21,1.92H41.83A104.88,104.88,0,0,1,24.62,9.44"/></g></g></svg>