<svg xmlns="http://www.w3.org/2000/svg" viewBox="0 0 587.44 98.96"><defs><style>.cls-1{fill:#dcddde;}.cls-2{fill:#231f20;}.cls-3{fill:#fff;}.cls-4,.cls-5{fill:none;stroke:#231f20;stroke-miterlimit:10;}.cls-4{stroke-width:1.38px;}.cls-5{stroke-width:0.75px;}.cls-6{fill:#bfc0c3;}</style></defs><title>Asset 1</title><g id="Layer_2" data-name="Layer 2"><g id="Layer_1-2" data-name="Layer 1"><polygon class="cls-1" points="337.78 31.52 360.06 29.85 332.58 27.8 374.63 24.65 337.19 21.85 389.06 17.97 300.72 11.37 324.46 9.59 281.12 6.35 242.62 9.23 225.3 6.98 267.79 3.8 233.74 1.25 210.01 3.03 182.46 0.97 156.71 2.9 182.87 4.85 154.04 7.01 125.22 4.85 141.93 3.6 121.97 2.11 58.15 6.88 80.77 8.57 9.05 13.93 51.29 17.09 29 18.76 56.48 20.81 14.43 23.95 51.88 26.75 0 30.63 71.29 35.97 38.65 38.41 73.11 40.98 82.02 40.32 107.94 42.26 146.44 39.38 163.74 41.63 118.87 44.98 180.47 49.59 193.94 48.58 169.69 46.77 204.32 44.18 228.58 45.99 244.47 44.8 267.09 46.49 330.91 41.73 308.3 40.03 380.01 34.67 337.78 31.52"/><polygon class="cls-1" points="223.49 48.51 246.74 50.25 270 48.51 246.74 46.77 223.49 48.51"/><polygon class="cls-1" points="84.29 41.99 107.54 43.73 84.29 45.47 61.03 43.73 84.29 41.99"/><polygon class="cls-1" points="388.92 83.74 407.02 82.39 384.7 80.72 418.86 78.17 388.44 75.89 430.58 72.74 358.82 67.38 378.1 65.94 342.9 63.3 311.62 65.64 297.56 63.81 332.07 61.23 304.41 59.16 285.13 60.6 262.76 58.93 241.84 60.49 263.09 62.09 239.68 63.84 216.26 62.09 229.83 61.07 213.62 59.86 161.78 63.73 180.15 65.11 121.9 69.46 156.2 72.03 138.1 73.38 160.42 75.05 126.27 77.6 156.68 79.88 114.54 83.03 172.46 87.36 145.94 89.34 173.93 91.43 181.17 90.89 202.22 92.47 233.5 90.13 247.55 91.96 211.1 94.68 261.14 98.42 272.08 97.61 252.38 96.13 280.51 94.03 300.22 95.5 313.13 94.54 331.5 95.91 383.34 92.04 364.98 90.66 423.23 86.31 388.92 83.74"/><polygon class="cls-1" points="296.08 97.55 314.97 98.96 333.86 97.55 314.97 96.13 296.08 97.55"/><polygon class="cls-1" points="183.01 92.25 201.9 93.66 183.01 95.08 164.12 93.66 183.01 92.25"/><polygon class="cls-1" points="553.09 37.74 568.02 36.62 549.61 35.25 577.78 33.14 552.69 31.27 587.44 28.67 528.26 24.24 544.16 23.05 515.13 20.88 489.33 22.81 477.73 21.3 506.2 19.17 483.38 17.47 467.49 18.66 449.03 17.27 431.78 18.57 449.31 19.88 430 21.32 410.69 19.88 421.88 19.04 408.51 18.04 365.75 21.24 380.9 22.37 332.86 25.96 361.15 28.08 346.22 29.19 364.63 30.57 336.46 32.67 361.55 34.55 326.79 37.15 374.56 40.72 352.69 42.36 375.77 44.08 381.74 43.64 399.11 44.94 424.9 43.01 436.49 44.51 406.43 46.76 447.7 49.85 456.72 49.17 440.48 47.96 463.67 46.22 479.93 47.44 490.57 46.64 505.73 47.78 548.49 44.58 533.34 43.45 581.38 39.86 553.09 37.74"/><polygon class="cls-1" points="476.52 49.12 492.1 50.29 507.68 49.12 492.1 47.96 476.52 49.12"/><polygon class="cls-1" points="383.26 44.76 398.84 45.92 383.26 47.09 367.68 45.92 383.26 44.76"/><path class="cls-2" d="M78.5,5a22.83,22.83,0,0,0,.22,6.34,50.35,50.35,0,0,0-4.29-2.77,10,10,0,0,1-3.16-3.65c-.48-.85-.76-1.48-.76-1.48a6.6,6.6,0,0,0-1.1,7.27,14.23,14.23,0,0,0-7.88.19c9.18,6,4.3,6.5-1,9s-5.68,5.63-5.68,5.63c6.33-2.08,8.85.58,8.85.58-3.41,3.26-.37,8.35-.37,8.35,3.31,6.34,11.51,9,18.85,10.15a70.1,70.1,0,0,0,13.7.67l-16.72,5.2-15,3.79S49.23,52.65,43.75,40s4.09-22.57,3.13-23.22-2.07.76-2.19.91c4.16-11.91,16.69-11.78,17.19-13s-2.47-1.35-2.47-1.35C72.08-.84,78.5,5,78.5,5"/><polygon class="cls-3" points="21.85 45.73 21.85 83.23 57.35 78.59 57.35 41.09 21.85 45.73"/><polygon class="cls-4" points="21.85 45.73 21.85 83.23 57.35 78.59 57.35 41.09 21.85 45.73"/><path class="cls-5" d="M22.63,48.24l34.72-4.42M22.63,80.45l34.72-4.93"/><polygon class="cls-6" points="57.35 41.09 33.13 37.51 33.13 75.01 57.35 78.59 57.35 41.09"/><polygon class="cls-4" points="57.35 41.09 33.13 37.51 33.13 75.01 57.35 78.59 57.35 41.09"/><path class="cls-3" d="M252.17,75c-61.75,11.25-157.29-11.25-219,0V37.51c61.75-11.25,157.29,11.25,219,0Z"/><path class="cls-4" d="M252.17,75c-61.75,11.25-157.29-11.25-219,0V37.51c61.75-11.25,157.29,11.25,219,0Z"/><path class="cls-5" d="M252.17,40.43s-19.87,8-114-.29c-66.51-5.89-99.72-.73-104.85.17M253.05,71.39s-20.5,8.66-114.67.33c-66.51-5.89-99.72-.73-104.85.17"/><path class="cls-2" d="M247.47,80c-.64-3.47-3.09-9.12-7.83-12.11-3.92-2.46-7.34-1.92-7.35-3.15,0-1.55,4.36-1.07,4.36-1.07-4.74-2.71-11.53.61-12.5-.94-.57-.94,3.16-2.24,3.16-2.24-5.77-.21-12.59,2.76-15.32,5.46,6.89-2.31,16.59-1,21,2.83a20.56,20.56,0,0,0-6-2.19c-7.82-1.57-16.52.76-21.76,2.94a51.1,51.1,0,0,0-10.43,5c-3.9,2.27-11.11,4.38-16,2.31h0s7.65,12.75,17.06,8.32c.69-.39,1.35-.78,2-1.17a64.25,64.25,0,0,0,10.31-7.43,52.33,52.33,0,0,1,14-6.88,10.44,10.44,0,0,1,4.42-.33c3.72.51,7,2.89,8,5.74,2.87-.5,10.14,1.9,12.88,4.94"/><path class="cls-2" d="M84.53,34.28c-.79-4.26-6.67-5-9.7-3a11.7,11.7,0,0,1,6.28-6.19,31.28,31.28,0,0,0-4.48-1.29c1.94-1.48,6.71-2.6,9.13-2.39a9.61,9.61,0,0,0-1.44-.3l.46-2.77c-.27-2.32-2.37-5-4.87-6.58-1.24-3.55,0-10,1.68-11.73C80.73,9.29,93.85,15,96.4,21.88,95,16,88.89,12.17,86.05,8.61a9.44,9.44,0,0,1,1.06-7.52C86.61,7.32,93.19,12.4,96.68,16c4.12,4.23,5.21,7.9,4.54,10.85a2.52,2.52,0,0,1,1.91,2.74,5.16,5.16,0,0,0,3.15-2.73c.53,4.66-2.35,9.47-5.44,10.84a4.25,4.25,0,0,0-.46-3.92c-1.32-1.71-5.21-1.85-6.53-1.8,0,0,1.69-2.34,1.08-3.57-.74-1.53-8.38-1.1-11.83,0a14.72,14.72,0,0,1,4.85.73c-.56.78-2.06,4.09-1.08,5.13.83.89,2-.43,2.15-.6-.11.32-1.26,3.66-.47,4.5s2.67.33,2.67.33C90,41.37,85.5,43.22,82.4,43.12a6.56,6.56,0,0,0,3.32-3.4,8.67,8.67,0,0,1-3.76.37c1-.38,3.1-2.89,2.57-5.81m10.92-8.8a7.63,7.63,0,0,0-4.29-4.66c.6,2.38,1.44,4.58,4.29,4.66"/><path class="cls-2" d="M68.17,16.82c.51-1.8-3-5-4.31-5.63a20.64,20.64,0,0,1,7.37,1A8.68,8.68,0,0,1,70.48,5c2.49,6.53,12.08,7.87,14.3,13.3l-.46,2.77c-3.79-.49-9.38.64-12.2,3.77a22.42,22.42,0,0,1,4.49.93c-4.27.64-10.15,4.4-11.91,6.21.52-2.44,1.27-4.49.74-6-.75-2.1-3.25-3.06-8.3-2.17,3.49-3.29,10.5-5.18,11-7"/><path class="cls-2" d="M40.14,33.34l1,2.22c-1.37.23-2.91,5.64-2.91,5.64-3.49-2-.55-8.48-.55-8.48Z"/><path class="cls-2" d="M32.52,32.42a12.49,12.49,0,0,1,2.78-1.55l1.59,1.41-.82.25s-1.53,5-.91,7.07l1,2.9s-3.26-.65-3.76-1.9c0,0-1-5.63.12-8.18"/><path class="cls-2" d="M30.68,34.54s.21,6.42.87,7l2.42,1L34,44.75s-4.32-1.37-4.68-3S28.72,36,28.72,36a4,4,0,0,1,2-1.44"/><path class="cls-2" d="M185.26,24.94a2,2,0,0,1-2.41,1.84,1.71,1.71,0,0,0,1.54.32,2.51,2.51,0,0,1-2.5.77,2.12,2.12,0,0,1-1.5-1.88,1.18,1.18,0,0,0,0,1.59,1.56,1.56,0,0,1-1.1-1.27c-.09-.64.27-1.37-.4-2-.4-.35-1-.85-1.4-1.16-.82-.64-.51-1.12-.69-1.46s-.49-.41-.7-.65a.74.74,0,0,1-.08-.81.57.57,0,0,0,.44.6c.31.1.56,0,.82.17s.17.66.39.84.71-.05,1.14.29,1.41,1.16,1.83,1.51a.76.76,0,0,0,1.27-.8,1.38,1.38,0,0,1,.21,2.16c.6.14,1.68-.13,1.68-1a1,1,0,0,0-.84-1,2,2,0,0,1,2.31,1.86m-12.92-6.62c.08-.29-.51-.8-.72-.89a3.39,3.39,0,0,1,1.2.12,1.42,1.42,0,0,1-.16-1.16c.43,1.05,2,1.22,2.38,2.09a1.65,1.65,0,0,0-.82-1,2.48,2.48,0,0,1,.22-1.92C174.34,17,176.5,17.9,177,19c-.27-.94-1.27-1.54-1.75-2.1a1.51,1.51,0,0,1,.14-1.22c-.06,1,1,1.8,1.62,2.36a2,2,0,0,1,.79,1.74.42.42,0,0,1,.33.44.86.86,0,0,0,.49-.46,1.81,1.81,0,0,1-.83,1.78.67.67,0,0,0-.09-.63c-.22-.27-.85-.28-1.07-.26,0,0,.27-.39.16-.59s-1.36-.13-1.92.07a2.52,2.52,0,0,1,.79.09c-.08.13-.31.68-.15.84s.35-.11.35-.11-.19.6-.06.73.44,0,.44,0a1.66,1.66,0,0,1-1.41.79,1,1,0,0,0,.52-.56,1.38,1.38,0,0,1-.6.07.93.93,0,0,0,.38-.95c-.15-.69-1.1-.78-1.58-.44a1.86,1.86,0,0,1,1-1,4.33,4.33,0,0,0-.73-.18,2.75,2.75,0,0,1,1.47-.44,2.5,2.5,0,0,0-2.2.63,3.83,3.83,0,0,1,.74.13,4.3,4.3,0,0,0-1.9,1.07,2.22,2.22,0,0,0,.09-1c-.14-.33-.55-.48-1.36-.31.55-.55,1.68-.89,1.75-1.19m4.73,1.46-.08-.25a1.44,1.44,0,0,0-.83-.85l-.35-.13.1.35c.09.31.25.88.9.88Zm-24.63.8a4.16,4.16,0,0,1-4.36,4.13,4.11,4.11,0,1,1,0-8.22,4.15,4.15,0,0,1,4.38,4.09m-2.29,0A2,2,0,0,0,148,18.43a2,2,0,0,0-2,2.2,2,2,0,0,0,2,2.16,2,2,0,0,0,2.05-2.21m-38.4,0a4,4,0,0,1-.83,2.5,3.6,3.6,0,0,1-.86.78,4.33,4.33,0,0,1-2.68.73h-4.17l.18-.11.75-.44c.23-.14.33-.28.33-.77v-4.6c0-.51-.14-.65-.34-.79A2.49,2.49,0,0,1,103,16.22v-.11l.1.06a2.64,2.64,0,0,0,.72.31,11.62,11.62,0,0,0,2.31.12h1.6a4.33,4.33,0,0,1,2,.47,3.86,3.86,0,0,1,2.06,3.49m-2.32,0c0-1.3-.67-2.05-1.84-2.05h-.9v4.1h.9c1.17,0,1.84-.75,1.84-2.05m55.32-1.12-.32-.08h0c-.76-.18-1.25-.32-1.25-.64a.36.36,0,0,1,.09-.26,1.15,1.15,0,0,1,.79-.21h.25a5.17,5.17,0,0,1,2.34.92l-.13-2.36-.15-.05h0l-.36-.09a13.27,13.27,0,0,0-1.46-.24l-.46,0c-1.77,0-2.81.84-2.92,2.37a2,2,0,0,0,1,1.9,9.32,9.32,0,0,0,2,.8l.14,0c.39.12.84.36.77.82,0,.25-.12.51-.85.51l-.35,0a3.51,3.51,0,0,1-1.74-.85L162,22l-.4-.3-.42-.32.17,3,.15.05h0l.36.09a15.39,15.39,0,0,0,1.6.24l.44,0c1.94,0,3.22-1,3.26-2.46s-.79-2.38-2.45-2.8m-23.2,3.17h-1.8V21.47h1.69a1.56,1.56,0,0,1,.6.06.83.83,0,0,1,.27.24l.08.12V19.34l-.07,0-.2.11a1.23,1.23,0,0,1-.5.05h-1.87v-1h1.87a1.1,1.1,0,0,1,.86.24l.47.35-.25-2.52h-6.38l.17.1.7.44c.24.16.34.27.34.79v5.32c0,.52-.08.61-.33.77l-.75.44-.18.11h6.61l.6-2.66s-.54.38-.69.47a1.92,1.92,0,0,1-1.24.25m-12.41-6h-4.51l.17.1.7.44c.24.16.33.27.33.79v1.93l-3.34-3.26h-5.24a.69.69,0,0,0-.33.1l0,0,0,.05.18.26a.59.59,0,0,1,.09.35v4.07h0v0c0,.85-.39,1.29-1.2,1.29s-1.24-.45-1.24-1.33V17.4a.59.59,0,0,1,.09-.35,3,3,0,0,1,.19-.26l0-.05,0,0a.69.69,0,0,0-.33-.1h-3.35l.17.1.7.44c.24.16.33.27.33.79v3.29a4.53,4.53,0,0,0,.25,1.68,2.5,2.5,0,0,0,.57.79,3.54,3.54,0,0,0,2.64,1,3.23,3.23,0,0,0,3.17-1.82,3.7,3.7,0,0,0,.25-1.59V17.94c0-.52.09-.63.33-.79l.48-.3.43.3c.24.17.35.34.35.85v5.26c0,.51-.1.62-.33.77l-.75.44-.19.11h4.54l-.19-.11-.75-.44c-.22-.15-.32-.26-.32-.77V20.09l4.84,4.74V17.94c0-.51.09-.62.33-.79s.76-.44.77-.44Zm25.67,0Zm6.65,0h-4.52l.17.1.7.44c.24.16.33.27.33.79v1.93l-3.33-3.26h-2.65l.15.1.65.44c.23.17.34.34.34.85v5.26c0,.51-.09.62-.33.77l-.75.44-.18.11h4.53l-.18-.11-.75-.44c-.23-.15-.33-.26-.33-.77V20.09l4.85,4.74V17.94c0-.51.08-.62.33-.79s.76-.44.76-.44Zm-25.19,7.5-.18-.27c-.06-.09-.1-.17-.1-.5V21.19c0-.32,0-.38.09-.48s.19-.27.19-.27l0-.05-.06,0a1,1,0,0,0-.32-.1h-3.4l.17.1.73.45c.22.14.33.29.33.77v1.17a2.73,2.73,0,0,1-.83.11c-1.36,0-2.06-.73-2.06-2.19A1.94,1.94,0,0,1,133,18.49a4.31,4.31,0,0,1,2.76,1v-.06l-.25-2.31v-.17l-.17,0-.16,0a10.22,10.22,0,0,0-1.41-.26,4.68,4.68,0,0,0-.7-.05h-.13a4.12,4.12,0,1,0,0,8.24,11.15,11.15,0,0,0,1.82-.19l.24-.06H135l.91-.24.39-.12Zm59.36-3.54a4,4,0,0,1-.84,2.5,3.74,3.74,0,0,1-.85.78,4.34,4.34,0,0,1-2.69.73h-4.17l.18-.11L188,24c.24-.14.33-.28.33-.77v-4.6c0-.51-.14-.65-.34-.79a2.49,2.49,0,0,1-1.11-1.65v-.11l.09.06a3,3,0,0,0,.73.31,11.62,11.62,0,0,0,2.31.12h1.6a4.36,4.36,0,0,1,2,.47,3.86,3.86,0,0,1,2.06,3.49m-2.32,0c0-1.3-.68-2.05-1.85-2.05h-.9v4.1h.9c1.17,0,1.85-.75,1.85-2.05m46.27-1.12-.32-.08h0c-.76-.18-1.26-.32-1.26-.64a.36.36,0,0,1,.1-.26,1.1,1.1,0,0,1,.78-.21h.26a5.21,5.21,0,0,1,2.34.92l-.13-2.36-.16-.05h0l-.36-.09a13.27,13.27,0,0,0-1.46-.24,3.62,3.62,0,0,0-.46,0c-1.78,0-2.81.84-2.93,2.37a2.09,2.09,0,0,0,1,1.9,9.6,9.6,0,0,0,2,.8l.14,0c.39.12.83.36.77.82,0,.25-.13.51-.85.51l-.35,0A3.51,3.51,0,0,1,236.9,22l-.06-.05-.41-.3-.41-.32.16,3,.16.05h0l.36.09a15.39,15.39,0,0,0,1.6.24l.44,0c1.94,0,3.22-1,3.25-2.46s-.78-2.38-2.44-2.8m-12.31,1.11a4.15,4.15,0,0,1-4.36,4.13,4.11,4.11,0,1,1,0-8.21,4.14,4.14,0,0,1,4.38,4.08m-2.29,0a2,2,0,0,0-2.11-2.14,2,2,0,0,0-2,2.2,2,2,0,0,0,2.06,2.16,2,2,0,0,0,2-2.22m-14.07,3.47.67.53h-4.17s.36-.34.52-.51a.43.43,0,0,0,.1-.53l-.13-.36H205c0,.16-.1.29-.13.36-.12.28-.09.36.07.52s.61.52.61.52h-4.37l-2-2.42h0a1.85,1.85,0,0,0-.54-.55.4.4,0,0,0-.12,0v1.7c0,.5.09.59.33.77a10.84,10.84,0,0,0,1,.55h-4.67s.72-.4.94-.55.33-.26.33-.77V18c0-.49-.11-.65-.34-.79l-.7-.44-.16-.1H199a4.73,4.73,0,0,1,1.43.15A2.14,2.14,0,0,1,202,18.89a2.23,2.23,0,0,1-.39,1.28,2.26,2.26,0,0,1-.73.68c.83,1.11,1.49,1.94,1.89,2.39,0,0,2.42-5.81,2.42-5.81a.45.45,0,0,0,0-.11s0-.09-.12-.2l-.56-.51h3.14s2.62,6.63,2.63,6.67h0a2,2,0,0,0,.17.31,1.43,1.43,0,0,0,.45.46m-11.09-5.17c0-.41-.27-.68-1-.68h-.26v1.86h.26c.51,0,1-.11,1-1.18m7.41,2.41-.72-2-.78,2Zm29.06-4.68h-4.52l.17.1.7.44c.24.16.33.27.33.79v1.93l-3.33-3.26H227l.16.1s.41.27.64.44.35.34.35.85v5.26c0,.51-.1.62-.33.77l-.75.44-.18.11h4.53l-.19-.11-.75-.44c-.22-.15-.32-.26-.32-.77V20.09L235,24.83V17.94c0-.51.09-.62.33-.79s.77-.44.77-.44ZM218,23.77c-.06-.09-.09-.17-.09-.5V21.12c0-.32,0-.39.09-.48a2.9,2.9,0,0,1,.18-.27l0-.05-.06,0a.8.8,0,0,0-.32-.1H214.4l.17.1.72.45c.22.14.33.29.33.77v1.17a2.63,2.63,0,0,1-.82.11c-1.37,0-2.06-.74-2.06-2.19a1.94,1.94,0,0,1,2.08-2.18,4.33,4.33,0,0,1,2.77,1v-.06L217.34,17l0-.17-.17,0-.16,0a12.12,12.12,0,0,0-1.41-.27,4.66,4.66,0,0,0-.69,0h-.14a4.12,4.12,0,1,0,0,8.24,11.15,11.15,0,0,0,1.81-.19l.24-.06h0l.92-.24.39-.12-.05-.07s-.12-.16-.19-.27m-35.35-4.7c-1.72.09-3.19,1.54-3.95,2.57a1.37,1.37,0,0,1,.41.22l.64.52a9.42,9.42,0,0,1,1.37-2.16,1.82,1.82,0,0,1,2.35-.36,3.45,3.45,0,0,1,2.37-.47,3.39,3.39,0,0,0-2.29-1.06c-.81,0-1.27.39-1.39.21s.55-.56.55-.56c-.95,0-1.65,1.16-1.94,1s.26-.62.26-.62a4.12,4.12,0,0,0-1.76,2.24,4.3,4.3,0,0,1,3.38-1.55m-5.22,4.56a3.24,3.24,0,0,1-2.3,1.71c-1.74,0-2.61-2.45-.67-4.46a1.16,1.16,0,0,0-.26,0,.77.77,0,0,0-.42.12l-.86.73.24-1.19,0-.12a4.11,4.11,0,0,0-1,.69l-.77.84.08-1.19,0-.26a1.39,1.39,0,0,0,.06-.49l0-.06a3.65,3.65,0,0,0-1.45,2.42,1.07,1.07,0,0,1,.36-.33c.1,0,.2,0,.1.33a4.36,4.36,0,0,0,.87,4.48s-.2-.53-.08-.69.14-.08.25.06a3.76,3.76,0,0,0,.25.31h0a3.45,3.45,0,0,0,2.69,1.19,4.67,4.67,0,0,0,4.2-2.91.35.35,0,0,0-.1-.11c-.34-.31-.85-.73-1.23-1M172.21,17a1.93,1.93,0,0,1,.06-.76l.34-1,.42,1a1.6,1.6,0,0,0,.69.7,3.18,3.18,0,0,1,.23-1.4,1.24,1.24,0,0,1,1.16-1.37c1.11,0,1.4,1.34.89,2.3a5.75,5.75,0,0,0,.92,1l.32.29.08.09a4.23,4.23,0,0,0,.84-2.25,2.78,2.78,0,0,0-2.86-2.85,3.21,3.21,0,0,0-2.66.94,2.75,2.75,0,0,0-.78,2.3,2.25,2.25,0,0,0,.35,1.05"/><path class="cls-3" d="M91.16,20.82a7.63,7.63,0,0,1,4.29,4.66c-2.85-.08-3.69-2.28-4.29-4.66"/></g></g></svg>