<svg xmlns="http://www.w3.org/2000/svg" viewBox="0 0 54.5 22.45"><defs><style>.cls-1{fill:#fff;}.cls-2{fill:#231f20;}</style></defs><title>Asset 15</title><g id="Layer_2" data-name="Layer 2"><g id="Layer_1-2" data-name="Layer 1"><path class="cls-1" d="M29.74,6.08a1.83,1.83,0,0,1-3.06-1.74h-19A1.82,1.82,0,0,1,4.58,6.08L.5,9.52v3.41l4.08,3.44a1.82,1.82,0,0,1,3.06,1.74h19a1.83,1.83,0,0,1,3.06-1.74l4.08-3.44V9.52Z"/><path class="cls-2" d="M8.19,17.61H26.13A2.29,2.29,0,0,1,26.8,16a2.39,2.39,0,0,1,2.94-.3l3.58-3V9.76l-3.58-3a2.39,2.39,0,0,1-2.94-.3,2.29,2.29,0,0,1-.67-1.59H8.2a2.3,2.3,0,0,1-.68,1.59,2.37,2.37,0,0,1-2.93.3L1,9.76V12.7l3.59,3a2.38,2.38,0,0,1,2.93.3,2.28,2.28,0,0,1,.67,1.59m19.14,1H7L7.15,18a1.3,1.3,0,0,0-.34-1.26,1.36,1.36,0,0,0-1.88,0l-.32.33L0,13.16V9.29L4.61,5.4l.32.33a1.37,1.37,0,0,0,1.88,0,1.32,1.32,0,0,0,.34-1.27L7,3.84H27.33l-.16.62a1.29,1.29,0,0,0,.34,1.26,1.36,1.36,0,0,0,1.88,0l.33-.33,4.6,3.89v3.87l-4.6,3.89-.33-.33a1.36,1.36,0,0,0-1.88,0A1.3,1.3,0,0,0,27.17,18Z"/><polygon class="cls-1" points="53.94 13.66 53.94 8.79 47.4 0.56 17.87 0.56 11.34 8.79 11.33 13.66 17.87 21.89 47.4 21.89 53.94 13.66"/><path class="cls-2" d="M18.15,21.33h29l6.25-7.87V9L47.13,1.13h-29L11.9,9v4.47Zm29.52,1.12H17.6l-6.83-8.6V8.6L17.6,0H47.67L54.5,8.6v5.25Z"/><path class="cls-2" d="M13.29,16l-.49-.35a7.61,7.61,0,0,0,0-8.8l.49-.35a8.23,8.23,0,0,1,0,9.5"/><path class="cls-2" d="M52,16a8.23,8.23,0,0,1,0-9.5l.49.35a7.61,7.61,0,0,0,0,8.8Z"/><path class="cls-1" d="M13.57,11.22a1,1,0,1,1,1,1,1,1,0,0,1-1-1"/><path class="cls-2" d="M14.55,10.5a.72.72,0,0,0-.73.72.73.73,0,1,0,.73-.72m0,1.95a1.23,1.23,0,0,1-1.23-1.23A1.23,1.23,0,0,1,14.55,10a1.23,1.23,0,1,1,0,2.45"/><path class="cls-1" d="M51.7,11.22a1,1,0,1,0-1,1,1,1,0,0,0,1-1"/><path class="cls-2" d="M50.72,10.5a.73.73,0,1,0,.73.72.75.75,0,0,0-.21-.51.72.72,0,0,0-.52-.21m0,1.95a1.23,1.23,0,1,1,0-2.45,1.19,1.19,0,0,1,.87.36,1.22,1.22,0,0,1-.87,2.09"/><path class="cls-2" d="M51.77,10.69l-.5-.07A3.45,3.45,0,0,1,53.4,8l.18.46a3,3,0,0,0-1.81,2.23"/><path class="cls-2" d="M51.19,8.38l-3.92-5a1.6,1.6,0,0,0-2.1,0L45,3.56,42.37.73l.36-.34,2.35,2.52a2.07,2.07,0,0,1,2.57.15l3.93,5Z"/><path class="cls-2" d="M53.4,14.45a3.45,3.45,0,0,1-2.13-2.62l.5-.07A3,3,0,0,0,53.58,14Z"/><path class="cls-2" d="M42.73,22.06l-.36-.34L45,18.89l.17.12c1.3.87,2.08.07,2.11,0l3.91-5,.39.3-3.92,5a2,2,0,0,1-2.58.17Z"/><path class="cls-2" d="M13.55,10.69a3,3,0,0,0-1.82-2.23L11.91,8A3.45,3.45,0,0,1,14,10.62Z"/><path class="cls-2" d="M14.13,8.38l-.4-.3,3.92-5a2.06,2.06,0,0,1,2.59-.17L22.58.39,23,.73,20.32,3.56l-.18-.12a1.57,1.57,0,0,0-2.11,0Z"/><path class="cls-2" d="M11.91,14.45,11.73,14a3,3,0,0,0,1.82-2.23l.49.07a3.45,3.45,0,0,1-2.13,2.62"/><path class="cls-2" d="M22.58,22.06l-2.34-2.52a2.07,2.07,0,0,1-2.57-.15l-3.94-5,.4-.3,3.91,5a1.6,1.6,0,0,0,2.1,0l.18-.12L23,21.72Z"/></g></g></svg>