<svg xmlns="http://www.w3.org/2000/svg" viewBox="0 0 113.06 28.14"><defs><style>.cls-1{fill:#221d1f;}</style></defs><title>Asset 20</title><g id="Layer_2" data-name="Layer 2"><g id="Layer_1-2" data-name="Layer 1"><path class="cls-1" d="M107.84,23.93h-4.3c2.6-1.12,6.33-3.09,8.14-5.79v1.49a15.37,15.37,0,0,0-3.84,4.3m-79.7-1.42h76.65a35,35,0,0,1-3.28,1.42H28.14Zm-6.05,3.88a6.48,6.48,0,0,0-4.83-2.16H10.88a6.48,6.48,0,0,0-4.83,2.16H4.89s-3.14,0-3.14-4.25V6c0-4.22,3.14-4.25,3.14-4.25H6.05a6.48,6.48,0,0,0,4.83,2.16h6.38a6.48,6.48,0,0,0,4.83-2.16h1.16s3.14,0,3.14,4.25V22.14c0,4.22-3.14,4.25-3.14,4.25Zm-7.38.46a.78.78,0,0,0-.64-.37.76.76,0,0,0-.64.37,12.8,12.8,0,0,1-3.67-.73A4.58,4.58,0,0,1,10.88,26h6.38a4.64,4.64,0,0,1,1.12.14,12.8,12.8,0,0,1-3.67.73M13.43,1.29a.75.75,0,0,0,.64.36.76.76,0,0,0,.64-.36A12.47,12.47,0,0,1,18.38,2a4.64,4.64,0,0,1-1.12.14H10.88A4.58,4.58,0,0,1,9.76,2a12.47,12.47,0,0,1,3.67-.73m88.08,2.92a35,35,0,0,1,3.28,1.42H28.14V4.21Zm10.17,4.3V10c-1.81-2.69-5.55-4.66-8.14-5.78h4.3a15.22,15.22,0,0,0,3.84,4.3M28.14,6.38h1.25V21.76H28.14Zm78.07,15.38H30.14V6.38h76.07c2.32,1.3,4.65,3.08,5.47,5.22v4.94c-.82,2.14-3.15,3.91-5.47,5.22m6.85-14.1-.4-.18c-1.46-.69-3.27-3.34-3.85-4.31l-.2-.33H28.14V0H21.26L21,.33a4.92,4.92,0,0,1-1.58,1.3A13.48,13.48,0,0,0,14.77.55a.77.77,0,0,0-1.4,0A13.48,13.48,0,0,0,8.72,1.63,4.92,4.92,0,0,1,7.14.33L6.88,0H0V28.14H6.88l.26-.33a4.79,4.79,0,0,1,1.58-1.3,13.39,13.39,0,0,0,4.65,1.09.78.78,0,0,0,1.4,0,13.44,13.44,0,0,0,4.65-1.09A4.79,4.79,0,0,1,21,27.81l.26.33h6.88V25.3h80.48l.2-.33c.57-1,2.38-3.62,3.84-4.31l.4-.19Z"/></g></g></svg>