<svg xmlns="http://www.w3.org/2000/svg" viewBox="0 0 179.21 27.09"><defs><style>.cls-1{fill:#231f20;}</style></defs><title>Asset 18</title><g id="Layer_2" data-name="Layer 2"><g id="Layer_1-2" data-name="Layer 1"><path class="cls-1" d="M26.54,4.09A40.31,40.31,0,0,1,20,2h4.18a14.22,14.22,0,0,1,2.35,2.09m8.94-.4a10.6,10.6,0,0,1-6,.86c-.2-.29-.41-.58-.63-.86ZM177.83,8V9.47c-1.81-2.69-5.54-4.67-8.14-5.78H174A15.06,15.06,0,0,0,177.83,8M174,23.4h-4.3c2.6-1.11,6.33-3.08,8.14-5.78v1.49A15.06,15.06,0,0,0,174,23.4M29.45,22.54a10.69,10.69,0,0,1,6,.86H28.82c.22-.28.43-.56.63-.86m-5.26,2.55H20A40.31,40.31,0,0,1,26.54,23a14.22,14.22,0,0,1-2.35,2.09M31.49,5.4a16.21,16.21,0,0,1,2.43,8.15,16.25,16.25,0,0,1-2.43,8.15q-.7,0-1.53,0a16.08,16.08,0,0,0,2.24-8.18h0A16.13,16.13,0,0,0,30,5.36c.55,0,1.06,0,1.53,0M167.66,3.69c2.4.89,8.7,3.56,10.17,7.38V16c-1.47,3.83-7.77,6.49-10.17,7.38H36.83a7.64,7.64,0,0,0-4.49-1.65,16.73,16.73,0,0,0,2.33-8.2,16.69,16.69,0,0,0-2.33-8.2,7.56,7.56,0,0,0,4.49-1.66ZM2,13.55A14.1,14.1,0,0,1,8,2h8.07A54.88,54.88,0,0,0,27.3,5a14.07,14.07,0,0,1,2.9,8.52h0a14.07,14.07,0,0,1-2.9,8.52,54.88,54.88,0,0,0-11.22,3H8A14.08,14.08,0,0,1,2,13.55M7.14.17a16.1,16.1,0,0,0,0,26.75l.26.17H24.8l.25-.17a15.7,15.7,0,0,0,2.57-2.14H174.77l.19-.34c.58-1,2.39-3.61,3.85-4.3l.4-.19V7.14l-.4-.18c-1.46-.69-3.27-3.35-3.85-4.31l-.2-.33H27.62A15.6,15.6,0,0,0,25.06.17L24.8,0H7.39Z"/></g></g></svg>