<svg xmlns="http://www.w3.org/2000/svg" viewBox="0 0 54.5 22.45"><defs><style>.cls-1{fill:#fff;}.cls-2{fill:#231f20;}</style></defs><title>Asset 16</title><g id="Layer_2" data-name="Layer 2"><g id="Layer_1-2" data-name="Layer 1"><path class="cls-1" d="M29.74,6.08a1.83,1.83,0,0,1-3.06-1.74h-19A1.82,1.82,0,0,1,4.58,6.08L.5,9.52v3.41l4.08,3.44a1.82,1.82,0,0,1,3.06,1.74h19a1.83,1.83,0,0,1,3.06-1.74l4.08-3.44V9.52Z"/><path class="cls-2" d="M8.19,17.61H26.13A2.29,2.29,0,0,1,26.8,16a2.39,2.39,0,0,1,2.94-.3l3.58-3V9.76l-3.58-3a2.39,2.39,0,0,1-2.94-.3,2.29,2.29,0,0,1-.67-1.59H8.2a2.3,2.3,0,0,1-.68,1.59,2.37,2.37,0,0,1-2.93.3L1,9.76V12.7l3.59,3a2.38,2.38,0,0,1,2.93.3,2.28,2.28,0,0,1,.67,1.59m19.14,1H7L7.15,18a1.3,1.3,0,0,0-.34-1.26,1.36,1.36,0,0,0-1.88,0l-.32.33L0,13.16V9.29L4.61,5.4l.32.33a1.37,1.37,0,0,0,1.88,0,1.32,1.32,0,0,0,.34-1.27L7,3.84H27.33l-.16.62a1.29,1.29,0,0,0,.34,1.26,1.36,1.36,0,0,0,1.88,0l.33-.33,4.6,3.89v3.87l-4.6,3.89-.33-.33a1.36,1.36,0,0,0-1.88,0A1.3,1.3,0,0,0,27.17,18Z"/><polygon class="cls-1" points="53.94 13.66 53.94 8.79 47.4 0.56 17.87 0.56 11.34 8.79 11.33 13.66 17.87 21.89 47.4 21.89 53.94 13.66"/><path class="cls-2" d="M18.15,21.33h29l6.25-7.87V9L47.13,1.13h-29L11.9,9v4.47Zm29.52,1.12H17.6l-6.83-8.6V8.6L17.6,0H47.67L54.5,8.6v5.25Z"/><path class="cls-2" d="M13.29,16l-.49-.35a7.61,7.61,0,0,0,0-8.8l.49-.35a8.23,8.23,0,0,1,0,9.5"/><path class="cls-1" d="M13.89,12.43h0a1.46,1.46,0,0,0,.52.1,1.3,1.3,0,1,0,0-2.59,1.27,1.27,0,0,0-.52.11l-.09,0-.12.07-1.94,1.07,1.94,1.07.12.06Z"/><path class="cls-2" d="M12.26,11.24l1.75,1a1,1,0,0,0,.4.07,1,1,0,1,0,0-2.09,1,1,0,0,0-.42.09l-.07,0-.1.06Zm2.15,1.54a1.5,1.5,0,0,1-.62-.13l-.11-.06-.14-.07-2.31-1.28L13.56,10l.09-.06.12-.06a1.55,1.55,0,1,1,.64,2.95"/><path class="cls-2" d="M15,10.33a6.93,6.93,0,0,1,.13-3.4C15.62,5.16,17,2.57,20.86.35l.25.43c-7,4.07-5.68,9.2-5.62,9.41Z"/><path class="cls-2" d="M20.86,22.11c-3.85-2.23-5.24-4.82-5.72-6.59a6.93,6.93,0,0,1-.13-3.4l.49.14c-.07.21-1.43,5.34,5.61,9.41Z"/><path class="cls-2" d="M30.79,21.94l-.49-.1A1.27,1.27,0,0,0,30,20.72c-.43-.41-1.47-.77-4-.11-5.31,1.39-8.34-.95-8.46-1.05l.31-.39s3,2.28,8,1c2.19-.58,3.69-.5,4.45.23a1.79,1.79,0,0,1,.48,1.58"/><path class="cls-2" d="M52,16a8.23,8.23,0,0,1,0-9.5l.49.35a7.61,7.61,0,0,0,0,8.8Z"/><path class="cls-1" d="M51.38,12.43h0a1.46,1.46,0,0,1-.52.1,1.3,1.3,0,0,1,0-2.59,1.27,1.27,0,0,1,.52.11l.09,0a.47.47,0,0,1,.12.07l1.94,1.07-1.94,1.07a.45.45,0,0,1-.12.06Z"/><path class="cls-2" d="M50.86,10.19a1,1,0,0,0,0,2.09,1,1,0,0,0,.42-.08l1.73-1-1.54-.85a.18.18,0,0,0-.08-.05l-.13-.07a1,1,0,0,0-.4-.08m0,2.59a1.55,1.55,0,0,1,0-3.09,1.6,1.6,0,0,1,.62.13l.11.06a.75.75,0,0,1,.14.08L54,11.24l-2.33,1.29-.09.05-.11.06a1.56,1.56,0,0,1-.65.14"/><path class="cls-2" d="M50.26,10.33l-.48-.14C49.84,10,51.2,4.85,44.16.78l.25-.43c3.85,2.22,5.24,4.81,5.72,6.58a6.79,6.79,0,0,1,.13,3.4"/><path class="cls-2" d="M44.41,22.11l-.25-.44c7-4.07,5.68-9.2,5.62-9.41l.48-.14a6.79,6.79,0,0,1-.13,3.4c-.48,1.77-1.87,4.36-5.72,6.59"/><path class="cls-2" d="M34.48,21.94A1.79,1.79,0,0,1,35,20.36c.77-.73,2.26-.81,4.45-.23,5.06,1.32,8-.94,8-1l.32.39c-.13.1-3.16,2.44-8.46,1.05-2.51-.66-3.55-.3-4,.11A1.28,1.28,0,0,0,35,21.84Z"/><path class="cls-2" d="M17.84,3.29l-.31-.4c.12-.1,3.15-2.44,8.46-1,2.5.66,3.54.3,4-.11A1.29,1.29,0,0,0,30.31.62l.48-.11a1.79,1.79,0,0,1-.48,1.58c-.76.73-2.26.81-4.45.23-5.06-1.32-8,.94-8,1"/><path class="cls-2" d="M47.43,3.29s-3-2.29-8-1c-2.19.58-3.68.5-4.45-.23A1.79,1.79,0,0,1,34.48.51l.49.1a1.27,1.27,0,0,0,.34,1.12c.44.41,1.48.77,4,.11,5.3-1.39,8.33,1,8.46,1.05Z"/></g></g></svg>