<svg xmlns="http://www.w3.org/2000/svg" viewBox="0 0 113.65 34.58"><defs><style>.cls-1{fill:#231f20;}</style></defs><title>Asset 19</title><g id="Layer_2" data-name="Layer 2"><g id="Layer_1-2" data-name="Layer 1"><path class="cls-1" d="M19,5.55a11.92,11.92,0,0,0,3.6,2.18,11.69,11.69,0,0,0,4.5.73,14,14,0,0,1,0,17.66,11.89,11.89,0,0,0-4.5.73A12.13,12.13,0,0,0,19,29a26.35,26.35,0,0,1-7.81,1.43,14.05,14.05,0,0,1,0-26.34A26.68,26.68,0,0,1,19,5.55m15.54.89h67.6c2.4.9,8.7,3.57,10.17,7.39v6.94c-1.47,3.83-7.77,6.5-10.17,7.39H34.5a20.39,20.39,0,0,0-5.13-1.78,16,16,0,0,0,0-18.16A20,20,0,0,0,34.5,6.44M28,6.43h4.73a17.26,17.26,0,0,1-3.81,1.1c-.29-.38-.6-.74-.92-1.1m80.48,0a15.08,15.08,0,0,0,3.84,4.3v1.49c-1.81-2.7-5.55-4.67-8.14-5.79Zm3.84,17.42a15.22,15.22,0,0,0-3.84,4.3h-4.3c2.59-1.11,6.33-3.09,8.14-5.78ZM28,28.15c.32-.35.63-.72.92-1.1a17.82,17.82,0,0,1,3.81,1.1ZM15.42,0a.39.39,0,0,0-.21.49s.14.31.34.7a16,16,0,0,0-6.4,1.57,26.69,26.69,0,0,1,7.58.5h.12q.22.3.48.6c-12.74-3-16,3.45-16,3.45a11.34,11.34,0,0,1,3.8-2.53c.42-.12.84-.21,1.26-.3a16.05,16.05,0,0,0,0,25.56c-.42-.08-.84-.18-1.26-.29a11.23,11.23,0,0,1-3.8-2.54s3.31,6.43,16,3.45l-.48.61h-.12a27,27,0,0,1-7.58.49,16,16,0,0,0,6.4,1.57c-.2.4-.32.66-.34.71a.38.38,0,1,0,.7.28s3-5.72,6.93-6.8a15.14,15.14,0,0,1,3.57-.68,14,14,0,0,1-7.8,4.28,4.35,4.35,0,0,0-1.31,2.19,16,16,0,0,0,6.3-1.81l2.15-1.38c.26-.2.52-.41.77-.63h82.69l.19-.33c.58-1,2.39-3.62,3.85-4.31l.4-.18V9.89l-.4-.19C111.79,9,110,6.36,109.4,5.4l-.19-.34H26.52c-.25-.22-.51-.43-.77-.63L23.6,3.06a16,16,0,0,0-6.3-1.82,4.27,4.27,0,0,0,1.31,2.19,14.1,14.1,0,0,1,7.8,4.28A14.65,14.65,0,0,1,22.84,7C18.92,6,15.91.25,15.91.23a.37.37,0,0,0-.49-.2"/></g></g></svg>