<svg xmlns="http://www.w3.org/2000/svg" viewBox="0 0 114.89 102.18"><defs><style>.cls-1{fill:#231f20;}</style></defs><title>Asset 22</title><g id="Layer_2" data-name="Layer 2"><g id="Layer_1-2" data-name="Layer 1"><path class="cls-1" d="M113,81.9a75.78,75.78,0,0,1-.62-12.26A76.27,76.27,0,0,0,114,81.07a10,10,0,0,0-1,.83M112.75,87l-.21,2.31c-.4-1.24-.82-2.22-.84-2.27a3.85,3.85,0,0,1,.35-2.64,25.83,25.83,0,0,0,.7,2.6m-5.32,13.85H103.8c6.8-2.76,8-7.94,8.15-10.93.15.5.3,1,.4,1.53l-.5,5.66c-1.14.42-3.9,1.63-4.42,3.74M3.05,97.07l-.51-5.66c.1-.48.24-1,.39-1.48a12.08,12.08,0,0,0,.63,3.5c.83,2.41,2.82,5.46,7.54,7.38H7.46C7,98.7,4.18,97.49,3.05,97.07m.17-10.14c0,.09-.47,1.09-.87,2.34L2.14,87a23.36,23.36,0,0,0,.71-2.63,3.76,3.76,0,0,1,.37,2.6M.88,81.07A76.27,76.27,0,0,0,2.51,69.64,74.66,74.66,0,0,1,1.9,81.9a8.68,8.68,0,0,0-1-.83m1-60.79a74.63,74.63,0,0,1,.61,12.27A76.23,76.23,0,0,0,.88,21.11a8.68,8.68,0,0,0,1-.83m.24-5.06.21-2.31c.4,1.24.82,2.23.85,2.28a3.83,3.83,0,0,1-.35,2.63,23.4,23.4,0,0,0-.71-2.6M7.46,1.38h3.63C4.29,4.14,3.05,9.32,3,12.31c-.16-.51-.3-1-.41-1.54l.51-5.66C4.18,4.7,7,3.48,7.46,1.38M111.85,5.11l.5,5.66c-.1.49-.24,1-.39,1.48a11.81,11.81,0,0,0-.63-3.5c-.82-2.41-2.82-5.46-7.53-7.37h3.63c.52,2.1,3.28,3.32,4.42,3.73m-.17,10.14c0-.08.46-1.09.86-2.34l.21,2.31a24,24,0,0,0-.71,2.63,3.75,3.75,0,0,1-.36-2.6M114,21.11a76.23,76.23,0,0,0-1.63,11.44A77.06,77.06,0,0,1,113,20.28a9.59,9.59,0,0,0,1,.83m-3,66.12s.18.43.41,1a11.6,11.6,0,0,1-.54,5c-1.21,3.52-4.15,6.1-8.54,7.54H12.54c-9.42-3.07-9.32-10.33-9.06-12.5.24-.66.44-1.11.45-1.14a4.84,4.84,0,0,0-.86-3.93c1.38-7.57.68-17.21.65-17.64v-29c0-.48.74-10.14-.64-17.72a4.9,4.9,0,0,0,.84-4s-.19-.43-.42-1a11.81,11.81,0,0,1,.55-5c1.2-3.52,4.15-6.1,8.54-7.53h89.77c9.42,3.06,9.32,10.33,9.06,12.5-.24.65-.43,1.1-.44,1.13a4.84,4.84,0,0,0,.85,3.93c-1.38,7.57-.68,17.21-.64,17.64v29c0,.48-.74,10.13.65,17.71a4.92,4.92,0,0,0-.84,4m1.57-25.45V44.42c.32-5.13,1.08-19.53,2.26-23.36l.08-.27-.24-.16a8.25,8.25,0,0,1-1.51-1.26,26,26,0,0,1,1-3.84l.05-.14-1-11.3L112.7,4c-1-.32-4-1.6-4-3.26V0H6.17V.69c0,1.66-2.87,2.92-4,3.26l-.44.14-1,11.3,0,.14a24.63,24.63,0,0,1,1,3.83,9.2,9.2,0,0,1-1.5,1.27L0,20.79l.08.27C1.26,24.88,2,39.26,2.34,44.4V61.77C2,66.9,1.26,77.29.08,81.12L0,81.4l.25.15a8.81,8.81,0,0,1,1.5,1.26,23.68,23.68,0,0,1-1,3.84l0,.14,1,11.31.44.13c1.1.35,4,1.6,4,3.26v.69H108.73v-.69c0-1.66,2.86-2.91,4-3.26l.43-.13,1-11.31-.05-.14a24.65,24.65,0,0,1-.95-3.83,8.33,8.33,0,0,1,1.5-1.27l.24-.16-.08-.27c-1.18-3.82-1.94-14.2-2.25-19.34"/></g></g></svg>