<svg xmlns="http://www.w3.org/2000/svg" viewBox="0 0 75.59 33.92"><defs><style>.cls-1{fill:#fff;}.cls-2,.cls-3{fill:none;stroke:#231f20;stroke-miterlimit:10;}.cls-2{stroke-width:1.38px;}.cls-3{stroke-width:0.6px;}.cls-4{fill:#231f20;}</style></defs><title>SpellHeadBlock</title><g id="Layer_2" data-name="Layer 2"><g id="Layer_1-2" data-name="Layer 1"><polygon class="cls-1" points="68.56 0.69 7.03 0.69 0.69 8.66 0.69 25.26 7.02 33.24 68.56 33.24 74.9 25.26 74.9 8.66 68.56 0.69"/><polygon class="cls-2" points="68.56 0.69 7.03 0.69 0.69 8.66 0.69 25.26 7.02 33.24 68.56 33.24 74.9 25.26 74.9 8.66 68.56 0.69"/><path class="cls-3" d="M9.31.69,2.6,9m0,15.92,6.71,8.32M2.6,6.26V28"/><path class="cls-4" d="M1.65,17a1,1,0,0,0,1.9,0,.95.95,0,0,0-1.9,0"/><path class="cls-4" d="M73.94,17A.95.95,0,1,1,73,16a.95.95,0,0,1,1,.95"/><path class="cls-3" d="M66.27.69,73,9m0,15.92-6.72,8.32M73,6.26V28"/></g></g></svg>