<svg xmlns="http://www.w3.org/2000/svg" viewBox="0 0 587.44 99.51"><defs><style>.cls-1{fill:#dcddde;}.cls-2{fill:#fff;}.cls-3{fill:#231f20;}.cls-4,.cls-5{fill:none;stroke:#231f20;stroke-miterlimit:10;}.cls-4{stroke-width:1.38px;}.cls-5{stroke-width:0.75px;}.cls-6{fill:#bfc0c3;}</style></defs><title>SpellScroll</title><g id="Layer_2" data-name="Layer 2"><g id="Layer_1-2" data-name="Layer 1"><polygon class="cls-1" points="337.78 32.07 360.06 30.4 332.58 28.35 374.63 25.2 337.19 22.4 389.06 18.53 300.72 11.92 324.46 10.14 281.12 6.9 242.62 9.78 225.3 7.53 267.79 4.35 233.74 1.81 210.01 3.58 182.46 1.52 156.71 3.45 182.87 5.41 154.04 7.56 125.22 5.41 141.93 4.16 121.97 2.66 58.15 7.43 80.77 9.12 9.05 14.48 51.29 17.64 29 19.31 56.48 21.36 14.43 24.5 51.88 27.31 0 31.18 71.29 36.52 38.65 38.96 73.11 41.53 82.02 40.87 107.94 42.81 146.44 39.93 163.74 42.18 118.87 45.53 180.47 50.14 193.94 49.13 169.69 47.32 204.32 44.73 228.58 46.54 244.47 45.36 267.09 47.05 330.91 42.28 308.3 40.59 380.01 35.23 337.78 32.07"/><polygon class="cls-1" points="223.49 49.06 246.74 50.8 270 49.06 246.74 47.32 223.49 49.06"/><polygon class="cls-1" points="84.29 42.54 107.54 44.28 84.29 46.02 61.03 44.28 84.29 42.54"/><polygon class="cls-1" points="388.92 84.3 407.02 82.94 384.7 81.27 418.86 78.72 388.44 76.44 430.58 73.3 358.82 67.93 378.1 66.49 342.9 63.85 311.62 66.19 297.56 64.36 332.07 61.78 304.41 59.71 285.13 61.16 262.76 59.48 241.84 61.05 263.09 62.64 239.68 64.39 216.26 62.64 229.83 61.62 213.62 60.41 161.78 64.28 180.15 65.66 121.9 70.01 156.2 72.58 138.1 73.93 160.42 75.6 126.27 78.15 156.68 80.43 114.54 83.58 172.46 87.91 145.94 89.89 173.93 91.98 181.17 91.44 202.22 93.02 233.5 90.68 247.55 92.51 211.1 95.23 261.14 98.97 272.08 98.16 252.38 96.68 280.51 94.58 300.22 96.05 313.13 95.09 331.5 96.46 383.34 92.59 364.98 91.22 423.23 86.86 388.92 84.3"/><polygon class="cls-1" points="296.08 98.1 314.97 99.51 333.86 98.1 314.97 96.68 296.08 98.1"/><polygon class="cls-1" points="183.01 92.8 201.9 94.22 183.01 95.63 164.12 94.22 183.01 92.8"/><polygon class="cls-1" points="553.09 38.29 568.02 37.18 549.61 35.8 577.78 33.69 552.69 31.82 587.44 29.22 528.26 24.79 544.16 23.61 515.13 21.43 489.33 23.36 477.73 21.85 506.2 19.73 483.38 18.02 467.49 19.21 449.03 17.83 431.78 19.12 449.31 20.43 430 21.87 410.69 20.43 421.88 19.59 408.51 18.59 365.75 21.79 380.9 22.92 332.86 26.51 361.15 28.63 346.22 29.74 364.63 31.12 336.46 33.23 361.55 35.1 326.79 37.7 374.56 41.27 352.69 42.91 375.77 44.63 381.74 44.19 399.11 45.49 424.9 43.56 436.49 45.07 406.43 47.31 447.7 50.4 456.72 49.73 440.48 48.51 463.67 46.77 479.93 47.99 490.57 47.2 505.73 48.33 548.49 45.13 533.34 44 581.38 40.41 553.09 38.29"/><polygon class="cls-1" points="476.52 49.67 492.1 50.84 507.68 49.67 492.1 48.51 476.52 49.67"/><polygon class="cls-1" points="383.26 45.31 398.84 46.47 383.26 47.64 367.68 46.47 383.26 45.31"/><path class="cls-2" d="M45.56,39.36V27.13h7.56s3.8,1.8,9.64-6.49H75.44l5-3.54s4.32-6.17,8.28-6.17,19.72-7.21,19.72-7.21l17-3.72,20.16,5.89,10.72,4.32s16.37,6.08,14.12,16c0,0,2-8.22-14.12-13.8,0,0,8.72,6.37,6.92,10.08,0,0,9.36,6.46,10.8,11.69,0,0,20.88,6.19,29.16-8,0,0-3,6.7-5.76,8,0,0,19.44,11.59,38.16-8,0,0-13.48,11.77-12.6,16.63l-53.28-1.62s.56-23.52-32.66-25.57S100.28,30.18,103,36.48Z"/><path class="cls-2" d="M140.28,37.93s6.08-22.32,27,3.24c0,0-14.57-28.44-30.14-4Z"/><path class="cls-3" d="M159.47,26.28c.22.14.59.41,1.07.78-.67-.5-1.07-.78-1.07-.78m20.28,12a27.16,27.16,0,0,0-3.26-1.65,40.94,40.94,0,0,1,2.82,8.17,35.61,35.61,0,0,0-3.66-8.57,83.47,83.47,0,0,1-12.19-7c4.94,3.84,12.62,10.32,11.88,12.85,0,0-.38-1-1.1-.67s-2.73,2.84-5.18,1.49a1.18,1.18,0,0,0-.07.2l.06-.21a4,4,0,0,1-.91-.67,5.4,5.4,0,0,0,1,.4c.37-1.81-.18-5.52-8.28-9.67,0,0-2.75-.32-2.9,1.87,0,0-8.65-4.42-9.14-1.13s4.27,4.5,4.27,4.5l-9.12.33a11.6,11.6,0,0,1,2.24-8.44s-.15,2,1.66,1.44,5.77-4.66,4.63-7.2a22.55,22.55,0,0,1,6.26,3.37c2.09,1.85,12.16,8.9,10.42,14.94,1.14.33,2.89.43,3.3-2,.49-3-7.23-9.89-11.08-13l-.33-.27-.5-.39.22.16a32.74,32.74,0,0,1-6.4-6.77,57.56,57.56,0,0,0,18.28,11.49,41.07,41.07,0,0,0-8.85-8.1,2.88,2.88,0,0,1-.52.81,4.28,4.28,0,0,0,.25-1c-8.24-5.57-20.42-10-38.39-11.5,0,0-15.94-.35-15.08,7.63,0,0-.27,2.22,3.13,3.17a32.29,32.29,0,0,1-5.69-.66s.42-1-.54-1-14,8.46-13.4,14.55c0,0,3.29,0,6.36-6.14,0,0-1.5,4.44-2.34,6.46,0,0-4.21,1.48-5.13,5a20.74,20.74,0,0,1-1.84,5S75.26,59,61.94,60.62c0,0-5.94.74-10.1-2l2.4-.1S45,57.1,41.07,51.35,33,33.25,34.41,25.42c0,0,.89,7.14,3.59,11,0,0,2.58-22.85,21.88-35.92,0,0-5.25,6.29-5.13,8.89,0,0-2.08-.54-4.51,4.18s-2.21,13,4.33,12.14,8.1-7.65,7-11.34c0,0,1.14,2.93,3.81,2.08a16.62,16.62,0,0,0,5.16-3.11s-1.53,5.84,8.64,3.34l-2.92-.35S91,5.16,99.55,1.74a98.78,98.78,0,0,0-11.86,8S110.78-4,134,1.17c.66.15,1.28.32,1.92.48l-.08,0,.53.15,1.82.49c3.92,1,11.77,2.81,15.77,1.91,0,0-3.43,1.24-3,2.43s7.59,3.71,7.59,3.71-2.07.62-.15,2.55l0,0c3.25,3,5.14,6,5.59,8.32a45.15,45.15,0,0,1,10.21,11.32c8.51,2.67,18.46,2.45,27.14-6.62,0,0-4.36,5.86-4,7.09s3.35,1.4,3.35,1.4l.86,1.8s-7.27-3.73-14.08.66c0,0,.52,1.3,4.33.55a7.91,7.91,0,0,1-3,.83c-2.4.39-4.45.73-1.54,3.64a70.53,70.53,0,0,1-8.47-2.39s2.07-.08.95-1.12M85.65,13.25l.68.36.38.67.36-.69.67-.38-.68-.36-.38-.67-.36.69ZM86.87,15a.65.65,0,1,0,0,1.3.65.65,0,0,0,0-1.3m-2,2a.44.44,0,0,0,.44.43A.44.44,0,0,0,85.7,17a.42.42,0,0,0-.44-.43.44.44,0,0,0-.43.44M83.5,15.71a.67.67,0,0,0,.67.65.66.66,0,0,0,.64-.67.65.65,0,0,0-.66-.64.66.66,0,0,0-.65.66m-3,2.56a.44.44,0,1,0,.43-.45.45.45,0,0,0-.43.45m2.13,26.94c-5.78,6.39-11.16,3.88-11.16,3.88,5.42,4.84,11.16-3.88,11.16-3.88M88.31,22.9c1.1-1.1,7.93-7.84,7.93-7.84s-7.58,5.67-12.5,6.35c-2.18.31-6.39,0-11.46.66-3.12,1.56-7.86,3.82-8,3.18-.11-.37.29-1,.83-1.64A33.55,33.55,0,0,0,51.4,31.75S49,33.28,49.58,33.62l1.18.67s-3,2-2.2,3.29,8.11-4.16,8.11-4.16a45.26,45.26,0,0,1-5.9,5.39,5.65,5.65,0,0,0-2.08,6.42s1,4,5.92,2.92l-.3-.52-1-.5.94-.54.5-1,.53.94,1,.5-.94.53-.22.41c.28-.08.56-.16.86-.27,6.16-2.27,13.78-.48,17,.21s7.3-4.06,9.31-8.83c0,0,1,.15,2.28-1.52,0,0-1,2.6-.38,3.61s2.23.27,2.55-.46l-.72-1.41A10.37,10.37,0,0,0,90,35a7,7,0,0,0-1.15-7.52,13.69,13.69,0,0,1,1.59,1.72s.68-5.5,3.6-7.92c0,0-5.34,3.34-6.18,3.72s-.67-1,.42-2.11M142,7.59s-10.87-5.38-28.16-3.8a17.89,17.89,0,0,1-9.52,3.75S92.8,11.64,87.12,17.4c0,0,2.58-2.33,5.1-1.61,0,0,24.31-18.58,49.74-8.2m-10.3,2.59-.48-.25-.26-.46-.25.47-.47.27.48.24.26.47.25-.47Zm2.45-.62-.47-.25-.26-.46-.25.47-.47.27.48.25.26.46.25-.47Zm2.55.18a.56.56,0,0,0-.56-.54.55.55,0,0,0-.53.56.53.53,0,0,0,.55.53.55.55,0,0,0,.54-.55m2.53,1.81a.55.55,0,0,0-.55-.54.56.56,0,0,0-.54.56.55.55,0,0,0,.56.53.53.53,0,0,0,.53-.55m1.18-1.22a.53.53,0,0,0-.55-.53.55.55,0,0,0-.54.55.55.55,0,1,0,1.09,0m5.15,2.1a.32.32,0,0,0-.33-.32.33.33,0,0,0,0,.65.32.32,0,0,0,.32-.33m1.1.85a.22.22,0,0,0-.43,0,.22.22,0,0,0,.43,0m16.59,7.25c-1.53-4.64-8.8-11.89-38.16-14.54a87.54,87.54,0,0,1,17.28,3.89,1.3,1.3,0,0,0,1.22,1.82,1.29,1.29,0,0,0,1.22-1,68.79,68.79,0,0,1,18.44,9.81m-15.8-3.3-.34.64-.62.35.63.34.36.62.33-.64.63-.35-.64-.34Zm2.14,3.88.46-.88.85-.48-.87-.46-.49-.86-.46.87-.85.49.87.46Zm32.7,11.46.54-1,1-.57-1-.54-.57-1-.53,1-1,.57,1,.53Zm3.17-1.9.4-.76.75-.43-.76-.4-.43-.75-.4.76-.75.43.76.4Zm.66,1.29.34.18.19.33.18-.34.33-.19-.34-.18-.19-.33-.18.34Zm3.15.87.27-.51L190,32l-.51-.27-.29-.5-.27.51-.5.29.51.26Zm5.32-2.93.54-1,1-.57-1-.53-.57-1-.53,1-1,.57,1,.54Zm6.56,1.49-.21.4-.4.23.41.21.22.39.21-.4.4-.22-.41-.22Zm-26.63-3.74.35-.67.66-.37-.67-.35-.37-.66-.36.67-.65.37.67.36ZM97.24,36.74l-.45.84-.83.48.85.44.47.83.44-.84.83-.48-.84-.44Zm3-1.17-.29.53-.52.3.53.28.3.53.28-.54.53-.29-.53-.29Zm2.66,2.89-.32.61-.6.34.61.32.34.59.32-.6.59-.34-.6-.32Zm66,4.79a5.12,5.12,0,0,1-.28.58,3.15,3.15,0,0,0,.28-.58m0-.1v0m0,0,0,.08,0-.08m75.09-32.5s2.31,7.63,1.12,13.12c0,0,.1-5.11-1.89-3.8s-10.08,8.56-3.82,12.11c0,0-14,.41-15,9.37,0,0-3.19-.67-7.67-1.28a15.07,15.07,0,0,1-2.19,1.25c-8.33,4-29.52,8.5-23.42-.08-2.79,1.57-4.06,4.14-2.55,8.17,0,0-4.89-8.5,7.85-11.08,0,0-2.94-1.23-1.32-2.35,0,0,11.85,4.3,22.58,2.21,1.09-1.41.88-3-1.44-4.74,0,0,3.6,1.91,2.42,4.53a20.5,20.5,0,0,0,8.17-3.79s-3.81,1.16-5.63,1.55A37.23,37.23,0,0,0,229,31.52l-.29-.5-1.38-.73,1.36-.78.73-1.38.78,1.36.86.45a39,39,0,0,0,13-19.27M215.68,40c-6.34-.82-14.77-1.43-20.65-.07-1.43.69-3.85,2.19-2.63,4s16.85-.1,23.28-4m32.15-22.28-.36.69-.69.39.7.36.39.69.36-.7.68-.38-.69-.37ZM250,16.63l-.17.34-.33.18.33.18.19.33.18-.34.33-.18-.34-.18Zm-2.23-2.82-.53,1-1,.56,1,.53.57,1,.53-1,1-.56-1-.53ZM252.44,12l-.33-.59-.31.6-.59.33.6.31.33.59.31-.6.59-.33Zm-21.6,16.18.32-.59.58-.33-.59-.32-.34-.58-.31.59-.58.34.59.31Zm-2.58-1.69.28-.54.52-.29-.53-.28-.3-.53-.28.54-.52.29L228,26ZM227.55,28a.47.47,0,0,0,.47.45.46.46,0,0,0,.45-.46.47.47,0,0,0-.47-.45.46.46,0,0,0-.45.46m3.51-3.25a1,1,0,0,0,1-1,1,1,0,0,0-1-1,1,1,0,1,0,0,2M234.65,21a.46.46,0,1,0,0-.91.46.46,0,0,0,0,.91M205.26,38.13a.92.92,0,1,0-.92-.9.92.92,0,0,0,.92.9m3.35-2.25a.44.44,0,0,0,.44-.46.46.46,0,1,0-.44.46m-5.68,4.66a.56.56,0,0,0,.56.54.55.55,0,1,0-.56-.54M57.19,45.43l-.15.28-.28.16.29.15.16.28.15-.28.28-.16-.29-.15ZM57.5,44l-.2.38-.38.21.38.2.21.38.21-.38.37-.21-.38-.21ZM55.63,43l-.27.51-.5.29.51.26.28.51.27-.51.51-.29-.51-.27ZM80,30.34l-.16.3-.3.17.3.15.17.3.16-.3.29-.17-.3-.16Zm3-3.2-.41.79-.78.44.79.42.44.78.42-.79.78-.45-.79-.41Zm-22,15.61-.3.57-.56.32.57.3.32.56.3-.57.56-.32-.57-.3Zm20-13.44-.17.32-.31.18L81,30l.17.31.17-.32.31-.18-.31-.17Zm98.2,15.52a47.44,47.44,0,0,1,1.16,11.24,31.06,31.06,0,0,0-1.16-11.24"/><path class="cls-3" d="M57.32,26.64s-6.54,4.64-4.74,6.25,4.64-1.42,4.64-1.42-.85,2.18,0,2.46,4-3.12,9.19-1.61c0,0-4.73.19-3.69,3.13L46,36.49l.19-4.36s6.54-5.3,11.18-5.49"/><path class="cls-3" d="M80.85,34.56s3.65.09,5-2.61a1.16,1.16,0,0,0,1.48.78A3.07,3.07,0,0,0,89.2,28.9a4.29,4.29,0,0,1,.26,4s-1.65.87-1.57,1.91Z"/><path class="cls-2" d="M52.32,32.48s-1-2,.78-5c0,0-1.05,2.91.37,3.56Z"/><polygon class="cls-2" points="72.28 22.07 76.97 19.07 72.91 22.51 72.28 22.07"/><path class="cls-3" d="M182.77,18.28h-2v-9h2c2.58,0,4,1.65,4,4.52s-1.47,4.48-4,4.48m27.59-8V9.75a5.9,5.9,0,0,0-1,.37,4.33,4.33,0,0,1,1,.11M188.88,18.1l-.55.76.2-2.15a5.83,5.83,0,0,1,2-3.71c-.15,0-.32,0-.5.08l-1.93.39,1.39-1.39a7.3,7.3,0,0,1,1.73-1.14l.21-.12a8.27,8.27,0,0,0-4-4.72,9.57,9.57,0,0,0-4.3-1h-3.51a25.63,25.63,0,0,1-5.07-.26,5.6,5.6,0,0,1-1.58-.68L172.72,4l0,.25a5.5,5.5,0,0,0,2.46,3.61c.43.31.74.62.74,1.73V19.64c0,1.08-.22,1.38-.72,1.68l-1.66,1-.39.23h9.14a9.55,9.55,0,0,0,5.9-1.59,6.9,6.9,0,0,0,.68-.53,7.78,7.78,0,0,1,0-2.31m17.5.24a.61.61,0,0,0,.06-.56l-.56-1.55,1.42.85a2.4,2.4,0,0,1,.37.28l.86-.06a4,4,0,0,1,1.83.24V13.13a2.37,2.37,0,0,0-.68.33l-.36.33-.39-.3a1.75,1.75,0,0,0-1-.3,2.3,2.3,0,0,0-1.72.76c-.25.29-.48.6-.7.9v3.5c.35.27.71.26.9,0M217,6.1a9.57,9.57,0,0,0-4.3-1h-3.52a25.51,25.51,0,0,1-5.06-.26,5.91,5.91,0,0,1-1.59-.68L202.27,4l0,.25a5.51,5.51,0,0,0,2.45,3.61c.44.31.74.62.74,1.73v.73a9.25,9.25,0,0,1,1.61-.78,5,5,0,0,0-.65.7,4.33,4.33,0,0,1,1.68-.61,6.15,6.15,0,0,1,2.24,0V9.28h2c2.58,0,4.05,1.65,4.05,4.52s-1.47,4.48-4.05,4.48h-.77a3.26,3.26,0,0,1,1.11,2.41,3.21,3.21,0,0,1-.6,1.84,9.47,9.47,0,0,0,5.7-1.59,8.3,8.3,0,0,0,1.87-1.71,8.89,8.89,0,0,0,1.82-5.48A8.45,8.45,0,0,0,217,6.1"/><path class="cls-3" d="M191.82,7.16A4.15,4.15,0,0,1,193,3.68a4.87,4.87,0,0,1,4-1.42,4.2,4.2,0,0,1,4.31,4.31A6.43,6.43,0,0,1,200.07,10a.8.8,0,0,0-.13-.13l-.48-.45a9.21,9.21,0,0,1-1.39-1.47c.8-1.45.35-3.51-1.34-3.51A1.86,1.86,0,0,0,195,6.53a4.85,4.85,0,0,0-.34,2.13,2.59,2.59,0,0,1-1.08-1.1L193,6.07l-.49,1.53a2.71,2.71,0,0,0-.08,1.17h0a3.34,3.34,0,0,1-.55-1.61M189.9,12.5c.83-.83,2.53-1.35,2.65-1.8s-.77-1.21-1.1-1.35a5.06,5.06,0,0,1,1.82.18A2.14,2.14,0,0,1,193,7.78c.66,1.59,3,1.84,3.6,3.15a2.55,2.55,0,0,0-1.24-1.57,3.77,3.77,0,0,1,.32-2.89c-.14,2.29,3.12,3.59,3.8,5.25-.4-1.42-1.92-2.32-2.64-3.17a2.33,2.33,0,0,1,.2-1.85c-.07,1.53,1.58,2.72,2.46,3.58a3,3,0,0,1,1.2,2.62.62.62,0,0,1,.48.66,1.31,1.31,0,0,0,.76-.69,2.75,2.75,0,0,1-1.26,2.69,1,1,0,0,0-.14-1c-.33-.41-1.29-.42-1.61-.39,0,0,.39-.59.24-.89s-2.07-.2-2.9.1a3.57,3.57,0,0,1,1.19.14c-.13.2-.47,1-.23,1.27s.53-.17.53-.17-.29.9-.08,1.11.65.06.65.06A2.47,2.47,0,0,1,196.24,17a1.57,1.57,0,0,0,.78-.86,2,2,0,0,1-.91.12,1.41,1.41,0,0,0,.58-1.44c-.22-1-1.67-1.17-2.4-.67a2.86,2.86,0,0,1,1.49-1.56,6.3,6.3,0,0,0-1.1-.28,4.21,4.21,0,0,1,2.22-.66,3.76,3.76,0,0,0-3.32,1,5.31,5.31,0,0,1,1.1.2,6.7,6.7,0,0,0-2.86,1.61A3.17,3.17,0,0,0,192,13c-.2-.51-.82-.73-2-.47m9.4.11a1.85,1.85,0,0,0-1.09-1.11c.17.58.39,1.11,1.09,1.11m12.77,8.08a3,3,0,0,0-3.48-2.81,1.6,1.6,0,0,1,1.27,1.46c0,1.31-1.64,1.72-2.54,1.51a2.1,2.1,0,0,0-.33-3.27,1.15,1.15,0,0,1-1.92,1.21c-.63-.52-2.1-1.75-2.75-2.27s-1.42-.22-1.73-.45-.12-1-.59-1.27-.78-.1-1.24-.25a.86.86,0,0,1-.67-.9,1.13,1.13,0,0,0,.12,1.22c.32.36.84.58,1,1s-.19,1.23,1.06,2.21c.59.46,1.51,1.23,2.11,1.75,1,.89.47,2,.6,3a2.38,2.38,0,0,0,1.67,1.92,1.76,1.76,0,0,1,0-2.4A3.16,3.16,0,0,0,207,25.12,3.82,3.82,0,0,0,210.75,24a2.65,2.65,0,0,1-2.33-.49,3.06,3.06,0,0,0,3.65-2.79m-10-.43c-.51-.46-1.28-1.1-1.87-1.56-.66,1.13-2.06,2.6-3.49,2.6-2.62,0-3.94-3.71-1-6.75a1.2,1.2,0,0,0-.39-.06,1.14,1.14,0,0,0-.66.18l-1.16.8.26-1.48.09-.23a6.51,6.51,0,0,0-1.57,1.08l-1.14,1.24.13-1.75c0-.13,0-.27.07-.39a2.14,2.14,0,0,0,.09-.76.22.22,0,0,0-.08-.09,5.63,5.63,0,0,0-2.21,3.67,1.65,1.65,0,0,1,.54-.5c.17-.06.31,0,.15.5-.06.19-1.49,4.07,1.33,6.76,0,0-.31-.79-.12-1s.21-.13.37.08.25.32.38.47h0a5.17,5.17,0,0,0,4.07,1.8c3.49,0,5.34-2.41,6.37-4.43l-.16-.15m6-8.43c-2.6.13-4.84,2.34-6,3.9a2,2,0,0,1,.62.33l1,.8a13.9,13.9,0,0,1,2.08-3.3,2.78,2.78,0,0,1,3.55-.54,5.16,5.16,0,0,1,3.58-.71,5.11,5.11,0,0,0-3.46-1.6c-1.22,0-1.92.6-2.09.33s.83-.86.83-.86c-1.45.06-2.5,1.76-2.94,1.55-.26-.13.39-1,.39-1a6.34,6.34,0,0,0-2.66,3.39,6.55,6.55,0,0,1,5.11-2.34m.44,6.63a1,1,0,0,1,.78.88.78.78,0,0,1-.42.69,1.62,1.62,0,0,1-.42.19,2.65,2.65,0,0,0,.12-.9c0-.55-.06-.86-.06-.86"/><polygon class="cls-2" points="21.85 46.28 21.85 83.78 57.35 79.14 57.35 41.64 21.85 46.28"/><polygon class="cls-4" points="21.85 46.28 21.85 83.78 57.35 79.14 57.35 41.64 21.85 46.28"/><path class="cls-5" d="M22.63,48.79l34.72-4.42M22.63,81l34.72-4.93"/><polygon class="cls-6" points="57.35 41.64 33.13 38.06 33.13 75.56 57.35 79.14 57.35 41.64"/><polygon class="cls-4" points="57.35 41.64 33.13 38.06 33.13 75.56 57.35 79.14 57.35 41.64"/><path class="cls-2" d="M252.17,75.56c-61.75,11.25-157.29-11.25-219,0V38.06c61.75-11.25,157.29,11.25,219,0Z"/><path class="cls-5" d="M252.17,41s-19.87,8-114-.29C71.62,34.8,38.41,40,33.28,40.86M253.05,71.94s-20.5,8.66-114.67.33c-66.51-5.89-99.72-.73-104.85.17"/><path class="cls-4" d="M252.17,75.56c-61.75,11.25-157.29-11.25-219,0V38.06c61.75-11.25,157.29,11.25,219,0Z"/></g></g></svg>