<svg xmlns="http://www.w3.org/2000/svg" viewBox="0 0 164.94 49.7"><defs><style>.cls-1{fill:#fff;}.cls-2{fill:#231f20;}</style></defs><title>Asset 5</title><g id="Layer_2" data-name="Layer 2"><g id="Layer_1-2" data-name="Layer 1"><path class="cls-1" d="M5,49.2H160c0-2.54,4.45-3.92,4.45-3.92V.5h-2.58s-2.11,4-8.9,0H12c-6.8,4-8.91,0-8.91,0H.5V45.28S5,46.66,5,49.2"/><path class="cls-2" d="M2.81,1A4.48,4.48,0,0,0,5.94,2.71a.9.9,0,0,0,1.6,0A12.4,12.4,0,0,0,12.12,1h140.7a12.46,12.46,0,0,0,4.58,1.68.9.9,0,0,0,1.6,0A4.46,4.46,0,0,0,162.13,1h1.81v9a99.23,99.23,0,0,0-1.47,15.72V41.47c-1.84,3-5.27,7.23-9.81,7.23H12.28c-4.53,0-8-4.26-9.81-7.23V25.72A99.23,99.23,0,0,0,1,10V1ZM163.94,38.77c-.11.23-.43.93-1,1.86V25.72a91.74,91.74,0,0,1,1-12.43Zm-4.41,9.93h-2.84c3.5-1.76,6-5.46,7.25-7.73v4c-1,.38-4,1.64-4.41,3.78M5.4,48.7C5,46.56,2,45.3,1,44.92V41c1.27,2.27,3.75,6,7.25,7.73ZM2,40.63c-.53-.93-.86-1.63-1-1.86V13.29A91.74,91.74,0,0,1,2,25.72ZM.35,45.76c1.14.35,4.1,1.66,4.1,3.44v.5h156v-.5c0-1.77,3-3.09,4.1-3.44l.35-.11V0h-3.37l-.15.26a3.31,3.31,0,0,1-2.48,1.45.89.89,0,0,0-1.44,0A11.7,11.7,0,0,1,153.21.07L153.09,0H11.85l-.11.07a11.8,11.8,0,0,1-4.3,1.61A.89.89,0,0,0,6,1.71,3.31,3.31,0,0,1,3.52.26L3.38,0H0V45.65Z"/></g></g></svg>