<svg xmlns="http://www.w3.org/2000/svg" viewBox="0 0 180 247.39"><defs><style>.cls-1{fill:#dcddde;}</style></defs><title>Asset 9</title><g id="Layer_2" data-name="Layer 2"><g id="Layer_1-2" data-name="Layer 1"><path class="cls-1" d="M10.44,0H4.58C3.65,2,0,4.15,0,4.15V6.73A26.74,26.74,0,0,1,10.44,0"/><path class="cls-1" d="M169.55,247.39h5.87c.93-2,4.58-4.15,4.58-4.15v-2.57a26.72,26.72,0,0,1-10.45,6.72"/><path class="cls-1" d="M180,6.73V4.15S176.35,2,175.42,0h-5.87A26.61,26.61,0,0,1,180,6.73"/><path class="cls-1" d="M0,240.67v2.58s3.65,2.16,4.58,4.14h5.87A26.72,26.72,0,0,1,0,240.67"/><path class="cls-1" d="M0,227.08v9.62c.28.44.62,1,1,1.5a13.44,13.44,0,0,1,.31-6.15Z"/><path class="cls-1" d="M168.56,244.75H106.32a.77.77,0,0,1-.68.41.79.79,0,1,1,0-1.57.77.77,0,0,1,.68.41h62.24a12.78,12.78,0,0,0,9.7-4.93,13.17,13.17,0,0,0-.1-6.94l0-.07,0-.07,1.84-6.84V22.24l-1.86-6.91,0-.07a13.14,13.14,0,0,0,.1-6.93,12.81,12.81,0,0,0-9.7-4.94H106.32a.77.77,0,0,1-.68.41.79.79,0,1,1,0-1.57.77.77,0,0,1,.68.41h62.24c5.73,0,9.51,4,11.44,6.71V7.46A25.61,25.61,0,0,0,167.75,0H12.24A25.64,25.64,0,0,0,0,7.45v1.9C1.94,6.6,5.71,2.64,11.44,2.64H73.68a.77.77,0,0,1,.68-.41.79.79,0,1,1,0,1.57.77.77,0,0,1-.68-.41H11.44a12.81,12.81,0,0,0-9.7,4.94,13.14,13.14,0,0,0,.1,6.93l0,.07,0,.07L0,22.24V225.15l1.86,6.91,0,.07a13.14,13.14,0,0,0-.1,6.93,12.81,12.81,0,0,0,9.7,4.94H73.68a.77.77,0,0,1,.68-.41.79.79,0,1,1,0,1.57.77.77,0,0,1-.68-.41H11.44c-5.73,0-9.5-3.95-11.44-6.7v1.89a25.69,25.69,0,0,0,12.25,7.45h155.5A25.69,25.69,0,0,0,180,239.94v-1.89c-1.93,2.75-5.71,6.7-11.44,6.7"/><path class="cls-1" d="M0,10.7v9.62l1.34-5A13.4,13.4,0,0,1,1,9.2c-.41.54-.75,1.05-1,1.5"/><path class="cls-1" d="M180,20.32V10.7c-.28-.45-.62-1-1-1.5a13.4,13.4,0,0,1-.31,6.14Z"/><path class="cls-1" d="M179,238.2a13.44,13.44,0,0,0-.31-6.15l1.34-5v9.62c-.28.44-.62,1-1,1.5"/></g></g></svg>