<svg xmlns="http://www.w3.org/2000/svg" viewBox="0 0 164.94 49.7"><defs><style>.cls-1{fill:#fff;}.cls-2{fill:#231f20;}</style></defs><title>Asset 7</title><g id="Layer_2" data-name="Layer 2"><g id="Layer_1-2" data-name="Layer 1"><path class="cls-1" d="M161.86.5s-2.11,4-8.91,0H12c-6.79,4-8.9,0-8.9,0H.5V49.2H3.08s2.11-4,8.9,0H153c6.8-4,8.91,0,8.91,0h2.58V.5Z"/><path class="cls-2" d="M163.94,36.41A91.74,91.74,0,0,1,163,24v1.74a91.74,91.74,0,0,1,1-12.43Zm0,12.29h-1.81A4.46,4.46,0,0,0,159,47a.91.91,0,0,0-1.6,0,12.58,12.58,0,0,0-4.58,1.68H12.12A12.58,12.58,0,0,0,7.54,47a.91.91,0,0,0-1.6,0A4.48,4.48,0,0,0,2.81,48.7H1v-9A99.45,99.45,0,0,0,2.47,24v1.74A99.23,99.23,0,0,0,1,10V1H2.81A4.48,4.48,0,0,0,5.94,2.71a.9.9,0,0,0,1.6,0A12.4,12.4,0,0,0,12.12,1h140.7a12.4,12.4,0,0,0,4.58,1.68.9.9,0,0,0,1.6,0A4.46,4.46,0,0,0,162.13,1h1.81v9a99.23,99.23,0,0,0-1.47,15.72V24a99.45,99.45,0,0,0,1.47,15.73ZM1,13.29A91.74,91.74,0,0,1,2,25.72V24A91.74,91.74,0,0,1,1,36.41ZM161.57,0l-.15.26a3.31,3.31,0,0,1-2.48,1.45.89.89,0,0,0-1.44,0A11.7,11.7,0,0,1,153.21.07L153.09,0H11.85l-.12.07A11.7,11.7,0,0,1,7.44,1.68.89.89,0,0,0,6,1.71,3.35,3.35,0,0,1,3.52.27L3.38,0H0V49.7H3.38l.14-.26A3.31,3.31,0,0,1,6,48a.92.92,0,0,0,.73.37A.91.91,0,0,0,7.44,48a11.7,11.7,0,0,1,4.29,1.61l.12.07H153.09l.12-.07A11.7,11.7,0,0,1,157.5,48a.91.91,0,0,0,.71.35.92.92,0,0,0,.73-.37,3.31,3.31,0,0,1,2.48,1.44l.14.26h3.38V0Z"/></g></g></svg>