<?xml version="1.0" encoding="utf-8"?>

<svg version="1.1" id="Icons" xmlns="http://www.w3.org/2000/svg" xmlns:xlink="http://www.w3.org/1999/xlink" x="0px" y="0px"
	 viewBox="0 0 32 32" style="enable-background:new 0 0 32 32;" xml:space="preserve">
<style type="text/css">
	.st0{fill:none;stroke:#000000;stroke-width:2;stroke-linecap:round;stroke-linejoin:round;stroke-miterlimit:10;}
	.st1{fill:none;stroke:#000000;stroke-width:2;stroke-linejoin:round;stroke-miterlimit:10;}
</style>
<circle class="st0" cx="24" cy="23" r="7"/>
<line class="st0" x1="21.9" y1="20.9" x2="26.1" y2="25.1"/>
<line class="st0" x1="21.9" y1="25.1" x2="26.1" y2="20.9"/>
<path class="st0" d="M26.5,3c0.2,0,0.3,0,0.5,0c2.6,0.3,3.9,3.4,2.4,5.6L24.5,16"/>
<line class="st0" x1="26" y1="3" x2="9.5" y2="3"/>
<path class="st0" d="M11.3,10.3l-8.7,13C1.2,25.5,2.4,28.7,5,29c0.2,0,0.3,0,0.5,0h14.9"/>
<path class="st0" d="M9,3C6.8,3,5,4.8,5,7c0,0.5,0.2,1,0.4,1.4c0.6,1,1.8,1.6,3,1.6H24c-1,0-3.1-2.8-0.9-5.5C23.8,3.6,24.9,3,26,3
	c2.2,0,4,1.8,4,4"/>
<line class="st0" x1="13" y1="15" x2="18" y2="15"/>
<line class="st0" x1="11" y1="18" x2="14" y2="18"/>
</svg>
