<?xml version="1.0" encoding="UTF-8" standalone="no"?>
<!-- Created with Inkscape (http://www.inkscape.org/) -->

<svg
   xmlns:dc="http://purl.org/dc/elements/1.1/"
   xmlns:cc="http://creativecommons.org/ns#"
   xmlns:rdf="http://www.w3.org/1999/02/22-rdf-syntax-ns#"
   xmlns:svg="http://www.w3.org/2000/svg"
   xmlns="http://www.w3.org/2000/svg"
   xmlns:sodipodi="http://sodipodi.sourceforge.net/DTD/sodipodi-0.dtd"
   xmlns:inkscape="http://www.inkscape.org/namespaces/inkscape"
   width="202.22023mm"
   height="63.207302mm"
   viewBox="0 0 202.22023 63.207302"
   version="1.1"
   id="svg8"
   inkscape:version="0.92.5 (2060ec1f9f, 2020-04-08)"
   sodipodi:docname="they-came-from-beneath-the-seath.svg">
  <defs
     id="defs2">
    <filter
       inkscape:label="Cracked Lava"
       inkscape:menu="Materials"
       inkscape:menu-tooltip="A volcanic texture, a little like leather"
       style="color-interpolation-filters:sRGB"
       id="filter5212">
      <feGaussianBlur
         result="result0"
         in="SourceGraphic"
         stdDeviation="0.5"
         id="feGaussianBlur5180" />
      <feTurbulence
         baseFrequency="0.042"
         seed="488"
         numOctaves="7"
         result="result1"
         id="feTurbulence5182" />
      <feDisplacementMap
         result="result5"
         xChannelSelector="R"
         scale="0"
         in2="result1"
         in="result1"
         yChannelSelector="G"
         id="feDisplacementMap5184" />
      <feComposite
         result="result2"
         operator="in"
         in2="result5"
         in="result0"
         id="feComposite5186" />
      <feSpecularLighting
         lighting-color="#ffe688"
         surfaceScale="2"
         result="result4"
         specularConstant="2"
         specularExponent="65"
         in="result2"
         id="feSpecularLighting5190">
        <feDistantLight
           elevation="62"
           azimuth="225"
           id="feDistantLight5188" />
      </feSpecularLighting>
      <feComposite
         k1="2.5"
         k3="1"
         k2="-0.5"
         in2="result2"
         in="result4"
         operator="arithmetic"
         result="result91"
         id="feComposite5192"
         k4="0" />
      <feBlend
         result="fbSourceGraphic"
         mode="multiply"
         in2="result91"
         id="feBlend5194" />
      <feColorMatrix
         values="1 0 0 -1 0 1 0 1 -1 0 1 0 0 -1 0 -2 -0.5 0 5 -2"
         in="fbSourceGraphic"
         result="fbSourceGraphicAlpha"
         id="feColorMatrix5196" />
      <feGaussianBlur
         stdDeviation="8"
         in="fbSourceGraphicAlpha"
         result="result0"
         id="feGaussianBlur5198" />
      <feOffset
         dx="2"
         dy="2"
         in="result0"
         result="result3"
         id="feOffset5200" />
      <feSpecularLighting
         in="result0"
         result="result1"
         lighting-color="#ffffff"
         surfaceScale="4"
         specularConstant="0.80000001"
         specularExponent="15"
         id="feSpecularLighting5204">
        <fePointLight
           x="-5000"
           y="-10000"
           z="20000"
           id="fePointLight5202" />
      </feSpecularLighting>
      <feComposite
         in2="fbSourceGraphicAlpha"
         in="result1"
         result="result2"
         operator="in"
         id="feComposite5206" />
      <feComposite
         in="fbSourceGraphic"
         result="result4"
         operator="arithmetic"
         k2="2"
         k3="2"
         in2="result2"
         id="feComposite5208"
         k1="0"
         k4="0" />
      <feBlend
         mode="darken"
         in2="result4"
         id="feBlend5210" />
    </filter>
  </defs>
  <sodipodi:namedview
     id="base"
     pagecolor="#ffffff"
     bordercolor="#666666"
     borderopacity="1.0"
     inkscape:pageopacity="0.0"
     inkscape:pageshadow="2"
     inkscape:zoom="0.7"
     inkscape:cx="167.1504"
     inkscape:cy="88.249624"
     inkscape:document-units="mm"
     inkscape:current-layer="layer1"
     showgrid="false"
     inkscape:window-width="1848"
     inkscape:window-height="1016"
     inkscape:window-x="72"
     inkscape:window-y="27"
     inkscape:window-maximized="1"
     fit-margin-top="0"
     fit-margin-left="0"
     fit-margin-right="0"
     fit-margin-bottom="0" />
  <metadata
     id="metadata5">
    <rdf:RDF>
      <cc:Work
         rdf:about="">
        <dc:format>image/svg+xml</dc:format>
        <dc:type
           rdf:resource="http://purl.org/dc/dcmitype/StillImage" />
        <dc:title></dc:title>
      </cc:Work>
    </rdf:RDF>
  </metadata>
  <g
     inkscape:label="Layer 1"
     inkscape:groupmode="layer"
     id="layer1"
     transform="translate(-3.8898894,-116.89636)">
    <g
       aria-label="THEY CAME FROM
BENEATH THE SEA"
       style="font-style:normal;font-variant:normal;font-weight:normal;font-stretch:normal;font-size:25.39999962px;line-height:1.25;font-family:Impact;-inkscape-font-specification:Impact;text-align:center;letter-spacing:0px;word-spacing:0px;text-anchor:middle;fill:#beddd2;fill-opacity:1;stroke:#10675b;stroke-width:1;stroke-miterlimit:4;stroke-dasharray:none;stroke-opacity:1;filter:url(#filter5212)"
       id="text817">
      <path
         d="m 32.15173,122.58531 v 4.01836 h -3.100586 v 16.06103 h -5.221387 v -16.06103 h -3.088183 v -4.01836 z"
         style="font-style:normal;font-variant:normal;font-weight:normal;font-stretch:normal;font-size:25.39999962px;font-family:Impact;-inkscape-font-specification:Impact;text-align:center;text-anchor:middle;fill:#beddd2;fill-opacity:1;stroke:#10675b;stroke-width:1;stroke-miterlimit:4;stroke-dasharray:none;stroke-opacity:1"
         id="path4589"
         inkscape:connector-curvature="0" />
      <path
         d="m 45.347823,122.58531 v 20.07939 h -5.221386 v -8.43359 h -1.562695 v 8.43359 h -5.221387 v -20.07939 h 5.221387 v 7.18096 h 1.562695 v -7.18096 z"
         style="font-style:normal;font-variant:normal;font-weight:normal;font-stretch:normal;font-size:25.39999962px;font-family:Impact;-inkscape-font-specification:Impact;text-align:center;text-anchor:middle;fill:#beddd2;fill-opacity:1;stroke:#10675b;stroke-width:1;stroke-miterlimit:4;stroke-dasharray:none;stroke-opacity:1"
         id="path4591"
         inkscape:connector-curvature="0" />
      <path
         d="m 47.443819,122.58531 h 8.706445 v 4.01836 h -3.485058 v 3.80752 h 3.261816 v 3.81992 h -3.261816 v 4.41523 h 3.832324 v 4.01836 h -9.053711 z"
         style="font-style:normal;font-variant:normal;font-weight:normal;font-stretch:normal;font-size:25.39999962px;font-family:Impact;-inkscape-font-specification:Impact;text-align:center;text-anchor:middle;fill:#beddd2;fill-opacity:1;stroke:#10675b;stroke-width:1;stroke-miterlimit:4;stroke-dasharray:none;stroke-opacity:1"
         id="path4593"
         inkscape:connector-curvature="0" />
      <path
         d="m 69.123115,122.58531 -3.807519,12.81162 v 7.26777 h -4.836914 v -7.26777 l -3.671094,-12.81162 h 4.799707 q 1.128613,5.86631 1.265039,7.90029 0.434082,-3.2122 1.451074,-7.90029 z"
         style="font-style:normal;font-variant:normal;font-weight:normal;font-stretch:normal;font-size:25.39999962px;font-family:Impact;-inkscape-font-specification:Impact;text-align:center;text-anchor:middle;fill:#beddd2;fill-opacity:1;stroke:#10675b;stroke-width:1;stroke-miterlimit:4;stroke-dasharray:none;stroke-opacity:1"
         id="path4595"
         inkscape:connector-curvature="0" />
      <path
         d="m 86.684834,131.34136 h -5.221387 v -3.49746 q 0,-1.52549 -0.173633,-1.89756 -0.16123,-0.38447 -0.731738,-0.38447 -0.644922,0 -0.818555,0.45889 -0.173632,0.45889 -0.173632,1.98437 v 9.32657 q 0,1.46347 0.173632,1.90996 0.173633,0.44648 0.781348,0.44648 0.58291,0 0.756543,-0.44648 0.186035,-0.44649 0.186035,-2.096 v -2.51768 h 5.221387 v 0.78135 q 0,3.11299 -0.446485,4.41524 -0.434082,1.30224 -1.947167,2.28203 -1.500684,0.97978 -3.708301,0.97978 -2.294434,0 -3.782715,-0.83095 -1.488281,-0.83096 -1.971973,-2.29444 -0.483691,-1.47588 -0.483691,-4.42763 v -5.86631 q 0,-2.17041 0.148828,-3.24942 0.148828,-1.0914 0.880567,-2.09599 0.74414,-1.00459 2.046386,-1.5751 1.314649,-0.58291 3.01377,-0.58291 2.306836,0 3.807519,0.89297 1.500684,0.89297 1.971973,2.23242 0.471289,1.32705 0.471289,4.14238 z"
         style="font-style:normal;font-variant:normal;font-weight:normal;font-stretch:normal;font-size:25.39999962px;font-family:Impact;-inkscape-font-specification:Impact;text-align:center;text-anchor:middle;fill:#beddd2;fill-opacity:1;stroke:#10675b;stroke-width:1;stroke-miterlimit:4;stroke-dasharray:none;stroke-opacity:1"
         id="path4597"
         inkscape:connector-curvature="0" />
      <path
         d="m 97.574089,122.58531 2.988961,20.07939 h -5.345407 l -0.260449,-3.60908 H 93.08444 l -0.310058,3.60908 H 87.36696 l 2.654101,-20.07939 z m -2.765723,12.91084 q -0.396875,-3.41065 -0.79375,-8.42119 -0.79375,5.75468 -0.992187,8.42119 z"
         style="font-style:normal;font-variant:normal;font-weight:normal;font-stretch:normal;font-size:25.39999962px;font-family:Impact;-inkscape-font-specification:Impact;text-align:center;text-anchor:middle;fill:#beddd2;fill-opacity:1;stroke:#10675b;stroke-width:1;stroke-miterlimit:4;stroke-dasharray:none;stroke-opacity:1"
         id="path4599"
         inkscape:connector-curvature="0" />
      <path
         d="m 117.56667,122.58531 v 20.07939 h -4.56407 v -13.55576 l -1.82314,13.55576 h -3.23701 l -1.92237,-13.2457 v 13.2457 h -4.56406 v -20.07939 h 6.75928 q 0.29766,1.81074 0.63252,4.26641 l 0.71934,5.10976 1.19062,-9.37617 z"
         style="font-style:normal;font-variant:normal;font-weight:normal;font-stretch:normal;font-size:25.39999962px;font-family:Impact;-inkscape-font-specification:Impact;text-align:center;text-anchor:middle;fill:#beddd2;fill-opacity:1;stroke:#10675b;stroke-width:1;stroke-miterlimit:4;stroke-dasharray:none;stroke-opacity:1"
         id="path4601"
         inkscape:connector-curvature="0" />
      <path
         d="m 119.66266,122.58531 h 8.70645 v 4.01836 h -3.48506 v 3.80752 h 3.26182 v 3.81992 h -3.26182 v 4.41523 h 3.83233 v 4.01836 h -9.05372 z"
         style="font-style:normal;font-variant:normal;font-weight:normal;font-stretch:normal;font-size:25.39999962px;font-family:Impact;-inkscape-font-specification:Impact;text-align:center;text-anchor:middle;fill:#beddd2;fill-opacity:1;stroke:#10675b;stroke-width:1;stroke-miterlimit:4;stroke-dasharray:none;stroke-opacity:1"
         id="path4603"
         inkscape:connector-curvature="0" />
      <path
         d="m 134.6943,122.58531 h 8.84287 v 4.01836 h -3.62148 v 3.80752 h 3.22461 v 3.81992 h -3.22461 v 8.43359 h -5.22139 z"
         style="font-style:normal;font-variant:normal;font-weight:normal;font-stretch:normal;font-size:25.39999962px;font-family:Impact;-inkscape-font-specification:Impact;text-align:center;text-anchor:middle;fill:#beddd2;fill-opacity:1;stroke:#10675b;stroke-width:1;stroke-miterlimit:4;stroke-dasharray:none;stroke-opacity:1"
         id="path4605"
         inkscape:connector-curvature="0" />
      <path
         d="m 144.80221,122.58531 h 3.6959 q 3.6959,0 4.99815,0.28525 1.31465,0.28526 2.1332,1.46348 0.83096,1.16582 0.83096,3.7331 0,2.34405 -0.58291,3.1502 -0.58291,0.80615 -2.29444,0.96738 1.5503,0.38448 2.0836,1.0294 0.5333,0.64492 0.65732,1.19062 0.13643,0.5333 0.13643,2.96416 v 5.2958 h -4.84932 v -6.67246 q 0,-1.6123 -0.26045,-1.99677 -0.24805,-0.38448 -1.32705,-0.38448 v 9.05371 h -5.22139 z m 5.22139,3.43545 v 4.46484 q 0.88057,0 1.22783,-0.23564 0.35967,-0.24805 0.35967,-1.5751 v -1.10381 q 0,-0.95498 -0.34727,-1.25264 -0.33486,-0.29765 -1.24023,-0.29765 z"
         style="font-style:normal;font-variant:normal;font-weight:normal;font-stretch:normal;font-size:25.39999962px;font-family:Impact;-inkscape-font-specification:Impact;text-align:center;text-anchor:middle;fill:#beddd2;fill-opacity:1;stroke:#10675b;stroke-width:1;stroke-miterlimit:4;stroke-dasharray:none;stroke-opacity:1"
         id="path4607"
         inkscape:connector-curvature="0" />
      <path
         d="m 170.41305,134.34273 q 0,3.02617 -0.14882,4.29121 -0.13643,1.25264 -0.89297,2.29444 -0.74414,1.04179 -2.02158,1.5999 -1.27745,0.5581 -2.97657,0.5581 -1.6123,0 -2.90214,-0.5209 -1.27745,-0.5333 -2.05879,-1.5875 -0.78135,-1.05419 -0.93018,-2.29443 -0.14883,-1.24023 -0.14883,-4.34082 v -3.43545 q 0,-3.02617 0.13643,-4.27881 0.14883,-1.26504 0.89297,-2.30683 0.75654,-1.0418 2.03398,-1.59991 1.27744,-0.5581 2.97656,-0.5581 1.61231,0 2.88975,0.5333 1.28984,0.5209 2.07119,1.5751 0.78135,1.0542 0.93018,2.29443 0.14882,1.24024 0.14882,4.34082 z m -5.22138,-6.59805 q 0,-1.40146 -0.16123,-1.78593 -0.14883,-0.39688 -0.63252,-0.39688 -0.40928,0 -0.63252,0.32246 -0.21084,0.31006 -0.21084,1.86035 v 9.37618 q 0,1.74873 0.13642,2.158 0.14883,0.40928 0.66973,0.40928 0.5333,0 0.68213,-0.47129 0.14883,-0.47129 0.14883,-2.24482 z"
         style="font-style:normal;font-variant:normal;font-weight:normal;font-stretch:normal;font-size:25.39999962px;font-family:Impact;-inkscape-font-specification:Impact;text-align:center;text-anchor:middle;fill:#beddd2;fill-opacity:1;stroke:#10675b;stroke-width:1;stroke-miterlimit:4;stroke-dasharray:none;stroke-opacity:1"
         id="path4609"
         inkscape:connector-curvature="0" />
      <path
         d="m 188.47086,122.58531 v 20.07939 h -4.56406 v -13.55576 l -1.82314,13.55576 h -3.23701 l -1.92237,-13.2457 v 13.2457 h -4.56406 v -20.07939 h 6.75928 q 0.29765,1.81074 0.63252,4.26641 l 0.71933,5.10976 1.19063,-9.37617 z"
         style="font-style:normal;font-variant:normal;font-weight:normal;font-stretch:normal;font-size:25.39999962px;font-family:Impact;-inkscape-font-specification:Impact;text-align:center;text-anchor:middle;fill:#beddd2;fill-opacity:1;stroke:#10675b;stroke-width:1;stroke-miterlimit:4;stroke-dasharray:none;stroke-opacity:1"
         id="path4611"
         inkscape:connector-curvature="0" />
      <path
         d="m 22.050021,154.33531 h 5.208984 q 2.468067,0 3.733106,0.38447 1.277441,0.38447 2.058789,1.5627 0.781347,1.16582 0.781347,3.77031 0,1.76113 -0.558105,2.45566 -0.545703,0.69453 -2.17041,1.0666 1.810742,0.40928 2.455664,1.36426 0.644922,0.94258 0.644922,2.90215 v 1.86035 q 0,2.03399 -0.471289,3.01377 -0.458887,0.97979 -1.475879,1.33945 -1.016992,0.35967 -4.167188,0.35967 h -6.039941 z m 5.221387,3.43545 v 4.46484 q 0.334863,-0.0124 0.520898,-0.0124 0.768945,0 0.979785,-0.37207 0.21084,-0.38447 0.21084,-2.17041 0,-0.94258 -0.173633,-1.31465 -0.173632,-0.38447 -0.458886,-0.48369 -0.272852,-0.0992 -1.079004,-0.11162 z m 0,7.59023 v 5.61826 q 1.103808,-0.0372 1.401465,-0.34726 0.310058,-0.31006 0.310058,-1.52549 v -1.87275 q 0,-1.28985 -0.272851,-1.5627 -0.272852,-0.27285 -1.438672,-0.31006 z"
         style="font-style:normal;font-variant:normal;font-weight:normal;font-stretch:normal;font-size:25.39999962px;font-family:Impact;-inkscape-font-specification:Impact;text-align:center;text-anchor:middle;fill:#beddd2;fill-opacity:1;stroke:#10675b;stroke-width:1;stroke-miterlimit:4;stroke-dasharray:none;stroke-opacity:1"
         id="path4613"
         inkscape:connector-curvature="0" />
      <path
         d="m 36.077072,154.33531 h 8.706445 v 4.01836 h -3.485058 v 3.80752 h 3.261816 v 3.81992 h -3.261816 v 4.41523 h 3.832324 v 4.01836 h -9.053711 z"
         style="font-style:normal;font-variant:normal;font-weight:normal;font-stretch:normal;font-size:25.39999962px;font-family:Impact;-inkscape-font-specification:Impact;text-align:center;text-anchor:middle;fill:#beddd2;fill-opacity:1;stroke:#10675b;stroke-width:1;stroke-miterlimit:4;stroke-dasharray:none;stroke-opacity:1"
         id="path4615"
         inkscape:connector-curvature="0" />
      <path
         d="m 58.28967,154.33531 v 20.07939 h -4.576465 l -2.716113,-9.12812 v 9.12812 h -4.365625 v -20.07939 h 4.365625 l 2.926953,9.04131 v -9.04131 z"
         style="font-style:normal;font-variant:normal;font-weight:normal;font-stretch:normal;font-size:25.39999962px;font-family:Impact;-inkscape-font-specification:Impact;text-align:center;text-anchor:middle;fill:#beddd2;fill-opacity:1;stroke:#10675b;stroke-width:1;stroke-miterlimit:4;stroke-dasharray:none;stroke-opacity:1"
         id="path4617"
         inkscape:connector-curvature="0" />
      <path
         d="m 60.385665,154.33531 h 8.706445 v 4.01836 h -3.485059 v 3.80752 h 3.261817 v 3.81992 h -3.261817 v 4.41523 h 3.832325 v 4.01836 h -9.053711 z"
         style="font-style:normal;font-variant:normal;font-weight:normal;font-stretch:normal;font-size:25.39999962px;font-family:Impact;-inkscape-font-specification:Impact;text-align:center;text-anchor:middle;fill:#beddd2;fill-opacity:1;stroke:#10675b;stroke-width:1;stroke-miterlimit:4;stroke-dasharray:none;stroke-opacity:1"
         id="path4619"
         inkscape:connector-curvature="0" />
      <path
         d="m 79.956562,154.33531 2.988965,20.07939 h -5.34541 l -0.260449,-3.60908 h -1.872754 l -0.310059,3.60908 h -5.407421 l 2.654101,-20.07939 z m -2.765722,12.91084 q -0.396875,-3.41065 -0.79375,-8.42119 -0.79375,5.75468 -0.992188,8.42119 z"
         style="font-style:normal;font-variant:normal;font-weight:normal;font-stretch:normal;font-size:25.39999962px;font-family:Impact;-inkscape-font-specification:Impact;text-align:center;text-anchor:middle;fill:#beddd2;fill-opacity:1;stroke:#10675b;stroke-width:1;stroke-miterlimit:4;stroke-dasharray:none;stroke-opacity:1"
         id="path4621"
         inkscape:connector-curvature="0" />
      <path
         d="m 92.954221,154.33531 v 4.01836 h -3.100586 v 16.06103 h -5.221387 v -16.06103 h -3.088183 v -4.01836 z"
         style="font-style:normal;font-variant:normal;font-weight:normal;font-stretch:normal;font-size:25.39999962px;font-family:Impact;-inkscape-font-specification:Impact;text-align:center;text-anchor:middle;fill:#beddd2;fill-opacity:1;stroke:#10675b;stroke-width:1;stroke-miterlimit:4;stroke-dasharray:none;stroke-opacity:1"
         id="path4623"
         inkscape:connector-curvature="0" />
      <path
         d="m 106.15032,154.33531 v 20.07939 h -5.22139 v -8.43359 h -1.562697 v 8.43359 h -5.221386 v -20.07939 h 5.221386 v 7.18096 h 1.562697 v -7.18096 z"
         style="font-style:normal;font-variant:normal;font-weight:normal;font-stretch:normal;font-size:25.39999962px;font-family:Impact;-inkscape-font-specification:Impact;text-align:center;text-anchor:middle;fill:#beddd2;fill-opacity:1;stroke:#10675b;stroke-width:1;stroke-miterlimit:4;stroke-dasharray:none;stroke-opacity:1"
         id="path4625"
         inkscape:connector-curvature="0" />
      <path
         d="m 123.24075,154.33531 v 4.01836 h -3.10059 v 16.06103 h -5.22139 v -16.06103 h -3.08818 v -4.01836 z"
         style="font-style:normal;font-variant:normal;font-weight:normal;font-stretch:normal;font-size:25.39999962px;font-family:Impact;-inkscape-font-specification:Impact;text-align:center;text-anchor:middle;fill:#beddd2;fill-opacity:1;stroke:#10675b;stroke-width:1;stroke-miterlimit:4;stroke-dasharray:none;stroke-opacity:1"
         id="path4627"
         inkscape:connector-curvature="0" />
      <path
         d="m 136.43684,154.33531 v 20.07939 h -5.22139 v -8.43359 h -1.56269 v 8.43359 h -5.22139 v -20.07939 h 5.22139 v 7.18096 h 1.56269 v -7.18096 z"
         style="font-style:normal;font-variant:normal;font-weight:normal;font-stretch:normal;font-size:25.39999962px;font-family:Impact;-inkscape-font-specification:Impact;text-align:center;text-anchor:middle;fill:#beddd2;fill-opacity:1;stroke:#10675b;stroke-width:1;stroke-miterlimit:4;stroke-dasharray:none;stroke-opacity:1"
         id="path4629"
         inkscape:connector-curvature="0" />
      <path
         d="m 138.53283,154.33531 h 8.70645 v 4.01836 h -3.48506 v 3.80752 h 3.26182 v 3.81992 h -3.26182 v 4.41523 h 3.83232 v 4.01836 h -9.05371 z"
         style="font-style:normal;font-variant:normal;font-weight:normal;font-stretch:normal;font-size:25.39999962px;font-family:Impact;-inkscape-font-specification:Impact;text-align:center;text-anchor:middle;fill:#beddd2;fill-opacity:1;stroke:#10675b;stroke-width:1;stroke-miterlimit:4;stroke-dasharray:none;stroke-opacity:1"
         id="path4631"
         inkscape:connector-curvature="0" />
      <path
         d="m 164.62736,160.41246 h -4.84931 v -1.48828 q 0,-1.0418 -0.18604,-1.32705 -0.18604,-0.28526 -0.62012,-0.28526 -0.47129,0 -0.71933,0.38447 -0.23565,0.38448 -0.23565,1.16582 0,1.00459 0.27285,1.51309 0.26045,0.5085 1.47588,1.22783 3.48506,2.07119 4.39043,3.39824 0.90537,1.32705 0.90537,4.27881 0,2.14561 -0.50849,3.1626 -0.4961,1.01699 -1.93477,1.71152 -1.43867,0.68213 -3.34863,0.68213 -2.096,0 -3.58428,-0.79375 -1.47588,-0.79375 -1.93476,-2.02158 -0.45889,-1.22783 -0.45889,-3.48506 v -1.31465 h 4.84932 v 2.44327 q 0,1.12861 0.19843,1.45107 0.21084,0.32246 0.73174,0.32246 0.5209,0 0.76895,-0.40928 0.26045,-0.40927 0.26045,-1.21543 0,-1.77353 -0.4837,-2.31923 -0.49609,-0.54571 -2.44326,-1.82315 -1.94716,-1.28984 -2.57968,-1.87275 -0.63252,-0.58291 -1.0542,-1.61231 -0.40928,-1.02939 -0.40928,-2.62929 0,-2.30684 0.58291,-3.37344 0.59531,-1.0666 1.90996,-1.66192 1.31465,-0.60771 3.175,-0.60771 2.03398,0 3.46025,0.65732 1.43868,0.65733 1.89756,1.66192 0.47129,0.99218 0.47129,3.38584 z"
         style="font-style:normal;font-variant:normal;font-weight:normal;font-stretch:normal;font-size:25.39999962px;font-family:Impact;-inkscape-font-specification:Impact;text-align:center;text-anchor:middle;fill:#beddd2;fill-opacity:1;stroke:#10675b;stroke-width:1;stroke-miterlimit:4;stroke-dasharray:none;stroke-opacity:1"
         id="path4633"
         inkscape:connector-curvature="0" />
      <path
         d="m 166.69855,154.33531 h 8.70645 v 4.01836 h -3.48506 v 3.80752 h 3.26181 v 3.81992 h -3.26181 v 4.41523 h 3.83232 v 4.01836 h -9.05371 z"
         style="font-style:normal;font-variant:normal;font-weight:normal;font-stretch:normal;font-size:25.39999962px;font-family:Impact;-inkscape-font-specification:Impact;text-align:center;text-anchor:middle;fill:#beddd2;fill-opacity:1;stroke:#10675b;stroke-width:1;stroke-miterlimit:4;stroke-dasharray:none;stroke-opacity:1"
         id="path4635"
         inkscape:connector-curvature="0" />
      <path
         d="m 186.26945,154.33531 2.98897,20.07939 h -5.34541 l -0.26045,-3.60908 h -1.87276 l -0.31006,3.60908 h -5.40742 l 2.6541,-20.07939 z m -2.76572,12.91084 q -0.39688,-3.41065 -0.79375,-8.42119 -0.79375,5.75468 -0.99219,8.42119 z"
         style="font-style:normal;font-variant:normal;font-weight:normal;font-stretch:normal;font-size:25.39999962px;font-family:Impact;-inkscape-font-specification:Impact;text-align:center;text-anchor:middle;fill:#beddd2;fill-opacity:1;stroke:#10675b;stroke-width:1;stroke-miterlimit:4;stroke-dasharray:none;stroke-opacity:1"
         id="path4637"
         inkscape:connector-curvature="0" />
    </g>
  </g>
</svg>
