<svg xmlns="http://www.w3.org/2000/svg" viewBox="0 0 416 416"><!--!Font Awesome Free 6.7.2 by @fontawesome - https://fontawesome.com License - https://fontawesome.com/license/free Copyright 2025 Fonticons, Inc.--><path d="M240,32C240,14.3 225.7,0 208,0C190.3,0 176,14.3 176,32L176,176L32,176C14.3,176 0,190.3 0,208C0,225.7 14.3,240 32,240L176,240L176,384C176,401.7 190.3,416 208,416C225.7,416 240,401.7 240,384L240,240L384,240C401.7,240 416,225.7 416,208C416,190.3 401.7,176 384,176L240,176L240,32Z"/></svg>
