<svg xmlns="http://www.w3.org/2000/svg" version="1.1" xmlns:xlink="http://www.w3.org/1999/xlink" xmlns:svgjs="http://svgjs.com/svgjs" width="512" height="512" x="0" y="0" viewBox="0 0 24 24" style="enable-background:new 0 0 512 512" xml:space="preserve" class=""><g><path d="m22.963 14.676c-.001-.001-.003-.002-.004-.004l-1.538-1.413c.052-.426.079-.848.079-1.259s-.027-.833-.079-1.259l1.542-1.417c.509-.479.625-1.239.28-1.855l-1.697-2.934c-.34-.605-1.079-.893-1.756-.682l-1.996.63c-.677-.527-1.407-.951-2.175-1.263l-.461-2.049c-.151-.678-.764-1.171-1.458-1.171h-3.4c-.694 0-1.307.493-1.458 1.17l-.461 2.05c-.768.312-1.498.736-2.175 1.263l-1.998-.63c-.673-.209-1.414.076-1.75.676l-1.704 2.946c-.342.61-.226 1.37.288 1.853l1.538 1.413c-.053.426-.08.848-.08 1.259s.027.833.079 1.259l-1.542 1.417c-.509.479-.625 1.239-.28 1.854l1.697 2.934c.34.606 1.078.893 1.756.683l1.996-.63c.677.527 1.407.951 2.175 1.263l.461 2.048c.151.679.764 1.172 1.458 1.172h3.4c.694 0 1.307-.493 1.458-1.17l.461-2.05c.768-.312 1.498-.735 2.175-1.263l1.998.63c.675.211 1.414-.077 1.751-.677l1.704-2.946c.341-.609.225-1.369-.284-1.848zm-10.963 2.324c-2.757 0-5-2.243-5-5s2.243-5 5-5 5 2.243 5 5-2.243 5-5 5z" fill="#ffffff" data-original="#000000" class=""></path></g></svg>