<svg xmlns="http://www.w3.org/2000/svg" viewBox="0 0 320 320"><!--!Font Awesome Free 6.7.2 by @fontawesome - https://fontawesome.com License - https://fontawesome.com/license/free Copyright 2025 Fonticons, Inc.--><path d="M153.172,1.708C151.384,2.678 129.688,26.558 104.345,55.458C79.272,84.058 46.264,121.658 31.014,139.018C15.754,156.378 2.543,171.988 1.654,173.718C-2.254,181.278 0.574,187.668 12.157,197.458C16.714,201.308 22.74,206.478 25.548,208.958C28.356,211.438 34.642,216.838 39.498,220.958C44.355,225.078 50.641,230.478 53.459,232.958C56.277,235.438 62.783,241.058 67.899,245.458C73.016,249.858 77.723,253.928 78.343,254.498C78.962,255.068 89.385,264.068 101.507,274.498C113.629,284.928 129.588,298.678 136.983,305.058C151.504,317.598 155.141,319.958 159.918,319.958C164.695,319.958 168.372,317.578 186.4,302.008C195.744,293.938 213.312,278.818 225.424,268.398C278.299,222.968 290.591,212.358 294.888,208.528C297.396,206.288 303.552,200.928 308.559,196.618C322.469,184.658 323.409,178.208 312.936,166.368C304.222,156.518 296.916,148.158 293.789,144.448C291.93,142.248 288.372,138.178 285.874,135.408C283.375,132.638 279.978,128.808 278.309,126.908C272.493,120.268 239.285,82.448 227.453,68.998C220.897,61.548 205.018,43.448 192.156,28.768C175.787,10.088 167.853,1.768 165.694,1.018C161.227,-0.542 156.84,-0.302 153.163,1.688M157.839,46.698C157.27,48.198 156.18,50.788 155.421,52.448C154.172,55.168 151.264,62.208 137.443,95.958C135.075,101.728 129.698,114.778 125.481,124.958C113.059,154.948 112.65,156.048 113.579,156.898C116.867,159.888 158.649,186.958 159.988,186.958C161.687,186.958 206.177,157.558 206.677,156.108C206.917,155.398 199.871,137.158 196.374,129.458C195.184,126.848 187.32,107.888 180.394,90.958C162.097,46.218 161.107,43.958 159.888,43.958C159.328,43.958 158.409,45.188 157.839,46.698M124.292,63.398C120.354,67.828 113.839,75.248 109.801,79.878C105.764,84.508 100.218,90.828 97.47,93.918C94.722,97.008 84.828,108.268 75.484,118.938C66.141,129.608 53.689,143.768 47.813,150.398C41.937,157.028 37.48,162.808 37.9,163.248C38.579,163.928 91.334,151.958 92.383,150.878C93.223,150.018 131.957,56.518 131.707,55.948C131.557,55.618 128.229,58.978 124.292,63.408M187.909,56.288C187.909,56.668 188.789,58.898 189.858,61.228C190.927,63.558 193.446,69.518 195.454,74.468C197.463,79.418 199.701,84.818 200.431,86.468C201.91,89.818 209.415,107.818 217.539,127.468C220.488,134.618 224.145,142.938 225.654,145.968L228.392,151.468L254.795,157.748C269.315,161.208 281.537,163.678 281.946,163.248C282.356,162.818 266.497,144.018 246.7,121.468C226.903,98.918 206.977,76.188 202.42,70.968C193.755,61.018 187.919,55.108 187.919,56.288M93.892,171.358C93.502,171.738 73.616,176.638 46.004,183.158C39.129,184.778 33.153,186.458 32.703,186.888C32.263,187.318 35.181,190.578 39.199,194.128C55.967,208.968 148.935,288.948 149.415,288.948C149.705,288.948 149.925,270.158 149.915,247.198L149.885,205.448L137.673,197.288C130.957,192.798 119.425,185.038 112.05,180.038C100.378,172.128 95.511,169.798 93.902,171.348M208.895,179.268C202.02,183.918 190.558,191.718 183.412,196.598L170.421,205.468L170.161,247.218C170.021,270.178 170.241,288.958 170.661,288.938C171.081,288.928 175.018,285.718 179.415,281.818C183.812,277.918 188.529,273.758 189.908,272.588C191.287,271.418 200.501,263.448 210.394,254.878C220.288,246.308 233.579,234.838 239.935,229.378C267.526,205.708 286.743,188.928 287.293,188.048C288.162,186.648 287.473,186.408 273.332,183.058C266.197,181.368 252.946,178.158 243.872,175.928C234.798,173.698 226.034,171.628 224.385,171.338C221.847,170.888 219.458,172.118 208.895,179.268" style="fill:rgb(216,0,30);"/></svg>

