<svg xmlns="http://www.w3.org/2000/svg" viewBox="0 0 512 438"><!--!Font Awesome Free 6.7.2 by @fontawesome - https://fontawesome.com License - https://fontawesome.com/license/free Copyright 2025 Fonticons, Inc.--><path d="M119.166,1.96C142.42,-1.941 165.874,0.06 187.631,7.262L237.333,84.787L162.081,160.211C160.584,161.711 159.686,163.812 159.786,166.013C159.886,168.213 160.784,170.214 162.381,171.715L274.161,275.748C277.055,278.449 281.546,278.649 284.64,276.048C287.734,273.447 288.433,269.046 286.337,265.645L226.055,167.513L316.577,91.889C319.172,89.788 320.07,86.187 318.973,83.086L296.217,19.666C324.661,2.96 358.495,-3.542 391.73,2.06C460.594,13.464 510.995,73.083 510.995,143.005L510.995,148.807C510.995,190.321 493.829,230.033 463.488,258.342L283.143,427.097C275.658,434.099 265.777,438 255.497,438C245.218,438 235.337,434.099 227.852,427.097L47.507,258.342C17.166,230.033 0,190.321 0,148.807L0,143.005C0,73.083 50.401,13.464 119.166,1.96Z"/></svg>

