<svg xmlns="http://www.w3.org/2000/svg" viewBox="0 0 448 448"><!--!Font Awesome Free 6.7.2 by @fontawesome - https://fontawesome.com License - https://fontawesome.com/license/free Copyright 2025 Fonticons, Inc.--><path d="M181.3,0.438C198.7,3.337 210.5,19.83 207.6,37.224L197.8,96L292.9,96L304.4,26.728C307.3,9.335 323.8,-2.461 341.2,0.438C358.6,3.337 370.4,19.83 367.5,37.224L357.8,96L416,96C433.7,96 448,110.295 448,127.988C448,145.681 433.7,159.975 416,159.975L347.1,159.975L325.8,287.925L384,287.925C401.7,287.925 416,302.219 416,319.912C416,337.605 401.7,351.9 384,351.9L315.1,351.9L303.6,421.172C300.7,438.565 284.2,450.361 266.8,447.462C249.4,444.563 237.6,428.07 240.5,410.676L250.3,352L155.2,352L143.7,421.272C140.8,438.665 124.3,450.461 106.9,447.562C89.5,444.663 77.7,428.17 80.6,410.776L90.2,351.9L32,351.9C14.3,351.9 0,337.605 0,319.912C0,302.219 14.3,287.925 32,287.925L100.9,287.925L122.2,159.975L64,159.975C46.3,159.975 32,145.681 32,127.988C32,110.295 46.3,96 64,96L132.9,96L144.4,26.728C147.3,9.335 163.8,-2.461 181.2,0.438L181.3,0.438ZM187.1,159.975L165.8,287.925L260.9,287.925L282.2,159.975L187.1,159.975Z"/></svg>
