<svg xmlns="http://www.w3.org/2000/svg" viewBox="0 0 576 512"><!--!Font Awesome Free 6.7.2 by @fontawesome - https://fontawesome.com License - https://fontawesome.com/license/free Copyright 2025 Fonticons, Inc.--><path d="M144,144L144,192L304,192L304,144C304,99.8 268.2,64 224,64C179.8,64 144,99.8 144,144ZM80,192L80,144C80,64.5 144.5,0 224,0C303.5,0 368,64.5 368,144L368,192L384,192C419.3,192 448,220.7 448,256L448,448C448,483.3 419.3,512 384,512L64,512C28.7,512 0,483.3 0,448L0,256C0,220.7 28.7,192 64,192L80,192Z"/></svg>