<?xml version="1.0" encoding="UTF-8" standalone="no"?>
<!DOCTYPE svg PUBLIC "-//W3C//DTD SVG 1.1//EN" "http://www.w3.org/Graphics/SVG/1.1/DTD/svg11.dtd">
<svg width="100%" height="100%" viewBox="0 0 1873 217" version="1.1" xmlns="http://www.w3.org/2000/svg" xmlns:xlink="http://www.w3.org/1999/xlink" xml:space="preserve" xmlns:serif="http://www.serif.com/" style="fill-rule:evenodd;clip-rule:evenodd;stroke-linejoin:round;stroke-miterlimit:2;">
    <g id="Layer-1" serif:id="Layer 1">
        <path d="M827.169,178.893C826.557,179.302 825.554,180.061 824.941,180.578C824.329,181.096 823.493,181.69 823.085,181.899C822.676,182.108 821.924,182.661 821.413,183.128C820.124,184.307 819.749,184.546 817.887,185.371C816.99,185.769 815.557,186.519 814.703,187.037C812.914,188.124 810.781,189.211 809.18,189.852C808.29,190.208 807.825,190.296 806.872,190.287C805.542,190.276 803.873,189.828 802.759,189.184L802.069,188.786L802.264,189.159C802.37,189.363 803.075,190.143 803.829,190.891C804.964,192.017 805.46,192.377 806.713,192.988C808.756,193.983 810.021,194.273 812.285,194.266C817.226,194.25 821.942,191.601 824.826,187.223C825.316,186.479 826.062,185.423 826.484,184.878C826.905,184.333 827.25,183.822 827.25,183.743C827.25,183.664 828.368,182.512 829.734,181.182C831.1,179.853 832.193,178.748 832.162,178.728C832.074,178.669 828.792,178.146 828.522,178.147C828.389,178.148 827.781,178.483 827.169,178.893M263.828,122.915C263.172,122.995 261.202,123.348 259.45,123.699C257.699,124.05 255.012,124.52 253.48,124.743C245.874,125.852 242.568,127.176 239.717,130.255C238.42,131.655 237.306,133.825 236.664,136.198C236.286,137.593 236.232,138.096 236.222,140.258C236.212,142.38 236.262,142.903 236.577,143.999C237.039,145.604 237.971,147.477 238.998,148.861C240.089,150.333 242.625,152.732 244.527,154.09C245.677,154.91 246.268,155.458 246.692,156.096L247.274,156.974L245.561,156.98C241.477,156.993 239.349,157.961 238.591,160.149C238.453,160.548 238.235,162.021 238.106,163.422C237.843,166.278 237.552,168.186 236.531,173.752C235.555,179.073 235.289,181.601 235.356,184.907L235.411,187.621L235.957,188.576C236.257,189.101 237.045,190.075 237.708,190.74C239.077,192.112 240.512,192.915 242.495,193.416C243.644,193.707 243.688,193.735 243.662,194.172C243.355,199.334 243.407,199.98 244.267,201.701C244.886,202.94 245.875,203.798 247.669,204.655C250.658,206.083 253.612,206.737 256.425,206.594C261.014,206.36 264.554,204.398 265.415,201.611C265.593,201.034 265.739,200.413 265.739,200.23C265.739,199.974 266.021,200.188 266.973,201.166C269.909,204.185 273.076,205.848 277.281,206.577C278.678,206.819 280.296,206.857 290.495,206.89C296.887,206.91 303.227,207.004 304.585,207.099C307.72,207.319 314.27,207.331 316.939,207.122C322.209,206.709 326.701,205.848 331.012,204.424C337.848,202.166 342.863,199.122 347.657,194.319C349.89,192.083 351.048,190.718 352.739,188.335C355.599,184.303 358.409,178.692 359.98,173.879C360.78,171.431 361,170.101 360.909,168.267C360.786,165.8 359.983,164.061 357.997,161.969L356.883,160.794L350.622,160.795L344.362,160.795L342.479,162.523C338.222,166.43 334.719,168.886 330.098,171.202C321.468,175.528 310.672,177.45 298.086,176.902C292.028,176.638 284.093,175.855 282.296,175.344C280.072,174.711 278.307,173.208 277.278,171.068C276.416,169.277 276.235,168.181 276.169,164.364C276.137,162.519 276.031,160.571 275.935,160.036C275.378,156.966 273.994,155.004 271.515,153.77C270.921,153.475 270.411,153.221 270.382,153.206C270.353,153.192 270.564,152.447 270.852,151.552C271.168,150.569 271.717,149.35 272.24,148.474C274.17,145.238 275.521,141.846 276.018,138.984C276.376,136.919 276.262,133.529 275.774,131.74C274.479,126.991 272.017,124.015 268.684,123.166C267.417,122.843 265.304,122.734 263.828,122.915M167.988,116.704C160.239,116.858 153.87,116.99 153.836,116.999C153.802,117.007 153.817,117.378 153.87,117.822C154.103,119.792 155.459,121.517 158.264,123.412C160.787,125.117 162.362,126.384 163.693,127.779C167.458,131.726 169.102,135.893 169.102,141.492C169.102,146.458 167.835,151.52 165.287,156.735C162.115,163.227 157.25,168.224 150.367,172.058C149.65,172.457 148.719,173.054 148.297,173.385C147.875,173.716 147.155,174.207 146.697,174.475C145.728,175.043 144.776,176.193 143.73,178.056C143.103,179.173 142.993,179.499 142.996,180.232C142.999,181.228 143.365,182.671 144.178,184.893C145.184,187.641 145.468,187.991 147.451,188.922C148.282,189.313 149.393,189.839 149.918,190.09C150.444,190.342 151.482,190.762 152.227,191.024C152.971,191.285 154.355,191.791 155.302,192.147C156.249,192.503 157.128,192.795 157.256,192.795C157.665,192.795 159.913,193.796 161.062,194.49C161.675,194.86 162.477,195.472 162.843,195.85C163.478,196.504 163.746,196.96 164.718,199.044C165.72,201.19 167.6,201.291 172.844,199.477C192.996,192.51 208.472,173.951 212.072,152.437C212.648,148.993 212.795,147.08 212.798,142.964C212.8,138.81 212.708,137.629 211.989,132.616C210.156,119.849 207.723,117.401 196.008,116.537C193.093,116.321 184.786,116.371 167.988,116.704M1038.31,92.5C1036.71,92.905 1035.67,93.9 1035.35,95.325C1035.23,95.837 1035.19,100.985 1035.22,111.362C1035.25,124.739 1035.29,126.745 1035.51,127.442C1036.16,129.52 1037.21,130.778 1038.72,131.278C1040.5,131.869 1044.12,131.174 1046.45,129.794C1047.79,129.004 1049.71,126.951 1050.57,125.403C1052,122.828 1053.17,119.686 1053.83,116.659C1054.13,115.257 1054.18,114.547 1054.18,111.681C1054.18,108.803 1054.13,108.105 1053.82,106.666C1053.08,103.224 1051.31,98.909 1049.74,96.708C1048.43,94.872 1046.39,93.468 1044.09,92.814C1042.73,92.43 1039.32,92.244 1038.31,92.5M509.256,92.19C509.215,92.315 508.814,93.666 508.366,95.193C506.964,99.973 505.544,103.158 503.822,105.392C503.451,105.874 502.459,106.931 501.618,107.741C499.962,109.337 499.11,110.493 498.796,111.572C498.65,112.076 498.53,112.239 498.347,112.183C498.209,112.141 497.686,111.957 497.185,111.774C496.219,111.422 494.806,111.339 494.133,111.595C493.755,111.739 493.725,111.712 493.635,111.157C493.033,107.418 490.98,105.183 487.178,104.124C485.51,103.66 480.723,102.988 479.947,103.109C479.08,103.245 478.238,103.689 477.751,104.268C477.275,104.833 476.688,106.315 476.691,106.943C476.698,108.705 476.964,111.741 477.139,112.054C477.411,112.541 478.109,114.923 478.113,115.379C478.12,116.133 481.011,117.007 482.899,116.827C483.247,116.794 483.51,116.804 483.483,116.851C482.896,117.843 482.812,118.274 482.787,120.437C482.765,122.293 482.707,122.785 482.439,123.382C482.134,124.061 481.708,126.28 481.307,129.273C481.208,130.017 481.088,130.805 481.041,131.024C480.994,131.243 480.889,134.037 480.809,137.233C480.728,140.429 480.593,144.298 480.509,145.83C480.424,147.362 480.292,150.622 480.214,153.074L480.073,157.531L479.257,159.919C477.504,165.052 477.288,169.996 478.593,175.122C479.193,177.479 479.154,179.445 478.483,180.753C478.121,181.459 477.082,182.514 475.538,183.745C474.379,184.669 474.088,184.834 473.896,184.675C473.308,184.186 472.557,182.222 471.908,179.474C470.869,175.074 470.055,173.689 468.177,173.129C466.565,172.648 464.93,172.894 460.865,174.232C456.525,175.66 454.359,177.079 453.837,178.838C453.538,179.843 453.539,180.234 453.841,181.418C454.197,182.813 455.265,184.932 457.139,187.961C458.052,189.438 458.948,190.896 459.13,191.203C459.312,191.509 459.978,192.978 460.61,194.467C462.847,199.738 464.355,202.283 466.369,204.189C468.689,206.383 470.806,207.014 473.844,206.416C478.96,205.408 488.512,199.101 493.992,193.113C499.762,186.808 503.021,180.025 504.495,171.252C504.623,170.492 504.632,170.483 505.659,170.05C508.637,168.794 510.872,166.612 512.487,163.383C513.264,161.83 513.804,160.493 515.041,157.055C515.865,154.766 515.967,154.341 516.047,152.884C516.095,151.991 516.284,150.737 516.465,150.097C516.886,148.614 517.937,143.094 518.096,141.531C518.163,140.875 518.263,139.263 518.319,137.949C518.379,136.526 518.515,135.272 518.657,134.845C518.885,134.158 518.872,134.035 518.35,131.893C518.05,130.663 517.675,129.384 517.517,129.051C517.218,128.421 516.441,127.521 515.978,127.269C515.743,127.141 515.706,126.744 515.675,124.077C515.642,121.245 515.663,120.993 515.968,120.495C516.149,120.2 516.464,119.422 516.669,118.765C517.018,117.647 517.042,117.318 517.042,113.591C517.042,109.441 516.955,108.588 516.239,105.711C515.411,102.386 514.263,99.591 512.52,96.661C511.103,94.279 509.357,91.887 509.256,92.19M282.021,91.707C280.775,92.339 280.191,93.88 280.597,95.463C280.728,95.977 281.025,97.239 281.255,98.267C281.902,101.152 282.398,102.088 283.603,102.703C285.061,103.447 287.955,102.952 289.355,101.72C290.128,101.039 290.893,99.696 290.893,99.018C290.893,98.283 288.87,95.099 287.539,93.738C285.608,91.765 283.463,90.975 282.021,91.707M1134.19,89.157C1124.41,90.065 1120.33,92.301 1118.59,97.705C1117.69,100.51 1117.62,101.73 1117.59,115.553C1117.57,122.442 1117.59,132.771 1117.64,138.506C1117.72,149.495 1117.68,150.377 1116.98,153.87C1115.22,162.681 1110.37,167.26 1100.92,169.051C1097.56,169.687 1092.63,170.049 1089.86,169.864C1087.38,169.698 1086.23,169.946 1085.36,170.833C1084.03,172.197 1083.91,175.47 1085.11,177.713C1085.81,179.01 1087.31,180.384 1088.85,181.141C1090.49,181.946 1096.1,184.308 1101.81,186.596C1110.52,190.084 1112.48,190.708 1115.17,190.835C1116.72,190.909 1117.03,190.877 1117.87,190.56C1120.56,189.539 1121.91,186.856 1123.13,180.092C1123.76,176.594 1124.18,175.604 1125.36,174.934C1125.86,174.649 1126.24,174.57 1127.14,174.568C1127.76,174.567 1128.33,174.615 1128.38,174.674C1128.44,174.734 1128.24,175.701 1127.93,176.824C1127.61,177.947 1127.29,179.358 1127.2,179.96C1126.84,182.545 1127.85,184.486 1130.16,185.622C1130.59,185.829 1131.27,186.312 1131.69,186.696C1132.1,187.079 1132.75,187.526 1133.14,187.691C1133.52,187.855 1134.33,188.408 1134.93,188.92C1135.53,189.431 1136.36,190.119 1136.77,190.447C1137.77,191.247 1138.03,191.729 1138.8,194.085C1139.89,197.454 1141.29,199.105 1143.83,200.016C1144.18,200.141 1144.86,200.484 1145.35,200.778C1147.49,202.072 1149.55,203 1150.67,203.168C1151.29,203.26 1152.72,203.573 1153.86,203.862C1154.99,204.152 1156.71,204.507 1157.68,204.652C1158.64,204.797 1160.29,205.164 1161.34,205.469C1162.39,205.773 1163.97,206.126 1164.84,206.254C1165.72,206.382 1167.01,206.592 1167.71,206.72C1168.41,206.848 1169.33,206.955 1169.76,206.958C1170.18,206.961 1171.15,207.103 1171.91,207.273C1172.7,207.453 1174.52,207.655 1176.22,207.754C1179.17,207.925 1181.46,208.203 1183.71,208.66C1184.36,208.794 1185.47,208.998 1186.17,209.113C1186.88,209.228 1188.09,209.434 1188.88,209.57C1192.14,210.134 1198.53,210.342 1201.78,209.99C1209.69,209.133 1216.24,207.465 1227.44,203.452C1228.97,202.903 1230.88,202.358 1232.14,202.107C1234.66,201.605 1235.8,201.294 1236.58,200.902C1238.13,200.117 1238.81,199.031 1238.81,197.318C1238.81,195.386 1237.88,194.414 1235.1,193.455L1233.58,192.932L1233.87,192.008C1234.45,190.125 1235.89,188.437 1237.6,187.632C1239.98,186.511 1243.01,185.188 1243.65,184.992C1244,184.885 1244.64,184.596 1245.08,184.351C1245.52,184.105 1246.55,183.716 1247.37,183.485C1248.94,183.044 1249.65,182.731 1250.97,181.899C1251.63,181.483 1252.09,181.348 1253.65,181.117C1256.63,180.677 1259.38,179.666 1261.26,178.316C1262.31,177.564 1264.05,175.804 1264.84,174.702C1265.87,173.264 1267.06,171.034 1267.78,169.187C1268.13,168.293 1268.99,166.415 1269.69,165.014C1271.75,160.866 1272.61,157.721 1272.61,154.268C1272.61,151.975 1272.4,151.285 1271.56,150.769C1270.82,150.321 1269.93,150.347 1263.46,151.005C1253.08,152.061 1249.87,152.637 1245.98,154.142C1244.36,154.771 1244.32,154.801 1242.16,156.844C1239.14,159.71 1237.5,160.924 1235.4,161.838C1227.23,165.397 1217.38,171.966 1214.11,176.031C1213.57,176.703 1213.09,177.347 1213.05,177.462C1213,177.577 1212.83,177.671 1212.67,177.671C1212.03,177.671 1210.65,178.345 1209.8,179.073C1208.55,180.145 1207.47,180.913 1206.63,181.329C1205.93,181.675 1205.49,181.946 1203.21,183.436C1200.98,184.891 1200.02,185.183 1197.74,185.11L1196.25,185.062L1195.96,183.931C1195.16,180.792 1193.19,178.928 1190.09,178.374C1188.37,178.069 1183.41,178.077 1182.22,178.387C1181.62,178.543 1180.54,178.626 1179.12,178.627C1175.78,178.629 1171.93,178.908 1170.27,179.267C1167.66,179.833 1162.23,181.778 1161.36,182.455L1160.97,182.766L1160.44,182.01C1160.14,181.593 1159.76,180.977 1159.59,180.64C1159.1,179.678 1158.13,178.671 1156.75,177.704C1155.59,176.888 1155.51,176.803 1155.86,176.705C1158.38,176.004 1159.11,175.564 1159.66,174.418C1160.16,173.378 1160.12,172.275 1159.45,169.69C1158.18,164.811 1157.82,159.374 1158.25,151.582C1158.37,149.338 1158.47,146.069 1158.46,144.317C1158.44,140.639 1158.23,139.543 1157.1,137.238C1156.58,136.194 1156.16,135.62 1155.22,134.691C1153.76,133.248 1152.73,132.619 1150.61,131.866C1149.72,131.553 1149,131.241 1149,131.172C1149,131.103 1149.8,130.307 1150.79,129.404C1156.66,123.999 1157.36,123.044 1158.37,118.998C1160.87,109.025 1160.14,101.163 1156.22,96.041C1153.53,92.526 1149.7,90.447 1144.07,89.45C1141.96,89.078 1136.72,88.922 1134.19,89.157M929.543,92.382C920.143,114.14 917.06,121.921 916.062,126.407C915.777,127.685 915.69,128.566 915.689,130.148C915.688,132.144 915.705,132.256 916.193,133.285C918.222,137.569 923.66,138.659 943.014,138.664L949.485,138.666L951.066,138.039C951.936,137.694 952.839,137.364 953.073,137.305C953.795,137.124 953.548,136.96 952.376,136.845C951.315,136.74 951.261,136.716 951.367,136.387C951.516,135.923 951.513,134.239 951.363,134.089C951.297,134.023 946.969,133.921 941.744,133.862C936.519,133.804 931.361,133.682 930.281,133.593L928.318,133.431L927.431,132.746C926.943,132.37 926.117,131.56 925.595,130.946C923.287,128.233 923.496,126.948 926.644,124.485C932.16,120.169 937.651,119.036 943.522,121.003C946.382,121.962 949.784,123.956 953.126,126.633C954.062,127.383 954.855,127.969 954.889,127.935C954.923,127.901 954.73,127.117 954.461,126.193C954.016,124.665 953.436,122.332 952.044,116.457C950.283,109.025 948.129,105.727 943.548,103.448C942.261,102.808 940.807,102.27 940.687,102.389C940.642,102.435 939.98,105.273 939.217,108.698L937.83,114.923L937.369,114.655C936.399,114.091 934.887,112.54 934.464,111.676C934.101,110.934 934.048,110.651 934.102,109.732C934.178,108.42 934.611,107.444 936.512,104.302C939.187,99.88 940.554,95.121 939.971,92.258C939.521,90.049 938.056,88.053 935.776,86.548C934.344,85.602 933.245,85.012 932.928,85.019C932.81,85.021 931.359,88.178 929.543,92.382M1037.89,84.714C1033.85,85.072 1029.3,86.448 1023.07,89.199C1018.84,91.066 1013.13,93.632 1013.07,93.688C1013.04,93.72 1014.36,93.706 1016.01,93.657C1018.5,93.584 1019.19,93.614 1020.05,93.833C1021.98,94.328 1023.26,95.456 1023.81,97.16C1024.05,97.903 1024.08,99.171 1024.1,109.372C1024.12,115.633 1024.07,121.69 1024.01,122.833C1023.74,127.462 1022.93,128.119 1014.95,130.163C1013.68,130.489 1012.59,130.799 1012.53,130.852C1012.47,130.905 1013.94,131.475 1015.79,132.118C1025.09,135.335 1031.37,137.433 1032.81,137.797C1039.57,139.51 1046.22,138.948 1051.78,136.192C1054.15,135.014 1055.81,133.806 1057.87,131.751C1061.58,128.044 1063.84,123.704 1065.06,117.979C1065.44,116.153 1065.48,115.661 1065.49,112.318C1065.5,109.923 1065.42,108.243 1065.29,107.462C1064.27,101.79 1062.19,97.184 1058.86,93.205C1054.82,88.403 1048.74,85.262 1042.39,84.705C1040.3,84.522 1040.04,84.522 1037.89,84.714M968.092,91.589C968.035,95.985 967.914,106.136 967.824,114.148C967.724,123.034 967.593,129.087 967.489,129.667C967.182,131.385 966.37,132.539 964.797,133.494C964.284,133.806 963.674,134.288 963.441,134.565C963.07,135.006 963.025,135.175 963.087,135.916C963.174,136.974 963.734,137.632 964.704,137.822C965.064,137.892 970.688,137.913 977.2,137.87L989.041,137.79L987.83,137.097C986,136.05 984.425,135.423 981.381,134.53C978.317,133.631 977.657,133.344 976.736,132.512C975.606,131.491 975.628,131.759 975.628,119.072C975.628,106.744 975.594,107.143 976.541,108.151C976.802,108.428 979.485,111.629 982.504,115.263C988.68,122.696 990.764,125.104 994.495,129.113C997.737,132.598 1004.8,139.596 1004.86,139.382C1004.88,139.295 1004.98,135.856 1005.08,131.74C1005.17,127.625 1005.35,121.75 1005.48,118.686C1005.61,115.621 1005.76,109.102 1005.81,104.198C1005.92,94.194 1006.02,92.934 1006.83,91.289C1007.59,89.744 1008.6,89.108 1012.04,88.025C1017.04,86.448 1021.02,85.115 1021.1,84.991C1021.14,84.916 1015.5,84.856 1008.55,84.858C996.493,84.862 995.896,84.875 995.26,85.164C994.464,85.526 994.095,86.152 994.095,87.143C994.095,87.951 994.579,88.665 995.423,89.102C995.695,89.242 996.322,89.744 996.818,90.217C997.858,91.209 998.45,92.376 998.702,93.929C998.941,95.407 998.932,113.046 998.691,113.573C998.474,114.05 997.748,114.38 997.211,114.245C996.995,114.191 996.53,113.806 996.178,113.391C994.572,111.495 988.011,103.694 983.825,98.706C978.317,92.141 975.644,89.399 971.648,86.22C970.028,84.931 968.588,83.814 968.449,83.737C968.22,83.61 968.186,84.35 968.092,91.589M76.236,40.119C75.084,42.533 74.933,43.272 74.946,46.407C74.956,48.994 74.982,49.209 75.531,51.263C75.846,52.445 76.281,53.878 76.497,54.447L76.89,55.481L77.078,54.783C78.652,48.936 78.719,43.563 77.269,39.482L76.957,38.606L76.236,40.119M108.446,34.393C106.17,34.608 102.641,35.138 99.946,35.671C93.619,36.922 92.999,37.544 92.041,43.61C90.239,55.023 90.058,61.67 91.406,66.855C91.675,67.89 91.728,68.741 91.784,72.915C91.854,78.167 91.99,79.26 92.798,81.073C93.247,82.083 94.269,83.134 95.202,83.548C96.008,83.905 98.567,83.895 100.326,83.527C101.071,83.372 103.005,82.79 104.625,82.234C106.245,81.678 109.039,80.718 110.834,80.102C112.629,79.485 116.856,78.147 120.227,77.128C126.964,75.093 128.594,74.513 130.495,73.475C136.255,70.33 139.776,65.444 141.276,58.517C141.793,56.129 141.789,52.297 141.267,50.626C139.999,46.565 136.982,43.369 130.778,39.515C126.255,36.706 122.726,35.327 118.237,34.617C116.343,34.317 110.633,34.187 108.446,34.393M630.894,34.424C630.721,35.071 630.789,35.732 631.072,36.157C631.662,37.04 632.377,37.917 632.731,38.191C634.198,39.326 634.799,39.639 635.818,39.802C636.401,39.895 637.154,40.112 637.491,40.284C638.282,40.688 638.483,40.682 638.35,40.263C638.264,39.991 636.727,38.407 635.829,37.666C635.713,37.57 635.46,37.227 635.267,36.903C634.65,35.867 632.587,34.338 631.568,34.162C631.061,34.074 630.979,34.106 630.894,34.424M1233.84,32.952C1232.98,33.108 1232.09,33.699 1229.72,35.685C1225.44,39.267 1223.98,40.928 1223.43,42.856C1223.22,43.588 1223.18,44.296 1223.24,46.518C1223.32,49.748 1223.33,49.779 1225.23,53.527C1225.93,54.903 1226.63,56.372 1226.78,56.79C1227.58,58.989 1227.97,59.811 1229.16,61.85C1230.32,63.837 1231.18,65.571 1232.48,68.503C1232.7,69.01 1233.28,70.03 1233.77,70.769C1234.25,71.509 1235.05,73.064 1235.54,74.226C1236.86,77.32 1237.54,78.595 1238.51,79.813C1238.99,80.411 1239.77,81.587 1240.24,82.427C1240.97,83.724 1241.46,84.318 1243.49,86.364C1244.8,87.689 1246.27,89.067 1246.75,89.425C1248.49,90.716 1251.38,93.995 1252.66,96.114C1253.85,98.072 1254.25,99.381 1254.35,101.53C1254.45,103.731 1254.05,105.702 1253.15,107.452C1252.83,108.084 1252.35,109.018 1252.08,109.528C1251.81,110.038 1251.29,110.786 1250.92,111.191L1250.24,111.928L1249.42,111.685C1248.07,111.283 1247.18,111.358 1246.53,111.927C1245.63,112.713 1245.36,113.966 1244.76,119.959C1244.62,121.36 1244.15,124.656 1243.71,127.283C1242.42,135.091 1242.28,136.212 1242.18,139.242C1242.07,142.842 1242.28,144.043 1243.3,145.545C1244.13,146.776 1245.27,147.438 1247.22,147.831C1250.64,148.518 1261.93,147.493 1268.38,145.91C1274.78,144.338 1277.45,142.549 1278.9,138.854C1279.49,137.345 1279.71,135.395 1279.86,130.431C1280.02,124.941 1280.14,124.287 1281.76,119.561C1282.98,115.987 1283.13,115.141 1283.12,111.919C1283.12,108.56 1282.97,108.006 1281.14,104.357C1278.56,99.194 1277.52,95.812 1276.99,90.825C1276.73,88.401 1276.9,83.445 1277.33,80.875C1277.52,79.78 1277.7,77.826 1277.75,76.531C1277.84,73.893 1277.59,71.972 1276.58,67.183C1275.01,59.823 1272.08,54.257 1268.11,51.089C1267.44,50.555 1266.74,49.987 1266.55,49.828C1266.36,49.669 1265.82,49.223 1265.34,48.837C1264.57,48.207 1249.33,38.611 1246.48,36.955C1244.25,35.663 1241.41,34.575 1237.57,33.537C1235.21,32.901 1234.63,32.81 1233.84,32.952M781.145,32.969C777.659,33.28 774.188,34.292 770.238,36.151C767.37,37.5 766.7,37.914 766.295,38.588C766.003,39.073 766.003,39.123 766.298,40.835C766.595,42.559 766.594,42.602 766.292,43.621C766.124,44.19 765.936,44.907 765.876,45.213C765.695,46.138 764.854,47.475 763.934,48.302C762.339,49.734 761.306,51.427 760.863,53.333C760.751,53.814 760.531,54.539 760.374,54.942C760.216,55.346 760.01,56.134 759.915,56.694C759.82,57.253 759.665,58.005 759.572,58.364C759.403,59.008 759.53,64.643 759.907,73.313C760.049,76.583 760.04,76.766 759.481,81.75L758.91,86.845L759.385,94.516L759.859,102.188L761.897,106.427L762.005,127.601C762.065,139.247 762.19,151.303 762.283,154.392C762.461,160.274 762.439,160.631 761.794,162.41C761.49,163.25 761.422,163.322 760.774,163.504C759.91,163.746 758.885,164.606 758.455,165.449C757.963,166.414 757.912,167.507 758.286,169.075C759.003,172.08 759.631,173.123 761.436,174.308C762.088,174.736 762.831,175.376 763.088,175.731C763.716,176.598 764.957,177.509 766.568,178.287C767.914,178.937 768.23,179.024 771.21,179.574C772.13,179.743 773.152,179.994 773.481,180.133C774.167,180.42 777.501,180.785 781.558,181.019C784.005,181.16 784.607,181.143 786.5,180.878C787.869,180.687 788.895,180.455 789.312,180.242C789.673,180.058 790.528,179.685 791.212,179.413L792.455,178.919L808.225,178.865L809.817,178.285C814.745,176.49 817.668,174.814 818.426,173.35C818.548,173.113 818.948,172.573 819.315,172.151C820.395,170.906 821.775,168.692 822.145,167.611C822.334,167.058 822.556,166.035 822.637,165.338C822.743,164.433 822.935,163.777 823.307,163.045C823.772,162.128 823.92,161.976 824.703,161.61C825.401,161.283 825.826,161.2 826.798,161.197L828.019,161.193L829.107,159.94C829.705,159.25 830.35,158.456 830.54,158.174C830.99,157.505 833.479,155.352 834.937,154.371C835.569,153.946 836.098,153.587 836.113,153.574C836.128,153.561 836.22,152.117 836.317,150.367C836.739,142.759 837.669,139.298 840.075,136.381C841.796,134.295 844.743,132.497 847.708,131.725C849.893,131.156 851.032,130.532 851.577,129.604C851.945,128.978 852.004,128.705 851.992,127.681C851.976,126.337 851.734,125.72 850.969,125.077C850.159,124.394 849.104,124.178 846.585,124.178C844.206,124.178 842.136,123.904 840.832,123.416C840.139,123.156 840.069,123.083 840.096,122.658C840.113,122.4 840.201,121.185 840.292,119.959C840.383,118.733 840.459,117.193 840.461,116.536C840.465,115.398 840.508,115.257 841.402,113.504C842.368,111.607 842.59,110.839 843.08,107.694C843.285,106.379 843.329,104.452 843.329,96.853C843.329,86.466 843.391,87.12 842.046,83.313C841.293,81.181 840.66,79.847 839.908,78.805C839.192,77.814 838.918,77.238 838.483,75.815C838.276,75.139 837.771,73.727 837.361,72.676C836.464,70.378 832.548,62.203 831.875,61.225C830.596,59.366 828.16,58.336 825.658,58.597C824.809,58.686 824.76,58.669 824.038,58.041C823.629,57.684 822.746,56.609 822.078,55.652C821.409,54.695 820.3,53.184 819.613,52.294C816.983,48.887 815.327,46.09 814.546,43.733C814.377,43.226 814.197,42.832 814.145,42.857C814.092,42.883 813.957,42.79 813.844,42.649C813.451,42.162 796.915,35.385 793.853,34.457C791.492,33.741 788.633,33.173 786.335,32.964C784.295,32.777 783.274,32.778 781.145,32.969M1413.96,31.593C1411.28,32.431 1409.22,34.873 1406.32,40.648C1400.66,51.93 1400.37,62.624 1405.44,73.803C1407.05,77.357 1408.9,80.39 1412.08,84.694C1415.87,89.818 1417.4,92.79 1418.15,96.531C1418.51,98.289 1418.38,101.784 1417.9,103.561C1417.36,105.545 1416.3,107.883 1414.87,110.252C1410.43,117.602 1409.02,124.164 1410.27,131.661C1410.68,134.107 1411.19,135.82 1412.43,138.958C1414.15,143.291 1414.87,146.837 1414.87,150.977C1414.87,153.141 1414.57,156.086 1414.15,158.127C1413.89,159.387 1412.59,164.357 1411.83,166.977C1411.07,169.622 1410.12,171.164 1408.97,171.597C1408.45,171.793 1407.39,171.385 1405.2,170.136L1403.65,169.249L1401.83,169.25C1400.61,169.251 1399.88,169.323 1399.6,169.468C1398.99,169.789 1398.01,170.884 1396.88,172.496C1394.76,175.538 1390.81,179.762 1388.35,181.625C1386.13,183.304 1383.02,184.517 1380.88,184.534C1379.27,184.547 1375.99,183.774 1372.05,182.451C1365.84,180.371 1364.82,180.189 1359.46,180.207C1355.88,180.219 1355.69,180.204 1355.01,179.86C1353.21,178.955 1353.07,177.517 1354.3,172.827C1355.08,169.833 1355.34,168.079 1355.43,165.014C1355.57,160.891 1355.04,157.578 1353.63,153.812C1352.35,150.349 1349.95,146.42 1347.27,143.394L1346.62,142.656L1344.86,142.628L1343.09,142.601L1342.27,143.203C1341.82,143.534 1341.29,144.069 1341.08,144.392C1340.65,145.073 1337.95,151.814 1337.12,154.268C1336.29,156.732 1335.7,159.145 1335.66,160.317C1335.63,160.937 1335.74,161.895 1335.93,162.705C1336.1,163.45 1336.31,164.652 1336.38,165.378C1336.56,167.038 1336.97,167.609 1338.19,167.923C1339.33,168.212 1340.08,168.783 1340.62,169.757C1341.05,170.536 1341.08,170.696 1341.08,172.421C1341.08,174.172 1341.06,174.303 1340.56,175.316C1339.97,176.516 1339.4,177.063 1338.13,177.651C1337.29,178.042 1337.1,178.063 1333.28,178.168C1330.51,178.244 1329.06,178.349 1328.5,178.513C1326.07,179.232 1325.12,180.143 1325.28,181.582C1325.4,182.638 1330.23,190.148 1332.5,192.823C1333.93,194.502 1335.94,196.107 1337.79,197.05L1339.28,197.81L1343.97,197.81L1344.87,197.215C1345.36,196.887 1346.32,195.972 1346.99,195.182C1347.66,194.391 1348.23,193.767 1348.26,193.794C1348.29,193.822 1348.17,194.522 1348,195.35C1347.62,197.204 1347.58,199.966 1347.93,201.319C1348.06,201.841 1348.46,202.863 1348.82,203.592C1350.21,206.443 1353.6,209.179 1356.84,210.068C1358.29,210.465 1362.23,210.557 1364.09,210.236C1366.34,209.846 1367.68,209.343 1371.49,207.441C1373.41,206.479 1375.38,205.594 1375.86,205.474C1376.65,205.278 1376.82,205.286 1377.59,205.55C1378.06,205.712 1379.14,206.334 1379.98,206.932C1383.26,209.256 1385.68,210.36 1388.58,210.87C1390.41,211.19 1394.64,211.178 1396.57,210.847C1399.67,210.318 1403.11,208.908 1406.99,206.574C1417.67,200.154 1426.75,191.487 1433.43,181.332C1441.4,169.211 1446.65,154.674 1449.8,136.039C1451.58,125.488 1451.72,122.343 1450.54,119.22C1449.83,117.322 1448.27,115.423 1446.37,114.131C1445.3,113.406 1442.87,112.216 1441.83,111.913L1441.17,111.719L1442.07,111.242C1444.43,109.988 1446.13,108.532 1447.33,106.737C1448.26,105.349 1448.7,104.251 1449.14,102.208C1449.44,100.83 1449.47,100.13 1449.48,94.327C1449.49,87.032 1449.42,86.467 1448.23,83.979C1447.72,82.928 1447.28,82.282 1446.56,81.557C1444.63,79.609 1442.32,78.489 1437.79,77.295C1436.15,76.864 1434.66,76.368 1434.09,76.061C1432.04,74.972 1430.42,72.801 1429.64,70.121C1429.31,68.948 1429.28,68.626 1429.34,65.75C1429.57,54.885 1429.5,54.017 1427.59,44.099C1426.63,39.123 1426.23,37.616 1425.38,35.9C1424.27,33.627 1422.7,32.274 1420.48,31.658C1419.17,31.295 1415.05,31.254 1413.96,31.593M1376.48,20.133C1376.44,20.174 1374.83,20.278 1372.91,20.365C1368.29,20.574 1366.87,20.971 1365.35,22.489C1364.25,23.595 1364.01,24.319 1364.01,26.507C1364.01,28.315 1364.03,28.458 1364.45,29.18C1365.32,30.652 1366.55,31.227 1369.48,31.534C1371.45,31.74 1372.72,31.67 1373.95,31.288C1374.71,31.055 1375.19,31.036 1377.54,31.148C1382.21,31.373 1383.29,31.325 1384.33,30.848C1385.93,30.115 1386.53,28.854 1386.53,26.22C1386.53,22.77 1385.03,20.792 1382,20.232C1381.09,20.064 1376.63,19.984 1376.48,20.133M1373.8,12.42C1354.94,13.984 1340.05,22.26 1328.4,37.651C1320.2,48.493 1313.25,64.53 1309.65,80.919C1307.3,91.639 1306.32,101.994 1306.51,114.308C1306.74,130.032 1308.43,141.556 1312.44,154.789C1313.73,159.034 1315.86,165.145 1316.57,166.635C1318.04,169.69 1320.39,171.436 1324.12,172.243C1325.24,172.484 1330.74,173.054 1331.91,173.05C1334.33,173.042 1335.51,171.668 1335.44,168.928C1335.41,167.591 1334.88,163.236 1334.64,162.431C1334.56,162.149 1334.09,161.396 1333.59,160.759C1329.17,155.138 1330.48,149.61 1337.26,145.189C1340.05,143.371 1341.47,142.316 1341.92,141.726C1342.25,141.295 1342.34,140.934 1342.46,139.656C1342.53,138.805 1342.92,135.207 1343.31,131.661C1344.45,121.302 1344.51,120.305 1344.66,111.362C1344.84,100.874 1345.25,96.538 1346.81,88.755C1348.96,78.066 1353.26,65.138 1357.56,56.437C1362.19,47.082 1366.92,43.262 1373.88,43.268C1377.41,43.271 1381.03,44.125 1385.89,46.108C1392.18,48.674 1391.53,48.467 1393.3,48.472C1394.67,48.476 1395,48.423 1395.67,48.091C1398.44,46.728 1402,40.683 1403.17,35.343C1403.53,33.714 1403.66,29.263 1403.41,27.268C1403.18,25.43 1402.32,21.953 1401.75,20.528C1400.78,18.148 1398.83,15.996 1396.59,14.831C1393.43,13.184 1388.54,12.44 1380.24,12.34C1377.62,12.308 1374.72,12.344 1373.8,12.42M1659.04,5.372C1658.99,5.526 1658.59,6.69 1658.13,7.96C1656.15,13.55 1654.35,21.326 1652.96,30.328C1652.27,34.756 1651.25,40.731 1650.81,42.905C1649.08,51.406 1648.44,57.782 1648.74,63.589C1649.18,71.956 1651.16,78.241 1655.39,84.616C1657.23,87.394 1658.52,88.914 1661.58,91.939C1663.93,94.253 1664.22,94.604 1664.77,95.76C1665.35,96.984 1665.38,97.1 1665.38,98.706C1665.38,100.222 1665.34,100.463 1664.92,101.304C1664.49,102.177 1663.81,102.994 1662.91,103.718C1662.6,103.963 1662.28,104.033 1661.5,104.025C1660.95,104.02 1660.45,103.947 1660.39,103.863C1660.22,103.617 1656.91,102.274 1655.35,101.819C1654.56,101.589 1653.1,101.26 1652.11,101.088C1646.67,100.147 1644.32,101.448 1642.68,106.307C1641.9,108.601 1641.56,110.632 1640.14,121.392C1639.63,125.281 1639.04,128.853 1638.56,130.944C1638.09,132.982 1637.46,136.836 1637.26,138.893C1637.02,141.381 1637.16,147.771 1637.5,149.867C1638.19,154.168 1639.58,158.704 1641.27,162.21C1641.88,163.469 1642.37,164.583 1642.37,164.684C1642.37,164.839 1641.53,167.021 1640.69,169.039L1640.47,169.562L1639.54,168.926C1637.33,167.414 1635.58,167.053 1634.58,167.9C1633.39,168.901 1633.01,170.541 1632.82,175.442C1632.67,179.502 1632.45,180.683 1631.41,182.845C1629.74,186.317 1628.03,187.608 1622.47,189.608C1621.2,190.065 1620.13,190.495 1620.08,190.564C1619.98,190.724 1616.24,191.932 1612.36,193.055C1604.14,195.436 1594.31,197.498 1582.91,199.231C1580.28,199.63 1577.98,199.983 1577.78,200.014C1577.47,200.065 1577.53,199.934 1578.22,198.941C1579.46,197.175 1582.09,193.94 1584.85,190.781C1590.98,183.755 1592.82,181.064 1593.41,178.228C1593.83,176.247 1593.62,174.551 1592.72,172.772C1591.8,170.956 1590.7,169.722 1587.1,166.491C1585.65,165.195 1584.9,164.038 1584.9,163.122C1584.9,162.861 1585.05,162.344 1585.23,161.974C1585.74,160.905 1586.81,159.884 1591.51,155.981C1601.06,148.035 1602.1,144.445 1597.66,134.686C1596.65,132.463 1595.06,129.34 1594.05,127.58L1593.66,126.923L1594.16,126.824C1596.29,126.398 1598.87,127.085 1600.87,128.608C1602.14,129.581 1604.74,133.008 1606.79,136.425C1607.31,137.285 1607.42,137.4 1607.53,137.142C1607.68,136.756 1608.23,131.315 1608.54,127.123C1609.36,116.139 1609.42,105.442 1608.78,88.119C1608.37,77.214 1607.37,71.174 1604.56,62.782C1601.74,54.367 1597.17,46.008 1591.65,39.216C1589.82,36.955 1585.21,32.075 1583.23,30.298C1580.15,27.534 1575.07,23.885 1571.3,21.732C1569.22,20.543 1566.15,19.024 1563.88,18.056C1562.88,17.626 1562.02,17.23 1561.98,17.175C1561.83,16.987 1558.37,15.779 1556.15,15.141C1549.61,13.257 1544.47,12.518 1537.86,12.509C1534.01,12.503 1533.39,12.539 1531.97,12.852C1527.65,13.798 1525.16,16.146 1524.06,20.298C1523.56,22.197 1523.56,25.823 1524.07,27.701C1524.75,30.256 1526.1,32.209 1528.35,33.901C1528.94,34.343 1529.81,35.023 1530.28,35.412C1530.76,35.8 1531.58,36.33 1532.11,36.59C1534.46,37.735 1536.13,38.504 1536.5,38.611C1536.72,38.675 1537.26,38.906 1537.69,39.124C1538.12,39.343 1539.96,40.043 1541.77,40.68C1543.57,41.317 1545.26,41.943 1545.51,42.071C1545.77,42.2 1546.26,42.395 1546.61,42.505C1547.3,42.722 1549.92,43.843 1552.14,44.869C1555.16,46.271 1557.81,48.38 1561.28,52.169C1562.87,53.9 1563.19,54.358 1564.26,56.388C1565.73,59.179 1567.76,64.142 1568.83,67.57C1570.01,71.374 1570.51,74.042 1570.89,78.787C1570.98,79.784 1571.11,81.002 1571.2,81.493C1571.65,84.058 1571.74,86.128 1571.83,96.318C1571.93,106.829 1571.94,107.083 1572.27,107.939C1572.46,108.421 1572.73,109.263 1572.87,109.81C1573.34,111.724 1574.1,112.695 1575.39,113.049C1576.28,113.291 1577.81,113.058 1579.17,112.475C1580,112.122 1580.57,112.01 1582.03,111.914C1583.04,111.848 1584.16,111.683 1584.53,111.548C1585.19,111.308 1585.21,111.311 1585.82,111.756C1586.6,112.317 1587.07,113.059 1587.31,114.113C1587.58,115.274 1587.22,116.176 1586.29,116.7C1585.68,117.045 1585.37,117.087 1582.91,117.17C1579.22,117.295 1578.87,117.478 1577.43,120.03C1576.88,120.999 1576.62,122.923 1576.52,126.805C1576.44,129.895 1576.35,130.946 1576.06,132.298C1575.45,135.156 1574.11,140.122 1573.62,141.372C1573.28,142.231 1573.1,143.08 1572.96,144.397C1572.86,145.404 1572.67,146.765 1572.55,147.422C1572.42,148.079 1572.32,148.946 1572.32,149.35C1572.32,150.247 1571.64,153.666 1571.2,155.014C1571.02,155.556 1570.51,156.81 1570.07,157.8C1569.64,158.791 1568.91,160.604 1568.46,161.83C1567.47,164.505 1565.52,168.417 1564.1,170.54C1562.82,172.444 1561.01,174.39 1558,177.076C1554.41,180.272 1552.36,181.482 1548.63,182.589C1544.23,183.896 1536.31,184.387 1533.05,183.554C1530.31,182.853 1527.89,181.46 1525.1,178.969C1522.87,176.989 1519.38,172.73 1516.85,168.914C1514.74,165.735 1513.58,163.638 1511.93,159.999C1509.18,153.949 1507.54,148.796 1505.86,140.987C1505.35,138.605 1502.59,124.134 1502.59,123.836C1502.59,123.772 1501.86,124.071 1500.96,124.499C1499.4,125.244 1497.12,125.926 1496.18,125.928C1495.9,125.929 1495.59,125.763 1495.31,125.455C1494.85,124.963 1492.59,123.651 1491.59,123.295C1489.99,122.731 1488.58,121.165 1488.58,119.946C1488.58,119.108 1489.06,116.197 1489.26,115.822C1489.35,115.648 1489.78,115.058 1490.2,114.511C1491.96,112.239 1492.84,110.645 1493.02,109.372L1493.12,108.656L1494.08,108.563C1495.16,108.46 1496.51,107.819 1497.08,107.133C1497.28,106.9 1497.7,106.624 1498.01,106.52C1499.6,105.997 1501.49,104.288 1502.52,102.452C1503.67,100.379 1504.75,96.274 1504.91,93.263C1505.15,89.068 1503.78,86.376 1500.64,84.871C1499.28,84.216 1498.05,83.844 1496.54,83.636L1495.67,83.515L1496.7,83.395C1499.13,83.113 1501.58,81.991 1503.16,80.444C1505.31,78.328 1506.52,75.748 1507.95,70.208C1508.97,66.245 1509.84,64.159 1512.45,59.469C1514.19,56.335 1515.88,52.9 1516.67,50.887C1518.73,45.669 1519.81,39.06 1519.56,33.273C1519.42,30.134 1519.05,26.239 1518.75,24.776C1518.42,23.199 1517.58,21.559 1516.57,20.55C1515.61,19.586 1513.49,18.489 1511.82,18.083C1510.49,17.761 1507.89,17.755 1506.64,18.071C1505.35,18.398 1503.36,19.396 1502.11,20.342C1501.03,21.166 1492.19,30.046 1491.47,31.039C1491.24,31.355 1490.12,32.676 1488.98,33.973C1485.54,37.892 1480.65,44.167 1479.7,45.871C1479.52,46.189 1479.13,46.798 1478.83,47.224C1477.09,49.664 1474.49,54.667 1473.38,57.688C1471.66,62.352 1470.8,66.884 1470.64,71.975C1470.53,75.563 1470.7,77.843 1471.4,82.069C1471.66,83.645 1471.92,85.579 1471.97,86.367C1472.25,90.516 1470.69,93.316 1467.1,95.117C1466.33,95.504 1465.51,96.042 1465.29,96.313C1464.49,97.265 1464.5,98.922 1465.32,99.925C1465.59,100.261 1466.2,101.019 1466.68,101.609C1469.44,105.043 1470.58,108.388 1470.15,111.81C1469.8,114.601 1468.34,117.976 1466.12,121.11C1464.65,123.185 1464.45,123.828 1464.59,125.927C1464.81,129.276 1467.04,140.116 1468.93,147.024C1470.28,151.942 1472.56,158.734 1474.18,162.635C1477.81,171.389 1482.08,179.009 1486.91,185.364C1487.7,186.4 1488.41,187.367 1488.5,187.514C1488.84,188.075 1491.64,191.365 1493.34,193.193C1495.45,195.47 1498.41,198.234 1500.6,199.986C1501.48,200.685 1502.54,201.556 1502.97,201.921C1505.27,203.903 1510.64,207.004 1514.53,208.607C1517.87,209.979 1521.64,211.021 1525.44,211.615C1527.32,211.91 1528.34,211.964 1532.04,211.968C1536.17,211.972 1536.68,211.939 1541.04,211.382C1558.82,209.109 1575.15,208.189 1596.28,208.271C1615.93,208.348 1615.46,208.355 1617.46,207.956C1620.89,207.27 1624.08,205.92 1626.34,204.195L1627.05,203.653L1627.63,204.348C1628.35,205.209 1629.93,206.353 1631.17,206.903C1631.68,207.132 1632.74,207.451 1633.52,207.612C1634.87,207.891 1636.51,207.906 1666.64,207.923C1701.3,207.943 1698.84,208.008 1700.31,207.03C1701.01,206.57 1702.23,205.153 1702.23,204.808C1702.23,204.696 1701.5,204.152 1700.6,203.598C1694.5,199.828 1688.38,198.205 1682.65,198.838C1680.72,199.051 1679.11,199.412 1675.99,200.334C1672.93,201.237 1671.37,201.103 1670.81,199.886C1670.68,199.62 1670.36,198.859 1670.09,198.194C1669.43,196.594 1668.27,194.588 1666.6,192.158C1662.16,185.693 1660.91,183.51 1660.11,180.775C1659.73,179.48 1659.67,178.983 1659.57,175.601C1659.4,170.503 1659.02,168.952 1656.97,165.036C1656.41,163.973 1655.91,162.932 1655.86,162.722C1655.71,162.13 1656.04,158.806 1656.41,157.213C1656.99,154.691 1657.98,152.219 1660.06,148.059C1664.25,139.651 1664.9,137.694 1664.89,133.492C1664.88,131.311 1664.84,130.924 1664.35,129.034C1663.22,124.656 1663.84,122.495 1666.52,121.476C1668.26,120.814 1669.75,120.872 1670.92,121.647C1672.13,122.444 1672.7,123.505 1674.13,127.601C1675.37,131.131 1676.28,133.399 1677.47,135.88C1679.21,139.495 1680.54,141.509 1682.7,143.797C1683.28,144.402 1683.84,145.172 1683.98,145.562C1684.13,145.943 1684.65,146.929 1685.14,147.754C1687.02,150.929 1687.76,152.706 1688.29,155.38C1688.56,156.716 1689.33,158.622 1689.96,159.503C1690.19,159.821 1690.34,160.407 1690.45,161.451C1690.76,164.229 1691.43,166.073 1692.77,167.81C1693.41,168.643 1693.79,168.97 1696.07,170.644C1697.85,171.95 1698.51,173.305 1698.97,176.556C1699.93,183.385 1701.93,186.192 1706.11,186.558C1707.78,186.704 1710.3,186.528 1712.24,186.129L1713.71,185.828L1713.63,186.247C1713.51,186.85 1712.64,193.109 1712.31,195.82C1712.09,197.595 1712.03,199.286 1712.03,203.143C1712.03,207.607 1712.07,208.377 1712.38,210.148C1713.07,214.016 1713.8,215.852 1714.95,216.63C1715.59,217.061 1716.95,217.125 1717.94,216.772C1718.76,216.487 1720.37,215.467 1722.37,213.98C1733.66,205.583 1747,203.431 1761.82,207.618C1763.02,207.959 1764.07,208.238 1764.15,208.238C1764.37,208.238 1765.11,206.072 1765.52,204.242C1766.62,199.27 1768.37,197.412 1771.96,197.412C1773.3,197.412 1774.64,197.708 1775.88,198.277C1778.32,199.387 1779.45,201.763 1779.23,205.293L1779.13,206.937L1780.29,207.024C1780.92,207.071 1787.49,207.188 1794.89,207.284C1811.26,207.495 1844.34,208 1858.65,208.258C1870.15,208.464 1870.33,208.455 1871.7,207.591C1872.64,206.992 1873.13,205.994 1873.01,204.932C1872.82,203.163 1871.96,202.76 1864.3,200.844C1861.02,200.023 1857.52,199.093 1856.52,198.777C1853,197.662 1850.09,197.008 1843.37,195.822C1830.7,193.589 1827.09,192.363 1820.36,188.025C1812.7,183.085 1806.58,180.516 1800.22,179.571C1797.42,179.155 1793.33,179.154 1790.51,179.569C1784.62,180.436 1778.76,182.739 1772.04,186.83C1770.64,187.683 1768.71,188.854 1767.75,189.432C1766.78,190.01 1765.91,190.567 1765.8,190.669C1765.39,191.056 1758.1,194.56 1755.88,195.433C1749.38,197.998 1741.35,200.05 1735.06,200.753C1733.39,200.941 1731.76,200.76 1730.97,200.3C1729.66,199.538 1729.4,197.821 1730.23,195.553C1730.49,194.868 1730.95,193.603 1731.27,192.743C1733.06,187.9 1732.38,184.747 1729.25,183.317C1727.7,182.61 1726.1,182.407 1722.97,182.522C1721.45,182.577 1720.22,182.561 1720.22,182.485C1720.22,182.146 1721.42,181.342 1726.11,178.54C1731.55,175.291 1734.9,173.23 1735.03,173.059C1735.07,172.999 1735.37,172.776 1735.68,172.564C1737.8,171.146 1740.49,168.401 1742,166.135C1743.87,163.317 1745.32,159.463 1745.62,156.497C1745.71,155.671 1745.88,155.184 1746.5,154.088C1746.92,153.332 1747.37,152.459 1747.5,152.148C1747.63,151.837 1748.13,150.987 1748.6,150.259C1749.56,148.782 1749.99,147.808 1749.99,147.103C1749.99,146.841 1750.23,146.261 1750.53,145.793C1750.82,145.332 1751.51,143.987 1752.06,142.805C1752.96,140.853 1755.99,134.812 1761.44,124.142C1762.54,121.977 1763.49,120.204 1763.55,120.202C1763.6,120.2 1764.01,121.111 1764.45,122.228C1766.92,128.498 1768.66,134.898 1770.83,145.75C1771.77,150.432 1772.22,151.962 1773.05,153.254C1774.11,154.889 1775.36,155.565 1777.8,155.821L1778.93,155.939L1778.63,156.921C1778.38,157.738 1778.19,158.015 1777.53,158.573C1775.07,160.629 1773.72,163.77 1773.93,166.912C1774.16,170.459 1775.66,173.899 1777.49,175.109C1779.52,176.454 1781.55,176.687 1788.98,176.424C1792.81,176.289 1794.69,176.287 1796.16,176.417C1803.66,177.08 1806.27,175.222 1808.06,167.961C1808.36,166.763 1808.48,165.857 1808.48,164.775C1808.49,162.121 1807.83,161.057 1804.84,158.832C1803.69,157.976 1802.91,157.267 1802.57,156.757C1802.29,156.331 1802.05,155.919 1802.05,155.842C1802.05,155.764 1802.33,155.7 1802.66,155.7C1804.52,155.7 1806.24,154.496 1806.73,152.865C1807.23,151.173 1807.38,148.759 1807.37,142.487C1807.37,133.187 1806.66,125.881 1804.59,113.83C1803.94,110.03 1803.72,108.823 1801.74,98.228C1800.38,90.918 1799.53,85.83 1798.78,80.533C1798.06,75.341 1797.64,74.029 1796.7,74.029C1796.03,74.029 1795.58,74.37 1794.17,75.955C1793.41,76.822 1792.72,77.532 1792.65,77.532C1792.58,77.532 1792.13,77.89 1791.66,78.327L1790.79,79.123L1790.49,78.685C1790.11,78.116 1790.13,75.882 1790.59,70.523C1790.97,66.007 1790.99,63.905 1790.68,61.611C1790.29,58.724 1789.57,56.842 1787.95,54.425C1787.38,53.58 1786.85,52.652 1786.77,52.363C1786.43,51.188 1787.23,49.93 1788.64,49.428C1790.71,48.692 1791.18,48.449 1791.88,47.768C1793.17,46.521 1793.33,45.443 1792.9,40.937C1792.43,35.962 1792.33,35.223 1791.79,32.875C1790.74,28.287 1789.45,25.124 1785.17,16.636C1783.53,13.396 1782.01,10.431 1781.79,10.046L1781.38,9.347L1781,10.126C1780.78,10.554 1780.03,12.194 1779.33,13.77C1778.62,15.347 1776.6,19.824 1774.83,23.721C1773.06,27.617 1771.48,31.128 1771.33,31.522C1771.09,32.148 1768.87,36.974 1764.84,45.611C1762.81,49.968 1762.83,49.909 1762.82,51.422C1762.81,53.002 1763.07,53.636 1764.19,54.716C1766.93,57.367 1771.02,57.958 1774.18,56.159C1775.37,55.483 1777.05,53.849 1778.09,52.374C1779.23,50.748 1779.74,50.387 1780.91,50.387C1781.65,50.387 1781.88,50.458 1782.24,50.785C1783.7,52.152 1783.62,54.76 1782.06,56.193C1781.22,56.972 1780.96,57.079 1778.98,57.463C1778.13,57.626 1776.87,57.951 1776.18,58.184C1774.76,58.659 1772.05,59.941 1771.65,60.325C1771.51,60.463 1770.86,60.935 1770.21,61.372C1768.73,62.366 1766.5,64.143 1764.32,66.061C1760.21,69.688 1759.26,70.488 1757.62,71.716C1756.66,72.435 1755.27,73.375 1754.52,73.805C1751.91,75.296 1750.15,77.046 1749.12,79.167C1748.01,81.47 1747.7,82.971 1747.7,86.208C1747.69,90.369 1748.25,92.431 1749.7,93.676C1750.88,94.687 1751.2,94.728 1758.75,94.817C1763.62,94.874 1765.81,94.958 1766.57,95.116C1767.61,95.334 1769.58,96.204 1769.58,96.448C1769.58,96.689 1768.67,97.993 1768.13,98.533C1767.4,99.267 1766.08,99.844 1764.85,99.972C1764.29,100.03 1762.88,100.014 1761.73,99.937C1760.57,99.86 1757.01,99.784 1753.82,99.769C1748.91,99.745 1747.82,99.782 1746.81,100.005C1745.26,100.349 1743.98,100.834 1743.13,101.405C1742.42,101.88 1740.6,103.616 1740.6,103.815C1740.6,103.877 1740.34,104.311 1740.03,104.779C1738.91,106.438 1735.89,112.928 1734.27,117.173C1730.95,125.855 1730.23,127.591 1728.93,129.91C1727.79,131.938 1727.14,132.986 1726.28,134.128C1725.5,135.176 1722.99,137.741 1722.48,138.015C1722.18,138.173 1722.06,138.004 1720.89,135.839C1720.19,134.548 1719.1,132.489 1718.47,131.263C1717.84,130.037 1716.51,127.458 1715.52,125.531C1711.57,117.866 1704.52,102.936 1699.69,92.019C1697.91,88.011 1692.25,75.105 1691.68,73.79C1691.42,73.177 1690.2,70.383 1688.98,67.581C1687.76,64.779 1686.38,61.555 1685.92,60.417C1685.45,59.279 1683.88,55.589 1682.43,52.218C1680.97,48.847 1679.52,45.481 1679.2,44.739C1678.89,43.996 1677.7,41.345 1676.56,38.848C1675.42,36.351 1673.92,33.054 1673.23,31.522C1671.75,28.268 1666.66,18.119 1664.61,14.328C1662.72,10.835 1659.38,5.094 1659.24,5.094C1659.18,5.094 1659.09,5.219 1659.04,5.372M1174.15,3.667C1158.1,4.341 1140.51,8.899 1118.62,18.055C1114.81,19.649 1114.08,20.117 1113.42,21.412C1113,22.224 1112.94,22.504 1112.96,23.551C1112.97,24.258 1113.13,25.315 1113.35,26.109C1113.63,27.144 1113.72,27.892 1113.73,29.293C1113.74,30.982 1113.7,31.193 1113.29,32.025C1112.53,33.591 1111.08,34.599 1108.75,35.199C1106.84,35.689 1102.31,35.862 1093.39,35.787C1087.84,35.74 1085.49,35.771 1085.53,35.89C1085.64,36.237 1087.75,37.873 1088.78,38.415C1090.47,39.3 1091.38,39.469 1095.35,39.642C1108.53,40.217 1113.56,41.992 1115.96,46.916C1116.56,48.158 1116.87,49.157 1117.27,51.183C1117.5,52.411 1117.55,53.71 1117.58,60.258C1117.61,68.567 1117.7,69.658 1118.53,71.981C1119.74,75.382 1122.38,77.677 1126.15,78.629C1128.53,79.228 1130.14,79.334 1134.59,79.184C1142.78,78.908 1144.61,79.177 1147.9,81.143C1153.03,84.213 1155.9,83.331 1157.03,78.339C1157.43,76.558 1158.29,64.83 1158.48,58.347C1158.59,54.681 1158.38,49.87 1157.97,46.496C1157.79,45.073 1157.76,44.338 1157.86,44.302C1157.95,44.272 1158.39,44.017 1158.84,43.735C1159.29,43.454 1160.27,42.845 1161.02,42.384L1162.37,41.544L1163.05,41.897C1164.07,42.425 1165.74,42.399 1167.35,41.829C1168.03,41.589 1168.69,41.392 1168.83,41.392C1168.96,41.392 1169.48,41.244 1169.98,41.062C1174.04,39.589 1177.4,38.807 1184.03,37.795C1186.8,37.37 1186.85,37.369 1194.93,37.401L1203.05,37.433L1203.64,37.836C1204.65,38.527 1205.47,38.721 1207.99,38.857C1209.3,38.928 1211.29,39.071 1212.42,39.175C1215.05,39.418 1217.25,39.308 1218.47,38.873C1220.87,38.015 1222.17,35.859 1222.57,32.089C1222.87,29.311 1223.26,29.009 1226.81,28.818C1228.63,28.72 1229.37,28.611 1230.09,28.337C1231.91,27.645 1232.86,26.118 1232.7,24.13C1232.55,22.167 1231.69,21.273 1227.01,18.158C1221.02,14.174 1217.62,12.36 1211.86,10.058C1199.89,5.279 1187.16,3.121 1174.15,3.667M442.319,3.662C436.823,4.122 432.108,5.36 426.462,7.825C418.206,11.43 416.396,11.943 410.773,12.281C408.013,12.446 407.645,12.501 407.452,12.773C407.332,12.942 406.205,13.757 404.947,14.585C403.689,15.412 402.589,16.222 402.502,16.383C402.37,16.631 402.477,16.776 403.176,17.294C403.633,17.633 404.137,18.176 404.296,18.501C404.576,19.075 404.576,19.111 404.277,19.787C404.063,20.271 403.61,20.776 402.784,21.45C399.505,24.13 393.534,31.873 389.492,38.686C384.504,47.094 379.607,58.157 375.1,71.194C373.651,75.388 373.395,76.308 373.196,78.052C372.915,80.52 373.495,82.562 375.006,84.416C375.891,85.503 375.885,85.432 375.428,89.551C374.448,98.384 372.139,107.295 368.723,115.422C367.506,118.318 364.36,124.536 362.763,127.2C357.817,135.453 352.285,142.692 345.107,150.302C343.524,151.981 342.785,153.227 342.672,154.411C342.594,155.224 342.689,155.481 343.725,157.25L344.306,158.242L350.69,158.245L357.075,158.248L358.495,156.775C360.777,154.408 361.769,153.006 365.162,147.342C367.819,142.908 368.433,141.974 369.282,141.081C370.067,140.255 370.625,139.939 371.298,139.939C372.553,139.939 373.347,140.98 374.759,144.477C376.188,148.013 377.697,151.317 380.724,157.531C384.795,165.889 385.854,168.103 387.161,170.981C389.754,176.692 391.811,180.394 394.459,184.118C399.58,191.319 405.68,196.952 413.398,201.606C418.949,204.954 429.144,209.308 433.539,210.208C438.574,211.239 442.223,209.984 444.599,206.404C445.958,204.357 447.048,201.742 447.636,199.123C447.983,197.574 448.117,193.646 447.879,191.967C447.621,190.152 447.006,187.874 446.506,186.888C445.954,185.799 444.79,184.575 443.854,184.101C442.371,183.35 441.539,183.236 436.344,183.08C433.641,182.998 431.175,182.883 430.866,182.825L430.303,182.72L431.262,182.373C433.029,181.733 434.429,180.758 434.86,179.869L435.11,179.353L433.409,178.425C431.529,177.4 430.605,176.591 429.276,174.805C428.787,174.148 428.096,173.324 427.739,172.974C427.323,172.565 426.874,171.846 426.482,170.962L425.872,169.587L424.731,169.019C423.338,168.326 421.32,166.508 420.15,164.891C419.692,164.258 419.016,163.382 418.647,162.944C417.755,161.884 416.022,159.009 414.589,156.21C413.518,154.118 413.422,153.852 413.412,152.932C413.402,152.079 413.473,151.814 413.892,151.14C414.273,150.527 414.408,150.089 414.492,149.187C414.551,148.549 414.747,147.684 414.926,147.266L415.253,146.506L414.857,145.173C414.64,144.44 414.38,143.349 414.281,142.748C414.182,142.147 413.611,140.392 413.012,138.848C411.215,134.217 411.082,133.265 410.95,124.085L410.853,117.385L410.18,116.512C408.764,114.678 406.769,113.672 403.132,112.957C400.377,112.416 398.863,111.281 398.173,109.241C397.703,107.849 397.699,105.621 398.16,102.049C398.347,100.604 398.582,98.706 398.683,97.831C399.028,94.832 399.602,93.196 400.744,91.957C402.051,90.539 403.741,90.21 406.222,90.891C409.551,91.804 411.673,90.942 412.673,88.271C412.847,87.804 413.281,85.644 413.636,83.472C416.517,65.836 420.255,54.41 426.508,44.127C428.71,40.505 428.978,39.938 429.055,38.737L429.12,37.717L429.857,37.834C431.107,38.033 436.367,37.933 438.687,37.666C439.898,37.527 443.014,37.094 445.612,36.705C453.943,35.456 457.357,35.186 460.907,35.492C463.251,35.694 464.709,35.942 466.685,36.475C467.619,36.727 467.899,36.857 467.678,36.936C467.509,36.996 464.63,37.394 461.281,37.82C457.931,38.245 455.191,38.655 455.191,38.729C455.191,38.803 455.712,39.594 456.35,40.486C456.987,41.379 457.819,42.592 458.199,43.183C458.579,43.774 458.944,44.258 459.01,44.258C459.278,44.258 461.194,45.891 461.639,46.498C461.902,46.857 462.738,47.682 463.496,48.331C465.062,49.671 466.532,51.478 467.76,53.571C468.222,54.359 468.904,55.434 469.275,55.959C470.581,57.806 471.667,60.147 472.746,63.442C474.634,69.206 474.773,70.067 474.773,76.022L474.773,80.351L475.356,81.115C475.875,81.794 476.032,82.252 476.774,85.246C478.341,91.565 479.574,93.882 482.324,95.673C483.677,96.555 488.781,98.93 491.49,99.939C494.916,101.214 496.156,101.486 498.574,101.489C500.571,101.492 500.681,101.474 501.711,100.986C503.233,100.265 504.86,98.526 505.86,96.55C506.465,95.354 506.601,94.699 506.783,92.099C507.065,88.078 507.514,86.757 509.504,84.106C510.176,83.211 510.838,82.135 510.98,81.708C511.323,80.674 511.866,76.923 511.867,75.579C511.868,74.46 511.437,72.155 510.892,70.367C510.719,69.798 510.218,67.971 509.779,66.308C506.791,54.976 502.436,45.93 493.05,31.564C490.515,27.684 490.27,27.123 490.186,24.994C490.077,22.23 490.067,22.217 486.459,20.193C484.804,19.264 481.48,17.429 479.072,16.115C475.013,13.899 471.876,12.126 468.325,10.04C462.827,6.812 456.74,4.653 451.038,3.91C448.69,3.604 444.449,3.484 442.319,3.662M604.126,1.761C596.692,2.375 590.357,4.465 582.952,8.745C580.705,10.044 577.537,11.761 568.373,16.645C567.01,17.372 564.989,18.493 563.882,19.136L561.871,20.304L559.959,24.161C558.908,26.282 557.799,28.405 557.496,28.879C556.54,30.374 552.422,37.543 550.958,40.262C546.986,47.637 543.501,55.653 541.746,61.452C540.429,65.801 538.743,72.697 538.433,75.006C538.224,76.554 538.328,78.261 538.695,79.314C539.45,81.478 541.899,82.777 545.729,83.046C548.188,83.219 548.73,83.822 548.973,86.651C549.147,88.67 549.448,98.523 549.443,102.012L549.44,104.601L548.126,103.46C544.897,100.654 543.016,99.915 541.541,100.871C539.74,102.039 538.561,105.727 537.898,112.261C537.762,113.606 537.573,115.386 537.477,116.218C537.316,117.624 537.374,123.739 537.572,126.156C538.638,139.213 541.756,151.282 547.242,163.581C552.797,176.035 560.418,187.332 568.725,195.425C579.556,205.98 589.536,210.705 603.396,211.84C607.475,212.174 613.269,211.933 617.101,211.269C626.96,209.562 634.478,206.956 641.932,202.662C647.099,199.685 650.669,196.96 654.852,192.798C658.749,188.922 660.727,186.447 663.061,182.526C666.213,177.234 666.03,173.457 662.536,171.714C660.987,170.941 659.851,170.777 655.788,170.739C651.786,170.701 651.188,170.605 649.895,169.789C648.602,168.972 648.1,168.07 647.207,164.955C646.141,161.234 645.006,159.518 642.972,158.545C641.697,157.936 641.619,157.95 641.619,158.786C641.619,159.329 641.369,159.99 640.49,161.771C639.87,163.029 639.188,164.288 638.975,164.569C638.205,165.585 635.144,167.627 631.37,169.642C630.243,170.244 629.204,170.911 629.062,171.124C628.919,171.338 628.325,172.02 627.741,172.641C627.158,173.262 626.304,174.2 625.844,174.725C623.611,177.278 620.239,179.869 617.364,181.241C612.765,183.437 607.72,183.957 602.79,182.743C599.148,181.847 596.128,179.92 593.787,176.999C592.384,175.25 591.553,173.79 590.291,170.86C588.685,167.134 588.67,167.11 588.1,167.224C587.271,167.39 586.217,167.014 585.508,166.3C585.02,165.808 584.661,165.159 584.037,163.644C583.583,162.541 583.101,161.215 582.965,160.699C582.603,159.324 582.088,158.152 581.291,156.894C580.005,154.863 578.931,152.474 577.881,149.304C576.844,146.175 575.982,142.95 575.783,141.457C575.726,141.022 575.496,140.305 575.272,139.865C574.519,138.378 572.355,132.414 571.955,130.72C571.737,129.795 571.486,128.32 571.399,127.444C571.312,126.567 571.142,125.492 571.023,125.054C570.904,124.616 570.649,123.362 570.457,122.268C570.159,120.573 569.975,120.001 569.217,118.419C568.363,116.633 568.335,116.535 568.515,115.933C568.945,114.498 568.612,112.906 567.646,111.777C566.952,110.966 566.771,110.868 565.252,110.479C563.238,109.964 562.619,110.075 559.388,111.526L557.32,112.454L554.693,112.577C551.786,112.714 550.511,112.838 549.989,113.037L549.642,113.169L549.527,109.129C549.463,106.907 549.452,105.024 549.501,104.944C549.55,104.865 550.613,104.762 551.863,104.716C553.696,104.648 554.375,104.555 555.369,104.233C557.629,103.502 559.005,102.321 560.034,100.229C560.726,98.824 561.026,97.416 561.161,94.945L561.267,93.015L562.117,92.824C562.585,92.72 563.029,92.672 563.104,92.719C563.179,92.765 563.287,93.755 563.345,94.918C563.461,97.288 563.658,98.69 564.027,99.776C564.72,101.818 566.303,103.004 568.337,103.004C569.398,103.004 569.863,102.772 570.795,101.776C571.482,101.041 571.534,100.922 571.715,99.652C572.046,97.333 572.525,95.191 572.925,94.242C573.137,93.738 573.451,92.681 573.623,91.893C573.795,91.105 574.162,90.011 574.44,89.462C574.763,88.822 575.021,87.972 575.16,87.097C575.6,84.317 576.385,80.901 577.01,79.044C577.364,77.993 577.926,75.844 578.26,74.268C579.354,69.09 580.775,64.066 583.282,56.507C585.049,51.175 585.738,49.757 588.026,46.726C588.885,45.587 589.805,44.294 590.069,43.852C590.623,42.926 591.238,42.499 594.61,40.696C597.141,39.342 602.186,36.991 603.648,36.484C604.911,36.046 607.8,35.623 608.768,35.735C609.192,35.783 610.78,35.895 612.298,35.982C616.735,36.238 619.268,36.893 620.911,38.212C621.462,38.654 622.174,39.152 622.492,39.317C622.811,39.482 623.859,40.418 624.823,41.395C625.786,42.372 627.075,43.55 627.688,44.012C628.301,44.473 628.982,45.047 629.201,45.285C629.42,45.524 629.957,45.975 630.395,46.288C630.832,46.601 631.764,47.411 632.464,48.088C633.83,49.41 636.457,51.422 638.167,52.457C638.778,52.827 639.222,53.205 639.225,53.36C639.228,53.507 638.947,54.904 638.601,56.465C637.515,61.36 637.522,61.286 637.988,62.358C638.209,62.867 638.483,63.534 638.597,63.84C638.711,64.146 638.93,64.541 639.084,64.716C639.237,64.891 639.933,66.144 640.629,67.502C641.819,69.821 642.206,70.908 642.499,72.755C642.561,73.149 642.753,73.83 642.925,74.268C643.413,75.512 644.007,78.711 644.107,80.636C644.157,81.599 644.292,82.781 644.407,83.263C644.523,83.744 644.663,84.532 644.721,85.014C644.778,85.496 645.106,86.821 645.45,87.959C646.678,92.022 646.895,93.383 647.07,98.148C647.157,100.513 647.237,107.641 647.249,113.989C647.27,125.412 647.267,125.545 646.92,126.834C646.534,128.27 646.02,129.376 645.122,130.706C643.979,132.397 644.007,132.267 644.007,135.93C644.007,137.761 644.079,139.642 644.168,140.111C644.321,140.916 644.3,141.023 643.784,142.083C643.213,143.258 642.892,144.482 642.892,145.49C642.892,146.261 643.318,147.697 643.71,148.248L644.014,148.676L642.969,150.218C642.394,151.066 641.944,151.774 641.97,151.79C641.996,151.807 642.612,152.013 643.34,152.248C645.992,153.104 649.165,154.965 650.616,156.515C651.545,157.509 651.873,158.256 652.371,160.504C653.213,164.31 654.898,165.793 660.575,167.718C662.013,168.206 663.764,168.899 664.464,169.258C666.107,170.099 666.542,170.22 667.249,170.029C668.399,169.719 669.032,168.668 669.789,165.81C670.72,162.296 671.722,160.37 674.012,157.691C675.429,156.031 676.272,154.412 677.284,151.402C678.016,149.226 678.207,148.806 679.632,146.258C680.682,144.379 680.942,143.417 680.942,141.405C680.942,139.535 680.564,138.786 678.551,136.665C676.352,134.349 675.948,133.581 675.873,131.569C675.826,130.334 675.893,129.847 676.33,128.225C677.295,124.646 677.453,123.793 677.549,121.679C677.663,119.138 677.473,117.993 676.687,116.493C675.333,113.908 672.66,112.524 668.1,112.049L666.299,111.861L667.497,111.214C671.447,109.079 673.515,105.875 675.058,99.502C677.18,90.737 677.31,90.089 677.615,86.765C677.843,84.274 677.707,78.129 677.368,75.621C676.396,68.425 674.109,60.751 669.823,50.308C665.836,40.594 664.603,37.95 662.521,34.665C656.397,24.997 646.99,16.944 632.624,9.069C625.126,4.959 618.781,2.769 612.156,2.003C609.412,1.687 606.203,1.59 604.126,1.761M117.759,1.442C110.371,1.875 102.139,2.799 88.625,4.711C78.464,6.148 72.518,7.479 64.066,10.21C54.287,13.369 44.709,17.419 27.968,25.471C20.758,28.939 20.814,28.915 17.381,29.992C12.334,31.575 10.649,32.993 10.902,35.442C11.088,37.249 12.335,38.91 14.132,39.743C17.201,41.166 23.852,41.467 28.923,40.412C33.918,39.374 37.993,39.692 41.501,41.396C44.172,42.694 45.911,44.36 47.255,46.907C49.232,50.655 49.654,54.226 49.384,64.94C49.297,68.406 49.207,73.858 49.184,77.054C49.143,82.814 49.146,82.871 49.5,83.535C50.049,84.562 50.572,84.963 51.509,85.079C52.452,85.196 54.67,85.712 55.829,86.085C56.925,86.438 57.943,87.291 58.069,87.961C58.181,88.559 58.094,88.751 56.943,90.448C56.505,91.094 55.972,91.97 55.757,92.396C55.533,92.841 54.996,93.483 54.493,93.908C53.133,95.056 51.951,96.329 51.515,97.114C51.296,97.508 51.017,98.009 50.895,98.228C50.581,98.789 49.908,100.592 49.349,102.367L48.873,103.88L48.962,112.636C49.079,124.125 49.405,131.431 50.276,142.009C50.742,147.68 50.739,152.06 50.266,154.655C48.998,161.606 45.139,165.383 37.594,167.06C34.052,167.847 32.266,168.004 19.212,168.672C11.994,169.042 6.964,169.388 5.282,169.631C1.637,170.158 0,171.558 0,174.149C0,175.316 0.216,175.917 0.849,176.506C1.436,177.053 1.992,177.19 4.227,177.344C6.219,177.48 6.406,177.523 8.229,178.277C9.28,178.712 12.11,179.979 14.517,181.093C16.924,182.207 19.968,183.568 21.282,184.117C22.595,184.666 24.1,185.313 24.625,185.553C25.15,185.793 26.476,186.332 27.57,186.75C28.665,187.168 30.205,187.771 30.993,188.091C31.781,188.41 32.892,188.845 33.461,189.057C35.975,189.994 37.571,190.614 40.625,191.838C42.42,192.558 44.927,193.559 46.197,194.063C47.467,194.567 49.022,195.205 49.652,195.48C50.283,195.755 51.286,196.091 51.881,196.227C52.476,196.362 53.68,196.723 54.555,197.028C55.431,197.334 56.864,197.717 57.739,197.879C58.615,198.042 60.165,198.36 61.184,198.586C63.561,199.112 66.055,199.409 70.714,199.72C77.034,200.143 80.13,200.588 83.017,201.49C83.737,201.716 85.795,202.604 87.59,203.464C93.205,206.156 96.927,207.418 102.316,208.457C106.523,209.268 108.566,209.43 114.575,209.429C120.474,209.427 122.32,209.296 128.187,208.465C133.007,207.782 142.492,205.982 144.187,205.429C146.158,204.786 147.133,203.908 147.131,202.779C147.127,201.297 145.768,199.707 141.321,195.985C135.759,191.329 134.12,189.078 133.419,185.13C133,182.776 132.269,180.584 131.51,179.41C129.312,176.01 125.972,175.025 119.67,175.919C116.318,176.395 116.412,176.385 112.744,176.636C108.31,176.939 105.99,176.935 104.135,176.62C97.833,175.548 91.98,171.653 89.211,166.686C88.361,165.163 87.746,163.041 87.65,161.308C87.556,159.613 87.655,158.987 88.599,155.336C90.012,149.87 90.376,145.953 90.777,131.9C90.955,125.665 91.199,122.571 91.812,118.765C92.816,112.533 94.058,109.422 96.042,108.169C97.197,107.44 98.267,107.252 100.717,107.349C103.045,107.44 104.464,107.675 108.605,108.652C116.259,110.458 119.036,110.69 121.957,109.767C125.734,108.574 127.714,105.276 128.579,98.734C128.825,96.873 129.202,96.121 130.224,95.445C131.621,94.52 133.424,94.579 135.5,95.618C137.323,96.53 138.043,97.701 137.838,99.422C137.785,99.86 137.454,101.221 137.101,102.447C135.415,108.311 135.395,110.928 137.03,112.174C138.426,113.239 140.424,113.584 147.044,113.905C149.763,114.036 152.308,114.174 152.7,114.21C153.091,114.247 154.125,114.138 154.997,113.969C160.732,112.858 166.03,112.602 178.729,112.823C184.073,112.916 189.09,112.948 189.878,112.894L191.311,112.795L191.823,111.76C193.435,108.499 193.049,105.325 190.764,103.039C189.654,101.929 188.592,101.345 186.072,100.458C178.209,97.691 174.152,94.114 172.981,88.915C172.411,86.383 172.699,82.52 173.697,79.313L173.993,78.363L173.462,77.509C172.853,76.532 172.813,76.297 173.202,76.002C173.717,75.611 174.608,75.732 175.23,76.278C175.782,76.762 175.831,76.774 177.027,76.703C177.888,76.651 178.471,76.519 178.973,76.261C180.995,75.221 183.563,71.163 184.843,66.981C186.114,62.832 186.376,56.784 185.506,51.697C184.095,43.44 180.558,36.118 175.561,31.108C173.694,29.236 172.166,28.067 170.057,26.899C167.063,25.239 165.36,23.793 162.282,20.298C161.357,19.247 160.094,17.85 159.475,17.193C158.856,16.537 156.947,14.316 155.233,12.258C151.259,7.489 149.373,5.679 146.734,4.104C143.95,2.442 141.494,1.909 134.423,1.436C131.678,1.253 120.922,1.256 117.759,1.442M777.419,0.327C769.361,0.909 761.743,2.259 753.539,4.557C749.931,5.567 742.249,8.169 742.076,8.438C741.983,8.583 738.955,9.767 734.753,11.301C728.278,13.666 720.444,16.03 717.957,16.371C717.256,16.467 715.68,16.622 714.454,16.716C710.785,16.997 708.655,17.487 707.064,18.417C706.323,18.85 704.504,20.48 704.504,20.712C704.504,20.782 704.287,21.161 704.022,21.553C703.757,21.946 703.223,22.998 702.835,23.89C702.448,24.783 701.953,25.772 701.737,26.089C698.854,30.301 698.752,30.534 698.696,33.034C698.649,35.192 698.798,36.215 699.332,37.384C700.056,38.971 701.259,39.93 703.237,40.5C703.715,40.638 705.36,40.891 706.892,41.064C708.424,41.236 710.215,41.49 710.872,41.627C712.126,41.889 714.08,42.487 714.215,42.65C714.259,42.702 714.999,43.1 715.86,43.533C719.381,45.305 721.791,48.247 723.103,52.377C724.236,55.942 725.362,60.816 725.91,64.523C727.277,73.784 726.633,82.75 723.856,93.133C722.028,99.965 721.333,103.317 721.064,106.586C720.156,117.639 723.135,123.832 731.583,128.448C732.984,129.213 733.165,129.507 733.56,131.661C734.232,135.321 735.078,138.068 736.226,140.313C737.072,141.97 737.685,142.592 738.848,142.976C739.603,143.225 741.129,143.085 742.315,142.657C743.595,142.195 743.532,142.195 743.672,142.646C745.107,147.266 746.007,149.303 747.471,151.243C747.901,151.812 749.406,153.584 750.816,155.18C752.226,156.777 753.379,158.148 753.379,158.228C753.379,158.468 750.578,160.308 749.345,160.878C747.677,161.649 746.361,161.847 745.082,161.519C743.139,161.021 741.681,159.854 740.223,157.63C738.366,154.797 737.599,154.108 736.3,154.108C735.578,154.108 735.446,154.17 734.835,154.785C734.022,155.604 733.599,156.67 733.235,158.819C732.336,164.13 730.016,167.535 725.996,169.45C725.252,169.805 724.607,170.143 724.564,170.203C724.436,170.377 722.375,170.944 720.902,171.212C718.131,171.715 716.481,171.808 708.086,171.935C694.882,172.136 690.361,172.706 686.488,174.658C684.486,175.667 682.083,177.486 681.654,178.315C681.149,179.293 681.384,179.544 683.447,180.228C684.302,180.511 685.037,180.792 685.081,180.852C685.125,180.912 686.45,181.413 688.026,181.964C695.45,184.561 715.643,192.099 715.809,192.335C715.903,192.469 721.631,194.624 727.827,196.857C733.193,198.791 740.952,201.368 745.34,202.674C747.178,203.221 748.719,203.717 748.763,203.777C748.855,203.904 753.865,205.242 757.678,206.158C762.924,207.419 768.598,208.481 774.315,209.272C775.978,209.502 778.987,209.967 781.001,210.306C783.015,210.644 785.164,210.971 785.777,211.033C786.39,211.095 787.071,211.221 787.29,211.313C787.534,211.416 790.481,211.522 794.932,211.589C801.406,211.687 802.251,211.729 802.892,211.988C803.951,212.416 810.03,212.521 811.74,212.141C812.534,211.964 813.207,211.912 813.778,211.983C815.558,212.206 817.675,211.429 819.68,209.816C820.939,208.803 821.975,207.63 824.099,204.815C825.179,203.384 825.579,202.978 826.289,202.597C827.404,202 828.968,201.883 830.924,202.25C832.65,202.574 834.957,202.578 836.635,202.259C840.972,201.437 845.717,198.701 849.611,194.778C850.968,193.412 851.485,192.752 853.163,190.248C854.566,188.156 855.768,185.121 855.997,183.098C856.139,181.844 857.831,177.785 858.841,176.273C859.235,175.685 860.175,174.451 860.931,173.531C862.905,171.13 864.348,168.88 865.782,165.969C869.385,158.655 870.593,151.231 869.735,141.661L869.569,139.801L870.04,139.114C870.299,138.736 870.694,137.925 870.916,137.312C871.516,135.662 871.529,135.635 871.692,135.735C871.916,135.874 874.026,134.567 874.905,133.745C875.908,132.807 876.335,132.05 876.83,130.336C877.735,127.206 878.844,118.712 879.308,111.365C879.514,108.107 879.513,99.627 879.306,96.636C878.32,82.35 874.919,70.011 868.58,57.711C864.49,49.775 861.783,46.765 857.469,45.353L855.827,44.815L852.722,44.823C847.833,44.835 845.19,45.42 844.209,46.707C843.862,47.161 843.397,48.101 843.119,48.909C843.033,49.161 842.967,49.155 842.262,48.836C841.613,48.541 841.137,48.48 839.09,48.427L836.682,48.364L836.431,47.117C836.098,45.455 835.543,44.118 835.029,43.738C834.552,43.384 834.631,43.357 832.685,44.552C831.04,45.562 829.884,45.891 827.966,45.897C826.014,45.902 825.02,45.66 821.507,44.323C818.589,43.213 816.889,42.737 815.268,42.576C814.675,42.517 814.153,42.408 814.106,42.333C813.946,42.073 813.831,40.581 813.973,40.607C814.296,40.668 814.419,40.582 814.204,40.446C814.052,40.35 813.971,40.011 813.965,39.453C813.954,38.336 814.589,37.038 815.71,35.89L816.556,35.024L831.608,35.024L832.494,35.716C835.018,37.69 837.34,38.569 840.75,38.842C844.355,39.13 850.899,38.227 852.011,37.287C852.806,36.615 852.882,36.342 852.879,34.153C852.876,32.318 852.813,31.841 852.337,30.009L851.8,27.94L850.39,27.064C849.615,26.583 848.48,25.721 847.867,25.149C847.254,24.577 846.186,23.69 845.495,23.177L844.237,22.244L841.323,22.14C839.72,22.083 838.375,22.004 838.335,21.963C838.294,21.922 837.743,20.886 837.111,19.661C835.561,16.658 835.043,15.878 833.715,14.549C831.921,12.754 829.523,11.32 825.101,9.398C824.051,8.941 823.155,8.511 823.111,8.442C822.88,8.078 815.779,5.435 812.043,4.321C805.569,2.393 799.722,1.233 793.021,0.55C790.091,0.251 780.388,0.112 777.419,0.327M240.956,0.308C240.319,0.696 239.338,2.001 238.674,3.343C236.833,7.059 234.341,8.209 228.992,7.809C224.96,7.507 220.525,7.421 219.331,7.623C215.87,8.207 213.996,10.488 213.103,15.203C212.508,18.347 212.856,21.605 214.058,24.119C215.199,26.506 216.461,27.797 219.835,30.022C224.632,33.186 227.159,37.278 227.839,42.984C228.026,44.553 228.329,70.259 228.327,84.473C228.326,89.823 228.242,97.274 228.138,101.03C227.851,111.497 227.872,116.152 228.215,117.89C228.81,120.901 229.55,122.519 230.929,123.823C231.935,124.775 232.746,125.213 234.092,125.53C235.825,125.938 237.987,125.781 240.747,125.045C241.314,124.894 241.916,124.757 242.084,124.741C242.356,124.714 242.385,124.592 242.352,123.59C242.308,122.237 242.164,122.313 245.156,122.112C246.313,122.034 247.853,121.829 248.579,121.657C249.911,121.34 251.04,121.16 253.799,120.826C254.63,120.725 255.705,120.563 256.187,120.466C256.668,120.369 257.707,120.311 258.495,120.337C260.033,120.387 263.731,120.174 267.968,119.791C272.939,119.342 282.367,118.279 282.959,118.102C283.778,117.856 284.668,117.082 285.019,116.309C285.369,115.538 285.406,114.342 285.102,113.614C284.824,112.95 283.905,112.187 282.954,111.833C278.982,110.352 274.842,108.678 273.142,107.864C268.59,105.686 267.331,104.011 267.331,100.137C267.331,97.818 267.72,95.685 269.231,89.722C270.793,83.556 270.901,82.796 270.785,78.805C270.541,70.503 267.71,60.034 263.421,51.581C261.268,47.339 259.528,44.989 256.562,42.32C255.524,41.386 254.429,40.367 254.129,40.055L253.584,39.489L254.492,39.087C254.991,38.867 255.487,38.688 255.594,38.691C255.701,38.694 256.004,39.068 256.266,39.523C256.726,40.317 258.108,41.549 258.542,41.551C258.704,41.551 263.02,43.445 263.036,43.522C263.249,44.528 264.469,49.25 264.532,49.313C264.583,49.364 266.397,49.053 268.564,48.623L272.505,47.84L275.769,47.838C277.564,47.838 279.176,47.773 279.351,47.695C280.652,47.118 281.496,45.76 281.498,44.24C281.501,42.957 280.746,41.554 278.938,39.482C277.191,37.479 275.973,35.661 275.364,34.149C275.008,33.265 274.913,32.77 274.904,31.76L274.893,30.487L276.159,29.65C277.643,28.67 279.422,27.946 281.42,27.509C282.662,27.238 283.428,27.198 287.152,27.213C289.544,27.222 291.98,27.152 292.644,27.054C295.442,26.644 298.975,25.11 304.027,22.109C305.428,21.277 307.112,20.283 307.769,19.9C310.221,18.472 311.35,16.763 310.878,15.195C310.408,13.632 308.716,12.208 305.232,10.441C300.298,7.94 296.796,6.902 292.724,6.733C289.427,6.597 286.935,7.201 284.684,8.683C283.688,9.339 281.766,11.196 281.075,12.17L280.742,12.638L279.489,11.478C277.126,9.289 276.662,9.071 273.525,8.681C272.351,8.534 270.423,8.193 269.241,7.923C267.334,7.486 266.805,7.43 264.545,7.423C263.005,7.418 260.99,7.534 259.45,7.716C258.048,7.881 255.793,8.019 254.435,8.024C251.532,8.033 250.302,7.791 248.23,6.806C246.431,5.951 244.416,3.96 243.138,1.778C242.353,0.437 241.971,-0.002 241.59,0C241.519,0 241.233,0.139 240.956,0.308"/>
    </g>
</svg>
