<svg xmlns="http://www.w3.org/2000/svg" viewBox="0 0 638 510"><!--!Font Awesome Free 6.7.2 by @fontawesome - https://fontawesome.com License - https://fontawesome.com/license/free Copyright 2025 Fonticons, Inc.--><path d="M89.821,103.987L8.435,40.273C-1.125,32.788 -2.811,18.949 4.674,9.389C12.159,-0.172 25.998,-1.858 35.558,5.627L127.937,77.948L304.896,2.9C308.996,1 313.596,0 318.196,0C322.796,0 327.396,1 331.596,2.9L519.896,82.8C541.896,92.1 558.296,113.8 558.196,140C557.899,198.897 543.397,286.805 495.601,365.78L629.14,470.323C638.7,477.808 640.386,491.647 632.901,501.208C625.416,510.769 611.577,512.454 602.016,504.969L470.611,402.096C439.641,441.797 398.571,477.356 344.596,503.2C327.896,511.2 308.496,511.2 291.796,503.2C119.496,420.7 78.696,239.2 78.196,140C78.144,126.42 82.525,114.049 89.821,103.987ZM460.848,338.573C501.783,268.785 513.929,191.58 514.197,139.819C514.22,132.184 509.177,126.039 502.764,123.328L502.709,123.304L318.245,45.032L167.535,108.948L460.848,338.573ZM124.548,131.174C123.06,133.702 122.186,136.631 122.196,139.819C122.651,228.037 157.613,390.167 310.798,463.515L310.805,463.518C315.481,465.758 320.912,465.758 325.587,463.518L325.594,463.515C372.853,440.886 408.86,409.808 436.073,375.057L124.548,131.174Z"/></svg>
