<svg xmlns="http://www.w3.org/2000/svg" viewBox="0 0 320 320"><!--!Font Awesome Free 6.7.2 by @fontawesome - https://fontawesome.com License - https://fontawesome.com/license/free Copyright 2025 Fonticons, Inc.--><path d="M310.529,54.649C323.024,42.155 323.024,21.865 310.529,9.371C298.035,-3.124 277.745,-3.124 265.251,9.371L160,114.721L54.649,9.471C42.155,-3.024 21.865,-3.024 9.371,9.471C-3.124,21.965 -3.124,42.255 9.371,54.749L114.721,160L9.471,265.351C-3.024,277.845 -3.024,298.135 9.471,310.629C21.965,323.124 42.255,323.124 54.749,310.629L160,205.279L265.351,310.529C277.845,323.024 298.135,323.024 310.629,310.529C323.124,298.035 323.124,277.745 310.629,265.251L205.279,160L310.529,54.649Z" style="fill:rgb(216,0,30);"/></svg>
