<svg xmlns="http://www.w3.org/2000/svg" viewBox="0 0 301.24 390"><defs><style>.cls-1{fill:#fff;}</style></defs><title>AC Shield</title><g id="Layer_2" data-name="Layer 2"><g id="Layer_3" data-name="Layer 3"><path class="cls-1" d="M85.34,213.76,54.5,301.88l116,88.12,79.3-77.84L220.46,200.54v-44l5.87-7.35s-7.34,13.22,36.72,29.38c0,0,35.25,17.62,38.19,22,0,0-20.57-32.31-25-47s-20.56-44.06-20.56-44.06l16.15,11.75s-30.84-58.75-69-69c0,0-1.47-7.34-10.28-10.28l-4.41-23.5L194,9.62,183.74,2.28s-1.46,5.87-10.28,5.87S154.37.81,144.09,2.28s-16.15,5.87-27.9,0S103,3.75,103,3.75l2.94,4.4V27.24S60.38,59.56,4.57,153.55c0,0,10.28-8.81,23.5-11.75l-8.81,26.43s-8.82,2.94-14.69,22S.16,216.7.16,216.7l85.18-51.4,5.88,10.28s-14.69,8.81-7.34,17.62A23.78,23.78,0,0,1,85.34,213.76Z"/></g></g></svg>