<svg xmlns="http://www.w3.org/2000/svg" viewBox="0 0 331.06 190"><defs><style>.cls-1{fill:#fff;}</style></defs><title>Arrowhead</title><g id="Layer_2" data-name="Layer 2"><g id="Layer_8" data-name="Layer 8"><path class="cls-1" d="M331.06,190l-74.31-20,13.76,19.19h-210L74.31,170,0,190l6-9.43c.28-.44,28.83-45.29,62.21-89.56,19.66-26.08,37.15-46.88,52-61.83C139.65,9.55,154.49,0,165.53,0s25.88,9.55,45.36,29.18c14.82,15,32.31,35.75,52,61.83,33.38,44.27,61.93,89.12,62.21,89.56ZM77.47,180.49H253.59L235.5,155.28l76.11,20.49c-10.14-15.48-31.67-47.69-55.71-79.57C198.48,20.06,174.63,8.69,165.53,8.69S132.58,20.06,75.16,96.2c-24,31.88-45.57,64.09-55.71,79.57l76.11-20.49Z"/></g></g></svg>