<svg xmlns="http://www.w3.org/2000/svg" viewBox="0 0 285 233.85"><defs><style>.cls-1{fill:#fff;}</style></defs><title>Axehead</title><g id="Layer_2" data-name="Layer 2"><g id="Layer_7" data-name="Layer 7"><path class="cls-1" d="M203.15,0,179,28.5,142.5,15.35,106,28.5,81.85,0S0,32.15,0,113.27,78.92,233.85,78.92,233.85L103,176.12l19.73,5.11v32.15h39.46V181.23L182,176.12l24.12,57.73S285,194.38,285,113.27,203.15,0,203.15,0Zm8,223.62-24.84-56.27-43.85,11-43.12-11L75.27,223.62s-68-38.74-68-111.08c0-73.08,73.07-103,73.07-103l23.39,27.77L142.5,23.38,182,37.27,206.08,9.5s71.61,32.15,71.61,101.58C277.69,183.42,211.19,223.62,211.19,223.62Z"/></g></g></svg>