<svg xmlns="http://www.w3.org/2000/svg" viewBox="0 0 276.69 318.18"><defs><style>.cls-1{fill:#fff;}</style></defs><title>Backpack</title><g id="Layer_2" data-name="Layer 2"><g id="Layer_10" data-name="Layer 10"><path class="cls-1" d="M273.53,178.49c-5.41-20.3-7-39.7-4.41-71.58l.14-1.73c1.33-16.08,2.58-31.27-2.4-44.38C261.2,45.9,246.05,34.87,222.93,30c-1.14-2.16-2.38-4.34-3.74-6.54C205.39,1.13,164.25,0,156.15,0c-6.29,0-14.05.38-17.94,2.06h0C136,1.07,131.27,0,120.09,0c-8.11,0-49.25,1.13-63,23.47-1.39,2.24-2.65,4.45-3.81,6.65C30.42,35,15.44,46,9.83,60.8c-5,13.11-3.73,28.3-2.4,44.38l.14,1.73c2.61,31.88,1,51.28-4.41,71.58C0,190.36-3.25,210.69,6.62,237.62c5.38,14.67,14,28.43,17.59,33.8,2,8.25,5.84,17.46,12.79,28.17,8.76,13.47,36.34,17.16,52,18.17,20.3,1.3,41.38-.49,49.12-4.1,6,2.81,20.17,4.52,35.74,4.52,4.39,0,8.91-.13,13.38-.42,15.66-1,43.24-4.7,52-18.17,6.66-10.24,10.42-19.12,12.52-27.09,2.95-4.34,12.52-19.08,18.31-34.88C279.94,210.69,276.7,190.36,273.53,178.49ZM63.62,27.53c9-14.62,36.06-19.8,56.47-19.8,10,0,13.58.92,14.54,1.25l.7.81h5.29l.77-.69c.76-.3,4.25-1.37,14.76-1.37,20.4,0,47.44,5.18,56.47,19.8a82.8,82.8,0,0,1,8.7,18.36c-3.39,11.27-11.49,38.27-14.76,50.52-2.54,9.53-7.22,11-14.32,13.33-1.8.58-3.67,1.18-5.52,1.94-2.31.86-16.15,2-44.8,1.64-24-.3-42.54-1.46-46.53-2.41-7.34-1.75-8.2-2.77-17.15-15.6-1.13-1.61-2.37-3.39-3.75-5.34-9-12.73-16.44-35-19.41-44.58A83.27,83.27,0,0,1,63.62,27.53ZM23.25,185.7c8.75-26.78,7.65-50.3,5.15-80.87-.49-28.49-3.79-40.12,16.44-49.62a107.45,107.45,0,0,0-.2,27.88c2.57,24.1,4,49.89-8.42,76.78-6.92,15-10.49,36.19-12.32,54.48C21.64,207.42,21.39,198,23.25,185.7Zm209.5,109.68c-5,7.65-22.17,13.14-46,14.67-20.29,1.3-39.76-.7-45.27-3.35L139,304.21l-3.83,2.29c-5,2.75-24.87,4.88-45.66,3.55-23.83-1.53-41-7-46-14.67-12.73-19.59-13.8-33.12-13.8-44.26,0-6,.38-59.56,13.55-88,13.28-28.67,11.78-55.66,9.1-80.84-.48-4.5-.74-8.69-.77-12.65C55.27,79,60,89,65.24,96.5L69,101.8c9.29,13.32,12.1,17.34,23.81,20.13,6.48,1.54,30.16,2.5,49.41,2.73,3.44,0,7,.07,10.67.07,16.37,0,33.26-.53,38.18-2.56,1.46-.6,3-1.11,4.7-1.64,7.87-2.54,17.66-5.7,21.79-21.2,1.55-5.78,4.24-15.11,7-24.47-.13,2.38-.33,4.84-.6,7.41-2.68,25.18-4.18,52.17,9.09,80.84,13.17,28.45,13.55,82,13.55,88C246.55,262.26,245.49,275.79,232.75,295.38Zm19.69-80c-1.81-18.51-5.37-40.26-12.43-55.49-12.44-26.89-11-52.68-8.42-76.78,1.12-10.54,1.1-19.64-.22-28.1,20.76,9.54,17.41,21.13,16.92,49.84-2.51,30.57-3.61,54.09,5.15,80.87C255.39,198.6,255,208.35,252.44,215.36Z"/></g></g></svg>