<svg xmlns="http://www.w3.org/2000/svg" viewBox="0 0 178.78 418"><defs><style>.cls-1{fill:#fff;}</style></defs><title>Magic Wand</title><g id="Layer_2" data-name="Layer 2"><g id="Layer_5" data-name="Layer 5"><path class="cls-1" d="M178.78,89.39a89.39,89.39,0,1,0-134,77.49l-1.21,7a6.06,6.06,0,0,0,4.93,7l7.82,1.35L37.59,271.15a6,6,0,0,0-6.48,5L28.54,291A6,6,0,0,0,32,297.56L8.13,410.89l35,7.11L63.48,303.19a6,6,0,0,0,6.79-5l2.58-14.86a6,6,0,0,0-4.64-6.93L84,187l9.83,1.7a6.06,6.06,0,0,0,7-4.93l1-5.88A89.41,89.41,0,0,0,178.78,89.39ZM89.39,164.56a75.17,75.17,0,1,1,75.17-75.17A75.18,75.18,0,0,1,89.39,164.56Z"/></g></g></svg>