<svg xmlns="http://www.w3.org/2000/svg" viewBox="0 0 424.13 297.44"><defs><style>.cls-1{fill:#fff;}</style></defs><title>Spell Book</title><g id="Layer_2" data-name="Layer 2"><g id="Layer_11" data-name="Layer 11"><path class="cls-1" d="M324.56,93.45s0,0,0,0S324.55,93.49,324.56,93.45Z"/><path class="cls-1" d="M399.79,42.24V20.33a7.5,7.5,0,0,0-8.27-7.46c-.38,0-38.81,3.81-75.89-6.11-39.45-10.55-77.53-8.64-103.11,5-25.59-13.6-63.67-15.51-103.12-5-37,9.89-75.51,6.15-75.89,6.11a7.49,7.49,0,0,0-8.26,7.46V42.24H0V283H154.93l14.45,14.46h81.76l14-14h159V42.24Zm-88-21c4.28,1.15,8.57,2.12,12.81,2.95.1,18.54.32,67.42,0,69.25.76-.93,23.91-10.79,23.91-10.79l19,14.91v-69c7,.14,12.95,0,17.35-.22V252.81c-8.63,2.75-31.46,7.43-70.2-2.17-5.68-1.41-10.75-2.71-15.33-3.88-18.54-4.74-29.65-7.45-40.13-7.45-11.07,0-21.45,3-39.11,9.84V24.7C242.25,13.06,276.12,11.72,311.76,21.25ZM40.25,28.36c14,.65,43.55.77,73-7.11,35.64-9.53,69.5-8.19,91.74,3.45V249.15c-34.41-13.29-41.14-12.13-79.25-2.39-4.58,1.17-9.65,2.47-15.33,3.88-38.78,9.61-61.62,4.91-70.19,2.18Z"/></g></g></svg>