<svg xmlns="http://www.w3.org/2000/svg" viewBox="0 0 353.64 72"><defs><style>.cls-1{fill:#fff;}</style></defs><title>Tribal Double</title><g id="Layer_2" data-name="Layer 2"><g id="Layer_2-2" data-name="Layer 2"><path class="cls-1" d="M176,43s3-14-4-21c-10-11-25-11-25-11s12,6,18,17-2,23-18,23-19-28-9-30,15,12,15,12c-1-30-28-19-32-13s-5,2-5,2C111,8,99,0,84,0S62,6,51,13s-25,9-35,9S0,18,0,18c14,19,60,3,60,3,2,26,16,24,16,24-6-9-9-26,6-26s19,18,24,31,19,22,41,22S176,43,176,43Z"/><path class="cls-1" d="M237.64,22s-1,4-5-2-31-17-32,13c0,0,5-14,15-12s7,30-9,30-24-12-18-23,18-17,18-17-15,0-25,11c-7,7-4,21-4,21s7,29,29,29,36-9,41-22,9-31,24-31,12,17,6,26c0,0,14,2,16-24,0,0,46,16,60-3,0,0-6,4-16,4s-24-2-35-9-18-13-33-13S242.64,8,237.64,22Z"/></g></g></svg>