<?xml version="1.0" encoding="iso-8859-1"?>
<!-- Generator: Adobe Illustrator 19.0.0, SVG Export Plug-In . SVG Version: 6.00 Build 0)  -->
<svg version="1.1" id="Layer_1" xmlns="http://www.w3.org/2000/svg" xmlns:xlink="http://www.w3.org/1999/xlink" x="0px" y="0px"
	 viewBox="0 0 511.882 511.882" style="enable-background:new 0 0 511.882 511.882;" xml:space="preserve">
<path style="fill:#79AA41;" d="M259.171,233.014c-0.125,0.484-12.731,48.484-50.079,104.077
	c-34.287,50.984-97.111,119.104-201.798,153.984v0.016C3.061,492.496,0,496.48,0,501.197c0,5.889,4.78,10.668,10.668,10.668
	c1.171,0,2.312-0.203,3.358-0.562v0.016c48.907-16.307,93.299-40.769,131.991-72.759c30.928-25.57,58.264-55.952,81.256-90.3
	c39.16-58.529,52.031-107.889,52.562-109.951L259.171,233.014z"/>
<g>
	<path style="fill:#8AC054;" d="M55.249,162.536C-9.809,225.47,83.818,283.842,83.818,283.842s-58.029,93.846,28.179,121.4
		s169.699-167.667,169.699-167.667S120.307,99.617,55.249,162.536z"/>
	<path style="fill:#8AC054;" d="M488.882,317.113c65.058-62.917-28.569-121.306-28.569-121.306s58.029-93.831-28.18-121.385
		C345.926,46.868,262.42,242.089,262.42,242.089S423.825,380.047,488.882,317.113z"/>
</g>
<g>
	<path style="fill:#9ED36A;" d="M194.769,456.649c62.934,65.058,121.307-28.57,121.307-28.57s93.847,58.029,121.4-28.178
		c27.554-86.209-167.667-160.373-167.667-160.373S131.85,391.59,194.769,456.649z"/>
	<path style="fill:#9ED36A;" d="M349.346,23.016c-62.918-65.058-121.307,28.569-121.307,28.569s-93.83-58.029-121.384,28.179
		c-27.57,86.208,163.154,159.764,163.154,159.764S412.281,88.074,349.346,23.016z"/>
</g>
<g>
</g>
<g>
</g>
<g>
</g>
<g>
</g>
<g>
</g>
<g>
</g>
<g>
</g>
<g>
</g>
<g>
</g>
<g>
</g>
<g>
</g>
<g>
</g>
<g>
</g>
<g>
</g>
<g>
</g>
</svg>
