<svg xmlns="http://www.w3.org/2000/svg" viewBox="0 0 7.2 12.78"><defs><style>.cls-1{fill:#fff;}</style></defs><title>Asset 2</title><g id="Layer_2" data-name="Layer 2"><g id="Layer_1-2" data-name="Layer 1"><path class="cls-1" d="M7.2,11.77a2.31,2.31,0,0,0,0-.23L7,10.23a35,35,0,0,0-1.37-6A20.28,20.28,0,0,0,3.69.13L3.62,0,3.46.26A24.57,24.57,0,0,0,.65,7.74,37.65,37.65,0,0,0,0,12.59a1.7,1.7,0,0,0,0,.2,2.68,2.68,0,0,0,.2-.26A28,28,0,0,1,2.3,9.91,6.8,6.8,0,0,1,4.5,8.12a1.06,1.06,0,0,1,.85.19A3.07,3.07,0,0,1,6,9a11.25,11.25,0,0,1,1.07,2.41,3,3,0,0,0,.12.32"/></g></g></svg>