<?xml version="1.0" encoding="utf-8"?>
<!-- Generator: Adobe Illustrator 19.0.0, SVG Export Plug-In . SVG Version: 6.00 Build 0)  -->
<svg version="1.0" id="GRAFICOS" xmlns="http://www.w3.org/2000/svg" xmlns:xlink="http://www.w3.org/1999/xlink" x="0px" y="0px"
	 viewBox="0 0 39.685 39.685" enable-background="new 0 0 39.685 39.685" xml:space="preserve">
<g id="XMLID_3572_">
	<g id="XMLID_3621_">
		<path id="XMLID_3645_" fill="#357C95" d="M5.957,5.949c3.265-3.265,7.403-5.134,11.679-5.609L0.347,17.628
			C0.814,13.359,2.692,9.214,5.957,5.949z"/>
		<path id="XMLID_3644_" fill="#357C95" d="M0.347,22.073L17.62,39.346c-4.268-0.467-8.407-2.353-11.664-5.61
			C2.692,30.471,0.815,26.341,0.347,22.073z"/>
		<path id="XMLID_3643_" fill="#357C95" d="M33.736,5.957c3.265,3.265,5.134,7.403,5.617,11.671L22.065,0.339
			C26.326,0.814,30.472,2.692,33.736,5.957z"/>
		<path id="XMLID_3642_" fill="#357C95" d="M22.065,39.346l17.288-17.288c-0.483,4.268-2.353,8.407-5.617,11.671
			C30.472,36.993,26.326,38.87,22.065,39.346z"/>
	</g>
	<g id="XMLID_3579_">
		<path id="XMLID_3616_" fill="#357C95" d="M19.813,39.655l0.03,0.03l0.03-0.03C19.858,39.655,19.828,39.655,19.813,39.655z
			 M39.655,19.812c0,0.015,0,0.045,0,0.06l0.03-0.03L39.655,19.812z M0.03,19.813L0,19.842l0.03,0.03
			C0.03,19.857,0.03,19.827,0.03,19.813z M19.843,0l-0.03,0.03c0.015,0,0.045,0,0.06,0L19.843,0z"/>
		<path id="XMLID_3613_" fill="#357C95" d="M39.655,19.812L19.872,0.03c-0.015,0-0.045,0-0.06,0L0.03,19.813c0,0.015,0,0.045,0,0.06
			l19.783,19.783c0.015,0,0.045,0,0.06,0l19.783-19.783C39.655,19.858,39.655,19.827,39.655,19.812z M19.843,38.188L1.497,19.842
			L19.843,1.497l18.345,18.345L19.843,38.188z"/>
	</g>
	<g id="XMLID_3573_">
		<path id="XMLID_3574_" d="M34.676,34.721h0.045v-0.045C34.71,34.687,34.687,34.709,34.676,34.721z M34.676,4.964
			c0.011,0.011,0.034,0.034,0.045,0.045V4.964H34.676z M4.964,34.676v0.045h0.045C4.998,34.709,4.976,34.687,4.964,34.676z
			 M4.964,4.964v0.045c0.011-0.011,0.034-0.034,0.045-0.045H4.964z"/>
	</g>
</g>
<g id="antepasados">
</g>
<g id="caos_1_">
</g>
<g id="ley">
</g>
<g id="elementos">
</g>
<g id="XMLID_3_">
</g>
<g id="XMLID_4_">
</g>
<g id="XMLID_5_">
</g>
<g id="XMLID_7_">
</g>
<g id="XMLID_8_">
</g>
<g id="XMLID_9_">
</g>
<g id="XMLID_10_">
</g>
<g id="XMLID_88_">
</g>
<g id="XMLID_89_">
</g>
<g id="XMLID_90_">
</g>
<g id="XMLID_91_">
</g>
<g id="XMLID_92_">
</g>
</svg>
