<?xml version="1.0" encoding="utf-8"?>
<!-- Generator: Adobe Illustrator 19.0.0, SVG Export Plug-In . SVG Version: 6.00 Build 0)  -->
<svg version="1.0" id="GRAFICOS" xmlns="http://www.w3.org/2000/svg" xmlns:xlink="http://www.w3.org/1999/xlink" x="0px" y="0px"
	 viewBox="0 0 155.906 85.053" enable-background="new 0 0 155.906 85.053" xml:space="preserve">
<g id="XMLID_3595_">
	<g id="XMLID_3671_">
		<g id="XMLID_186_">
			<path id="XMLID_187_" fill="#357C95" d="M141.733,3.833c0,0-12.56,13.78-25.5,5.54c15.94-4.84-13.685-10.465-38.28-9.362
				c-24.595-1.103-54.22,4.522-38.28,9.362c-12.94,8.24-25.5-5.54-25.5-5.54h-14.18v81.22h155.92V3.833H141.733z M143.293,7.373
				h9.38c0,0-3.38,7.2-21.12,7.2C141.883,9.643,143.293,7.373,143.293,7.373z M12.613,7.373c0,0,1.41,2.27,11.74,7.2
				c-17.74,0-21.12-7.2-21.12-7.2H12.613z M2.123,48.474c0,4.7,3.81,8.51,8.51,8.51c-4.7,0-8.51,3.8-8.51,8.5V48.474z M2.123,81.784
				v-8.51c0,4.7,3.81,8.51,8.51,8.51H2.123z M16.353,81.784c-6.83,0-12.69-5.35-12.81-12.17c-0.1-5.57,3.23-11.37,8.45-11.99
				c1.73-0.21,1.51-1.07-0.01-1.29c-5.13-0.72-8.44-6.29-8.44-11.75v-26.8h148.82v26.8c0,5.46-3.31,11.03-8.44,11.75
				c-1.52,0.22-1.74,1.08-0.01,1.29c5.22,0.62,8.55,6.42,8.45,11.99c-0.12,6.82-5.98,12.17-12.81,12.17H16.353z M153.783,81.784
				h-8.51c4.7,0,8.51-3.81,8.51-8.51V81.784z M153.783,65.484c0-4.7-3.81-8.5-8.51-8.5c4.7,0,8.51-3.81,8.51-8.51V65.484z"/>
		</g>
	</g>
</g>
<g id="antepasados">
</g>
<g id="caos_1_">
</g>
<g id="ley">
</g>
<g id="elementos">
</g>
<g id="XMLID_3_">
</g>
<g id="XMLID_4_">
</g>
<g id="XMLID_5_">
</g>
<g id="XMLID_7_">
</g>
<g id="XMLID_8_">
</g>
<g id="XMLID_9_">
</g>
<g id="XMLID_10_">
</g>
<g id="XMLID_77_">
</g>
<g id="XMLID_84_">
</g>
<g id="XMLID_85_">
</g>
<g id="XMLID_86_">
</g>
<g id="XMLID_91_">
</g>
</svg>
