<?xml version="1.0" encoding="utf-8"?>
<!-- Generator: Adobe Illustrator 19.0.0, SVG Export Plug-In . SVG Version: 6.00 Build 0)  -->
<svg version="1.0" id="GRAFICOS" xmlns="http://www.w3.org/2000/svg" xmlns:xlink="http://www.w3.org/1999/xlink" x="0px" y="0px"
	 viewBox="0 0 70.866 77.953" enable-background="new 0 0 70.866 77.953" xml:space="preserve">
<g id="XMLID_3775_">
	<g id="XMLID_4687_">
		<path id="XMLID_4688_" fill="#357C95" d="M69.339,4.303l1.53-0.76v-3.54h-18.63c-1.73,0-3.44,0.4-4.99,1.18L35.433,7.081
			L23.617,1.183c-1.55-0.78-3.26-1.18-4.99-1.18h-18.63v3.54l1.53,0.76c2.73,1.37,3.32,5.02,1.16,7.18
			c-0.86,0.86-1.53,1.88-1.99,2.98c-0.46,1.1-0.7,2.3-0.7,3.51v59.98h70.872v-59.98c0-1.21-0.24-2.41-0.7-3.51
			c-0.46-1.1-1.13-2.12-1.99-2.98C66.019,9.323,66.609,5.673,69.339,4.303z M49.609,3.543h10.63l-21.26,5.67L49.609,3.543z
			 M21.257,3.543l10.63,5.67l-21.26-5.67H21.257z M67.319,28.343v46.07H3.547v-46.07H67.319z"/>
	</g>
</g>
<g id="antepasados">
</g>
<g id="caos_1_">
</g>
<g id="ley">
</g>
<g id="elementos">
</g>
<g id="XMLID_3_">
</g>
<g id="XMLID_4_">
</g>
<g id="XMLID_5_">
</g>
<g id="XMLID_7_">
</g>
<g id="XMLID_8_">
</g>
<g id="XMLID_9_">
</g>
<g id="XMLID_10_">
</g>
<g id="XMLID_232_">
</g>
<g id="XMLID_233_">
</g>
<g id="XMLID_234_">
</g>
<g id="XMLID_235_">
</g>
<g id="XMLID_236_">
</g>
</svg>
