<?xml version="1.0" encoding="utf-8"?>
<!-- Generator: Adobe Illustrator 19.0.0, SVG Export Plug-In . SVG Version: 6.00 Build 0)  -->
<svg version="1.0" id="GRAFICOS" xmlns="http://www.w3.org/2000/svg" xmlns:xlink="http://www.w3.org/1999/xlink" x="0px" y="0px"
	 viewBox="0 0 164.41 52.016" enable-background="new 0 0 164.41 52.016" xml:space="preserve">
<g id="XMLID_4272_">
	<path id="XMLID_4343_" d="M62.841,22.163v18.94c0,0.312-0.076,0.608-0.212,0.868c-0.196,0.376-0.516,0.676-0.904,0.844
		c-0.232,0.104-0.488,0.16-0.757,0.16H46.91c0.3-0.28,0.66-0.492,0.825-1.073c0.036-0.124,0.06-0.264,0.076-0.424
		c0.008-0.092,0.012-0.192,0.012-0.3V23.96c0-1.065-0.404-1.373-0.8-1.701c-0.036-0.032-0.076-0.064-0.112-0.096h13.914v3.994
		c-0.6-0.544-0.512-1.001-2.509-1.001H52.1v5.619h5.759c1.653,0,1.625-0.372,2.081-0.885v4.762
		c-0.596-0.656-0.768-0.884-2.081-0.884H52.1v6.215h7.832c1.997,0,2.509-0.479,2.509-0.996V22.163H62.841z"/>
	<path id="XMLID_4340_" d="M106.996,20.205c-0.1-0.124-0.204-0.264-0.308-0.424c-0.116-0.168-0.236-0.36-0.364-0.584l-4.162-7.243
		c2.961-0.88,4.418-3.562,4.418-5.158c0-4.79-3.221-6.331-9.464-6.331h-7.503v0.096c0.14,0.116,0.28,0.228,0.4,0.372
		c0.232,0.264,0.4,0.636,0.4,1.329v17.22c0,0.108-0.004,0.208-0.016,0.3c-0.012,0.16-0.04,0.3-0.08,0.424
		c-0.128,0.424-0.368,0.66-0.596,0.868c-0.036,0.032-0.072,0.064-0.108,0.096c-0.04,0.036-0.076,0.072-0.112,0.108h6.103
		c-0.296-0.276-0.657-0.504-0.821-1.073c-0.036-0.124-0.064-0.264-0.076-0.424c-0.012-0.092-0.016-0.192-0.016-0.3v-6.615h3.393
		l3.726,6.915l0.232,0.424l0.488,1.073h6.379C108.081,21.174,107.4,20.71,106.996,20.205 M97.284,9.873h-2.593V3.458H97.2
		c3.621,0,5.102,1.056,5.102,3.393C102.302,8.877,100.878,9.873,97.284,9.873"/>
	<path id="XMLID_4337_" d="M89.212,0.466v19.557c-0.256,0-0.556,0.048-1.044-0.825c-0.296-0.524-1.413-2.461-1.413-2.461
		l-2.749-4.782c2.961-0.88,4.418-3.561,4.418-5.158c0-4.79-3.221-6.331-9.464-6.331h-6.703v20.813h5.19
		c-0.296-0.276-0.657-0.504-0.821-1.073c-0.036-0.124-0.064-0.264-0.076-0.424c-0.012-0.092-0.016-0.192-0.016-0.3v-6.615h3.393
		l3.726,6.915l0.232,0.424l0.576,1.073h3.278c0.296,0,0.576-0.068,0.824-0.192c0.256-0.124,0.476-0.304,0.648-0.524
		c0.004-0.004,0.008-0.012,0.012-0.016c0.008-0.012,0.02-0.028,0.024-0.032c0.004,0,0.004-0.004,0.004-0.004
		c0.228-0.308,0.36-0.688,0.36-1.104V0.466H89.212z M79.128,9.874h-2.593V3.459h2.509c3.622,0,5.102,1.056,5.102,3.394
		C84.146,8.878,82.722,9.874,79.128,9.874"/>
	<path id="XMLID_4336_" d="M71.461,21.279h-0.4V4.46c0-0.573-0.512-1.001-2.509-1.001h-7.807v5.618h5.758
		c1.653,0,1.625-0.372,2.081-0.884v4.762c-0.596-0.656-0.768-0.885-2.081-0.885h-5.758v6.215h6.464c1.997,0,1.909-0.456,2.509-0.997
		v3.99H55.554c0.3-0.28,0.66-0.492,0.824-1.072c0.036-0.124,0.06-0.264,0.076-0.424c0.008-0.092,0.012-0.192,0.012-0.3V2.263
		c0-0.108-0.004-0.208-0.012-0.3c-0.076-0.916-0.512-1.161-0.901-1.497h14.035c1.034,0,1.872,0.838,1.872,1.872V21.279z"/>
	<path id="XMLID_4335_" d="M152.908,30.719c-2.017-0.672-3.766-1.301-4.002-2.733c-0.02-0.112-0.028-0.224-0.028-0.344
		c0-1.825,1.485-2.909,3.394-2.909c2.621,0,5.102,1.941,6.099,3.566v-4.49c-0.03,0.016-0.241-0.285-0.719-0.538
		c-0.725-0.384-2.551-1.503-5.38-1.527c-0.028-0.004-0.056-0.004-0.088-0.004c-4.446,0-7.583,2.569-7.583,6.247
		c0,7.383,10.777,5.303,10.777,9.692c0,1.797-1.537,2.737-3.818,2.737c-1.869,0-2.956-0.573-4.093-1.382
		c-0.22-0.152-0.207-0.179-0.4-0.343l0.732,1.917c0.104,0.256,0.477,1.448,1.646,2.178c0.6,0.375,1.378,0.599,2.114,0.619
		c0.092,0.004,0.188,0.004,0.284,0.004c2.145,0,3.97-0.536,5.314-1.501c0.188-0.132,0.364-0.272,0.532-0.424
		c1.249-1.109,1.965-2.645,1.965-4.49C159.655,32.843,155.969,31.731,152.908,30.719"/>
	<path id="XMLID_4334_" d="M53.297,0.468v20.813h-0.4V4.214c0-0.485-0.628-0.752-1.681-0.752H43v16.023
		c0,1.14,0.516,1.425,0.912,1.797h-6.099c0.368-0.372,0.912-0.657,0.912-1.797V3.461H34.62c-1.569,0-1.597,0.824-2.081,1.28V0.468
		H53.297z"/>
	<path id="XMLID_4333_" d="M47.822,19.481V7.752c0-1.173-0.488-1.429-0.912-1.797h5.186v13.526c0,0.108,0.004,0.208,0.016,0.3
		c0.012,0.16,0.04,0.3,0.076,0.424c0.164,0.568,0.524,0.796,0.82,1.073H46.91c0.272-0.276,0.644-0.504,0.816-1.073
		c0.04-0.124,0.068-0.264,0.08-0.424C47.818,19.689,47.822,19.589,47.822,19.481"/>
	<path id="XMLID_4328_" d="M74.562,32.06V32c2.081-0.2,4.334-1.197,4.334-4.874c0-4.962-6.215-4.962-8.1-4.962h-8.068
		c0.036,0.032,0.076,0.064,0.112,0.096c0.396,0.328,0.8,0.636,0.8,1.701v17.22c0,0.664-0.172,1.041-0.4,1.309
		c-0.124,0.152-0.264,0.272-0.4,0.388c-0.04,0.032-0.076,0.068-0.112,0.1h8.068c3.422,0,9.524-0.228,9.524-5.587
		C80.321,33.2,76.871,32.144,74.562,32.06 M67.919,25.161h1.34c3.362,0,5.358,0.284,5.358,2.705c0,2.141-1.341,2.965-3.822,2.965
		h-2.877V25.161z M70.797,39.983h-2.877v-6.443h2.877c2.453,0,5.246,0.144,5.246,3.393C76.043,39.927,72.849,39.983,70.797,39.983"
		/>
	<path id="XMLID_4327_" d="M46.898,24.035v10.473c0,5.446-1.312,8.896-7.812,8.896c-5.086,0-7.687-1.501-8.255-6.515
		c-0.028-0.232-0.052-0.476-0.068-0.724c-0.02-0.312-0.036-0.636-0.044-0.972c-0.008-0.224-0.012-0.452-0.012-0.684v-4.145
		c0-1.376-0.636-2.53-1.148-3.451c-0.02-0.04-0.04-0.076-0.064-0.116c-1.677-2.937-4.61-5.082-8.163-5.674
		c-0.62-0.108-1.269-0.16-1.925-0.16c-0.656,0-1.301,0.052-1.921,0.16c-5.614,0.936-9.688,5.75-9.688,11.449
		c0,6.403,5.21,11.613,11.609,11.613h0.3v1.705h-0.6v-1.108c-6.591-0.16-11.909-5.575-11.909-12.21
		c0-5.995,4.286-11.057,10.188-12.041c1.305-0.224,2.741-0.224,4.046,0c3.854,0.644,7.015,3.021,8.748,6.267h5.715
		c-0.4,0.372-0.912,0.656-0.912,1.797v5.915c0,3.478,0.2,5.903,4.506,5.903c4.218,0,4.418-2.821,4.418-5.903V23.959
		c0-1.112-0.54-1.453-0.912-1.797h2.033C46.062,22.163,46.898,23.003,46.898,24.035"/>
	<path id="XMLID_4324_" d="M102.906,22.165l-0.144,0.368l-0.156,0.396l-6.343,16.207l-3.149-5.482
		c2.961-0.88,4.418-3.561,4.418-5.158c0-4.79-3.221-6.331-9.464-6.331h-7.615c0.428,0.372,0.912,0.628,0.912,1.797v17.22
		c0,0.108-0.004,0.208-0.016,0.3c-0.012,0.16-0.04,0.3-0.08,0.424c-0.172,0.568-0.54,0.796-0.816,1.072h6.103
		c-0.296-0.276-0.656-0.504-0.821-1.072c-0.036-0.124-0.064-0.264-0.076-0.424c-0.012-0.092-0.016-0.192-0.016-0.3v-6.615h3.394
		l3.726,6.915l0.232,0.424l0.576,1.072c0.947,0,2.363-1.915,2.946-3.402c0.582-1.486,5.774-14.742,5.774-14.742l0.46-1.181
		l0.332-0.844l0.156-0.396l0.096-0.248H102.906z M88.236,31.573h-2.593v-6.415h2.509c3.622,0,5.102,1.056,5.102,3.393
		C93.254,30.576,91.83,31.573,88.236,31.573"/>
	<path id="XMLID_4299_" d="M113.915,22.164v14.662l-0.52-1.361l-4.514-11.805l-0.572-1.497h-5.402l-0.144,0.368
		c0.052,0.048,0.104,0.092,0.156,0.132c0.064,0.056,0.12,0.1,0.164,0.144l0.156-0.396c0.236,0.196,0.424,0.38,0.424,0.664
		c0,0.188-0.032,0.388-0.08,0.584c-0.128,0.524-0.384,1.056-0.548,1.469l-4.05,10.336l-1.881,4.802
		c-0.192,0.496-0.376,0.888-0.56,1.212c-0.084,0.156-0.172,0.296-0.256,0.424c-0.316,0.48-0.612,0.776-0.896,1.073h5.246
		c-0.2-0.2-0.713-0.484-0.713-0.94c0-0.04,0.004-0.084,0.008-0.132c0.012-0.124,0.044-0.272,0.088-0.424
		c0.104-0.408,0.288-0.88,0.416-1.24l1.285-3.422h7.667l0.216,0.568l1.184,3.109c0.12,0.332,0.276,0.656,0.376,0.984
		c0.044,0.14,0.076,0.28,0.096,0.424c0.008,0.072,0.012,0.144,0.012,0.216c0,0.372-0.456,0.684-0.628,0.856h1.797
		c0.216,0,0.42-0.036,0.612-0.104c0.428-0.144,0.784-0.44,1.005-0.824c0.164-0.276,0.256-0.6,0.256-0.945v-18.94H113.915z
		 M102.69,34.109l2.853-7.639l2.905,7.639H102.69z"/>
	<path id="XMLID_4296_" d="M118.453,21.279h6.271c-0.344-0.26-0.628-0.512-0.956-1.073c-0.068-0.124-0.144-0.264-0.22-0.424
		c-0.144-0.3-0.304-0.664-0.476-1.124l-1.869-4.89l-4.514-11.805l-0.572-1.497h-5.362c0.344,0.316,0.716,0.512,0.716,0.913
		c0,0.188-0.032,0.388-0.08,0.584c-0.128,0.525-0.384,1.057-0.548,1.469l-4.05,10.337l-0.893,2.281l-0.092,0.236l-0.096,0.244
		c0.407,1.369,1.624,3.494,3.049,4.75h0.2c-0.6-0.684-1.15-1.419-0.716-2.737c0.387-1.176,1.285-3.422,1.285-3.422h7.667
		l1.401,3.678c0.12,0.332,0.276,0.656,0.376,0.984c0.044,0.14,0.076,0.28,0.096,0.424c0.008,0.072,0.012,0.144,0.012,0.216
		C119.082,20.795,118.625,21.107,118.453,21.279 M110.498,12.411l2.853-7.639l2.905,7.639H110.498z"/>
	<path id="XMLID_4293_" d="M154.221,20.53c-0.556-0.096-1.136-0.152-1.721-0.16v-1.068h-0.6v1.661h0.3
		c0.657,0,1.301,0.052,1.921,0.16c5.615,0.936,9.688,5.75,9.688,11.449c0,6.403-5.21,11.613-11.609,11.613
		c-1.148,0-2.022-0.194-3.409-0.736c-1.387-0.542-0.008,0-0.008-0.004c-1.008-0.592-1.015-1.066-1.429-1.965
		c-0.413-0.899-0.304-0.664-0.476-1.124l-1.869-4.89l-3.142-8.215l-0.28-0.736l-1.092-2.853l-0.572-1.497h-5.363
		c0.1,0.092,0.2,0.172,0.292,0.248c0.236,0.196,0.424,0.38,0.424,0.664c0,0.188-0.032,0.388-0.08,0.584
		c-0.128,0.524-0.384,1.056-0.548,1.468l-1.265,3.222l-1.421,3.638l-1.365,3.477l-1.881,4.802c-0.024,0.064-0.048,0.124-0.072,0.18
		c-0.164,0.412-0.328,0.748-0.488,1.032c-0.084,0.156-0.172,0.296-0.256,0.424c-0.24,0.364-0.464,0.62-0.684,0.853
		c-0.072,0.076-0.144,0.148-0.212,0.22h5.246c-0.2-0.2-0.712-0.484-0.712-0.941c0-0.04,0.004-0.084,0.008-0.132
		c0.012-0.124,0.044-0.272,0.088-0.424c0.104-0.408,0.288-0.88,0.416-1.24l1.285-3.422h7.667l0.857,2.253l0.544,1.425
		c0.12,0.332,0.276,0.656,0.376,0.984c0.044,0.14,0.076,0.28,0.096,0.424c0.008,0.072,0.012,0.144,0.012,0.216
		c0,0.372-0.456,0.684-0.628,0.856l4.768,0.004c1.426,1.358,3.283,1.805,5.172,1.805c6.731,0,12.21-5.478,12.21-12.214
		C164.41,26.577,160.124,21.514,154.221,20.53 M134.304,34.108l2.853-7.639l2.905,7.639H134.304z"/>
	<path id="XMLID_4284_" d="M134.52,22.163l-0.144,0.372l-0.156,0.392l-1.533,3.922l-0.192,0.493l-0.196,0.496
		c-1.849-3.87-6.047-5.675-12.049-5.675h-6.047c0.036,0.032,0.072,0.064,0.112,0.092c0.356,0.296,0.72,0.576,0.788,1.404
		c0.008,0.092,0.012,0.192,0.012,0.3v17.22c0,0.2-0.016,0.376-0.044,0.528c-0.004,0.036-0.012,0.072-0.02,0.108
		c-0.02,0.096-0.044,0.18-0.08,0.26c-0.024,0.072-0.052,0.132-0.088,0.192c-0.004,0.012-0.012,0.02-0.016,0.028
		c-0.036,0.06-0.076,0.12-0.116,0.172c-0.004,0.004-0.004,0.008-0.004,0.008c-0.044,0.052-0.088,0.1-0.132,0.144
		c-0.052,0.052-0.104,0.104-0.16,0.152c-0.06,0.048-0.116,0.1-0.18,0.148l-0.072,0.056h6.047c2.661,0,6.643-0.244,7.595-2.681
		l0.368-0.932l2.981-7.611l1.328-3.402l0.208-0.532l0.2-0.508l1.449-3.693l0.316-0.808l0.156-0.396l0.096-0.248H134.52z
		 M119.394,39.983V25.161c3.79,0,9.692,0.228,9.692,7.411C129.086,39.527,123.155,39.983,119.394,39.983"/>
	<path id="XMLID_4283_" d="M136.433,15.291c0,1.845-0.716,3.382-1.965,4.49c-0.168,0.152-0.344,0.292-0.532,0.424
		c-1.344,0.964-3.169,1.501-5.314,1.501c-0.096,0-0.192,0-0.284-0.004c-0.736-0.02-1.269-0.048-2.093-0.28
		c-0.804-0.224-1.533-1.196-1.765-1.589c-0.004-0.004-0.008-0.012-0.016-0.024c-0.064-0.12-0.128-0.236-0.192-0.372
		c-0.112-0.236-0.22-0.476-0.324-0.732l-0.732-1.917c0,0-5.919-15.459-6.038-15.807c-0.124-0.348-1.061-0.516-1.061-0.516h1.288
		l6.427,16.803c1.137,0.808,2.637,1.444,4.506,1.444c2.281,0,3.818-0.941,3.818-2.737c0-4.39-10.777-2.309-10.777-9.692
		c0-3.678,3.137-6.247,7.583-6.247c0.032,0,0.06,0,0.088,0.004c2.829,0.024,4.482,1.337,5.303,1.337c0.428,0,0.568-0.54,0.796-0.685
		v5.903c-0.996-1.625-3.478-3.566-6.099-3.566c-1.909,0-3.393,1.084-3.393,2.909c0,0.12,0.008,0.232,0.028,0.344
		c0.236,1.433,1.985,2.061,4.002,2.733C132.748,10.029,136.433,11.141,136.433,15.291"/>
	<path id="XMLID_4280_" d="M30.503,39.26c-0.432,0.368-0.696,0.648-1.765,0.712c-0.152,0.008-0.32,0.012-0.508,0.012h-1.653v-0.056
		c1.877-1.321,2.982-3.302,3.33-5.646c0.08-0.544,0.12-1.104,0.12-1.681c0-0.572-0.04-1.128-0.12-1.673
		c-0.768-5.358-5.202-9.188-10.456-9.188c-6.103,0-10.665,4.93-10.665,10.861c0,6.015,4.65,10.805,10.665,10.805
		c0.684,0,1.28-0.056,1.881-0.14c0.6-0.06,1.058-0.172,1.713-0.288h10.218C31.619,41.936,31.027,40.961,30.503,39.26 M19.45,40.413
		c-3.766,0-6.387-3.333-6.387-7.811c0-4.278,2.481-7.867,6.387-7.867c3.822,0,6.299,3.618,6.299,7.867
		C25.749,36.679,23.3,40.413,19.45,40.413"/>
	<path id="XMLID_4279_" d="M154.904,19.85c-0.877-0.15-1.784-0.226-2.706-0.226c-0.922,0-1.829,0.075-2.706,0.226
		c0,0,2.551-3.398,2.551-8.188h0.316C152.358,16.452,154.904,19.85,154.904,19.85"/>
	<path id="XMLID_4278_" d="M21.568,19.706c-0.7-0.12-1.425-0.18-2.161-0.18s-1.461,0.06-2.161,0.18c0,0,2.037-2.713,2.037-6.539
		h0.252C19.535,16.993,21.568,19.706,21.568,19.706"/>
	<path id="XMLID_4277_" d="M11.836,21.946c-0.58,0.41-1.135,0.88-1.655,1.401c-0.521,0.521-0.99,1.075-1.401,1.655
		c0,0-0.478-3.359-3.183-6.064l0.178-0.178C8.48,21.465,11.836,21.946,11.836,21.946"/>
	<path id="XMLID_4276_" d="M6.539,30.412c-0.12,0.7-0.18,1.425-0.18,2.161c0,0.736,0.06,1.461,0.18,2.161
		c0,0-2.713-2.037-6.539-2.037v-0.252C3.826,32.444,6.539,30.412,6.539,30.412"/>
	<path id="XMLID_4275_" d="M8.779,40.143c0.41,0.58,0.88,1.135,1.401,1.655c0.521,0.521,1.075,0.99,1.655,1.401
		c0,0-3.359,0.478-6.064,3.183l-0.178-0.178C8.298,43.499,8.779,40.143,8.779,40.143"/>
	<path id="XMLID_4274_" d="M17.244,45.44c0.7,0.12,1.425,0.18,2.161,0.18c0.736,0,1.461-0.06,2.161-0.18
		c0,0-2.037,2.713-2.037,6.539h-0.252C19.277,48.153,17.244,45.44,17.244,45.44"/>
	<path id="XMLID_4273_" d="M30.033,25.003c-0.41-0.58-0.88-1.135-1.401-1.655c-0.521-0.521-1.075-0.99-1.655-1.401
		c0,0,3.359-0.478,6.064-3.183l0.178,0.178C30.514,21.647,30.033,25.003,30.033,25.003"/>
</g>
<g id="antepasados">
</g>
<g id="caos_1_">
</g>
<g id="ley">
</g>
<g id="elementos">
</g>
<g id="XMLID_3_">
</g>
<g id="XMLID_4_">
</g>
<g id="XMLID_5_">
</g>
<g id="XMLID_7_">
</g>
<g id="XMLID_8_">
</g>
<g id="XMLID_9_">
</g>
<g id="XMLID_10_">
</g>
<g id="XMLID_88_">
</g>
<g id="XMLID_89_">
</g>
<g id="XMLID_90_">
</g>
<g id="XMLID_91_">
</g>
<g id="XMLID_92_">
</g>
</svg>
