<?xml version="1.0" encoding="utf-8"?>
<!-- Generator: Adobe Illustrator 19.0.0, SVG Export Plug-In . SVG Version: 6.00 Build 0)  -->
<svg version="1.0" id="GRAFICOS" xmlns="http://www.w3.org/2000/svg" xmlns:xlink="http://www.w3.org/1999/xlink" x="0px" y="0px"
	 viewBox="0 0 70.866 77.953" enable-background="new 0 0 70.866 77.953" xml:space="preserve">
<path id="XMLID_3842_" fill="#357C95" d="M35.068,2.256c-0.03,6.73-0.11,24.22,0.01,25.63C35.188,26.476,35.108,8.986,35.068,2.256z
	"/>
<path id="XMLID_3809_" fill="#357C95" d="M35.068,2.256c-0.03,6.73-0.11,24.22,0.01,25.63C35.188,26.476,35.108,8.986,35.068,2.256z
	"/>
<path id="XMLID_3839_" fill="#357C95" d="M70.888,0.003h-35.44c0,0-0.01,0.79-0.02,2.1c-0.01-1.31-0.01-2.1-0.01-2.1h-35.44v7.09
	l7.09,7.08h-7.09v63.78h35.44v-3.54H3.528v-46.07c0,0,31.72,0,31.89,0c0.01,0,0.01-0.03,0.02-0.09c0,0.06,0,0.09,0.01,0.09
	c0.17,0,31.89,0,31.89,0v46.07h-31.89v3.54h35.44v-63.78h-7.09l7.09-7.08V0.003z M14.158,9.403c-3.57,4.49-4.82-5.01-10.63-5.86
	C6.008,2.733,18.208,4.283,14.158,9.403z M56.708,9.403c-4.05-5.12,8.15-6.67,10.63-5.86C61.528,4.393,60.278,13.893,56.708,9.403z"
	/>
<g id="antepasados">
</g>
<g id="caos_1_">
</g>
<g id="ley">
</g>
<g id="elementos">
</g>
<g id="XMLID_3_">
</g>
<g id="XMLID_4_">
</g>
<g id="XMLID_5_">
</g>
<g id="XMLID_7_">
</g>
<g id="XMLID_8_">
</g>
<g id="XMLID_9_">
</g>
<g id="XMLID_10_">
</g>
<g id="XMLID_297_">
</g>
<g id="XMLID_298_">
</g>
<g id="XMLID_299_">
</g>
<g id="XMLID_300_">
</g>
<g id="XMLID_301_">
</g>
</svg>
