<?xml version="1.0" encoding="utf-8"?>
<!-- Generator: Adobe Illustrator 19.0.0, SVG Export Plug-In . SVG Version: 6.00 Build 0)  -->
<svg version="1.0" id="GRAFICOS" xmlns="http://www.w3.org/2000/svg" xmlns:xlink="http://www.w3.org/1999/xlink" x="0px" y="0px"
	 viewBox="0 0 595.276 841.89" enable-background="new 0 0 595.276 841.89" xml:space="preserve">
<g id="XMLID_1658_">
	<g id="XMLID_112_">
		<path id="XMLID_113_" fill="#357C95" d="M0,0v841.89h595.276V0H0z M574.02,821.954c0,0.049-0.04,0.089-0.089,0.089H466.347
			l-3.287-3.54H132.216l-3.287,3.54H21.26V21.264h552.76V821.954z"/>
	</g>
</g>
<g id="antepasados">
</g>
<g id="caos_1_">
</g>
<g id="ley">
</g>
<g id="elementos">
</g>
<g id="XMLID_1553_">
	<path id="XMLID_1614_" fill="#FFFFFF" d="M589.185,835.806h-9.08v-7.09h-26.35l0.003,7.09h-99.798V825.59h2v8.216h95.798
		l-0.003-7.09h28.35v-28.345l7.08,0V43.52l-7.08,0V15.174h-28.35l0.003-7.09H43.517l0.003,7.09H15.17v28.346l-7.08,0V798.37l7.08,0
		v28.345h28.35l-0.003,7.09h95.798v-8.216h2v10.216H41.516l0.003-7.09H15.17v7.09H6.09v-9.09h7.08v-26.345l-7.08,0V41.52l7.08,0
		V15.174H6.09v-9.09h9.08v7.09h26.349l-0.003-7.09h512.243l-0.003,7.09h26.35v-7.09h9.08v9.09h-7.08v26.346l7.08,0V800.37l-7.08,0
		v26.345h7.08V835.806z M582.105,833.806h5.08v-5.09h-5.08V833.806z M8.09,833.806h5.08v-5.09H8.09V833.806z M582.105,13.174h5.08
		v-5.09h-5.08V13.174z M8.09,13.174h5.08v-5.09H8.09V13.174z"/>
</g>
<g id="XMLID_3_">
</g>
<g id="XMLID_4_">
</g>
<g id="XMLID_5_">
</g>
<g id="XMLID_7_">
</g>
<g id="XMLID_8_">
</g>
<g id="XMLID_9_">
</g>
<g id="XMLID_10_">
</g>
<g id="XMLID_88_">
</g>
<g id="XMLID_89_">
</g>
<g id="XMLID_90_">
</g>
<g id="XMLID_91_">
</g>
<g id="XMLID_92_">
</g>
</svg>
