<?xml version="1.0" encoding="UTF-8" standalone="no"?><!DOCTYPE svg PUBLIC "-//W3C//DTD SVG 1.1//EN" "http://www.w3.org/Graphics/SVG/1.1/DTD/svg11.dtd"><svg width="100%" height="100%" viewBox="0 0 1229 1207" version="1.1" xmlns="http://www.w3.org/2000/svg" xmlns:xlink="http://www.w3.org/1999/xlink" xml:space="preserve" xmlns:serif="http://www.serif.com/" style="fill-rule:evenodd;clip-rule:evenodd;stroke-linejoin:round;stroke-miterlimit:2;"><g id="Background"><path d="M1228.798,491.982l0,2.4c-1.472,7.222 -1.496,7.021 0,14.4l0,64.8c-1.863,7.38 -3.722,7.251 0,14.4l0,2.4c-1.54,7.653 -2,7.121 -2.917,14.494c-18.358,147.754 -113.855,284.5 -228.104,360.91c-213.087,142.514 -376.998,114.567 -444.581,115.13c-7.622,0.064 -173.126,90.408 -448.71,124.517c-103.045,12.754 -91.073,-70.819 -83.377,-89.099c1.108,-2.631 137.394,-152.817 151.885,-190.453c3.01,-7.819 -30.072,-29.433 -70.161,-81.807c-86.405,-112.884 -98.678,-233.288 -102.834,-253.693l0,-2.4c1.473,-7.229 1.495,-7.027 0,-14.4l-0,-64.8c1.498,-7.38 1.474,-7.178 0,-14.4l-0,-2.4c1.553,-7.635 2.03,-7.135 2.947,-14.49c13.486,-108.183 71.891,-204.41 102.286,-241.602c245.891,-300.88 626.251,-259.314 801.225,-172.064c285.54,142.383 308.97,362.369 322.339,428.156l-523.217,36.173c10.156,-49.467 -17.279,-84.425 -44.858,-100.033c-66.751,-37.777 -116.439,17.93 -118.511,21.281c-87.053,140.715 123.291,218.997 163.37,78.752l523.217,-36.173l-837.636,-7.396c-0.933,-2.782 -8.385,-25.004 -16.069,-32.974c-91.198,-94.602 -175.309,14.727 -168.128,57.296c26.502,157.122 210.714,97.455 184.197,-24.322l837.636,7.396l-391.159,-7.396c-26.517,121.777 157.695,181.444 184.197,24.322c7.18,-42.569 -76.93,-151.899 -168.128,-57.296c-7.684,7.97 -15.136,30.192 -16.069,32.974l391.159,7.396Z" style="fill-opacity:1;"/><path d="M0,508.782l0,-14.4c1.474,7.222 1.498,7.02 0,14.4Z" style="fill-opacity:0.4;"/><path d="M1228.798,494.382l0,14.4c-1.496,-7.379 -1.472,-7.178 0,-14.4Z" style="fill-opacity:0.4;"/><path d="M0,587.982l0,-14.4c1.495,7.373 1.473,7.171 0,14.4Z" style="fill-opacity:0.4;"/><path d="M1228.798,573.582l0,14.4c-3.722,-7.149 -1.863,-7.02 0,-14.4Z" style="fill-opacity:0.42;"/></g></svg>