<?xml version="1.0" encoding="UTF-8" standalone="no"?>
<svg
   xmlns:osb="http://www.openswatchbook.org/uri/2009/osb"
   xmlns:dc="http://purl.org/dc/elements/1.1/"
   xmlns:cc="http://creativecommons.org/ns#"
   xmlns:rdf="http://www.w3.org/1999/02/22-rdf-syntax-ns#"
   xmlns:svg="http://www.w3.org/2000/svg"
   xmlns="http://www.w3.org/2000/svg"
   version="1.1"
   id="svg4720"
   viewBox="0 0 200 200"
   height="200"
   width="200">
  <defs
     id="defs4722">
    <linearGradient
       osb:paint="solid"
       id="linearGradient5270">
      <stop
         id="stop5272"
         offset="0"
         style="stop-color:#000000;stop-opacity:1;" />
    </linearGradient>
  </defs>
  <metadata
     id="metadata4725">
    <rdf:RDF>
      <cc:Work
         rdf:about="">
        <dc:format>image/svg+xml</dc:format>
        <dc:type
           rdf:resource="http://purl.org/dc/dcmitype/StillImage" />
        <dc:title></dc:title>
      </cc:Work>
    </rdf:RDF>
  </metadata>
  <g
     transform="translate(0,-852.36216)"
     id="layer1">
    <path
       id="rect5268"
       transform="translate(0,852.36216)"
       d="M 11.617188 2.5 A 9.0913725 9.5964489 0 0 1 11.617188 2.515625 A 9.0913725 9.5964489 0 0 1 2.5253906 12.111328 A 9.0913725 9.5964489 0 0 1 2.5 12.109375 L 2.5 187.88672 A 9.0913725 9.5964489 0 0 1 2.5976562 187.88086 A 9.0913725 9.5964489 0 0 1 11.689453 197.47656 A 9.0913725 9.5964489 0 0 1 11.689453 197.5 L 188.39258 197.5 A 9.0913725 9.5964489 0 0 1 188.39258 197.47461 A 9.0913725 9.5964489 0 0 1 197.48438 187.87891 A 9.0913725 9.5964489 0 0 1 197.5 187.87891 L 197.5 12.208984 A 9.0913725 9.5964489 0 0 1 197.34766 12.216797 A 9.0913725 9.5964489 0 0 1 188.25586 2.6191406 A 9.0913725 9.5964489 0 0 1 188.25977 2.5 L 11.617188 2.5 z "
       clip-path="none"
       style="fill:none;fill-opacity:1;stroke:#000000;stroke-width:1.051;stroke-miterlimit:4;stroke-dasharray:none;stroke-opacity:1" />
  </g>
</svg>
