<?xml version="1.0" encoding="UTF-8"?>
<svg id="Camada_2" data-name="Camada 2" xmlns="http://www.w3.org/2000/svg" viewBox="0 0 788.07 259.45">
  <g id="Camada_1-2" data-name="Camada 1">
    <path d="M788.03,15.79c-.27-5.32-.51-5.09-.51-5.09v-2.55s-.96-2.43-2.04-2.55c-.73-.08-2.29-.16-2.55,0-.78.5-2.99.01-4.58.51-1.59.5-13.58,1.95-16.81,1.53-1.66-.22-6.21.25-10.19,0-3.73-.23-6.87-1.18-9.17-1.53-3.89-.59-15.28-.26-23.17-.5.31.01.25,0-.25,0,.08,0,.17,0,.25,0-.69-.02-3.21-.1-6.65-.2-4.18-.11-9.71-.25-14.99-.32-4.22-.06-7.44-.61-11.71-.51-6.03.14-10.97.95-15.28,1.02-3.78.06-9.01,1.1-13.24,1.02-4.4-.09-6.37-1.18-10.19-1.53-4.54-.41-10.76-.07-13.75,0-7.91.19-15.21.83-21.9,1.02-4.41.13-8.18-.26-10.19,0-1.04.13-1.53,1.02-1.53,1.02l-14.26-1.53s-4.67.34-7.64,0c-2.88-.33-5.59-1.27-7.13-1.02-3.13.51-7.06,1.96-8.66,2.04-1.6.08-4.07.51-4.07.51,0,0-7.94,1.46-9.68.51-1-.55-3.71-1-6.62-1.02-2.29-.02-3.67-.03-5.6-.51-2.54-.63-4.02-1.79-6.62-2.04-2.74-.26-7.3.58-11.71.51-2.94-.05-6.8-1.05-9.17-1.02-3.21.04-5.56.56-9.68.51-3.49-.04-7.59-.66-11.71-.51-2.66.1-5.48.68-8.66.51-3.9-.21-6.27-1.15-10.19-1.53-3.67-.36-8.91-.17-11.71,0-3.04.19-7.61-.9-14.77-.51-13.62.74-28.43.51-31.58.51-5,0-9.86-1.01-15.79,0-5.93,1.01-15.88.6-17.32,1.53-.68.44-11.71-.51-11.71-.51l-1.02-1.02s-2.76-.09-4.58,0c-5,.25-7.06.17-9.17.51-.69.11-1.37-.22-2.04,0-1.03.34-15.01,1.04-15.79.51-1.01-.69-3.61-.74-5.6-.51-3.13.35-12.24.53-20.88.51-4.53-.01-7.15-.36-10.19,0-8.82,1.06-9.18,1.57-14.77,1.53-2.7-.02-5.61-.9-9.68-1.02-4.35-.13-9.86.5-12.73,1.02-8.01,1.44-16.18-.55-24.45.51-8.58,1.1-23.61.13-33.61-2.04-10-2.17-16.05-3.26-21.39-2.04-2.3.53-5.42,1.44-8.15,1.02C167.68,2,164.47-.02,162.12,0c-4.15.04-7.06,1.49-11.71,1.53s-11.89.22-15.28.51c4.24-.37-18.84,0-18.84,0,0,0,3.37.3-1.53,0-.54-.03-2.9.52-5.6.51-2.18,0-4.46-.59-7.13-.51-3.05.09-5.77.61-8.77.54-7.17-.17-16.46.04-19.75.48-4.59.61-10.79-.92-16.81-1.02-6.01-.1-9.87,1.22-19.86.51-9.99-.71-10.11.49-16.11.07-5.35-.38-9.25-.45-12.41-.58-2.47-.1-4.65-.48-5.6.51-2.15,2.23,0,4.07,0,4.07,0,0-.4,8.45,0,13.24.19,2.21,1.04,6.18,1.02,7.64-.04,3.59-1.67,9.31-1.53,11.2.2,2.73.96,5.57,1.02,8.66.1,5.3-.1,17.01,0,25.46.07,6.06-.03,14.04,0,22.92.01,3.51-.2,9.4,0,12.22.71,9.99,1.02,7.94,1.02,11.71,0,3.77-.4,5.7,1.53,5.6,1.93-.1-.17,5.71-2.55,7.64-1.33,1.08-1.16,2.69-1.02,5.6.07,1.49-.21,3.53,0,5.6.61,6.11.21,14.15,0,21.39-.21,7.24-.61,13.24,0,16.81.61,3.57-.81,8.96-1.02,15.79-.21,6.83-.71,12.73-1.02,18.33-.31,5.61-.1,11.51,0,17.82.03,1.88.38,4.4.51,6.11.31,4.04.51,6.72.51,8.66,0,2.75-1.01,4.48,0,6.11,1.01,1.63,3.56.51,3.56.51,0,0,.9,1.31,2.04,2.04.82.53.92.55,3.06.51,2.25-.04,3.97-.06,5.6,0,2.05.08,3.39.22,5.09,0,1.72-.23,4.51-.77,6.11-.51,1.24.2,4.36,1.13,5.6,1.53,1.33.43,2.7.09,4.07,0,1.56-.1,3.17-.02,5.6-.51,4.58-.91,8.97,0,13.75.51,2.56.27,4.77.32,7.64,0,2.5-.28,5.7-.87,7.64-1.53,4.17-1.42,8.15-1.12,12.73,0,2.27.56,5.72.89,8.66.51,3-.38,5.48-1.48,7.64-1.53,4.27-.1,4.79,1.02,10.19,1.53,5.39.51,10.09-1.23,13.24-1.02,3.15.21,5.2.91,9.68,1.02h18.84c3.85.3,7.3-.41,10.7,0,4.34.52,6.67,1.07,8.66,1.02,2.43-.06,6.67.53,9.17,0,2.53-.53,6.97-2.51,9.17-2.04s5.88.69,8.15.51c2.27-.18,7.04-.48,9.17-.51s5.59-.04,8.15.51c2.56.55,5.37.32,14.26,0s14.39-1.42,18.84-1.02c4.45.4,10.83,2.14,16.3,1.53,5.47-.62,12.57-.91,16.81-1.02,4.24-.11,13.52.18,18.33-1.02,4.82-1.2,9.3-.69,14.77,0,5.47.69,14.32.98,18.84.51,4.53-.47,7.26,1.2,13.24,0,5.98-1.2,10.53-1.06,15.79-1.02s12.28.98,18.33,0c6.05-.98,15.41-.33,22.92-.51,7.51-.18,25.89.11,35.14,0s18.91-.56,23.08-.44c6.45.19,11.12.77,18.17.44,7.07-.34,19.56-.18,25.97,0,6.42.18,13.83-.1,14.77,0,1.2.12,4.95,1.13,9.68,1.02,4.73-.11,7-1.05,11.26-.83,3.72.19,15.8.12,18.28.83,1.24.35,5.92.63,13.24,1.02,7.33.39,15.26-.15,17.32,0,2.8.2,11.45.79,20.37,1.02,4.19.11,8.76.13,12.22,0,10.83-.42,29.6,1.85,40.23,0,4.38-.76,9.95-1.31,14.26-1.53,6.15-.31,10.65-.14,13.24-.51,2.02-.28,6.33.58,11.71.51,6.41-.08,14.1-1.07,17.82-1.02,2.89.04,8.44-.12,15.28,0,3.85.07,8.82.3,12.22.51,4.89.3,7.58,1.6,9.68,1.53,6.15-.22,19.72.62,21.9-.51s2.55-1.02,2.55-1.02l1.53-1.53s.24-5.49.51-11.71c.12-2.85-.26-5.86-.53-8.17-.07-.57-1-8.65-1-8.64,0,0,.03-2.82,0-4.58-.03-1.61,0-4.48,0-6.11,0-1.9-.02-2.52,0-3.56.04-1.95-.04-9.46,0-10.7s.88-2.43,1.02-7.64c.14-5.21-.65-9.77-1.02-11.71-.37-1.95.37-12.82,1.02-18.84.65-6.02.78-8.65.51-13.24-.15-2.53.02-6.68.51-10.19.4-2.85,1.14-5.03,1.02-7.64-.27-5.82-2.18-13.03-2.55-18.33-.17-2.39-.61-7.6-.51-11.71.12-5.03.83-9.02,1.02-11.71.19-2.72.42-5.52.51-9.68.09-4.25.94-7.01,1.34-11.79.41-4.89.25-21.92.7-25.9.44-3.98,1.49-7.93,1.53-12.22.04-5.06.72-10.53.51-14.77Z" style="fill: #fff; fill-rule: evenodd;"/>
    <path d="M181.47,255.15c-1.55-.5-4.7.35-7.62.34-2.4,0-4.17-.14-5.12-.34-1.84-.4-5.09-1.63-10.69-1.02-3.31.36-6.68.58-10.7.51-2.78-.05-6.48-.5-8.15,0-1.94.58-5.34.75-8.66.51-3.67-.26-7.27-.94-9.68-.51-2.34.42-6.82.56-11.2,0-4.23-.54-8.35-1.78-11.2-1.53-2.66.23-7.12.94-11.2.51-4.85-.51-9.42-2.14-13.24-1.53-3.31.53-8.16,2.41-13.24,2.55-5.73.15-11.71-1.45-15.28-1.02-3.65.44-7.62,1.23-11.2,1.02-3.02-.18-5.72-1.3-8.15-1.53-2.69-.26-5.31.43-7.64.51-2.27.08-4.25-.45-6.11,0-3.77.92-7.13,1.02-7.13,1.02,0,0-.61-8.25-.51-11.71.1-3.46.72-9.88.51-16.3-.12-3.6-.6-8.54-.51-12.73.07-3.28.66-5.84,1.02-8.66.27-2.13,0-7.73,0-11.2,0-6.97.04-13.13.51-19.86.64-9.13.22-18.25,0-25.97-.18-6.55.37-13.21.51-11.2-.3-4.2-1.19-6-3.57-4.07-1.33,1.08-1.16,2.69-1.02,5.6.07,1.49-.21,3.53,0,5.6.61,6.11.21,14.15,0,21.39-.21,7.24-.61,13.24,0,16.81.61,3.57-.81,8.96-1.02,15.79-.21,6.83-.71,12.73-1.02,18.33-.31,5.61-.1,11.51,0,17.82.03,1.88.38,4.4.51,6.11.31,4.04.51,6.72.51,8.66,0,2.75-1.01,4.48,0,6.11,1.01,1.63,3.56.51,3.56.51,0,0,.9,1.31,2.04,2.04.82.53.92.55,3.06.51,2.25-.04,3.97-.06,5.6,0,2.05.08,3.39.22,5.09,0,1.72-.23,4.51-.77,6.11-.51,1.24.2,4.36,1.13,5.6,1.53,1.33.43,2.7.09,4.07,0,1.56-.1,3.17-.02,5.6-.51,4.58-.91,8.97,0,13.75.51,2.56.27,4.77.32,7.64,0,2.5-.28,5.7-.87,7.64-1.53,4.17-1.42,8.15-1.12,12.73,0,2.27.56,5.72.89,8.66.51,3-.38,5.48-1.48,7.64-1.53,4.27-.1,4.79,1.02,10.19,1.53,5.39.51,10.09-1.23,13.24-1.02,3.15.21,5.2.91,9.68,1.02,4.48.11,6.52-1.53,10.7-1.53.85,0,5.14,1.29,8.15,1.53,3.85.3,7.3-.41,10.7,0,4.34.52,6.67,1.07,8.66,1.02,2.43-.06,6.67.53,9.17,0,2.53-.53,3.36-3.32,1.02-4.07ZM2.71,6.62s-.4,8.45,0,13.24c.19,2.21,1.04,6.18,1.02,7.64-.04,3.59-1.67,9.31-1.53,11.2.2,2.73.96,5.57,1.02,8.66.1,5.3-.1,17.01,0,25.46.07,6.06-.03,14.04,0,22.92.01,3.51-.2,9.4,0,12.22.71,9.99,1.02,7.94,1.02,11.71,0,3.77-.4,5.7,1.53,5.6,1.93-.1,1.84-2.55,2.04-6.62.2-4.07.31-9.99.51-16.3.2-6.31,0-17.12,0-25.97,0-8.86-.4-20.27-.51-26.99-.11-6.72-1.62-10.9-1.02-13.75.61-2.85,1.33-4.69,1.02-10.19-.31-5.5,0-18.33,0-18.33,0,0,6.32.2,12.22,0,5.9-.2,16.61-.92,25.97-1.02,9.37-.1,17.02.3,24.45,0,7.43-.3,12.74-.11,18.84.51,6.11.61,8.15-.72,12.22-.51,2.13.11,6.03.49,8.15.51,1.93.02,3.64-.32,5.09-.51,3.05-.4,4.89-3.77,0-4.07-.54-.03-2.9.52-5.6.51-2.18,0-4.46-.59-7.13-.51-3.05.09-5.77.61-8.77.54-7.17-.17-16.46.04-19.75.48-4.59.61-10.79-.92-16.81-1.02-6.01-.1-9.87,1.22-19.86.51-9.99-.71-10.11.49-16.11.07-5.35-.38-9.25-.45-12.41-.58-2.47-.1-4.65-.48-5.6.51-2.15,2.23,0,4.07,0,4.07ZM198.78,254.64c-2.89-1.13-7.71-.51-11.2.51-.88.26-.16,1.56,2.04,2.04s5.88.69,8.15.51c2.27-.18,3.91-1.93,1.02-3.06ZM563.43,10.7c1.27,0,3.18-.64,5.6-1.02,2.47-.39,5.46-.51,7.13,0,3.32,1.01,5.08.26,7.64.51,2.56.25,4.74-.93,4.58-2.04-.16-1.11-.01-2.71-3.06-2.55-1.55.08-4.67.34-7.64,0-2.88-.33-5.59-1.27-7.13-1.02-3.13.51-7.06,1.96-8.66,2.04-1.6.08-5.27-.17-4.07,2.04,1.2,2.2,3.04,2.04,5.6,2.04ZM348,6.62c1.79.89,5.18.42,7.64.51,4.59.17,8.14.26,9.17-1.02.62-.77.51-2.55.51-2.55l-1.02-1.02s-2.76-.09-4.58,0c-5,.25-7.06.17-9.17.51-.69.11-1.37-.22-2.04,0-1.03.34-4.37,1.64-.51,3.57ZM509.96,251.59c-3.84-.18-9.18-.33-13.75,0-4.57.33-5.62-.04-10.69,0-5.08.04-15.29-1.28-19.86-2.04-4.57-.76-18.06.47-24.45.51s-22.79-.84-34.63-.51c-11.84.33-23.15.62-28.52,1.53-5.37.91-17.91-.26-25.46,0-3.23.11-6.79,1.47-10.19,1.53-4.53.07-8.77-1.17-11.71-1.02-2.83.14-7.39.74-12.22.51-3.96-.19-7.93-1.23-12.73-1.02-4.97.22-8.6,1.37-13.75,1.53-5.91.18-13.19-.65-16.3-.51-2.69.12-8.1,1.64-13.24,1.53-5.97-.13-11.69-1.9-14.26-2.04-2.43-.13-7.89,1.1-13.24,1.53-5.21.42-10.3.02-12.73.51-4.93.98-10.19,1.46-15.79,1.02-2.18-.17-1.62,2.58.51,2.55s5.59-.04,8.15.51c2.56.55,5.37.32,14.26,0s14.39-1.42,18.84-1.02c4.45.4,10.83,2.14,16.3,1.53,5.47-.62,12.57-.91,16.81-1.02,4.24-.11,13.52.18,18.33-1.02,4.82-1.2,9.3-.69,14.77,0,5.47.69,14.32.98,18.84.51,4.53-.47,7.26,1.2,13.24,0,5.98-1.2,10.53-1.06,15.79-1.02s12.28.98,18.33,0c6.05-.98,15.41-.33,22.92-.51,7.51-.18,25.89.11,35.14,0s18.91-.56,23.08-.44c6.45.19,11.12.77,18.17.44,7.07-.34,19.56-.18,25.97,0,6.42.18,8.57.69,8.66-1.02.09-1.71-.74-2.37-4.58-2.55ZM779.92,79.82c-.01.13-.03.34-.04.65,0-.22.03-.43.04-.65ZM780.9,232.74c-2.01.6-2.05,1.28-2.04,3.56,0,1.96-.06,5.39,0,7.64.14,4.88-1.02,9.68-1.02,9.68,0,0-20.51.32-29.03-1.02s-25.81-1.21-32.59-1.02c-3.53.1-8.95.78-13.75,1.02-4.43.22-8.23,0-12.22,0-8.32-.01-18.88,1.74-33.61,2.04-14.73.29-34.57-.5-45.33-1.02-3.76-.18-8.16.55-11.2.51-5.68-.08-9.22-.77-13.24-.51-6.18.4-19.49-1.11-25.97-.51-6.48.6-13.79-1.11-18.33-.51-2.57.34-5.76.86-8.66,1.02-2.24.13-4.35-.08-5.6,0-3.69.25-2.68,2.66,2.04,2.55,4.73-.11,7-1.05,11.26-.83,3.72.19,15.8.12,18.28.83,1.24.35,5.92.63,13.24,1.02,7.33.39,15.26-.15,17.32,0,2.8.2,11.45.79,20.37,1.02,4.19.11,8.76.13,12.22,0,10.83-.42,29.6,1.85,40.23,0,4.38-.76,9.95-1.31,14.26-1.53,6.15-.31,10.65-.14,13.24-.51,2.02-.28,6.33.58,11.71.51,6.41-.08,14.1-1.07,17.82-1.02,2.89.04,8.44-.12,15.28,0,3.85.07,8.82.3,12.22.51,4.89.3,7.58,1.6,9.68,1.53,6.15-.22,19.72.62,21.9-.51s2.55-1.02,2.55-1.02l1.53-1.53s.27-5.49.51-11.71c.12-2.99-.23-5.23-.51-7.13-.3-2.06-.61-3.63-2.55-3.06ZM778.86,200.15c-.58,1.8-.3,8.67-.14,10.36.15,1.7.67,3.73.65,5.93-.02,1.88-.06,4.48,0,5.6.14,2.43.37,5.21,1.53,5.09.57-.06,1.28.03,1.53-1.02.25-1.08.03-2.82,0-4.58-.03-1.61,0-4.48,0-6.11,0-1.9-.02-2.52,0-3.56.04-1.95-.04-9.46,0-10.7s-2.98-2.84-3.56-1.02ZM788.03,15.79c-.13-2.54-.45-4.6-.66-5.69-.28-1.18-.2-1.03,0,0,.04.17.09.37.15.59-.21-.83,0-2.55,0-2.55,0,0-.96-2.43-2.04-2.55-.73-.08-2.29-.16-2.55,0-.78.5-2.99.01-4.58.51-1.59.5-13.58,1.95-16.81,1.53-1.66-.22-6.21.25-10.19,0-3.73-.23-6.87-1.18-9.17-1.53-3.89-.59-15.28-.26-23.17-.5.31.01.25,0-.25,0,.08,0,.17,0,.25,0-.69-.02-3.21-.1-6.65-.2-4.18-.11-9.71-.25-14.99-.32-4.22-.06-7.44-.61-11.71-.51-6.03.14-10.97.95-15.28,1.02-3.78.06-9.01,1.1-13.24,1.02-4.4-.09-6.37-1.18-10.19-1.53-4.54-.41-10.76-.07-13.75,0-7.91.19-15.21.83-21.9,1.02-6.69.19-12.26-1.01-11.71,1.02.2.74.19,1.98,2.55,2.55,4.05.97,10.96.94,17.23.56,6.64-.4,9.48-1.04,12.81-1.07,3.33-.04,7.57.52,10.7.51,3.35,0,6.94,1.11,10.7,1.53,3.25.37,6.63.05,10.19,0,7.68-.11,19.11-1.92,23.94-2.04,4.82-.11,24.82.93,35.14,1.02,10.32.09,20.44,1.03,29.03,2.04,5.6.66,11.12,0,16.3-.51,5.98-.59,11.18-1.09,10.19-1.02,3.03-.23,4.58-1.02,4.58-1.02l.51,4.58s-.48,6.76-.51,11.71c-.02,3.93.48,6.02,0,7.64-1.08,3.65-1.46,10.71-1.53,17.82-.03,3.45-.06,11.82-.51,19.35-.2,3.4-.8,6.21-.98,9.03.1-.97.22,2.29-.04,7.27-.19,3.57-.84,8.24-1.02,12.22-.33,7.35-.31,12.44,1.02,19.86,1.36,7.63,1.8,9.89,1.02,16.81-.32,2.84-.81,5-1.02,8.66-.3,5.24-.32,12.08-1.02,15.79-.58,3.07-.49,8.79-.51,14.26-.02,5.77.51,12.22.51,12.22,0,0,.07,7.75.51,9.68.44,1.92,3.94,2.15,4.07-3.06.14-5.21-.65-9.77-1.02-11.71-.37-1.95.37-12.82,1.02-18.84.65-6.02.78-8.65.51-13.24-.15-2.53.02-6.68.51-10.19.4-2.85,1.14-5.03,1.02-7.64-.27-5.82-2.18-13.03-2.55-18.33-.17-2.39-.61-7.6-.51-11.71.12-5.03.83-9.02,1.02-11.71.19-2.72.42-5.52.51-9.68.09-4.25.94-7.01,1.34-11.79.41-4.89.25-21.92.7-25.9.44-3.98,1.49-7.93,1.53-12.22.04-5.06.72-10.53.51-14.77ZM520.65,252.1c-1.01-.11-1.03.77-1.02,1.53.01.77.08,1.43,1.02,1.53,1.2.12,1.87-.59,1.53-1.53-.19-.53-.87-1.45-1.53-1.53ZM530.84,9.17c2.48.52,3.84,1.32,5.6,1.53,2.28.26,4.83-.14,7.13,0,1.25.08,3.42.52,4.58,0,1.68-.74,1.74-2.1,0-3.06-1-.55-3.71-1-6.62-1.02-2.29-.02-3.67-.03-5.6-.51-2.54-.63-4.02-1.79-6.62-2.04-2.74-.26-7.3.58-11.71.51-2.94-.05-6.8-1.05-9.17-1.02-3.21.04-5.56.56-9.68.51-3.49-.04-7.59-.66-11.71-.51-2.66.1-5.48.68-8.66.51-3.9-.21-6.27-1.15-10.19-1.53-3.67-.36-8.91-.17-11.71,0-3.04.19-7.61-.9-14.77-.51-13.62.74-28.43.51-31.58.51-5,0-9.86-1.01-15.79,0-5.93,1.01-15.88.6-17.32,1.53-.68.44-.28,1.93.51,2.55.88.68,3.31-.04,5.09,0,4.13.1,8.82.09,11.71-.51,1.7-.35,4.82-1.37,8.15-1.02,2.36.25,4.54,2.3,7.64,2.55,7.48.59,14.26-.08,20.37-.51,1.98-.14,6.85-.53,11.2-.51,4.31.02,8.09.46,11.2.51,5.27.08,9.89-.47,12.22-.51,2.66-.05,7.21,1.64,12.73,2.04,5.08.37,11.14-.55,13.75-.51,1.82.03,3.75.52,6.62.51,2.79,0,6.73-.5,10.19-.51,3.62,0,6.73.48,8.15.51,2.95.06,6.63-.71,10.19-.51,1.47.08,2.41.67,4.07,1.02ZM230.36,10.19c9.69-.98,22.48.47,29.54-1.02,3.11-.66,8.04-1.21,11.2-1.02,4.02.24,6.28,1.33,10.19,1.02,6.97-.56,28.59-1.57,36.67-2.04,8.07-.47,12.68.57,14.4-.49,1.21-.74,1.14-2.54.37-3.07-1.01-.69-3.61-.74-5.6-.51-3.13.35-12.24.53-20.88.51-4.53-.01-7.15-.36-10.19,0-8.82,1.06-9.18,1.57-14.77,1.53-2.7-.02-5.61-.9-9.68-1.02-4.35-.13-9.86.5-12.73,1.02-8.01,1.44-16.18-.55-24.45.51-8.58,1.1-23.61.13-33.61-2.04-10-2.17-16.05-3.26-21.39-2.04-2.3.53-5.42,1.44-8.15,1.02C167.68,2,164.47-.02,162.12,0c-4.15.04-7.06,1.49-11.71,1.53s-11.89.22-15.28.51-5.1,3.1,1.02,3.56,11.36.64,16.3,0c2.41-.31,5.16-1.31,7.64-1.53,2.59-.23,4.37.34,6.11,1.53,2.94,2.01,5.88,2.11,7.64,2.04,3.46-.15,4.83-2.52,10.19-3.06,4.05-.4,7.81,1.19,10.69,2.04,5.02,1.48,25.96,4.54,35.65,3.56Z" style="fill-rule: evenodd;"/>
  </g>
</svg>