<?xml version="1.0" encoding="UTF-8"?>
<svg id="Camada_2" data-name="Camada 2" xmlns="http://www.w3.org/2000/svg" viewBox="0 0 210 178.53">
  <g id="Layer_1" data-name="Layer 1">
    <path d="M7.2,139.83c-3.98,0-7.2,3.22-7.2,7.2v23.15c0,3.98,3.22,7.2,7.2,7.2h82.87v-37.56H7.2Z"/>
    <path d="M0,93.59v23.15c0,3.98,3.22,7.2,7.2,7.2h82.87v-37.55H7.2c-3.98,0-7.2,3.22-7.2,7.2Z"/>
    <path d="M188.68,0H7.2C3.22,0,0,3.22,0,7.2v54.74c0,3.98,3.22,7.2,7.2,7.2h181.48c3.98,0,7.2-3.22,7.2-7.2V7.2c0-3.98-3.22-7.2-7.2-7.2Z"/>
    <path d="M203.98,92.38c-8-7.99-21.02-7.99-29.01,0l-5.1,5.1,29.02,29.01,5.1-5.1c8.03-8.03,8.01-21.02,0-29.02Z"/>
    <path d="M159.69,107.67l-36.66,36.65c-1.1,1.1-1.81,2.52-2.03,4.05l-3.19,21.9c-.57,3.93,2.15,8.25,7.69,8.25,1.23,0,2.56-.24,22.5-3.15,1.53-.22,2.96-.94,4.05-2.03l36.66-36.66-29.02-29.01Z"/>
    <polygon points="105.95 86.39 105.95 123.94 123.04 123.94 160.6 86.39 105.95 86.39"/>
    <path d="M168.37,177.38h20.31c3.98,0,7.2-3.22,7.2-7.2v-20.31l-27.51,27.51Z"/>
  </g>
</svg>