<?xml version="1.0" encoding="UTF-8"?>
<svg id="Camada_2" data-name="Camada 2" xmlns="http://www.w3.org/2000/svg" viewBox="0 0 215 214.96">
  <g id="Capa_1" data-name="Capa 1">
    <g>
      <path d="M128.4,137.07c-2.33,2.32-5.23,4.01-8.39,4.87l-.32.09-32.19,8.78c-1.67.49-3.39.74-5.13.74-4.86,0-9.51-1.91-13.08-5.37-5.09-4.92-7.04-12.05-5.1-18.67l8.78-32.2.08-.31c.86-3.17,2.54-6.08,4.87-8.41l46.7-46.7H6.3c-3.48,0-6.3,2.82-6.3,6.3v125.56c0,3.48,2.82,6.3,6.3,6.3h18.82l20.65,33.93c2.25,3.98,8.5,3.98,10.76,0l20.65-33.93h97.93c3.48,0,6.3-2.82,6.3-6.3v-87.68l-53,53.01ZM18.96,65.09h48.59c3.48,0,6.3,2.82,6.3,6.3s-2.82,6.3-6.3,6.3H18.96c-3.48,0-6.3-2.82-6.3-6.3s2.82-6.3,6.3-6.3ZM43.61,128.08h-24.65c-3.48,0-6.3-2.82-6.3-6.3s2.82-6.3,6.3-6.3h24.65c3.48,0,6.3,2.82,6.3,6.3s-2.82,6.3-6.3,6.3ZM50.75,102.88h-31.79c-3.48,0-6.3-2.82-6.3-6.3s2.82-6.3,6.3-6.3h31.79c3.48,0,6.3,2.82,6.3,6.3s-2.82,6.3-6.3,6.3Z"/>
      <g>
        <path d="M111.19,131.29l-27.15,7.41c-4.5,1.39-9.12-3.22-7.73-7.74l7.37-27.03c13.99,2.36,25.07,13.4,27.51,27.35h0Z"/>
        <path d="M188.79,58.88l-66.12,66.11c-4.31-15.85-16.86-28.34-32.75-32.57L156.13,26.21l32.66,32.66Z"/>
        <path d="M213.16,34.5l-15.46,15.46-32.66-32.66,15.46-15.46c2.46-2.46,6.45-2.46,8.91,0l23.76,23.76c2.46,2.46,2.46,6.45,0,8.91Z"/>
      </g>
    </g>
  </g>
</svg>