<?xml version="1.0" encoding="UTF-8"?>
<svg id="Camada_2" data-name="Camada 2" xmlns="http://www.w3.org/2000/svg" viewBox="0 0 210 210">
  <g id="Capa_1" data-name="Capa 1">
    <g>
      <path d="M152.08,93.11l10.5,10.5c1.77,1.77,4.42,2.31,6.71,1.33,2.3-.95,3.8-3.2,3.8-5.68v-24.61c0-3.4-2.75-6.15-6.15-6.15h-86.13c-3.4,0-6.15,2.75-6.15,6.15v24.61c0,2.49,1.5,4.73,3.8,5.68,2.3.97,4.94.43,6.71-1.33l10.5-10.5h15.91v65.13l-10.5,10.5c-1.76,1.76-2.29,4.4-1.33,6.71.95,2.3,3.2,3.8,5.68,3.8h36.91c2.49,0,4.73-1.5,5.68-3.8.96-2.3.43-4.94-1.33-6.71l-10.5-10.5v-65.13h15.91Z"/>
      <path d="M197.7,142.32c3.4,0,6.15-2.75,6.15-6.15v-24.61c0-3.4-2.75-6.15-6.15-6.15s-6.15,2.75-6.15,6.15v24.61c0,3.4,2.75,6.15,6.15,6.15Z"/>
      <path d="M111.56,191.54c-3.4,0-6.15,2.75-6.15,6.15s2.75,6.15,6.15,6.15h24.61c3.4,0,6.15-2.75,6.15-6.15s-2.75-6.15-6.15-6.15h-24.61Z"/>
      <path d="M203.85,185.39v-24.61c0-3.4-2.75-6.15-6.15-6.15s-6.15,2.75-6.15,6.15v24.61c-3.4,0-6.15,2.75-6.15,6.15h-24.61c-3.4,0-6.15,2.75-6.15,6.15s2.75,6.15,6.15,6.15h24.61c0,3.4,2.75,6.15,6.15,6.15h12.3c3.4,0,6.15-2.75,6.15-6.15v-12.3c0-3.4-2.75-6.15-6.15-6.15Z"/>
      <path d="M203.85,37.73h-12.3c-3.4,0-6.15,2.75-6.15,6.15H62.34c0-3.4-2.75-6.15-6.15-6.15h-12.3c-3.4,0-6.15,2.75-6.15,6.15v12.3c0,3.4,2.75,6.15,6.15,6.15v123.05c-3.4,0-6.15,2.75-6.15,6.15v12.3c0,3.4,2.75,6.15,6.15,6.15h12.3c3.4,0,6.15-2.75,6.15-6.15h24.61c3.4,0,6.15-2.75,6.15-6.15s-2.75-6.15-6.15-6.15h-24.61c0-3.4-2.75-6.15-6.15-6.15V62.34c3.4,0,6.15-2.75,6.15-6.15h123.05c0,3.4,2.75,6.15,6.15,6.15v24.61c0,3.4,2.75,6.15,6.15,6.15s6.15-2.75,6.15-6.15v-24.61c3.4,0,6.15-2.75,6.15-6.15v-12.3c0-3.4-2.75-6.15-6.15-6.15Z"/>
      <path d="M6.15,160.78h25.43v-90.93c-3.75-3.38-6.15-8.22-6.15-13.66v-12.3c0-10.18,8.28-18.46,18.46-18.46h12.3c5.43,0,10.28,2.4,13.66,6.15h90.93V6.15c0-3.4-2.75-6.15-6.15-6.15H6.15C2.75,0,0,2.75,0,6.15v148.48c0,3.4,2.75,6.15,6.15,6.15Z"/>
    </g>
  </g>
</svg>