<?xml version="1.0" encoding="UTF-8"?>
<svg id="Camada_2" data-name="Camada 2" xmlns="http://www.w3.org/2000/svg" viewBox="0 0 210 163.58">
  <g id="Capa_1" data-name="Capa 1">
    <g>
      <path d="M196.77,23.22l-80.84,80.84h46.81c3.4,0,6.15,2.75,6.15,6.15s-2.75,6.15-6.15,6.15h-82c-3.4,0-6.15-2.75-6.15-6.15v-9.51c0-8.62,3.36-16.72,9.45-22.82l56.69-56.69H47.54v142.39h139.9c12.44,0,22.56-10.12,22.56-22.56V43.75c0-9.11-5.43-16.97-13.23-20.53h0Z"/>
      <path d="M35.24,117.16H0v23.86c0,12.44,10.12,22.56,22.56,22.56h12.68v-46.42Z"/>
      <path d="M0,79.91h35.24v24.94H0v-24.94Z"/>
      <path d="M35.24,67.61V21.19h-12.68C10.12,21.19,0,31.31,0,43.75v23.86h35.24Z"/>
      <path d="M92.74,86.58c-3.77,3.77-5.85,8.79-5.85,14.12v3.36h3.36c5.33,0,10.35-2.08,14.12-5.85L175.28,27.3l-11.63-11.63-70.91,70.91Z"/>
      <path d="M172.35,6.97l11.63,11.63,4.57-4.57c3.21-3.21,3.21-8.42,0-11.63-1.55-1.55-3.62-2.41-5.82-2.41s-4.26.86-5.82,2.41l-4.57,4.57Z"/>
    </g>
  </g>
</svg>