<?xml version="1.0" encoding="UTF-8"?>
<svg id="Camada_2" data-name="Camada 2" xmlns="http://www.w3.org/2000/svg" viewBox="0 0 215 215">
  <g id="Camada_1-2" data-name="Camada 1">
    <path d="M182.73,138.87c18.71-13.4,30.26-26.69,30.74-27.25,2.04-2.37,2.04-5.87,0-8.23-.48-.56-12.03-13.84-30.74-27.25-11.03-7.91-22.29-14.22-33.46-18.76-5.78-2.35-11.55-4.22-17.27-5.62,21.41,9.44,36.4,30.87,36.4,55.74s-14.99,46.29-36.4,55.74c5.72-1.4,11.49-3.27,17.27-5.62,11.17-4.54,22.43-10.85,33.46-18.76Z"/>
    <path d="M46.61,107.5c0-24.87,14.99-46.3,36.4-55.74-5.72,1.4-11.49,3.27-17.27,5.62-11.17,4.54-22.43,10.85-33.47,18.76C13.56,89.54,2.01,102.83,1.53,103.39c-2.04,2.36-2.04,5.87,0,8.23.48.56,12.03,13.84,30.74,27.25,11.04,7.91,22.3,14.22,33.47,18.76,5.78,2.35,11.55,4.22,17.27,5.62-21.41-9.44-36.4-30.87-36.4-55.74Z"/>
    <path d="M155.79,107.5c0-26.63-21.66-48.29-48.29-48.29s-48.29,21.66-48.29,48.29,21.66,48.29,48.29,48.29,48.29-21.66,48.29-48.29ZM107.5,120.09c-6.96,0-12.6-5.64-12.6-12.6s5.64-12.6,12.6-12.6,12.6,5.64,12.6,12.6-5.64,12.6-12.6,12.6Z"/>
    <path d="M6.3,71.88c3.48,0,6.3-2.82,6.3-6.3V12.6h52.98c3.48,0,6.3-2.82,6.3-6.3s-2.82-6.3-6.3-6.3H6.3C2.82,0,0,2.82,0,6.3v59.28c0,3.48,2.82,6.3,6.3,6.3Z"/>
    <path d="M208.7,0h-59.28c-3.48,0-6.3,2.82-6.3,6.3s2.82,6.3,6.3,6.3h52.98v52.98c0,3.48,2.82,6.3,6.3,6.3s6.3-2.82,6.3-6.3V6.3c0-3.48-2.82-6.3-6.3-6.3Z"/>
    <path d="M65.58,202.4H12.6v-52.98c0-3.48-2.82-6.3-6.3-6.3S0,145.94,0,149.42v59.28c0,3.48,2.82,6.3,6.3,6.3h59.28c3.48,0,6.3-2.82,6.3-6.3s-2.82-6.3-6.3-6.3Z"/>
    <path d="M208.7,143.12c-3.48,0-6.3,2.82-6.3,6.3v52.98h-52.98c-3.48,0-6.3,2.82-6.3,6.3s2.82,6.3,6.3,6.3h59.28c3.48,0,6.3-2.82,6.3-6.3v-59.28c0-3.48-2.82-6.3-6.3-6.3Z"/>
  </g>
</svg>