<?xml version="1.0" encoding="UTF-8"?>
<svg id="Camada_2" data-name="Camada 2" xmlns="http://www.w3.org/2000/svg" viewBox="0 0 198 198">
  <g id="Camada_1-2" data-name="Camada 1">
    <path d="M54.08,104.01l-31.27,80.28h17.2l6.63-18.24h32.09l7.01,18.24h17.63l-32.15-80.28h-17.14ZM51.61,152.53l10.84-29.79,11.06,29.79h-21.9ZM0,0v198h198V0H0ZM51.03,60.4l10.45-28.71,10.66,28.71h-21.11ZM77.15,73.43l6.75,17.57h-44.07l6.38-17.57h30.93ZM12.32,13.71h41.05l-30.11,77.29h-10.27c-.26,0-.5.11-.68.27V13.71ZM12.32,184.29v-80.57c.18.17.41.27.68.27h139.15l-21.83,21.83h11.1l4.59-4.59v45.51l-4.59-4.59h-11.1l22.13,22.13H12.32ZM185.68,184.29h-33.12l22.13-22.13h-11.1l-4.59,4.59v-45.51l4.59,4.59h11.1l-21.83-21.83h32.15c.26,0,.5-.11.68-.27v80.57ZM185.68,91.27c-.18-.17-.41-.27-.68-.27h-84.1L69.95,13.71h115.73v77.57Z" style="fill-rule: evenodd;"/>
  </g>
</svg>