<?xml version="1.0" encoding="UTF-8"?>
<svg id="Camada_2" data-name="Camada 2" xmlns="http://www.w3.org/2000/svg" viewBox="0 0 458 92">
  <g id="Camada_1-2" data-name="Camada 1">
    <path d="M386.32,50.83v-1.51s-4.05-.39-4.05-2.52v-27.68c0-.52.47-1.49,1.08-1.86,1.2-.73,2.96-.65,2.96-.65l.51-1.51h-15.68v1.01s4.05.11,4.05,3.52v27.68s-.88.94-1.82,1.41c-1.07.53-2.22.6-2.22.6v1.51s4.07-.5,7.99-.5c3.66,0,7.19.5,7.19.5ZM378.74,12.58s1.04-1.65,2.12-2.85c1.19-1.31,2.43-2.18,2.43-2.18,0,0-1.52-.51-2.6-1.58-1.2-1.19-1.95-2.95-1.95-2.95,0,0-1.42,1.77-2.75,2.97-1.19,1.06-2.3,1.56-2.3,1.56,0,0,2.1,1.09,3.22,2.2,1.16,1.15,1.84,2.84,1.84,2.84ZM220.93,48.31c-1.54,0-3.57-.89-4.85-2.55-1.89-2.46-2.73-6.01-2.73-6.01h-1.52l1.52,9.56s.42.17,2.02,1.01c1.6.83,7.93,1.39,13.15,0,2.65-.71,5.94-3.32,7.03-6.8,1.05-3.37-.03-7.6-1.97-9.81-3.96-4.49-14.16-8.02-14.16-11.57,0-.78-.01-3.07,1.52-4.03,1.78-1.12,5.26-.84,7.08-.5,3.69.68,5.56,5.54,5.56,5.54,0,0,.51.27.51-.75s-.61-2.5-.72-3.83c-.14-1.6.22-2.97.22-2.97,0,0-2.04.03-4.55-.5-1.37-.29-6.07-1.42-10.06-.27-3.31.96-6.13,3.66-6.13,8.32,0,2.57.35,2.92.95,4.32,1.8,4.19,5.87,5.75,9.67,8.26,5.07,3.35,6.2,4.99,5.06,8.56-1.14,3.57-3.77,4.03-7.59,4.03ZM71.53,46.8c0,1.4-4.54,2.52-4.54,2.52v1.01h16.16v-1.01s-4.6-.28-4.54-3.02c.03-1.41,1.13-8.56-2.52-16.61-5.97-13.18-11.43-15.6-11.43-15.6l-.85-.5-.66.5s-6.54,4.38-11.63,15.6c-3.65,8.05-2.56,15.19-2.53,16.61.05,2.74-4.55,3.02-4.55,3.02v1.01h16.19v-1.01s-4.55-1.12-4.55-2.52v-7.05h15.48v7.05ZM56.55,36.74s.33-7.5,2.02-12.08c1.84-4.97,5.06-7.05,5.06-7.05h.32s3.21,2.08,5.05,7.05c1.69,4.58,2.02,12.08,2.02,12.08h-14.47ZM87.92,85.19c.02-.83.75-5.04-1.68-9.78-3.98-7.76-7.61-9.19-7.61-9.19l-.57-.3-.44.3s-4.36,2.58-7.75,9.19c-2.43,4.74-1.7,8.95-1.68,9.78.04,1.62-3.03,1.78-3.03,1.78v.59h10.78v-.59s-3.03-.66-3.03-1.48v-4.15h10.31v4.15c0,.83-3.03,1.48-3.03,1.48v.59h10.76v-.59s-3.06-.16-3.03-1.78ZM73.24,79.56s.22-4.42,1.35-7.11c1.23-2.93,3.37-4.15,3.37-4.15h.21s2.14,1.22,3.36,4.15c1.13,2.7,1.35,7.11,1.35,7.11h-9.64ZM60.39,86.56s-.03.02-.05.04c.06-.02.08-.04.05-.04ZM34.85,86.6s-.03-.04-.05-.04c-.03,0,0,.02.05.04ZM37.34,12.58s-.24-1.52-.5-3.44c-.24-1.73-.5-3.79-.64-5.35-.2-2.32.13-2.78.13-2.78,0,0-15.97.28-26.61.13C4.4,1.06.41.5.41.5v1.51s2.03.08,3.75,1.02c1.25.68,2.32,2.05,2.32,3.01v38.25c0,.78-.67,2.75-1.98,3.59-1.68,1.07-4.09.93-4.09.93v2.01s5.47-.5,10.59-.5c5.48,0,10.65.5,10.65.5v-2.01s-2.09-.06-3.82-.9c-1.22-.6-2.25-1.84-2.25-2.62v-19.63h18.21v-5.54H15.59V6.54h13.15c2.28,0,4.85.95,5.61,2.1,1.15,1.74,1.47,3.94,1.47,3.94h1.52ZM20.14,85.05c-3.64,0-6.73-.67-8.89-3.18-4.12-4.78-4.35-9.29-3.25-12.93,2.34-7.74,7.76-9.04,11.63-8.56,2.98.37,4.99,1.79,5.38,2.09,0,0,0,0,0,0,.01.01.02.02.03.03,0,0-.01-.01-.02-.02,1.68,1.44,1.7,3.44,1.7,3.44h1.01v-7.05h-1.52s-8.28-3.45-15.17-1.01c-6.9,2.44-14.18,12.23-9.61,21.64,2.36,4.86,9.02,8.66,15.17,9.06,5.76.37,11.13-2.52,11.13-2.52l1.01-7.55h-1.52s1.59,6.54-7.08,6.54ZM165.8,49.32v1.01h16.19v-1.01s-4.55-1.12-4.55-2.52v-7.05h15.48v7.05c0,1.4-4.54,2.52-4.54,2.52v1.01h16.16v-1.01s-4.6-.28-4.54-3.02c.03-1.41,1.13-8.56-2.52-16.61-5.97-13.18-11.43-15.6-11.43-15.6l-.85-.5-.66.5s-6.54,4.38-11.63,15.6c-3.65,8.05-2.56,15.19-2.53,16.61.05,2.74-4.55,3.02-4.55,3.02ZM179.97,24.66c1.84-4.97,5.06-7.05,5.06-7.05h.32s3.21,2.08,5.05,7.05c1.69,4.58,2.02,12.08,2.02,12.08h-14.47s.33-7.5,2.02-12.08ZM106.12,50.83v-1.51s-4.55.03-4.55-2.52v-27.18h15.48v27.18c0,2.55-4.54,2.52-4.54,2.52v1.51s3.91-.5,7.76-.5,7.39.5,7.39.5v-1.51s-4.54-.39-4.54-3.52v-26.17c0-.67.7-1.78,1.55-2.27,1.32-.76,3-.74,3-.74v-1.51h-36.7v1.51s1.68-.02,3,.74c.85.49,1.55,1.6,1.55,2.27v26.17c0,3.13-4.55,3.52-4.55,3.52v1.51s3.67-.5,7.4-.5,7.78.5,7.78.5ZM58.62,86.64c-.66-.23-1.26-1.08-1.26-1.59v-16.1c0-1.24,3.03-1.51,3.03-1.51v-1.01h-11.11v1.01s1.11-.06,1.99.47c.57.34,1.04,1.23,1.04,1.54v3.52h-9.41v-3.52c0-.32.47-1.2,1.04-1.54.88-.53,1.99-.47,1.99-.47v-1.01h-11.13v1.01s3.03.27,3.03,1.51v16.1c0,.51-.6,1.36-1.26,1.59-.72.25-1.51.05-1.73-.04.19.2-.05,1.47-.05,1.47,0,0,3.44-.5,5.56-.5s5.06.5,5.06.5h.51v-1.01s-3.03-.58-3.03-2.52v-5.54h9.41v5.54c0,1.94-3.03,2.52-3.03,2.52v1.01h.5s2.93-.5,5.05-.5,5.55.5,5.55.5c0,0-.24-1.27-.05-1.47-.21.09-1,.29-1.72.04ZM52.31,77h-9.41v-2.01h9.41v2.01ZM167.69,86.02c-2.63,0-4.85-.48-6.42-2.28-2.98-3.43-3.14-6.66-2.34-9.27,1.69-5.54,5.6-6.48,8.4-6.13,2.22.27,3.67,1.34,3.89,1.51,0,0,0,0-.01-.01.06.05.05.04.01.01,1.21,1.03,1.22,2.46,1.22,2.46h.73v-5.05h-1.09s-5.97-2.47-10.95-.72-10.23,8.77-6.94,15.51c1.7,3.48,6.51,6.21,10.95,6.49,4.16.27,8.03-1.8,8.03-1.8l.73-5.41h-1.09s1.14,4.69-5.11,4.69ZM342.83,85.05h-4.55s-1.52-.69-1.52-1.67v-6.39h7.59v-2.52h-7.59v-5.03h6.07c1.51,0,2.53,2.52,2.53,2.52h1.01s-.24-.82-.49-2.17c-.26-1.41-.52-3.36-.52-3.36h-17.2v1.01s3.54.09,3.54,2.01v15.6c0,.49-.77,1.38-1.54,1.63-.75.25-1.5-.12-1.5-.12l-.51,1.51h17.7s-.14-1.45.23-2.93c.39-1.54,1.29-3.11,1.29-3.11h-1.52s-1.19,3.02-3.03,3.02ZM321.88,86.56s-.03.02-.05.04c.06-.02.08-.04.05-.04ZM367.1,85.05h-4.55s-1.52-.69-1.52-1.67v-6.39h7.59v-2.52h-7.59v-5.03h6.07c1.51,0,2.53,2.52,2.53,2.52h1.01s-.24-.82-.49-2.17c-.26-1.41-.52-3.36-.52-3.36h-17.2v1.01s3.54.09,3.54,2.01v15.6c0,.49-.77,1.38-1.54,1.63-.75.25-1.5-.12-1.5-.12l-.51,1.51h17.7s-.14-1.45.23-2.93c.39-1.54,1.29-3.11,1.29-3.11h-1.52s-1.19,3.02-3.03,3.02ZM320.11,86.64c-.66-.23-1.26-1.08-1.26-1.59v-16.1c0-1.24,3.03-1.51,3.03-1.51v-1.01h-11.11v1.01s1.11-.06,1.99.47c.57.34,1.04,1.23,1.04,1.54v3.52h-9.41v-3.52c0-.32.47-1.2,1.04-1.54.88-.53,1.99-.47,1.99-.47v-1.01h-11.13v1.01s3.03.27,3.03,1.51v16.1c0,.51-.6,1.36-1.26,1.59-.72.25-1.51.05-1.73-.04.19.2-.05,1.47-.05,1.47,0,0,3.44-.5,5.56-.5s5.06.5,5.06.5h.51v-1.01s-3.03-.58-3.03-2.52v-5.54h9.41v5.54c0,1.94-3.03,2.52-3.03,2.52v1.01h.5s2.93-.5,5.05-.5,5.55.5,5.55.5c0,0-.24-1.27-.05-1.47-.21.09-1,.29-1.72.04ZM313.8,77h-9.41v-2.01h9.41v2.01ZM296.34,86.6s-.03-.04-.05-.04c-.03,0,0,.02.05.04ZM129.52,91.37c-1.53-.09-3.85-.93-5.69-1.79-1.82-.86-2.82-2-5.2-4.28-3.63-3.49-6.94-7.79-6.94-7.79,0,0,3.54-2.36,3.54-6.04s-5.07-5.03-9.1-5.03h-10.12v1.01s3.03.03,3.03,2.01v15.6c0,1.67-3.03,1.51-3.03,1.51v1.51h11.63v-1.01s-1.47-.26-2.39-.74c-.85-.43-1.15-1.04-1.15-1.78v-6.04h2.02s1.09,1.16,3.43,3.42c1.75,1.69,4.43,4.22,6.68,6.14,3.2,2.73,8.67,3.93,12.47,3.93,4.42,0,4.22-1.41,4.22-1.41,0,0-1.12.92-3.41.79ZM107.82,76.62c-1.78.91-3.73.38-3.73.38v-7.55c.75-.81,2.23-1.18,3.83-.39,1.24.62,2.24,2.13,2.24,3.41s-.86,3.4-2.34,4.15ZM426.91,11.52c-.82.95-1.64,3.58-1.64,3.58h-11.63v-6.04c0-.57.78-2.19,1.69-2.72,1.3-.75,2.86-.3,2.86-.3v-1.51s-3.56.5-6.98.5c-4.32,0-8.19-.5-8.19-.5v1.51s2.13-.07,2.72.35c1,.7,1.84,1.5,1.84,2.17v6.54h-10.12s-.09.05-.19-.46c-.14-.71-.31-2.05-.31-2.05h-1.52s-.16,1.81-.87,4.28c-.8,2.8-2.17,6.29-2.17,6.29h1.01s2.05-4.03,4.05-4.03h10.12v27.18c0,.65-.84,1.8-1.79,2.33-1.27.7-2.76.69-2.76.69v1.51s3.95-.5,7.81-.5,7.36.5,7.36.5v-1.51s-4.55-.82-4.55-3.02v-27.18h8.09c.69,0,1.74.42,2.15.92.59.72.38,1.6.38,1.6h1.52s-.35-.6-.12-2c.17-1.08.89-2.83,1.11-3.9.51-2.56,1.04-4.16,1.04-4.16,0,0-.66-.33-.89-.06ZM397.35,64.57c-.56.57-1.12,2.14-1.12,2.14h-7.98v-3.61c0-.34.53-1.31,1.16-1.62.89-.45,1.96-.18,1.96-.18v-.9s-2.44.3-4.79.3c-2.96,0-5.62-.3-5.62-.3v.9s1.46-.04,1.86.21c.68.42,1.26.89,1.26,1.29v3.91h-6.94s-.06.03-.13-.28c-.1-.42-.21-1.23-.21-1.23h-1.04s-.11,1.08-.59,2.56c-.55,1.67-1.49,3.76-1.49,3.76h.69s1.4-2.41,2.77-2.41h6.94v16.25c0,.39-.57,1.08-1.23,1.39-.87.42-1.89.41-1.89.41v.9s2.71-.3,5.36-.3,5.05.3,5.05.3v-.9s-3.12-.49-3.12-1.81v-16.25h5.55c.47,0,1.19.25,1.47.55.4.43.26.96.26.96h1.04s-.24-.36-.08-1.2c.12-.64.61-1.69.76-2.33.35-1.53.71-2.49.71-2.49,0,0-.45-.2-.61-.03ZM455.62,33.72c-3.96-4.49-14.16-8.02-14.16-11.57,0-.78-.01-3.07,1.52-4.03,1.78-1.12,5.26-.84,7.08-.5,3.69.68,5.56,5.54,5.56,5.54,0,0,.51.27.51-.75s-.61-2.5-.72-3.83c-.14-1.6.22-2.97.22-2.97,0,0-2.04.03-4.55-.5-1.37-.29-6.07-1.42-10.06-.27-3.31.96-6.13,3.66-6.13,8.32,0,2.57.35,2.92.95,4.32,1.8,4.19,5.87,5.75,9.67,8.26,5.07,3.35,6.2,4.99,5.06,8.56-1.14,3.57-3.77,4.03-7.59,4.03-1.54,0-3.57-.89-4.85-2.55-1.89-2.46-2.73-6.01-2.73-6.01h-1.52l1.52,9.56s.42.17,2.02,1.01c1.6.83,7.93,1.39,13.15,0,2.65-.71,5.94-3.32,7.03-6.8,1.05-3.37-.03-7.6-1.97-9.81ZM199.59,64.57c-.56.57-1.12,2.14-1.12,2.14h-7.98v-3.61c0-.34.53-1.31,1.16-1.62.89-.45,1.96-.18,1.96-.18v-.9s-2.44.3-4.79.3c-2.96,0-5.62-.3-5.62-.3v.9s1.46-.04,1.86.21c.68.42,1.26.89,1.26,1.29v3.91h-6.94s-.06.03-.13-.28c-.1-.42-.21-1.23-.21-1.23h-1.04s-.11,1.08-.59,2.56c-.55,1.67-1.49,3.76-1.49,3.76h.69s1.4-2.41,2.77-2.41h6.94v16.25c0,.39-.57,1.08-1.23,1.39-.87.42-1.89.41-1.89.41v.9s2.71-.3,5.36-.3,5.05.3,5.05.3v-.9s-3.12-.49-3.12-1.81v-16.25h5.55c.47,0,1.19.25,1.47.55.4.43.26.96.26.96h1.04s-.24-.36-.08-1.2c.12-.64.61-1.69.76-2.33.35-1.53.71-2.49.71-2.49,0,0-.45-.2-.61-.03ZM157.21,49.32s-4.55-.82-4.55-3.02v-27.18h8.09c.69,0,1.74.42,2.15.92.59.72.38,1.6.38,1.6h1.52s-.35-.6-.12-2c.17-1.08.89-2.83,1.11-3.9.51-2.56,1.04-4.16,1.04-4.16,0,0-.66-.33-.89-.06-.82.95-1.64,3.58-1.64,3.58h-11.63v-6.04c0-.57.78-2.19,1.69-2.72,1.3-.75,2.86-.3,2.86-.3v-1.51s-3.56.5-6.98.5c-4.32,0-8.19-.5-8.19-.5v1.51s2.13-.07,2.72.35c1,.7,1.84,1.5,1.84,2.17v6.54h-10.12s-.09.05-.19-.46c-.14-.71-.31-2.05-.31-2.05h-1.52s-.16,1.81-.87,4.28c-.8,2.8-2.17,6.29-2.17,6.29h1.01s2.05-4.03,4.05-4.03h10.12v27.18c0,.65-.84,1.8-1.79,2.33-1.27.7-2.76.69-2.76.69v1.51s3.95-.5,7.81-.5,7.36.5,7.36.5v-1.51ZM145.07,85.19c.02-.83.75-5.04-1.68-9.78-3.98-7.76-7.61-9.19-7.61-9.19l-.57-.3-.44.3s-4.36,2.58-7.75,9.19c-2.43,4.74-1.7,8.95-1.68,9.78.04,1.62-3.03,1.78-3.03,1.78v.59h10.78v-.59s-3.03-.66-3.03-1.48v-4.15h10.31v4.15c0,.83-3.03,1.48-3.03,1.48v.59h10.76v-.59s-3.06-.16-3.03-1.78ZM130.39,79.56s.22-4.42,1.35-7.11c1.23-2.93,3.37-4.15,3.37-4.15h.21s2.14,1.22,3.36,4.15c1.13,2.7,1.35,7.11,1.35,7.11h-9.64ZM274.04,17.11c1.41-.45,3.03-.5,3.03-.5l.51-1.51h-14.16v1.01s5.84.03,4.55,2.52c-.12.23-1.05,1.58-2.18,3.45-2.7,4.46-6.93,10.65-6.93,10.65,0,0-3.14-3.99-5.28-7.49-2.16-3.54-3.32-6.6-3.32-6.6,0,0,.21-1.09.94-1.7.78-.65,2.09-.81,2.09-.81v-1.01h-17.2v1.51s2.3-.81,4.55,1.01c2.26,1.81,9.61,13.59,9.61,13.59,0,0,.7,2.55,2.02,4.03,1.33,1.48,1.52,2.01,1.52,2.01v10.07s-.99,1-1.99,1.49c-1.02.51-2.05.52-2.05.52v1.51s3.34-.5,6.89-.5c4.01,0,8.28.5,8.28.5v-1.51s-4.55-.47-4.55-3.52v-9.06s6.09-8.69,8.09-12.58c2-3.89,4.15-6.59,5.56-7.05ZM262.03,91.37c-1.53-.09-3.85-.93-5.69-1.79-1.82-.86-2.82-2-5.2-4.28-3.63-3.49-6.94-7.79-6.94-7.79,0,0,3.54-2.36,3.54-6.04s-5.07-5.03-9.1-5.03h-10.12v1.01s3.03.03,3.03,2.01v15.6c0,1.67-3.03,1.51-3.03,1.51v1.51h11.63v-1.01s-1.47-.26-2.39-.74c-.85-.43-1.15-1.04-1.15-1.78v-6.04h2.02s1.09,1.16,3.43,3.42c1.75,1.69,4.43,4.22,6.68,6.14,3.2,2.73,8.67,3.93,12.47,3.93,4.42,0,4.22-1.41,4.22-1.41,0,0-1.12.92-3.41.79ZM240.34,76.62c-1.78.91-3.73.38-3.73.38v-7.55c.75-.81,2.23-1.18,3.83-.39,1.24.62,2.24,2.13,2.24,3.41s-.86,3.4-2.34,4.15ZM218.4,85.05h-4.55s-1.52-.69-1.52-1.67v-6.39h7.59v-2.52h-7.59v-5.03h6.07c1.51,0,2.53,2.52,2.53,2.52h1.01s-.24-.82-.49-2.17c-.26-1.41-.52-3.36-.52-3.36h-17.2v1.01s3.54.09,3.54,2.01v15.6c0,.49-.77,1.38-1.54,1.63-.75.25-1.5-.12-1.5-.12l-.51,1.51h17.7s-.14-1.45.23-2.93c.39-1.54,1.29-3.11,1.29-3.11h-1.52s-1.19,3.02-3.03,3.02ZM276.01,63.99c0-.66-.01-2.6,1.3-3.41,1.53-.95,4.52-.71,6.08-.43,3.17.58,4.78,4.69,4.78,4.69,0,0,.43.23.43-.63s-.52-2.12-.62-3.25c-.12-1.36.19-2.51.19-2.51,0,0-1.75.02-3.91-.43-1.18-.25-5.22-1.2-8.64-.22-2.85.82-5.27,3.1-5.27,7.04,0,2.17.3,2.47.82,3.66,1.55,3.55,5.04,4.87,8.31,7,4.36,2.84,5.33,4.22,4.35,7.24-.98,3.02-3.24,3.41-6.52,3.41-1.32,0-3.07-.75-4.17-2.16-1.63-2.08-2.35-5.09-2.35-5.09h-1.3l1.3,8.1s.36.15,1.74.85c1.38.71,6.82,1.18,11.3,0,2.28-.6,5.11-2.81,6.04-5.76.91-2.86-.02-6.43-1.7-8.3-3.4-3.8-12.17-6.79-12.17-9.8ZM334.23,51.33c15.22,0,21.24-4.03,21.24-4.03v-13.08c0-1.22,1.01-2.82,2.59-3.63,1.71-.87,3.99-.9,3.99-.9v-2.01s-7.6.5-13.81.5c-4.3,0-7.94-.5-7.94-.5v2.01s6.07.13,6.07,3.52v11.57s-7.63,3.35-16.69-.5c-9.06-3.86-10.62-11.64-10.62-18.12,0-3.22-.13-8.58,2.75-13.16,2.91-4.64,8.87-8.48,14.96-8.48,5.52,0,9.88,1.41,12.44,4.04,3.04,3.12,3.74,7.54,3.74,7.54h1.52V2.01l-2.53,1.01s-6.62-3.02-19.22-3.02-26.3,11.1-26.3,26.17,12.6,25.16,27.82,25.16Z" style="fill-rule: evenodd;"/>
  </g>
</svg>