<?xml version="1.0" encoding="UTF-8"?>
<svg id="Camada_2" data-name="Camada 2" xmlns="http://www.w3.org/2000/svg" viewBox="0 0 762.97 249.88">
  <g id="Camada_1-2" data-name="Camada 1">
    <g id="Skills">
      <path d="M762.96,20.44c-.06-1.69-.49-4.03-1.1-5.69-.73-1.99-1.74-3.24-2.72-4.29-1.79-1.92-4.6-3.33-4.6-3.33,0,0-2.44-.84-4.73-1.24-3.36-.58-5.97-.29-5.97-.29,0,0-3.59-.37-8.79-.2-9,.3-21.79,1.73-21.79,1.73,0,0-11.36.95-21.88,1.79-8.35.67-16.35.76-16.35.76,0,0-10.71.51-21.42.51-6.16,0-12.95.51-17.9.51-5.68,0-9.1-.51-9.1-.51,0,0-6.46-.37-12.04-.66-3.72-.2-8.35.15-8.35.15,0,0-9.06.02-17.48.53-4.49.28-9.4.54-14.51,1.28-5.34.77-10.85,2.02-14.09,2.1-11.36.3-26.81-.35-26.81-.35,0,0-10.23.16-23.58-.32-9.18-.33-19.01-.77-29.57-1.23-8.13-.35-17.12-.7-24.02-1.01-5.34-.24-9.54.05-13.2-.12-4.99-.23-9.04-.38-9.04-.38,0,0-4.93-1.07-10.74-1.66-2.86-.29-5.3-.08-7.73-.33-3.2-.33-7.53-.05-7.53-.05,0,0-4.95-.17-9.64.19-5.22.4-10.24,1.34-10.24,1.34,0,0-1.65.7-7.72.98-5.41.25-11.08.51-18.23.75-2.14.07-4.48.22-6.83.38-3.49.24-6.99.52-9.86.59-7.67.21-11.91.35-11.91.35,0,0-8.92-.76-18.36-1.02-9.43-.25-17.83,0-17.83,0,0,0-5.75.98-13.09,1.58-4.46.36-9.5,1.22-14.19,1.52-8.91.57-12.98.47-12.98.47,0,0-2.36-.64-5.5-.86-3.45-.24-7.84-.07-11.08-.46-3.45-.41-6.63-.88-10.09-1.33-7.89-1.02-15.13-1.94-15.13-1.94,0,0-9.86.1-21.86.22-6.92.07-12.39.64-18.41.7-6.81.06-14.26.11-14.26.11,0,0-9.3-.45-18.11-.92-9.98-.54-18.08-1.12-18.08-1.12,0,0-5.57-.15-9.34-.86-1.78-.33-2.52-.77-3.96-1.16-2.07-.56-4.54-1.04-4.54-1.04,0,0-3.75.25-12.43.55-4.04.14-8.22,1.31-12.75,1.45-9.72.3-19.17-.47-19.17-.47,0,0-6.76-.58-14.02-1.75-8.45-1.36-17.58-3.34-17.58-3.34,0,0-4.74-.51-8.68-1.46-3.42-.83-6.61-1.6-6.61-1.6l-1.02.51v.51h-2.04s-5.05,3.68-7.65,8.15c-2.6,4.47-3.26,13.11-1.02,16.31,2.24,3.2,4.08,5.1,4.08,5.1l2.04,1.53,4.08.51-1.02,9.17h0s-.71,3.29-1.02,8.16.51,10.7.51,10.7c0,0,.93,3.5,2.04,11.21,1.11,7.71.42,15.83.51,19.88.09,4.04-.5,7.17,0,7.65.5.48,1.02,1.02,1.02,1.02l1.53,1.53s-1.04.25-2.04,1.02c-3.44,2.66-2.04,5.61-2.04,5.61,0,0,.31,2.17.51,2.55.2.38,1.02,1.02,1.02,1.02,0,0-1.32-.48-1.53,2.55-.21,3.03,0,7.14,0,7.14l.51,10.7s-.21,1.91-.51,3.57c-.14.75-.51,2.04-.51,2.04l-1.02,7.65-1.02,10.19s-.6,13.08,0,20.39c.6,7.31,2.04,15.8,2.04,15.8l1.02,9.68v5.1s-1.03-.47-2.49-1.4c-1.33-.85-3.11-2.17-3.11-2.17l-2.55,1.53s-1.12,2.31-2.53,5.84c-1.17,2.91-2.71,6.8-2.56,9.45.32,5.88-1.14,10.94-.51,14.78.63,3.84,1.21,9.72,4.08,10.7,2.87.99,6.71,1.16,8.67,2.04,1.95.88,5.61,2.04,5.61,2.04,0,0,2.74.29,6.14.03,2.54-.19,5.23-.91,8.64-1.05,7.97-.34,13.64-.68,18.35-2.04,4.71-1.36,14.15-2.11,21.92-2.55,7.76-.44,22.1-.17,32.62,0,10.52.17,22.51,2.38,37.72,1.02,15.21-1.36,31.38-.78,41.8-2.04,10.42-1.26,22-1.5,35.68-1.53,13.68-.03,28.32.14,42.31,1.02s36.58,2.68,50.46,3.06,34.03,1.56,46.38.51c12.35-1.05,36.27-1.7,51.99-2.55,15.72-.85,38.62-.17,53.52.51,14.9.68,34.95-.58,45.87-2.04,10.93-1.46,31.08-2.51,44.86-2.04,13.78.48,31.18,4.42,45.87,6.12,14.7,1.7,34.03,2.17,52.5.51,18.47-1.67,39.23-3.23,49.44-4.59,10.21-1.36,15.27,1.46,21.92,2.55,6.64,1.09,7.93,2.17,8.67,2.04.73-.14,2.04,0,2.04,0,0,0,7.22.24,8.67,0,1.44-.24,1.53-.51,1.53-.51,0,0,2.43-3.23,3.57-5.61s3.06-4.59,3.06-4.59v-1.53s-.53-6.49,0-13.25c.53-6.76.51-12.23.51-12.23l-1.53-3.57v-1.53l.51-2.04s.52-9.55.51-15.8c0-1.28.51-5.61.51-5.61v-2.55s2.56-17.3,2.55-27.52c0-10.23-1.93-22.43-2.55-25.48-.62-3.06-.51-3.06-.51-3.06,0,0-.91-8.43-1.53-15.8-.62-7.37,1.02-14.78,1.02-14.78l.51-2.55v-22.43l-2.04-2.55.51-2.04-1.02-2.55,2.55-.51.51-1.02,3.06-15.8h0s1.53-4.33,2.55-7.13c.71-1.96.96-3.85,1.52-6.06.56-2.25,1.43-4.83,1.3-8.17ZM17.49,41.79l.51-8.66s5.4,1.52,11.21,1.02c3.69-.32,4.69-.42,6.63-.51-.31.01,2.29.26,5.1.51,2.95.26,7.14.51,7.14.51v-2.55l1.02,2.04h1.53l1.02-2.04s.3,1.32,1.02,2.04c.52.52,1.53,0,1.53,0h15.29l5.1,1.53,5.61-.51,5.61-.51,14.78-.51,2.55,1.02,39.76-1.02,4.59-.51s53.95-1.41,54.54-1.53c.59-.12,3.57-.51,3.57-.51l13.25-.51s20.59-1.67,39.76-1.02c18.54.63,36.7,3.57,36.7,3.57l2.55-2.55,2.04,2.04,2.04-.51,3.57-2.55s2.16-.08,4.59-.51c1.57-.28,3.59-1.04,5.1-1.02,1.12.02,2.53.32,3.06,1.02.47.62,1.91.53,2.55.51.66-.03.51,0,.51,0,0,0,.05.12,2.55-1.02,3.05-1.39,7.14-3.57,7.14-3.57h2.04s2.67,2.61,5.61,3.57c1.94.63,11,3.06,18.86,3.06,3.59,0,7.18-1.13,10.19-1.53,5.73-.75,9.68-1.02,9.68-1.02,0,0,6.29-.72,13.76-1.02,10.96-.44,24.47-.51,24.47-.51,0,0,2.61.99,6.12,1.53,2.47.38,5.45.23,8.01.73,6.23,1.2,13.4,1.31,13.4,1.31,0,0,9.82,1.09,20.9,1.53,7.14.29,17.33,0,17.33,0,0,0,2.14,0,5.61-.51,2.12-.31,4.1-1.33,6.12-1.53,1.79-.18,3.43.94,4.59.51,1.33-.5,2.04-2.55,2.04-2.55,0,0,.19,1.48,1.02,2.55.94,1.21,2.04,1.53,2.04,1.53,0,0,.46-.06,1.02-.51.7-.56,1.53-1.53,1.53-1.53l2.04,1.53,4.08-2.55,3.06,1.53s10.73-.89,20.9-1.02c9.7-.12,18.86.51,18.86.51l14.27,2.55s3.78,1.09,6.63,2.04c2.48.83,4.08,1.53,4.08,1.53h29.56l26-4.59s10.46-1.76,20.39-2.55c9.43-.74,19.37-1.02,19.37-1.02l21.41-.51s6.76,1.02,12.23,2.04c5.1.95,8.74,1.86,13.76,3.06,6.96,1.67,10.19,3.57,10.19,3.57l5.61.51s.73.96,1.53,1.53c.97.69,2.04,1.02,2.04,1.02,0,0,.51.13,1.01-.25.51-.38,1.02-1.28,1.02-1.28v3.06H17.49Z" style="fill-rule: evenodd;"/>
      <path d="M758.13,16.96c-.59-1.5-1.66-2.77-2.66-3.72-1.26-1.19-2.43-1.88-2.43-1.88,0,0-1.32-.45-2.67.39-.95.59-1.91,2.08-2.43,3.68-1.26,3.89-1,4.33-2.04,4.59-1.04.25-3.06.51-3.06.51,0,0,4.1,1.86,3.06,3.06-1.04,1.2-3.06,2.04-3.06,2.04,0,0,3.66,1.28,2.04,3.06-1.62,1.78-2.04,2.04-2.04,2.04,0,0,.67,5.13.51,7.14,0,0-.16,2.63-2.55,2.55-.77-.03-2.47-2.42-3.57-2.55-1.29-.15-2.13-.1-4.08-.51-4.49-.95-8.63-2.9-15.29-4.59-6.3-1.59-15.08-2.93-20.39-3.57-8.68-1.05-7.51.4-18.86,0-7.92-.28-20.35.24-30.58,1.53-2.58.33-9.89,1.2-17.33,2.55-6.85,1.24-13.75,2.94-18.35,3.57-7.97,1.08-20.65.76-28.03.51-6.74-.23-8.75-1.66-13.76-3.06-6.03-1.68-14.92-3.37-21.92-3.57-6.92-.2-6.18.14-12.23,0-7.61-.18-13.03,1.13-18.86,1.02-6.05-.12-6.12-1.53-6.12-1.53,0,0-2.91,2.53-4.08,2.55-1.97.03-1.91-1.64-2.04-1.53-1.22,1.07-2.34,2.46-3.57,1.53-.82-.62-2.04-3.57-2.04-3.57,0,0-.85,1.8-1.89,1.9-2.07.2-2.03.17-4.23.14-4.21-.07-3.99,2.13-8.16,2.04-11.82-.25-11.99.27-23.45,0-9-.21-22.98-1.66-33.13-3.06-6.48-.89-9.54-1.94-14.78-2.04-10.98-.2-26.28.34-37.72,1.53-9.77,1.02-15.93,2.71-22.94,2.55-2.88-.07-11.36-1.78-15.8-3.57-3.53-1.43-3.16-3.02-5.1-3.06-1.85-.04-4.83,1.46-6.63,2.55-2.04,1.23-2.88,2.08-4.59,2.04-2.39-.05-2.55-.26-3.06-.51-.87-.43-1.04-.98-3.06-1.02-2.65-.05-3.57.51-3.57.51,0,0-1.99.76-3.57,1.02-1.47.25-2.55,0-2.55,0,0,0-2.09,1.19-3.06,2.04-.77.67-.25,1.04-1.53,1.02-2.55-.04-3.06-2.04-3.06-2.04,0,0-1.88,2.56-3.06,2.55-4.29-.04-11.41-1.88-19.37-2.55-11.94-1.01-24.94-.97-31.09-1.02-17.77-.14-36.11,2.13-51.99,2.04-15.87-.09-30.92,1.59-44.35,1.53-6.85-.03-13.21,1.22-19.37,1.53-9.2.46-17.73.04-24.98,0-2.28-.01-4.55-1.01-6.63-1.02-6.59-.03-7.83.53-12.23.51-4.76-.02-8.28,1.03-10.19,1.02-1.18,0-3.41-1.5-3.41-1.5,0,0-3.25-.02-4.74-.03-11.16-.07-13.76,0-13.76,0l-1.02-2.04s-.29.94-1.02,1.53c-.49.39-1.53.51-1.53.51l-1.02-1.53v2.04l-4.08-.51-8.67-.51s-6.17.53-8.67.51c-6.35-.05-8.67-1.02-8.67-1.02l-.47,8.66h-.04s-.28,1.53-.51,2.55c-.28,1.25-.51,2.04-.51,2.04.98-.07,1.53,0,1.53,0,0,0-.02.97,0,1.53.02.42.1.45,0,.51h-1.53v4.08l3.06.51-.51,1.53-2.55.51s-.18,2.16,0,4.08c.21,2.23.79,4.44,1.02,7.14.32,3.69.51,6.63.51,6.63l5.1.51v1.53l-4.59-.51v2.04h3.57s.77.52,1.02,1.02,0,1.02,0,1.02h-4.59l-.51,19.88s1.95-.05,3.06.51c1.4.7,2.04,2.04,2.04,2.04l6.12.51,1.02.51h.51s1.1-.69,1.53-.51c1.4.6.51,1.53.51,1.53h-1.53l-.51-.51-.51.51-1.02.51h-7.14s-3.29.68-4.59,2.55c-.51.73-.65,1.8-.51,2.55.12.64.51,1.02.51,1.02,0,0,.82.8,2.04,1.02,1.55.28,3.57,0,3.57,0l-.51,2.04h-3.57l-2.04,3.06-.51,2.04v4.08s1.27,2.77,1.02,9.17c.01-.31-.42,3.62-.91,8.3-.44,4.3-.92,9.24-1.13,12.09-.26,3.61-1.36,8.56-1.53,11.21-.23,3.5,0,6.63,0,6.63h3.57v2.55h-3.57s-.25,2.46,0,4.08c.26,1.69.51,2.04.51,2.04,0,0,2.92.36,4.59.51,1.66.15,3.57.51,3.57.51l2.55-1.02.51,1.53-1.53,1.02h-9.17v1.02l1.02.51h4.59v1.53l-4.08.51v2.04c.25-.07,1.53,0,1.53,0v2.04s.01.21-1.02.51c0,0-.09,1.14,0,2.55.12,1.9.43,4.44.51,6.63.06,1.5.05,2.63.03,3.31h-.03v6.37l.51,1.02s10.08,3.7,15.29,5.61c2.3.84,4.85,2.45,7.65,3.06,3.54.77,7.39.47,10.7,1.02,5.93.99,13.34,1.97,20.9,2.55,1.16.09,1.04.45,2.04.51,5.5.34,9.68,0,9.68,0,0,0,2.23,1.97,9.68,2.04,7.46.07,12.74,0,12.74,0l.51,1.02s1.1.14,1.53.51c.42.37,1.02,2.04,1.02,2.04,0,0,.22.3,1.02,0,.59-.22.65-.69,1.53-1.02.87-.33,2.55-.51,2.55-.51l.51,1.02,4.59-1.02,1.02.51,1.53-1.53s2.36.5,6.63.51c1.95,0,4.83-.66,7.14-.51,3.01.19,4.87.69,9.17.51,6.21-.27,15.37-1.33,22.43-1.53,11.94-.34,23.84-.07,39.25,0,5.93.03,10.26.19,15.29.51,8.03.51,16.23,1.3,23.45,1.53,8.18.26,17.81.92,28.54,1.02,4.67.04,15.66.27,20.39.51,15.61.78,24.98,1.53,24.98,1.53,0,0-.02,1.97,1.02,1.53,1.04-.44,3.06-1.53,3.06-1.53l2.04,1.02s1.9-.19,3.06-.51c1.58-.43,2.55-1.02,2.55-1.02h1.53s-.15.82,3.57,2.04c2.07.68,7.35,2.2,9.68,2.04,6.54-.44,13.25-3.06,13.25-3.06,0,0,1.71.13,4.08,0,2.06-.11,4.8-.49,5.1-.51.63-.03,4.08-1.53,4.08-1.53h7.65l1.53,3.06,2.04-1.53h2.04l1.53,2.04,2.04-.51,2.04,1.02s2.7-1.99,5.61-3.06c1.93-.71,3.9-1.46,5.1-1.53,3-.18,4.08,0,4.08,0,0,0,15.99,1.77,22.43,1.02,1.77-.21,3.23.42,8.16.51,7.43.13,16.34.51,24.98.51,6.49,0,13.51-.31,15.8-.51,2.2-.19,4.94.36,9.68,0,11.14-.85,28.46-2.91,32.62-4.08,3.16-.89,11.5-1.12,21.41-1.53,8.66-.35,17.66-.97,24.47-.51,5.07.34,7.28.71,10.19,1.02,5.47.59,9.18,1.02,9.18,1.02,0,0,.77,1.65,2.55,3.57,1.8,1.94,4.62,4.15,5.61,4.08,1.95-.14,5.61.51,5.61.51l2.04,1.02,2.55,2.55s7.42,1.97,10.7,0c3.28-1.97,12.93-7.51,14.78-7.65,1.85-.14,6.63-.51,6.63-.51,0,0,.29,1.05.51,1.02s13.75,2.38,20.9.51c2.37-.62,5.91-2.61,9.68-3.06,7.61-.89,16.56-.01,21.41-.51,3.01-.31,10.19,1.02,10.19,1.02l12.23.51v1.53s-.29,1.02,0,1.02c.2,0,1.02-1.02,1.02-1.02l1.02-.51h.51l1.53,1.53,1.53.51s0-.68,1.02-1.02c1.87-.62,4.42-.59,7.65-1.53,4.54-1.32,9.68-3.57,9.68-3.57l5.61-1.02,1.02,1.02v.51l-.51,1.02s-3.28,3.7-3.06,7.14c.22,3.43.51,5.1.51,5.1,0,0,1.21,3.19,2.55,4.08,1.34.88,2.55.51,2.55.51h.51l.51.51s6-3.53,6.63-8.15c.63-4.62-.51-24.46-.51-24.46l-.51-2.55h-2.04l-4.08-.51-.51-.51,1.53-2.04,4.08.51.82-3.06h.2l-.15-.2.15-.56h-.57l-2.48-3.31s-1.02.27-2.55,0c-1.09-.19-2.56-.91-3.57-1.02-2.13-.24-3.06,0-3.06,0,0,0-.54-1.72,2.04-2.55.51-.16,1.5.21,2.04.51.61.34.78.62,1.53.51,1.06-.16,2.04-.66,3.06-1.02,2.18-.77,4.08-1.02,4.08-1.02,0,0-.44-5.47,0-11.72.33-4.74,1.03-8.65,1.53-13.76.86-8.73,1.53-17.84,1.53-17.84,0,0-.29-5.69-1.02-11.72-.45-3.71-1-5.33-1.53-9.17-1.06-7.71-2.04-15.8-2.04-15.8,0,0-1.32.38-2.04,0-.52-.27-.51-1.27-.51-1.53,0-.65,2.55-1.53,2.55-1.53v-1.02s-3.16-.1-5.1-.51c-1.19-.26-1.53-1.31-1.53-1.53,0-.17,1.02-.51,1.02-.51h5.61s-.26-5.64,0-11.72c.13-2.92.83-4.64,1.02-7.65.48-7.62.51-15.29.51-15.29,0,0-2.01.55-3.06.51-1.23-.05-1.53-.7-1.53-1.02,0-.28.11-1.16,1.02-1.53,1.31-.53,3.57-.51,3.57-.51v-2.55s-3.52.55-4.08,0c-.22-.22-.54-.58,0-1.02.59-.48,2.04-.51,2.04-.51v-1.53s-2.95.59-4.59.51c-1.4-.07-1.53-.81-1.53-1.02s.43-1.27,1.53-1.53c1.78-.42,4.59,0,4.59,0l-1.02-1.02h-4.59v-.51s-1.96.19-3.06,0c-1.03-.18-1.2-.72-1.02-1.02.17-.28.36-.74,1.53-1.02,1.52-.36,4.08-.51,4.08-.51,0,0,.34.88,1.02,1.02.58.12,1.53-.51,1.53-.51,0,0-.38-.24.51-1.02,1.12-.98,3.59-1.6,3.59-1.6.18-.67.49-2.48.49-2.48,0,0,0-2.06,0-2.04,0,0-1.08.01-1.53-.51-.33-.39-.09-1.31,0-1.53.29-.73,2.55-.51,2.55-.51,0,0-.27-1.28,0-3.06.14-.93.5-2.07.75-2.8h.78s2.42-9.03,3.57-13.51c1.15-4.48,1.84-8.85.51-12.23ZM10.37,28.17s2.46.98,5.1,1.02c2.64.04,2.04,1.02,2.04,1.02,0,0,.56.84,1.02,1.02.45.18,3.62.47,11.72.51,8.1.04,15.8.51,15.8.51,0,0,.27-4.11,2.04-4.59s2.04,3.06,2.04,3.06h.51s.13-.62,1.02-1.02,2.55,2.04,2.55,2.04c0,0,6.68-.4,12.74,0,6.06.4,10.7,2.04,10.7,2.04,0,0,6.03-1.49,12.74-1.53,6.72-.04,6.68.33,17.33.51,10.65.18,33.19-1.06,48.42-1.53s39.09-1.2,56.58-2.04c17.49-.84,36.97-1.2,49.95-.51,12.98.69,32.11,2.55,32.11,2.55,0,0,1.44-2.88,2.04-5.1.6-2.22-.96-4.19,1.02-3.06,1.98,1.13,2.04,6.12,2.04,6.12l.51,1.02,1.02.51s1.8-1.86,3.57-3.06c1.77-1.2,5.52-.62,8.16-1.02,2.64-.4,4.35.98,6.63,1.53,2.27.55,3.84-1.28,7.14-3.06,3.29-1.78,5.08-3.53,7.14-1.53,1,.98,2.48,2.52,6.33,3.87,1.84.65,4.19.74,6.63,1.21,2.92.57,5.97,1.47,8.45,1.54,8.9.26,10.19-1.53,10.19-1.53,0,0,8.5-1.35,20.39-2.04,11.89-.69,30.58-.51,30.58-.51,0,0,1.15.33,3.42.82,2.3.49,5.75,1.13,10.34,1.73,9.12,1.2,17.17,1.27,28.03,2.04,10.87.77,23.07,1.05,27.01.51,1.98-.27,3.89-.78,5.82-1.23,1.92-.44,3.87-.81,3.87-.81l1.02.51s.42-.11.51,0,.51-.51.51-.51c0,0,.06.04,1.02-1.53.96-1.56,1.02-5.61,1.02-5.61h1.53s-.6,2.29,0,5.1c.6,2.8,1.53,3.57,1.53,3.57,0,0,.13.04,1.53-1.02,1.4-1.05,1.02-3.57,1.02-3.57h1.02s.4,1.57.79,2.61c.37,1,.74,1.47.74,1.47,0,0,1.12-.71,1.8-1.5.84-.98,1.26-2.07,1.26-2.07h1.02s.77,1.28,1.54,2.05c.76.76,1.52,1.01,1.52,1.01,0,0,14.76-1.28,29.05-1.02,14.29.26,19.79,1.42,30.07,4.59,10.28,3.17,16.8,3.02,29.56,2.04,12.76-.98,19.72-2.73,30.07-4.08,4.7-.61,10.5-2.07,18.02-2.95,4.49-.52,8.92-.39,13.41-.65,4.56-.26,9.17-.92,11.9-.99,9.92-.25,19.21-.26,23.45,1.02,3.86,1.16,5.59.62,8.67.51,3.08-.11,9.08,3.46,15.29,4.08,6.21.62,10.69,3.97,11.21,4.08.53.11,1.66.04,2.55.51.89.47,2.55,1.02,2.55,1.02h1.02v-.51l-.51-6.63h-.51v-.51l-.51-1.02s.78-.62,1.02-.51c.24.11.78-.47,1.02-1.02.24-.55,0-.51,0-.51l-3.06.51s-1.18-.47-2.04-1.02c-.86-.55-.51-1.53-.51-1.53l4.59-.51,1.02-.51,2.04-1.02-4.08-1.53s-.96-.26-2.04,0c-1.07.26-3.06-1.02-3.06-1.02h-3.06v-1.53h12.74s.94-2.9,1.92-4.86c1.06-2.12,2.16-3.3,2.16-3.3l.51-1.02c-6.19-1.31-29.8.84-39.25,1.53-9.45.69-21.79,2.73-34.15,2.55-12.36-.18-37.3.76-46.38.51-3.57-.1-9.2-.78-15.09-.93-9.12-.22-18.88.13-22.63.42-3.04.23-8.57.6-15.03,1.43-6.64.85-14.27,2.16-21.16,2.14-13.6-.04-41.45-.55-52.5-1.02-11.05-.47-14.44-1.2-25.49-1.02-11.05.18-25.29-.4-35.68-1.02-6.59-.39-13.38-1.51-19.97-1.97-3.8-.27-7.54.03-11.13-.06-9.81-.25-17.28.04-19.88,1.02-2.6.98-13.2,1.78-20.39,1.53-7.19-.25-17.93,1.05-27.02,1.53-9.08.47-33.66-1.2-43.84-1.02-10.18.18-20.7,3.46-31.6,3.57-5.73.06-13.26-.53-20.26-.87-6.32-.31-12.21-.33-15.93-1.17-4.02-.91-9.88-1.91-17.86-2.11-7.59-.19-17.14.38-27,.58-20.23.4-41.23-.47-50.46-1.02-9.23-.55-20.62-1.35-26-3.06-5.37-1.71-12.54-.18-18.86.51s-15.89.69-24.98.51c-9.08-.18-14.29-1.35-22.94-2.55s-10.58-2.8-16.82-3.06c-6.24-.25-11.21-3.06-11.21-3.06,0,0-.89.47-4.08,3.57-3.19,3.1-5.26,6.66-5.1,12.23.16,5.57,4.08,8.66,4.08,8.66ZM735.7,237.14c-.35-1.47-.27-3.39,0-4.59.64-2.85,1.29-4.96,1.53-6.12.15-.71,0-1.02,0-1.02,0,0-1.33.87-3.57,1.53-2.2.65-3.5,1.54-5.61,2.04-1.8.42-2.55,1.02-2.55,1.02,0,0-.85.09-3.06.51-1.83.34-4.59.51-4.59.51,0,0-.78-.16-1.02,1.02-.27,1.36,0,2.55,0,2.55,0,0-.46.37-1.02.51-.44.11-1.02,0-1.02,0v-3.06s-.58-.58-1.02-1.02c-.57-.57-1.02-1.02-1.02-1.02l-1.02,1.53s.14,1.09,0,2.04c-.12.83-.51,1.53-.51,1.53h-1.53s.14-.69,0-1.53c-.11-.67-.51-2.55-.51-2.55l-1.53-2.04s-2.06-.18-6.12-.51c-4.25-.34-10.02-.75-14.15-.81-3.29-.05-7.86-.32-10.31-.21-10.38.48-12.74,1.02-12.74,1.02l-6.63,2.55-6.63.51s-3.98-.13-7.65-.51c-2.99-.31-2.74.34-5.1,0-1.07-.15-3.06-1.02-3.06-1.02h-4.59l-2.55.51s-1.3.5-2.04,1.02c-.55.39-.47.77-1.02,1.02-1.56.69-2.71,1.84-4.59,2.55-2.79,1.04-4.08,1.02-4.08,1.02,0,0-1.42.9-2.55,1.53-1.16.65-2.04,1.02-2.04,1.02,0,0-1.36.24-3.06,0-1.86-.27-3.57-.51-3.57-.51,0,0-1.78-.57-3.57-1.53-1.51-.81-3.57-2.55-3.57-2.55h-5.61s-1.88-.76-4.08-2.55c-1.38-1.12-2.91-3.15-4.08-4.08-1.43-1.14-2.04-1.53-2.04-1.53,0,0-4.64-1.07-13.25-1.53-6.53-.35-12.03-.26-19.88,0-4.05.13-10.99.2-14.27.51-3.54.33-5.7.15-9.17.51-6.06.63-7.87,1.4-12.74,2.04-6.57.87-15.29,1.53-15.29,1.53,0,0-21.02,2.18-37.21,1.53-3.57-.14-7.7-.29-9.81-.39-2.31-.11-4.48-.03-7.01-.12-2.29-.08-4.27.58-6.63.51-2.2-.07-1.4-.42-3.57-.51-2.89-.12-5.28.11-8.16,0-2.48-.09-2.58.17-4.59,0-2.67-.23-7.08-.89-9.17-1.02-.88-.05-1.73,0-2.55,0-1.67,0-3.06,0-3.06,0,0,0-.97-.4-1.53-.51-.7-.14-1.02,0-1.02,0,0,0-1.98.96-3.57,1.53-.92.33-1.4-.17-2.04,0-.71.19-1.53,1.02-1.53,1.02,0,0-1.75.55-2.55,1.53-.62.76-.29,1.8-.51,2.04-.19.21-.52.01-1.02,0-.37-.01-.94.23-1.02,0-.08-.24-.09-.63-.51-1.02-.55-.52-1.53-1.02-1.53-1.02,0,0,.05.91-.36,1.74-.34.69-.15,1.31-.15,1.31,0,0-.46.51-1.02.51-.45,0-1.02-.51-1.02-.51v-2.55s-.66-.42-1.02-1.02c-.4-.67-.51-1.53-.51-1.53h-1.02l-2.04,1.53-1.02,4.08-1.53.51s.38-3.32,0-5.1c-.38-1.79-.51-2.04-.51-2.04,0,0-2.27-.6-6.12,0-1.54.24-4.29,1.2-6.12,1.53-2.67.48-8.67.51-8.67.51,0,0-2,.99-4.08,1.53-3.43.9-7.65,1.53-7.65,1.53,0,0-1.91-.22-5.1-1.02-2.45-.61-4.76-1.03-6.63-1.53-1.7-.45-3.06-1.02-3.06-1.02,0,0-.91-.19-2.04,0-1.78.3-2.04.51-2.04.51,0,0-.64.16-1.53,0-.67-.12-1.53-.6-2.04-.51-1.57.28-2.04,1.53-2.04,1.53l-.51,4.08-1.53-.51s-.03-1.74-.51-3.06c-.54-1.47-1.02-2.55-1.02-2.55,0,0-6.46-.05-15.29-.51-7.29-.38-16.11-1.13-25.01-1.61-6.54-.35-14.11-.23-20.35-.43-18.98-.61-33.64-1.02-33.64-1.02,0,0-9.97-1.44-22.43-1.53-21.27-.15-48.42,1.53-48.42,1.53h-29.56l-.51,6.12-2.04-.51-.51-4.59s-.71-.27-1.53,0c-.7.23-1.53,1.02-1.53,1.02l-.51,2.04s-.27.2-1.02,0c-.53-.15-.42-.6-1.02-1.02-.44-.3-.16-.56-.51-1.02-.5-.67-1.53-1.02-1.53-1.02l-.51,2.55s-.4.16-.51,1.02c-.14,1.14,0,3.06,0,3.06v1.02l-2.04-.51s-.43-3.79-1.53-6.12c-.93-1.98-1.02-2.55-1.02-2.55,0,0-.14-.29-2.55-.51-2.74-.25-5.3.37-9.68,0-4.1-.35-3.95-.53-8.16-1.02-1.84-.21-3.57-1.02-3.57-1.02h-8.67s-2.31-.5-6.63-1.02c-4.04-.49-9.96-.99-13.76-1.53-2.88-.41-4.52-1.18-6.63-1.53-5.04-.83-8.67-1.02-8.67-1.02,0,0-6.29-1.99-12.23-4.08-2.11-.74-5.37-2.1-6.63-2.55-.32-.12-1.24-.52-2.04-1.02-.59-.37-1.04-.86-1.53-1.02-.47-.16-1.02.51-1.02.51,0,0-.9.04-2.55-.51-2.11-.7-4.59-2.04-4.59-2.04,0,0-.69,1.18-1.53,3.57-.77,2.21-1.68,5.54-1.91,7.38-.5,4.07-.66,11.92-.64,12.49.02.58-.32,1.77,0,3.06.17.67.71,3.37,1.02,5.1.29,1.61.35,2.27.51,2.55.24.43,3.54.37,7.65,1.53,1.45.41,3.07,1.44,4.59,2.04,1.99.79,6,.08,8.67,0,2.9-.09,5.16-.21,8.67-.51,2.73-.23,6.7-.6,9.18-1.02,6.31-1.08,11.29-2.33,18.86-3.06,2.72-.26,8.06-.39,10.7-.51,3.62-.16,10.02-.12,16.82,0,5.34.1,12.14.39,17.84.51,6.13.12,10.93.11,10.84.04-.21-.02-.42-.04-.64-.04.43.02.63.03.64.04,2.57.19,4.38.9,5.98.98,6.51.32,14.64-.31,24.98-1.02,5.36-.37,12.12-.9,17.84-1.02,3.39-.07,6.54.17,11.21,0,2.6-.09,5.67-.73,8.67-1.02,5.25-.5,10.66-.76,15.8-1.02,9.49-.48,10.87.02,16.82,0,2,0,14.46.04,15.8,0,5.85-.18,15.62.22,26,1.02,8.99.69,20.96,1.26,29.05,1.53,8.1.27,14.25.65,23.45,1.02,18.03.73,54.83.4,51.99.51,18.22-.73,32.51-1.93,43.84-2.04,4.51-.04,16.25-.6,22.94-.51,10.33.15,14.45.78,21.92,1.02,2.89.09,11.23.05,13.25,0,4.6-.1,13.52.03,22.94-.51,12.33-.7,25.49-2.17,30.58-3.06,4.38-.76,14.36-1.2,24.47-1.02,6.52.12,16.09.37,24.98,1.53,10.81,1.41,20.6,3.78,22.43,4.08,9.72,1.55,15.49,2.04,23.96,2.04,1.11,0,24.1.24,34.66-.51,11.33-.8,18.17-1.61,27.01-2.55,4.59-.49,13.86-1.38,15.8-1.53,4.44-.34,10.13-1.13,15.8-1.02,3.31.06,5.16.47,8.16,1.02,1.67.31,4.69.66,6.12,1.02,3.06.77,4.14.97,6.12,1.53,3.43.97,7.14,2.04,7.14,2.04,0,0-.51-.95-1.53-2.55-.7-1.1-1.63-2.36-2.04-4.08Z" style="fill: #fff; fill-rule: evenodd;"/>
    </g>
  </g>
</svg>