<?xml version="1.0" encoding="UTF-8"?>
<svg id="Camada_2" data-name="Camada 2" xmlns="http://www.w3.org/2000/svg" viewBox="0 0 784.65 307.32">
  <g id="Camada_1-2" data-name="Camada 1">
    <g id="Spells">
      <path d="M519.31,302.53c-4.94.8-14.61.53-17.83,0-3.21-.53-11.2-1.02-11.2-1.02.28,1.87-2.53,2.49-6.11,2.55-3.58.05-8.72-.05-13.24-1.02-4.52-.96-6.97.22-13.24,0-6.2-.21-13.88,1.29-21.46,1.15-5.07-.09-11.12,1.7-17.75,1.39-3.48-.16-7.1-1.42-11.2-1.53-3.72-.09-10,.45-12.73.51-5.76.13-14.97.75-20.88,1.53-5.91.78-13.23-.42-18.84-1.53-5.62-1.11-13.81-.64-18.84-.51-5.03.13-17.01-.42-23.94-.51-4.15-.05-14.03.13-20.37,0-4.24-.09-5.48-.5-7.64-.51-5.4-.02-12.35.82-16.3.51s-6.39-1-9.68,0c-1.65.5-3.6.81-6.11.51-2.5-.3-5.56-1.2-6.14-.74-.11.09-2.84,1.12-6.6.74-3.8-.38-3.76-2.21-7.13-1.53-3.5.71-6.61,2.13-11.2,2.55-4.6.42-9.37.09-15.28.51-5.91.42-16.81.51-16.81.51l-9.32-.65s-4.52,1.04-8.51.65c-2.79-.27-8.34-.04-12.22,0-5,.05-9.64.44-15.28,1.02-6.76.69-16.87-.4-23.94-2.04-7.07-1.64-17.97-.74-26.48-.51-5.03.14-15.41-1.39-21.39-2.04-4.14-.45-12.54-.64-14.77-.51-5.46.32-13.89-.57-19.86-.51-2.69.03-7.57.15-11.71,0-5.03-.18-9.32-.64-11.71-.51-2.67.14-6.94.83-9.68,0-1.73-.52-2.45-1.94-3.06-3.56-1.55-4.18-.65-6.94,0-11.2s.79-9.65.51-21.9c-.15-6.35-.29-15.62,0-22.41.27-6.31.95-10.22,1.02-13.75.14-7.32.45-8.21,0-12.73-.45-4.52-.65-10.76-.51-19.35.14-8.6-.82-13.3.51-14.77,1.33-1.47.52-7.17,0-8.66-1.04-2.99.11-8.13,0-12.22-.11-4.1.37-9.91,1.02-14.77.27-1.98-.28-6.1-.51-8.66-.34-3.71-.49-5.99-.51-9.17-.03-5.37.37-26.97.51-32.08s1.21-5.92,1.02-11.71c-.2-5.8-1.82-7.49-2.04-14.77-.22-7.37-.09-18.66-.7-24.53-.27-2.56-.14-3.26.19-7.04.36-4.14.94-11.36,1.02-14.26.14-5.54,0-12.22,0-12.22l-1.02-1.53s-.57-1.05,0-2.04c.52-.89,2.13-1.71,3.06-2.04,2.69-.96,5.88.45,11.2.51s9.11,1.72,12.73,1.02c3.62-.7,6.99-1.93,12.22-1.53,5.24.4,17.17.62,22.41,0,5.24-.62,7.92-1.25,15.79-.51,2.45.23,6.34.49,8.15.51,3.99.04,5.04-.39,9.17,0,2.5.24,6.44.42,9.17.51,3.81.13,6.36.11,9.17,0,4.82-.19,5.36-.74,16.42-1.49,5.17-.35,8.48-.01,11.59-.04,3.11-.02,5.03.62,5.6,2.04.34.86,14.33.72,14.77,0,.42-.69,4.75-.97,7.64-1.02,4.9-.08,9.4-.42,14.94.55,3.06.54,6.71-.95,10.02-1.06,5.93-.21,11.2.46,13.24,0,3.17-.71,14.27-3.11,19.35-3.06,1.75.02,4.79.34,7.64,1.02,3.46.83,6.62,2.04,6.62,2.04,0,0,6.78-.43,8.15-.51,5.72-.33,12.61-.56,18.84,0,3.46.31,14.64-.54,20.88-1.02,5-.38,10.75-.87,13.75-1.02,4.45-.22,14.84,1.7,16.81,1.02,1.2-.42,2.01-.6,4.58-.51,4.39.15,5.9.51,8.15.51,2.25,0,8.79-.34,10.7-.51,3.81-.33,8.11-.15,12.57-.06,1.08.02,4.26,0,7.29.06,2.32.04,4.44.33,6.11-.51,3.85-1.94,9.99.83,15.28.51,5.29-.32,13.64-.44,21.39-1.02,4.2-.31,8.49.42,13.24,0,4.01-.36,8.48-1.89,12.22-2.04,3.65-.14,7.28,1.02,11.2,1.53,4.87.63,10.05.64,14.77.51,2.54-.07,7.5.52,11.2.51,8.71-.02,18.77-.01,25.46,0,9.54.02,27.64-.19,33.1-.51,2.15-.13,8.11.49,13.75.51,8.7.04,19.35-.51,19.35-.51l16.3,1.53s3.94-.41,6.11-.51c3.87-.19,6.4.02,10.69,0,4.3-.02,14.26,1.02,14.26,1.02l13.75-.51s5.65-.99,9.17-1.02c4.06-.03,6.19,1.36,9.17,1.53,1.53.09,4.8-.08,6.62-.51,2.2-.52,5.14-.06,9.17,0,5.75.09,12.94-.03,16.81,0,6.57.06,16.45.76,23.94-.51,2.76-.47,8,.04,11.2,0,5.48-.06,9.09-.3,13.75.51,7.38,1.28,10.43-.13,22.41-.51,5.81-.18,12.63-.21,17.82-.51,5.4-.31,9.12-.89,13.15-.43,3.41.39,5.79.47,7.22,1.45,1.52,1.04,1.05,2.19,1.02,3.06-.06,1.69-.51,5.09-.51,5.09,0,0,1.38.98,1.53,4.58-.08-1.91-.3.06-.51,6.11-.07,1.94-.44,4.58-.51,7.13-.12,4.54.08,9.29,0,12.73-.16,6.37.46,23.98.51,30.05.05,6.07.36,22.25,0,31.07-.36,8.82-.86,21.03-1.02,26.99-.16,5.97.06,10.64-1.02,16.3-.41,2.14.06,4.04,0,8.15-.03,2.29-.53,17.18-.51,18.84.02,2.11.76,7.18,1.02,10.69.23,3.21-.02,4.89,0,6.62.05,3.62-.27,15.1,0,16.81.35,2.22-.35,9.8,0,19.35s-.58,17.64-.53,22.39c.05,4.78.18,10.63.53,16.31s.16,13.46,0,21.9c-.08,4.53-.18,7.92-.51,9.68-.29,1.52-.75,1.67-1.53,2.04-.87.41-3.18.32-6.62.51-3.25.18-7.53.63-11.71,1.02-3.04.28-6.11-1.02-9.68-1.02-2.91,0-5.36.78-8.15,1.02-3.45.29-7.11.04-9.17,0-3.97-.08-13.89-.85-21.9-.51-3.6.15-8.7,1.19-11.71,1.53-5.74.64-8.4.22-13.75-2.04-5.35-2.26-8.3.22-18.33,0-4.35-.1-12.15.45-20.37.51-10.75.08-22.22-.28-27.5,0-9.32.49-11.25,1.14-19.35,2.04-8.1.9-20.52.12-26.99-.51-2.3-.22-3.97.15-5.09-.51-2.03-1.2-5.09-1.53-5.09-1.53,0,0-3.26.22-8.15,1.02-4.89.8-8.15.51-8.15.51l-5.09.51s-3.33.79-8.15.51-13.24-.51-13.24-.51c0,0,1.89-.29-3.06.51Z" style="fill: #fff; fill-rule: evenodd;"/>
      <path d="M194.39,8.67c1.28,0,3.49-.14,4.58,0,4.48.58,6.6,2.28,10.19,1.53,2.16-.46,6.14-1.85,10.19-2.55,4.3-.74,8.69-.75,11.71-.51,5.87.46,7.5,2.98,13.24,3.06,2.44.03,5.42-.74,8.15-1.02,3.68-.38,7.11-.33,10.19-.51,2.83-.16,8.84.22,14.26,0,4.85-.2,9.09-1,12.22-1.02,6.63-.05,11.2-.46,13.75-.51.87-.02,3.09.31,4.07-.51,1.91-1.58,1.39-4.29-3.06-4.07-3,.15-8.75.64-13.75,1.02-6.24.48-17.42,1.33-20.88,1.02-6.23-.56-13.12-.33-18.84,0-1.37.08-8.15.51-8.15.51,0,0-3.17-1.21-6.62-2.04-2.85-.68-5.89-1-7.64-1.02-5.08-.05-16.18,2.34-19.35,3.06-2.04.46-7.31-.21-13.24,0-3.31.12-6.96,1.6-10.02,1.06-5.54-.98-10.03-.63-14.94-.55-2.89.04-7.22.33-7.64,1.02-.44.72-.43,2.06,1.02,2.55,2.27.75,6.92.46,10.19.51,3.24.05,8.32.31,12.73,0,2.87-.2,5.07-1,7.64-1.02ZM485.7,298.96c-1.13-.28-3.23-.57-5.09-.51-5.22.16-5.03,1-9.17,1.53-4.13.53-4.09-.02-11.71,0-2.45,0-7.46,0-10.69,0-6.82,0-14.51-.46-18.84,0-6.39.67-13.18.35-21.39,0-5.8-.24-11.76.22-19.86.51-3.36.12-9.27-.28-12.22,0-4.63.44-9.39.9-12.73.51-3.95-.46-9.35-1.85-12.73-2.04-3.12-.17-7.18.35-13.75.51-6.6.16-12.65-.05-19.35,0-13.37.09-32.24-.82-39.22-.51-6.97.31-16.02-.38-22.41.51-6.39.89-6.85-1.33-12.22,0-3.37.83-4.61,1.13-6.62,1.02-1.19-.06-3.21-.89-4.58-1.02-2.23-.21-5.02.72-9.17,1.02-2.73.2-5.19-.35-7.64,0-2.59.37-4.33,1.4-5.6,1.53-1.76.18-3.98-.22-6.62-.51-1.13-.12-2.37,0-6.26-.02-4.54-.02-9.22.05-10.03.52-1.51.89-2.63,3.69,1.02,4.07s10.9-.09,16.81-.51c5.91-.42,10.68-.09,15.28-.51,4.6-.42,7.71-1.84,11.2-2.55,3.37-.68,3.33,1.14,7.13,1.53,3.75.38,6.49-.66,6.6-.74.57-.46,3.63.45,6.14.74,2.51.3,4.46,0,6.11-.51,3.29-1,5.73-.31,9.68,0s10.9-.53,16.3-.51c2.16,0,3.4.42,7.64.51,6.34.13,16.22-.05,20.37,0,6.93.09,18.9.64,23.94.51,5.03-.13,13.23-.6,18.84.51,5.62,1.11,12.94,2.31,18.84,1.53,5.91-.78,15.12-1.4,20.88-1.53,2.74-.06,9.02-.6,12.73-.51,4.11.1,7.72,1.37,11.2,1.53,6.63.31,12.68-1.49,17.75-1.39,7.58.14,15.27-1.37,21.46-1.15,6.27.22,8.72-.96,13.24,0,4.52.96,9.66,1.07,13.24,1.02,3.58-.05,6.39-.67,6.11-2.55-.18-1.21-2.54-2.04-4.58-2.55ZM174.53,302.02c-1.7-.11-10.28-.42-12.73-.51-8.46-.32-17.7.55-25.46.51-4.85-.03-11.65-1.29-18.84-2.04-5.39-.56-10.96-.7-16.3-.51-5.97.21-12.13.57-17.82,0-6.18-.62-11.85-2.18-17.32-2.04-10.5.28-18.19-.45-25.97-.51-7.78-.06-12.16.74-17.32,0-5.15-.74-8.43-1.04-12.22-.51-3.79.53-5.6.51-5.6.51,0,0-.11-3.25.51-8.15.2-1.58.27-4.27.51-7.13.51-6.04.66-13.82.51-20.37-.23-9.65-.54-23.96-.51-33.1.03-9.14-.03-18.19.51-26.99.23-3.8,0-6.93,0-9.68-.01-3.6.13-6.43,0-8.15-.23-3.03-2.74-3.5-4.07-2.04-1.33,1.47-.37,6.17-.51,14.77-.14,8.6.06,14.83.51,19.35.45,4.52.14,5.41,0,12.73-.07,3.53-.75,7.45-1.02,13.75-.29,6.79-.15,16.06,0,22.41.28,12.25.14,17.63-.51,21.9s-1.55,7.02,0,11.2c.6,1.62,1.32,3.04,3.06,3.56,2.74.83,7.01.14,9.68,0,2.39-.13,6.68.33,11.71.51,4.14.15,9.02.03,11.71,0,5.97-.06,14.4.83,19.86.51,2.23-.13,10.63.06,14.77.51,5.98.65,16.36,2.17,21.39,2.04,8.51-.23,19.41-1.13,26.48.51,7.07,1.64,17.18,2.73,23.94,2.04,5.64-.58,10.27-.97,15.28-1.02,3.88-.04,9.43-.27,12.22,0,3.99.39,6.96.12,8.51-.65.93-.46,1.35-1.1,1.17-1.89-.34-1.49-1.95-1.25-6.11-1.53ZM515.24,298.96c-3,.43-13.24-.51-13.24-.51,0,0-3.72,3.55-.51,4.07,3.21.53,12.88.8,17.82,0s7.18-1.34,6.11-3.06c-1.07-1.71-7.18-.94-10.19-.51ZM1.37,37.7c-.33,3.78-.46,4.48-.19,7.04.61,5.88.48,17.16.7,24.53.22,7.28,1.84,8.97,2.04,14.77.2,5.8-.87,6.6-1.02,11.71-.14,5.12-.54,26.71-.51,32.08.02,3.18.17,5.46.51,9.17.23,2.56.78,6.67.51,8.66-.65,4.86-1.13,10.67-1.02,14.77.11,4.1-1.04,9.23,0,12.22.52,1.48.51,2.1,2.04,2.04,1.53-.06,1.85-1.43,2.04-4.07.37-5.24,1.08-18.36,2.04-24.95.5-3.44-.55-6.25-1.02-11.71-.44-5.03-.3-12.69,0-16.3.23-2.75.61-8.66.51-13.75-.07-3.85-.64-6.74-.51-10.19.17-4.45,1.31-7.11,1.53-9.17.29-2.64-1.43-6.41-2.04-11.2-.71-5.63-.34-12.42,0-16.81.36-4.67-.48-10-.51-15.28-.02-3.91.72-7.82,1.02-11.2.7-7.96.51-18.33.51-18.33,0,0,9.48-.36,12.73,0,3.25.36,5.15,1.5,9.17.51,1.5-.37,3.8-1.94,8.15-2.04,3.4-.08,6.91.34,11.2.51,4.94.19,10.59.13,12.73,0,3.15-.2,6.86-.94,10.69-1.02,3.96-.08,8.02.51,10.19,0,1.93-.45,5.73-1.31,10.19-1.02,5.39.35,17.75,1.38,21.39,1.02,6.65-.66,8.8-1.89,10.7-1.53,1.89.36,2.44,1.25,7.13,1.53,4.69.28,8.85-.05,11.18.06,2.63.13,3-.18,3.59-.57.95-.64,1.36-1.69,1.02-2.55-.57-1.42-2.49-2.06-5.6-2.04s-6.43-.32-11.59.04c-11.06.75-11.6,1.3-16.42,1.49-2.81.11-5.36.13-9.17,0-2.72-.09-6.67-.27-9.17-.51-4.13-.39-5.18.04-9.17,0-1.8-.02-5.7-.28-8.15-.51-7.87-.74-10.55-.11-15.79.51-5.24.62-17.17.4-22.41,0-5.24-.4-8.6.83-12.22,1.53-3.62.7-7.41-.96-12.73-1.02s-8.51-1.47-11.2-.51c-.93.33-2.54,1.14-3.06,2.04-.57.98,0,2.04,0,2.04l1.02,1.53s.14,6.68,0,12.22c-.08,2.9-.66,10.12-1.02,14.26ZM577.88,6.12c2.15,1.29,7.44,1.43,11.2.51,3.76-.92,7.78.58,11.71,0,2.23-.33,4.86.46,6.62,0,1.34-.35,1.77-1.87,1.02-2.55-.93-.85-9.96-1.03-14.26-1.02-4.3.02-6.82-.19-10.7,0-2.17.1-5-.18-6.11.51-.87.54-.44,1.98.51,2.55ZM783.12,11.73s.45-3.41.51-5.09c.03-.87.5-2.02-1.02-3.06-1.42-.97-3.81-1.06-7.22-1.45-4.04-.46-7.76.12-13.15.43-5.19.3-12.02.33-17.82.51-11.98.38-15.03,1.79-22.41.51-4.66-.81-8.27-.57-13.75-.51-3.2.04-8.44-.47-11.2,0-7.48,1.27-17.37.57-23.94.51-3.86-.03-11.06.09-16.81,0-4.03-.06-6.97-.52-9.17,0-1.82.43-5.09.6-6.62.51-2.97-.17-5.1-1.56-9.17-1.53-3.51.03-6.87.03-9.17,1.02-1.73.74-1.88,2.38.51,3.06,5.56,1.57,8.2-.25,12.73,1.02,1.87.52,3.25.52,5.09.51,2.61-.02,5.67-.75,8.15-1.02,1.76-.19,7.03-.58,11.71-.51,3.06.05,5.27.58,8.15.51,3.34-.09,6.12-1.1,7.64-1.02,1.58.08,4.98,1.15,9.17,1.53,3.36.3,7.19-.09,11.2,0,6.34.15,13.67-.7,16.3-.51,1.75.12,5.22.57,9.68.51,4.1-.05,9.1-.61,12.73-.51,6.82.19,9.7,1.05,14.26,1.02,4.12-.02,10.88-.81,16.3-1.02,7.24-.28,13.24.51,13.24.51,0,0,.45,9.73.51,14.26.03,2.52-1,5.31-1.02,10.7-.01,4.28.99,9.17,1.02,11.71.05,5.75.45,19.41,0,28.52-.16,3.16.48,6.62.51,12.73.03,5.07-.42,9.5-.51,14.77-.12,6.7.09,13.87,0,15.79-.25,5.24-.77,26.64-1.02,31.58-.14,2.77.53,3.77.51,6.62-.02,2.22-.69,6.04-1.02,9.68-.2,2.13.49,6.59.51,8.66.02,1.76-.51,4.3-.51,5.6.01,3.08.53,7.04.51,8.66-.05,3.1,0,5.09,0,5.09,0,0,.02,2.06.55,3.82.3,1,.77,1.9,1.49,2.29,1.99,1.06,2.08-3.51,2.04-7.13-.02-1.73.23-3.41,0-6.62-.25-3.52-.99-8.59-1.02-10.69-.02-1.66-.67-8.25-.51-13.24.08-2.54.98-3.32,1.02-5.6.06-4.11-.41-6.01,0-8.15,1.07-5.66.86-10.33,1.02-16.3s.66-18.17,1.02-26.99c.36-8.82.05-25,0-31.07-.05-6.07-.67-23.67-.51-30.05.08-3.44-.12-8.19,0-12.73.06-2.55.44-5.19.51-7.13.19-5.39.38-7.54.48-6.59-.25-3.21-1.5-4.1-1.5-4.1ZM782.08,249.55c-.05-4.75.89-12.84.53-22.39-.35-9.56.35-17.13,0-19.35-.27-1.71-2.26-2.54-3.37-.42-.34.64-.59,1.46-.7,2.46-.26,2.42-.01,7.15,0,14.77,0,5.91-.29,15.02,0,16.81.21,1.31.84,3.83,1.02,5.09.38,2.68.15,4.05-.51,6.62-.96,3.79-.56,12-.51,17.32.06,5.32,0,23.94,0,23.94,0,0-5.86.9-12.73,1.02-2.14.04-4.82.4-6.39.04-2.87-.67-6.71-.82-9.4-.04-2.47.72-3.03,1.18-7.13,1.53-2.4.21-9.94-.59-12.73-.51-7.58.22-12.38-1.34-20.88,0-4.66.74-6.4.92-8.66,1.02-1.87.08-4.08.31-8.66-1.02-3.25-.94-5.72-1.99-8.66-2.04-6.22-.09-13.51,1.35-19.35,1.02-4.19-.24-11.1.77-17.83.51-7.09-.27-14.52-.78-19.35-.51-9.42.53-18.9,2.43-28.52,2.55-4.63.06-11.86.22-17.32,0-5.88-.23-9.86-.84-11.2-.51-1.67.41-1.52,2.87.51,4.07,1.12.66,2.79.29,5.09.51,6.47.63,18.89,1.41,26.99.51,8.1-.9,10.03-1.55,19.35-2.04,5.28-.28,16.75.08,27.5,0,8.22-.06,16.02-.61,20.37-.51,10.04.22,12.98-2.26,18.33,0,5.35,2.26,8.01,2.68,13.75,2.04,3.01-.34,8.11-1.37,11.71-1.53,8.01-.34,17.93.43,21.9.51,2.06.04,5.72.29,9.17,0,2.78-.23,5.23-1.02,8.15-1.02,3.56,0,6.63,1.3,9.68,1.02,4.19-.39,8.46-.84,11.71-1.02,3.44-.19,5.76-.1,6.62-.51.78-.37,1.24-.52,1.53-2.04.33-1.76.43-5.15.51-9.68.16-8.44.35-16.21,0-21.9-.35-5.69-.48-11.53-.53-16.31ZM784.62,15.83c.01.16.02.31.03.48,0-.21-.02-.36-.03-.48ZM560.06,296.93c-3.82,1.14-7.9.39-10.7,1.53s-1.07,3.85,3.56,3.56c2.42-.15,5.87-1.05,8.15-1.53,2.09-.44,3.61-.44,4.07-1.02.97-1.2-1.28-3.69-5.09-2.55ZM543.25,297.94c-1.48-.25-3.16.11-5.09,0-1.86-.11-3.97-.71-5.09,0-1.24.78-1.57,1.71-1.53,2.55.03.72.42,1.66,2.02,1.86,3.81.48,8.42.06,10.21-.33,1.79-.39,2.39-3.58-.51-4.07ZM548.34,6.63c3.74-.33,6.44-.73,9.17-.51,2.76.22,4.03-.18,5.09-1.02,1.32-1.04-.06-3.09-1.53-3.06-1.61.04-10.65.54-19.35.51-5.64-.02-11.6-.64-13.75-.51-5.46.32-23.57.52-33.1.51-6.69-.01-16.76-.02-25.46,0-3.7,0-8.66-.58-11.2-.51-4.72.13-9.9.12-14.77-.51-3.92-.51-7.56-1.67-11.2-1.53-3.74.15-8.21,1.68-12.22,2.04-4.75.42-9.04-.31-13.24,0-7.75.58-16.1.69-21.39,1.02-5.29.32-11.43-2.45-15.28-.51-3.85,1.94-2.77,3.92,2.55,4.07,1.2.03,2.7-.48,3.57-.51,2.95-.11,3.57,0,3.57,0h4.07s3.07-.62,7.13-.51c4.02.11,10.01.94,14.26,1.02,8.54.15,11.15,1.37,16.3.51,1.95-.33,5.95-1.55,10.69-1.53,3,.01,6.45.74,9.68,1.02,5.11.43,9.89.48,13.24.51,2.84.02,7.94-.11,14.26,0,4.98.08,10.39-.62,15.28-.51,8.13.19,15.08,1.13,18.33.51,3.14-.6,7.25-.94,12.73-1.02,3.34-.05,7.17.88,10.19,1.02,4.15.19,7.2-.39,9.17-.51,3.2-.2,8.51.41,13.24,0ZM320.69,6.63c.71.4.79.35,2.55.51,7.65.71,18.33-.71,24.96-.51,1.07.03,3.76-.1,5.09,0,1.92.14,2.52.51,4.07.51,1.28,0,2.44-.4,2.55-1.53.18-1.85-1.3-2.57-3.22-2.61-4.46-.09-8.76-.27-12.57.06-1.91.17-8.45.51-10.69.51-2.25,0-3.76-.36-8.15-.51-2.57-.09-3.38.09-4.58.51-1.96.68-1.47,2.22,0,3.06Z" style="fill-rule: evenodd;"/>
    </g>
  </g>
</svg>