<?xml version="1.0" encoding="UTF-8"?>
<svg id="Camada_2" data-name="Camada 2" xmlns="http://www.w3.org/2000/svg" viewBox="0 0 6.04 219.04">
  <g id="Camada_1-2" data-name="Camada 1">
    <g id="svg_bg_weapon_line1">
      <path d="M3.58,10.24c.49,1.15,1.6.94,1.61-.52.01-1.46-.11-5.01-.03-6.63S4.8-.31,3.53.05c-1.07.3-1.55,3.25-1.05,5.61.5,2.36.6,3.43,1.1,4.58ZM5.51,74.97c.49-6.4.45-13.52.45-18.35,0-4.84.25-14.92-.1-20.39-.34-5.47-.64-10.74-.61-15.29.02-2.28,0-3.41-.56-4.08-.56-.66-1.66-.86-2.15-.5-.99.71-.83,4.97-.5,8.16.34,3.19.8,8.66,1.14,13.76.35,5.1-.04,17.32.1,20.9.14,3.57.16,15.51-.44,19.88-.6,4.37-.41,9.9.06,12.74s.8,3.3.03,6.12c-.77,2.81-1.87,6.82-1.56,10.2.3,3.38.65,5.63.04,8.67s-.07,10.76-.46,15.8c-.39,5.04-.29,12.61-.45,17.33s.44,11.2.08,16.82-.79,13.5-.45,17.84c.34,4.34,1.16,8.14.6,12.23-.57,4.09-.77,5.44-.49,9.69.27,4.24.05,7,.05,9.68,0,2.68,2.09,4.57,2.15.5.07-4.07-.46-7.27-.05-9.68.41-2.42.55-6.86.48-12.24-.07-5.38.13-10.58-.07-14.78-.2-4.2-.44-9.69-.07-14.78.36-5.09.37-10.01.46-15.29.09-5.28.74-9.25.46-15.8-.28-6.55.06-10.78.47-14.78.4-4.01.28-8.51.48-12.24.2-3.72.29-4.88,1.04-7.65.74-2.77.19-4.5-.04-9.17-.24-4.67-.57-8.89-.07-15.29Z" style="fill-rule: evenodd;"/>
    </g>
  </g>
</svg>