<?xml version="1.0" encoding="UTF-8"?>
<svg id="Camada_2" data-name="Camada 2" xmlns="http://www.w3.org/2000/svg" xmlns:xlink="http://www.w3.org/1999/xlink" viewBox="0 0 43.58 30">
  <defs>
    <clipPath id="clippath">
      <rect width="43.58" height="30" style="fill: none;"/>
    </clipPath>
  </defs>
  <g id="Camada_1-2" data-name="Camada 1">
    <g id="svg_bde_wealth_bt">
      <g style="clip-path: url(#clippath);">
        <g id="Wealth">
          <path d="M851.99,10.02s-1.8-5.85-11.72-8.15c-2.61-.61-5.26-1.13-7.91-1.47-7.43-.95-14.89-.41-21.65,4.02l-1.02,1.02s.89,5.11,1.55,10.13h-1.55s-7.94.69-14.78.57c-3.1-.06-6.82-.14-11.21,0-2.91.09-6.59.02-11.21,0-3.8-.02-8.58.03-11.21,0-5.82-.07-10.14-.78-14.27-1.53-3.45-.63-6.5-1.23-12.74-2.04-6.32-.82-8.92-.9-12.23-1.02-3.88-.14-6.81-.18-13.25.51-3.42.37-6.99.31-9.68.51-6.72.51-8.49-.24-13.25.51-3.04.48-2.5.51-3.57.51-.82,0-3.57,0-3.57,0l-3.06-1.02-.51.51s.22.63-.51,1.02c-.43.23-2.4,1.17-3.57,1.53-.83.26-1.02,0-1.02,0,0,0-1.47-1.37-2.55-2.04-1.09-.67-1.8-1.15-2.55-1.02-1.49.26-2.55,1.53-2.55,1.53,0,0-.67.12-2.04,0s-2.04,1.02-2.04,1.02c0,0-.98.65-1.53.51-.67-.18-.98-1.19-1.53-1.53-.94-.59-.84-1.5-2.04-2.04-.71-.32-2.41-.4-3.57-.51-1.84-.18-4.32.31-10.7.51-5.11.16-10.73.71-17.33,1.02-8.44.39-17.92.6-23.96,1.53-10.48,1.6-20.38,3.33-31.6,4.08-6.62.44-14,.61-21.41,0-5.59-.46-17.19-1.38-24.47-2.04-9.9-.9-19.98-1.29-28.54-2.04-7.63-.67-10.35-1.23-16.31-1.53-3.7-.19-6.65-.81-12.23-.51-2.6.14-5.74-.09-9.17.51-4.86.85-10.17,2.63-14.27,3.06-3.69.39-9.19.07-13.25,1.02-1.81.42-2.61,2.31-4.08,2.55-1.34.22-1.46-1.43-2.55-1.02-1.16.44-2.3,2.09-3.06,3.06-1.06,1.36-1.53,1.53-1.53,1.53,0,0,.03-2.25-1.02-3.57-.98-1.23-3.06-1.53-3.06-1.53,0,0-7.65,2.12-18.86,2.04-11.57-.09-26.88-2.38-39.25-2.55-9.01-.12-16.61.48-20.9,0-15.89-1.78-15.8-1.53-15.8-1.53l-13.25-.51s-6.2,1.82-13.76,2.04c-9.95.28-21.92-1.02-21.92-1.02,0,0-14.91-2.79-23.45-3.06-8.54-.27-15.01-.24-26-1.02-10.98-.78-17.84-1.02-17.84-1.02,0,0-.54,1.19-1.53,2.04-.99.85-1.02,1.02-1.02,1.02l-1.53,1.02h-.51s-.13-1.47-2.55-1.53c-2.42-.06-2.55,0-2.55,0,0,0-1.66-2.08-4.08-1.02s-3.57,2.55-3.57,2.55l-3.06-1.02-1.02-.51s.18-1.47-1.53-1.53c-1.71-.06-4.59,1.02-4.59,1.02,0,0-.44-.14-4.59-.51-4.15-.37-7.88-1.06-14.27-.51-6.39.55-6.63.51-6.63.51,0,0,.38-1.47-8.67-1.53-9.05-.06-18.99-.24-28.54,2.04-9.55,2.28-25.82,2.31-39.25,2.55-5.88.11-14.12.44-22.43,0-.43-.02-1.72-.31-6.01-.44.84-2.51,1.42-4.14,1.42-4.14-4.08-5.61-12.06-7.33-19.88-7.14-7.82.2-14.22,3.12-17.84,7.14-3.62,4.02-.84,9.49,1.02,19.37s1.96,26.94.51,33.64-5.05,15.09-6.63,22.94c-1.58,7.84-1.35,16.62,7.14,23.45,8.49,6.82,26,3.06,26,3.06v-.17l7.14-.1s2.51-.75,7.14-1.77c2.4-.53,6.16-1.5,8.61-2,2.28-.46,4.23.06,7.19-.55,6.15-1.27,6.34-1.91,12.23-2.04,5.9-.12,9.65-1.28,14.27-1.02,4.62.26,9.39,1.53,16.31,2.55,6.92,1.02,19.33.89,31.6,0,12.27-.89,23.41-3.06,31.09-2.55s10.8,1.4,16.82,1.53c6.02.13,5.19-.39,9.17-1.02,3.99-.63,5.61-.51,5.61-.51l3.06-1.53.51-.51,1.53,1.02.51,1.02,4.59,1.53s9.39,2.04,13.76,1.53,11.56.25,18.35.51c6.79.26,9.39.12,16.31,1.02,3.22.42,7.06,1.45,10.73,1.89,4.21.51,8.34.39,13.74.39,10.1,0,22.39.26,37.72-.75,15.33-1.02,35.77-2.3,51.48-3.06s32.84-2.04,53.01-1.53,33.35,1.78,43.84,3.57,29.66,2.8,49.44,2.04c19.79-.76,35.9-3.44,50.97-4.08,15.07-.63,26.98-1.91,39.25-3.06,12.27-1.14,20.35.63,31.6,1.02,11.25.39,16.31-1.53,16.31-1.53l.51.51,1.02-.51,1.02-4.59s1.49,2.16,4.59,1.02,4.59-1.53,4.59-1.53l3.57-1.02s.55.3,1.51.58c.81.23,2.06.44,2.06.44,0,0,2.51,4.2,7.65,4.08s15.26-.64,20.39.51c5.13,1.15,9.39,2.8,13.25,1.02,3.86-1.78,4.17-4.97,4.59-4.59s1.37,1.91,3.06,1.53c1.69-.38,4.08-.51,4.08-.51,0,0,1.34-.11,2.69-.56.77-.26,1.89-.97,1.89-.97,0,0,1.88,2.67,5.1,3.06,3.22.39,5.1-2.04,5.1-2.04,0,0,1.62,2.93,7.65,3.57,6.02.64,12.74,1.02,12.74,1.02h4.08s5.44-.13,11.72.51c3.34.34,7.23,1.55,10.62,2.13,2.98.51,5.69.42,5.69.42,0,0,2.26,1.02,7.65,2.04,5.39,1.02,6.12,1.02,6.12,1.02v.51s7.78,2,18.86,1.53c11.08-.47,14.51-3.1,17.33-10.19,2.82-7.09,1.36-13.19,1.02-20.39s-.58-22.47.51-29.05c1.09-6.58.54-12.28,1.02-17.33.47-5.05.51-5.1.51-5.1,0,0,.95-1.57,1.53-6.63.58-5.05.51-16.31.51-16.31Z" style="fill-rule: evenodd;"/>
          <path d="M25.96,92.88c-4.89-2.1-12.82-.83-18.35,3.57-5.53,4.4,1.58,13.05,10.7,14.27,9.12,1.22,16.31-.51,16.31-.51v-16.31l-3.06,1.02s-.71.06-5.61-2.04ZM29.53,8.79c-3.77-1.22-10.37.58-16.31,2.55-5.94,1.97-6.29,5.68-5.1,8.66,1.2,2.99,3.26,11.79,3.57,21.92.31,10.12,0,19.88,0,19.88,0,0-1.71,5.17-3.57,12.23-1.86,7.07-4.46,17.84-4.59,21.41,0,0,3-2.14,5.65-4.07,2.25-1.65,7.91-3.15,11.68-3.06,8.21.19,11.21,3.06,11.21,3.06l-1.02-13.76s-1.58-3.75-4.08-5.1c-2.5-1.34-2.55-1.53-2.55-1.53l-.51-1.02,1.53-1.02,5.61,1.02s.59-6.68.51-13.25c-.08-6.57.51-12.74.51-12.74,0,0,1.99-10.76,4.08-19.88,2.09-9.12,1.53-12.23,1.53-12.23,0,0-4.38-1.84-8.16-3.06ZM836.92,96.45c-2.62-.42-5.61.51-5.61.51l-1.53-1.53s-.44.75-1.53.51c-1.09-.24-1.53-.51-1.53-.51,0,0-1.01,1.83-1.02,2.04,0,.21-.51,1.02-.51,1.02,0,0,.07-.72-3.57-.51-3.64.21-5.48.96-11.21,1.02v11.21s13.84,2.91,21.41,1.02c7.57-1.89,12.23-9.17,12.23-9.17,0,0,.14-1.42-.51-2.55-.36-.62-3.39-2.55-6.63-3.06ZM848.64,26.62l.51-14.78s-2.67-4.1-10.19-5.61c-3.83-.77-9.96-2.15-15.06-1.82-4.93.32-10.94,2.33-10.94,2.33,0,0,2.56,15.59,3.06,21.92.5,6.33,1.02,11.21,1.02,11.21,0,0,4.41-.21,6.12.51,1.71.72,1.54.17,2.04.51.5.34,2.04.51,2.04.51l2.55.51-.51,1.02s-3.88-.02-5.61,1.02-3.06,1.53-3.06,1.53l2.55,1.02.51.51,3.06.51h1.53v1.02s.97.36-1.53,1.02c-2.49.65-5.1,1.02-5.1,1.02,0,0,.07,1.77-1.02,3.06s-2.55,1.53-2.55,1.53c0,0,.02,12.2-1.02,18.86-1.22,7.79-2.03,8.84-2.55,12.74-.52,3.9-1.15,6.05-2.04,9.17h.51l.51.51s3-.4,6.63-.51c3.62-.11,3.57-.51,3.57-.51,0,0,.14-6.71,1.02-9.17.88-2.47,1.47-2.57,1.53-3.06.05-.49,1.02-2.04,1.02-2.04l.51.51,1.02,4.59-.51.51-.51,2.04.51,5.61,3.06-1.53.51,1.02s3.07-.27,6.63.51,6.63,3.06,6.63,3.06c0,0,.28-5.47,0-11.72-.39-8.65-.22-16.17,0-23.96.25-8.52,1.02-13.25,1.02-13.25,0,0-.69-9.51,1.02-15.8,1.71-6.29,1.53-6.12,1.53-6.12Z" style="fill: #fff; fill-rule: evenodd;"/>
          <path d="M20.64,68.63c-.9.4-.69,1.85,1.02,2.04,1.71.19,1.02-2.93-1.02-2.04ZM24.21,74.24s.46,1.85,2.04,2.55c1.58.7,2.5-.19,1.53-1.53-.97-1.34-2.8-2.68-3.57-1.02ZM817.84,46.21c-.17-.65-1.02-1.53-1.02-1.53,0,0,.17.25,1.53-1.02,1.36-1.27,4.08-1.53,4.08-1.53h-6.63l-1.53-.51s.07-.06,0-3.57c-.07-3.51-1.97-12.5-2.55-18.35-.02-.17-.04-.34-.05-.51h-1.48s-6.73.7-17.33.51c-10.6-.19-23.98,1.97-34.66.51-10.68-1.46-18.8-3.98-29.56-4.59s-18.86-.51-18.86-.51c0,0-7.07,1.04-16.82,1.53-9.75.49-14.78.51-14.78.51,0,0-.11,2.48-1.53,2.55-1.42.07-1.53-2.55-1.53-2.55,0,0,.15.95-2.04,1.53-2.19.58-2.55.51-2.55.51,0,0-.53,2.14-1.53,2.55-1,.41-1.02.51-1.02.51,0,0,.3-2.09-.51-3.57-.72-1.32-2.55-2.04-2.55-2.04,0,0-.62.7-2.55,1.02-1.93.32-2.55.51-2.55.51l-1.02,1.53s-.24,2.57-.51,3.57c-.45,1.64-.51,2.55-.51,2.55h-.51s-1.55-2.96-1.53-4.59c.02-1.63-.51-1.53-.51-1.53l-2.55-3.06v-1.53s-6.48-.24-18.35,1.02c-11.87,1.26-22.03.36-35.17,2.04-13.14,1.68-35.79,4.6-51.48,4.08-15.69-.53-46.15-3.89-60.66-4.59-14.5-.7-22.96-3.21-34.15-.51-11.19,2.7-11.21,2.55-11.21,2.55,0,0-9.62-.15-10.7.51-1.08.66-1.04.02-1.02.51.02.49,1.02,1.53,1.02,1.53,0,0,1.17,1.04-.51,1.02s-2.04,0-2.04,0c0,0-.4-.4-.85-.85-.56-.56-1.19-1.19-1.19-1.19,0,0-1.47.92-2.65,1.66-.78.49-1.43.89-1.43.89,0,0,1,3.76-.51,4.08-1.51.32-2.04-4.59-2.04-4.59l-1.02.51s-1,1.64-2.04,2.55c-1,.88-2.04,1.02-2.04,1.02,0,0,.24,1.57,0,2.55-.26,1.06-1.02,1.53-1.02,1.53,0,0-.07-.13-1.02-2.04s-.51-5.1-.51-5.1v-1.02l-1.02-1.53s-4.36,1.2-13.25,1.53c-8.9.33-14.35-.23-21.41-1.02-7.06-.79-15.67-.02-23.96-.51-8.29-.49-21.58-.84-26-1.53-4.41-.69-7.92-.74-13.76-.51-3.81.15-6.96.09-9.51.33-1.36.12-1.82.33-3.74.69-2.45.46-5.98.32-9.24.49-4.1.22-8.06.63-12.17.02-7.37-1.1-28.41-3.69-33.64-4.08-5.23-.38-11.19.18-18.35-.51-3.34-.32-10.24-1.07-15.56-1.24-6.09-.19-10.44.22-10.44.22l-1.02,3.06s-1.2,1.1-2.04,2.55c-.84,1.45-2.04,4.59-2.04,4.59,0,0-1.81-1.25-1.02-3.57s-.51-3.57-.51-3.57l-1.02-.51s-1.09-.12-2.55-.51c-1.46-.38-2.04-1.02-2.04-1.02,0,0-1.3.89-2.04,2.55-.74,1.65-1.02,2.55-1.02,2.55l-.5,1s-.07-.15-.52-.49c-.64-.49-1.02-2.55-1.02-2.55,0,0-.99-.23-2.55-1.02-1.56-.79-2.55-2.04-2.55-2.04l-.51,3.06-.51.51s-.48.38-1.53-.51c-1.05-.89,0-3.06,0-3.06,0,0-2.01,1.3-4.08,1.02-2.07-.28-4.66-.84-8.67-.51-4,.33-8.64-.23-12.74-.51-4.11-.28-6.19-1.04-11.21-1.53-5.02-.49-12.92-.02-20.9.96-7.98.98-11.39,3.81-24.98,4.14-6.3.15-12.33-.48-18.32-.65-6.94-.19-13.64.07-17.87.14-7.88.13-13.76-.51-13.76-.51h-1.56c-1.76,5.38-3.97,12.46-5.07,17.33-1.99,8.85-2.34,14.47-2.55,22.43-.2,7.96,0,12.74,0,12.74l-.51,1.02-3.06-.51,3.57,4.08s.46,9.63.51,13.76,0,3.57,0,3.57v.17l.51-.17v16.31h7.65s3.15-1.82,6.12-2.04c2.96-.22,7.84-1.72,11.72-2.55s15.8-2.23,21.41-3.06c5.61-.83,12.94.73,19.88,1.53s11.51,1.24,17.84,2.04c6.33.8,15.8-.49,23.96-1.02,8.16-.53,25.07-3.14,32.62-2.04,7.55,1.1,16.31,1.53,16.31,1.53,0,0,3.26-3.14,3.57-5.1.31-1.95.61-3.04.51-3.57-.1-.53,0-1.53,0-1.53,0,0,.3-.59.51-.51s1.02.51,1.02.51l.51.51v3.06s1.63,2.97,1.53,3.57c-.1.59,0,1.02,0,1.02h.51l4.59-3.06s.5-2.84,1.02-3.06c.52-.22,1.53.51,1.53.51l-.51,3.57,1.02,1.02.51,1.02,2.04,1.02s-.52-2.23,1.53-2.04c2.04.19,3.57,1.53,3.57,1.53l-.51,1.02h3.06l2.55,1.53s-1.33.22,4.59,0,7.74-.29,13.25,0c5.51.29,16,.22,24.98,2.04,8.98,1.82,26.4,1.65,41.29,1.53,14.89-.12,41.08-1.72,54.03-2.55,12.95-.83,46.68-2.12,60.15-2.55,13.46-.43,41.18,1.75,54.03,3.57,7.09,1,22.25,2.19,36.6,2.34,11.66.12,22.79-.62,28.64-1.32,13.05-1.55,40.47-3.14,55.56-4.59,7.4-.71,16-1.3,24.16-1.23,8.49.08,16.5.83,22.22.72,2.98-.06,4.54.35,6.73.24,6.05-.32,10.09-1.26,10.09-1.26,0,0,.64-1.87.77-3.69.12-1.74-.26-3.44-.26-3.44l2.04-.51s.63,1.14,1.78,2.29c1.15,1.15,2.81,2.3,2.81,2.3,0,0,5.19-3.35,7.65-3.57s4.08,1.53,4.08,1.53l1.53.51,1.02.51,1.53.51,3.57,2.04s16.61.02,21.41.51c4.8.49,6.21,2.57,9.68,2.04,3.47-.53,4.59-2.55,4.59-2.55v-2.04l1.02-1.02,1.02-2.55h1.02l1.02.51.51,2.04,1.53,1.02.51.51s1.42.83,4.59,0c3.17-.83,3.57-2.04,3.57-2.04l.51-2.04h2.04v3.06s2.85,2.57,4.08,2.55c1.23-.02,1.02-4.08,1.02-4.08l2.04-3.57h1.02l.51,5.61s8.86,3.48,15.29,3.57c6.43.08,14.06.93,20.9,1.53,6.84.59,17.33,2.55,17.33,2.55l6.63,1.53,5.1,1.7v-10.87c.18,0,.34,0,.51,0v-1.01h-1.02v-2.04s3.33-13.41,5.1-22.94c1.77-9.52.51-20.39.51-20.39l.51-1.02h3.06l1.53-2.55-1.02-1.02s-1.36-.87-1.53-1.53ZM28.8,78.32c-1.02,0,.2,1.98,1.02,1.53.81-.45.76-1.53-1.02-1.53Z" style="fill: #fff; fill-rule: evenodd;"/>
        </g>
      </g>
    </g>
  </g>
</svg>