<?xml version="1.0" encoding="UTF-8"?>
<svg id="Camada_2" data-name="Camada 2" xmlns="http://www.w3.org/2000/svg" viewBox="0 0 115.52 163.83">
  <g id="Camada_1-2" data-name="Camada 1">
    <g id="svg_bg_attribute_hover">
      <path d="M28.4,139.16s-3.17-.08-6.12,0c-3.14.08-6.17.31-9.18,0-3.48-.36-4.59-2.04-4.59-2.04,0,0-3.69-6.32-3.57-12.23.07-3.46.95-6.86,2.04-9.17.9-1.91,2.55-3.06,2.55-3.06l4.08.51s-.21-3.18-1.02-5.61c-.71-2.14-1.53-5.1-1.53-5.1,0,0-.42-2.42-.51-4.08-.15-2.85,0-5.61,0-5.61,0,0,.28-1.18,1.02-2.04.79-.92,2.04-1.53,2.04-1.53,0,0-.81-.66-1.53-1.53-.52-.62-1.02-1.53-1.02-1.53l.51-3.06s1.01-5.01,2.04-10.19c.63-3.16,1.44-5.75,1.53-9.17.27-10.46-2.04-19.88-2.04-19.88h-6.12s-4.2-2.78-5.61-8.15c-1.64-6.28-.51-15.29-.51-15.29,0,0,.29-6.47,2.04-11.21C4.74,4.25,8.01,1.04,8.01,1.04c0,0,1.72-.67,3.57-.51.77.07,2.55.51,2.55.51,0,0,1.95-.19,4.08,0,2.39.21,4.87,1.14,7.14,1.53,3.07.53,5.61.51,5.61.51,0,0,2.94.63,7.65.51,11.48-.3,28.54-1.02,28.54-1.02,0,0,3.23.08,8.16.51,6.56.57,15.29,1.53,15.29,1.53,0,0,4.28-.92,8.67-1.53,4.78-.66,9.68-1.02,9.68-1.02,0,0,.59.3,1.02,1.02.31.51.51,1.53.51,1.53,0,0,1.39,1.13,2.55,4.08,1.14,2.91,1.53,5.61,1.53,5.61,0,0,1.06,2.96,0,9.68-.64,4.07-2.03,7.76-3.06,11.72-.93,3.58-1.53,7.65-1.53,7.65,0,0-.29,3.61-.51,7.65-.28,5.03-.51,10.7-.51,10.7,0,0-1.43.46-2.55,1.02-.9.45-1.53,1.02-1.53,1.02,0,0,1.64,1,2.55,2.04.88,1,1.02,2.04,1.02,2.04l-2.04,8.66s-.51,3.07-.51,7.14c0,5.81.51,11.21.51,11.21,0,0,.71,5.18,2.04,9.68.41,1.39.72,2.69,1.53,4.59,1.09,2.54,2.62,5.43,2.1,4.16l.45,5.53s1.04,3.36-.51,7.65c-.84,2.34-1.78,5.22-3.06,7.14-1.37,2.06-3.06,3.57-3.06,3.57l-15.29,1.02s.06,2.42-1.53,6.12c-1.12,2.61-3.39,6.13-5.61,8.66-1.97,2.25-3.8,4.1-6.12,5.61-3.97,2.59-8.16,4.08-8.16,4.08,0,0-8.26,1.64-16.31,0-6.9-1.4-13.76-6.12-13.76-6.12l-9.17-11.21s-.56-1.17-1.02-2.55c-.55-1.65-.51-3.57-.51-3.57Z" style="fill: #fff; fill-rule: evenodd; stroke: #000; stroke-miterlimit: 10;"/>
      <path d="M108.23,21.8c1.08.12,3.06.51,3.06.51l.51-1.53s-1.99-.18-3.06-.51c-.97-.3-1.02-.51-1.02-.51l1.02-.51h2.55s.4-1.27-.09-3.87c-.39-2.07-.42-3.26-.42-3.26,0,0-.64-2.17-1.53-3.57-.89-1.4-2.04-2.04-2.04-2.04,0,0-2.15,2.17-4.08,5.61-1.62,2.89-3.06,7.14-3.06,7.14,0,0-.91,3.37-1.02,6.63-.14,4.05.51,8.15.51,8.15,0,0,.42,1.12,1.02,2.55.67,1.61,1.53,3.57,1.53,3.57,0,0-.11,1.37-.51,2.04-.36.6-1.02.51-1.02.51l-20.39-.51-2.55-.51-3.57-.51-.51-1.53,2.55-.51,23.96,2.04-2.55-7.14s-.5-1.86-.51-5.1c0-1.91.4-4.92.51-6.63.12-1.84.51-4.08.51-4.08h-2.04l1.02.51v3.06h-1.02s-.27-.94-.51-1.53c-.27-.68-.51-1.02-.51-1.02l.51-1.02h-2.04s-.41-.47,0-1.02c.35-.47,1.53-1.02,1.53-1.02h4.08s1.46-4.22,3.06-6.63c1.45-2.17,2.55-3.06,2.55-3.06l-13.25,1.53s-6.03-.57-11.21-1.02c-6.41-.56-12.74-.51-12.74-.51,0,0-7.36.24-15.8.51-7.28.23-15.8.51-15.8.51,0,0-2.92-.16-6.12-.51-2.27-.25-4.32-.62-7.14-1.02-5.9-.83-12.23-2.04-12.23-2.04,0,0-.46.81-1.53,2.55-.97,1.57-2.04,4.08-2.04,4.08,0,0-.59,1.2-1.02,3.06-.32,1.39-.51,3.57-.51,3.57h5.1v1.53h-5.61l-.51,1.02h3.06v1.53h-3.06s-.69,3.38-.51,7.14c.08,1.73.65,3.35,1.02,5.1.34,1.6.76,2.87,1.53,4.08,1.09,1.7,2.55,3.06,2.55,3.06,0,0,1.02.12,3.57,0,1.37-.07,2.81-.4,4.59-.51,1.71-.11,3.77,0,5.1,0,2.98,0,4.59.51,4.59.51,0,0,.18-1.99.51-3.06.36-1.18.91-1.46,1.53-1.53.58-.06,1.15.44,1.53,1.53.34.98.51,2.55.51,2.55,0,0,8.83-2.04,16.31-2.04s13.76,1.53,13.76,1.53c0,0,1.35-1.71,2.55-1.53,1.93.3,3.57,2.04,3.57,2.04l3.06-1.02s.99-.51,1.53,0c1.11,1.03,1.53,2.55,1.53,2.55h-1.53s-.86-.64-1.53-.51c-1.5.3-2.55,1.53-2.55,1.53h-1.02s-.54-1.88-3.06-2.04c-1.01-.06-1.02,1.53-1.02,1.53,0,0-.61.2-1.02,0-.58-.29-1.02-1.02-1.02-1.02,0,0-2.61-.19-6.12-.51-2.6-.24-5.66-.67-8.67-.51-3.66.19-7.51.46-10.19,1.02-2.96.62-4.08,1.53-4.08,1.53l-2.55-1.53-.51,1.02s-5.22-.15-8.67,0c-2,.09-3.06.51-3.06.51,0,0,.61,1.37,1.02,3.57.35,1.85.51,4.59.51,4.59,0,0,3.23.86,5.61,1.53,1.92.54,2.04,0,2.04,0v1.53s-1.1.15-3.06,0c-3.04-.23-4.08-1.02-4.08-1.02v1.53s2.72.02,4.08.51c1.45.53,1.53,1.53,1.53,1.53h-5.1v2.55h1.53v1.53h1.53v1.53h-1.02s-.51-.62-.51-1.02v-.51h-1.53s.29,3.26,0,6.12c-.21,2.13-1.02,4.08-1.02,4.08,0,0,1.68-.28,3.06,0,1.15.23,2.04,1.02,2.04,1.02l-.51,1.53-4.59-.51s-.74,2.82-1.53,6.12c-.73,3.06-1.53,6.63-1.53,6.63,0,0,.57.54,1.53,1.02,1.07.54,2.55,1.02,2.55,1.02h2.04l.51,1.02v1.53l-2.18.24-1.9.78-3.57,2.55.51,8.15,1.02,2.04h4.08v1.53s-1.06.3-2.02.58c-.81.23-1.55.44-1.55.44,0,0,1.11,2.84,1.53,5.1.33,1.75,0,3.06,0,3.06,0,0,4.96.73,9.68,1.02,3.49.21,7.14,0,7.14,0l5.1-5.61h1.53s3.83-3.1,8.67-5.1c4.35-1.8,9.52-2.51,13.25-2.55,3.05-.03,8.34.92,11.72,2.55,4.43,2.14,6.63,5.1,6.63,5.1h1.53l4.08,5.1s2.35.2,5.61,0c4.65-.29,5.61-1.02,5.61-1.02h5.1s.56.02.51,1.02c-.08,1.68-.76,3.54-1.02,5.61-.19,1.51,0,4.59,0,4.59,0,0,.29,3.04,1.02,5.1.8,2.27,2.04,3.57,2.04,3.57,0,0,.36-2.49,1.02-4.08.61-1.46,1.53-2.04,1.53-2.04,0,0,.76-2.01,1.02-3.57.25-1.5,0-2.55,0-2.55l-.51-1.02,1.02-.51s.17-2.38-.51-4.59c-.87-2.83-2.04-5.1-2.04-5.1,0,0-2.32.13-3.57,0-1.3-.13-1.53-.51-1.53-.51l1.02-1.02h3.57l-.51-2.55s-.85.77-2.04.51c-1.11-.25-2.55-1.53-2.55-1.53v-1.53s1.07.27,2.04.51c1.06.27,2.04.51,2.04.51l-1.02-4.08s-.75.59-1.44.53c-.56-.05-1.07-.7-1.11-1.04-.03-.31.34-.54.78-.71.58-.22,1.26-.31,1.26-.31l-1.02-9.17s-1.45.04-2.55-.51c-.93-.46-1.53-1.53-1.53-1.53,0,0,0-.38,1.02-.51,1.02-.13,3.06,0,3.06,0,0,0-.17-4.67.51-9.68.59-4.38,2.04-9.17,2.04-9.17,0,0-1.47-.72-2.55-1.53-.95-.72-1.53-1.53-1.53-1.53,0,0-1.27.51-2.04,0-.76-.51-1.02-2.04-1.02-2.04h3.06s1.12-1.26,2.04-2.04c1.52-1.28,2.55-2.04,2.55-2.04v-.51h-2.55l-1.02,1.02-1.02-.51s-.4-.89.51-1.53c.67-.47,1.15-.15,2.04-.51,1.09-.44,2.04-.51,2.04-.51,0,0-.27-5.42,0-9.68.24-3.87,1.02-6.63,1.02-6.63,0,0,1.44-5.11,2.55-9.68.91-3.76,1.53-7.14,1.53-7.14,0,0-.64.1-2.55,0-2.77-.15-2.04-2.04-2.04-2.04,0,0,.33-.13,1.53,0ZM25.4,91.62c-.7,0-1.27-.57-1.27-1.27s.57-1.27,1.27-1.27,1.27.57,1.27,1.27-.57,1.27-1.27,1.27ZM101.35,81.94c.7,0,1.27.57,1.27,1.27s-.57,1.27-1.27,1.27-1.27-.57-1.27-1.27.57-1.27,1.27-1.27ZM97.27,65.63c-.42,0-.76-.34-.76-.76s.34-.76.76-.76.76.34.76.76-.34.76-.76.76ZM104.41,50.34c.42,0,.76.34.76.76s-.34.76-.76.76-.76-.34-.76-.76.34-.76.76-.76ZM104.15,55.44c-.84,0-1.53-.68-1.53-1.53s.68-1.53,1.53-1.53,1.53.68,1.53,1.53-.68,1.53-1.53,1.53ZM32.28,118.13h-5.61l.51-.51s-1.18.11-4.59,0c-3.41-.11-4.59-1.02-4.59-1.02h-2.04l-.51.51s-2.02-.11-3.09-.23c-1.22-.14-1.5-.28-1.5-.28,0,0-.89,1.89-1.27,3.28-.38,1.41-.26,2.32-.26,2.32h4.08v1.53h-4.08l-.51.51v1.53s2.35-.02,2.04,1.02c-.31,1.04-2.04,1.02-2.04,1.02,0,0,.45.81.86,1.08.35.23.67-.06.67-.06v1.53h-.51s.56,2.66,1.58,4.16c.86,1.28,2.06,1.44,3.52,1.44h13.25s-.17-4.45.51-8.15c.59-3.25,1.17-4.17,2.07-6.14.83-1.81,1.5-3.03,1.5-3.03v-.51ZM100.58,126.79s-1.11.8-2.04,0c-.93-.8,1.53-2.04,1.53-2.04v-.51h-3.06s-.64-.51-.76-1.01c-.13-.51.25-1.03.25-1.03h3.57s-.22-.72.05-2.35c.24-1.42.97-3.77.97-3.77,0,0-3.82.91-7.06,1.3-3.12.37-5.68.23-5.68.23,0,0,0,.83.64,2.71.69,2.05,2.02,5.25,2.42,7.49.75,4.12,0,6.63,0,6.63,0,0,.89-.05,2.72-.11,2.02-.07,5.08-.16,6.88-.24,2.03-.09,2.12-.16,2.12-.16,0,0-1.67-1.81-2.31-3.61-.63-1.77-.24-3.52-.24-3.52ZM76.63,109.97h-1.02s-5.67-4.08-12.74-4.08c-2.74,0-6.78.75-9.33,1.61-3.39,1.14-4.43,2.47-4.43,2.47l-3.57.51s-4.29,2.1-7.87,6.54c-1.15,1.43-2.18,3.71-3.04,5.58-1.04,2.25-1.84,4.14-2.35,6.23-2.22,9.25.83,15.58,6.63,22.43,2.84,3.36,7.33,5.39,10.65,6.58,3.44,1.24,5.66,1.58,5.66,1.58,0,0,1.64.42,4.26.5,2.1.06,2.78.74,8.48-1.01,3.24-.99,6.55-2.66,9.68-5.1,1.97-1.53,3.53-3.58,4.78-5.09,2.41-2.9,3.63-5.15,4.25-7.39.64-2.31.65-4.34.65-4.34,0,0,.28.14.52-1.29.42-2.55.69-7.85-1.03-11.96-3.91-9.34-10.19-13.76-10.19-13.76ZM36.56,124.05c1.04-3.27,2.86-5.93,2.86-5.93,0,0,.43-.72.89-.95.55-.27,1.15-.07,1.15-.07v1.53s-.78.02-1.69,1.85c-.68,1.36-1.44,3.29-2.01,4.82-.53,1.42-.38,2.5-.38,2.5l-1.02.51s-.22-2.96.2-4.27ZM36.36,145.14s.08-1.12-1.02-3.06c-1.1-1.94-1.43-4.75-1.02-7.65.27-1.9.4-3.33.73-4.3.39-1.15.8-1.31.8-1.31h1.02s-.68,3.27-1.02,7.14c-.17,2.01.38,4.78.96,6.49.53,1.58,1.08,2.18,1.08,2.18,0,0-.56.7-1,.84-.29.1-.53-.33-.53-.33ZM41.97,150.24v1.02h-.51s-.15.04-1.53-1.53c-1.38-1.57-2.55-3.57-2.55-3.57.25-.19,1.53-.51,1.53-.51,0,0,.24.29,1.53,2.04,1.25,1.69,1.53,2.04,1.53,2.04v.51ZM45.54,154.82c-.62.22-1.53-.51-1.53-.51l.51-1.02h.51s1.13,1.31.51,1.53ZM82.74,118.64v.51l-.51.51h-.51l-.51-1.02h1.53ZM79.69,116.6h-1.02v-1.02c1.72-.06,1.02,1.02,1.02,1.02ZM72.55,155.84c-.87.09-1.39-1.73,0-1.53,1.78.25.87,1.44,0,1.53ZM72.55,110.99l-.51-.51h-1.02l.51-1.02h1.02v.51h2.04l4.08,4.59v.51h-1.02s-1.19-.87-3.06-2.55c-1.87-1.68-2.04-1.53-2.04-1.53ZM82.74,145.65v.51l-6.12,6.63-.51-1.53,5.1-5.61.51-.51s.67.08.87.18c.29.15.15.33.15.33ZM83.25,143.61c-.68-.1-.6-1.64,0-1.53,1.02.19.68,1.63,0,1.53ZM83.76,128.32c-.43-1.63-1.53-3.57-1.53-3.57v-1.53c.96.38,1.53,1.02,1.53,1.02,0,0,.56.99,1.02,2.55.46,1.55,1.02,4.59,1.02,4.59h-1.53s-.08-1.43-.51-3.06ZM85.29,139.53c-.75.34-.94-.62-.51-1.02.96-.89,1.26.68.51,1.02ZM85.8,133.93l-1.02-.51v-1.02c.89-.25,1.53.51,1.53.51l-.51,1.02Z" style="fill-rule: evenodd;"/>
    </g>
  </g>
</svg>