<?xml version="1.0" encoding="UTF-8"?>
<svg id="Camada_2" data-name="Camada 2" xmlns="http://www.w3.org/2000/svg" viewBox="0 0 213.01 6.01">
  <g id="Camada_1-2" data-name="Camada 1">
    <g id="svg_line_origin">
      <path d="M102.41,1.12c-3.06-.39-5.81-.63-9.69-.38-2.2.14-3.86.52-6.12.75-1.41.14-4.18,0-5.1,0-1.79-.01-2.3-.37-4.08-.38-1.74,0-4.07.28-6.12.38-2.06.09-3.82-.01-5.61,0-3.37.02-4.87.38-8.16.38-2.03,0-3.98-.34-6.12-.38-3.34-.05-6.82-.07-10.28-.08-3.37-.01-7.6.09-11.64.08-1.54,0-3.26.11-4.59,0-2.53.27-3.74.88-5.61,1.12-1.07.14-1.68.34-3.06.37-1.04.03-2.55,0-2.55,0,0,0-.85-.25-1.53-.37-.59-.04-2.27-.17-2.27-.17-.43.06-1.35-.19-1.8-.21-2.44-.12-3.1.11-6.53-.12-.27.4-.86.09-1.12.5-.22.33-.68.91-.32,1.69.14.21.17.31.83.56.46.23.81.31,2.55.37.8.03.75.11,1.53,0,.66-.09.42-.35,3.06-.37.89,0,2.97-.1,4.08,0,.85.07.71.33,1.53.37,1.72.09,3.19.01,4.59,0,1.58-.01,1.75.1,2.55,0,.59-.08,2.04-.37,2.04-.37,0,0,1.64-.1,4.08,0,1.05.04,1.35.3,2.55.37,1.27.08,3.43,0,4.42-.03.61-.05.61-.22,1.7-.35,1.53-.19,4.23-.35,5.1-.38,2.05-.06,4.12-.06,6.12,0,1.5.04,3.48.22,5.1.38,1.53.15,2.69.29,4.08.37,1.6.1,2.32-.26,4.08-.37,1.94-.13,4.92,0,6.63,0,3.16.01,4.07-.24,7.14-.38,1.2-.05,4.78.22,6.12,0,1.08-.03,4.53.03,5.61,0,2.94-.07,4.29-.32,6.63-.38.44-.01,1.33-.09,2.04,0,.63.08,1.08.34,1.53.38,1.25.11,1.71,0,3.06,0,1.51,0,2.04,0,2.04,0,0,0,1.28-.47,2.04-.75.26-.09.68-.22,1.02-.37.35-.16.61-.37.51-1.5-.93-.34-.85-.6-2.04-.75ZM194.68,1.5c-2.25-.06-3.3.24-6.12.38-2.44.12-4.65-.1-7.14,0-2.57.1-4.13.36-6.63.37-2.18-.06-6.49-.32-8.67-.37-3.71-.1-5.62.08-9.18,0-1.72-.04-4.77.09-6.63,0-1.27-.06-1.34-.34-2.55-.38-2.51-.07-4.11.06-6.63,0-3.22-.08-5.77.11-9.18,0-2.6-.08-5.87.15-8.67,0-3.12-.17-3.82-.29-6.63-.38.06-.02-.65.01-2.04,0-.77,0-1.66.27-2.55.38-.71.08-1.53,0-1.53,0,0,0-1.01.28-1.02,1.12-.12.9-.06,1.27,0,1.5,1.72.63,3.74.06,6.63.38,3.24.36,4.46.24,8.67.38,3.06.1,4.2-.03,7.65,0,3.11.03,4.3.37,7.65.37,2.28,0,5.77-.73,8.16-.75,2.62-.02,5.16.73,7.65.75,3.96.03,6.96.86,10.2.75,3.51-.12,5.61-.75,7.65-.75,1.81,0,4.64-.54,7.65-.37,2.17.12,1.84.26,4.08.37,2.51.13,3.89-.13,6.63-.37,2.25-.2,4.47-.2,5.61-.75,1.18-.22,1.44-.48,1.53-.75-.17-.19-.34-.94-.51-1.12-.9-.66-1.57-.68-4.08-.75ZM212.97,1.63c-.79-.07-1.32-.25-1.97-.5-.75-.29-1.64-.67-2.55-.75-1.75-.16-2.33-.22-4.08-.38l-1.53.38s-.52.37-1.02,1.12c-.18.26,0,1.15,0,1.5.54,1.18,1.58,1.37,3.57,1.5,1.75.11,3.35.1,5.1-.38.73-.2,2.06-.48,2.52-.85-.07-.25-.07-.85-.04-1.64Z" style="fill-rule: evenodd;"/>
    </g>
  </g>
</svg>