<?xml version="1.0" encoding="UTF-8"?>
<svg id="Camada_2" data-name="Camada 2" xmlns="http://www.w3.org/2000/svg" viewBox="0 0 50.42 80.91">
  <g id="Camada_1-2" data-name="Camada 1">
    <g id="svg_text_wounds">
      <path d="M16.49,14.4s-.21.66.51,1.03c.73.37,1.54,0,1.54,0v-4.63h-2.06l-.51,1.03s-1.49.11-3.11.22c-1.95.14-4.09.29-4.09.29,0,0,.08-.59,1.54-1.03,1.46-.44,3.08-1.03,3.08-1.03v-1.03s-1.38-1.43-2.84-2.4c-1.62-1.08-3.33-1.71-3.33-1.71,0,0,1.11-.52,3.6-.51,2.49,0,4.63-1.03,4.63-1.03l1.03,2.57h1.54l-.51-5.66L17,0h-.51s-1.68.88-2.06,1.03c-.38.15-1.54.51-1.54.51h-6.68l-1.03.51h-2.57s-.58-1.1-1.54-1.03C.1,1.1-.1,2.86.04,4.11c.14,1.25.51,1.54.51,1.54l.51.51,1.03-.51s2.65,1.76,3.6,2.06c.95.29,2.06,1.54,2.06,1.54,0,0-1.83,1.03-3.08,1.54s-2.64,2.35-3.08,3.6c-.45,1.25,0,3.08,0,3.08l.51.51h1.54v-2.06s1.55-.44,5.14-.51c3.59-.07,7.71-1.03,7.71-1.03ZM18.17,28.26c1.71-1.95,1.37-3.74,1.41-5.12.06-2.2-4.55-5.58-9.25-4.63-3.63.74-6.53,2.64-6.17,6.17s3.31,6.32,8.23,6.17c1.84-.05,4.77-1.42,5.79-2.59ZM7.75,25.71c-1.39-2.43.29-3.01,4.11-3.6s3.59,1.18,4.11,2.06.06,3.31-2.06,4.11c-2.12.81-4.78-.15-6.17-2.57ZM24.2,42.16h.51s.38.61.82.72c.57.14,1.23-.21,1.23-.21v-1.54s-.3-1.39-1.03-2.57-2.06-.51-2.06-.51v.51l-.51.51h-1.03s-2.65,1.84-4.63,2.57c-1.97.73-4.86.07-5.66-1.03-.8-1.1,1.46-2.28,4.11-3.08,2.65-.81,5.66-2.57,5.66-2.57l.51,1.54h.51l1.03-.51s-.39-2.77-1.03-4.11c-.87-1.84-1.26-1.61-1.54-1.54-.29.07-1.03,1.54-1.03,1.54,0,0-5.81,2.43-8.74,4.11-2.93,1.69-2.65,4.55-1.54,6.68,1.11,2.13,3.6,2.06,3.6,2.06,0,0-.74.74-1.54,2.06s.51,1.54.51,1.54c0,0,1.68-1.03,5.14-2.57,3.46-1.54,6.68-3.6,6.68-3.6ZM36.54,68.38c2.05-1.32,2.87-4.48,2.06-7.2-.82-2.72-3.6-6.17-3.6-6.17l-1.54.51-1.03.51v1.54s-1.15,1.2-3.06,2.58c-2.6,1.88-6.19,4.1-6.19,4.1l-2.06-2.57s1.33-1.03,3.6-2.57c2.27-1.54,6.68-4.63,6.68-4.63h1.03v.51l1.54-1.03s.02-.87-.49-1.75c-.52-.92-1.57-1.85-1.57-1.85l-8.74,6.17,4.11-9.25.51,1.03.51.51.51-.51s.3-1.25-.51-2.57c-.82-1.32-1.62-2.64-2.57-2.57l-1.03,1.03-.51,1.54s-2.3,1.25-4.83,2.05c-3.07.98-6.48,1.55-6.48,1.55,0,0-.14,1.54.51,3.08.65,1.54,1.54,1.54,1.54,1.54l1.03-1.03v-1.54s1.18.29,3.6-.51,3.6-1.54,3.6-1.54l-4.11,9.25-1.54.51-.51,1.54,4.11,4.63,1.54.51s1.62,2.64,5.14,4.11c3.52,1.47,6.69-.22,8.74-1.54ZM28.32,67.35s-.46-1.1-1.21-1.55c-.47-.28-1.36,0-1.36,0,0,0,2.73-1.1,5.14-3.08,2.41-1.98,3.08-3.08,3.08-3.08,0,0,.96.88,1.54,3.08.27,1.01.45,1.94-.18,2.7-.73.89-2.38,1.57-3.42,1.93-1.92.66-3.6,0-3.6,0ZM48.37,71.98s.96-1.91-2.06-4.11c-3.02-2.2-5.35-.59-6.17,1.54-.82,2.13.38,4.41,1.03,5.66.65,1.25-.43,2.35-3.08,2.06-1.28-.14-2.44-1.11-2.76-2.07-.34-1.03.19-2.05.19-2.05l-1.54-1.03-4.11,2.57.51,1.03.51.51,1.54-.51s.45,2.5,4.11,4.63c3.66,2.13,7.57-.96,7.71-3.6.14-2.64-2.41-5.58-1.03-6.68,1.39-1.1,1.84.37,2.57,2.57.73,2.2,2.07,3.74,3.08,3.08s1.54-1.54,1.54-1.54v-1.03l-2.06-1.03Z" style="fill-rule: evenodd;"/>
    </g>
  </g>
</svg>