<?xml version="1.0" encoding="UTF-8"?>
<svg id="Camada_2" data-name="Camada 2" xmlns="http://www.w3.org/2000/svg" viewBox="0 0 50.95 82.23">
  <g id="Camada_1-2" data-name="Camada 1">
    <g id="svg_text_defence">
      <path d="M46.62,67.91c-4.1-1.12-6.43-1.69-9.31-.08s-4.26,6.69-3.12,9.34c1.42,3.28,4.72,5.07,4.72,5.07l1.42-.67.04-1.14-.91-.69s2.53-1.93,4.56-3.84c2.18-2.05,3.87-4.08,3.87-4.08l.95-.45.91.69,1.2-1.13s-.57-1.98-4.32-3.01ZM40.53,75.85c-2.04,1.86-3.35,2.71-3.35,2.71,0,0-1.24-1.93-1.26-3.89-.03-2.17,1.24-4.42,3.43-4.99,4.18-1.09,6.73.75,6.73.75,0,0-3.16,3.25-5.54,5.43ZM38.85,63.73l2.29,1.16,1.46-1.81s-1.77-1.12-3.41-2.31c-2.24-1.63-4.54-3.47-4.54-3.47l-3.57,2.25,1.12,1.15,2.37-1.12s1.11.6,1.82,1.39c.49.55.65,1.38.65,1.38l-1.93,2.04s-.81.03-1.38-.47c-.84-.73-1.56-2.07-1.56-2.07,0,0-1.06.91-2.15,1.58-.91.56-1.89.9-1.89.9l1.12,1.15,1.42-.67,2.51,1.62s-1.57,1.62-2.41,2.26c-1.05.81-1.42.67-1.42.67,0,0-1.63-1.7-2.47-2.76-.55-.7-.65-1.38-.65-1.38l.26-.68-.22-.46-3.31,1.57-.04,1.14s1.01.37,2.51,1.62c2.21,1.86,5.41,5.3,5.41,5.3h1.16s.51-1.36.51-1.36l-.65-1.38,7-7.25ZM25.47,59.95l.91.69,1.42-.67s-.11-.58-.22-1.12c-.09-.48-.18-.94-.18-.94,0,0,1.46-1.05,2.51-1.94,1.21-1.02,2.26-1.44,2.26-1.44l-1.09-2.29-.67.2s-1.35,1.04-2.11,1.76c-1.15,1.08-2.24,2.11-2.24,2.11,0,0-.86-.28-1.24-.8-.39-.52-.32-1.27-.32-1.27l.47-.22-.43-.92-3.79,1.79-.04,1.14.22.46s.93-.37,1.63-.04c.78.37,1.35,1.43,1.35,1.43,0,0-.46.53-1.34,1.24-.79.64-2.02,1.47-2.02,1.47,0,0-1.07-.44-1.67-1.12-.63-.7-.79-1.64-.79-1.64l.47-.22-.43-.92-1.89.9-.26.68.43.92s1.04,1.05,2.06,2.13c1,1.06,2.44,2.48,2.44,2.48,0,0,1.51-2.03,2.2-2.61,1.35-1.14,2.36-1.23,2.36-1.23ZM16.61,53.48c1.52-1.18,3.1-2.03,3.1-2.03l.43.92.69.23.47-.22.99-1.59-.43-.92,3.31-1.57,1.12,1.15,1.42-.67s-.34-1.83-2.17-4.59-5.19-4.84-5.19-4.84l-1.89.9-.47.22.18,1.6.22.46,1.89-.9s1.67.87,2.72,2.08c.82.94,1.09,2.29,1.09,2.29l-3.1,2.03s-.92-2.29-2.21-3.45c-1.29-1.15-3.49-.03-3.49-.03l.43.92s1.23.41,2.03,1.85c.8,1.44.4,2.06.4,2.06l-2.62,1.8s-.23-.62-1.56-2.07c-1.33-1.45-1.09-2.29-1.09-2.29l.73-.91-.43-.92-2.58.66s-.49.84.36,3.2c.3.83,1.45,1.84,1.99,2.99,1.01,2.11,1.7,4.81,1.7,4.81l.69.23.47-.22.73-.91s-1.44-1.1.08-2.28ZM20.69,36.38l.65,1.38,1.42-.67s.5-1.14-.83-2.98c-1.33-1.84-1.34-1.61-1.34-1.61l-.95.45-.04,1.14-5.21,2.47-.22-.46s2.54-2.49,3.69-5.68c1.15-3.19,1.32-4.56,1.32-4.56l-.43-.92s-1.56.01-7.54,2.44c-5.97,2.43-7.79,3.13-7.79,3.13l-.87-1.84-.95.45s.48.97.4,2.06c-.09,1.09-.04,1.14-.04,1.14l.43.92s2.31.08,4.7-1.1,8.27-3.35,8.27-3.35c0,0-1.76,2.74-4.89,6.81-3.13,4.07-3.43,4.99-3.43,4.99l1.09,2.29.91.69.95-.45-.65-1.38,11.36-5.38ZM2.97,23.43c2.33,2.92,6.72,2.87,10.66,1.69,3.94-1.17,4.38-5.51,3.98-7.5-.4-2-1.52-3.21-1.52-3.21l.95-.45.26-.68-1.38-.47-3.31,1.57.87,1.84s1.91,1.28,1.26,3.89c-.64,2.61-3.18,2.78-5.47,3.15-2.29.37-4.49-1.44-4.54-3.47-.05-2.02.71-2.78-.57-3.66-1.28-.88-2.07-.7-2.07-.7l-.43-.92-.3,1.82.65,1.38s-1.36,2.79.97,5.72ZM1.46,12.91l.95-.45.3-1.82s1.6-.89,3.06-.89c1.45,0,1.64-.21,1.64-.21l.87,1.84h1.16s-.47-1.9,1.93-2.03c2.4-.13,2.8-.2,2.8-.2l1.56,2.07.69.23s.54-2.07.67-5.93c.13-3.86-.32-4.34-.32-4.34l-.91-.69L13.32,0l-.73.91.43.92s1.36-.11,1.82,1.39c.46,1.49-.59,3.65-.59,3.65,0,0-.74.5-2.11.44-.99-.05-1.15-.03-1.17-.02-.04-.05-.88-1.14-.82-2.97.06-1.86.3-1.82.3-1.82l.47-.22-.43-.92-3.71-.49-.3,1.82.22.46s1.14-.42,1.12,1.15c-.01,1.58-.33,2.97-.33,2.97,0,0-1.35.23-2.8.2-1.46-.02-1.85-.24-1.85-.24,0,0-.23-1.64-.36-3.2-.12-1.57-.18-1.6-.18-1.6l1.89-.9L3.53.14S1.87.62.95.8c-.92.18-.95.45-.95.45,0,0,.57,2.06.75,5.26.18,3.2.02,6.17.02,6.17l.69.23Z" style="fill-rule: evenodd;"/>
    </g>
  </g>
</svg>