<?xml version="1.0" encoding="UTF-8"?>
<svg id="Camada_2" data-name="Camada 2" xmlns="http://www.w3.org/2000/svg" viewBox="0 0 200 6.02">
  <g id="Camada_1-2" data-name="Camada 1">
    <path d="M7.7,2.65c-3.24-1.56-6.17-.56-6.17-.56,0,0-.63.17-1.02.49C.13,2.89,0,3.34,0,3.57c.02.39.49.59.51.98,1.05.51,1.64.53,2.55.49,1.66-.08,2.55.31,4.08-.49,1.17.57.54.77,2.04.98,1.51.21.7-.95,2.55-.98,2.66-.05,5.34.61,8.67.49,2.6-.09,5.56-.75,8.16-.98,3.52-.32,3.95-.31,8.16,0,2.01.15,2.05.38,4.08.49,2.72.15,2.81-.59,5.61-.49,1.05.04,2.27.43,3.57.49,3.24.15,6.63,0,6.63,0,0,0,1.83.94,5.1.98,1.96.03,3.93-.48,6.63-.49,5.22-.03,11.05.47,17.35.49,7.97.02,13.25,0,18.37,0,0,0,1.64-.47,6.12-.49,2.98-.02,4.36.48,8.67.49,1.31,0,2.98-.1,4.08,0,1.66.14,2.75.5,5.1.49,5.57-.02,9.57-.87,15.82-.98,3.02-.05,8.28-.15,11.22,0,2.1.11,1.87.46,4.08.49,3.3.04,4.44-1.1,8.16-.98,1.61.05,2.27.14,3.18.25,2.08.25,3.72.23,4.98.24,3.14-.12,4.48.06,8.16,0,4.62-.07,11.22-.49,11.22-.49,0,0,2.52.33,3.57,0,1.51-.47,1.29-.58,1.53-.98.02-.9-.72-1.5-1.53-1.97-.83,0-2.23,0-3.06,0-1.58-.02-1.49.04-3.06,0-.61-.02-1.49.24-2.55.49-1.11.26-2.42.52-3.06.49-1.63-.06-1.45-.9-3.06-.98-2.05-.11-3.03.12-5.1,0-1.95-.12-3.11-.37-5.1-.49-2.71-.17-5.87.63-8.67.49-3.87-.2-3.25-.79-7.14-.98-5.28-.26-7.35.23-13.78.49-2.78.11-7.92.9-11.73.98-2.99.07-6.49-.27-8.16,0-5.52-.69-9.34.6-13.27.49-3.34-.09-5.62-.9-9.34-.92,0,0-2.75-.13-6.99-.07-3.8.05-8.8.32-14.29,0-5.61-.33-11.55.91-17.86.49-2.18-.14-2.4-.77-4.59-.98-4.26-.41-6.24-.22-10.71-.49-1-.06-5.65.05-6.63,0-4.97-.23-6.01-.89-9.69-.49-1.18.13-4.36,1.02-6.63.98-2.24-.04-5.04.06-7.65,0-3.98-.09-7.58-.14-8.62,1.54Z" style="fill-rule: evenodd;"/>
  </g>
</svg>