<?xml version="1.0" encoding="UTF-8"?>
<svg id="Camada_2" data-name="Camada 2" xmlns="http://www.w3.org/2000/svg" viewBox="0 0 82 6">
  <g id="Camada_1-2" data-name="Camada 1">
    <path id="svg_line_move" d="M11.58,2.79s1.64-.04,5.59-.39c1.94-.17,5.32-.57,7.62-.79,2.63,0,4.07.41,6.61.39,3.9-.02,6.29-.71,10.16-.79,2.86-.06,4.65.41,7.62.39,3.52-.02,7.91-1.51,11.69-1.58,4.6-.09,8.88.04,13.21.39,1.25.1,1.26.23,2.54.39.19.02.94.07,1.52,0,.78-.1,1.47-.33,2.03-.39.92-.11,1.43.61,1.52,1.18.08.5-.25.87.29.84-1.71,1.19-2.54,1.36-5.88,1.53-1.21.06-2.41.6-4.57.79-2.52.22-6.62-.21-9.66,0-1.64.12-2.56-.03-4.07,0-2.15.05-4.57.44-6.61.39-3.5-.07-6.68-.64-10.16-.79-3.12-.13-6.51.14-10.16.39-2.45.17-3.78-.35-7.11,0-8.26.86-12.42,1.13-16.26,1.18-2.46.04-4.3.2-6.61-.39-2.32-1.36.51-2.76.51-2.76,0,0,3.5.24,5.08,0h5.08Z" style="fill-rule: evenodd;"/>
  </g>
</svg>