<?xml version="1.0" encoding="UTF-8"?>
<svg id="Camada_2" data-name="Camada 2" xmlns="http://www.w3.org/2000/svg" viewBox="0 0 743.69 181.44">
  <g id="Camada_1-2" data-name="Camada 1">
    <g id="svg_bg_talents">
      <path d="M2.55,1.13s.51,6.19.51,8.42.63,3.45,1.53,4.08c.9.63,4.08,3.06,4.08,3.06,0,0-2.5,1.05-4.08,3.57s-1.26,6.95-1.53,11.74c-.27,4.79-1.26,12.71-1.02,20.42s1.29,20.37.51,26.04c-.78,5.66-2.5,11.47-2.04,15.83s2.53,12.79,6.12,17.87c3.59,5.08,6.53,7.68,6.12,9.7s-2.06,5.49-3.06,7.66c-1,2.16-.46,4.76,0,6.13.46,1.36,1.02,2.04,1.02,2.04,0,0-1.92,2.07-2.55,3.57-.63,1.51,0,3.06,0,3.06l.51,1.53s-3.59.9-5.1,4.59c-1.51,3.69-2.87,6.95-3.06,10.21S.05,164.69,0,168.32c-.05,3.62.51,12,.51,12h738.08s-.46-1.84,0-3.83c.46-1.99.85-2.09.51-2.55-.2-.27-1.02-2.72-2.55-4.08-1.09-.97-3.06-1.02-3.06-1.02,0,0,3.62-2.82,4.59-6.64.97-3.82,1.94-9.97.51-15.31-.67-2.49-1.71-4.04-2.04-7.15-.38-3.56-.01-8.69,0-11.74.01-2.99.07-5.67-1.53-7.66-1.46-1.81-4.59-3.06-4.59-3.06,0,0,1.43-2.75,1.53-5.62.1-2.87,0-3.57,0-3.57l3.57-3.57s.49-3.26-2.04-4.59-4.59-1.53-4.59-1.53c0,0,4.57-1.65,6.12-4.08,1.55-2.43.92-4.21,1.02-10.72.05-3.5.23-8.47,1.02-12.25.68-3.25,1.93-5.45,2.55-7.15,1.34-3.67,2.96-15.73,2.04-25.01-.92-9.29-1.85-22.44-1.02-27.06.83-4.62,3.06-10.98,3.06-10.98H2.55Z" style="fill-rule: evenodd;"/>
      <path d="M6.23,0l.51,9.68,2.04,2.04h6.63l.51,1.02v.51l-1.02.51-5.1-.51,1.53,1.53,5.1.51,1.53,1.53s.13.54,0,.51c-.13-.03-1.02.51-1.02.51l-5.1.51s-.32,1.82-2.04,2.55c-1.72.73-2.55,3.06-2.55,3.06v2.55h5.1l.51.51s-.57.99-2.55,1.53-3.57,1.02-3.57,1.02c0,0,.19,4.69,0,8.17-.19,3.48,0,17.87,0,17.87,0,0,1.28-.09,3.06,0,1.78.09,2.55,2.04,2.55,2.04,0,0-.95-.09-1.02,0-.07.09-4.59,0-4.59,0v1.02s2.68,1.44,2.55,2.04c-.13.61-.51,1.02-.51,1.02l-3.06-.51s.58,8.71.51,14.8c-.07,6.09-1.02,7.31-1.53,10.21-.51,2.9-.76,8.39,1.02,14.29,1.78,5.9,3.25,9.48,6.63,12.76s4.98,5.01,4.08,8.68c-.9,3.67-2.55,8.17-2.55,8.17h3.06l1.02,1.02s1.34,1.31-.51,1.53c-1.85.22-4.59-.51-4.59-.51,0,0-.51.86.51,2.04,1.02,1.18,4.08,2.04,4.08,2.04l2.55.51,1.02.51-.51,1.02-6.63,1.53-2.55,3.06,1.02,1.02,1.53,1.53v.51l7.65-.51,1.02,1.02v1.02l-.51.51s-5.23.03-7.65.51c-2.43.48-2.55.51-2.55.51,0,0-3.38.48-4.59,3.06-1.21,2.58-2.36,5.84-2.55,9.19-.1,1.64-.67,4.49-.51,7.15.17,2.76,1.09,5.34,1.02,7.15-.13,3.54,0,5.85,0,5.85h729.41v-3.3l-5.1.51v-1.02l5.1-2.04s-1.66-4.43-5.61-4.59c-3.96-.16-5.61,0-5.61,0l-4.08-1.02.51-1.53s4.4,1.5,7.65-.51c3.25-2.01,5.61-4.59,5.61-4.59l-5.1.51-.51-1.02s2.49-.8,4.08-1.53,3-.61,3.06-1.02c.06-.42.51-3.06.51-3.06,0,0-2.99,1.69-2.55.51.44-1.18,1.53-2.04,1.53-2.04,0,0,.9-.54,1.02-1.02.12-.48-.19-3.09-1.53-9.7-1.34-6.61-1.02-20.42-1.02-20.42h-4.08v-1.02l3.06-.51-4.08-2.55s-.89.86-3.57,1.53c-2.68.67-5.1.51-5.1.51v-1.02l1.53-1.53h1.53l1.53-2.04,1.53-.51,2.04-2.04h-4.08v-1.53s1.21-.54,3.06-1.02,2.55-1.02,2.55-1.02l-.51-2.55-1.02-1.53s1.09-.48,1.53-1.02c.44-.54,3.06-3.06,3.06-3.06,0,0-2.63-1.1-5.1-2.55-1.73-1.02-3.57-2.55-3.57-2.55,0,0-1.72,1.63-3.06,1.53s-1.53,0-1.53,0l-.51-1.02h-2.55l-.51-1.02s2.23-.67,4.59-1.02c2.36-.35,4.08-.51,4.08-.51,0,0,1.15-1.18,3.57-2.04,2.42-.86,3.57-1.53,3.57-1.53,0,0,1.92.48,2.04-3.57.13-4.05-.51-11.23-.51-11.23l-5.1-2.04,1.02-1.02,4.59,1.02s-.19-2.84,1.53-7.15c1.72-4.31,2.55-7.66,2.55-7.66,0,0-2.87-1.18-2.04-1.53.83-.35,2.55-.51,2.55-.51,0,0,2.23-6.22,1.53-14.8-.7-8.58-2.48-15.86-2.55-23.99-.07-8.14,3.57-20.14,3.57-20.14L6.23,0Z" style="fill: #fff; fill-rule: evenodd;"/>
    </g>
  </g>
</svg>