<?xml version="1.0" encoding="UTF-8"?>
<svg id="Camada_2" data-name="Camada 2" xmlns="http://www.w3.org/2000/svg" viewBox="0 0 254.03 5.97">
  <g id="Camada_1-2" data-name="Camada 1">
    <g id="svg_line_background">
      <path d="M3.25,2.47s-.8-1.23-1.53-.98C.3,1.98.19,2.47.19,2.47c-.01-.02-.42.32,0,1.47.81.84,1.47,1.01,2.55.49.75-.66.51-.98.51-.98v-.98ZM6.3,1.98s-1.08-.35-1.53.98c-.2.59,0,1.47,0,1.47,0,0,.71.64,1.01.9.98.16,1.19-.12,1.54-.41.19-.19.55-.14.58-.77.04-.38,0-.87-.15-1.3-.4-.68-.74-.75-1.45-.87ZM141.89,1.49c-2.85-.03-5.47,0-7.14,0-3.13-.07-7.07-.42-10.19-.49-6.14-.13-12.51-.04-18.86,0-9.12.05-18.26.08-27.07-.11,0,0-7.2,1.13-16.76,1.09-6.08-.03-13.07.15-19.88,0-3.57-.08-6.92-.92-10.19-.98-3.52-.07-6.95.17-9.68.49-1.89.22-4.26.42-4.78.42-1.8,0-3.88.05-5.42.07-1.16-.02-1.58.23-2.04.49v1.47c.1.12.36.61.76.6,1.95.07,1.38.11,3.32-.11,1.45-.16,2.55-.05,4.08,0,1.87.06,1.64.42,3.57.49,3.05.11,5.85-.11,9.17,0,2.78.09,4.24.5,7.14.49,4.3-.01,9.34-.17,13.76,0,1.95.07,2.83.35,4.59.49,2.45.19,5.97-.06,8.16,0,1.32-.1,3.29-.41,4.59-.49,2.74-.16,5.62-.4,8.16-.49,1.56-.05,2.74.09,4.46-.05,0,0,3.57.5,8.29.53,3.83.02,9.35.5,14.27.49,3.99,0,7.65-.41,11.21-.49,5.8-.12,10.86.09,12.9.3,6.36-.02,12.72-.05,19.08-.07.51-.42,1.02-.84,1.53-1.26.02-.4.05-.79.07-1.19-1.1-1.58-4.2-1.67-7.08-1.7ZM217.33.52c-3.36-.03-4.25-.02-7.65,0-4.17.02-6.09-.59-10.7-.49-3.18.07-6,.78-9.68.98-5.2.28-11.29.04-15.29,0-4.93-.15-8.24.33-11.21.49-3.04.16-5.72.02-7.14.49-2.16.72-2.01,2.22-1.53,2.94.65.98,2.5,1.07,5.61.98,2.71-.08,5.73-.74,9.68-.98,2.9-.17,6.9.07,8.67,0,3.67-.15,6.55-.6,9.08-.74,4.47-.24,7.32.12,9.79-.35,3.07.18,8.4.35,11.71.6,2.21.17,2.35.46,4.59.49,2.92.04,5.99-.65,8.67-.49,1.44,0,5.33.9,10.19.98,4.58.07,8.61.19,8.61-2.14-3.25-4.68-18.77-3.05-23.39-2.75ZM252.5,1.49c-2.35-1.3-5.8-1.3-8.36-1.3V.05s-2.22.47-1.84,2.42c.52,1.51.24,2.15,2.04,2.45,1.64.27,4.51-.2,6.63-.49,1.27-.17,2.08-.02,2.71-.32.07-.3.28-1.33.35-1.63-.47-.46-.91-.64-1.53-.98Z" style="fill-rule: evenodd;"/>
    </g>
  </g>
</svg>