<?xml version="1.0" encoding="UTF-8"?>
<svg id="Camada_2" data-name="Camada 2" xmlns="http://www.w3.org/2000/svg" viewBox="0 0 5.97 223.03">
  <g id="Camada_1-2" data-name="Camada 1">
    <g id="svg_bg_weapon_line4">
      <path d="M5.27,66.11c.02-4.19.79-11.41.69-17.34-.09-5.93.07-10.98-.25-12.74-.31-1.76-3.59-2.41-3.09.06.5,2.47.27,12.93.36,18.34.08,5.41-.54,10.91-.75,14.28-.22,3.38-1.42,5.49-1.36,9.71.06,4.22.77,9.82.82,15.78.05,5.96-.75,11.25-.69,17.34.05,6.09-.83,15.88-.62,20.91.2,5.02-.35,13.96-.12,20.39.23,6.43-.37,8.7-.24,14.28.13,5.58,1.1,6.76.73,11.2-.37,4.44-.42,10.23.29,14.77.71,4.55,1.16,5.7.67,8.14-.49,2.45-.38,3.69-.35,8.67.03,4.99-.45,8.57-.83,10.21-.38,1.64,1.27,4.33,2.1,2,.83-2.34.71-4.49.85-9.19.14-4.7-1.22-6.75-.68-8.65.54-1.91,1.66-4.21,1.39-8.18-.27-3.97-.84-11.47-1.34-15.77-.49-4.31-1.89-8.01-.78-13.75,1.11-5.74,1.27-11.04,1.23-16.33-.04-5.29.05-9.74.22-15.29.17-5.55-.12-5.11.3-11.22.42-6.11.25-10.43.22-15.29-.03-4.87.35-11.92.16-18.35-.19-6.44-.89-9.47-.26-13.25.63-3.78,1.31-6.54,1.34-10.73ZM2.89,23.34c.21,2.06,1.56,3.33,2.08.98.52-2.35.12-8.11.27-12.75s-.2-8.11-.2-10.19c0-2.08-2.34-1.29-2.59-.97-1.13,1.45-.03,7.56.23,11.72.26,4.16,0,9.15.22,11.21Z" style="fill-rule: evenodd;"/>
    </g>
  </g>
</svg>