<?xml version="1.0" encoding="UTF-8"?>
<svg id="Camada_2" data-name="Camada 2" xmlns="http://www.w3.org/2000/svg" viewBox="0 0 85.77 5.99">
  <g id="Camada_1-2" data-name="Camada 1">
    <g id="svg_line_initiative">
      <path d="M7.67,1.14c-.92.47-1.33.38-2.04.52-1.2.24-2.52,0-4.08,0C.91,2.32.64,2.62,0,3.27v.92c1.73,1.77,3.67,1.16,5.12,1.14,1.39-.01,2.3.62,3.06,0,.71-.58.88-1.54.88-1.54v-1.96c-.34-.35-.03-.34-.37-.69-.08-.04-.94.04-1.02,0ZM84.75,1.67c-1.69-.29-3.34-.34-6.13-.52-1.68-.11-3.22.25-4.59,0-1.03-.19-1.89-1.02-3.06-1.05-1.27-.03-.8-.2-2.04,0-.7.11-1.54.85-2.55,1.05-.24.05-.43.64-1.02.52-.79-.16-1.99-1.07-2.04-1.05-2.78-.11-5.23.56-7.66.52-2.37-.03-3.92-.42-6.64-.52-2.99-.28-8.3-.03-11.23,0-8.88.09-14.41.52-22.97.52.05-.14-1.32-.18-2.55,0-1.25.19-2.36.62-1.16,3.04.17.09-.22.55.65.62,1.97.16,3.73.31,7.69.19,3.51-.11,10.08-.17,14.26-.19,4.12-.01,9.25-.15,13.27,0,3.56.13,6.03.54,9.19.52,2.27-.01,4.26-.95,6.13-1.05,2.28-.11,3.23.96,4.59,1.05,1.34.08,2.5-.99,2.55-1.05.39,0,2.22.19,3.06.52.72.28,1.01.87,2.04,1.05,2.38.41,4.86-.18,7.15-.52,2.33-.35,4.08-.66,4.08-2.62-.15-.16.2-.84-1.02-1.05Z" style="fill-rule: evenodd;"/>
    </g>
  </g>
</svg>