<?xml version="1.0" encoding="UTF-8"?>
<svg id="Camada_2" data-name="Camada 2" xmlns="http://www.w3.org/2000/svg" viewBox="0 0 110.12 141.69">
  <g id="Camada_1-2" data-name="Camada 1">
    <g id="svg_bg_mana">
      <path d="M54.56,0s-2.59,3.07-5.1,6.12c-2.51,3.05-4.12,4.85-5.61,6.12-1.49,1.26-3.87,3.16-6.12,6.63-2.25,3.46-5.24,7.66-7.65,10.19-2.41,2.54-5.43,6.32-8.16,9.68-2.73,3.37-5.3,5.3-9.68,10.19-4.38,4.9-7.75,8.45-9.68,11.21-1.93,2.76-2.04,2.55-2.04,2.55v2.04s-.58.07-.51.51c.08.44.05.52,0,1.02-.05.5,0,1.02,0,1.02,0,0,1.65.77,2.04,2.04.39,1.26,2.12,3.29,5.1,7.65,2.97,4.35,6.77,8.17,9.68,12.74,2.91,4.58,4.58,8.29,8.67,13.25,4.09,4.96,8.49,11.41,12.23,17.33,3.74,5.91,6.49,10.75,10.7,15.29,4.22,4.54,6.12,5.61,6.12,5.61l.51.51s1.96-1.04,4.59-4.08c2.62-3.04,7.79-9.26,12.23-14.78,4.44-5.52,11.07-14.26,13.76-17.33,2.69-3.07,3.06-3.06,3.06-3.06h.51v-1.53s5.79-8.53,9.68-14.27,10.7-15.29,10.7-15.29c0,0-.17-.88,0-1.02.17-.14-.33-.05,0-.51.33-.46.51-2.55.51-2.55,0,0-1.67-2.98-7.14-9.68-5.47-6.7-13.25-15.8-13.25-15.8,0,0-1.99-5.72-7.14-11.72-5.15-6-15.84-18.21-19.88-22.94-4.03-4.72-7.65-7.14-7.65-7.14h-.51Z" style="fill-rule: evenodd;"/>
      <path d="M98.62,59.12c-4.54-5.65-9.03-9.83-11.72-14.27s-5.4-10.28-10.19-15.29c-4.8-5.01-8.1-9.64-12.74-14.78-4.64-5.14-9.17-9.68-9.17-9.68,0,0-.84,2.4-4.08,5.61s-4.5,4.02-8.67,9.17c-4.16,5.15-4.08,5.1-4.08,5.1,0,0,.5.84-2.04,3.57-2.54,2.73-3.52,3.55-9.17,10.19-5.66,6.65-10.59,12.47-15.8,18.35-5.21,5.88-7.14,8.16-7.14,8.16v.51s6.17,7.46,9.68,12.23,7.22,9.89,10.7,15.29c3.48,5.41,5.61,9.17,5.61,9.17,0,0,2.66,2.14,5.1,5.61,2.43,3.46,2.54,3.42,2.55,3.57.01.15.51,1.53.51,1.53,0,0,4.13,6.51,7.65,11.21,3.52,4.7,8.67,11.72,8.67,11.72l.51.51s8.53-10.15,11.21-13.25c2.69-3.1,2.55-3.06,2.55-3.06h.51s2.35-2.76,7.14-9.17c4.79-6.41,6.12-8.66,6.12-8.66l1.02-.51s1.49-1.2,3.57-4.08c1.2-1.66,2.46-4.1,4.08-6.63,4.41-6.89,5.05-8.62,9.68-14.78,4.63-6.16,5.61-7.14,5.61-7.14v-.51s-3.1-4.04-7.65-9.68ZM15.02,62.69c-1.2.3-1.09-2.04,0-2.04,1.19,0,1.2,1.74,0,2.04ZM19.1,58.1c-.61.51-1.86-.35-1.02-1.02.85-.68,1.63.51,1.02,1.02ZM24.2,52.5c-1.92,1.74-2.04,1.02-2.04,1.02-.14,0,0-1.02,0-1.02,0,0,1.77-3.18,3.57-4.08,1.78-.89,1.53.51,1.53.51l-.51.51s-.63,1.32-2.55,3.06ZM38.98,104.99h-1.02l-1.53-2.04s-.92-.98-4.08-4.59-3.39-4.46-4.08-5.61c-.69-1.15-2.16-2.43-1.53-3.06.89-.89,3.2,1.15,4.59,3.57,1.39,2.42,3.24,4.33,5.1,6.12,1.86,1.78.56,2.63,1.02,3.06s1.53,1.02,1.53,1.02v1.53ZM43.06,112.13h-1c.06,0,.23-.12-1.04-1.53-1.46-1.61-.51-2.55-.51-2.55,1.15-.89,2.04.51,2.04.51,0,0,.48,1.23,1.53,2.04,1.05.81-1.02,1.53-1.02,1.53ZM50.19,19.37c-.39,1.53-1.86,3.57-4.08,6.12-2.22,2.55-4.32,4.88-6.12,7.14-1.8,2.25-4.19,6.67-6.63,9.17-.9.93-1.49,2.09-2.04,2.55-.94.79-1.53.51-1.53.51h-.51l.51-1.02s.9-1.91,3.06-4.59c2.15-2.68,4.08-5.1,4.08-5.1v-.51l.51-1.02s-.12.13,2.55-3.06c2.66-3.19,4.05-4.8,6.12-7.14,2.07-2.34,1.88-2.85,2.55-3.57s1.92-1.02,1.53.51ZM63.45,121.3s-1.01,2.38-2.55,4.59c-1.54,2.21-4.08,5.1-4.08,5.1h-.51s-.41.47-2.04-.51c-1.63-.98-3.05-4.2-3.06-4.59-.01-.38-.51-1.02-.51-1.02l1.53-1.02c2.04.51,2.55,4.59,2.55,4.59h1.01s-.03-.14,1.03-1.53c1.26-1.66,5.1-5.61,5.1-5.61l1.53-.51v.51ZM73.64,107.03c-.05.38,0,1.02,0,1.02l-1.53,2.04s.18.43-1.02,2.55c-.51.91-1.27,1.41-2.04,2.55-1.03,1.51-2.04,3.57-2.04,3.57h-1.53l-.51-.51v-1.02s2.77-4.03,5.1-6.63c2.32-2.59,2.55-4.08,2.55-4.08h1.02s.05.13,0,.51ZM98.11,66.26h-1.02s-1.01-1.23-1.02-1.53c-.01-.3-1.02-.51-1.02-.51,0,0-.8-.3-1.53-1.02-.73-.72,1.02-1.02,1.02-1.02,1.83-.47,3.57,2.04,3.57,2.04l.51.51-.51,1.53ZM101.16,67.79s-.84.59-1.53,0-.51-1.02-.51-1.02c1.06-1.1,2.04.51,2.04.51v.51Z" style="fill: #fff; fill-rule: evenodd;"/>
    </g>
  </g>
</svg>