<?xml version="1.0" encoding="UTF-8"?>
<svg id="Camada_2" data-name="Camada 2" xmlns="http://www.w3.org/2000/svg" viewBox="0 0 121.41 108.13">
  <g id="Camada_1-2" data-name="Camada 1">
    <g id="svg_bg_rek">
      <path d="M60.67,6.64v-3.06S55.03.13,47.41.01c-7.62-.11-11.81.5-18.35.51-6.54.01-11.56.11-15.8,0C9.02.41,7.65.01,7.65.01l-2.04.51v1.02s.47,1.31.51,3.57c.03,1.8-.32,4.27-.51,6.63-.2,2.55-.43,7.5-.51,10.7-.08,3.47,0,5.1,0,5.1,0,0,.56.64.59.7.4.84,1.45,2.86,1.45,2.86,0,0,.26.49.45.85.02.04.04.1.06.17.33,1.18,0,6.63,0,6.63v2.04l-.51,1.53v2.04s.13.31,1.53,1.02c.24.12,1.02.51,1.02.51h0s-1.34.12-2.55,1.02c-.61.45-1.17.92-1.53,2.04-1.06,3.33-.28,4.64,0,6.63.28,1.99,1.02,3.57,1.02,3.57,0,0-.28,1.52-.51,2.04-.12.28-.29.24-.51,3.57-.19,2.86.02,9.27,0,9.27,0,0-1.05.98-2.03,2.45-.69,1.04-1.38,2.86-1.53,4.08-.36,2.94-1.94,5.27-2.04,9.17-.06,2.38.2,4,.51,6.12.2,1.35.51,1.52.51,3.06,0,1.1.93,4.64,3.57,5.61,2.64.97,5.23.78,10.19,1.53,3.96.59,7.94,1.2,13.76,0,5.83-1.2,8.16-2.04,8.16-2.04,0,0,5.13-.36,10.7-.51,3.74-.1,8.67,0,8.67,0,0,0,.76.67,3.57,1.02.85.11,3.15-.09,4.08,0,1.88.19,2.42-.08,3.57,0,1.28.09,3.06.51,3.06.51,0,0,1.5.18,2.55.51.94.3,1.37.73,2.55,1.02,1.17.29,1.88.24,3.06.51,3.66.84,7.14.51,7.14.51,0,0,1.46.29,4.08.51-3.13-.26-1.17.24,3.57,0,2.17-.11,3.55-.46,6.12-1.02,1.52-.33,2.57-.47,4.08-1.02.61-.22,2.24-.74,2.55-1.02h4.08s2.87-3.36,6.12-6.12c1.4-1.19,2.19-1.92,3.06-2.55,1.11-.81,2.1-1.36,2.04-1.53-.1-.31,0-1.53,0-1.53v-18.86s-.41-.9-1.02-1.02c-.61-.11-.51-.51-.51-.51,0,0,.23-2.24-1.02-3.57-.85-.9-2.08-1.94-2.55-2.55-.22-.29,0-.51,0-.51,0,0,2.97-1.92,3.57-4.08.6-2.15.61-4.15-.51-5.1-1.12-.94-1.53-1.02-1.53-1.02l-.51-.51s.31-.1.51-.51c.29-.58.51-1.53.51-1.53,0,0,1.85-.65,2.37-3.26.58-2.91.68-4.89.69-4.89v-2.04s.33-1.61-1.02-2.55c-.9-.62-1.53-.51-1.53-.51v-.51h.51s.95-.36,1.53-1.02c.43-.49.53-1.12.51-2.04-.02-1.25.13-3.75,0-5.61-.1-1.34-.49-2.05-.51-3.06-.04-2.41.51-8.15.51-8.15,0,0,.19-5.62,0-10.19-.16-3.95-.73-7.06-.51-5.61-.04-.24,0-1.53,0-1.53l-1.74-1.65c.35.45-2.17.14-4.89.63-1.11.2-2.11.21-3.57.51-5.01,1.03-5.1,1.02-5.1,1.02h-8.67s-2.16-1.15-4.08-2.04c-1.18-.54-1.91-.98-3.06-1.02-3.03-.11-6.78,1.13-11.21,1.53-1.49.13-2.88.19-4.59,0-.92-.1-4.17-.36-5.1-.51-1.06-.17-3.06,0-3.06,0l-1.02-.51h-1.53l-.51.51-1.02,1.02v.51l.51.51s-.15,1.2-.51,2.04c-.4.94-1.02,1.53-1.02,1.53Z" style="fill-rule: evenodd;"/>
      <path d="M117.59,16.41c-.1-4.78-1.02-11.21-1.02-11.21,0,0-2.93,0-7.14,1.02-4.21,1.01-8.92,1.85-12.74,1.02-3.83-.83-5.61-3.57-5.61-3.57h-6.63s-3.34,1.53-8.16,1.53c-4.82,0-10.19-.51-10.19-.51,0,0-3.09,4.5-4.59,6.63-1.5,2.13-1.53,2.55-1.53,2.55h-1.53l-1.02-1.02s-.31-4.49-.51-6.12c-.2-1.63,0-1.53,0-1.53,0,0-5.95-1.81-15.29-1.53-9.34.28-9.17.51-9.17.51,0,0-6.49-.85-11.72-.51-5.23.35-7.55.86-11.21,0,0,0,.39,4.05-.51,9.17-.9,5.12-2.45,9.82-1.02,12.74,1.43,2.93,3.57,5.1,3.57,5.1,0,0,.55-.15.51,0s.16.39,0,.51c0,0-.95.96-1.02,2.55s0,1.53,0,1.53c0,0,1.57.45,2.55.51.98.06,1.53,0,1.53,0v.51s.86,1.5-1.02,1.53c-1.88.03-3.06-.51-3.06-.51v3.57s1.22,1.79,3.06,2.04c1.84.25,4.08,0,4.08,0,0,0,.93,1.15,1.02,1.02,0,0,.09-.13,0,0,0,0,2.36-.35,3.57,0,1.21.35,1.53,1.02,1.53,1.02,0,0,.39-.25.51,0,.12.25.51.51.51.51l-.51,1.02s-.22.07-.51,0c-.29-.07-.51,0-.51,0l-.51-1.02-.51.51h-3.06l-.51-.51-4.59.51s-2.29,1.66-4.08,3.06c-1.79,1.4-2.04,1.53-2.04,1.53,0,0-.79,1.34-.51,1.53s1.02,1.02,1.02,1.02c0,0,.74,1.92,1.02,4.08.28,2.16,0,4.08,0,4.08,0,0-1.24,1.25-1.02,4.59s0,8.15,0,8.15c0,0-.92,1.85-2.04,3.57-1.12,1.72-1.02,1.53-1.02,1.53,0,0-1.11,2.27-1.02,4.08.09,1.81-1.05,4.08-1.02,7.14.03,3.05,1.22,4.27,1.02,6.63-.2,2.35,0,3.06,0,3.06,0,0,.29,1.37,1.53,1.53,1.24.15,5.93-.12,9.17.51,3.24.63,5.39.71,10.7,0,5.32-.71,10.74-1.62,15.29-2.04,4.55-.42,11.35-.12,16.31,0,2.32.06,3.42.35,6.12.51,3.08.18,7.72.26,9.68,1.02,3.69,1.43,6.38,1.82,10.19,2.04,3.82.22,6.85,1.31,10.7.51,3.85-.8,11.72-3.06,11.72-3.06,0,0,.99-2.48,2.04-4.59,1.05-2.11,1.09-5.41,3.06-6.12,1.97-.71,3.57,1.02,3.57,1.02l1.53,1.02v-16.82s-.86-.98-1.02-1.53c-.16-.55.13-2.07,0-2.04s0-.51,0-.51c0,0-.73-.03-2.55-1.02-1.82-.99-2.04-1.02-2.04-1.02h-3.06s-.76.29-1.02,0c-.26-.29-1.02-.51-1.02-.51v-1.02h.51l4.08-1.53h1.02v-1.53s3-2.03,4.08-3.06c1.08-1.02,1.02-1.02,1.02-1.02,0,0-.89-1.17-2.04-2.04-1.15-.87-1.53-.51-1.53-.51h-4.08s-.03-1.3.51-1.53c.54-.23,1.02-.51,1.02-.51h4.08l.51-1.02h-4.08l-1.02-1.02,1.02-1.53h3.06s.13-.54,1.02-1.53c.89-.99,1.53-1.53,1.53-1.53v-6.12s-.22-1.11-1.53-1.53c-1.31-.42-1.53-.51-1.53-.51h-3.57v-1.02l.51-1.53h4.08l2.04-2.04h.51s-.19-5.6,0-9.68c.19-4.08.61-5.92.51-10.7ZM10.55,19.98c-1.46.29-1.68-1.92-1.02-2.04,2.07-.38,2.48,1.75,1.02,2.04ZM13.1,12.84c-.89,1.82-2.04,3.06-2.04,3.06l-.51-.51v-.51s-.04-.71.51-2.55.51-3.57.51-3.57c0,0,.11-.97,1.02-1.02,1.85-.1,1.4,3.28.51,5.1ZM5.46,91.33c.35-.16,1.02,1.02,1.02,1.02,0,0,0,.44-1.02.51-1.01.07-.78-1.17,0-1.53ZM5.97,96.43c-.93-.08-.81-1.39,0-1.53,1.08-.19.93,1.61,0,1.53ZM10.04,81.14c-.63.64-2.01,2.22-2.55,3.57s-1.02,3.06-1.02,3.06h-.51s-.29-3,0-4.08c.29-1.08,1.91-3.72,3.06-4.08,1.66-.51,1.65.89,1.02,1.53ZM50.82,10.81c-1.12.06-1.49-1.59-.51-2.04.98-.45,1.41-.25,1.53.51.12.76.1,1.47-1.02,1.53ZM60,17.94c-.23,1.08-1.02,1.53-1.02,1.53,0,0-.66.04-1.02-1.02-.36-1.06-.31-3.07.51-3.57.89-.54,1.76,1.98,1.53,3.06ZM83.95,100c-1.37.07-.86-1.73,0-2.04.86-.31,1.43-.42,1.53,0,.1.42-.16,1.97-1.53,2.04ZM98.23,100s-.64,0-3.57,0-5.42.12-5.61,0c-.19-.12-.51-.51-.51-.51,0,0-.19-.61,1.53-1.02,3.47-.83,8.16-.51,8.16-.51,0,0,.41-.04.51,0,.1.04.51,1.02.51,1.02l-1.02,1.02ZM105.87,41.39c-1.24-.03-.82-1.6,0-2.04.96-.51,1.53,1.02,1.53,1.02,0,0-.29,1.05-1.53,1.02ZM107.91,11.31c-1.4.1-2.55,1.02-2.55,1.02l-.51-.51v-1.02s.41-.77,2.04-1.02c1.63-.25,2.38-.16,2.55,0,.16.16.38.98.51,1.02.13.04-.64.41-2.04.51ZM110.97,12.33c.51-.48,1.72-.48,2.04,0,.32.48-.26,1.49-1.02,1.53-.76.04-1.64-.95-1.02-1.53ZM113.01,17.94c-.63.07-1.07-1.26,0-1.53.51-.13.63,1.46,0,1.53ZM113.01,10.3c-1.11.39-2.36-.79-1.02-1.53,1.21-.67,2.13,1.14,1.02,1.53ZM112.5,92.35c-.47-.19.19.09-.51,1.53-.7,1.44-2.33,5.09-2.55,5.61-.22.51,5.61-5.1,5.61-5.1,0,0,.47-.1.51,0,.04.1,0-.51,0-.51,0,0-2.59-1.34-3.06-1.53Z" style="fill: #fff; fill-rule: evenodd;"/>
    </g>
  </g>
</svg>