<?xml version="1.0" encoding="UTF-8"?>
<svg id="Camada_2" data-name="Camada 2" xmlns="http://www.w3.org/2000/svg" viewBox="0 0 750.41 52.42">
  <g id="Camada_1-2" data-name="Camada 1">
    <g id="svg_bdb_talents">
      <path d="M10.8,0l-.51,8.91s-2.15-.6-3.57.51c-1.42,1.11-2.49,3.83-4.08,6.64S-.37,24.65.09,29.33c.17,1.73.89,4.1,1.32,5.95.72,3.17,1.54,5.82,4.3,8.34,4.36,4,10.85,1.87,14.28,1.02,3.43-.85,12.98-.43,17.85-.51,4.88-.09,8.13,2.13,12.75,1.53,2.02-.26,5.18-.49,8.62-.7,4.44-.28,9.34-.54,12.8-.83,3.08-.26,8.01-.34,13.21-.45,5.2-.11,10.67-.23,14.84-.57,8.36-.68,14.34-.6,21.42-1.02,7.09-.43,15.36-.6,20.91.51,5.55,1.11,16.46,1.19,25.5,1.02,9.04-.17,16.89.34,21.93,1.02,5.04.68,18.08.85,23.97,1.02,3.02.09,10.55.62,19.24,1.12,8.25.48,17.66.92,21.56.92,8.02,0,8.56-.34,15.81-.51,3.91-.09,10.41.62,17.21,1.04,5.83.36,12.01.37,15.44,1,7.43,1.36,20.46,2.21,30.6,2.04,10.15-.17,25.98-2.21,33.66-3.06s27.09-1.36,40.3,0c13.21,1.36,32.11,1.28,42.34,1.53,10.23.26,31,.51,45.4.51s41.2-.43,50.5-1.02c9.3-.6,30.75-2.3,39.79-2.55,9.04-.26,36.95,0,50.5.51,13.55.51,38.31.68,46.93,1.02,8.62.34,19.61,2.81,27.54,3.57,7.94.77,10.94.68,19.89.51,8.96-.17,10.85,1.19,14.28-2.55,3.43-3.74,5.5-9.1,5.61-18.38.06-4.73-2.38-12.41-2.79-19.31-.39-6.64.75-11.06.75-11.06h-4.02l.43,1L14.17,1.36V.36l-3.38-.36Z" style="fill-rule: evenodd;"/>
      <path d="M730.29,35.27c.23-6.04,3.06-11.23,3.06-11.23,0,0-1.15.16-2.8.96-1.52.73-3.47,2.09-5.36,2.61-3.94,1.11-9.07,1.11-15.3,1.02-6.24-.09-27.85-.94-36.73-1.02-8.87-.08-27.54-1.53-27.54-1.53,0,0,.03,2.38,0,6.13-.03,3.74-1.02,4.08-1.02,4.08l-.51.51-.51-5.62s-.06-.09-2.04-1.02-1.53-2.55-1.53-2.55c0,0-.23.26,0,1.53.23,1.28-.51,1.02-.51,1.02l-1.02.51.51,3.57-.51.51h-1.02s-1.08-7.32-4.59-7.15c-3.51.17-5.24.94-10.2,1.02-4.96.09-6.18-.34-10.2,0-4.02.34-4.14.09-7.14,0-3-.09-8.05.85-16.32,1.02-8.28.17-17.48.51-26.01.51-2.9,0-7.51-.05-11.96-.68-3.63-.51-6.99-1.58-10.64-1.91-5.03-.45-9.63.17-12.6.04-7.77-.34-14.25-.85-20.91-1.02-6.66-.17-24.79-.94-30.09-1.53-5.3-.6-11.36-.26-16.32,0s-24.11,1.28-32.13,1.53c-8.02.26-12.55-.85-18.87,0s-18.42,1.87-24.48,2.04c-6.06.17-17.34,0-17.34,0,0,0-1.42,1.53-2.04,2.55-.62,1.02-3.06,7.15-3.06,7.15l-1.53.51v-.51s-.65-3.15-.51-4.08c.14-.94-3.06-3.06-3.06-3.06,0,0-.4,1.02-2.04,1.02s-4.59.51-4.59.51c0,0-1.67,1.53-4.59,1.53s-3.29-2.04-5.1-4.08c-1.81-2.04-4.05-1.45-7.14-1.53-3.09-.09-7.45.94-13.77,1.02-6.32.09-20.63-1.7-26.52-2.55s-16.29-.43-23.97-.51c-7.68-.09-28.28-.09-33.15.51-4.88.6-9.24,0-13.26-.51s-8.05-.26-13.77-.51c-5.72-.26-9.75-1.62-16.83-2.04-7.09-.43-10.85-.77-14.79-1.02s-8.39-.6-13.26-1.53c-4.87-.94-10.2-1.53-10.2-1.53,0,0-1.17.89-2.3,2.65-.71,1.11-1.41,2.87-1.78,3.99-.96,2.89-1.02,4.59-1.02,4.59h-1.02v-3.06s.11-.34,0-.51.03-1.36-.51-2.55-2.55-4.08-2.55-4.08c0,0-1.5,1.87-3.06,1.53s-2.04-1.53-2.04-1.53l-1.02-.51s-.23.26-4.08.51c-3.85.26-9.24,1.02-14.28,1.53-5.05.51-7.2-1.11-11.22-1.02-4.02.09-8.13.43-12.75-.51-4.62-.94-8.39-1.7-13.77-1.53s-10.85-.85-13.26-1.02c-2.41-.17-7.54.6-11.73.51-4.19-.08-6.12-1.53-6.12-1.53,0,0-5.24-.26-8.16-.51-2.92-.26-4.59-1.53-4.59-1.53,0,0-2.35,2.38-4.59,5.62s-1.53,7.66-1.53,7.66l-.51.51s-.65,0-1.02-1.02c-.37-1.02-.4-5.02-.51-6.64-.11-1.62-1.02-5.1-1.02-5.1,0,0-.48,1.36-2.55.51-2.07-.85-2.04-1.53-2.04-1.53l-1.02.51-.51-.51s-2.1-.51-3.57-1.02-5.61,0-5.61,0c0,0-.65-.85-2.04-1.02-1.39-.17-3.57.51-3.57.51,0,0-3.63,5.45-4.59,10.21-.96,4.76.51,8.17.51,8.17l3.06-1.53h2.55s.88,2.47,0,3.06-2.04-.51-2.04-.51l-2.55,2.04s.12,1.73,1.06,3.48c.96,1.8,2.76,3.62,4.04,3.67,2.52.08,6.32-1.11,16.83-2.04,10.51-.94,16.18.26,19.38,1.02,3.2.77,8.96,0,16.83-.51,7.88-.51,21.96-.51,32.64-1.02s20.18-.6,30.6-1.53c5.92-.53,14.1.63,21.9,1.24,5.95.47,11.47.4,16.87.29,12.47-.26,26.72,1.87,40.3,2.04s32.76,3.15,52.03,2.04c19.27-1.11,51.97,2.98,66.31,4.08,14.34,1.11,39.48-2.98,56.11-4.08,16.63-1.11,34.88,1.87,54.58,2.04,19.69.17,49.42,1.19,67.84.51,18.42-.68,49.68-1.28,63.76-2.55,14.08-1.28,33.27-.6,50.5-1.02,17.23-.43,37.86,1.62,57.13,1.53,19.27-.09,34.88,3.66,44.89,4.59,10,.94,15.3,0,15.3,0,0,0-1.84-1.93-3.19-5.61-.84-2.28-1.49-5.86-1.4-8.17ZM745.59,24.04c-.6-4.67-1.95-8.73-1.53-14.8s.51-8.4.51-8.4H15.17v.26s3.96,1.37,4.08,2.02c.12.65-.51,1.53-.51,1.53l-.51.51v.51h.51l-.51,1.02s-.08.41-1.02,0c-.94-.41-.51-1.53-.51-1.53h-2.04v6.64s5.32.33,7.65,1.02c2.33.69,3.58.8,4.08,0,.5-.8,1.02-.51,1.02-.51l1.02,1.02-.51,1.53v.51h.51l2.04-2.55s2.05-.14,2.04,1.53,0,5.1,0,5.1l.51-.51s.82-1.12,2.04-2.55,2.04-3.06,2.04-3.06c0,0,2.9,1.18,6.63,1.53,3.73.35,8.67,1.02,8.67,1.02l2.55,1.02s6.51.2,10.2,0c3.69-.2,14.72-.14,19.38,0,4.67.14,9.11,1.14,12.75,1.53,3.65.4,6.47.71,10.71.51,4.24-.2,4.08,0,4.08,0,0,0,2.18,1.05,6.12,1.02,3.94-.03,9.06-.74,13.26-1.02,4.2-.28,8.67-.51,8.67-.51l2.04,2.04,2.55-1.53s.18.16,1.02,0c.84-.16,2.55,2.55,2.55,2.55h1.02l3.06-3.57h5.61s1.76.59,5,1.15c2.29.39,5.84.77,7.76.9,2.67.18,7.91,1.34,12.92,1.86,3.66.38,7.2.18,9.52.18,5.52.01,12,1.82,16.32,2.04,4.33.23,10.17-.14,13.77,0,1.66.06,3.32.78,5.73.93,2.82.18,6.49-.2,9.57-.42,5.73-.41,16.5-.52,23.97-.51,7.47.01,22.41.24,26.52,0,4.11-.24,8.21,1.22,14.79,2.04,6.58.82,19.48,1.52,25.5,1.02,6.03-.5,9.36-1.29,12.24.51,2.88,1.8,2.9,4.45,5.1,4.59s2.64-1.67,4.59-1.53,3.57,0,3.57,0c0,0-.08-1.93,1.53-2.04,1.61-.11,2.98,1.9,4.08,2.55,1.1.65,1.02,1.53,1.02,1.53l.51-.51,3.57-5.62,1.53-.51.51.51s7.27.42,14.78.22c6.35-.17,12.86-.92,15.31-1.24,5.35-.71,18.92-1.54,23.97-1.53,2.4,0,5.63.57,8.96.6,3.67.03,7.46-.47,10.42-.6,5.64-.24,16.2-1.03,22.95-1.53,6.75-.5,10.85.41,15.81,1.02,4.96.61,17.86.2,22.44.51,4.58.31,19.99,1.14,22.95,1.02,1.3-.05,3.76.57,6.92.71,4.07.17,8.94-.13,10.42-.2,2.63-.11,5.11,1.73,7.65,2.04,2.54.31,14.46.33,21.93.51,7.47.18,23.85-1.03,29.58-1.53,2.21-.19,4.43.32,7.26.38,2.69.06,5.66-.53,8.32-.64,1.8-.08,3.47.34,4.82.26,5.43-.33,5.19.07,8.67-.51,1.6-.27,3.13-.77,4.32-.13,1.39.75,2.31,2.68,2.31,2.68h.51s.22-1.25,1.02-3.06c.8-1.82,1.2-.69,2.04.51.84,1.2,1.53,2.55,1.53,2.55h.51v-3.57s.91-.81,2.8-1.08c1.65-.24,4.15.05,5.87.06,3.69.01,10.64,1.14,14.79,1.02,4.16-.11,26.49.41,30.09.51,3.6.1,18.92.88,22.95.51,4.03-.37,7.58-2.05,10.71-3.57,3.14-1.52,4.08-1.53,4.08-1.53h1.02l1.53,2.04s-2.37,1.69-3.57,5.1c-1.2,3.42-1.48,8.88-.51,13.27.97,4.39,3.58,8.67,6.63,8.17,3.05-.5,6.13-6.27,6.63-10.72.5-4.45.09-10.14-.51-14.8Z" style="fill: #fff; fill-rule: evenodd;"/>
    </g>
  </g>
</svg>