<?xml version="1.0" encoding="UTF-8"?>
<svg id="Camada_2" data-name="Camada 2" xmlns="http://www.w3.org/2000/svg" viewBox="0 0 85.99 5.98">
  <g id="Camada_1-2" data-name="Camada 1">
    <path id="svg_line_luck" d="M2.45,1.38c-.91.22-1.5.4-1.97,1.08-.5.73-.81,1.97.11,2.62,1.62.52.7.6,2.44.82,2.4.31,5.68-.44,8.65-.49,3.25-.05,6.27.22,10.18,0,1.74-.1,2.23-.23,4.07-.49.9-.13,3.46-.41,4.07-.49,2,.21,2.54.69,4.07.98,2.72.52,6.11,0,6.11,0,0,0,4.47-.13,11.2,0,3.73.07,8.54.39,12.72.49,4.81.11,8.94,0,12.07-.09,1.84-.18,4.91-.73,6.76-.89,2.07-.18,3.05-.98,3.05-.98.01-.01,0-1.97,0-1.97,0,0-2.8-.5-8.12-.51-2.42,0-3.57-.24-6.64.02-1.94.16-3.88,1.31-6.11,1.48-2.14.15-2.09-.83-4.07-.98-4.38-.34-3.16-.67-8.65-.98-2.91-.17-4.76.06-8.65,0-2.42-.04-5.78.26-8.65,0C32.41.75,30.22-.06,27.96,0c-2.99.08-4.89.65-6.62.98-2.3-.13-3.64.1-6.11,0-3.44-.14-7.13.49-7.13.49,0,0-3.35-.12-4.07,0" style="fill-rule: evenodd;"/>
  </g>
</svg>