<?xml version="1.0" encoding="UTF-8"?>
<svg id="Camada_2" data-name="Camada 2" xmlns="http://www.w3.org/2000/svg" viewBox="0 0 137.6 133.26">
  <g id="Camada_1-2" data-name="Camada 1">
    <g id="svg_bg_wounds">
      <path d="M71.19,16.54s-4.71-5.8-13.25-9.68c-8.55-3.88-18.25-6.02-29.05-3.06-3.03.83-6.22,2.78-8.67,4.08-6.28,3.33-10.41,7.37-14.78,14.27C-.63,31.73-1.31,43.5,1.87,55.79c1.17,4.51,2.85,6.43,4.08,9.68,2.13,5.61,3.97,11.43,7.14,14.27,3.42,3.08,5.7,5.89,8.16,9.68,1.13,1.75,2.02,4.33,3.57,6.12,2.96,3.4,6.58,6.61,10.7,10.19,2.74,2.38,5.49,5.04,9.17,7.65,1.88,1.33,4.26,2.33,6.12,3.57,2.01,1.35,3.47,2.93,5.1,4.08,4.21,2.97,7.07,5.22,10.19,7.14,5.43,3.33,6.12,3.57,6.12,3.57l1.02,1.02,1.53.51,2.55-1.53s11.97-9.88,21.92-19.88c3.02-3.04,6.29-6.28,9.17-9.68,3.5-4.12,6.3-8.09,5.61-7.14.57-.79-.07-1.23.51-2.04,3.46-4.79,7.7-10.54,10.7-14.78,1.46-2.06,3.38-6.43,4.59-8.66,4.88-8.98,7.14-16.92,7.65-26.5.63-11.97-.41-25.46-9.68-33.64C118.49,1.23,105.73-2,94.13,1.25c-4.34,1.22-8.04,2-11.72,4.59-3.13,2.19-6.63,6.01-8.67,8.15-1.98,2.09-2.55,2.55-2.55,2.55Z" style="fill-rule: evenodd;"/>
      <path d="M131.85,27.53c-.62-5.31-1.55-9-6.12-13.74-1.87-1.94-4.2-3.99-6.11-5.12-1.93-1.14-3.43-1.35-5.1-2.04-3.1-1.28-5.6-2.34-8.66-2.55-3.87-.26-9.26.43-12.23,1.53-7.84,2.9-8.67,2.55-8.67,2.55,0,0-2.29,1.28-4.08,3.06-1.58,1.57-3.09,4.07-4.59,5.61-2.46,2.52-2.92,3.29-5.1,5.1l-1.53-.51s-4.73-6.38-12.74-10.7c-8.01-4.32-18.15-4.68-24.98-3.57-6.82,1.12-11.61,5.25-16.31,8.66-4.7,3.41-6.34,5.42-8.67,11.21-1.7,4.24-2.51,9.03-2.55,14.78-.01,2.09-.38,5.96,0,7.65,1.42,6.3,3.68,11.29,4.59,14.27.91,2.99,2.15,7.55,5.61,11.72,2.71,3.27,4.42,3.92,7.14,7.65.75,1.03,1.62,3.15,2.55,4.59,4.31,6.64,7.16,10.35,8.16,10.7.99.35,1.02,0,1.02,0,0,0,4.2,3.41,8.67,7.14,1.86,1.55,2.96,3.16,5.1,4.59,7.28,4.85,7.5,5.76,13.76,9.68,1.82,1.14,5.06,3.69,6.63,4.59,3.83,2.19,6.63,3.06,6.63,3.06,0,0,2.75-1.23,6.12-4.59.79-.79,1.59-2.19,2.55-3.06,2.53-2.3,4.67-3.49,6.63-5.1,1.35-1.1,2.52-2.55,4.08-4.08,2.15-2.11,3.56-3.97,6.12-6.63,2.71-2.82,5.61-5.46,7.65-8.15,3.3-4.37,6.01-9.42,10.19-15.29,1-1.41,1.57-1.57,2.55-3.06,5.65-8.55,11.61-20.68,12.23-31.09.38-6.21.13-13.36-.51-18.86ZM7.99,49.96c-.42-2.73-1.05-6.57-1.02-9.17.03-2.6.11-5.08,1.02-5.61.76-.45,1.53,0,1.53,0,0,0-.03,5.73,0,10.7.03,4.98,1.02,8.15,1.02,8.15v1.02h-.51s-.09.18-1.02-1.02c-.93-1.2-.6-1.35-1.02-4.08ZM10.54,60.15c-.99-.12-1.36-2.09-.51-2.04,2.29.13,1.5,2.16.51,2.04ZM13.59,67.79c-.99,0-.79-1.97,0-2.04,1.53-.13.99,2.03,0,2.04ZM16.65,20.9c-.42,1.22-2.19,2.48-4.08,5.1-1.88,2.62-3.06,6.63-3.06,6.63l-.51,1.02c-.57-3.31.16-6.32,1.02-7.65s1.82-3.64,4.08-5.61c2.26-1.97,2.97-.71,2.55.51ZM72.72,123.35c-1.37.14-1.53-1.02-1.53-1.02h-1.53s-1.75-.52-3.57-2.04c-1.82-1.52-.28-3.32,1.02-2.55,1.3.77,3.57,2.55,3.57,2.55l1.53.51s.48.05,1.02.51.86,1.9-.51,2.04ZM77.82,23.96c-1.31-.12-1.77-1.78-1.02-2.04,1.08-.38,2.33,2.16,1.02,2.04ZM84.95,16.32c-.99.96-4.08,3.57-4.08,3.57,0,0-1.37,1.27-2.04,1.02-.67-.25-.22-1.6.51-2.55s3.38-4.66,4.59-5.1c2.48-.89,2.01,2.09,1.02,3.06ZM121.14,68.81c-1.06.96-1.88,1.78-2.04,1.02-.16-.76.92-4.56,2.04-5.1,1.34-.64,1.53,1.53,1.53,1.53,0,0-.47,1.58-1.53,2.55ZM125.73,60.15c-.16.52-1.43.95-2.04.51-.61-.44.51-1.53.51-1.53,1.02-.45,1.69.5,1.53,1.02ZM129.3,45.37c-.61,3.64-1.43,8.53-2.55,10.19-1.12,1.67-1.24-.03-1.02-1.02.32-1.4.42-3.45.51-4.08s0-.51,0-.51c0,0,.23-1.86,1.02-5.1.79-3.24-1.02-6.63-1.02-6.63,0,0,.61-1.16,2.04-1.02,1.43.14,1.63,4.51,1.02,8.15Z" style="fill: #fff; fill-rule: evenodd;"/>
    </g>
  </g>
</svg>