<?xml version="1.0" encoding="UTF-8"?>
<svg id="Camada_2" data-name="Camada 2" xmlns="http://www.w3.org/2000/svg" viewBox="0 0 117.91 134.65">
  <g id="Camada_1-2" data-name="Camada 1">
    <g id="svg_bg_defence_hover">
      <path d="M56.68.53c-.34-.18-1.48.54-4.08,3.06-2.6,2.52-4.61,2.65-8.16,4.59-3.54,1.94-10.7,2.04-10.7,2.04,0,0-2.21,1.78-7.65,1.53-5.44-.25-10.51-2.45-15.8-4.08-5.29-1.63-7.14-2.04-7.14-2.04l-1.53,1.02s-.81,6.34-1.02,16.82c-.08,4.11.22,11.75,0,15.8-.25,4.66,0,9.3,0,14.27,0,10.38.25,21.08,2.04,28.54.86,3.57,1.92,7.9,4.08,11.72.93,1.65,1.9,2.09,3.06,3.57,1.55,1.98,3.32,4.91,4.59,6.63,2.38,3.22,3.35,5.05,5.61,6.63,2.48,1.73,1.61,1.95,4.08,3.57,3.95,2.58,11.31,6.56,15.8,9.68,7.28,5.06,14.29,9.2,14.95,9.42.8.27,1.16.66,1.87.77,1.19.19,2.55,0,2.55,0l.51-.51s3.03-.77,8.16-4.59c4.73-3.52,14.9-11.5,21.41-17.84.54-.53,3.11-2.58,3.57-3.06,5.92-6.22,13.23-15.55,16.82-26.5,1.62-4.94,3.48-10.05,4.59-16.31,1.34-7.62,1.79-16.24,2.04-19.37.46-5.71,1.07-26.91,1.02-32.62-.05-5.71.19-5.14,0-5.61-.19-.47-1.02-1.53-1.02-1.53,0,0,.27-2.45-.51-3.57-.78-1.12-.68-1.43-1.53-1.53-.85-.1-.83.61-1.53.51-.7-.1.12.47-5.61,3.57-2.19,1.19-6.02,3-9.68,4.08-5.93,1.75-12.43,2.4-18.35,1.53-4.86-.72-9.88-2.72-14.27-5.1-4.28-2.32-7.99-5.01-8.16-5.1Z" style="fill: #fff; fill-rule: evenodd; stroke: #000; stroke-miterlimit: 10;"/>
      <path d="M101.77,12.26c-6.38,2.3-17.72,4.25-26,2.04-8.28-2.21-18.86-9.17-18.86-9.17,0,0-3.45,2.8-7.65,5.61-4.2,2.81-13.86,3.45-15.8,4.08-1.94.63-7.82,2.14-13.76.51-5.95-1.63-13.76-5.1-13.76-5.1,0,0-.46,5.2-.51,16.31-.05,11.11-.53,36.95,0,44.34.53,7.4,3.11,18.09,8.16,24.97,5.05,6.89,9.51,12.19,13.76,15.29,4.25,3.1,10.53,5.93,16.31,10.19,5.78,4.27,13.76,8.15,13.76,8.15h2.04l1.53-.51s10.02-6.16,18.86-14.27c7.02-6.45,11.66-10.73,15.29-15.29.94-1.18,1.08-.43,2.04-2.04.39-.64,3.17-4.38,3.57-5.1,2.26-4.11,4.32-10.27,6.12-15.8,1.71-5.26,3.2-9.93,3.57-12.74.82-6.29,1.8-16.28,2.04-26.5.24-10.22.51-30.58.51-30.58,0,0-4.83,3.31-11.21,5.61ZM9.01,18.37c.44-.44,2.04.51,2.04.51,0,0-.19.48-.51,3.57-.32,3.09-.49,10.89-.51,14.78-.02,3.89,0,6.63,0,6.63h-1.02l-1.02-.51s-.05-3.96,0-9.17c.05-5.21-.27-14.51,1.02-15.8ZM7.99,72.4s-.19-6.87,0-11.72c.19-4.85-.83-11.6,0-11.72.95-.15,2.04,1.53,2.04,1.53,0,0,.17.63,0,4.59-.17,3.96,0,15.29,0,15.29,0,0-.05.48-.51,1.53-.46,1.05-1.53.51-1.53.51ZM10.53,81.57c-1.04.1-1.6-1.96-1.02-2.04,2.18-.29,2.06,1.94,1.02,2.04ZM58.96,12.26c-1.92-1.5-1.55-1.56-.51-2.04,1.6-.73,3.06,1.02,3.06,1.02,0,0,.1.12,2.55,2.04,2.45,1.92,4.59,3.06,4.59,3.06l.51,1.02s-.7.04-1.02,0c-.32-.04-.27.12-2.55-.51s-4.71-3.09-6.63-4.59ZM71.19,117.76s-2.21,2.14-4.08,3.57c-1.87,1.43-4.73,3.49-5.61,2.55-.95-1.03,1.02-1.53,1.02-1.53,0,0,5-3.97,5.61-5.1.61-1.12,1.43-2.01,2.55-1.02s.51,1.53.51,1.53ZM80.88,20.41s-4.71.55-7.14,0c-2.43-.55-2.09-2.58-1.53-3.06.56-.48,1.26.63,3.57,1.02,2.31.39,4.59,0,4.59,0l.51,1.02v1.02ZM84.95,20.92c-.75-.12-1.5-1.73-.51-1.53,2.11.44,1.26,1.64.51,1.53ZM102.79,82.08c-.24,1.34-1,2.45-2.04,2.04-1.04-.41.1-2.36,0-3.06-.1-.7.1-1.05.51-1.53.41-.48,1.53,0,1.53,0,0,0,.24,1.21,0,2.55ZM109.42,52.52c-.02,4.4-.7,7.83-1.53,12.74-.83,4.91-3.06,8.66-3.06,8.66h-.51l-.51-.51s-.57-.15,0-1.02c1.53-2.33,2.04-6.63,2.04-6.63v-.51s.46-1.49,1.02-6.63c.56-5.14.17-10.37,0-12.23-.17-1.86,1.84-1.41,2.55-.51.7.9.02,2.23,0,6.63Z" style="fill-rule: evenodd;"/>
    </g>
  </g>
</svg>