<?xml version="1.0" encoding="UTF-8"?>
<svg id="Camada_2" data-name="Camada 2" xmlns="http://www.w3.org/2000/svg" viewBox="0 0 228.01 5.99">
  <g id="Camada_1-2" data-name="Camada 1">
    <g id="svg_line_name">
      <path d="M101.27,1.35s-2.98-.32-3.05-.32c-3.5-.35-4.21-.15-6.62-.32-2.26-.16-3.32-.32-6.62-.65-3.24-.17-7.09.11-11.17.41-1.63.12-5.36.28-7.66.24-3.08-.05-4.58-.32-4.58-.32h-7.12s-4.7.28-8.14.65c-2.81.3-4.26.66-5.89.92-2.14-.26-3.17-.66-5.31-.92-1.52-.19-9.16,0-9.16,0,0,0-4.6.35-8.65.73-1.83-.03-4.22.06-6.54.14-1.87.06-3.7.12-5.16.1-1.7-.05-3.56,0-3.56,0,0,0-.96.2-1.53.65-.43.34-.51.97-.51.97,0,0,.85.83,1.02.97.48,0,.54.33,1.02.32,6.57-.05,12.21-.97,12.21-.97h5.09l1.53.32s1.35-.17,4.58-.32c1.46-.07,5.09-.19,6.03-.19,2.84,0,4.78.4,7.7.52,2.72.11,4.72-.55,7.63-.65,3.53-.12,11.05-.42,11.05-.42,0,0,6.42.77,11.34.79,3.1-.28,6.78-.58,9.67-.69,1.61-.06,2.96-.16,5.6,0,2.09.13,5.37.49,7.63.65,0,0,10.61-.01,10.61-1.53,0-.22-1.46-1.06-1.46-1.06ZM226.96,2c-.55-.24-1.13-.3-2.54-.32-1.73-.03-3.05.97-3.05.97,0,0-1.96-.67-3.56-.65-2.27.03-2.84.19-3.56.32-.48.09-1.8.07-3.05,0-1.86-.11-3.05-.65-3.05-.65h-10.18l-4.07-.65s-8.65-.34-12.72-.32c-4.38.01-6.25-.14-8.36-.14,0,0-3.81-.14-7.93.14-3.61.25-7.25.92-11.7.97-3.68.04-5.53-.45-8.65-.65-2.75-.17-6.82-.04-9.16,0-3.85.07-5.09.32-5.09.32,0,0-2.11.16-4.07,0-1.49-.12-2.67-.57-4.07-.65-2.86-.15-4.07,0-4.07,0,0,0-2.43.49-4.07.65-1.71.16-2.35-.23-3.56,0-.91.17-1.05.36-1.45.64-.12.39-.24.77-.36,1.16,1.49,1.42,4.42,1.17,7.92.79,2.83-.31,6.19-.65,8.14-.65,1.78.04,4.84-.04,6.62,0,2.71.06,4.64.54,7.34.6,2.41-.12,5.78-.26,8.43-.27,2.17-.01,3.63.1,5.6,0,1.38.21,1.67.44,3.05.65,2.01.3,5.6.32,5.6.32,0,0,1.29-.24,4.07-.32,2.98-.09,7.54-.03,9.82-.14,4.2,0,7.26.15,11.05.47,2.45.21,5.62.5,8.22.83.29.08.58.15.87.23,0,0,2.49.56,6.18.24,2.09-.18,4.22-.61,6.11-.97,1.9-.36,3.56-.65,3.56-.65,0,0,2.02.38,3.56.65,1.4.25,2.26.39,3.56.32,2.73-.15,3.05-.97,3.05-.97,0,0,.77.84,2.04.97.33.04,1.55.1,3.05-.32.86-.24,1.3-.75,1.53-1.3.02-.05.27-1.06-1.02-1.62Z" style="fill-rule: evenodd;"/>
    </g>
  </g>
</svg>