<?xml version="1.0" encoding="UTF-8"?>
<svg id="Camada_2" data-name="Camada 2" xmlns="http://www.w3.org/2000/svg" viewBox="0 0 6.03 221.04">
  <g id="Camada_1-2" data-name="Camada 1">
    <g id="svg_bg_weapon_line2">
      <path d="M2.7,24.14c-.28,3.33-.46,5.74.78,6.09,1.24.35,1.53-2.06,1.69-5.12.16-3.07-1.07-6.65-.25-9.15.82-2.51,1.12-3.26,1.01-7.65-.11-4.4-.2-7.12-.2-7.12,0,0-1.17-1.78-2.46-.97-1.3.81-.75,2.44-.43,6.62.32,4.18.49,5.92-.37,8.66-.86,2.74.51,5.31.24,8.65ZM6.01,78.01c-.14-4.3-1.34-8.17-.96-12.7.38-4.53,1-4.84.95-9.69-.04-4.84-.29-11.5-.41-14.75-.05-1.54-.25-3.22-.72-4.06-.71-1.25-1.84-1.16-2.45-.46-.76.88-.63,3.74-.41,7.13.29,4.44.33,9.51.36,13.22.04,3.71-1.5,8.15-.9,11.72.61,3.57,1.77,3.76,1.44,8.11-.32,4.35.23,10.15-.27,12.22s-.69,4.32-.97,9.18c-.27,4.86-.41,7.56-.2,14.76.21,7.2-.58,12.71-.7,18.84-.12,6.13,1.1,8.51.99,13.72-.11,5.21-.62,9.72-.8,15.28-.18,5.56-.81,8.3-.78,15.79.03,7.49,1.35,10.64,1,14.23s-.76,6.2-.9,11.72c-.14,5.53.19,11.42-.2,14.76-.39,3.34.51,5.28,1.3,3.03s1.27-4.53,1.62-7.67c.35-3.13.52-4.23.33-10.18s.95-7.77.91-11.21c-.04-3.44-.41-10.38-.43-15.77-.02-5.38-.67-11.23-.48-17.29.19-6.06-.26-11.85.09-18.83.35-6.98.96-17.25,1.2-22.92.24-5.68.86-12.7.7-18.84-.16-6.15.83-15.05.69-19.35Z" style="fill-rule: evenodd;"/>
    </g>
  </g>
</svg>