<?xml version="1.0" encoding="UTF-8"?>
<svg id="Camada_2" data-name="Camada 2" xmlns="http://www.w3.org/2000/svg" viewBox="0 0 56.02 6">
  <g id="Camada_1-2" data-name="Camada 1">
    <path id="svg_line_age" d="M.27,3.72c-.98,1.49,1.02,2.29,1.02,2.29h14.32l39.38-.46s.9-1.33,1.02-1.83c-.71-1.27-.15-1.12-2.05-1.37-1.83-.25-7.16-.91-7.16-.91,0,0-3.31.31-6.47-.56,0,0-3.55-.08-7.85-.35-2.97-.19-5.75-.69-10.23-.46-3.39.17-9.38,1.23-13.3,1.83-4.52.69-6.8.91-7.67.91-.04.08-.98.84-1.02.91Z" style="fill-rule: evenodd;"/>
  </g>
</svg>