<?xml version="1.0" encoding="UTF-8"?>
<svg id="Camada_2" data-name="Camada 2" xmlns="http://www.w3.org/2000/svg" viewBox="0 0 39.3 52.7">
  <g id="Camada_1-2" data-name="Camada 1">
    <g id="svg_text_class">
      <path d="M15.81,45.53s-.69-.45-2.56-2.04c-1.19.8-1.19,2-1.53,3.07-.48,1.53-1.29,2.85-4.23,2.85-1.54,0-3.25-1.94-3.95-3.86-.64-1.75-.36-3.44,0-4.6.26-.85,1.14-1.41,2.04-1.54.88-.12,2.05,0,2.05,0,0,0,.81-.81,1.02-1.02.29-.29.51-.51.51-.51,0,0-.14-1.24-1.03-2.04-.42-.38-1.54-1.53-1.54-1.53l-.51.51s-.14.97-.13,1.84c-1.2-.05-2.98.51-3.96,1.24-1.02.76-1.24,1.71-1.53,2.56-.75,2.17-.6,5.19.52,7.16,1.66,2.91,4.27,4.97,7.17,5.1,1.53.07,3.62-1.25,4.6-2.56,1.13-1.52,1.02-3.07,1.02-3.07h2.05s0-1.54,0-1.54ZM12.72,29.17h0s0-.02,0,0ZM22.44,33.76l-1.02,1.02s.59.45,1.02,1.02c.25.33.34.74.51,1.02-.85,1.02-2.55,3.58-2.55,3.58,0,0-1.7-1.7-3.07-3.06-2.12-2.11-4.61-5.11-4.61-5.11,0,0,.04-1.88,0-3.07,0,.03,0,.02,0,0l-.95.07c-.15.05-.3.1-.44.16-1.15,1.17-2.57,2.7-3.72,3.87.65.84,1.54,1.53,1.54,1.53l1.02-1.02c1.34,1.33,3.05,3.44,4.61,5.11,1.93,2.06,3.58,3.57,3.58,3.57,0,0,.3.7.51,1.53.16.63.2,1.43.51,1.53,1.34.01,2.04-.51,2.04-.51v-2.05s.37-.47,1.53-2.05c.66-.9,2.1-2.3,2.55-3.07-.6-1.09-1.37-3.42-2.05-4.09-.49-.48-1.02,0-1.02,0ZM31.63,25.05s-2.33-1.19-3.58-1.53c-4.07-1.09-9.21-1.52-9.21-1.52v-2.05s-1.11.04-1.54,0c-.38.43-.22.57-.51,1.02-.27.44-1.53,1.54-1.53,1.54,0,0,.08,1.7-.05,2.57.13.23,1.59-.01,1.59-.01,0,0,.49-.27,1.02-.51.75.92,1.43,1.58,2.56,3.06.87,1.15,2.16,3.11,3.07,4.09,1.68,1.78,3.07,2.55,3.07,2.55l.51.51v1.53s1.54,0,1.54,0c0,0,.58-.42,1.02-1.54.56-1.42.51-3.58.51-3.58h-1.53s-.51,1.03-.51,1.03h-.51s-1.02-1.53-1.02-1.53c0,0,.03-.64.04-.71.11-.49.34-1.47.47-1.85.31-.97.51-1.02.51-1.02h3.07s0,1.02,0,1.02l1.53.51s1.06-1.49,1.53-3.07c.3-1.01.51-2.05.51-2.05h-2.05s-.51,1.54-.51,1.54ZM22.43,25.57h.51s1.53,0,1.53,0v1.53s-2.05-1.53-2.05-1.53ZM32.12,13.8c-1.03-.55-1.89-.65-3.07,0-1.19.66-2.2,2.09-2.55,2.56-.54.71-1.1,1.27-1.53,1.02-.44-.25-.76-1.33-.52-2.56.29-1.43,2.04-2.56,2.04-2.56v-.51s-1.52-1-2.05-1.53c-.49-.49,0-.51,0-.51h-2.05s0,1.03,0,1.03c0,0,.03.97,0,1.02.42.21.51,0,.51,0v.51s-.75.76-1.02,2.56c-.57,3.81,2.41,5.11,4.46,4.51,1.3-.38,1.76-1.59,2.7-2.48.83-.79,1.69-.79,2.04-.51.69.54.49,1.65.51,2.04.07,1.02-.03,1.68-.51,2.05-.25.2-1.02,0-1.02,0v1.53s.51,0,.51,0c0,0,.27.18.58.39.43.29.95.63.95.63h1.53s0-1.54,0-1.54c0,.04,1.01-.7,1-3.33-.01-3.29-1.58-3.82-2.55-4.34ZM39.27,8.16c-.24-3.28-.97-3.62-2.05-4.09-1.15-.49-1.9-.91-3.07-.51-1.36.47-2.11,1.08-3.06,2.05-.64.65-2.07.74-2.56.52-.5-.23-.79-.31-.51-1.53.21-.97,1.02-1.02,1.02-1.02v-1.53s-.61-.73-1.22-1.23c-.56-.46-.32-.81-.32-.81h-1.53s-.51,1.03-.51,1.03c0,0,.03.97,0,1.02.46.19.51.51.51.51v.51s-.31.24-.51,2.05c-.32,2.9,2.31,4.16,4.61,4.08.96-.03,2.11-1.11,3.06-2.05.84-.83,1.42-1.6,2.56-1.03.83.42.97,1.65,1.03,2.04.14,1.01-1.04,2.68-1.53,3.07-.26.21-.51,0-.51,0l.03.99-.03,1.06s.16.01.51.51c.61.87,1.02,1.53,1.02,1.53h.51s0,.51,0,.51h1.02s.51-.51.51-.51v-1.53s-.51.04-.52-.82c0-.07,0-.14,0-.2.06-.73.79-1.25.79-1.25,0,.04.92-.73.74-3.35Z" style="fill-rule: evenodd;"/>
    </g>
  </g>
</svg>