<?xml version="1.0" encoding="UTF-8"?>
<svg id="Camada_2" data-name="Camada 2" xmlns="http://www.w3.org/2000/svg" viewBox="0 0 6.03 220.02">
  <g id="Camada_1-2" data-name="Camada 1">
    <g id="svg_bg_weapon_line3">
      <path d="M5.96,65.88c-.27-5.41-.75-10.3-.98-14.24-.23-3.95-.4-9.6-.4-14.26,0-4.65-1.09-12.42-.51-17.82.59-5.4.32-9.3.2-13.25-.12-3.95-.03-3.91-.14-5.09C4.01.03,2.52-.28,1.81.24c-.71.52-.73,2.82-.4,6.12.33,3.3.74,9.25.93,12.72.19,3.46.48,6.49.27,9.67s-.39,6-.31,9.18c.08,3.18-.1,6.09.25,8.66.35,2.57.58,6.14.25,8.66-.33,2.52-.44,8.1-.27,10.71.17,2.6,0,8.51-.22,12.23s.15,8.79-.2,13.25c-.35,4.46,0,11.25-.15,14.78-.16,3.53-.81,10.24-.75,13.77.05,3.53-.16,6.47,1.32,6.08,1.48-.39.65-5.33.87-9.7.22-4.37,1.05-7.38,1.34-13.28.29-5.9.31-13.47.61-18.87s.9-12.95.62-18.36ZM3.51,140.83c-.15-2.84.58-5.46-.19-6.62-.54-.81-2.58-.14-2.86.06-.68.49-.45,4.02-.33,8.67.12,4.65,1.34,6.59,1.42,9.65.07,3.06-.49,5.01-.85,10.21-.37,5.2-.2,15.07,0,19.87.2,4.8,1.39,16.88,1.15,20.35-.24,3.48-1.45,5.13-1.47,8.69-.02,3.57.04,3.63.17,6.11s2.18,3.33,2.29-.05c.11-3.38-.97-6.73-.27-9.67.69-2.95.87-6.32.8-12.25-.07-5.92.61-11.73.59-19.38s.38-12.14.02-19.36c-.36-7.22-.21-11.46-.46-16.29Z" style="fill-rule: evenodd;"/>
    </g>
  </g>
</svg>