<?xml version="1.0" encoding="UTF-8"?>
<svg id="Camada_2" data-name="Camada 2" xmlns="http://www.w3.org/2000/svg" viewBox="0 0 87 6.02">
  <g id="Camada_1-2" data-name="Camada 1">
    <path id="svg_line_exp" d="M1.03,1.02S.15,2.23.02,3.02c-.12.71.51,1,.51,1l1.53,1s3.05-.06,7.12,0c3.61.06,8.1.25,10.8.03,2.07-.17,3.72-.54,5.99-.53,2.55.01,5.74.43,8.14.5,4.72.15,8.79.26,13.23.5,3,.16,4.42.56,7.63.5,2.47-.04,5.43-.28,8.65-.5,2.09-.14,4.58-.17,6.11-.5,3.32-.21,7.94.48,11.19.5,2.57.01,3.05,0,3.05,0,0,0,1.36-.47,2.04-1,.73-.58.89-1.51,1-1.84-1.2-1.76-1.69-2.58-5.07-2.65-.85-.02-3.68.45-4.58.5-3.08.18-6.31.24-7.78.41-1.71.2-4.58,1.08-6.47,1.09-5.38.03-10.28-1.31-15.77-1.5-4.97-.17-9.23.53-13.58.04C30.66.22,27.23,0,22.94.17c-3.76-.51-6.04.31-8.68.35C10.28.59,5.93-.13,2.05.02c.04-.08-1.02,1-1.02,1Z" style="fill-rule: evenodd;"/>
  </g>
</svg>