<?xml version="1.0" encoding="UTF-8"?>
<svg id="Camada_2" data-name="Camada 2" xmlns="http://www.w3.org/2000/svg" viewBox="0 0 757.36 50.72">
  <g id="Camada_1-2" data-name="Camada 1">
    <g id="svg_bdt_talents">
      <path d="M11.33,50.51s-.08-1.41-.2-2.69c-.3-3.2-.82-8.28-.82-8.28,0,0-3.09,2.04-5.61,2.04s-3.69-.38-4.08-6.64-1.39-14.76.51-20.93c1.9-6.17,2.55-7.15,2.55-7.15,0,0,.73-4.8,3.57-6.13S13.25-.06,17.45,1.76s14.16,1.49,23.97,2.04c9.81.55,27.6,1.83,31.62,2.04,4.03.21,6,2.34,11.22,2.55,5.22.21,11.27.73,15.3,0,4.03-.73,15.69-.97,23.97-1.53,8.28-.56,16.03.64,20.91,1.53s13.82,2,20.4,2.04c6.58.04,19.01,1.24,24.48.51,2.37-.32,6.77-1.03,11.42-1.14,6.08-.14,12.61.41,15.61.63,2.8.2,13.96-.12,25.71.14,10.5.23,21.47,1.02,27.34,1.4,12.45.8,43.07,3.45,53.05,3.57,9.98.12,16.97-.72,27.03-1.02,10.06-.3,33.12-1.14,40.3-1.02,7.17.12,15.52,2.17,23.97,1.53,3.73-.28,10.18-1.39,16.95-1.47,8.57-.1,17.65.86,22.32.45,8.36-.73,16.46-.72,23.97-1.02,7.51-.3,38.05-1.65,48.97-1.53,4.26.05,9.93,1.03,16.39,1.62,10.09.92,21.36,1.62,26.46,1.95,8.36.55,11.36.22,17.85,1.53,3.43.69,14.55,1.08,26.04.71,10.24-.34,20.87-1.38,24.97-1.73,8.7-.73,15.69-1.31,27.54-1.02,5.4.13,13.2,1.16,21.62,1.65,10.05.58,20.76.61,26.33.4,10.23-.39,23.68-1.57,28.05-2.55,4.37-.98,6.12.51,6.12.51,0,0,8.3,3.62,9.69,12.25.63,3.87.27,8.39-.86,12.75-.79,3.04-2.4,5.93-3.2,7.85-.61,1.46-.53,2.37-.53,2.37l-741.14.77Z" style="fill-rule: evenodd;"/>
      <path d="M41.21,30.57l1.02.51s9.01,1.4,10.71.51,2.04-3.57,2.04-3.57l1.02-4.59h1.53v3.06l1.02,3.57,2.55-3.57,1.53-3.06h1.02v6.13s1.05-1.33,2.15-2.19c1.19-.93,2.44-1.39,2.44-1.39l1.02-4.59.51-1.02.51.51s-.77,4.04,0,7.15c.77,3.11,4.42,3.19,16.83,3.06,12.41-.12,25.67-1.66,37.24-3.06,11.56-1.4,31.54-.81,47.44-.51,15.9.3,21.76,2.93,29.58,2.55,7.82-.38,26.86.97,39.79,0s30.86.63,40.3,1.02,13.77,1.02,13.77,1.02c0,0,1.82-2.39,3.93-3.97,2.87-2.16,6.28-3.69,6.28-3.69l3.06,2.04h6.63s2.4-.87,4.88-1.24c2.62-.39,5.32-.29,5.32-.29,0,0,2.13,1.82,4.59,3.57,2.47,1.75,3.57,3.57,3.57,3.57,0,0,6.4.26,13.19.6,11.55.57,27.13,1.36,35.27,1.44,12.92.13,29.07-.64,41.83-.51s19.64,1.31,27.03.51c7.4-.8,14.88-.39,24.48-1.02,9.61-.63,24.48-1.02,24.48-1.02l2.55-3.06v-5.62h1.49c-.12,0-.45.14.04,1.53.6,1.66.51,5.1.51,5.1l1.53,2.04,3.06-2.04s1.07-.03,1.74.54c1.03.89,1.83,2.52,1.83,2.52,0,0,2.62-.31,6.45-.14,2.02.09,3.85.8,6.03.96,2.34.17,5.01-.21,6.4-.31,5.1-.38,4.59-2.04,4.59-2.04v-3.57h1.02l1.53,1.53v3.57s-.08,1.14,3.06,1.02c3.15-.12,3.57-3.57,3.57-3.57v-4.59l1.02-.51,1.53,2.55v6.13l1.53-2.55v-2.04l1.02-1.02,1.53.51s-.34.97,0,3.06c.34,2.09,2.55,2.55,2.55,2.55l1.02,1.02s9.52-1.15,21.42-1.02c11.9.13,19.38,1.83,30.09,3.06,10.71,1.24,18.36.29,24.48,1.02,6.12.73,7.65.8,12.75-.51,5.1-1.31,12.16-2.09,19.89-2.55,7.74-.46,26.52.51,26.52.51,0,0,6.04,2.17,7.65,0,1.62-2.17,3.57-8.17,3.57-8.17h1.02s.34,3.53.51,4.08c.17.56.51,1.02.51,1.02v1.02l2.55-1.02,3.06-4.08,1.02.51-.51,2.04s-1.11,2.59-1.02,5.1c.08,2.51,4.42,3.44,6.63,3.57,2.21.13,7.74.04,11.22,1.02,3.49.98,4.51.46,5.61-1.53,1.11-2,3.06-3.57,3.06-3.57,0,0-.93-.75-1.39-2.14-.55-1.66-.65-3.99-.65-3.99,0,0-.94-.05-2.04,0s-2.13-1.66-1.02-2.04c1.11-.38,3.57,0,3.57,0l.51-1.02h-1.53l.51-2.55s-2.55.97-3.57.51c-1.02-.46-.51-1.53-.51-1.53,0,0,2.23-.7,4-.84,1.16-.1,2.12.33,2.12.33,0,0,1.51-2.13,3.19-3.36,2.1-1.54,4.46-2.25,4.46-2.25v-.51s-7.57.89-17.85,2.04c-10.29,1.15-25.33-.39-35.2,0-9.86.39-19.47-2.09-27.03-2.04s-28.65,1.4-36.73,2.55c-8.08,1.15-23.04,1.4-30.6,1.02-7.57-.38-20.32-2.51-28.56-3.06-8.25-.55-17-1.07-23.46-1.53-6.46-.46-10.88-1.92-16.83-1.53-5.95.39-27.29.21-36.73.51-9.44.3-22.02.04-29.58,1.02-3.15.41-9.94,1.01-15.3,1.02-7.5.01-13.84-.62-17.85,0-6.89,1.07-18.45,1.4-27.54.51-9.1-.89-28.05-.9-36.73-.51-8.67.39-29.92,1.65-41.83,1.02-11.9-.63-31.11-1.92-39.79-2.55s-35.2-2.17-44.89-2.04c-9.69.13-27.46-.98-32.13-1.02-4.68-.04-9.52.89-15.81,1.53-4.16.42-11.01-.36-17-.65-3.06-.15-6.27.21-8,.14-5.1-.21-9.18-1.02-9.18-1.02,0,0-4.42.04-8.67-1.02-4.25-1.06-12.24-1.92-21.42-1.53-9.18.39-20.4.72-24.99,1.53-4.59.81-10.29-.13-14.28-.51-4-.38-8.5-1.58-13.26-2.04-4.76-.46-11.99-.3-18.36-1.02-6.38-.72-20.4-1.24-25.5-1.02-5.1.22-10.12-1.66-13.77-3.06-3.66-1.4-6.12,1.02-6.12,1.02,0,0-.42,1.14-.51,2.55-.09,1.41-1.53,4.21-2.55,7.66-1.02,3.45-1.36,6.93-1.02,11.23.34,4.3,1.02,10.72,1.02,10.72l7.14-3.06,1.02.51,26.01-3.57h2.04ZM753.27,30.57s-5.67.97-5.61,0,5.61-2.55,5.61-2.55c0,0-.21-3.19-2.04-5.62-1.83-2.43-5.1-4.08-5.1-4.08,0,0-6.26.99-8.67,6.13-.65,1.39-1.53,5.28-1.24,7.77.29,2.42,1.75,3.46,1.75,3.46v1.53s-1.32.92-2.73,2.45c-1.63,1.77-3.39,4.19-3.39,4.19,0,0-2.54.19-4.79-.09-1.78-.22-3.38-.93-3.38-.93h-9.18l-2.55-1.53s-3.41.1-4.59-2.04c-1.18-2.14-1.02-3.57-1.02-3.57l-1.02,1.02s-.91.37-1.82-.28c-.88-.63-1.75-2.27-1.75-2.27l-2.04,4.08h-1.53l-2.04,2.04-1.02-.51s-3.92-2.02-10.2-2.04c-6.28-.02-19.52-.2-27.03.51-7.52.71-11.28,1.7-18.87,2.55-7.59.85-11.79-.56-26.52-1.02-14.73-.46-24.4-2.6-34.17-3.06-2.43-.11-6.55,0-9.56.15-2.93.15-4.76.35-6.84.44-4.4.19-5.53-.07-5.53-.07l-1.53.51-.51-.51-.51-.51s-.56-.03-1.61-.55c-.99-.5-2.47-1.49-2.47-1.49,0,0-.64,2.55-2.55,2.55s-1.53-3.57-1.53-3.57c0,0-1.01,2.55-4.08,2.55s-5.1-2.04-5.1-2.04c0,0-1.3,2.06-6.63,2.04-2.62-.01-6.46-.77-10.22-1.02-3.89-.26-7.64,0-7.64,0l-1.02-1.02s-.15-.31-.71-1.02c-.43-.54-.82-1.02-.82-1.02,0,0-.75.11-1.5.74-.77.65-2.07,1.3-2.07,1.3,0,0-.81.04-1.52-.81-.55-.66-1.03-2.26-1.03-2.26,0,0-1.08,2.36-3.57,3.06-2.49.71-15.58.1-26.01,1.02-10.43.93-21.92,1.41-34.17,1.02-12.25-.39-32.49-.27-47.95,0-15.46.27-30.96-.27-44.38-1.02-13.42-.75-14.28-.51-14.28-.51l-.51-.51s-1.01-1.35-2.32-2.46c-1.3-1.11-2.88-1.97-4.06-3.08-1.54-1.44-1.27-1.61-1.27-1.61h-7.14s-1.81,1.55-4.08,1.53c-2.27-.02-2.04-.51-2.04-.51,0,0-2.26.33-4.14-.25-1.34-.41-2.49-1.79-2.49-1.79,0,0-1.56,1.34-3.74,3.27-2.4,2.14-5.44,4.9-5.44,4.9,0,0-7.27-.56-14.28-1.02s-18.64-1.73-29.58-1.53c-10.94.2-27.97.9-38.26,1.02-5.44.07-10.61-.46-16.98-1.08-5.68-.55-12.63-1.16-16.68-1.48-8.61-.68-19.01-.34-32.13-.51s-23.74.53-35.2,2.04c-11.45,1.51-22.72,1.85-31.11,1.53-5.54-.21-9.32-.33-11.26-1.77-.99-.74-1.5-3.34-1.5-3.34,0,0-1.28.48-2.48,1.42-1.08.84-2.11,2.15-2.11,2.15,0,0-.75.27-1.44-.42-.58-.58-1.11-2.13-1.11-2.13,0,0-.83,1.32-1.58,2.36-.48.67-1.13.7-2,.7-2.2,0-2.04-1.02-2.04-1.02,0,0-.64,3.06-5.1,3.06s-11.06-.49-18.87.51c-7.81,1-17.85,1.02-17.85,1.02l1.02,15.04h733.49s1.31-4.7,2.53-9.1c1.07-3.85,2.07-8.49,2.07-8.49,0,0-2.17.75-2.55,0-.38-.75,2.55-2.55,2.55-2.55Z" style="fill: #fff; fill-rule: evenodd;"/>
    </g>
  </g>
</svg>