<?xml version="1.0" encoding="UTF-8"?>
<svg id="Camada_2" data-name="Camada 2" xmlns="http://www.w3.org/2000/svg" viewBox="0 0 185.02 6.01">
  <g id="Camada_1-2" data-name="Camada 1">
    <g id="svg_line_position">
      <path d="M4.23,3.9c-.17-.09.35-.52-1-.63.08.02-.95.02-2.01.02-.08.03-.48.23-.56.26C-.68,5.4.03,6.01,2.7,6.01c.17-.15.85-.2,1.02-.35,1-.3.38-.98.51-1.75ZM166.69,2.15c-1.16-.02-1.8-.06-3.06,0-1.64.08-4,.46-5.6.35-.49-.03-2.23.15-3.56,0-1.45-.17-3-.33-3.57-.35-6.16-.23-9.17.11-15.28,0-7.81-.14-14.21-.59-21.9-.7-5.26-.07-9.97,0-15.23-.08-4.71-.27-8.79-1.23-15.33-1.32-3.4-.04-6.63-.25-12.3.88,0,0-7.31.77-15.71,1.22-8.55.46-18.27.59-27.66.65-3.06.02-7.33.21-11.05.4-5.89.31-6.83-1.03-8.15-.35-.74.53-1.02,1.07-1.02,1.75.93.32,1.11.51,2.55.7,4.28.57,10.3.21,16.81,0,5.27-.17,10.92-.13,15.79-.35,6.98-.32,11.78-.14,15.79-.35,2.13-.11,7.3-.45,11.71-.7,3.75-.21,6.81-.35,8.66-.35,4.32-.01,6.3-.23,10.7,0,4.93.26,10.1.96,14.77,1.05,4.04.08,6.64.81,10.68.3,4.96.56,8.78.07,12.24.05,3.33-.02,6.27.52,11.2.35,0,0,8.42.02,11.2,0,2.48-.02,5.68-.69,8.66-.7,3.22-.01,5.64.11,8.15,0,.04-.32,1.49-1.08,1.53-1.4-.17-.5-.34-.88-1.02-1.05ZM185.02,2.5c-.25-.2-1.27-.15-1.53-.35-1.06-.66-8.66-.35-8.66-.35,0,0-.27-.63-1.02-.7-.52-.05-1.55.04-2.04,0-.65.34-1.02.7-1.02.7,0,0,.45.81,0,1.05-.13,0-.55-.41-1.53,0-.81.58-.51,1.4-.51,1.4,0,0,.21,1.46,2.55.7.08-.06.33-.28,1.02-.35.65-.07,1.74.02,2.04,0,1.29-.09,1.36.05,2.04,0,2.16-.17,3.13.05,5.09,0,1.81-.05,3.57-.7,3.57-.7,0,0-.04-1.17,0-1.4Z" style="fill-rule: evenodd;"/>
    </g>
  </g>
</svg>