<?xml version="1.0" encoding="UTF-8"?>
<svg id="Camada_2" data-name="Camada 2" xmlns="http://www.w3.org/2000/svg" viewBox="0 0 758.36 281.12">
  <g id="Camada_1-2" data-name="Camada 1">
    <g id="Talents">
      <path d="M14.37,63.02c.9.63,4.08,3.06,4.08,3.06,0,0-2.5,1.05-4.08,3.57s-1.26,6.95-1.53,11.74c-.27,4.79-1.26,12.71-1.02,20.42.24,7.71,1.29,20.37.51,26.04-.78,5.66-2.5,11.47-2.04,15.83s2.53,12.79,6.12,17.87c3.59,5.08,6.53,7.68,6.12,9.7-.41,2.02-2.06,5.49-3.06,7.66-1,2.16-.46,4.76,0,6.13.46,1.36,1.02,2.04,1.02,2.04,0,0-1.92,2.07-2.55,3.57-.63,1.51,0,3.06,0,3.06l.51,1.53s-3.59.9-5.1,4.59c-1.51,3.69-2.87,6.95-3.06,10.21s-.46,4.04-.51,7.66c-.05,3.62.51,12,.51,12h.45l-.45,7.91s-2.15-.6-3.57.51c-1.42,1.11-2.49,3.83-4.08,6.64-1.59,2.81-3,8.59-2.55,13.27.17,1.73.89,4.1,1.32,5.95.72,3.17,1.54,5.82,4.3,8.34,4.36,4,10.85,1.87,14.28,1.02,3.43-.85,12.98-.43,17.85-.51,4.88-.08,8.13,2.13,12.75,1.53,2.02-.26,5.18-.49,8.62-.7,4.44-.28,9.34-.54,12.8-.83,3.08-.26,8.01-.34,13.21-.45,5.2-.11,10.67-.23,14.84-.57,8.36-.68,14.34-.6,21.42-1.02,7.09-.43,15.36-.6,20.91.51,5.55,1.11,16.46,1.19,25.5,1.02,9.04-.17,16.89.34,21.93,1.02,5.04.68,18.08.85,23.97,1.02,3.02.09,10.55.62,19.24,1.12,8.25.48,17.66.92,21.56.92,8.02,0,8.56-.34,15.81-.51,3.91-.09,10.41.62,17.21,1.04,5.83.36,12.01.37,15.44,1,7.43,1.36,20.46,2.21,30.6,2.04,10.15-.17,25.98-2.21,33.67-3.06,7.68-.85,27.09-1.36,40.3,0,13.21,1.36,32.11,1.28,42.34,1.53,10.23.26,31,.51,45.4.51s41.2-.43,50.5-1.02c9.3-.6,30.75-2.3,39.79-2.55,9.04-.26,36.95,0,50.5.51s38.31.68,46.93,1.02c8.62.34,19.61,2.81,27.54,3.57,7.94.77,10.94.68,19.89.51,8.96-.17,10.85,1.19,14.28-2.55,3.43-3.74,5.5-9.1,5.61-18.38.06-4.73-2.38-12.41-2.79-19.31-.39-6.64.75-11.06.75-11.06,0,0-.46-1.83,0-3.83.46-1.99.85-2.09.51-2.55-.2-.27-1.02-2.72-2.55-4.08-1.09-.97-3.06-1.02-3.06-1.02,0,0,3.62-2.82,4.59-6.64.97-3.82,1.94-9.97.51-15.31-.67-2.49-1.71-4.04-2.04-7.15-.38-3.56-.01-8.69,0-11.74.01-2.99.07-5.67-1.53-7.66-1.46-1.81-4.59-3.06-4.59-3.06,0,0,1.43-2.75,1.53-5.62.1-2.87,0-3.57,0-3.57l3.57-3.57s.49-3.26-2.04-4.59c-2.53-1.34-4.59-1.53-4.59-1.53,0,0,4.57-1.65,6.12-4.08,1.55-2.43.92-4.21,1.02-10.72.05-3.5.23-8.47,1.02-12.25.68-3.25,1.93-5.45,2.55-7.15,1.34-3.67,2.96-15.73,2.04-25.01-.92-9.29-1.85-22.44-1.02-27.06.83-4.62,3.06-10.98,3.06-10.98H12.33s.51,6.19.51,8.42.63,3.45,1.53,4.08ZM744.35,229.7l.43,1-730.6-.64v-.36h730.17ZM758.06,26.78c-1.39-8.63-9.69-12.25-9.69-12.25,0,0-1.75-1.49-6.12-.51-4.37.98-17.82,2.17-28.05,2.55-5.57.21-16.28.18-26.33-.4-8.42-.49-16.22-1.51-21.62-1.65-11.85-.29-18.84.29-27.54,1.02-4.1.34-14.73,1.39-24.97,1.73-11.48.38-22.6-.01-26.04-.71-6.49-1.31-9.49-.98-17.85-1.53-5.1-.33-16.37-1.03-26.46-1.95-6.46-.59-12.13-1.57-16.39-1.62-10.92-.12-41.45,1.23-48.97,1.53s-15.61.29-23.97,1.02c-4.67.41-13.75-.54-22.32-.45-6.77.08-13.22,1.19-16.95,1.47-8.45.64-16.8-1.41-23.97-1.53s-30.23.72-40.3,1.02-17.05,1.14-27.03,1.02c-9.98-.12-40.6-2.77-53.05-3.57-5.87-.38-16.84-1.17-27.34-1.4-11.74-.25-22.91.06-25.71-.14-3.01-.21-9.53-.77-15.61-.63-4.65.1-9.05.82-11.42,1.14-5.47.73-17.9-.47-24.48-.51-6.58-.04-15.52-1.15-20.4-2.04-4.88-.89-12.63-2.09-20.91-1.53-8.28.56-19.94.8-23.97,1.53s-10.08.21-15.3,0c-5.22-.21-7.19-2.34-11.22-2.55s-21.81-1.49-31.62-2.04c-9.81-.55-19.77-.22-23.97-2.04C14.25-.06,11.09-.58,8.25.74c-2.84,1.32-3.57,6.13-3.57,6.13,0,0-.65.97-2.55,7.15-1.9,6.17-.9,14.67-.51,20.93s1.56,6.64,4.08,6.64,5.61-2.04,5.61-2.04c0,0,.52,5.08.82,8.28.12,1.28.2,2.69.2,2.69l741.14-.77s-.08-.91.53-2.37c.8-1.92,2.4-4.81,3.2-7.85,1.14-4.36,1.49-8.87.86-12.75Z" style="fill-rule: evenodd;"/>
      <path d="M730.57,263.52c.23-6.04,3.06-11.23,3.06-11.23,0,0-1.15.16-2.8.96-1.52.73-3.47,2.09-5.36,2.61-3.94,1.11-9.07,1.11-15.3,1.02s-27.85-.94-36.73-1.02-27.54-1.53-27.54-1.53c0,0,.03,2.38,0,6.13-.03,3.74-1.02,4.08-1.02,4.08l-.51.51-.51-5.62s-.06-.09-2.04-1.02c-1.98-.94-1.53-2.55-1.53-2.55,0,0-.23.26,0,1.53s-.51,1.02-.51,1.02l-1.02.51.51,3.57-.51.51h-1.02s-1.08-7.32-4.59-7.15c-3.51.17-5.24.94-10.2,1.02-4.96.09-6.18-.34-10.2,0-4.02.34-4.14.09-7.14,0s-8.05.85-16.32,1.02c-8.28.17-17.48.51-26.01.51-2.9,0-7.51-.05-11.96-.68-3.63-.51-6.99-1.58-10.64-1.91-5.03-.45-9.63.17-12.6.04-7.77-.34-14.25-.85-20.91-1.02-6.66-.17-24.79-.94-30.09-1.53-5.3-.6-11.36-.26-16.32,0-4.96.26-24.11,1.28-32.13,1.53s-12.55-.85-18.87,0c-6.32.85-18.42,1.87-24.48,2.04-6.07.17-17.34,0-17.34,0,0,0-1.42,1.53-2.04,2.55s-3.06,7.15-3.06,7.15l-1.53.51v-.51s-.65-3.15-.51-4.08c.14-.94-3.06-3.06-3.06-3.06,0,0-.4,1.02-2.04,1.02s-4.59.51-4.59.51c0,0-1.67,1.53-4.59,1.53s-3.29-2.04-5.1-4.08c-1.81-2.04-4.05-1.45-7.14-1.53-3.09-.09-7.45.94-13.77,1.02-6.32.09-20.63-1.7-26.52-2.55-5.9-.85-16.29-.43-23.97-.51-7.68-.09-28.28-.09-33.15.51s-9.24,0-13.26-.51c-4.02-.51-8.05-.26-13.77-.51-5.72-.26-9.75-1.62-16.83-2.04s-10.85-.77-14.79-1.02c-3.94-.26-8.39-.6-13.26-1.53-4.88-.94-10.2-1.53-10.2-1.53,0,0-1.17.89-2.3,2.65-.71,1.11-1.41,2.87-1.78,3.99-.96,2.89-1.02,4.59-1.02,4.59h-1.02v-3.06s.11-.34,0-.51c-.11-.17.03-1.36-.51-2.55-.54-1.19-2.55-4.08-2.55-4.08,0,0-1.5,1.87-3.06,1.53-1.56-.34-2.04-1.53-2.04-1.53l-1.02-.51s-.23.26-4.08.51c-3.85.26-9.24,1.02-14.28,1.53-5.05.51-7.2-1.11-11.22-1.02-4.02.08-8.13.43-12.75-.51-4.62-.94-8.39-1.7-13.77-1.53-5.39.17-10.85-.85-13.26-1.02-2.41-.17-7.54.6-11.73.51-4.19-.09-6.12-1.53-6.12-1.53,0,0-5.24-.26-8.16-.51-2.92-.26-4.59-1.53-4.59-1.53,0,0-2.35,2.38-4.59,5.62-2.24,3.23-1.53,7.66-1.53,7.66l-.51.51s-.65,0-1.02-1.02c-.37-1.02-.4-5.02-.51-6.64-.11-1.62-1.02-5.1-1.02-5.1,0,0-.48,1.36-2.55.51-2.07-.85-2.04-1.53-2.04-1.53l-1.02.51-.51-.51s-2.1-.51-3.57-1.02c-1.47-.51-5.61,0-5.61,0,0,0-.65-.85-2.04-1.02-1.39-.17-3.57.51-3.57.51,0,0-3.63,5.45-4.59,10.21s.51,8.17.51,8.17l3.06-1.53h2.55s.88,2.47,0,3.06-2.04-.51-2.04-.51l-2.55,2.04s.12,1.73,1.06,3.48c.96,1.8,2.76,3.62,4.04,3.67,2.52.08,6.32-1.11,16.83-2.04,10.51-.94,16.18.26,19.38,1.02,3.2.77,8.96,0,16.83-.51s21.96-.51,32.64-1.02c10.68-.51,20.18-.6,30.6-1.53,5.92-.53,14.09.63,21.9,1.24,5.95.47,11.47.4,16.87.29,12.47-.26,26.72,1.87,40.3,2.04,13.57.17,32.76,3.15,52.03,2.04,19.27-1.11,51.97,2.98,66.31,4.08,14.34,1.11,39.47-2.98,56.11-4.08,16.63-1.11,34.88,1.87,54.58,2.04,19.69.17,49.42,1.19,67.84.51,18.42-.68,49.68-1.28,63.76-2.55,14.08-1.28,33.27-.6,50.5-1.02,17.23-.43,37.86,1.62,57.13,1.53,19.27-.09,34.88,3.66,44.89,4.59,10,.94,15.3,0,15.3,0,0,0-1.84-1.93-3.19-5.61-.84-2.28-1.49-5.86-1.4-8.17ZM6.26,37.88l7.14-3.06,1.02.51,26.01-3.57h2.04l1.02.51s9.01,1.4,10.71.51c1.7-.89,2.04-3.57,2.04-3.57l1.02-4.59h1.53v3.06l1.02,3.57,2.55-3.57,1.53-3.06h1.02v6.13s1.05-1.33,2.15-2.19c1.19-.93,2.44-1.39,2.44-1.39l1.02-4.59.51-1.02.51.51s-.77,4.04,0,7.15c.77,3.11,4.42,3.19,16.83,3.06,12.41-.12,25.67-1.66,37.24-3.06,11.56-1.4,31.54-.81,47.44-.51,15.9.3,21.76,2.93,29.58,2.55,7.82-.38,26.86.97,39.79,0,12.92-.97,30.86.63,40.3,1.02s13.77,1.02,13.77,1.02c0,0,1.82-2.39,3.93-3.97,2.87-2.16,6.28-3.69,6.28-3.69l3.06,2.04h6.63s2.4-.87,4.88-1.24c2.62-.39,5.32-.29,5.32-.29,0,0,2.13,1.82,4.59,3.57,2.47,1.75,3.57,3.57,3.57,3.57,0,0,6.4.26,13.19.6,11.55.57,27.13,1.36,35.27,1.44,12.92.13,29.07-.64,41.83-.51,12.75.13,19.64,1.31,27.03.51,7.4-.8,14.88-.39,24.48-1.02,9.61-.63,24.48-1.02,24.48-1.02l2.55-3.06v-5.62h1.49c-.12,0-.45.14.04,1.53.6,1.66.51,5.1.51,5.1l1.53,2.04,3.06-2.04s1.07-.03,1.74.54c1.03.89,1.83,2.52,1.83,2.52,0,0,2.62-.31,6.45-.14,2.02.09,3.85.8,6.03.96,2.34.17,5.01-.21,6.4-.31,5.1-.38,4.59-2.04,4.59-2.04v-3.57h1.02l1.53,1.53v3.57s-.08,1.14,3.06,1.02c3.15-.12,3.57-3.57,3.57-3.57v-4.59l1.02-.51,1.53,2.55v6.13l1.53-2.55v-2.04l1.02-1.02,1.53.51s-.34.97,0,3.06c.34,2.09,2.55,2.55,2.55,2.55l1.02,1.02s9.52-1.15,21.42-1.02c11.9.13,19.38,1.82,30.09,3.06,10.71,1.24,18.36.29,24.48,1.02,6.12.73,7.65.8,12.75-.51,5.1-1.31,12.16-2.09,19.89-2.55,7.74-.46,26.52.51,26.52.51,0,0,6.04,2.17,7.65,0,1.62-2.17,3.57-8.17,3.57-8.17h1.02s.34,3.53.51,4.08c.17.56.51,1.02.51,1.02v1.02l2.55-1.02,3.06-4.08,1.02.51-.51,2.04s-1.11,2.59-1.02,5.1c.09,2.51,4.42,3.44,6.63,3.57,2.21.13,7.74.04,11.22,1.02,3.49.98,4.51.46,5.61-1.53,1.1-2,3.06-3.57,3.06-3.57,0,0-.93-.75-1.39-2.14-.55-1.66-.65-3.99-.65-3.99,0,0-.94-.05-2.04,0-1.11.05-2.13-1.66-1.02-2.04,1.1-.38,3.57,0,3.57,0l.51-1.02h-1.53l.51-2.55s-2.55.97-3.57.51c-1.02-.46-.51-1.53-.51-1.53,0,0,2.23-.7,4-.84,1.16-.1,2.12.33,2.12.33,0,0,1.51-2.13,3.19-3.36,2.1-1.54,4.46-2.25,4.46-2.25v-.51s-7.57.89-17.85,2.04c-10.29,1.15-25.33-.39-35.19,0-9.86.39-19.47-2.09-27.03-2.04-7.57.05-28.65,1.4-36.73,2.55-8.08,1.15-23.04,1.4-30.6,1.02-7.57-.38-20.32-2.51-28.56-3.06-8.25-.55-17-1.07-23.46-1.53-6.46-.46-10.88-1.92-16.83-1.53-5.95.39-27.29.21-36.73.51s-22.02.04-29.58,1.02c-3.15.41-9.94,1.01-15.3,1.02-7.5.01-13.84-.62-17.85,0-6.89,1.07-18.45,1.4-27.54.51-9.1-.89-28.05-.9-36.73-.51-8.67.39-29.92,1.65-41.83,1.02-11.9-.63-31.11-1.92-39.79-2.55-8.67-.63-35.2-2.17-44.89-2.04-9.69.13-27.46-.98-32.13-1.02s-9.52.89-15.81,1.53c-4.16.43-11.01-.36-17-.65-3.06-.15-6.27.21-8,.14-5.1-.21-9.18-1.02-9.18-1.02,0,0-4.42.04-8.67-1.02-4.25-1.06-12.24-1.92-21.42-1.53s-20.4.72-24.99,1.53c-4.59.81-10.29-.13-14.28-.51-4-.38-8.5-1.58-13.26-2.04-4.76-.46-11.99-.3-18.36-1.02s-20.4-1.24-25.5-1.02c-5.1.22-10.12-1.66-13.77-3.06s-6.12,1.02-6.12,1.02c0,0-.42,1.14-.51,2.55-.08,1.41-1.53,4.21-2.55,7.66-1.02,3.45-1.36,6.93-1.02,11.23.34,4.3,1.02,10.72,1.02,10.72ZM754.54,31.75s-5.67.97-5.61,0c.06-.97,5.61-2.55,5.61-2.55,0,0-.21-3.19-2.04-5.62-1.83-2.43-5.1-4.08-5.1-4.08,0,0-6.26.99-8.67,6.13-.65,1.39-1.53,5.28-1.24,7.77.29,2.42,1.75,3.46,1.75,3.46v1.53s-1.32.92-2.73,2.45c-1.63,1.77-3.39,4.19-3.39,4.19,0,0-2.54.19-4.79-.09-1.78-.22-3.38-.93-3.38-.93h-9.18l-2.55-1.53s-3.41.1-4.59-2.04c-1.18-2.14-1.02-3.57-1.02-3.57l-1.02,1.02s-.91.37-1.82-.28c-.88-.63-1.75-2.27-1.75-2.27l-2.04,4.08h-1.53l-2.04,2.04-1.02-.51s-3.92-2.02-10.2-2.04c-6.28-.02-19.52-.2-27.03.51-7.52.71-11.28,1.7-18.87,2.55s-11.79-.56-26.52-1.02-24.4-2.6-34.17-3.06c-2.43-.11-6.55,0-9.56.15-2.93.15-4.76.35-6.84.44-4.4.19-5.53-.07-5.53-.07l-1.53.51-.51-.51-.51-.51s-.56-.03-1.61-.55c-.99-.5-2.47-1.49-2.47-1.49,0,0-.64,2.55-2.55,2.55s-1.53-3.57-1.53-3.57c0,0-1.01,2.55-4.08,2.55s-5.1-2.04-5.1-2.04c0,0-1.3,2.06-6.63,2.04-2.62-.01-6.46-.77-10.22-1.02-3.89-.26-7.64,0-7.64,0l-1.02-1.02s-.15-.31-.71-1.02c-.43-.54-.82-1.02-.82-1.02,0,0-.75.11-1.5.74-.77.65-2.07,1.3-2.07,1.3,0,0-.81.04-1.52-.81-.55-.66-1.03-2.26-1.03-2.26,0,0-1.08,2.36-3.57,3.06s-15.58.1-26.01,1.02c-10.43.93-21.92,1.41-34.18,1.02-12.25-.39-32.49-.27-47.95,0-15.46.27-30.96-.27-44.38-1.02-13.42-.75-14.28-.51-14.28-.51l-.51-.51s-1.01-1.35-2.32-2.46c-1.3-1.11-2.88-1.97-4.06-3.08-1.54-1.44-1.27-1.61-1.27-1.61h-7.14s-1.81,1.55-4.08,1.53c-2.27-.02-2.04-.51-2.04-.51,0,0-2.26.33-4.14-.25-1.34-.41-2.49-1.79-2.49-1.79,0,0-1.56,1.34-3.74,3.27-2.4,2.14-5.44,4.9-5.44,4.9,0,0-7.27-.56-14.28-1.02-7.01-.46-18.64-1.73-29.58-1.53-10.94.2-27.97.9-38.26,1.02-5.44.07-10.61-.46-16.98-1.08-5.68-.55-12.63-1.16-16.68-1.48-8.61-.68-19.01-.34-32.13-.51-13.13-.17-23.74.53-35.2,2.04-11.45,1.51-22.72,1.85-31.11,1.53-5.54-.21-9.32-.33-11.26-1.77-.99-.74-1.5-3.34-1.5-3.34,0,0-1.28.48-2.48,1.42-1.08.84-2.11,2.15-2.11,2.15,0,0-.75.27-1.44-.42-.58-.58-1.11-2.13-1.11-2.13,0,0-.83,1.32-1.58,2.36-.48.67-1.13.7-2,.7-2.2,0-2.04-1.02-2.04-1.02,0,0-.64,3.06-5.1,3.06s-11.06-.49-18.87.51c-7.81,1-17.85,1.02-17.85,1.02l1.02,15.04h.12l.39,7.42,2.04,2.04h6.63l.51,1.02v.51l-1.02.51-5.1-.51,1.53,1.53,5.1.51,1.53,1.53s.13.54,0,.51c-.13-.03-1.02.51-1.02.51l-5.1.51s-.32,1.82-2.04,2.55-2.55,3.06-2.55,3.06v2.55h5.1l.51.51s-.57.99-2.55,1.53-3.57,1.02-3.57,1.02c0,0,.19,4.69,0,8.17-.19,3.48,0,17.87,0,17.87,0,0,1.28-.09,3.06,0s2.55,2.04,2.55,2.04c0,0-.95-.09-1.02,0s-4.59,0-4.59,0v1.02s2.68,1.44,2.55,2.04c-.13.61-.51,1.02-.51,1.02l-3.06-.51s.58,8.71.51,14.8-1.02,7.31-1.53,10.21-.76,8.39,1.02,14.29c1.78,5.9,3.25,9.48,6.63,12.76,3.38,3.29,4.98,5.01,4.08,8.68-.9,3.67-2.55,8.17-2.55,8.17h3.06l1.02,1.02s1.34,1.31-.51,1.53c-1.85.22-4.59-.51-4.59-.51,0,0-.51.86.51,2.04,1.02,1.18,4.08,2.04,4.08,2.04l2.55.51,1.02.51-.51,1.02-6.63,1.53-2.55,3.06,1.02,1.02,1.53,1.53v.51l7.65-.51,1.02,1.02v1.02l-.51.51s-5.23.03-7.65.51c-2.43.48-2.55.51-2.55.51,0,0-3.38.48-4.59,3.06-1.21,2.58-2.36,5.84-2.55,9.19-.1,1.64-.67,4.49-.51,7.15.17,2.76,1.09,5.34,1.02,7.15-.13,3.54,0,5.85,0,5.85h3.87c.12.1.2.19.21.28.12.65-.51,1.53-.51,1.53l-.51.51v.51h.51l-.51,1.02s-.08.41-1.02,0c-.94-.41-.51-1.53-.51-1.53h-2.04v6.64s5.32.33,7.65,1.02c2.33.69,3.58.8,4.08,0,.5-.8,1.02-.51,1.02-.51l1.02,1.02-.51,1.53v.51h.51l2.04-2.55s2.05-.14,2.04,1.53c0,1.67,0,5.1,0,5.1l.51-.51s.82-1.12,2.04-2.55c1.22-1.43,2.04-3.06,2.04-3.06,0,0,2.9,1.18,6.63,1.53,3.73.35,8.67,1.02,8.67,1.02l2.55,1.02s6.51.2,10.2,0c3.69-.2,14.72-.14,19.38,0,4.67.14,9.11,1.14,12.75,1.53,3.65.4,6.47.71,10.71.51,4.24-.2,4.08,0,4.08,0,0,0,2.18,1.05,6.12,1.02,3.94-.03,9.06-.74,13.26-1.02,4.2-.29,8.67-.51,8.67-.51l2.04,2.04,2.55-1.53s.18.16,1.02,0c.84-.16,2.55,2.55,2.55,2.55h1.02l3.06-3.57h5.61s1.76.59,5,1.15c2.29.39,5.84.77,7.76.9,2.67.18,7.91,1.34,12.92,1.86,3.66.38,7.2.18,9.52.18,5.52.01,12,1.82,16.32,2.04,4.33.23,10.17-.14,13.77,0,1.66.06,3.32.78,5.73.93,2.82.18,6.49-.2,9.57-.42,5.73-.41,16.5-.52,23.97-.51,7.47.01,22.41.24,26.52,0,4.11-.24,8.21,1.22,14.79,2.04,6.58.82,19.48,1.52,25.5,1.02,6.03-.5,9.36-1.29,12.24.51,2.88,1.8,2.9,4.45,5.1,4.59,2.2.14,2.64-1.67,4.59-1.53,1.95.14,3.57,0,3.57,0,0,0-.08-1.93,1.53-2.04,1.61-.11,2.98,1.9,4.08,2.55,1.1.65,1.02,1.53,1.02,1.53l.51-.51,3.57-5.62,1.53-.51.51.51s7.27.42,14.78.22c6.35-.17,12.86-.92,15.31-1.24,5.35-.71,18.92-1.54,23.97-1.53,2.4,0,5.63.57,8.96.6,3.67.03,7.46-.47,10.42-.6,5.64-.24,16.2-1.03,22.95-1.53,6.75-.5,10.85.41,15.81,1.02,4.96.61,17.86.2,22.44.51s19.99,1.14,22.95,1.02c1.3-.05,3.76.57,6.92.71,4.07.17,8.94-.13,10.42-.2,2.63-.11,5.11,1.73,7.65,2.04,2.54.31,14.46.33,21.93.51,7.47.18,23.85-1.03,29.58-1.53,2.21-.19,4.43.32,7.26.38,2.69.06,5.66-.53,8.32-.64,1.8-.08,3.47.34,4.82.26,5.43-.33,5.19.07,8.67-.51,1.6-.27,3.13-.77,4.32-.13,1.39.75,2.31,2.68,2.31,2.68h.51s.22-1.25,1.02-3.06c.8-1.82,1.2-.69,2.04.51.84,1.2,1.53,2.55,1.53,2.55h.51v-3.57s.91-.81,2.8-1.08c1.65-.24,4.15.05,5.87.06,3.69.01,10.64,1.14,14.79,1.02,4.16-.11,26.49.41,30.09.51,3.6.1,18.92.88,22.95.51,4.03-.37,7.58-2.05,10.71-3.57,3.14-1.52,4.08-1.53,4.08-1.53h1.02l1.53,2.04s-2.37,1.69-3.57,5.1c-1.2,3.42-1.48,8.88-.51,13.27.97,4.39,3.58,8.67,6.63,8.17s6.13-6.27,6.63-10.72c.5-4.45.09-10.14-.51-14.8s-1.95-8.73-1.53-14.8c.2-2.98.33-5.06.41-6.4h.1v-3.3l-5.1.51v-1.02l5.1-2.04s-1.66-4.43-5.61-4.59c-3.96-.16-5.61,0-5.61,0l-4.08-1.02.51-1.53s4.4,1.5,7.65-.51c3.25-2.01,5.61-4.59,5.61-4.59l-5.1.51-.51-1.02s2.49-.8,4.08-1.53c1.59-.73,3-.61,3.06-1.02.06-.42.51-3.06.51-3.06,0,0-2.99,1.69-2.55.51.44-1.18,1.53-2.04,1.53-2.04,0,0,.9-.54,1.02-1.02.12-.48-.19-3.09-1.53-9.7-1.34-6.61-1.02-20.42-1.02-20.42h-4.08v-1.02l3.06-.51-4.08-2.55s-.89.86-3.57,1.53c-2.68.67-5.1.51-5.1.51v-1.02l1.53-1.53h1.53l1.53-2.04,1.53-.51,2.04-2.04h-4.08v-1.53s1.21-.54,3.06-1.02c1.85-.48,2.55-1.02,2.55-1.02l-.51-2.55-1.02-1.53s1.09-.48,1.53-1.02c.44-.54,3.06-3.06,3.06-3.06,0,0-2.63-1.1-5.1-2.55-1.73-1.02-3.57-2.55-3.57-2.55,0,0-1.72,1.63-3.06,1.53-1.34-.1-1.53,0-1.53,0l-.51-1.02h-2.55l-.51-1.02s2.23-.67,4.59-1.02c2.36-.35,4.08-.51,4.08-.51,0,0,1.15-1.18,3.57-2.04,2.42-.86,3.57-1.53,3.57-1.53,0,0,1.92.48,2.04-3.57.13-4.05-.51-11.23-.51-11.23l-5.1-2.04,1.02-1.02,4.59,1.02s-.19-2.84,1.53-7.15c1.72-4.31,2.55-7.66,2.55-7.66,0,0-2.87-1.18-2.04-1.53.83-.35,2.55-.51,2.55-.51,0,0,2.23-6.22,1.53-14.8-.7-8.58-2.48-15.86-2.55-23.99-.05-6.1,1.98-14.39,3-18.14h.57s1.31-4.7,2.52-9.1c1.07-3.85,2.07-8.49,2.07-8.49,0,0-2.17.75-2.55,0-.38-.75,2.55-2.55,2.55-2.55Z" style="fill: #fff; fill-rule: evenodd;"/>
    </g>
  </g>
</svg>