<?xml version="1.0" encoding="UTF-8"?>
<svg id="Camada_2" data-name="Camada 2" xmlns="http://www.w3.org/2000/svg" viewBox="0 0 794.57 250.83">
  <g id="Camada_1-2" data-name="Camada 1">
    <g id="Weapon">
      <path d="M320.14.23c-9.03.37-21.73.44-33.1.51-11.37.07-24.07.14-32.08,0-8.01-.14-12.36.34-18.84.51-3.37.09-7.12.62-10.19.51-2.82-.11-5.02-.86-6.62-1.02-3.33-.34-9.3-.37-9.68,1.53l165.69,1.97c-6.21-.97-13.58-2.88-19.01-3.5-7.5-.85-27.13-.88-36.16-.51ZM533.45,4.61c.97-.07,1.97-.2,3.14-.31l-3.14.31ZM794.29,28.75c.17-2.73.54-5.29,0-7.64-1.39-6.04-.34-9.95-1.02-12.73-.68-2.78-9.51-2.82-16.81-3.56-7.3-.75-24.48-.78-30.56-1.02-1.95-.08-5.41-.83-9.68-1.02-4.04-.17-8.82.23-12.73,0-4.84-.28-7.65-1.07-10.7-.51-5.46,1.01-16.46,1.92-24.95,2.04-4.13.06-7.65-.66-9.68-.51-3.59.28-11.42.76-18.33.51-4.99-.18-9.29-1.13-12.22-1.02-6.99.27-23.56,1.15-36.67,1.02-6.48-.07-12.55-1.03-17.32-1.02-4.87,0-8.39.98-11.2,1.02-5.57.07-5.23-1.19-9.68-.51-4.45.68-6.76.65-12.22.51-5.47-.14-5.64,1.56-9.68,1.53-4.04-.03-5.73-2.27-8.15-.51l-15.6-.07,6.35-.64c-1.28.09-2.5.05-3.99-.31-2.61-.65-5.23-2.31-6.62-1.53-.74.41-1.41,1.31-1.52,2.45l-13.42-.06c-.96-.13-2.46-.22-4.93-.35-1.71-.1-3.53.06-5.35.31l-31.21-.14c-.9-.06-1.79-.12-2.66-.17-3.27-.19-6.43.31-9.68,0-6.04-.57-11.95-1.86-16.3-1.02-2.99.58-7.93.87-13.18,1l-3.8-.02-45.5-.54c.9.14,1.77.25,2.61.35l-176.45-.79c-3.56-1.43-6.73-1.73-17.32-1.53-10.58.2-20.28.92-28.52,1.53-8.24.61-23.94-2.24-35.14-1.02-6.08.66-12.76,1.25-17.82,1.02-4.26-.2-7.02-1.2-10.7-1.02-4.27.22-7.07.74-10.69,1.02-3.19.24-7.14.22-11.71.51-1.7.11-3.88.94-6.11,1.02-4.15.15-8.81-.43-13.75-.51-7.66-.12-15.72.15-21.39,0-11.3-.31-19.87-.41-21.9,1.53-1.19,1.14-2.57,1.33-3.06,4.58-.34,2.29.04,6.99,0,10.69-.09,8.96-2.05,12.32-1.53,21.39s2.55,41.76,2.55,41.76l.51,7.13s-1.13,7.84-1.02,13.24c.11,5.4.51,10.19.51,10.19v5.6s-.21,10.9-.51,17.83-1.03,18.33-2.04,30.05c-1.01,11.71.81,16.91.51,24.45-.3,7.54-1.54,13.24-2.04,22.41-.5,9.17-.21,15.48,0,20.88.09,2.33-.74,5.77,0,7.64.97,2.47,3.57,2.04,3.57,2.04h10.19s4.43-.62,9.84-.54c3.76.06,8,.71,11.55,1.04,8.67.81,14.15.81,20.88,0s22.5-1.02,29.54,0c3.23.47,7.44,1.06,13.48,1.04,3.62-.01,7.8-.7,12-.85,4.04-.15,8.1.24,11.71.32,7.28.16,15.94.6,23.81.53,6.78-.06,12.85-.63,18.46-.53,7.06.12,16.29-.48,24.03-.53,5.55-.04,10.08.45,13.66.53,8.56.2,10.89,1.73,23.43,2.04,12.54.31,21.28,1.22,36.67,1.53,15.39.31,20.47-1.32,28.01-1.02,7.55.31,9.77.71,18.33.51,8.56-.2,9.06.31,16.3-.51,3.65-.41,6.4-.98,9.17-1.02,2.73-.04,6.5-.05,11.2-.51,4.18-.4,12.35-.88,14.77-.51,1.86.28,5.34-.2,10.7-.51,1.93-.11,3.12-.4,4.07-.51.81-.09,4.07.51,4.07.51,0,0,4.58-.31,9.17-.51,4.59-.2,12.76-1.77,13.75-1.53,2.96.71,6,.31,9.17.51,3.17.2,8.65-.2,13.24,0s11.81.81,18.33,1.53c6.53.71,9.77-.2,22.41.51,7.16.4,14.83.86,21.9,1.02,5.41.12,10.44,0,14.77,0,9.99,0,14.46.31,24.45-.51,9.99-.81,12.42-.41,23.94,0,.6.02,7.59-.21,16.81,0,4.2.09,8.33.88,12.73,1.02,5.89.18,11.87-.31,15.28-.51,3.67-.22,6.61-.32,9.17-.51,6.96-.52,11.08-1.02,19.35-1.02,11.31,0,27.9.71,39.72,0,11.82-.71,24.34-2.55,31.58-1.53,7.24,1.02,14.15,3.06,24.45,2.04,6.33-.63,14.93-.36,22.92-.51,1.76-.03,10.83-.19,17.82,0,3.94.11,7.57.9,10.19,1.02-3.35-.16-1.12.67,2.04.51,2.5-.13,5.35-1.2,8.15-1.53,2.33-.27,7-.15,9.68-1.02,3.16-1.02,1.72-4.28,2.04-9.68.31-5.4,1.11-12.83,0-22.41-1.11-9.57-1.33-14.77-1.53-24.45-.2-9.68-.11-13.45-.51-15.28-.4-1.83-.51-4.07-.51-4.07,0,0,.99-3,1.02-4.07.07-2.77-1.78-5.85-1.02-8.15,1.05-3.19,1.39-9.34,1.02-16.3-.37-6.96-1.46-18.1-1.02-28.01.44-9.91,1.9-22.68,2.04-31.58.14-8.9-.85-17.59,0-24.45.85-6.86-.85-12.49.51-17.32.83-2.95,1.27-7.42,1.53-11.71Z" style="fill: #fff; fill-rule: evenodd;"/>
      <path d="M1.84,43.01c.52,9.07,2.04,28.32,2.55,41.76,0,0,.3,3.06,2.04,3.06s2.54-2.24,2.55-5.09-1.02-18.33-1.02-18.33c0,0-.52-1.83-.51-7.13,0-5.3-1.33-13.65-.51-18.33.82-4.69,1.21-9.47,1.53-15.79.31-6.32.51-13.24.51-13.24,0,0,7.43-1.73,13.75-1.53,6.32.2,15.07.81,27.5,1.02,12.43.2,23.52-.1,31.58-1.02,3.46-.39,5.91-.95,9.17-1.02,4.32-.09,8.46.39,13.75.51,9.28.2,24.95-.71,37.18-.51,4.14.07,8.12.61,11.71.51,7.02-.2,13.34-1.15,21.9-1.02,12.94.2,19.55-.2,22.92,0,3.37.2,6.61-1.63,3.06-3.06-3.56-1.43-6.73-1.73-17.32-1.53-10.58.2-20.28.92-28.52,1.53-8.24.61-23.94-2.24-35.14-1.02-6.08.66-12.76,1.25-17.82,1.02-4.26-.2-7.02-1.2-10.7-1.02-4.27.22-7.07.74-10.69,1.02-3.19.24-7.14.22-11.71.51-1.7.11-3.88.94-6.11,1.02-4.15.15-8.81-.43-13.75-.51-7.66-.12-15.72.15-21.39,0-11.3-.31-19.87-.41-21.9,1.53-1.19,1.14-2.57,1.33-3.06,4.58-.34,2.29.04,6.99,0,10.69-.09,8.96-2.05,12.32-1.53,21.39ZM4.89,91.9c-1.9,1.9-1.13,7.84-1.02,13.24.11,5.4-.52,9.88,1.02,10.69s3.35-.92,3.06-5.09c-.3-4.18.3-9.27.51-13.24s-.41-8.76-3.56-5.6ZM354.26,244.68c-1.72-.92-4.39-.31-12.73,0s-15.9.92-19.86,1.02-9.38-.51-16.81,0-11.52-.31-23.43.51c-11.91.81-26.19.2-35.65-1.02-9.46-1.22-20.48.41-29.03-1.02-8.55-1.43-18.44-2.75-30.05-2.04-5.23.32-9.3,1.08-12.88.79-4.37-.36-8.5-1.29-12.59-.79-4.29.53-11.02.45-18.97.62-5.8.12-11.99.11-17.7-.11-13.54-.51-18.65.2-25.46.51s-10.81-1.43-21.39-2.04c-10.58-.61-19.56-.61-24.95,1.02-5.39,1.63-7.95,0-18.33-1.02-10.38-1.02-14.98-.71-20.88,0-5.9.71-7.64,1.02-7.64,1.02l-.51-.51s.7-2.55,0-8.66c-.71-6.11,0-12.63.51-17.32.52-4.69-.62-8.56.51-14.77,1.13-6.21.4-13.85,0-22.41-.4-8.56,2.03-19.15,2.04-26.48,0-7.33-.21-17.82,0-23.43.14-3.77.28-6.71-1.03-7.69-.63-.48-1.22-.88-3.05.05-1.45.74-.21,10.9-.51,17.83s-1.03,18.33-2.04,30.05c-1.01,11.71.81,16.91.51,24.45-.3,7.54-1.54,13.24-2.04,22.41-.5,9.17-.21,15.48,0,20.88.09,2.33-.74,5.77,0,7.64.97,2.47,3.57,2.04,3.57,2.04h10.19s4.43-.62,9.84-.54c3.76.06,8,.71,11.55,1.04,8.67.81,14.15.81,20.88,0s22.5-1.02,29.54,0c3.23.47,7.44,1.06,13.48,1.04,3.62-.01,7.8-.7,12-.85,4.04-.15,8.1.24,11.71.32,7.28.16,15.94.6,23.81.53,6.78-.06,12.85-.63,18.46-.53,7.06.12,16.29-.48,24.03-.53,5.55-.04,10.08.45,13.66.53,8.56.2,10.89,1.73,23.43,2.04,12.54.31,21.28,1.22,36.67,1.53,15.39.31,20.47-1.32,28.01-1.02,7.55.31,9.77.71,18.33.51,8.56-.2,9.06.31,16.3-.51,3.65-.41,6.4-.98,9.17-1.02,2.73-.04,6.5-.05,11.2-.51,4.18-.4,6.9-.44,8.15-1.02,1.58-.74.96-2.03,0-2.55ZM389.91,242.14c-2.12.16-4.86.15-7.13.51-2.62.42-4.17.95-5.6,1.02-1.34.06-2.6-.31-4.07-.51-3.24-.43-5.64-.06-9.17,0-1.41.02-1.97-.25-3.06,0-.2.05-.98.44-1.53,1.53-.5,1-.89,2.69,1.53,3.06,1.86.28,5.34-.2,10.7-.51,1.93-.11,3.12-.4,4.07-.51.81-.09,4.07.51,4.07.51,0,0,4.58-.31,9.17-.51,4.59-.2,9.97-1.02,7.13-3.56-1.58-1.41-3.48-1.21-6.11-1.02ZM792.76,214.13c-1.11-9.57-1.33-14.77-1.53-24.45-.2-9.68-.11-13.45-.51-15.28-.4-1.83-4.08-.81-4.07,3.06,0,3.87,0,14.16.51,19.86.52,5.7-.72,7.54-.51,12.73.21,5.19,1.01,11,1.02,16.3,0,5.3-.52,12.02-.51,13.75,0,1.73-6.63.71-8.66,1.53-.91.36-1.99.59-3.56,1.02-1.94.53-4.48,1.19-6.62.51-1.18-.37-2.35-1.28-4.58-1.53-5.06-.57-13.04-.21-20.88,0-11.3.31-19.87,1.12-26.48,1.53-6.61.41-22.31-3.36-34.63-2.55-9.25.61-17.47,1.66-29.03,2.04-3.84.13-11.01,0-14.77,0-7.35,0-16.43-.32-22.41,0-6.28.34-9.41,1.32-14.26,1.53-5.64.24-16.9.34-25.46,0-5.82-.23-9.52-.85-12.73-1.02-3.46-.18-8.33.71-12.73.51-5.7-.26-11.07-1.54-16.3-1.02-4.34.43-8.32,1.21-13.75,1.53-6.17.36-13.81.24-18.84.51-9.47.51-30.86-.81-39.72-1.53-4.52-.36-10.76-.25-16.3-.51-5.32-.25-9.93-.87-14.77-1.02-9.88-.31-15.58-.1-19.35,0-3.77.1-3.21-1.73-9.17-.51,0,0-.86.83-1.02,2.04-.08.61.53,1.8,1.53,2.04,2.96.71,6,.31,9.17.51,3.17.2,8.65-.2,13.24,0s11.81.81,18.33,1.53c6.53.71,9.77-.2,22.41.51,7.16.4,14.83.86,21.9,1.02,5.41.12,10.44,0,14.77,0,9.99,0,14.46.31,24.45-.51,9.99-.81,12.42-.41,23.94,0,.6.02,7.59-.21,16.81,0,4.2.09,8.33.88,12.73,1.02,5.89.18,11.87-.31,15.28-.51,3.67-.22,6.61-.32,9.17-.51,6.96-.52,11.08-1.02,19.35-1.02,11.31,0,27.9.71,39.72,0,11.82-.71,24.34-2.55,31.58-1.53,7.24,1.02,14.15,3.06,24.45,2.04,6.33-.63,14.93-.36,22.92-.51,1.76-.03,10.83-.19,17.82,0,3.94.11,7.57.9,10.19,1.02-3.35-.16-1.12.67,2.04.51,2.5-.13,5.35-1.2,8.15-1.53,2.33-.27,7-.15,9.68-1.02,3.16-1.02,1.72-4.28,2.04-9.68.31-5.4,1.11-12.83,0-22.41ZM211.66,5.83c1.59.19,4.65-.11,7.13,0,2.49.11,5.43.63,8.15.51,5.43-.24,9.64-.37,14.77-1.02,5.13-.65,19.01.24,25.46,0,6.45-.24,14.43.65,22.41,0,7.98-.65,19.12-.37,25.97-.51,6.86-.14,19.22.44,26.48.51,7.27.07,21.98.54,29.03,3.06,5.67,2.02,12.8,1.56,21.9,1.53,9.1-.03,21.87-.17,29.03,0,7.16.17,15.14-.27,18.84-1.02,3.7-.75,9.74.75,18.84,1.02,9.1.27,11.58.34,17.32,0s4.41-.95,12.22-.51c6.61.37,8.62-.14,13.24,0,3.09.09,6.59,1.05,7.64-.51.49-.73.4-2.03-.51-3.06-.61-.69-1.69-.74-6.62-1.02-4.68-.26-10.12,1.36-14.26,1.53-4.14.17-15.62-.98-24.96-1.53-3.27-.19-6.43.31-9.68,0-6.04-.57-11.95-1.86-16.3-1.02-6.69,1.29-23.05,1.15-31.07,1.02-8.01-.14-17.61-.13-24.95,0-6.73.12-17.96-3.23-25.46-4.07-7.5-.85-27.13-.88-36.16-.51-9.03.37-21.73.44-33.1.51-11.37.07-24.07.14-32.08,0-8.01-.14-12.36.34-18.84.51-3.37.09-7.12.62-10.19.51-2.82-.11-5.02-.86-6.62-1.02-3.33-.34-9.3-.37-9.68,1.53-.37,1.9-1.15,3.19,2.04,3.56ZM523.85,8.38c3.09.88,6.38.44,10.19-.51,3.8-.95,5.26-3.84,2.55-3.57-2.72.27-4.52.65-7.13,0-2.61-.65-5.23-2.31-6.62-1.53-.86.48-1.64,1.63-1.53,3.06.07.88,1.37,2.21,2.55,2.55ZM794.29,21.11c-1.39-6.04-.34-9.95-1.02-12.73-.68-2.78-9.51-2.82-16.81-3.56-7.3-.75-24.48-.78-30.56-1.02-1.95-.08-5.41-.83-9.68-1.02-4.04-.17-8.82.23-12.73,0-4.84-.28-7.65-1.07-10.7-.51-5.46,1.01-16.46,1.92-24.95,2.04-4.13.06-7.65-.66-9.68-.51-3.59.28-11.42.76-18.33.51-4.99-.18-9.29-1.13-12.22-1.02-6.99.27-23.56,1.15-36.67,1.02-6.48-.07-12.55-1.03-17.32-1.02-4.87,0-8.39.98-11.2,1.02-5.57.07-5.23-1.19-9.68-.51-4.45.68-6.76.65-12.22.51-5.47-.14-5.64,1.56-9.68,1.53-4.04-.03-5.73-2.27-8.15-.51-2.04,1.49.88,4.41,7.64,4.58,6.76.17,6.28-1.28,9.99-1.45,3.47-.16,5.06,1.08,8.86-.07,3.8-1.16,8.01-.07,13.24,0s8.52-.98,12.22-.51c1.88.24,4.3,1.2,8.66,1.53,4.21.32,10.3.02,14.77,0,9.1-.03,17.18-.58,24.96-1.02,7.78-.44,11.88,1.15,21.9,1.02,10.02-.14,15.65.65,23.43.51,7.78-.14,16.06-1.49,22.92-2.04,6.86-.54,14.23.54,17.83.51,3.6-.03,8.83-.68,12.73.51,3.9,1.19,12.7,1.26,18.84,1.02,6.15-.24,15.24.95,20.88,1.02,5.64.07,6.62.51,6.62.51,0,0,.88,8.9,1.53,12.22.65,3.33-2.18,17.9-2.04,21.9.08,2.1.74,5.3.51,8.66-.21,3.03-1.32,6.21-1.02,8.66.65,5.16.54,11.13,0,19.86-.15,2.45.27,6.24,0,11.2-.33,6.16-1.44,10.54-1.53,19.35-.06,5.31-.05,8.47,0,11.71.14,9.34,1.49,23.16,1.53,31.58.02,5.71-.66,10.71,0,12.73.31.96.85.9,2.04,1.02,3.7.37-.03-9.03,1.02-12.22,1.05-3.19,1.39-9.34,1.02-16.3-.37-6.96-1.46-18.1-1.02-28.01.44-9.91,1.9-22.68,2.04-31.58.14-8.9-.85-17.59,0-24.45.85-6.86-.85-12.49.51-17.32.83-2.95,1.27-7.42,1.53-11.71.17-2.73.54-5.29,0-7.64Z" style="fill-rule: evenodd;"/>
    </g>
  </g>
</svg>