<?xml version="1.0" encoding="utf-8"?>
<!-- Generator: Adobe Illustrator 17.0.0, SVG Export Plug-In . SVG Version: 6.00 Build 0)  -->
<!DOCTYPE svg PUBLIC "-//W3C//DTD SVG 1.1//EN" "http://www.w3.org/Graphics/SVG/1.1/DTD/svg11.dtd">
<svg version="1.1" id="Layer_1" xmlns="http://www.w3.org/2000/svg" xmlns:xlink="http://www.w3.org/1999/xlink" x="0px" y="0px"
	 width="613px" height="613px" viewBox="0 0 613 613" enable-background="new 0 0 613 613" xml:space="preserve">
<path d="M498.214,133.198l9.675,37.174l-44.634,8.794c-23.45-67.909-71.647-123.979-137.937-138.736
	c45.95,39.1,78.125,87.723,97.564,140.409l27.945-4.337l-191.334,29.697c-0.002,0.004-0.005,0.007-0.007,0.011
	c7.525-12.541,11.295-29.491,9.459-47.675c-3.574-35.385-26.988-61.999-52.297-59.442c-25.309,2.557-42.929,33.314-39.355,68.699
	c1.202,11.899,4.655,22.798,9.661,31.938c-0.001-0.001-0.001-0.002-0.002-0.004c-53.265,1.417-91.417,13.858-110.923,45.706
	c25.202,23.672,75.082,27.83,114.059,21.653l24.254,65.874L151.23,587.218h40.862l73.026-201.897l131.7,201.897h40.154
	L299.69,324.775l-5.646-84.611l161.92-32.092l-23.017,4.562c18.583,69.694,16.346,144.343-4.601,212.296
	c53.082-61.85,62.453-155.346,38.361-235.096l-13.285,2.617l-140.191,27.621l-0.001-0.006l229.548-45.226l-2.15-10.911l0.021-0.004
	l2.151,10.918l-32.101,6.325l9.595,36.865l66.239-55.781L498.214,133.198z M217.65,226.293c-0.64-0.166-1.279-0.343-1.912-0.544
	C216.372,225.95,217.01,226.128,217.65,226.293z M220.073,226.833c-0.614-0.113-1.225-0.247-1.834-0.394
	C218.848,226.586,219.459,226.72,220.073,226.833z M188.079,201.702c-0.098-0.166-0.196-0.331-0.292-0.498
	C187.884,201.371,187.982,201.536,188.079,201.702z M193.158,209.161c-0.096-0.122-0.189-0.247-0.285-0.37
	C192.968,208.913,193.062,209.039,193.158,209.161z M191.163,206.479c-0.121-0.171-0.242-0.341-0.361-0.514
	C190.922,206.138,191.042,206.309,191.163,206.479z M189.901,204.635c-0.038-0.057-0.074-0.116-0.112-0.174
	C189.827,204.519,189.864,204.578,189.901,204.635z M194.088,210.311c0.159,0.193,0.32,0.383,0.481,0.572
	C194.408,210.693,194.247,210.504,194.088,210.311z M196.155,212.679c0.182,0.198,0.363,0.399,0.547,0.594
	C196.518,213.078,196.337,212.878,196.155,212.679z M197.616,214.216c0.219,0.221,0.44,0.438,0.661,0.654
	C198.056,214.653,197.835,214.437,197.616,214.216z M213.783,225.059c0.54,0.205,1.083,0.399,1.63,0.579
	C214.866,225.459,214.323,225.265,213.783,225.059z M199.663,216.176c0.278,0.253,0.557,0.507,0.838,0.753
	C200.219,216.683,199.941,216.43,199.663,216.176z M201.37,217.668c0.292,0.244,0.587,0.481,0.883,0.716
	C201.957,218.149,201.663,217.912,201.37,217.668z M203.374,219.252c0.382,0.286,0.766,0.568,1.153,0.841
	C204.14,219.821,203.756,219.539,203.374,219.252z M205.33,220.644c0.374,0.251,0.75,0.495,1.128,0.733
	C206.08,221.139,205.703,220.896,205.33,220.644z M207.302,221.901c0.479,0.287,0.961,0.563,1.446,0.829
	C208.263,222.464,207.781,222.188,207.302,221.901z M209.474,223.117c0.459,0.24,0.921,0.471,1.385,0.692
	C210.395,223.588,209.933,223.357,209.474,223.117z M211.426,224.078c0.566,0.258,1.136,0.499,1.708,0.729
	C212.561,224.577,211.991,224.337,211.426,224.078z M224.884,227.377c0.69,0.028,1.383,0.026,2.077,0.011
	C226.267,227.403,225.574,227.404,224.884,227.377z M220.256,226.87c0.668,0.119,1.34,0.212,2.014,0.292
	C221.596,227.082,220.924,226.99,220.256,226.87z M222.814,227.222c0.663,0.068,1.328,0.122,1.995,0.15
	C224.142,227.344,223.477,227.289,222.814,227.222z M227.488,227.372c0.699-0.026,1.4-0.067,2.102-0.138
	c0.78-0.079,1.552-0.185,2.317-0.317c-0.765,0.132-1.537,0.238-2.317,0.317C228.887,227.305,228.187,227.345,227.488,227.372z
	 M248.423,219.22c-0.108,0.087-0.218,0.169-0.326,0.255C248.205,219.389,248.315,219.307,248.423,219.22z M246.572,220.637
	c-0.142,0.102-0.287,0.197-0.43,0.297C246.285,220.834,246.43,220.739,246.572,220.637z M244.657,221.933
	c-0.18,0.114-0.363,0.218-0.544,0.328C244.294,222.151,244.478,222.047,244.657,221.933z M242.68,223.105
	c-0.221,0.122-0.447,0.231-0.67,0.348C242.232,223.336,242.459,223.227,242.68,223.105z M240.641,224.147
	c-0.267,0.126-0.54,0.236-0.81,0.355C240.101,224.383,240.373,224.272,240.641,224.147z M238.542,225.054
	c-0.318,0.125-0.644,0.232-0.966,0.347C237.898,225.286,238.224,225.179,238.542,225.054z M236.385,225.822
	c-0.378,0.12-0.763,0.218-1.145,0.325C235.622,226.04,236.007,225.942,236.385,225.822z M234.172,226.444
	c-0.469,0.115-0.946,0.203-1.421,0.298C233.227,226.648,233.704,226.559,234.172,226.444z M251.765,216.199
	c0.054-0.054,0.109-0.106,0.163-0.161C251.874,216.093,251.819,216.145,251.765,216.199z M249.968,217.897
	c0.08-0.071,0.161-0.14,0.241-0.212C250.13,217.757,250.048,217.825,249.968,217.897z M258.124,208.37
	c-0.004,0.006-0.009,0.013-0.013,0.019C258.116,208.382,258.12,208.376,258.124,208.37z M256.679,210.445
	c-0.009,0.012-0.018,0.024-0.027,0.036C256.661,210.47,256.67,210.458,256.679,210.445z M255.164,212.416
	c-0.019,0.023-0.038,0.046-0.057,0.07C255.126,212.462,255.145,212.44,255.164,212.416z M253.579,214.282
	c-0.033,0.037-0.067,0.073-0.1,0.11C253.512,214.355,253.546,214.319,253.579,214.282z"/>
</svg>
