<?xml version="1.0" encoding="utf-8"?>
<!-- Generator: Adobe Illustrator 17.0.0, SVG Export Plug-In . SVG Version: 6.00 Build 0)  -->
<!DOCTYPE svg PUBLIC "-//W3C//DTD SVG 1.1//EN" "http://www.w3.org/Graphics/SVG/1.1/DTD/svg11.dtd">
<svg version="1.1" id="Layer_1" xmlns="http://www.w3.org/2000/svg" xmlns:xlink="http://www.w3.org/1999/xlink" x="0px" y="0px"
	 width="613px" height="613px" viewBox="0 0 613 613" enable-background="new 0 0 613 613" xml:space="preserve">
<path d="M589.828,387.858v-34.735c-64.153-25.576-101.934-49.441-113.552-87.5c-9.539-31.25,19.241-72.822,73.475-122.904
	c-56.658,31.054-98.366,52.146-114.888,22.71c-14.836-26.426,1.781-75.968,28.053-140.937h-18.702
	c-20.952,33.167-38.798,58.32-45.422,52.1c-5.773-5.421-5.837-24.927-3.339-52.1H356.71l0.004-0.011
	c-25.635,57.409-52.817,89.93-92.176,95.515c-33.631,4.769-77.181-34.751-126.243-90.841c27.93,55.43,38.204,99.897,19.37,110.881
	c-22.265,12.988-66.869-2.323-132.922-30.056v12.688c45.441,28.84,87.304,56.995,79.486,67.466
	c-6.862,9.187-38.152,7.597-79.486,2.01v32.731c59.78,30.2,92.176,61.167,92.176,90.173c0,24.948-49.82,75.878-92.176,116.223
	v19.372c38.224-12.522,85.104-17.387,100.861,10.687c16.071,28.63,5.281,69.181-15.362,128.246h35.402
	c37.507-50.663,73.167-91.291,92.176-89.505c13.465,1.273,7.176,42.63-2.004,89.505h10.687
	c33.396-92.807,74.549-149.695,135.593-147.618c53.564,1.833,104.391,55.754,160.307,94.181
	c-29.228-35.766-83.073-86.704-71.47-96.183c12.201-9.983,64.507,8.279,118.895,28.054v-17.365
	c-35.684-24.346-68.51-47.74-60.116-56.109C537.259,387.01,560.283,385.794,589.828,387.858z M420.432,346.368
	c-6.42,6.403,33.687,30.211,56.635,46.712c-34.671-12.107-78.379-30.315-86.553-23.631c-5.902,4.827,21.463,30.71,36.332,48.909
	c-28.448-19.552-54.496-46.894-81.747-47.811c-40.068-1.366-63.023,46.788-82.814,120.349c5.203-34.921,20.866-89.625,9.616-90.675
	c-15.956-1.5-54.513,55.391-83.347,97.819c20.135-61.02,38.429-95.777,26.178-117.603c-11.06-19.702-52.558-7.723-70.526,2.749
	c21.169-19.977,66.036-60.172,66.036-77.095c0-24.632-44.447-52.348-126.408-75.682c49.271,7.766,112.798,22.02,120.214,12.091
	c5.796-7.761-41.985-34.724-71.06-53.853c51.182,21.949,83.617,36.78,98.118,28.324c9.581-5.59,4.248-28.152-9.961-56.354
	c24.961,28.531,47.339,48.62,64.449,46.194c36.096-5.118,51.688-52.872,79.807-144.013l0.004,0.003
	c-6.611,50.72-19.998,114.259-11.754,121.998c6.174,5.8,31.341-41.064,50.756-70.891c-21.922,55.28-43.004,96.856-32.371,115.8
	c8.403,14.971,29.726,4.412,58.549-11.385c-27.591,25.48-42.413,46.603-37.56,62.498c9.63,31.55,54.731,43.914,135.334,72.14
	C486.969,347.598,429.999,336.827,420.432,346.368z"/>
</svg>
