<?xml version="1.0" encoding="utf-8"?>
<!-- Generator: Adobe Illustrator 17.0.0, SVG Export Plug-In . SVG Version: 6.00 Build 0)  -->
<!DOCTYPE svg PUBLIC "-//W3C//DTD SVG 1.1//EN" "http://www.w3.org/Graphics/SVG/1.1/DTD/svg11.dtd">
<svg version="1.1" id="Layer_1" xmlns="http://www.w3.org/2000/svg" xmlns:xlink="http://www.w3.org/1999/xlink" x="0px" y="0px"
	 width="613px" height="613px" viewBox="0 0 613 613" enable-background="new 0 0 613 613" xml:space="preserve">
<rect x="36.842" y="530.918" transform="matrix(0.7071 -0.7071 0.7071 0.7071 -385.0424 200.6624)" width="25.715" height="68.4"/>
<path d="M269.279,398.082c0-29.046-23.562-52.609-52.609-52.609s-52.608,23.562-52.608,52.608c0,29.046,23.549,52.595,52.609,52.609
	C245.731,450.703,269.292,427.141,269.279,398.082z"/>
<path d="M164.308,403.111l-0.483-0.483L64.25,502.202l48.366,48.366l99.575-99.575l-0.551-0.551
	C186.598,448.056,166.683,428.141,164.308,403.111z"/>
<g>
	<path d="M164.062,398.081c0-27.242,20.725-49.658,47.262-52.339c-27.975-31.8-52.808-66.378-74.142-103.332l-66.787,66.787
		l93.912,93.912C164.15,401.455,164.062,399.778,164.062,398.081z"/>
	<path d="M269.011,403.446c-2.677,26.54-25.091,47.257-52.34,47.244c-1.698-0.001-3.375-0.089-5.032-0.247l94.02,94.02
		l66.787-66.787C335.293,456.22,300.705,431.339,269.011,403.446z"/>
</g>
<path d="M488.183,44.677L234.959,297.901c3.912,5.76,6.423,12.817,6.423,20.244c0,11.514-5.5,21.815-13.993,28.425
	c20.779,4.305,37.066,20.874,40.978,41.793c6.593-8.755,17.061-14.451,28.781-14.451c7.427,0,14.074,2.101,19.742,5.921
	l253.223-253.223l17.774-99.705L488.183,44.677z"/>
<g transform="matrix(13.21488 13.21488 13.21488 -13.21488 -20892.32914 7285.0039)">
	<path d="M535.563,1047.308h5.098v2.243h-5.098V1047.308z"/>
</g>
</svg>
