<?xml version="1.0" encoding="utf-8"?>
<!-- Generator: Adobe Illustrator 17.0.0, SVG Export Plug-In . SVG Version: 6.00 Build 0)  -->
<!DOCTYPE svg PUBLIC "-//W3C//DTD SVG 1.1//EN" "http://www.w3.org/Graphics/SVG/1.1/DTD/svg11.dtd">
<svg version="1.1" id="Layer_1" xmlns="http://www.w3.org/2000/svg" xmlns:xlink="http://www.w3.org/1999/xlink" x="0px" y="0px"
	 width="613px" height="613px" viewBox="0 0 613 613" enable-background="new 0 0 613 613" xml:space="preserve">
<path d="M530.102,431.244c-25.569-85.669-143.676-133.554-252.584-153.59c21.117,93.941-3.641,157.088,20.346,237.623
	c25.571,85.859,123.205,90.371,141.688,7.577c66.746,61.333,114.537-11.247,90.55-91.613V431.244z"/>
<path d="M61.512,358.583c49.954-64.697,135.431-102.78,232.222-67.912c-45.989,107.838-13.162,184.828-59.718,244.22
	c-49.632,63.317-134.988,23.851-124.201-56.378C32.7,502.199,15.483,418.194,61.512,358.583z"/>
<path d="M194.421,51.56c80.086,46.295,103.218,140.504,97.703,249.186c-108.443-62.276-139.583-7.41-217.666-39.711
	c-85.647-35.429-67.056-144.158,13.776-142.204C34.751,37.706,119.294,8.131,194.421,51.56z"/>
<path d="M413.112,59.911C328.268,81.117,286.57,182.496,286.4,295.742c117.803-29.165,162.628,49.458,243.856,29.574
	c86.596-21.197,76.937-129.602-12.936-154.101C572.025,105.571,494.077,39.674,413.112,59.911L413.112,59.911z"/>
</svg>
