<?xml version="1.0" encoding="utf-8"?>
<!-- Generator: Adobe Illustrator 17.0.0, SVG Export Plug-In . SVG Version: 6.00 Build 0)  -->
<!DOCTYPE svg PUBLIC "-//W3C//DTD SVG 1.1//EN" "http://www.w3.org/Graphics/SVG/1.1/DTD/svg11.dtd">
<svg version="1.1" id="Layer_1" xmlns="http://www.w3.org/2000/svg" xmlns:xlink="http://www.w3.org/1999/xlink" x="0px" y="0px"
	 width="613px" height="613px" viewBox="0 0 613 613" enable-background="new 0 0 613 613" xml:space="preserve">
<path d="M438.901,308.79c0,73.027-59.203,132.23-132.23,132.23s-132.23-59.203-132.23-132.23s59.203-132.23,132.23-132.23
	S438.901,235.763,438.901,308.79z"/>
<path d="M510.378,337.242c4.419-30.896,39.075-52.294,82.021-55.108c-2.82-31.013-10.499-60.567-22.611-88.31
	c-38.981,18.071-79.669,15.696-98.341-9.206c-18.762-25.033-8.689-64.366,19.927-96.81c-23.33-19.544-50.479-35.182-79.617-46.638
	c-14.739,40.434-45.006,67.695-75.898,63.28c-30.892-4.415-52.299-39.076-55.109-82.022v0.003
	c-31.182,2.828-61.628,10.223-89.499,22.445c18.374,39.161,17.013,79.745-8.017,98.512c-24.906,18.668-64.623,9.539-96.979-18.736
	c-19.42,23.249-35.062,49.425-46.465,78.428c40.436,14.742,67.698,45.013,63.279,75.895c-4.419,30.882-39.075,52.299-82.021,55.11
	c2.795,30.833,10.624,60.701,22.611,88.31c21.289-9.779,42.792-13.277,61.082-10.706c15.577,2.233,28.619,8.391,37.259,19.914
	c18.906,25.218,9.049,65.418-20.096,97.996c23.329,19.546,50.479,35.18,79.617,46.635c14.739-40.434,45.006-67.701,75.898-63.28
	s52.298,39.076,55.109,82.022c31.182-2.828,61.628-10.22,89.499-22.442c-18.846-39.442-17.038-80.795,8.188-99.703
	c11.522-8.642,26.968-10.766,42.537-8.497c18.063,2.582,37.262,12.255,54.441,27.233c19.231-23.124,35.139-49.638,46.465-78.425
	C533.221,398.4,505.959,368.137,510.378,337.242z M306.637,470.108c-89.141,0-161.402-72.26-161.402-161.402
	s72.261-161.402,161.402-161.402s161.402,72.263,161.402,161.402S395.778,470.108,306.637,470.108z"/>
</svg>
