<?xml version="1.0" encoding="UTF-8"?>
<!-- Generator: Adobe Illustrator 17.0.0, SVG Export Plug-In . SVG Version: 6.00 Build 0)  -->
<!DOCTYPE svg PUBLIC "-//W3C//DTD SVG 1.1//EN" "http://www.w3.org/Graphics/SVG/1.1/DTD/svg11.dtd">
<svg version="1.1" id="Layer_1" xmlns="http://www.w3.org/2000/svg" xmlns:xlink="http://www.w3.org/1999/xlink" x="0px" y="0px" width="613px" height="613px" viewBox="0 0 613 613" enable-background="new 0 0 613 613" xml:space="preserve">
<g>
	<path d="M224.756,355.947v89.758l76.982,44.879l76.981-44.879v-89.759l-76.982-44.878L224.756,355.947z M231.45,444.071   l-0.32-83.023l72.205-41.016L231.45,444.071z"/>
	<path d="M547.801,13.521l-36.65,0.002c-8.167,8.167-9.735,20.444-4.711,30.195l-32.575,25.367c-4.526-3.863-10.393-6.2-16.81-6.2   c-14.312,0-25.915,11.603-25.915,25.916c0,4.12,0.966,8.012,2.676,11.47l-32.053,24.96c-4.682-4.637-11.122-7.503-18.233-7.503   c-14.312,0-25.915,11.604-25.915,25.916c0,4.808,1.314,9.307,3.596,13.166l-30.795,23.98c-6.6-21.004-44.959-23.772-56.447-5.395   l-30.138-22.566c1.083-2.855,1.681-5.949,1.681-9.184c0-14.312-11.603-25.916-25.915-25.916c-5.872,0-11.287,1.956-15.633,5.249   L170.37,97.821c1.044-2.81,1.616-5.848,1.616-9.021c0-14.313-11.603-25.916-25.915-25.916c-5.809,0-11.172,1.912-15.494,5.141   l-35.88-26.866c3.56-9.267,1.613-20.169-5.856-27.638l-36.65,0.002C42.078,23.636,42.078,40.055,52.193,50.17   c9.554,9.554,24.728,10.079,34.906,1.585l35.323,26.449c-1.452,3.236-2.266,6.819-2.266,10.595   c0,14.312,11.603,25.914,25.915,25.914c6.421,0,12.292-2.34,16.819-6.208l32.986,24.699c-1.407,3.194-2.195,6.723-2.195,10.437   c0,14.312,11.603,25.914,25.915,25.914c6.359,0,12.179-2.294,16.688-6.094l34.434,25.783v50.445l0.969-0.011l-124.17,71.882   l-0.002,178.445l154.122,89.222l154.123-89.222l0.001-178.446l-125.319-72.547l0.95-0.011v-42.454l39.148-30.485   c3.82,2.217,8.254,3.493,12.989,3.493c14.312,0,25.915-11.602,25.915-25.914c0-2.463-0.351-4.843-0.993-7.1l33.905-26.402   c4.177,2.882,9.239,4.574,14.698,4.574c14.312,0,25.915-11.602,25.915-25.914c0-3.174-0.573-6.214-1.618-9.025l33.807-26.326   c10.063,6.68,23.774,5.588,32.642-3.279C557.916,40.055,557.916,23.636,547.801,13.521z M399.098,457.735l-97.537,56.811   l-97.536-56.811l0.001-113.623l97.537-56.811l97.536,56.811L399.098,457.735z"/>
</g>
</svg>