<?xml version="1.0" encoding="utf-8"?>
<!-- Generator: Adobe Illustrator 17.0.0, SVG Export Plug-In . SVG Version: 6.00 Build 0)  -->
<!DOCTYPE svg PUBLIC "-//W3C//DTD SVG 1.1//EN" "http://www.w3.org/Graphics/SVG/1.1/DTD/svg11.dtd">
<svg version="1.1" id="Layer_1" xmlns="http://www.w3.org/2000/svg" xmlns:xlink="http://www.w3.org/1999/xlink" x="0px" y="0px"
	 width="613px" height="613px" viewBox="0 0 613 613" enable-background="new 0 0 613 613" xml:space="preserve">
<path d="M543.918,139.772l-81.489-12.266l23.764-31.408l-98.574-75.246L362.57,53.951c-40.795-24.1-82.778-34.517-113.769-31.348
	l0.005,0.027c-4.428,0.425-8.629,1.494-12.572,2.481c-12.378,3.109-21.999,8.786-28.067,16.809l103.667,79.102l-23.121,30.563
	l19.482,14.871C203.366,295.413,83.255,405.922,15.69,554.794l59.385,44.95c127.293-110.584,195.543-247.92,293.792-386.979
	l18.42,14.06l23.764-31.408l33.961,75.082l50.932,38.531c62.577-26.304,90.454-72.846,98.908-130.716L543.918,139.772z"/>
</svg>
