<?xml version="1.0" encoding="utf-8"?>
<!-- Generator: Adobe Illustrator 17.0.0, SVG Export Plug-In . SVG Version: 6.00 Build 0)  -->
<!DOCTYPE svg PUBLIC "-//W3C//DTD SVG 1.1//EN" "http://www.w3.org/Graphics/SVG/1.1/DTD/svg11.dtd">
<svg version="1.1" id="Layer_1" xmlns="http://www.w3.org/2000/svg" xmlns:xlink="http://www.w3.org/1999/xlink" x="0px" y="0px"
	 width="612px" height="612px" viewBox="0 0 612 612" enable-background="new 0 0 612 612" xml:space="preserve">
<path display="none" d="M0,90h612v612H0V90z"/>
<path d="M540.62,308.449c29.197-31.381,46.213-68.983,46.213-109.407c-0.001-52.992-30.339-100.936-77.885-136.586
	c16.848,22.749,27.568,48.267,27.568,75.74c0,28.303-10.087,54.922-27.843,78.133l-11.45-33.015l-54.949,17.199
	c-24.269-32.782-56.276-52.379-97.36-59.522C334.542,88.269,319.745,27.431,307,27.431c-12.745,0-27.542,60.838-37.914,113.56
	c-41.081,7.142-73.087,26.738-97.356,59.516l-54.934-17.195l-11.445,33.001c-17.759-23.214-27.848-49.835-27.848-78.137
	c0-27.473,10.701-52.991,27.568-75.74c-47.565,35.669-77.903,83.614-77.903,136.605c0,40.43,17.021,78.037,46.226,109.421
	l-11.961,34.489l55.023,25.406c-5.891,46.24-8.596,99.713-8.596,160.737C169.465,564.859,237.73,582.637,307,582.2
	c69.27,0.436,137.535-17.341,199.14-53.105c0-61.02-2.705-114.49-8.595-160.728l55.041-25.415L540.62,308.449z M333.534,408.495
	c-5.864,48.14-13.804,121.733-13.804,167.35h-25.461c0-45.662-7.955-119.355-13.821-167.492
	c-86.872-5.566-124.245-35.993-124.245-35.993s2.751-20.159,5.447-35.972c0.004-0.024,0.008-0.048,0.012-0.072
	c0.208-1.222,0.417-2.417,0.623-3.575c0.016-0.089,0.032-0.176,0.047-0.264c0.085-0.473,0.169-0.938,0.253-1.398
	c0.019-0.106,0.039-0.213,0.058-0.318c0.195-1.06,0.387-2.079,0.577-3.049c0.024-0.122,0.047-0.241,0.071-0.361
	c0.072-0.364,0.143-0.72,0.213-1.068c0.025-0.121,0.049-0.243,0.073-0.362c0.091-0.445,0.182-0.881,0.271-1.297
	c45.915,15.463,94.258,23.261,143.17,22.976c48.893,0.266,97.236-7.513,143.151-22.976c0.087,0.407,0.175,0.833,0.264,1.268
	c0.031,0.149,0.061,0.302,0.092,0.454c0.061,0.3,0.122,0.606,0.183,0.917c0.034,0.171,0.067,0.341,0.101,0.516
	c0.078,0.397,0.155,0.803,0.234,1.216c0.032,0.167,0.064,0.337,0.096,0.507c0.07,0.372,0.14,0.749,0.211,1.132
	c0.041,0.222,0.082,0.448,0.123,0.674c0.053,0.294,0.107,0.59,0.161,0.889c0.042,0.235,0.085,0.47,0.127,0.709
	c0.065,0.362,0.129,0.73,0.194,1.1c0.062,0.355,0.125,0.714,0.187,1.075c0.054,0.309,0.107,0.619,0.161,0.932
	c0.049,0.285,0.097,0.571,0.146,0.859c0.045,0.265,0.09,0.531,0.135,0.798c0.052,0.309,0.104,0.618,0.156,0.93
	c0.046,0.273,0.091,0.549,0.137,0.824c0.084,0.508,0.168,1.018,0.252,1.53c0.046,0.283,0.093,0.566,0.139,0.851
	c0.051,0.316,0.102,0.632,0.153,0.949c0.043,0.268,0.086,0.535,0.129,0.803c0.048,0.303,0.097,0.605,0.145,0.908
	c0.069,0.432,0.137,0.865,0.205,1.297c0.053,0.333,0.105,0.666,0.157,0.999c0.055,0.35,0.11,0.7,0.164,1.05
	c0.042,0.267,0.083,0.533,0.124,0.799c0.052,0.333,0.103,0.665,0.154,0.996c0.039,0.255,0.079,0.51,0.118,0.764
	c0.082,0.536,0.164,1.07,0.244,1.599c0.025,0.165,0.05,0.328,0.075,0.492c0.066,0.436,0.132,0.87,0.197,1.301
	c0.024,0.159,0.048,0.318,0.072,0.477c0.073,0.489,0.146,0.974,0.218,1.453c0.012,0.078,0.024,0.158,0.035,0.236
	c1.371,9.198,2.358,16.431,2.358,16.431S421.756,403.335,333.534,408.495z"/>
</svg>
