<?xml version="1.0" encoding="utf-8"?>
<!-- Generator: Adobe Illustrator 17.0.0, SVG Export Plug-In . SVG Version: 6.00 Build 0)  -->
<!DOCTYPE svg PUBLIC "-//W3C//DTD SVG 1.1//EN" "http://www.w3.org/Graphics/SVG/1.1/DTD/svg11.dtd">
<svg version="1.1" id="Layer_1" xmlns="http://www.w3.org/2000/svg" xmlns:xlink="http://www.w3.org/1999/xlink" x="0px" y="0px"
	 width="612px" height="612px" viewBox="0 0 612 612" enable-background="new 0 0 612 612" xml:space="preserve">
<path d="M306.247,19.738C148.185,19.774,20.079,147.937,20.114,306c0,0.043,0,0.086,0,0.129
	c0.036,158.063,128.2,286.169,286.262,286.133c158.063-0.036,286.169-128.2,286.133-286.262c0-0.043,0-0.086,0-0.129
	C592.474,147.808,464.31,19.702,306.247,19.738z M294.414,41.178l13.319-7.691l13.319,7.691v15.38l-13.319,7.691l-13.319-7.691
	V41.178z M68.224,168.858l13.319-7.691l13.319,7.691v15.38l-13.319,7.691l-13.319-7.691V168.858z M95.384,443.858l-13.319,7.691
	l-13.319-7.691v-15.38l13.319-7.691l13.319,7.691V443.858z M319.124,571.018l-13.319,7.691l-13.319-7.691v-15.38l13.319-7.691
	l13.319,7.691V571.018z M306.357,534.999c-126.45,0.023-228.978-102.466-229.001-228.917c0-0.028,0-0.057,0-0.085
	c-0.023-126.449,102.466-228.977,228.917-229c126.45-0.023,228.978,102.466,229.001,228.917c0,0.028,0,0.056,0,0.085
	C535.297,432.449,432.808,534.976,306.357,534.999z M542.864,442.798l-13.319,7.691l-13.319-7.691v-15.38l13.319-7.691l13.319,7.691
	V442.798z M543.387,184.238l-13.319,7.691l-13.319-7.691v-15.38l13.319-7.691l13.319,7.691L543.387,184.238L543.387,184.238z"/>
<g>
	<path d="M416.847,139.988c-27.51-18.357-59.838-30.059-94.687-32.799v397.636c34.851-2.74,67.177-14.444,94.687-32.8
		L416.847,139.988L416.847,139.988z"/>
	<path d="M198.536,473.839c28.312,18.222,61.532,29.475,97.239,31.334V106.839c-35.708,1.859-68.928,13.112-97.239,31.334
		L198.536,473.839L198.536,473.839z"/>
	<path d="M172.152,158.442c-40.094,36.483-65.258,89.086-65.247,147.565c0,0.025,0,0.049,0,0.074
		c0.011,58.452,25.171,111.024,65.247,147.49V158.442z"/>
	<path d="M443.231,161.01v289.993c38.483-36.362,62.499-87.873,62.489-144.996c0-0.025,0-0.049,0-0.074
		C505.709,248.836,481.697,197.354,443.231,161.01z"/>
</g>
</svg>
