<?xml version="1.0" encoding="utf-8"?>
<!-- Generator: Adobe Illustrator 17.0.0, SVG Export Plug-In . SVG Version: 6.00 Build 0)  -->
<!DOCTYPE svg PUBLIC "-//W3C//DTD SVG 1.1//EN" "http://www.w3.org/Graphics/SVG/1.1/DTD/svg11.dtd">
<svg version="1.1" id="Layer_1" xmlns="http://www.w3.org/2000/svg" xmlns:xlink="http://www.w3.org/1999/xlink" x="0px" y="0px"
	 width="613px" height="613px" viewBox="0 0 613 613" enable-background="new 0 0 613 613" xml:space="preserve">
<path d="M303.779,79.23c-148.877,0-269.567,89.293-269.567,199.45c0,61.948,38.169,117.299,98.054,153.882l-16.735,126.699
	l120.539-87.473c21.636,4.141,44.324,6.347,67.709,6.347c148.877,0,269.567-89.298,269.567-199.455
	C573.346,168.528,452.656,79.23,303.779,79.23z M187.679,328.033c15.169,0,27.468,12.297,27.468,27.468
	c0,15.17-12.299,27.468-27.468,27.468s-27.468-12.299-27.468-27.468S172.51,328.033,187.679,328.033z M303.404,382.969
	c-15.169,0-27.468-12.299-27.468-27.468s12.299-27.468,27.468-27.468c15.169,0,27.468,12.297,27.468,27.468
	C330.872,370.671,318.573,382.969,303.404,382.969z M422.757,382.969c-15.169,0-27.468-12.299-27.468-27.468
	s12.299-27.468,27.468-27.468c15.169,0,27.468,12.297,27.468,27.468C450.225,370.671,437.927,382.969,422.757,382.969z"/>
</svg>
