<?xml version="1.0" encoding="UTF-8" standalone="no"?>
<!-- Created with Inkscape (http://www.inkscape.org/) -->

<svg
   xmlns:dc="http://purl.org/dc/elements/1.1/"
   xmlns:cc="http://creativecommons.org/ns#"
   xmlns:rdf="http://www.w3.org/1999/02/22-rdf-syntax-ns#"
   xmlns:svg="http://www.w3.org/2000/svg"
   xmlns="http://www.w3.org/2000/svg"
   xmlns:sodipodi="http://sodipodi.sourceforge.net/DTD/sodipodi-0.dtd"
   xmlns:inkscape="http://www.inkscape.org/namespaces/inkscape"
   id="svg4220"
   version="1.1"
   inkscape:version="0.91 r13725"
   width="465"
   height="494.0625"
   viewBox="0 0 465 494.0625"
   sodipodi:docname="ComicCharacter252.svg">
  <metadata
     id="metadata4226">
    <rdf:RDF>
      <cc:Work
         rdf:about="">
        <dc:format>image/svg+xml</dc:format>
        <dc:type
           rdf:resource="http://purl.org/dc/dcmitype/StillImage" />
        <dc:title></dc:title>
      </cc:Work>
    </rdf:RDF>
  </metadata>
  <defs
     id="defs4224" />
  <sodipodi:namedview
     pagecolor="#ffffff"
     bordercolor="#666666"
     borderopacity="1"
     objecttolerance="10"
     gridtolerance="10"
     guidetolerance="10"
     inkscape:pageopacity="0"
     inkscape:pageshadow="2"
     inkscape:window-width="1600"
     inkscape:window-height="837"
     id="namedview4222"
     showgrid="false"
     inkscape:zoom="1.3561037"
     inkscape:cx="232.5"
     inkscape:cy="247.03125"
     inkscape:window-x="-8"
     inkscape:window-y="-8"
     inkscape:window-maximized="1"
     inkscape:current-layer="svg4220" />
  <path
     style="fill:#000000"
     d="m 312.01789,491.04107 c -4.21799,-5.94764 -4.27955,-6.27975 -2.03392,-10.97201 1.14772,-2.39816 2.96663,-5.15655 4.04204,-6.12978 3.3352,-3.01832 11.22655,-19.80026 11.83421,-25.16694 l 0.55097,-4.86609 -4.53372,-2.34375 c -4.15976,-2.15043 -4.52529,-2.6144 -4.43157,-5.625 0.0562,-1.80469 1.18477,-5.8125 2.50796,-8.90625 5.31179,-12.41944 8.76934,-30.64983 9.33475,-49.21875 0.21524,-7.06892 -0.005,-8.3152 -1.94568,-11.03685 C 325.0544,363.56707 319.14613,360 316.12015,360 c -0.97188,0 -2.39555,0.73828 -3.16373,1.64062 -1.33093,1.5634 -7.33142,24.31767 -7.33142,27.80128 0,2.86143 -6.68134,13.77744 -9.11003,14.88403 -1.98467,0.90428 -3.3671,0.50735 -10.06127,-2.8888 -8.23826,-4.17952 -13.27241,-4.9486 -19.09829,-2.91768 -3.60465,1.25658 -8.90394,-0.21452 -12.3595,-3.43106 -2.17021,-2.02008 -15.81544,-6.02589 -20.52639,-6.02589 -0.93933,0 -3.13783,-0.94922 -4.88557,-2.10938 -1.74773,-1.16015 -5.53296,-2.8922 -8.41161,-3.849 -4.50792,-1.49832 -5.95463,-1.59 -10.42982,-0.66095 -2.85774,0.59326 -7.24656,2.37915 -9.75291,3.96862 -2.50634,1.58948 -6.22948,3.48005 -8.27363,4.20127 -2.04416,0.72122 -4.37799,1.90982 -5.1863,2.64132 -3.50406,3.17114 -9.87952,5.14196 -16.70042,5.16253 -7.69807,0.0233 -11.97201,-1.406 -16.75022,-5.60132 -3.80461,-3.34049 -3.63188,-3.32266 -9.03531,-0.93246 -2.68886,1.1894 -7.99953,2.21327 -14.41605,2.77931 -27.69905,2.4435 -34.501596,4.09604 -47.963714,11.65179 -10.251513,5.75375 -14.244737,6.50987 -18.151308,3.43696 -1.266486,-0.99621 -2.802276,-3.47873 -3.412866,-5.5167 -1.248488,-4.16708 -3.80227,-5.25645 -8.974615,-3.82829 -4.709442,1.30034 -6.078511,4.77257 -7.330966,18.59279 -0.912108,10.06467 -0.883586,12.87266 0.160063,15.75882 2.768304,7.6556 0.363417,15.40277 -6.600285,21.26235 -4.325804,3.63992 -7.05054,2.78929 -15.493833,-4.83697 C 14.725371,443.83558 10.420979,436.38231 8.5020742,426.32144 7.1212017,419.08149 7.5885248,415.4752 11.022054,406.875 c 2.913178,-7.29684 3.289209,-14.00701 0.931071,-16.61467 -2.3459203,-2.59414 -2.0483203,-4.41825 1.35282,-8.29193 3.103677,-3.5349 11.314856,-7.9059 14.851674,-7.9059 2.912596,0 8.309744,2.758 9.406143,4.80664 2.766587,5.16942 18.622111,7.74719 22.201863,3.60955 5.961936,-6.89107 3.549675,-6.22722 24.670262,-6.78917 18.661103,-0.49652 42.945793,-3.30676 46.910303,-5.4285 0.93396,-0.49985 1.97631,-2.39167 2.31632,-4.20407 0.34001,-1.81239 1.41285,-3.72054 2.38409,-4.24034 1.00107,-0.53575 1.7659,-1.95247 1.7659,-3.27101 0,-2.35899 -2.03558,-3.67769 -8.8038,-5.70328 -2.29595,-0.68714 -2.90834,-1.58859 -4.00777,-5.89945 -0.71375,-2.79862 -1.7565,-5.64118 -2.31722,-6.3168 -3.49068,-4.20601 -13.16808,-7.5058 -25.18371,-8.58708 -6.699336,-0.60287 -7.044697,-0.74868 -7.316121,-3.08884 -0.233343,-2.01184 0.934927,-3.56938 6.458768,-8.61089 12.500983,-11.4094 20.626603,-14.21008 40.012953,-13.79137 10.26663,0.22174 14.35434,-1.69585 19.88294,-9.32731 2.74308,-3.78644 5.33693,-6.18628 8.08011,-7.47572 3.45163,-1.62246 4.12709,-2.41363 4.63704,-5.43135 1.58033,-9.35197 3.79414,-16.03001 7.93935,-23.94931 2.48891,-4.755 4.99822,-10.43842 5.57626,-12.62983 0.57803,-2.1914 1.46224,-3.98437 1.96491,-3.98437 1.66514,0 13.04937,-12.22257 13.66358,-14.66977 0.359,-1.43039 0.013,-3.64058 -0.85479,-5.46037 -1.3446,-2.81967 -1.32637,-3.26737 0.23454,-5.76044 0.93084,-1.48675 3.88203,-4.81255 6.55818,-7.39067 6.31578,-6.08442 10.70345,-15.0275 10.58733,-21.57941 -0.10206,-5.75902 -4.39592,-24.08628 -6.69521,-28.57684 -0.92406,-1.80469 -1.9606,-4.41784 -2.30344,-5.80701 -0.34283,-1.38916 -2.51965,-5.29561 -4.83737,-8.68098 -2.31771,-3.38537 -4.21403,-6.59396 -4.21403,-7.13018 0,-4.1812 -11.97781,-19.16802 -15.95531,-19.96352 -2.50059,-0.50012 -3.41928,-1.80475 -8.45983,-12.01376 -3.11004,-6.29901 -6.11402,-12.006291 -6.67553,-12.682856 -0.56151,-0.676575 -1.35049,-4.499318 -1.75329,-8.494988 -0.40281,-3.995669 -1.7666,-10.225027 -3.03065,-13.843018 -2.61811,-7.493601 -7.97963,-18.95682 -9.22695,-19.727705 -1.07212,-0.66261 -1.09019,-6.314616 -0.0239,-7.484108 1.34444,-1.474581 -0.15915,-9.954381 -1.9663,-11.089432 -2.88683,-1.813191 -4.65263,1.236487 -5.17948,8.945379 -0.54728,8.007868 -1.60164,10.805957 -3.48338,9.244255 -2.3121,-1.918864 -2.5014,-5.549181 -0.52262,-10.022512 2.39117,-5.405664 2.4912,-8.749907 0.26164,-8.748612 -2.30788,0.0013 -6.79687,8.336701 -6.79687,12.620723 0,1.891499 -0.43672,4.255104 -0.97048,5.252456 -1.27712,2.386309 -5.23512,2.356995 -6.52239,-0.04831 -1.26216,-2.358379 1.29475,-7.670107 5.64747,-11.732077 3.49706,-3.263455 5.9127,-8.304593 5.14243,-10.731549 -1.08864,-3.42991 -12.9463,-3.066375 -31.42205,0.963349 -4.89844,1.068391 -12.914063,2.738411 -17.8125,3.711152 -4.898438,0.972743 -10.382813,2.168038 -12.1875,2.656211 -1.804688,0.488174 -7.5,1.358106 -12.65625,1.933183 C 58.125,38.013669 51.164062,39.085472 47.8125,39.820376 40.203429,41.488833 29.277461,42.904443 18.18343,43.659233 10.65635,44.171342 9.1907808,44.006626 5.7765548,42.264817 3.082171,40.890246 1.7314179,39.509269 1.3341137,37.722974 1.0201266,36.311275 0.58758166,34.495191 0.37290279,33.687228 -0.46016554,30.551905 3.9089018,28.371799 15.963165,25.907894 c 6.459427,-1.320314 14.475052,-3.018198 17.8125,-3.773076 3.337447,-0.754877 9.443085,-1.64579 13.568085,-1.979807 4.125,-0.334018 13.697038,-1.841475 21.271196,-3.349907 7.574158,-1.508432 16.054173,-2.742604 18.844479,-2.742604 2.790304,0 6.296388,-0.394108 7.791306,-0.875797 1.49491,-0.481687 10.509089,-1.358153 20.031509,-1.947702 16.5913,-1.027194 23.46776,-2.3800266 23.46776,-4.616903 0,-1.1773659 6.1797,-5.156323 9.20454,-5.92657853 1.19533,-0.30437843 3.42316,-0.11771404 4.95076,0.41480983 2.02221,0.7049451 3.54913,0.6485879 5.61532,-0.20725645 2.51546,-1.04193899 3.15176,-0.94339997 5.60096,0.86737045 2.2922,1.6946952 3.52526,1.9417478 7.23517,1.4496119 4.65842,-0.6179625 10.83357,0.5733484 13.58147,2.6201442 0.87945,0.6550778 1.85746,2.5075864 2.17334,4.1166862 0.51216,2.6090064 -0.0445,3.6084884 -5.14362,9.2351554 -3.14487,3.470236 -5.71794,7.02877 -5.71794,7.907852 0,0.879083 -1.05469,3.027881 -2.34375,4.775107 -4.4636,6.050068 -2.27547,10.874228 6.38099,14.06815 l 3.93151,1.450584 0.64072,6.068758 c 0.65903,6.242353 5.08721,19.565893 8.36619,25.172269 1.01842,1.741306 2.43246,5.65558 3.1423,8.698387 0.70984,3.042807 2.169,7.021127 3.24258,8.840702 1.07358,1.819575 1.95196,4.70388 1.95196,6.40956 0,1.70567 0.78748,4.10734 1.74996,5.33703 0.96247,1.22969 3.02825,4.77413 4.59061,7.87652 1.70393,3.3835 4.17876,6.59278 6.18454,8.01992 3.15842,2.24725 11.9521,12.08088 17.77129,19.87296 5.48047,7.3385 9.11712,10.15495 9.05568,7.01328 -0.0679,-3.4692 -2.28305,-10.12061 -4.60536,-13.82812 -5.284,-8.43579 -9.97362,-29.88137 -9.04765,-41.374809 0.64038,-7.94854 3.29946,-16.744328 6.30166,-20.844721 1.57979,-2.157671 1.85415,-3.499233 1.39003,-6.796875 -0.31805,-2.259728 -0.84368,-6.003628 -1.16808,-8.319778 -1.01682,-7.259823 2.76509,-9.087209 9.43153,-4.557243 C 248.71602,58.718451 254.25292,60 264.89867,60 c 8.75028,0 10.36215,0.294085 18.19757,3.320126 11.69101,4.515072 19.00264,8.144627 23.36127,11.596718 5.55043,4.396025 8.06036,3.890594 12.46402,-2.509915 2.64479,-3.844053 2.81781,-4.522036 1.84244,-7.219385 -1.65503,-4.576885 -1.31308,-6.610962 1.64341,-9.775899 2.91014,-3.115308 7.9991,-4.005162 10.21762,-1.786645 1.6448,1.6448 1.3818,7.036606 -0.41204,8.447412 -5.48849,4.316545 -9.68626,10.115088 -7.32265,10.115088 1.55273,0 6.03934,-3.13396 9.28433,-6.48523 4.29569,-4.436388 7.21566,-4.9164 8.79683,-1.446105 0.86166,1.891156 0.78869,3.090167 -0.35463,5.82652 -1.87525,4.488085 -2.78993,4.963841 -8.39809,4.368114 -3.67362,-0.39023 -5.33358,-0.09137 -7.67454,1.38172 -3.30864,2.082018 -5.1929,4.881273 -4.21317,6.259092 0.75277,1.058645 8.53108,4.538066 13.52834,6.051548 4.3524,1.318178 4.64544,3.793561 0.86894,7.340082 -1.45568,1.367034 -3.35593,3.574368 -4.22277,4.905209 -1.48858,2.28535 -1.47176,2.72289 0.30294,7.88114 1.28803,3.74373 1.91389,8.14272 1.98993,13.98655 0.15533,11.93848 0.70445,13.93201 4.11347,14.93359 4.6851,1.37651 10.88407,4.7358 12.2291,6.62709 1.62513,2.28515 0.32376,4.93208 -3.15196,6.41091 -4.84169,2.06002 -5.80153,3.49811 -5.80153,8.69213 0,7.41693 -4.38894,15.22554 -13.48907,23.99913 -9.19429,8.86438 -9.16443,9.7733 0.55339,16.84144 7.20819,5.2428 19.03667,11.17707 22.27866,11.17707 1.08122,0 2.22769,0.73828 2.54769,1.64063 1.10085,3.10415 3.40577,4.92187 6.24109,4.92187 1.56263,0 3.73658,0.84122 4.83101,1.86938 1.54121,1.4479 3.76241,1.98449 9.85172,2.37994 4.32403,0.28081 8.3514,0.91684 8.94971,1.4134 0.88583,0.73516 24.03212,1.32058 35.57955,0.89987 1.54688,-0.0563 4.35433,0.17296 6.2388,0.50961 3.02288,0.54001 3.72896,0.27238 5.99695,-2.27305 1.41388,-1.58682 3.45797,-3.14882 4.54246,-3.47112 1.08448,-0.32228 5.76867,-2.80631 10.40929,-5.52006 9.77902,-5.71858 14.00576,-6.88663 16.55896,-4.57602 2.59619,2.34952 2.1101,4.85249 -2.11108,10.87019 -3.57726,5.09973 -3.79215,5.76451 -3.21646,9.95029 0.87241,6.34313 -0.50225,7.34063 -7.94068,5.76209 -9.59621,-2.03646 -17.7027,0.48241 -23.07213,7.16903 -2.1454,2.67172 -4.65885,4.30386 -9.59953,6.23362 l -6.69315,2.61424 -6.10514,-1.88569 c -3.35784,-1.03712 -6.63179,-1.69058 -7.27547,-1.45213 -0.64368,0.23845 -3.89289,0.79967 -7.22049,1.24716 -4.84725,0.65184 -7.53667,0.45279 -13.52677,-1.00115 -6.09698,-1.47988 -7.87037,-1.60402 -9.61046,-0.67276 -1.76878,0.94664 -2.56362,0.8604 -4.64596,-0.504 -1.88834,-1.23729 -3.58661,-1.50787 -6.83938,-1.0897 -3.76063,0.48345 -4.86746,0.19018 -8.45271,-2.23967 -2.269,-1.53779 -4.62939,-2.79597 -5.24532,-2.79597 -0.61594,0 -1.89556,-0.85712 -2.84362,-1.90472 -2.18879,-2.41857 -10.96493,-7.47028 -12.97786,-7.47028 -1.77291,0 -1.82382,0.2258 -2.00777,8.90625 -0.27531,12.99149 -6.54059,29.46697 -10.70326,28.14578 -1.80471,-0.5728 -3.49473,1.83114 -1.95592,2.78218 0.46209,0.28558 0.16319,2.09206 -0.66423,4.01439 -1.0703,2.48663 -1.52743,6.60605 -1.58423,14.2764 -0.0727,9.81843 0.1504,11.302 2.49829,16.61238 1.73827,3.93158 2.58262,7.44367 2.59194,10.78125 0.0179,6.42815 1.39455,8.95457 6.54868,12.01853 2.32031,1.37935 7.59375,4.58935 11.71875,7.13333 4.125,2.54398 9.88133,5.58824 12.79182,6.765 2.91051,1.17677 6.25843,3.16849 7.43984,4.42603 l 2.148,2.28645 -2.60397,11.88218 c -1.64928,7.52583 -2.97745,17.44221 -3.62267,27.04743 -0.91525,13.62517 -0.85122,15.72575 0.6305,20.68446 6.14604,20.56839 6.46757,23.75112 2.66961,26.42613 -1.41797,0.9987 -3.49256,2.09951 -4.6102,2.44622 -1.11763,0.34672 -3.12154,1.48737 -4.45312,2.5348 -1.94204,1.52761 -2.42106,2.71355 -2.42106,5.99407 0,9.04007 2.88553,11.54483 14.83708,12.87919 7.79662,0.87047 8.54064,0.79106 14.34471,-1.53094 3.36686,-1.34695 7.38441,-2.44901 8.92789,-2.44901 5.11557,0 11.48421,2.81487 14.08585,6.22581 2.29521,3.00917 2.38043,3.46904 1.30683,7.05241 -1.34637,4.49375 -7.97626,11.93589 -13.53563,15.1939 -8.18067,4.79419 -15.83594,5.81118 -38.87993,5.16516 -2.9449,-0.0826 -4.88791,0.4989 -7.03125,2.1042 -2.52833,1.89363 -4.22115,2.25698 -11.56656,2.4826 l -8.60475,0.26431 -2.17885,-3.07232 z m 60.69228,-15.25138 c 2.09217,-1.22085 5.63901,-4.21056 7.8819,-6.64379 3.84136,-4.1674 3.97741,-4.49759 2.34501,-5.69124 -2.3911,-1.74842 -4.27019,-1.59813 -10.17988,0.81417 -4.70095,1.91889 -5.31458,2.53613 -7.86279,7.909 -4.00813,8.45109 -2.03768,9.36169 7.81576,3.61186 z M 38.260722,441.30427 c 0.241492,-2.03252 -0.331092,-2.77526 -3.311735,-4.29587 -7.854217,-4.00692 -7.760115,-11.93287 0.207263,-17.45712 1.350521,-0.9364 1.591052,-1.58854 0.859891,-2.3314 -1.300845,-1.32166 -4.141141,-0.25698 -4.141141,1.55229 0,0.76125 -0.527344,1.20797 -1.171875,0.99273 -0.702083,-0.23447 -1.049591,-1.5812 -0.866844,-3.35938 0.254561,-2.47693 -0.0169,-2.96802 -1.640625,-2.96802 -1.070111,0 -1.945656,-0.26085 -1.945656,-0.57967 0,-0.76989 5.898233,-5.94871 6.796875,-5.96786 0.386719,-0.008 0.703125,-0.69351 0.703125,-1.52285 0,-1.15881 -0.568796,-1.36513 -2.456999,-0.89122 -2.262788,0.56793 -2.409584,0.42775 -1.857139,-1.77337 0.53954,-2.14969 0.326787,-2.39003 -2.115709,-2.39003 -3.49753,0 -5.541089,2.22046 -3.882653,4.21875 0.641896,0.77344 2.043552,1.40625 3.114792,1.40625 1.523668,0 1.700777,0.24693 0.8135,1.13421 -0.623814,0.62381 -3.325326,1.15115 -6.003357,1.17187 -4.379978,0.0338 -4.934772,0.27313 -5.522343,2.38142 -1.272223,4.56492 -0.919437,11.89207 0.634678,13.18187 0.811123,0.67317 2.340152,2.93967 3.397841,5.03666 3.041638,6.03041 9.892544,13.5316 13.237954,14.49451 4.023451,1.15807 4.807718,0.84836 5.150157,-2.03377 z m 161.895528,-60.6218 c 1.54687,-0.99579 5.76562,-3.93345 9.375,-6.52815 9.76675,-7.0211 19.38277,-13.36036 22.03671,-14.52746 5.58326,-2.45535 22.3212,-14.56019 27.9356,-20.203 3.36145,-3.37844 7.09864,-6.80519 8.30489,-7.61501 2.66494,-1.78912 9.69155,-11.04001 9.69155,-12.75942 0,-1.84206 -0.83064,-1.61048 -10.42135,2.9055 -4.83857,2.27834 -13.22709,5.61478 -18.64115,7.41433 -5.41406,1.79954 -12.58594,4.52582 -15.9375,6.0584 -3.35156,1.53257 -9.18068,3.30152 -12.9536,3.931 -3.77292,0.62947 -10.10104,1.98884 -14.0625,3.02082 -3.96146,1.03198 -9.10109,1.98232 -11.4214,2.11185 -4.40586,0.24598 -7.79479,0.9383 -9.37566,1.91532 -0.51211,0.31651 1.40536,3.46727 4.26104,7.0017 4.4782,5.54257 5.32592,7.24332 6.16491,12.36832 0.53501,3.26814 0.71213,7.9598 0.39362,10.4259 -0.85824,6.64478 9.4e-4,7.47258 4.64984,4.4799 z M 310.72456,261.25113 c 1.14261,-0.83549 1.86684,-2.90271 2.18804,-6.24541 0.42753,-4.44939 0.30305,-4.92861 -1.13667,-4.37614 -0.88923,0.34123 -2.63696,0.62042 -3.88386,0.62042 -2.08289,0 -2.26707,0.36559 -2.26707,4.5 0,3.99442 1.15155,6.75 2.82082,6.75 0.31395,0 1.33938,-0.56199 2.27874,-1.24887 z m -19.68502,-1.50373 c 1.9317,-2.1345 2.35783,-8.30089 0.6467,-9.35842 -0.65391,-0.40415 -5.74523,-0.9955 -11.31403,-1.31412 -5.70688,-0.32653 -15.69874,-1.81926 -22.89802,-3.42084 -7.0251,-1.56284 -13.63656,-2.84152 -14.69215,-2.84152 -1.05558,0 -3.65637,-0.88622 -5.77954,-1.96938 -2.12316,-1.08316 -5.96873,-2.59551 -8.54569,-3.36079 -2.57698,-0.76528 -5.85313,-2.25475 -7.28034,-3.30993 -1.74603,-1.29089 -3.44216,-1.75656 -5.18473,-1.42345 -1.60774,0.30734 -4.13812,-0.25715 -6.67282,-1.48861 -4.72392,-2.29505 -7.10222,-1.52408 -7.57959,2.45707 -0.20632,1.72074 0.6183,3.40003 2.8125,5.72748 3.87172,4.10682 22.24813,11.59835 37.08188,15.11721 5.54677,1.3158 11.35066,2.75983 12.89754,3.20896 1.54687,0.44914 6.07921,1.09979 10.07184,1.44592 3.99265,0.34612 8.42233,0.9792 9.84375,1.40684 1.42143,0.42763 5.36669,0.81378 8.76723,0.8581 4.99032,0.0651 6.49965,-0.26951 7.82547,-1.73452 z M 448.125,227.33162 c 0,-0.76676 -0.79209,-1.39412 -1.76021,-1.39412 -0.96811,0 -2.2686,-0.61258 -2.88998,-1.3613 -0.9314,-1.12227 -0.58118,-1.59675 1.99458,-2.70228 4.96284,-2.13009 9.43704,-7.18642 6.35905,-7.18642 -1.52711,0 -6.70182,2.8402 -9.63475,5.28815 -1.45752,1.21652 -3.22657,2.21185 -3.93121,2.21185 -1.83578,0 -4.33929,3.86295 -3.30027,5.09236 0.46548,0.55076 3.61752,1.1014 7.00455,1.22363 4.92482,0.17774 6.15824,-0.057 6.15824,-1.17187 z M 310.55787,188.98633 c 3.48613,-0.72939 7.69758,-2.11996 9.35875,-3.09014 3.69678,-2.15903 8.26657,-8.50188 7.96288,-11.05244 -0.19058,-1.60063 -0.90917,-1.86995 -4.91075,-1.84044 -2.57813,0.019 -5.48749,0.22994 -6.46524,0.46875 -2.99176,0.7307 -2.60424,-1.32023 0.67081,-3.55019 2.32659,-1.58415 4.44108,-2.10937 8.4922,-2.10937 2.96684,0 6.1918,-0.42684 7.1666,-0.94853 1.93252,-1.03426 3.71588,-6.2505 3.72415,-10.89298 0.009,-5.00314 -4.48008,-15.52397 -8.03295,-18.82677 -3.64536,-3.38877 -5.774,-3.21434 -6.557,0.53731 -0.85728,4.10751 -1.88891,5.28722 -4.62357,5.28722 -1.43448,0 -2.89855,-0.63281 -3.2535,-1.40625 -0.35494,-0.77344 -1.60169,-3.2479 -2.77056,-5.49881 -1.58647,-3.05512 -2.13542,-5.72574 -2.16554,-10.5352 -0.0389,-6.221 0.0754,-6.54784 3.32383,-9.50118 1.8503,-1.68221 4.12391,-3.56407 5.05247,-4.18191 1.47215,-0.97953 1.50826,-1.24775 0.28205,-2.09502 -2.15205,-1.48699 -1.93058,-1.58655 -8.16355,3.66974 -0.62278,0.52519 -1.57199,0.95488 -2.10938,0.95488 -0.53739,0 -0.97707,0.38179 -0.97707,0.84842 0,0.46663 -1.79297,1.90555 -3.98438,3.19761 -4.61695,2.72217 -8.57988,6.67045 -10.05363,10.01647 -1.96815,4.46851 -5.52299,9.73275 -8.97237,13.28687 -3.41366,3.51731 -3.45039,3.63507 -2.41549,7.74501 1.34972,5.36024 1.37182,5.21812 -0.81155,5.21812 -2.22342,0 -4.70008,-5.21823 -4.70008,-9.90292 0,-3.70667 -0.93061,-4.47223 -4.01222,-3.3006 -3.19899,1.21625 -3.69701,3.24401 -1.92571,7.84075 1.5795,4.099 7.38764,10.98777 9.26414,10.98777 0.58888,0 1.82456,0.83303 2.74597,1.85116 1.62289,1.79328 1.59812,1.8805 -0.7922,2.7893 -1.72321,0.65516 -2.46748,1.61986 -2.46748,3.19827 0,1.66143 -0.86919,2.67259 -3.28125,3.81719 -5.70321,2.70635 -3.77564,5.41223 6.33292,8.8901 2.91231,1.00198 7.2537,2.96958 9.64752,4.37246 4.20216,2.46263 10.20859,4.95541 12.14491,5.04037 0.51582,0.0226 3.79014,-0.55563 7.27627,-1.28502 z m -39.55444,-53.17935 c 2.51129,-0.75239 3.89301,-1.86058 4.67564,-3.75 0.61099,-1.47509 1.41477,-2.68198 1.78616,-2.68198 0.75208,0 1.91684,-0.931 12.69102,-10.14403 4.125,-3.5273 9.02873,-7.43397 10.89719,-8.68149 1.86845,-1.24753 7.68499,-5.12244 12.92563,-8.61091 5.24065,-3.488479 9.78948,-7.022929 10.10852,-7.854333 0.75398,-1.964818 -3.10143,-4.973063 -6.4092,-5.000891 -1.95066,-0.01641 -2.74851,0.655948 -3.75,3.160213 -1.46055,3.652182 -16.55447,17.807841 -21.1756,19.859301 -1.66567,0.73943 -3.74951,2.50237 -4.63077,3.91766 -2.46569,3.95982 -7.43312,8.48454 -10.90922,9.93695 -1.92644,0.80492 -3.59197,2.40354 -4.30988,4.13674 -0.81006,1.95567 -2.0136,2.99355 -3.91151,3.37314 -1.59209,0.31841 -2.74141,1.14766 -2.74141,1.97796 0,1.71234 0.19563,1.72722 4.75343,0.36167 z M 329.9872,122.9946 c -0.0152,-6.34366 -0.68814,-9.26572 -2.27398,-9.87427 -2.80625,-1.07685 -3.28669,0.81311 -2.69123,10.587 l 0.59242,9.72417 2.1928,-2.54928 c 1.74831,-2.03254 2.19019,-3.63137 2.17999,-7.88762 z m -11.14747,5.70952 c 4.30054,-2.5404 3.20572,-9.64162 -1.48648,-9.64162 -1.89083,0 -2.36685,0.58502 -2.86061,3.51563 -1.38204,8.203 -0.72839,9.12415 4.34709,6.12599 z m -46.29423,-3.27646 c 1.95154,-1.65541 3.72403,-3.13198 3.93888,-3.28125 1.05248,-0.73127 -0.95704,-1.30426 -2.66879,-0.76098 -2.36503,0.75064 -7.56559,5.01105 -7.56559,6.1979 0,1.74191 2.85196,0.76536 6.2955,-2.15567 z m 20.54497,-23.253 c 5.71999,-4.564316 6.42719,-7.032304 2.27632,-7.943985 -4.6715,-1.026035 -9.94013,-5.586046 -12.58389,-10.891388 -2.86538,-5.750051 -3.07503,-8.419978 -0.91948,-11.70975 2.20125,-3.359538 0.47256,-4.721671 -7.64467,-6.023687 -7.42474,-1.190937 -15.34849,-0.533405 -17.94203,1.488873 -1.66701,1.299825 -1.60978,1.478499 1.27323,3.974773 2.67658,2.317536 2.95487,3.007139 2.45547,6.084636 -0.46956,2.893556 -0.29076,3.470868 1.07501,3.470868 1.18025,0 1.50028,0.527625 1.14472,1.88727 -0.33156,1.267899 0.12298,2.217218 1.38504,2.892648 1.86409,0.997637 1.86274,1.022225 -0.17717,3.193599 -1.13065,1.203522 -3.27968,2.6952 -4.77563,3.314841 -6.17136,2.556267 -0.79571,3.862458 9.23323,2.243526 4.02502,-0.649743 4.16305,1.715803 0.19601,3.359007 -4.28036,1.77299 -7.46163,4.588109 -7.46163,6.602829 0,1.70489 0.26509,1.6779 5.2729,-0.53679 6.27239,-2.77395 6.7453,-2.82366 6.57606,-0.69131 -0.10201,1.28527 0.73189,1.70303 3.84992,1.9287 2.74351,0.19857 4.27495,0.83895 4.92903,2.06111 0.85305,1.59394 1.24456,1.64872 3.87596,0.5423 1.60988,-0.6769 5.1926,-3.03854 7.9616,-5.24807 z m 15.5814,-12.318563 c 2.04401,-1.070907 2.14424,-4.149743 0.15988,-4.91121 -0.81442,-0.312521 -3.07108,-0.313914 -5.01483,-0.0031 -4.17199,0.667127 -7.90189,-0.993287 -12.97017,-5.773844 C 286.67502,75.233054 285,75.058809 285,78.559736 c 0,5.588824 12.68472,13.9728 19.21875,12.702651 1.54687,-0.300698 3.55078,-0.933527 4.45312,-1.40629 z M 164.30714,38.203125 c 0.84728,-0.644531 2.39459,-4.2918 3.43847,-8.105042 1.04389,-3.813242 2.57813,-7.684741 3.40945,-8.603331 2.27322,-2.511883 3.38896,-8.363739 1.717,-9.005333 -0.73339,-0.281427 -2.02949,0.06286 -2.88021,0.765072 -1.05763,0.87301 -1.65748,0.948219 -1.89686,0.237831 -0.19257,-0.57141 -0.90862,-1.802734 -1.59124,-2.736276 -1.17315,-1.6043809 -1.36028,-1.5603145 -3.4165,0.804553 -2.81366,3.23599 -3.71225,3.158124 -3.71225,-0.321678 0,-2.7511612 -0.0926,-2.8087647 -3.61218,-2.2459687 C 152.94953,9.4428159 152.023,9.237924 151.5735,8.0665313 151.25606,7.2393141 150.30413,6.5625 149.45811,6.5625 c -1.27086,0 -1.42255,0.6111021 -0.87262,3.515625 0.36609,1.933594 0.72866,6.837993 0.8057,10.898664 0.1277,6.731606 0.34381,7.517438 2.44921,8.90625 1.27004,0.837766 2.95754,2.335282 3.75,3.327812 2.71225,3.396971 5.57421,6.164149 6.37531,6.164149 0.4405,0 1.49415,-0.527344 2.34143,-1.171875 z M 22.03125,35.960093 c 1.546875,-0.840597 3.867187,-2.078684 5.15625,-2.751304 1.289062,-0.672621 4.875,-1.458254 7.96875,-1.745852 23.338999,-2.16961 23.900564,-2.259877 26.428162,-4.248085 1.911209,-1.503358 3.688721,-1.950433 7.269556,-1.828418 2.60688,0.08883 7.060094,-0.290692 9.896032,-0.843378 8.046332,-1.568119 21.71632,-2.823076 25.07813,-2.302266 1.68166,0.260524 3.04687,0.06135 3.04687,-0.444518 0,-0.504096 1.93424,-1.655233 4.29833,-2.558083 7.9324,-3.029413 3.37514,-3.494544 -13.766621,-1.405076 -8.972127,1.093642 -18.161966,2.394499 -20.421864,2.890792 -2.259897,0.496294 -9.495901,1.312309 -16.080008,1.813368 C 46.394594,23.641522 35.805726,25.424269 24.204702,28.716127 11.70359,32.26339 8.3736742,34.311174 10.9375,36.875 c 1.191732,1.191732 8.295119,0.605912 11.09375,-0.914908 z"
     id="path4230"
     inkscape:connector-curvature="0" />
</svg>
