<svg id="Layer_1" data-name="Layer 1" xmlns="http://www.w3.org/2000/svg" viewBox="0 0 61.96 55.01"><defs><style>.cls-1{fill:#363636;}</style></defs><title>fracture</title><path class="cls-1" d="M62.39,30.13c0,9.5,0,19,0,28.59H13s2.27-3.31,1.07-5.41c2.3-.7,3.54-2.49,3.44-5.39,1.5-1.1,3.26-1.79,4-3.19a5.23,5.23,0,0,0-.31-5.24,28.9,28.9,0,0,1,3.12.2,2.8,2.8,0,0,0,3.37-1.08c1.1-1.4,2.39-2.77,4.39-2.87,1.3-.1,1.45-.7.95-1.9-.8-2.1-1.6-4.14-2.2-6.34-.3-1.1-.57-1.73-1.67-1.33-.3-.4-.27-.91-.57-.91-.9-.1-2.22-.12-3.12-.12.5-1.7.6-1.8-1.3-2.8a1.33,1.33,0,0,1,0-2.12c.9-.5,1.46-.79,1.56-1.79a2.13,2.13,0,0,1,.7-1.11c1.4-.1,1.88-1.06,2.28-2.16a12.85,12.85,0,0,0,1.53,1,4.64,4.64,0,0,0,1.65.16,11.09,11.09,0,0,0,1.74-.44c1.3-.2,2-.68,1.39-2-.3-.6-.47-1.25-.77-1.85a3.56,3.56,0,0,1,1.55.54c2.8,3.3,6.89,4.79,10.42,6.79a9,9,0,0,0,2.82.67,2.27,2.27,0,0,0,2-.34c.7-.6.07-1-.33-1.62,0,0,0-.58,0-.68,1.5-.1,1.72.13,1.62,1.43-.2,2.1-.47,4.12-.57,6.22-.1.9.22,1.2,1.12,1.4a3.5,3.5,0,0,1,1.35.41c.5.3,2.08,1.33,2.58,1.53.9.4,1.27.5,1.77-.4a5.21,5.21,0,0,0,.65-1.5c.2.5.52,1.22.72,1.62a10.69,10.69,0,0,1,.53,1.12C61.35,30.41,61.09,30.63,62.39,30.13Z" transform="translate(-0.44 -3.72)"/><path d="M62.34,30.22c-1.4.6-1.7.4-2.3-.9a4.87,4.87,0,0,1-.4-1.1A13.35,13.35,0,0,0,59,27a7.6,7.6,0,0,0-.4,1.1,1.4,1.4,0,0,1-2.1.7l-1.5-.9a12.81,12.81,0,0,0-2.4-1.1c-1-.3-1.3-.8-1.2-1.7.2-2.1.3-4.1.5-6.2.1-1.4.2-1.4-1.3-1.2v.2c.5.6,1.1,1.4.4,2a2.86,2.86,0,0,1-2.2.6,7.71,7.71,0,0,1-2.9-1c-3.8-1.8-7.6-3.5-10.5-6.7a2.28,2.28,0,0,0-1.2-.6,13,13,0,0,1,.8,1.7,1.52,1.52,0,0,1-1.3,2.3c-.6.1-1.3.4-1.9.5a6.28,6.28,0,0,1-1.9-.3,4.37,4.37,0,0,1-1.3-.9c-.4,1.1-.9,2.1-2.2,2.2-.2,0-.4.5-.5.8a3,3,0,0,1-1.7,2.1.8.8,0,0,0,0,1.5c1.8,1.1,1.9,1.2,1.4,2.9a26.13,26.13,0,0,1,2.8,0c.2,0,.4.6.7,1,1.1-.3,1.4.3,1.8,1.4.6,2.2,1.5,4.3,2.3,6.4.5,1.2.1,2.3-1.2,2.4-2,.1-3.2,1.4-4.2,2.7a3.18,3.18,0,0,1-3.6,1.2,20.22,20.22,0,0,0-2.7-.3,4.94,4.94,0,0,1,.2,5.1c-.7,1.4-2.6,2.1-4.1,3.3.1,2.9-.9,4.6-3.2,5.4,1.2,2.1-.2,3.61-1.4,5.11H11.65c.7-1.3,1.49-2.71,2.29-4.21C9,54,4.74,53.52.44,53v-.4a2.35,2.35,0,0,1,.8-.2c4.1-.1,8.2-.3,12.2-.4a3.25,3.25,0,0,0,2.8-3.3,2.13,2.13,0,0,0-1-1.1,2.55,2.55,0,0,0-1.3-.2c-1.9,0-2.6-.4-3.2-2.2-.3-.8-.7-1-1.4-.9l-3.2.6a4.23,4.23,0,0,1-4-1,11.43,11.43,0,0,1-1.7-1.5,4.59,4.59,0,0,1,1.6.7,4.35,4.35,0,0,0,4.8,1.1,10.62,10.62,0,0,1,1.9-.4,2.39,2.39,0,0,1,2.9,1.3,1.73,1.73,0,0,0,2.1,1.1c.3-.1.7.1,1.1.1a26.6,26.6,0,0,0,2.8-.3,7.22,7.22,0,0,0,2-.9,2.49,2.49,0,0,0,1.1-1.4c.6-2.6.3-3-2.2-4.1a49.37,49.37,0,0,1-6.8-3.6c-.6-.4-.6-1.9-.8-2.8.2-.1.3-.1.5-.2a2.41,2.41,0,0,0,.6.8,10,10,0,0,0,1.9,2.2c2.5,2,5.6,2,8.6,2.4s5.1-.2,6.5-2.9c.2-.3.8-.4,1.2-.5l2.2-.3c-.5-1.5-.8-2.9-1.3-4.1s-1.1-2.6-1.6-3.9c-2,.9-2,.9-2.4-1.1a6.64,6.64,0,0,0-2,.6c-1.9,1.1-4.2,1.2-6.1,2.5-1.1.8-2.7.8-4.1,1.2-.1-.1-.1-.3-.2-.4.3-.1.5-.3.8-.4,1.6-.8,3.3-1.6,4.9-2.4.2-.1.4-.3.5-.3,1.8.1,2.4-1.3,3.4-2.3.5-.6.3-.9-.4-1.2-1.3-.5-1.3-.5-1.7-1.7-1.7.5-3.1-.4-4.6-1.1-.8-.4-1.5-.5-2.1.4-.1.2-.3.3-.4.4-2.1,1.7-2.2,1.7-3.8-.5-2.4-3.4-5-6.6-7.5-10A3.69,3.69,0,0,1,3.14,9a41.17,41.17,0,0,1-1.2-5.3c.2.2.6.4.7.6l2.1,5.1a9.74,9.74,0,0,0,1.5,2.4c1.8,2.6,3.7,5.1,5.5,7.7.6.9,1.1.9,1.8.2.5-.4.9-1,1.5-1.1a3.8,3.8,0,0,1,2.1-.1,24.43,24.43,0,0,1,2.4,1,3.92,3.92,0,0,0,5.2-2,1.59,1.59,0,0,1,.9-.9c.8-.2,1.4-.6,1.2-1.3a3.53,3.53,0,0,0-1.5-1.7,2.55,2.55,0,0,0-1.5,0c-1.6.3-2.5-.1-3.5-1.6.1-.1.2-.2.3-.2,1.9,1,4,.6,5.9,1a8.46,8.46,0,0,1,4.1,2.4c1.1-.2,2.2-.4,3.4-.6-.2-.5-.5-1-.7-1.6a3,3,0,0,1-.3-1.6A2,2,0,0,0,31.94,9c-1-.7-1.9-1.4-2.9-2v-.3a12.5,12.5,0,0,1,1.9.3c.4.1.7.5,1,.8l5.4,5.4a12.22,12.22,0,0,0,4.7,3c1.9.8,3.7,1.7,5.5,2.5a12,12,0,0,0,2.4.6c-1.2-2.5-2.3-4.6-5-5.3-1-.2-1.1-.9-1.5-1.9a27.31,27.31,0,0,0,2.4,1.7c.8.5,1.7,1,2.5,1.6a4.15,4.15,0,0,0,4.3-.1c1.7-1.5,3.3-3,5-4.5A13.44,13.44,0,0,1,59,9.72l.3.3a2.51,2.51,0,0,1-.4.7c-1.6,1.6-3.2,3.2-4.9,4.8a4,4,0,0,0-1.4,2.7c-.2,2.4-.4,4.8-.7,7.5,2.5-.6,3.3,1.9,5.4,2.4l.6-3.9c.2-1.3.5-2.6.8-4.2.3.5.5.7.5.9.3,2.2.7,4.4.9,6.6.2,1.8.2,1.8,1.9,1.8C62.34,29.52,62.34,29.82,62.34,30.22Z" transform="translate(-0.44 -3.72)"/></svg>