<svg xmlns="http://www.w3.org/2000/svg" viewBox="0 0 62.4 74.88"><defs><style>.cls-1{fill:#fff;}</style></defs><title>Asset 1</title><g id="Layer_2" data-name="Layer 2"><g id="Layer_1-2" data-name="Layer 1"><path class="cls-1" d="M11.52,75.12H.24V.24h62.4V17a4.81,4.81,0,0,0-3.24-.63l3.24,1.35v1c-3.6-.2-7.23.44-10.82-.53a6.66,6.66,0,0,0,4,1.49c2.27.06,4.54,0,6.81,0V45.6c-1.71-.08-1.69-.08-1.93-1.85-.29-2.22-.61-4.43-.94-6.64,0-.19-.21-.37-.49-.85-.32,1.61-.61,2.9-.83,4.2s-.38,2.61-.57,3.95c-2.1-.56-2.94-3-5.42-2.42.24-2.65.46-5.07.67-7.49a4,4,0,0,1,1.44-2.65c1.67-1.55,3.27-3.16,4.89-4.77a3,3,0,0,0,.4-.7l-.29-.26c-.48.38-1,.74-1.42,1.14-1.68,1.48-3.33,3-5,4.46a4.08,4.08,0,0,1-4.26.1c-.78-.59-1.66-1.06-2.47-1.61s-1.44-1-2.38-1.7c.36.93.52,1.65,1.49,1.88,2.63.64,3.73,2.78,5,5.28a16,16,0,0,1-2.41-.62c-1.85-.8-3.64-1.78-5.52-2.53a13.22,13.22,0,0,1-4.67-3.05c-1.76-1.84-3.59-3.6-5.4-5.39a2.88,2.88,0,0,0-1-.8A10.64,10.64,0,0,0,29.57,23l0,.33,2.92,2a2.11,2.11,0,0,1,1.06,2.43,3.21,3.21,0,0,0,.33,1.59A15.09,15.09,0,0,0,34.55,31l-3.4.58A8.44,8.44,0,0,0,27,29.19c-2-.4-4.08,0-5.94-1,0,0-.18.11-.27.17a3,3,0,0,0,3.52,1.58c.5-.09,1.16-.23,1.51,0a3.72,3.72,0,0,1,1.48,1.67c.25.75-.39,1.15-1.17,1.34-.35.09-.68.54-.87.9a3.85,3.85,0,0,1-5.17,2,19.5,19.5,0,0,0-2.43-1,4.18,4.18,0,0,0-2.13.14A5,5,0,0,0,14,36.1c-.71.66-1.24.66-1.84-.2-1.81-2.59-3.69-5.12-5.51-7.7a14.72,14.72,0,0,1-1.46-2.44c-.75-1.67-1.39-3.39-2.12-5.08-.11-.25-.44-.41-.67-.61a44.58,44.58,0,0,0,1.2,5.26,4.4,4.4,0,0,0,.72,1.37c2.48,3.33,5,6.61,7.47,10,1.59,2.19,1.66,2.24,3.77.53a1.93,1.93,0,0,0,.44-.41c.56-.87,1.26-.77,2.06-.37,1.45.71,2.86,1.59,4.57,1.1.37,1.24.37,1.24,1.65,1.73.61.23.86.58.35,1.16-.92,1.06-1.58,2.48-3.36,2.34-.16,0-.35.17-.52.25l-4.94,2.36c-.27.13-.52.29-.78.43l.17.43c1.4-.35,3-.37,4.14-1.15,1.87-1.34,4.13-1.45,6.06-2.5a8.63,8.63,0,0,1,2-.56c.36,2,.36,2,2.21,1.28.53,1.29,1.11,2.55,1.58,3.86s.83,2.62,1.3,4.14c-.77.11-1.47.17-2.15.31-.43.1-1.06.2-1.22.5-1.42,2.69-3.51,3.38-6.48,2.92s-6.09-.43-8.6-2.44a13.22,13.22,0,0,1-1.85-2.2c-.21-.26-.37-.56-.56-.84l-.48.18c.26,1,.21,2.42.84,2.83a45.78,45.78,0,0,0,6.76,3.55c2.48,1.09,2.85,1.52,2.22,4.13a2.83,2.83,0,0,1-1.13,1.4,5.75,5.75,0,0,1-2,.86,18,18,0,0,1-2.75.32c-.35,0-.73-.18-1.06-.11A1.78,1.78,0,0,1,12,61.57c-.61-1.3-1.68-1.47-2.9-1.31a12.07,12.07,0,0,0-1.88.39,4.41,4.41,0,0,1-4.85-1.07c-.37-.4-1.06-.49-1.61-.73a11.54,11.54,0,0,0,1.68,1.47,4.18,4.18,0,0,0,4,1c1-.22,2.11-.42,3.18-.58a1.13,1.13,0,0,1,1.4.91c.63,1.84,1.27,2.18,3.21,2.21a3,3,0,0,1,1.28.16c.43.25,1,.68,1,1.11a3.15,3.15,0,0,1-2.77,3.27l-12.23.42A4.94,4.94,0,0,0,.72,69v.36l13.12,1.58Z" transform="translate(-0.24 -0.24)"/><path class="cls-1" d="M62.64,46.56V75.12H13c1.14-1.52,2.56-3,1.35-5.11,2.29-.72,3.27-2.46,3.22-5.35,1.51-1.13,3.41-1.89,4.13-3.27a4.89,4.89,0,0,0-.17-5.12,23.54,23.54,0,0,1,2.7.32,3.16,3.16,0,0,0,3.57-1.25C28.83,54,30,52.72,32,52.61c1.3-.08,1.69-1.18,1.22-2.39-.82-2.12-1.67-4.23-2.3-6.41-.33-1.1-.68-1.76-1.77-1.43-.27-.42-.45-1-.68-1a23.68,23.68,0,0,0-2.78,0c.53-1.74.48-1.87-1.36-2.92-.68-.4-.7-1,0-1.46a3,3,0,0,0,1.75-2.13c0-.28.29-.74.47-.75,1.36-.11,1.82-1.12,2.23-2.23a5.94,5.94,0,0,0,1.26.85A5.15,5.15,0,0,0,32,33c.65,0,1.27-.39,1.92-.48a1.47,1.47,0,0,0,1.31-2.28c-.25-.57-.54-1.12-.81-1.69a1.81,1.81,0,0,1,1.2.56c2.83,3.27,6.71,4.93,10.48,6.74a9.52,9.52,0,0,0,2.94,1,3.14,3.14,0,0,0,2.24-.61c.7-.63,0-1.37-.44-2,0,0,0-.15,0-.22,1.48-.15,1.44-.15,1.31,1.22-.2,2.06-.36,4.13-.53,6.2a1.47,1.47,0,0,0,1.24,1.73,13.24,13.24,0,0,1,2.42,1.12c.53.28,1,.66,1.54.92a1.42,1.42,0,0,0,2.09-.74c.15-.3.25-.63.43-1.07.23.48.42.83.58,1.18s.27.76.44,1.11C60.93,47,61.28,47.12,62.64,46.56Z" transform="translate(-0.24 -0.24)"/><path d="M62.64,46.56c-1.36.56-1.71.43-2.33-.89-.17-.35-.28-.74-.44-1.11s-.35-.7-.58-1.18c-.18.44-.28.77-.43,1.07a1.42,1.42,0,0,1-2.09.74c-.54-.26-1-.64-1.54-.92a13.24,13.24,0,0,0-2.42-1.12,1.47,1.47,0,0,1-1.24-1.73c.17-2.07.33-4.14.53-6.2.13-1.37.17-1.37-1.31-1.22,0,.07,0,.18,0,.22.47.61,1.14,1.35.44,2a3.14,3.14,0,0,1-2.24.61,9.52,9.52,0,0,1-2.94-1C42.28,34,38.4,32.36,35.57,29.09a1.81,1.81,0,0,0-1.2-.56c.27.57.56,1.12.81,1.69a1.47,1.47,0,0,1-1.31,2.28c-.65.09-1.27.45-1.92.48a5.15,5.15,0,0,1-1.9-.3,5.94,5.94,0,0,1-1.26-.85c-.41,1.11-.87,2.12-2.23,2.23-.18,0-.43.47-.47.75a3,3,0,0,1-1.75,2.13c-.73.41-.71,1.06,0,1.46,1.84,1.05,1.89,1.18,1.36,2.92a23.68,23.68,0,0,1,2.78,0c.23,0,.41.59.68,1,1.09-.33,1.44.33,1.77,1.43.63,2.18,1.48,4.29,2.3,6.41.47,1.21.08,2.31-1.22,2.39-2,.11-3.15,1.36-4.22,2.73a3.16,3.16,0,0,1-3.57,1.25,23.54,23.54,0,0,0-2.7-.32,4.89,4.89,0,0,1,.17,5.12c-.72,1.38-2.62,2.14-4.13,3.27,0,2.89-.93,4.63-3.22,5.35,1.21,2.14-.21,3.59-1.35,5.11H11.52l2.33-4.19L.73,69.35V69a4.94,4.94,0,0,1,.82-.16l12.23-.42a3.15,3.15,0,0,0,2.77-3.27c-.08-.43-.62-.86-1-1.11a3,3,0,0,0-1.28-.16c-1.94,0-2.58-.37-3.21-2.21a1.13,1.13,0,0,0-1.4-.91c-1.07.16-2.13.36-3.18.58a4.18,4.18,0,0,1-4-1A11.54,11.54,0,0,1,.74,58.85c.55.24,1.24.33,1.61.73A4.41,4.41,0,0,0,7.2,60.65a12.07,12.07,0,0,1,1.88-.39c1.22-.16,2.29,0,2.9,1.31a1.78,1.78,0,0,0,2.14,1.12c.33-.07.71.14,1.06.11a18,18,0,0,0,2.75-.32,5.75,5.75,0,0,0,2-.86A2.83,2.83,0,0,0,21,60.22c.63-2.61.26-3-2.22-4.13A45.78,45.78,0,0,1,12,52.54c-.63-.41-.58-1.86-.84-2.83l.48-.18c.19.28.35.58.56.84a13.22,13.22,0,0,0,1.85,2.2c2.51,2,5.6,2,8.6,2.44s5.06-.23,6.48-2.92c.16-.3.79-.4,1.22-.5.68-.14,1.38-.2,2.15-.31-.47-1.52-.83-2.85-1.3-4.14s-1-2.57-1.58-3.86C27.81,44,27.81,44,27.45,42a8.63,8.63,0,0,0-2,.56c-1.93,1-4.19,1.16-6.06,2.5-1.09.78-2.74.8-4.14,1.15l-.17-.43c.26-.14.51-.3.78-.43L20.79,43c.17-.08.36-.26.52-.25,1.78.14,2.44-1.28,3.36-2.34.51-.58.26-.93-.35-1.16-1.28-.49-1.28-.49-1.65-1.73-1.71.49-3.12-.39-4.57-1.1-.8-.4-1.5-.5-2.06.37a1.93,1.93,0,0,1-.44.41c-2.11,1.71-2.18,1.66-3.77-.53-2.45-3.35-5-6.63-7.47-10a4.4,4.4,0,0,1-.72-1.37,44.58,44.58,0,0,1-1.2-5.26c.23.2.56.36.67.61.73,1.69,1.37,3.41,2.12,5.08A14.72,14.72,0,0,0,6.69,28.2c1.82,2.58,3.7,5.11,5.51,7.7.6.86,1.13.86,1.84.2A5,5,0,0,1,15.55,35a4.18,4.18,0,0,1,2.13-.14,19.5,19.5,0,0,1,2.43,1,3.85,3.85,0,0,0,5.17-2c.19-.36.52-.81.87-.9.78-.19,1.42-.59,1.17-1.34a3.72,3.72,0,0,0-1.48-1.67c-.35-.24-1-.1-1.51,0a3,3,0,0,1-3.52-1.58c.09-.06.23-.19.27-.17,1.86,1,4,.64,5.94,1a8.44,8.44,0,0,1,4.13,2.4l3.4-.58a15.09,15.09,0,0,1-.71-1.59,3.21,3.21,0,0,1-.33-1.59,2.11,2.11,0,0,0-1.06-2.43l-2.92-2,0-.33a10.64,10.64,0,0,1,1.88.26,2.88,2.88,0,0,1,1,.8c1.81,1.79,3.64,3.55,5.4,5.39a13.22,13.22,0,0,0,4.67,3.05c1.88.75,3.67,1.73,5.52,2.53a16,16,0,0,0,2.41.62c-1.23-2.5-2.33-4.64-5-5.28-1-.23-1.13-.95-1.49-1.88.94.67,1.65,1.2,2.38,1.7s1.69,1,2.47,1.61a4.08,4.08,0,0,0,4.26-.1c1.68-1.47,3.33-3,5-4.46.45-.4.94-.76,1.42-1.14l.29.26a3,3,0,0,1-.4.7c-1.62,1.61-3.22,3.22-4.89,4.77a4,4,0,0,0-1.44,2.65c-.21,2.42-.43,4.84-.67,7.49,2.48-.63,3.32,1.86,5.42,2.42.19-1.34.35-2.65.57-3.95s.51-2.59.83-4.2c.28.48.46.66.49.85.33,2.21.65,4.42.94,6.64.24,1.77.22,1.77,1.93,1.85Z" transform="translate(-0.24 -0.24)"/><path d="M62.64,19.68c-2.27,0-4.54.06-6.81,0a6.66,6.66,0,0,1-4-1.49c3.59,1,7.22.33,10.82.53Z" transform="translate(-0.24 -0.24)"/><path d="M62.64,17.76,59.4,16.41a4.81,4.81,0,0,1,3.24.63Z" transform="translate(-0.24 -0.24)"/></g></g></svg>