<?xml version="1.0" encoding="utf-8"?>
<!-- Generator: Adobe Illustrator 23.0.2, SVG Export Plug-In . SVG Version: 6.00 Build 0)  -->
<svg version="1.1" id="Layer_1" xmlns="http://www.w3.org/2000/svg" xmlns:xlink="http://www.w3.org/1999/xlink" x="0px" y="0px"
	 viewBox="0 0 62.4 58.7" style="enable-background:new 0 0 62.4 58.7;" xml:space="preserve">
<style type="text/css">
	.st0{fill:#363636;}
</style>
<g>
	<g>
		<path class="st0" d="M62.4,30.1c0,9.5,0,19,0,28.6c-16.6,0-49.5,0-49.5,0s2.3-3.3,1.1-5.4c2.3-0.7,3.5-2.5,3.4-5.4
			c1.5-1.1,3.3-1.8,4-3.2c0.7-1.4,0.9-3.5-0.3-5.2c1,0.1,2.3,0,3.1,0.2c1.5,0.4,2.4,0.1,3.4-1.1c1.1-1.4,2.4-2.8,4.4-2.9
			c1.3-0.1,1.5-0.7,1-1.9c-0.8-2.1-1.6-4.1-2.2-6.3c-0.3-1.1-0.6-1.7-1.7-1.3c-0.3-0.4-0.3-0.9-0.6-0.9c-0.9-0.1-2.2-0.1-3.1-0.1
			c0.5-1.7,0.6-1.8-1.3-2.8c-0.7-0.4-0.7-1.6,0-2.1c0.9-0.5,1.5-0.8,1.6-1.8c0-0.3,0.5-1,0.7-1.1c1.4-0.1,1.9-1.1,2.3-2.2
			c0.5,0.3,1,0.8,1.5,1c0.6,0.2,1,0.2,1.6,0.2c0.6,0,1.1-0.3,1.7-0.4c1.3-0.2,2-0.7,1.4-2c-0.3-0.6-0.5-1.3-0.8-1.9
			c0.5,0.1,1.3,0.2,1.6,0.5c2.8,3.3,6.9,4.8,10.4,6.8c0.9,0.4,1.8,0.6,2.8,0.7c0.7,0.1,1.5,0.2,2-0.3c0.7-0.6,0.1-1-0.3-1.6
			c0,0,0-0.6,0-0.7c1.5-0.1,1.7,0.1,1.6,1.4c-0.2,2.1-0.5,4.1-0.6,6.2c-0.1,0.9,0.2,1.2,1.1,1.4c0.8,0.2,0.5,0,1.3,0.4
			c0.5,0.3,2.1,1.3,2.6,1.5c0.9,0.4,1.3,0.5,1.8-0.4c0.2-0.3,0.5-1,0.6-1.5c0.2,0.5,0.5,1.2,0.7,1.6c0.2,0.4,0.4,0.8,0.5,1.1
			C61.3,30.4,61.1,30.6,62.4,30.1z"/>
		<path d="M62.3,30.2c-1.4,0.6-1.7,0.4-2.3-0.9c-0.2-0.4-0.3-0.7-0.4-1.1c-0.2-0.4-0.3-0.7-0.6-1.2c-0.2,0.4-0.3,0.8-0.4,1.1
			c-0.5,0.9-1.2,1.2-2.1,0.7c-0.5-0.3-1-0.6-1.5-0.9c-0.8-0.4-1.6-0.9-2.4-1.1c-1-0.3-1.3-0.8-1.2-1.7c0.2-2.1,0.3-4.1,0.5-6.2
			c0.1-1.4,0.2-1.4-1.3-1.2c0,0.1,0,0.2,0,0.2c0.5,0.6,1.1,1.4,0.4,2c-0.5,0.5-1.5,0.7-2.2,0.6c-1-0.1-2-0.5-2.9-1
			c-3.8-1.8-7.6-3.5-10.5-6.7c-0.3-0.3-0.7-0.5-1.2-0.6c0.3,0.6,0.6,1.1,0.8,1.7c0.5,1.2,0,2.1-1.3,2.3c-0.6,0.1-1.3,0.4-1.9,0.5
			c-0.6,0-1.3-0.1-1.9-0.3c-0.4-0.1-0.8-0.5-1.3-0.9c-0.4,1.1-0.9,2.1-2.2,2.2c-0.2,0-0.4,0.5-0.5,0.8c-0.2,1.1-0.9,1.6-1.7,2.1
			c-0.7,0.4-0.7,1.1,0,1.5c1.8,1.1,1.9,1.2,1.4,2.9c0.9,0,1.8-0.1,2.8,0c0.2,0,0.4,0.6,0.7,1c1.1-0.3,1.4,0.3,1.8,1.4
			c0.6,2.2,1.5,4.3,2.3,6.4c0.5,1.2,0.1,2.3-1.2,2.4c-2,0.1-3.2,1.4-4.2,2.7c-1,1.2-2.1,1.6-3.6,1.2c-0.8-0.2-1.7-0.2-2.7-0.3
			c1.2,1.7,0.9,3.7,0.2,5.1c-0.7,1.4-2.6,2.1-4.1,3.3c0.1,2.9-0.9,4.6-3.2,5.4c1.2,2.1-0.2,3.6-1.4,5.1c-0.5,0-1,0-1.4,0
			c0.7-1.3,1.5-2.7,2.3-4.2C9,54,4.7,53.5,0.4,53c0-0.1,0-0.2,0-0.4c0.3-0.1,0.5-0.2,0.8-0.2c4.1-0.1,8.2-0.3,12.2-0.4
			c1.5-0.1,3-1.8,2.8-3.3c-0.1-0.4-0.6-0.9-1-1.1c-0.3-0.2-0.8-0.2-1.3-0.2c-1.9,0-2.6-0.4-3.2-2.2c-0.3-0.8-0.7-1-1.4-0.9
			c-1.1,0.2-2.1,0.4-3.2,0.6c-1.5,0.3-2.8,0.1-4-1c-0.5-0.5-1.2-0.8-1.7-1.5c0.5,0.2,1.2,0.3,1.6,0.7c1.4,1.5,3,1.6,4.8,1.1
			C7.4,44,8,43.9,8.7,43.8c1.2-0.2,2.3,0,2.9,1.3c0.4,0.9,1.1,1.3,2.1,1.1c0.3-0.1,0.7,0.1,1.1,0.1c0.9-0.1,1.9-0.1,2.8-0.3
			c0.7-0.2,1.4-0.5,2-0.9c0.5-0.3,1-0.9,1.1-1.4c0.6-2.6,0.3-3-2.2-4.1c-2.3-1-4.6-2.2-6.8-3.6c-0.6-0.4-0.6-1.9-0.8-2.8
			c0.2-0.1,0.3-0.1,0.5-0.2c0.2,0.3,0.3,0.6,0.6,0.8c0.6,0.8,1.1,1.6,1.9,2.2c2.5,2,5.6,2,8.6,2.4c3,0.5,5.1-0.2,6.5-2.9
			c0.2-0.3,0.8-0.4,1.2-0.5c0.7-0.1,1.4-0.2,2.2-0.3c-0.5-1.5-0.8-2.9-1.3-4.1c-0.5-1.3-1.1-2.6-1.6-3.9c-2,0.9-2,0.9-2.4-1.1
			c-0.7,0.2-1.4,0.2-2,0.6c-1.9,1.1-4.2,1.2-6.1,2.5c-1.1,0.8-2.7,0.8-4.1,1.2c-0.1-0.1-0.1-0.3-0.2-0.4c0.3-0.1,0.5-0.3,0.8-0.4
			c1.6-0.8,3.3-1.6,4.9-2.4c0.2-0.1,0.4-0.3,0.5-0.3c1.8,0.1,2.4-1.3,3.4-2.3c0.5-0.6,0.3-0.9-0.4-1.2c-1.3-0.5-1.3-0.5-1.7-1.7
			c-1.7,0.5-3.1-0.4-4.6-1.1c-0.8-0.4-1.5-0.5-2.1,0.4c-0.1,0.2-0.3,0.3-0.4,0.4c-2.1,1.7-2.2,1.7-3.8-0.5c-2.4-3.4-5-6.6-7.5-10
			C3.5,10,3.2,9.5,3.1,9C2.6,7.3,2.2,5.6,1.9,3.7c0.2,0.2,0.6,0.4,0.7,0.6C3.3,6,4,7.7,4.7,9.4c0.4,0.9,0.9,1.7,1.5,2.4
			c1.8,2.6,3.7,5.1,5.5,7.7c0.6,0.9,1.1,0.9,1.8,0.2c0.5-0.4,0.9-1,1.5-1.1c0.7-0.2,1.5-0.3,2.1-0.1c0.8,0.2,1.6,0.7,2.4,1
			c2.2,0.8,4.1,0.1,5.2-2c0.2-0.4,0.5-0.8,0.9-0.9c0.8-0.2,1.4-0.6,1.2-1.3c-0.2-0.7-0.9-1.3-1.5-1.7c-0.4-0.2-1-0.1-1.5,0
			c-1.6,0.3-2.5-0.1-3.5-1.6c0.1-0.1,0.2-0.2,0.3-0.2c1.9,1,4,0.6,5.9,1c1.7,0.4,3,1.3,4.1,2.4c1.1-0.2,2.2-0.4,3.4-0.6
			c-0.2-0.5-0.5-1-0.7-1.6c-0.2-0.5-0.4-1.1-0.3-1.6c0.3-1.1-0.2-1.8-1.1-2.4c-1-0.7-1.9-1.4-2.9-2c0-0.1,0-0.2,0-0.3
			c0.6,0.1,1.3,0.1,1.9,0.3c0.4,0.1,0.7,0.5,1,0.8c1.8,1.8,3.6,3.6,5.4,5.4c1.3,1.4,2.9,2.3,4.7,3c1.9,0.8,3.7,1.7,5.5,2.5
			c0.7,0.3,1.4,0.4,2.4,0.6c-1.2-2.5-2.3-4.6-5-5.3c-1-0.2-1.1-0.9-1.5-1.9c0.9,0.7,1.6,1.2,2.4,1.7c0.8,0.5,1.7,1,2.5,1.6
			c1,0.7,3.3,0.8,4.3-0.1c1.7-1.5,3.3-3,5-4.5c0.5-0.4,0.9-0.8,1.4-1.1c0.1,0.1,0.2,0.2,0.3,0.3c-0.1,0.2-0.2,0.5-0.4,0.7
			c-1.6,1.6-3.2,3.2-4.9,4.8c-0.8,0.7-1.3,1.6-1.4,2.7c-0.2,2.4-0.4,4.8-0.7,7.5c2.5-0.6,3.3,1.9,5.4,2.4c0.2-1.3,0.4-2.6,0.6-3.9
			c0.2-1.3,0.5-2.6,0.8-4.2c0.3,0.5,0.5,0.7,0.5,0.9c0.3,2.2,0.7,4.4,0.9,6.6c0.2,1.8,0.2,1.8,1.9,1.8
			C62.3,29.5,62.3,29.8,62.3,30.2z"/>
		<path d="M62.4,3.2c-2.3,0-4.5,0.1-6.8,0c-1.5,0-2.8-0.6-4-1.5c3.6,1,7.2,0.3,10.8,0.5C62.4,2.5,62.4,2.9,62.4,3.2z"/>
		<path d="M62.4,1.3c-1-0.4-2-0.8-3.2-1.3c1.3-0.1,2.3,0,3.2,0.6C62.4,0.8,62.4,1,62.4,1.3z"/>
	</g>
</g>
</svg>
