<?xml version="1.0" standalone="no"?>
<!DOCTYPE svg PUBLIC "-//W3C//DTD SVG 1.1//EN" "http://www.w3.org/Graphics/SVG/1.1/DTD/svg11.dtd" >
<svg xmlns="http://www.w3.org/2000/svg">
<metadata></metadata>
<defs>
<font id="covington_condregular" horiz-adv-x="784" >
<font-face units-per-em="2048" ascent="1638" descent="-410" />
<missing-glyph horiz-adv-x="645" />
<glyph horiz-adv-x="0" />
<glyph unicode="&#xd;" horiz-adv-x="1024" />
<glyph unicode=" "  horiz-adv-x="645" />
<glyph unicode="&#x09;" horiz-adv-x="645" />
<glyph unicode="&#xa0;" horiz-adv-x="645" />
<glyph unicode="!" horiz-adv-x="469" d="M106 1362v72h259v-72h-58l-28 -1004h-86l-29 1004h-58zM150 106q0 22 6.5 42t18.5 35t27.5 23.5t33.5 8.5t33.5 -8.5t27 -23.5t18.5 -35t7 -42q0 -21 -7 -40.5t-18.5 -34t-27 -23t-33.5 -8.5t-33.5 8.5t-27.5 23t-18.5 34t-6.5 40.5z" />
<glyph unicode="&#x22;" horiz-adv-x="584" d="M106 1540h144l-57 -430h-43zM336 1540h143l-57 -430h-43z" />
<glyph unicode="#" horiz-adv-x="899" d="M106 680v108h164l15 216h-179v106h187l14 215h86l-14 -215h172l14 215h86l-14 -215h158v-106h-166l-15 -216h181v-108h-187l-16 -215h-86l16 215h-172l-16 -215h-86l16 215h-158zM356 788h172l15 216h-172z" />
<glyph unicode="$" d="M106 322q0 22 7 41.5t18.5 34.5t27.5 23.5t34 8.5t33.5 -8.5t27 -23.5t18.5 -34.5t7 -41.5q0 -24 -8 -45t-21.5 -35.5t-31.5 -21.5t-38 -3q46 -138 156 -172v617l-154 204q-37 51 -56.5 111.5t-19.5 132.5q0 63 16.5 119.5t47.5 107.5q32 50 73.5 81.5t92.5 43.5v150h29 v-144h57v144h29v-150q51 -12 91 -43.5t72 -81.5q32 -51 49 -106.5t17 -120.5q0 -21 -7 -40.5t-18.5 -34t-27 -23t-33.5 -8.5t-33.5 8.5t-27 23t-18.5 34t-7 40.5q0 25 8 46t21.5 35.5t31 21.5t37.5 4q-46 137 -155 172v-617l151 -205q37 -51 56.5 -111t19.5 -132 q0 -124 -66 -228q-31 -49 -70.5 -80.5t-90.5 -44.5v-151h-29v145q-8 -2 -15 -2h-14h-14t-14 2v-145h-29v151q-101 25 -166 123q-64 101 -64 228zM193 1188q0 -73 38 -121l105 -141v463q-31 -10 -55.5 -27t-44.5 -43q-43 -55 -43 -131zM365 37q5 -2 10 -2h14h6h14q7 0 13 2 v510l-57 76v-586zM365 887l57 -78v588h-25h-6h-26v-510zM451 45q31 9 54.5 26.5t45.5 43.5q43 55 43 131q0 70 -39 121l-104 141v-463z" />
<glyph unicode="%" horiz-adv-x="1358" d="M106 0l1004 1434h143l-1003 -1434h-144zM106 1038v72q0 151 84 254q83 104 203 104q119 0 201 -104q86 -106 86 -254v-72q0 -148 -86 -254q-83 -104 -201 -104q-119 0 -203 104q-43 53 -63.5 116.5t-20.5 137.5zM250 932q0 -37 11 -69.5t30.5 -57t45.5 -39t56 -14.5 q29 0 55.5 14.5t46 39t31 57t11.5 69.5v287q0 37 -11.5 69.5t-31 56.5t-46 38t-55.5 14q-30 0 -56 -14t-45.5 -38t-30.5 -56.5t-11 -69.5v-287zM680 322v71q0 152 84 254q82 105 203 105q117 0 200 -105q86 -102 86 -254v-71q0 -75 -21 -138.5t-65 -115.5 q-83 -105 -200 -105q-121 0 -203 105q-43 52 -63.5 115.5t-20.5 138.5zM823 215q0 -37 11 -69.5t30.5 -57t46 -39t56.5 -14.5q29 0 55 14.5t45.5 39t31 57t11.5 69.5v287q0 37 -11.5 69.5t-31 56.5t-45.5 38t-55 14q-30 0 -56.5 -14t-46 -38t-30.5 -56.5t-11 -69.5v-287z " />
<glyph unicode="&#x26;" horiz-adv-x="807" d="M106 322v143q0 51 11.5 100t32.5 91t51 76t67 56q-37 22 -67 56.5t-51 76.5t-32.5 90t-11.5 99q0 75 21 138t63 116q44 53 93.5 78.5t109.5 25.5q144 0 230 -143v109h57v-324h-57q-3 118 -70 201q-68 86 -160 86q-30 0 -56 -14t-45.5 -38t-30.5 -56.5t-11 -69.5v-215 q0 -37 11 -70t30.5 -57.5t45.5 -39t56 -14.5h344v-71h-57v-895q0 -37 11 -70t30.5 -57.5t45.5 -39t56 -14.5v-71q-60 0 -109.5 27t-92.5 79q-84 105 -84 252v62q-68 -62 -144 -62q-60 0 -109.5 27t-93.5 80q-84 105 -84 252zM250 215q0 -37 11 -69.5t30.5 -57t45.5 -39 t56 -14.5q78 0 144 63v654h-144q-30 0 -56 -14t-45.5 -38.5t-30.5 -57t-11 -69.5v-358z" />
<glyph unicode="'" horiz-adv-x="354" d="M106 1540h144l-57 -430h-43z" />
<glyph unicode="(" horiz-adv-x="455" d="M106 627q0 125 11 230.5t33 195.5q23 89 62 183.5t95 197.5l41 -35q-43 -100 -74.5 -193t-48.5 -178q-15 -85 -23.5 -184.5t-8.5 -216.5q0 -118 8.5 -217.5t23.5 -184.5q17 -85 48.5 -176.5t74.5 -193.5l-41 -35q-56 102 -95 197t-62 186q-44 181 -44 424z" />
<glyph unicode=")" horiz-adv-x="455" d="M106 -145q44 102 75 193.5t46 176.5q17 85 26 184.5t9 217.5q0 117 -9 216.5t-26 184.5q-15 85 -46 178t-75 193l41 35q112 -206 158 -381q43 -176 43 -426q0 -122 -10.5 -228t-32.5 -196q-23 -91 -62.5 -186t-95.5 -197z" />
<glyph unicode="*" horiz-adv-x="702" d="M106 889l158 115l-158 114l44 92l157 -114v229h86v-229l160 114l43 -92l-160 -114l160 -115l-43 -94l-160 114v-229h-86v229l-157 -114z" />
<glyph unicode="+" horiz-adv-x="641" d="M106 483v109h173v215h86v-215h172v-109h-172v-215h-86v215h-173z" />
<glyph unicode="," horiz-adv-x="354" d="M106 215h144l-57 -430h-43z" />
<glyph unicode="-" horiz-adv-x="641" d="M106 483v109h431v-109h-431z" />
<glyph unicode="." horiz-adv-x="383" d="M106 106q0 22 7 42t18.5 35t27.5 23.5t34 8.5t33.5 -8.5t27 -23.5t18.5 -35t7 -42q0 -21 -7 -40.5t-18.5 -34t-27 -23t-33.5 -8.5t-34 8.5t-27.5 23t-18.5 34t-7 40.5z" />
<glyph unicode="/" horiz-adv-x="702" d="M70 -100l483 1495l80 -41l-483 -1493z" />
<glyph unicode="0" d="M106 322v788q0 151 84 254q83 104 203 104q119 0 201 -104q86 -106 86 -254v-788q0 -150 -86 -254q-83 -105 -201 -105q-119 0 -203 105q-43 52 -63.5 115.5t-20.5 138.5zM250 215q0 -37 11 -69.5t30.5 -57t45.5 -39t56 -14.5q29 0 55.5 14.5t46 39t31 57t11.5 69.5v1004 q0 37 -11.5 69.5t-31 56.5t-46 38t-55.5 14q-30 0 -56 -14t-45.5 -38t-30.5 -56.5t-11 -69.5v-1004z" />
<glyph unicode="1" d="M322 0v72h57v1290h-57v72h200v-1362h58v-72h-258z" />
<glyph unicode="2" d="M106 0q0 146 31 281t96 260q47 96 234 356q63 90 95 162t32 129q0 91 -68 153q-28 29 -62 42.5t-71 13.5q-46 0 -87 -21.5t-73 -64.5q-69 -86 -69 -201h-58v324h58v-109q42 72 99.5 107.5t129.5 35.5q119 0 201 -104q86 -106 86 -254q0 -74 -28.5 -154t-84.5 -170 q-52 -80 -103 -157t-102 -158q-112 -199 -112 -399h373v71h57v-143h-574z" />
<glyph unicode="3" d="M106 0v322h58q0 -114 69 -201q32 -44 73 -65t87 -21q29 0 55.5 14.5t46 39t31 57t11.5 69.5v358q0 37 -11.5 69.5t-31 57t-46 38.5t-55.5 14h-71v71h71q29 0 55.5 14.5t46 39t31 57.5t11.5 70v215q0 37 -11.5 69.5t-31 56.5t-46 38t-55.5 14q-46 0 -87 -21.5t-73 -64.5 q-69 -86 -69 -201h-58v324h58v-109q42 72 99.5 107.5t129.5 35.5q119 0 201 -104q86 -106 86 -254q0 -51 -11.5 -99t-32.5 -90t-51 -76.5t-67 -56.5q37 -22 67 -56t51 -76t32.5 -91t11.5 -100v-143q0 -148 -86 -252q-84 -107 -201 -107q-145 0 -229 143v-106h-58z" />
<glyph unicode="4" d="M78 358v72l375 1004h141v-1004h115v-72h-115v-286h57v-72h-258v72h58v286h-373zM145 430h306v815z" />
<glyph unicode="5" d="M106 0v322h58q0 -114 69 -201q32 -44 73 -65t87 -21q29 0 55.5 14.5t46 39t31 57t11.5 69.5v555q0 37 -11.5 69.5t-31 57t-46 39t-55.5 14.5q-30 0 -56 -14.5t-45.5 -39t-30.5 -57t-11 -69.5v-106h-144v770h459v71h58v-143h-373v-416q29 37 64.5 56.5t78.5 19.5 q117 0 201 -107q86 -104 86 -251v-342q0 -148 -86 -252q-84 -107 -201 -107q-145 0 -229 143v-106h-58z" />
<glyph unicode="6" d="M106 322v788q0 151 84 254q83 104 203 104q144 0 230 -143v109h57v-324h-57q-3 118 -70 201q-68 86 -160 86q-30 0 -56 -14t-45.5 -38t-30.5 -56.5t-11 -69.5v-273q29 37 64.5 56.5t78.5 19.5q117 0 201 -107q86 -104 86 -251v-342q0 -148 -86 -252q-84 -107 -201 -107 q-119 0 -203 105q-43 52 -63.5 115.5t-20.5 138.5zM250 215q0 -37 11 -69.5t30.5 -57t45.5 -39t56 -14.5q29 0 55.5 14.5t46 39t31 57t11.5 69.5v555q0 37 -11.5 69.5t-31 57t-46 39t-55.5 14.5q-30 0 -56 -14.5t-45.5 -39t-30.5 -57t-11 -69.5v-555z" />
<glyph unicode="7" d="M121 1290v144h573v-72l-258 -1362h-143l258 1362h-373v-72h-57z" />
<glyph unicode="8" d="M106 322v143q0 52 11.5 100.5t32.5 90.5t51 76t67 56q-37 22 -67 56t-51 76t-32.5 90.5t-11.5 99.5q0 151 84 254q83 104 203 104q119 0 201 -104q86 -106 86 -254q0 -51 -12 -99.5t-33 -90.5t-51 -76t-66 -56q36 -22 66 -56t51 -76t33 -90.5t12 -100.5v-143 q0 -150 -86 -254q-83 -105 -201 -105q-119 0 -203 105q-43 52 -63.5 115.5t-20.5 138.5zM250 215q0 -37 11 -69.5t30.5 -57t45.5 -39t56 -14.5q29 0 55.5 14.5t46 39t31 57t11.5 69.5v358q0 37 -11.5 69.5t-31 57t-46 38.5t-55.5 14q-30 0 -56 -14t-45.5 -38.5t-30.5 -57 t-11 -69.5v-358zM250 1004q0 -37 11 -70t30.5 -57.5t45.5 -39t56 -14.5q29 0 55.5 14.5t46 39t31 57.5t11.5 70v215q0 37 -11.5 69.5t-31 56.5t-46 38t-55.5 14q-30 0 -56 -14t-45.5 -38t-30.5 -56.5t-11 -69.5v-215z" />
<glyph unicode="9" d="M106 0v322h58q0 -114 69 -201q32 -44 73 -65t87 -21q29 0 55.5 14.5t46 39t31 57t11.5 69.5v272q-29 -38 -65.5 -56.5t-78.5 -18.5q-60 0 -109.5 27t-93.5 79q-84 107 -84 252v340q0 75 21 138t63 116q44 53 93.5 78.5t109.5 25.5q119 0 201 -104q86 -106 86 -254v-788 q0 -150 -86 -254q-83 -105 -201 -105q-145 0 -229 143v-106h-58zM250 664q0 -37 11 -70t30.5 -57.5t45.5 -39t56 -14.5q29 0 55.5 14.5t46 39t31 57.5t11.5 70v555q0 37 -11.5 69.5t-31 56.5t-46 38t-55.5 14q-30 0 -56 -14t-45.5 -38t-30.5 -56.5t-11 -69.5v-555z" />
<glyph unicode=":" horiz-adv-x="383" d="M106 106q0 22 7 42t18.5 35t27.5 23.5t34 8.5t33.5 -8.5t27 -23.5t18.5 -35t7 -42q0 -21 -7 -40.5t-18.5 -34t-27 -23t-33.5 -8.5t-34 8.5t-27.5 23t-18.5 34t-7 40.5zM106 788q0 22 7 42t18.5 34t27.5 22.5t34 8.5t33.5 -8.5t27 -22.5t18.5 -34t7 -42t-7 -41.5 t-18.5 -34.5t-27 -23.5t-33.5 -8.5t-34 8.5t-27.5 23.5t-18.5 34.5t-7 41.5z" />
<glyph unicode=";" horiz-adv-x="383" d="M106 788q0 22 7 42t18.5 34t27.5 22.5t34 8.5t33.5 -8.5t27 -22.5t18.5 -34t7 -42t-7 -41.5t-18.5 -34.5t-27 -23.5t-33.5 -8.5t-34 8.5t-27.5 23.5t-18.5 34.5t-7 41.5zM121 215h143l-57 -430h-43z" />
<glyph unicode="&#x3c;" horiz-adv-x="621" d="M106 483v109l361 291l45 -88l-315 -258l315 -256l-45 -88z" />
<glyph unicode="=" horiz-adv-x="641" d="M106 358v107h431v-107h-431zM106 608v109h431v-109h-431z" />
<glyph unicode="&#x3e;" horiz-adv-x="621" d="M106 281l316 256l-316 258l46 88l360 -291v-109l-360 -290z" />
<glyph unicode="?" horiz-adv-x="799" d="M106 106q0 22 7 42t18.5 35t27.5 23.5t34 8.5t33.5 -8.5t27 -23.5t18.5 -35t7 -42q0 -21 -7 -40.5t-18.5 -34t-27 -23t-33.5 -8.5t-34 8.5t-27.5 23t-18.5 34t-7 40.5zM121 842h143q0 -37 11 -69.5t30.5 -56.5t46 -38t56.5 -14q29 0 55 14t45.5 38t31 56.5t11.5 69.5v377 q0 37 -11.5 69.5t-31 56.5t-45.5 38t-55 14q-95 0 -160 -86q-34 -42 -52 -92t-18 -109h-57v324h57v-109q82 143 230 143q118 0 200 -104q86 -104 86 -254v-160q0 -74 -21 -137.5t-65 -116.5q-83 -104 -200 -104q-44 0 -78.5 18t-65.5 56l-28 -308h-86z" />
<glyph unicode="@" horiz-adv-x="1300" d="M106 -109v1291q0 106 58 176q61 76 143 76h688q42 0 76.5 -19t65.5 -57q59 -71 59 -176v-932q0 -102 -59 -176q-31 -37 -65.5 -55.5t-76.5 -18.5h-221l8 121q-13 -35 -34 -64t-47 -50t-56 -32.5t-61 -11.5q-108 0 -187 96q-75 95 -75 234v12t2 17l30 430q6 75 30 138 t71 116q48 52 99.5 78t111.5 26t107.5 -42.5t66.5 -115.5l10 123h158l-7 -71h-57l-65 -932h116q29 0 55.5 14t46 38t31 56.5t11.5 69.5v932q0 37 -11.5 70t-31 57.5t-46 38.5t-55.5 14h-688q-30 0 -56 -14t-45.5 -38.5t-30.5 -57.5t-11 -70v-1291q0 -37 11 -69.5t30.5 -56.5 t45.5 -38t56 -14h631v-71h-631q-83 0 -143 75q-29 35 -43.5 79t-14.5 95zM459 199q0 -35 10.5 -65t28.5 -52t42 -34.5t52 -12.5q29 0 55.5 14.5t47 39t34 57t16.5 69.5l48 645v17q0 34 -10 63t-28 51t-42 34.5t-51 12.5q-29 0 -56.5 -12.5t-50.5 -40.5q-22 -25 -34.5 -56.5 t-14.5 -68.5l-47 -645v-16z" />
<glyph unicode="A" horiz-adv-x="913" d="M35 0v72h86l291 1362h104l291 -1362h74v-72h-293v72h69l-61 286h-352l-62 -286h70v-72h-217zM258 430h324l-162 756z" />
<glyph unicode="B" horiz-adv-x="807" d="M70 0v72h57v1290h-57v72h329q119 0 203 -107q42 -53 63 -115t21 -137v-37q0 -55 -13.5 -105t-37.5 -91t-58.5 -72t-76.5 -49q45 -16 82 -47t63.5 -74t40.5 -95.5t14 -111.5v-35q0 -147 -84 -252q-82 -106 -202 -106h-344zM270 72h144q30 0 56 14t45.5 38t30.5 56.5 t11 69.5v252q0 37 -11 69.5t-30.5 56.5t-45.5 38t-56 14h-144v-608zM270 752h129q30 0 56 14.5t45.5 39t31 57t11.5 69.5v250q0 37 -11.5 70t-31 57.5t-45.5 38.5t-56 14h-129v-610z" />
<glyph unicode="C" d="M106 322v788q0 151 84 254q83 104 203 104q144 0 230 -143v109h57v-324h-57q0 60 -18 110.5t-50 92.5q-69 84 -162 84q-30 0 -56 -14t-45.5 -38t-30.5 -56.5t-11 -69.5v-1004q0 -37 11 -69.5t30.5 -57t45.5 -39t56 -14.5q95 0 162 86q32 42 50 92t18 109h57v-322h-57v106 q-88 -143 -230 -143q-119 0 -203 105q-43 52 -63.5 115.5t-20.5 138.5z" />
<glyph unicode="D" horiz-adv-x="807" d="M70 0v72h57v1290h-57v72h344q118 0 202 -107q84 -105 84 -252v-717q0 -149 -84 -254q-83 -104 -202 -104h-344zM270 72h144q30 0 56 14t45.5 38t30.5 56.5t11 69.5v932q0 37 -11 70t-30.5 57.5t-45.5 38.5t-56 14h-144v-1290z" />
<glyph unicode="E" horiz-adv-x="807" d="M70 0v72h57v1290h-57v72h630v-144h-57v72h-373v-610h230v71h57v-215h-57v72h-230v-608h373v71h57v-143h-630z" />
<glyph unicode="F" horiz-adv-x="770" d="M70 0v72h57v1290h-57v72h630v-144h-57v72h-373v-610h230v71h57v-215h-57v72h-230v-608h58v-72h-258z" />
<glyph unicode="G" horiz-adv-x="807" d="M106 322v788q0 75 21 138t63 116q44 53 93.5 78.5t109.5 25.5q144 0 230 -143v109h57v-324h-57q0 60 -18 110.5t-50 92.5q-69 84 -162 84q-30 0 -56 -14t-45.5 -38t-30.5 -56.5t-11 -69.5v-1004q0 -37 11 -69.5t30.5 -57t45.5 -39t56 -14.5q42 0 77 16t67 47v582h-58v72 h258v-72h-57v-717q0 -146 -86 -252q-42 -52 -92 -79t-109 -27v71q29 0 55.5 14.5t46 39t31 57.5t11.5 70v168q-73 -62 -144 -62q-60 0 -109.5 27t-93.5 80q-84 105 -84 252z" />
<glyph unicode="H" horiz-adv-x="807" d="M70 0v72h57v1290h-57v72h258v-72h-58v-610h287v610h-57v72h258v-72h-58v-1290h58v-72h-258v72h57v608h-287v-608h58v-72h-258z" />
<glyph unicode="I" horiz-adv-x="397" d="M70 0v72h57v1290h-57v72h258v-72h-58v-1290h58v-72h-258z" />
<glyph unicode="J" horiz-adv-x="684" d="M70 0v215h57q0 -37 11.5 -69.5t31 -57t45.5 -39t55 -14.5q30 0 56 14.5t45.5 39t31 57t11.5 69.5v1147h-58v72h258v-72h-57v-1040q0 -147 -84 -252q-84 -107 -203 -107q-80 0 -143 78v-41h-57z" />
<glyph unicode="K" horiz-adv-x="827" d="M70 0v72h57v1290h-57v72h258v-72h-58v-721l367 721h-57v72h178v-72h-58l-243 -481l243 -809h58v-72h-264v72h57l-189 622l-92 -180v-442h58v-72h-258z" />
<glyph unicode="L" horiz-adv-x="713" d="M70 0v72h57v1290h-57v72h258v-72h-58v-1290h316v71h57v-143h-573z" />
<glyph unicode="M" horiz-adv-x="1141" d="M70 0v72h57v1290h-57v72h336v-72h-72l237 -1114l238 1114h-70v72h332v-72h-57v-1290h57v-72h-258v72h57v1290l-290 -1362h-103l-293 1362v-1290h58v-72h-172z" />
<glyph unicode="N" horiz-adv-x="827" d="M70 0v72h57v1290h-57v72h227l346 -1313v1241h-57v72h172v-72h-58v-1290h58v-72h-226l-348 1313v-1241h58v-72h-172z" />
<glyph unicode="O" d="M106 322v788q0 151 84 254q83 104 203 104q119 0 201 -104q86 -106 86 -254v-788q0 -150 -86 -254q-83 -105 -201 -105q-119 0 -203 105q-43 52 -63.5 115.5t-20.5 138.5zM250 215q0 -37 11 -69.5t30.5 -57t45.5 -39t56 -14.5q29 0 55.5 14.5t46 39t31 57t11.5 69.5v1004 q0 37 -11.5 69.5t-31 56.5t-46 38t-55.5 14q-30 0 -56 -14t-45.5 -38t-30.5 -56.5t-11 -69.5v-1004z" />
<glyph unicode="P" horiz-adv-x="770" d="M70 0v72h57v1290h-57v72h344q118 0 202 -107q84 -105 84 -252v-37q0 -147 -84 -252q-42 -52 -92 -79t-110 -27h-144v-608h58v-72h-258zM270 752h144q30 0 56 14.5t45.5 39t30.5 57t11 69.5v250q0 37 -11 70t-30.5 57.5t-45.5 38.5t-56 14h-144v-610z" />
<glyph unicode="Q" d="M70 -158q74 136 202 154q-38 22 -69 56.5t-52.5 77t-33 91.5t-11.5 101v788q0 151 84 254q83 104 203 104q119 0 201 -104q86 -106 86 -254v-788q0 -132 -72 -236t-180 -119q15 -10 29 -20.5t29 -19t30.5 -14t32.5 -5.5q74 0 117 80l49 -39q-86 -158 -238 -158 q-77 0 -160 59q-20 16 -40.5 23.5t-38.5 7.5q-77 0 -119 -78zM250 215q0 -37 11 -69.5t30.5 -57t45.5 -39t56 -14.5q29 0 55.5 14.5t46 39t31 57t11.5 69.5v1004q0 37 -11.5 69.5t-31 56.5t-46 38t-55.5 14q-30 0 -56 -14t-45.5 -38t-30.5 -56.5t-11 -69.5v-1004z" />
<glyph unicode="R" horiz-adv-x="842" d="M70 0v72h57v1290h-57v72h329q119 0 203 -107q42 -53 63 -115t21 -137v-37q0 -54 -13.5 -103.5t-37.5 -91t-58.5 -73t-76.5 -49.5q45 -16 82 -47.5t63.5 -74.5t40.5 -95.5t14 -110.5v-143q0 -37 11.5 -69.5t31 -56.5t46 -38t55.5 -14v-72q-118 0 -203 106q-84 107 -84 252 v144q0 37 -11 69.5t-30.5 56.5t-45.5 38t-56 14h-144v-608h58v-72h-258zM270 752h129q30 0 56 14.5t45.5 39t31 57t11.5 69.5v250q0 37 -11.5 70t-31 57.5t-45.5 38.5t-56 14h-129v-610z" />
<glyph unicode="S" d="M106 0v322h58q0 -114 69 -201q32 -44 73 -65t87 -21q74 0 137 57q31 31 47.5 68.5t16.5 85.5q0 70 -39 121l-373 499q-37 51 -56.5 111.5t-19.5 132.5q0 147 84 254q44 53 93.5 78.5t109.5 25.5q144 0 230 -143v109h57v-324h-57q-3 118 -70 201q-68 86 -160 86 q-38 0 -72 -13.5t-65 -42.5q-63 -60 -63 -153q0 -73 38 -121l371 -500q37 -51 56.5 -111t19.5 -132q0 -75 -20.5 -138.5t-63.5 -115.5q-84 -107 -201 -107q-145 0 -229 143v-106h-58z" />
<glyph unicode="T" horiz-adv-x="713" d="M70 1290v144h573v-144h-57v72h-158v-1290h57v-72h-258v72h58v1290h-158v-72h-57z" />
<glyph unicode="U" horiz-adv-x="827" d="M70 1362v72h258v-72h-58v-1147q0 -37 11.5 -69.5t31 -57t46 -39t55.5 -14.5q30 0 56 14.5t45.5 39t30.5 57t11 69.5v1147h-57v72h258v-72h-58v-1040q0 -151 -84 -254q-83 -105 -202 -105q-59 0 -110 26t-93 79q-43 52 -63.5 115.5t-20.5 138.5v1040h-57z" />
<glyph unicode="V" horiz-adv-x="913" d="M35 1362v72h291v-72h-70l238 -1114l239 1114h-69v72h217v-72h-88l-291 -1362h-105l-291 1362h-71z" />
<glyph unicode="W" horiz-adv-x="1366" d="M35 1362v72h291v-72h-70l238 -1114l153 706l-88 408h-74v72h293v-72h-69l237 -1114l238 1114h-70v72h217v-72h-88l-291 -1362h-102l-172 815l-176 -815h-105l-291 1362h-71z" />
<glyph unicode="X" horiz-adv-x="827" d="M70 0v72h57l211 635l-211 655h-57v72h272v-72h-57l174 -539l176 539h-57v72h180v-72h-58l-213 -629l213 -661h58v-72h-273v72h58l-174 544l-176 -544h57v-72h-180z" />
<glyph unicode="Y" horiz-adv-x="756" d="M35 1362v72h272v-72h-57l172 -539l176 539h-57v72h182v-72h-57l-215 -637v-653h57v-72h-258v72h57v624l-215 666h-57z" />
<glyph unicode="Z" d="M106 0v72h58l307 1290h-307v-72h-58v144h574v-72h-57l-310 -1290h310v71h57v-143h-574z" />
<glyph unicode="[" horiz-adv-x="440" d="M106 -180v1614h230v-72h-143v-1471h143v-71h-230z" />
<glyph unicode="\" horiz-adv-x="702" d="M70 1354l80 41l483 -1495l-80 -39z" />
<glyph unicode="]" horiz-adv-x="440" d="M106 -109h144v1471h-144v72h230v-1614h-230v71z" />
<glyph unicode="^" horiz-adv-x="684" d="M106 727l193 598h86l195 -598l-82 -39l-156 483l-156 -483z" />
<glyph unicode="_" horiz-adv-x="807" d="M0 0v106h807v-106h-807z" />
<glyph unicode="`" horiz-adv-x="412" d="M106 1434h87l100 -215h-57z" />
<glyph unicode="a" horiz-adv-x="807" d="M106 322v71q0 149 84 254q44 53 93.5 79t109.5 26q82 0 144 -74v182q0 37 -11.5 69.5t-31 56.5t-46 38t-55.5 14q-95 0 -162 -84q-67 -82 -67 -202h-58v323h58v-108q85 143 229 143q118 0 201 -104q86 -106 86 -254v-680h57v-72h-157v121q-12 -35 -31 -64t-44 -50 t-53.5 -32.5t-58.5 -11.5q-60 0 -109.5 27t-93.5 80q-84 105 -84 252zM250 215q0 -37 11 -69.5t30.5 -57t45.5 -39t56 -14.5q29 0 55.5 14.5t46 39t31 57t11.5 69.5v287q0 37 -11.5 69.5t-31 56.5t-46 38t-55.5 14q-30 0 -56 -14t-45.5 -38t-30.5 -56.5t-11 -69.5v-287z" />
<glyph unicode="b" horiz-adv-x="807" d="M70 0v72h57v1362h-57v71h200v-469q59 74 144 74q119 0 202 -104q84 -105 84 -254v-430q0 -149 -84 -252q-84 -107 -202 -107q-30 0 -58.5 11.5t-53.5 32.5t-44 50t-31 64v-121h-157zM270 215q0 -37 11.5 -69.5t31 -57t46 -39t55.5 -14.5q30 0 56 14.5t45.5 39t30.5 57 t11 69.5v645q0 37 -11 69.5t-30.5 56.5t-45.5 38t-56 14q-29 0 -55.5 -14t-46 -38t-31 -56.5t-11.5 -69.5v-645z" />
<glyph unicode="c" d="M106 322v430q0 151 84 254q84 104 203 104q144 0 230 -143v108h57v-323h-57q0 60 -18 110t-50 92q-68 84 -162 84q-30 0 -56 -14t-45.5 -38t-30.5 -56.5t-11 -69.5v-645q0 -37 11 -69.5t30.5 -57t45.5 -39t56 -14.5q95 0 162 86q32 42 50 92t18 109h57v-322h-57v106 q-88 -143 -230 -143q-119 0 -203 105q-43 52 -63.5 115.5t-20.5 138.5z" />
<glyph unicode="d" horiz-adv-x="807" d="M106 322v430q0 151 84 254q84 104 203 104q85 0 144 -74v398h-58v71h201v-1433h57v-72h-157v121q-12 -35 -31 -64t-43.5 -50t-53 -32.5t-59.5 -11.5q-119 0 -203 105q-43 52 -63.5 115.5t-20.5 138.5zM250 215q0 -37 11 -69.5t30.5 -57t45.5 -39t56 -14.5q29 0 55.5 14.5 t46 39t31 57t11.5 69.5v645q0 37 -11.5 69.5t-31 56.5t-46 38t-55.5 14q-30 0 -56 -14t-45.5 -38t-30.5 -56.5t-11 -69.5v-645z" />
<glyph unicode="e" d="M106 322v430q0 151 84 254q84 104 203 104q118 0 201 -104q86 -106 86 -254v-179h-430v-358q0 -37 11 -69.5t30.5 -57t45.5 -39t56 -14.5q95 0 162 86q32 42 50 92t18 109h57v-322h-57v106q-88 -143 -230 -143q-60 0 -109.5 27t-93.5 80q-84 105 -84 252zM250 645h287 v215q0 37 -11.5 69.5t-31 56.5t-46 38t-55.5 14q-30 0 -56 -14t-45.5 -38t-30.5 -56.5t-11 -69.5v-215z" />
<glyph unicode="f" horiz-adv-x="483" d="M70 0v72h57v608h-57v72h57v430q0 75 21 138t63 116q86 104 203 104v-72q-29 0 -55.5 -14t-46 -38t-31 -56.5t-11.5 -69.5v-538h144v-72h-144v-608h58v-72h-258z" />
<glyph unicode="g" horiz-adv-x="807" d="M106 322v430q0 75 21 138t63 116q44 52 93.5 78t109.5 26q31 0 59.5 -11t53 -31.5t43.5 -50t31 -65.5v123h157v-71h-57v-1041q0 -146 -86 -252q-42 -52 -92 -79t-109 -27v71q29 0 55.5 14.5t46 39t31 57.5t11.5 70v182q-29 -37 -65.5 -56.5t-78.5 -19.5q-60 0 -109.5 27 t-93.5 80q-84 105 -84 252zM250 215q0 -37 11 -69.5t30.5 -57t45.5 -39t56 -14.5q29 0 55.5 14.5t46 39t31 57t11.5 69.5v645q0 37 -11.5 69.5t-31 56.5t-46 38t-55.5 14q-30 0 -56 -14t-45.5 -38t-30.5 -56.5t-11 -69.5v-645z" />
<glyph unicode="h" horiz-adv-x="827" d="M70 0v72h57v1362h-57v71h258v-71h-58v-398q59 74 144 74q119 0 202 -104q84 -105 84 -254v-680h58v-72h-258v72h57v788q0 37 -11 69.5t-30.5 56.5t-45.5 38t-56 14q-29 0 -55.5 -14t-46 -38t-31 -56.5t-11.5 -69.5v-788h58v-72h-258z" />
<glyph unicode="i" horiz-adv-x="397" d="M70 0v72h57v932h-57v71h200v-1003h58v-72h-258zM98 1343q0 26 8 49t21.5 40t32 26.5t39.5 9.5t39 -9.5t31.5 -26.5t21.5 -40t8 -49t-8 -48.5t-21.5 -39.5t-31.5 -26.5t-39 -9.5t-39.5 9.5t-32 26.5t-21.5 39.5t-8 48.5z" />
<glyph unicode="j" horiz-adv-x="397" d="M-16 -324q30 0 56 14.5t45.5 39t30.5 57.5t11 70v1147h-57v71h258v-71h-58v-1041q0 -147 -84 -252q-42 -52 -92 -79t-110 -27v71zM98 1343q0 26 8 49t21.5 40t32 26.5t39.5 9.5t39 -9.5t31.5 -26.5t21.5 -40t8 -49t-8 -48.5t-21.5 -39.5t-31.5 -26.5t-39 -9.5t-39.5 9.5 t-32 26.5t-21.5 39.5t-8 48.5z" />
<glyph unicode="k" horiz-adv-x="827" d="M70 0v72h57v1290h-57v72h258v-72h-58v-926l359 568h-49v71h178v-71h-58l-208 -332l208 -600h58v-72h-264v72h57l-156 450l-125 -196v-254h58v-72h-258z" />
<glyph unicode="l" horiz-adv-x="397" d="M70 0v72h57v1362h-57v71h200v-1433h58v-72h-258z" />
<glyph unicode="m" horiz-adv-x="1257" d="M70 0v72h57v932h-57v71h157v-123q12 36 31 65.5t44 50t53.5 31.5t58.5 11q71 0 124.5 -37t90.5 -115q37 78 90.5 115t124.5 37q119 0 203 -104q83 -106 83 -254v-680h58v-72h-258v72h57v788q0 37 -11 69.5t-30.5 56.5t-45.5 38t-56 14q-29 0 -55.5 -14t-46 -38t-31 -56.5 t-11.5 -69.5v-788h58v-72h-258v72h57v788q0 37 -11 69.5t-30.5 56.5t-45.5 38t-56 14q-29 0 -55.5 -14t-46 -38t-31 -56.5t-11.5 -69.5v-788h58v-72h-258z" />
<glyph unicode="n" horiz-adv-x="827" d="M70 0v72h57v932h-57v71h157v-123q12 36 31 65.5t44 50t53.5 31.5t58.5 11q119 0 202 -104q84 -105 84 -254v-680h58v-72h-258v72h57v788q0 37 -11 69.5t-30.5 56.5t-45.5 38t-56 14q-29 0 -55.5 -14t-46 -38t-31 -56.5t-11.5 -69.5v-788h58v-72h-258z" />
<glyph unicode="o" d="M106 322v430q0 151 84 254q84 104 203 104q118 0 201 -104q86 -106 86 -254v-430q0 -150 -86 -254q-83 -105 -201 -105q-119 0 -203 105q-43 52 -63.5 115.5t-20.5 138.5zM250 215q0 -37 11 -69.5t30.5 -57t45.5 -39t56 -14.5q29 0 55.5 14.5t46 39t31 57t11.5 69.5v645 q0 37 -11.5 69.5t-31 56.5t-46 38t-55.5 14q-30 0 -56 -14t-45.5 -38t-30.5 -56.5t-11 -69.5v-645z" />
<glyph unicode="p" horiz-adv-x="807" d="M70 -287h57v1291h-57v71h157v-123q12 36 31 65.5t44 50t53.5 31.5t58.5 11q119 0 202 -104q84 -105 84 -254v-430q0 -151 -84 -254q-83 -105 -202 -105q-42 0 -78.5 19.5t-65.5 56.5v-326h58v-71h-258v71zM270 215q0 -37 11.5 -69.5t31 -57t46 -39t55.5 -14.5 q30 0 56 14.5t45.5 39t30.5 57t11 69.5v645q0 37 -11 69.5t-30.5 56.5t-45.5 38t-56 14q-29 0 -55.5 -14t-46 -38t-31 -56.5t-11.5 -69.5v-645z" />
<glyph unicode="q" horiz-adv-x="807" d="M106 322v430q0 75 21 138t63 116q44 52 93.5 78t109.5 26q31 0 59.5 -11t53 -31.5t43.5 -50t31 -65.5v123h157v-71h-57v-1291h57v-71h-200v397q-29 -37 -65.5 -56.5t-78.5 -19.5q-60 0 -109.5 27t-93.5 80q-84 105 -84 252zM250 215q0 -37 11 -69.5t30.5 -57t45.5 -39 t56 -14.5q29 0 55.5 14.5t46 39t31 57t11.5 69.5v645q0 37 -11.5 69.5t-31 56.5t-46 38t-55.5 14q-30 0 -56 -14t-45.5 -38t-30.5 -56.5t-11 -69.5v-645z" />
<glyph unicode="r" horiz-adv-x="684" d="M70 0v72h57v932h-57v71h143v-129q56 164 201 164q85 0 143 -76v41h57v-215h-57q0 37 -11 69.5t-30.5 56.5t-45.5 38t-56 14q-29 0 -55.5 -14t-46 -38t-31 -56.5t-11.5 -69.5v-788h58v-72h-258z" />
<glyph unicode="s" d="M106 0v322h58q0 -114 69 -201q32 -44 73 -65t87 -21q77 0 133 47q68 56 68 145q0 116 -127 181q-57 27 -116 53.5t-118 54.5q-63 42 -95 104.5t-32 147.5q0 148 84 246q44 49 93.5 72.5t109.5 23.5q144 0 230 -143v108h57v-323h-57q-3 118 -70 200q-67 86 -160 86 q-78 0 -135 -45q-34 -28 -49.5 -63.5t-15.5 -81.5q0 -59 30.5 -104t95.5 -76q57 -28 115 -55.5t117 -53.5q127 -81 127 -252q0 -152 -84 -246q-83 -98 -201 -98q-145 0 -229 143v-106h-58z" />
<glyph unicode="t" horiz-adv-x="483" d="M70 1004v71h57v287h-57v72h258v-72h-58v-287h144v-71h-144v-789q0 -37 11.5 -69.5t31 -57t46 -39t55.5 -14.5v-72q-116 0 -203 107q-84 105 -84 252v682h-57z" />
<glyph unicode="u" horiz-adv-x="827" d="M70 1004v71h200v-860q0 -37 11.5 -69.5t31 -57t46 -39t55.5 -14.5q30 0 56 14.5t45.5 39t30.5 57t11 69.5v789h-57v71h200v-1003h58v-72h-158v121q-12 -35 -31 -64t-43 -50t-52.5 -32.5t-59.5 -11.5q-116 0 -203 107q-84 105 -84 252v682h-57z" />
<glyph unicode="v" horiz-adv-x="866" d="M35 1004v71h291v-71h-68l213 -820l213 820h-72v71h219v-71h-88l-260 -1004h-114l-263 1004h-71z" />
<glyph unicode="w" horiz-adv-x="1294" d="M35 1004v71h291v-71h-68l213 -820l139 535l-73 285h-74v71h293v-71h-70l213 -820l213 820h-70v71h218v-71h-89l-260 -1004h-114l-156 604l-158 -604h-114l-263 1004h-71z" />
<glyph unicode="x" horiz-adv-x="827" d="M70 0v72h57l209 458l-209 474h-57v71h278v-71h-57l170 -386l174 386h-57v71h180v-71h-58l-206 -459l206 -473h58v-72h-293v72h72l-168 385l-176 -385h57v-72h-180z" />
<glyph unicode="y" horiz-adv-x="807" d="M70 1004v71h200v-860q0 -37 11.5 -69.5t31 -57t46 -39t55.5 -14.5q30 0 56 14.5t45.5 39t30.5 57t11 69.5v789h-57v71h200v-1112q0 -147 -84 -252q-42 -52 -92 -79t-110 -27v71q30 0 56 14.5t45.5 39t30.5 57.5t11 70v182q-28 -37 -64.5 -56.5t-78.5 -19.5 q-116 0 -203 107q-84 105 -84 252v682h-57z" />
<glyph unicode="z" d="M106 0v72h58l301 932h-301v-72h-58v143h574v-71h-57l-304 -932h304v71h57v-143h-574z" />
<glyph unicode="{" horiz-adv-x="641" d="M106 592v72q29 0 55.5 14t46 38t31 56.5t11.5 69.5v268q0 75 21 138t63 116q85 104 203 104v-71q-30 0 -56.5 -14t-46 -38t-30.5 -56.5t-11 -69.5v-269q0 -51 -11.5 -100t-32.5 -91t-51 -76t-67 -56q37 -23 67 -57t51 -76t32.5 -90t11.5 -99v-270q0 -37 11 -69.5 t30.5 -56.5t46 -38t56.5 -14v-72q-118 0 -203 106q-84 107 -84 252v269q0 37 -11.5 69.5t-31 57t-46 39t-55.5 14.5z" />
<glyph unicode="|" horiz-adv-x="297" d="M106 -180v1614h87v-1614h-87z" />
<glyph unicode="}" horiz-adv-x="641" d="M106 -143q29 0 55.5 14t46 38t31 56.5t11.5 69.5v270q0 51 11 99t32 90t51 76t68 57q-38 22 -68 56t-51 76t-32 91t-11 100v269q0 37 -11.5 69.5t-31 56.5t-46 38t-55.5 14v71q119 0 201 -104q86 -104 86 -254v-268q0 -37 11 -69.5t30.5 -56.5t46 -38t56.5 -14v-72 q-30 0 -56.5 -14.5t-46 -39t-30.5 -57t-11 -69.5v-269q0 -148 -86 -252q-82 -106 -201 -106v72z" />
<glyph unicode="~" horiz-adv-x="856" d="M106 1167q86 158 238 158q42 0 82 -14t80 -45q35 -31 78 -31q75 0 118 78l50 -39q-44 -81 -104.5 -119.5t-135.5 -38.5q-42 0 -80.5 15.5t-79.5 46.5q-20 14 -39 22t-39 8q-79 0 -120 -80z" />
<glyph unicode="&#xa1;" horiz-adv-x="469" d="M106 -109h58l29 1004h86l28 -1004h58v-71h-259v71zM150 1147q0 22 6.5 41.5t18.5 33.5t27.5 22.5t33.5 8.5t33.5 -8.5t27 -22.5t18.5 -33.5t7 -41.5q0 -23 -7 -42.5t-18.5 -34.5t-27 -23.5t-33.5 -8.5t-33.5 8.5t-27.5 23.5t-18.5 34.5t-6.5 42.5z" />
<glyph unicode="&#xa2;" d="M106 680v430q0 129 64 229q34 50 74.5 80.5t91.5 42.5v150h29v-144h28h29v144h29v-150q96 -24 161 -123q68 -101 68 -229q0 -21 -7 -40.5t-18.5 -34t-27 -23t-33.5 -8.5t-33.5 8.5t-27 23t-18.5 34t-7 40.5q0 22 7 42t18.5 35t27 23.5t33.5 8.5h3t9 -2q-42 137 -155 172 v-986q37 12 68.5 39t54.5 63.5t36 81.5t13 93h57q0 -65 -17 -120.5t-51 -106.5q-65 -99 -161 -123v-152h-29v146q-8 -2 -15 -2h-14h-14t-14 2v-146h-29v152q-51 12 -91.5 42.5t-74.5 80.5q-64 100 -64 227zM250 573q0 -120 86 -165v974q-43 -21 -64.5 -63t-21.5 -100v-646z M365 397q8 -2 14 -3t14 -1h16q7 0 13 2v1002h-29h-14t-14 -2v-998z" />
<glyph unicode="&#xa3;" horiz-adv-x="807" d="M70 0v72h57v608h-57v72h57v358q0 75 21 138t63 116q85 104 203 104q144 0 229 -143v109h57v-324h-57q0 118 -65 203q-70 84 -164 84q-29 0 -55.5 -14t-46 -38t-31 -56.5t-11.5 -69.5v-467h287v-72h-287v-608h373v71h57v-143h-630z" />
<glyph unicode="&#xa4;" horiz-adv-x="893" d="M70 537v108h143v143h-143v107h143v215q0 151 84 254q42 53 93 78.5t110 25.5q144 0 229 -143v109h57v-324h-57q0 118 -65 203q-70 84 -164 84q-29 0 -55.5 -14t-46 -38t-31 -56.5t-11.5 -69.5v-324h287v-107h-287v-143h287v-108h-287v-322q0 -37 11.5 -69.5t31 -57 t46 -39t55.5 -14.5q96 0 164 86q65 83 65 201h57v-322h-57v106q-87 -143 -229 -143q-59 0 -110 26t-93 79q-43 52 -63.5 115.5t-20.5 138.5v215h-143z" />
<glyph unicode="&#xa5;" horiz-adv-x="899" d="M106 1362v72h273v-72h-57l172 -539l176 539h-58v72h183v-72h-58l-207 -610h207v-107h-215v-143h215v-109h-215v-321h58v-72h-258v72h57v321h-215v109h215v143h-215v107h196l-196 610h-58z" />
<glyph unicode="&#xa6;" horiz-adv-x="297" d="M106 -180v700h87v-700h-87zM106 735v699h87v-699h-87z" />
<glyph unicode="&#xa7;" d="M106 143h58q0 -116 69 -200q35 -44 75 -65t85 -21q80 0 135 47q66 51 66 145q0 57 -31 102t-94 76q-59 28 -117 55.5t-116 53.5q-65 43 -96 106.5t-31 147.5q0 187 124 284q-63 42 -95 104.5t-32 147.5q0 151 84 244q42 51 92.5 74.5t110.5 23.5q144 0 230 -143v109h57 v-324h-57q-3 118 -70 201q-68 86 -160 86q-77 0 -135 -45q-34 -28 -49.5 -63.5t-15.5 -82.5q0 -59 30.5 -104t95.5 -76q57 -28 115 -55t117 -53q127 -86 127 -252q0 -187 -125 -287q127 -83 127 -252q0 -145 -84 -246q-84 -96 -203 -96q-145 0 -229 143v-108h-58v323z M193 668q0 -83 59 -136q18 -17 47 -33t70 -34q21 -8 50.5 -20t69.5 -29q105 52 105 170q0 80 -59 137q-19 15 -48 31.5t-69 33.5q-20 8 -50.5 20.5t-70.5 29.5q-104 -49 -104 -170z" />
<glyph unicode="&#xa8;" horiz-adv-x="584" d="M106 1343q0 38 20.5 64.5t51.5 26.5t51.5 -26t20.5 -65q0 -37 -20.5 -63.5t-51.5 -26.5q-15 0 -28.5 7.5t-23 20t-15 28.5t-5.5 34zM336 1343q0 38 20.5 64.5t51.5 26.5t51 -26t20 -65q0 -37 -20 -63.5t-51 -26.5q-15 0 -28.5 7.5t-23 20t-15 28.5t-5.5 34z" />
<glyph unicode="&#xa9;" d="M106 322v430q0 151 84 254q84 104 203 104q118 0 201 -104q86 -106 86 -254v-430q0 -150 -86 -254q-83 -105 -201 -105q-119 0 -203 105q-43 52 -63.5 115.5t-20.5 138.5zM164 322q0 -119 67 -201q67 -86 162 -86t162 86q32 42 50 92t18 109v430q0 60 -18 110t-50 92 q-68 84 -162 84q-95 0 -162 -84q-67 -82 -67 -202v-430zM250 340v395q0 37 11 69.5t30.5 56.5t45.5 38t56 14q35 0 64 -17t51 -54v53h29v-160h-29q0 29 -9.5 55.5t-25 46t-36.5 31t-44 11.5q-31 0 -51 -26.5t-20 -64.5v-501q0 -38 20 -64t51 -26q23 0 44 11.5t36.5 31 t25 45.5t9.5 55h29v-162h-29v55q-22 -37 -51 -54t-64 -17q-30 0 -56 14t-45.5 38t-30.5 56.5t-11 69.5z" />
<glyph unicode="&#xaa;" horiz-adv-x="684" d="M106 868v56q0 54 15.5 102t46.5 86q65 80 154 80q60 0 106 -55v135q0 28 -8.5 52.5t-23 43t-34 29t-40.5 10.5q-71 0 -123 -66q-49 -61 -49 -149h-44v242h44v-80q64 106 172 106q43 0 81.5 -19.5t69.5 -58.5q31 -40 47.5 -87t16.5 -103v-512h43v-53h-117v92 q-19 -53 -57 -86t-84 -33q-89 0 -154 80q-62 77 -62 188zM213 788q0 -27 8.5 -51.5t23.5 -43t34.5 -29.5t42.5 -11q21 0 40.5 11t34 29.5t23 43t8.5 51.5v216q0 27 -8.5 51.5t-23 43t-34 29.5t-40.5 11q-23 0 -42.5 -11t-34.5 -29.5t-23.5 -43t-8.5 -51.5v-216z" />
<glyph unicode="&#xab;" horiz-adv-x="922" d="M106 233v107l287 235l47 -90l-243 -198l243 -197l-47 -90zM479 233v107l287 235l47 -90l-244 -198l244 -197l-47 -90z" />
<glyph unicode="&#xac;" horiz-adv-x="641" d="M106 483v109h431v-215h-86v106h-345z" />
<glyph unicode="&#xad;" horiz-adv-x="641" d="M106 483v109h431v-109h-431z" />
<glyph unicode="&#xae;" d="M106 322v430q0 151 84 254q84 104 203 104q118 0 201 -104q86 -106 86 -254v-430q0 -150 -86 -254q-83 -105 -201 -105q-119 0 -203 105q-43 52 -63.5 115.5t-20.5 138.5zM164 322q0 -119 67 -201q67 -86 162 -86q133 0 201 147q-25 6 -46 22.5t-36.5 39.5t-24 52.5 t-8.5 61.5v72q0 37 -21 63.5t-50 26.5h-72v-305h29v-37h-129v37h28v645h-28v35h163q30 0 56 -14t45.5 -38t31 -56.5t11.5 -69.5v-19q0 -120 -92 -159q21 -8 39.5 -23.5t32 -37t21 -47.5t7.5 -54v-72q0 -73 55 -88q8 25 12.5 51t4.5 54v430q0 60 -18 110t-50 92 q-68 84 -162 84q-95 0 -162 -84q-67 -82 -67 -202v-430zM336 555h63q15 0 28 7t22.5 19.5t15.5 29t6 34.5v125q0 18 -6 34.5t-15.5 29t-22.5 19.5t-28 7h-63v-305z" />
<glyph unicode="&#xaf;" horiz-adv-x="641" d="M106 483v109h431v-109h-431z" />
<glyph unicode="&#xb0;" horiz-adv-x="526" d="M106 1343q0 42 12.5 78t33.5 62.5t50 41.5t62 15q32 0 61 -15t50.5 -41.5t34 -62.5t12.5 -78q0 -41 -12.5 -76.5t-34 -62t-50.5 -42t-61 -15.5q-33 0 -62 15.5t-50 42t-33.5 62t-12.5 76.5zM164 1343q0 -26 7.5 -48.5t21 -39.5t32 -26.5t39.5 -9.5t39 9.5t32 26.5 t22 39.5t8 48.5t-8 49t-22 40t-32 26.5t-39 9.5t-39.5 -9.5t-32 -26.5t-21 -40t-7.5 -49z" />
<glyph unicode="&#xb1;" horiz-adv-x="641" d="M106 0v106h431v-106h-431zM106 483v109h173v215h86v-215h172v-109h-172v-215h-86v215h-173z" />
<glyph unicode="&#xb2;" horiz-adv-x="498" d="M106 823q0 75 15.5 141.5t46.5 131.5q12 21 42 66.5t77 111.5q31 45 47 81t16 64q0 24 -8.5 43.5t-23 33t-32.5 21t-36 7.5q-24 0 -45 -11.5t-36.5 -31t-24.5 -46t-9 -55.5h-29v160h29v-53q43 72 115 72q29 0 55 -14t45.5 -38.5t31 -57t11.5 -69.5t-14 -76.5t-43 -84.5 q-25 -39 -51 -79.5t-52 -78.5q-55 -101 -55 -201h187v35h28v-72h-287z" />
<glyph unicode="&#xb3;" horiz-adv-x="498" d="M106 823v162h29q0 -29 9 -55t24.5 -45.5t36.5 -31t45 -11.5q31 0 51.5 26t20.5 64v178q0 38 -20.5 64t-51.5 26h-37v37h37q31 0 51.5 25.5t20.5 62.5v109q0 37 -20.5 63.5t-51.5 26.5q-24 0 -45 -11.5t-36.5 -31t-24.5 -46t-9 -55.5h-29v160h29v-53q43 72 115 72 q29 0 55 -14t45.5 -38.5t31 -57t11.5 -69.5q0 -112 -82 -161q82 -50 82 -162v-72q0 -37 -11.5 -69.5t-31 -56.5t-45.5 -38t-55 -14q-35 0 -64 17t-51 55v-56h-29z" />
<glyph unicode="&#xb4;" horiz-adv-x="412" d="M121 1219l100 215h86l-129 -215h-57z" />
<glyph unicode="&#xb6;" horiz-adv-x="1071" d="M106 1038v37q0 75 21 137t63 115q44 53 93.5 80t109.5 27h574v-72h-144v-1720h-143v1720h-143v-1720h-144v1038q-60 0 -109.5 27t-93.5 79q-84 107 -84 252z" />
<glyph unicode="&#xb7;" horiz-adv-x="383" d="M106 537q0 22 7 41.5t18.5 34.5t27.5 23.5t34 8.5t33.5 -8.5t27 -23.5t18.5 -34.5t7 -41.5t-7 -41.5t-18.5 -34t-27 -23t-33.5 -8.5t-34 8.5t-27.5 23t-18.5 34t-7 41.5z" />
<glyph unicode="&#xb8;" horiz-adv-x="406" d="M106 -358l15 71h72q20 0 33.5 19t13.5 45q0 32 -11.5 46.5t-35.5 14.5h-72l29 197h57l-19 -125q47 0 78 -37t31 -96q0 -27 -8 -51.5t-22.5 -43t-33.5 -29.5t-40 -11h-87z" />
<glyph unicode="&#xb9;" horiz-adv-x="340" d="M106 823v37h29v645h-29v35h101v-680h29v-37h-130z" />
<glyph unicode="&#xba;" horiz-adv-x="641" d="M106 868v324q0 110 62 190q64 78 154 78q43 0 81.5 -19.5t69.5 -58.5q31 -40 47.5 -87t16.5 -103v-324q0 -55 -16.5 -102.5t-47.5 -85.5q-31 -40 -69.5 -60t-81.5 -20q-89 0 -154 80q-62 77 -62 188zM213 788q0 -27 8.5 -51.5t23.5 -43t34.5 -29.5t42.5 -11q21 0 40.5 11 t34 29.5t23 43t8.5 51.5v484q0 28 -8.5 52.5t-23 43t-34 29t-40.5 10.5q-23 0 -42.5 -10.5t-34.5 -29t-23.5 -43t-8.5 -52.5v-484z" />
<glyph unicode="&#xbb;" horiz-adv-x="922" d="M106 90l244 197l-244 198l48 90l286 -235v-107l-286 -233zM479 90l244 197l-244 198l47 90l287 -235v-107l-287 -233z" />
<glyph unicode="&#xbc;" horiz-adv-x="641" d="M106 680v72h431v-72h-431zM164 35v37l186 501h72v-501h57v-37h-57v-144h29v-34h-129v34h28v144h-186zM197 72h153v407zM256 860v35h29v645h-29v37h100v-682h29v-35h-129z" />
<glyph unicode="&#xbd;" horiz-adv-x="641" d="M106 680v72h431v-72h-431zM178 -143q0 143 62 270q12 23 42 68.5t76 111.5q31 44 47.5 80t16.5 64q0 24 -8.5 43t-23 32.5t-32.5 21t-36 7.5q-24 0 -45 -11t-36.5 -30.5t-24.5 -45.5t-9 -56h-29v161h29v-53q44 72 115 72q29 0 55 -14.5t45.5 -39t31 -57t11.5 -69.5 q0 -35 -14 -76t-43 -86q-25 -38 -51 -78l-52 -80q-55 -97 -55 -201h186v37h29v-71h-287zM256 860v35h29v645h-29v37h100v-682h29v-35h-129z" />
<glyph unicode="&#xbe;" horiz-adv-x="641" d="M106 680v72h431v-72h-431zM164 35v37l186 501h72v-501h57v-37h-57v-144h29v-34h-129v34h28v144h-186zM178 860v162h29q0 -30 9 -56t24.5 -45.5t36.5 -30.5t45 -11q30 0 50.5 25.5t20.5 62.5v180q0 37 -20.5 63.5t-50.5 26.5h-37v35h37q30 0 50.5 26t20.5 64v106 q0 39 -20.5 65t-50.5 26q-24 0 -45 -11.5t-36.5 -31t-24.5 -45.5t-9 -56h-29v162h29v-53q44 71 115 71q29 0 55 -14.5t45.5 -39t31 -57t11.5 -69.5q0 -57 -21 -97t-61 -65q40 -23 61 -63.5t21 -95.5v-72q0 -37 -11.5 -69.5t-31 -57t-45.5 -39t-55 -14.5q-71 0 -115 71v-53 h-29zM197 72h153v407z" />
<glyph unicode="&#xbf;" horiz-adv-x="799" d="M106 143v162q0 145 84 252q44 53 93.5 80t109.5 27q42 0 77.5 -19.5t66.5 -56.5l28 307h86l29 -483h-143q0 37 -11.5 69.5t-31 57t-46 39t-55.5 14.5q-30 0 -56 -14.5t-45.5 -39t-30.5 -57t-11 -69.5v-377q0 -37 11 -69.5t30.5 -56.5t45.5 -38t56 -14q93 0 160 86 q67 82 70 200h57v-323h-57v108q-88 -143 -230 -143q-60 0 -109.5 26t-93.5 80q-84 107 -84 252zM522 1147q0 22 7 41.5t18.5 33.5t27 22.5t33.5 8.5t33.5 -8.5t27 -22.5t18.5 -33.5t7 -41.5q0 -23 -7 -42.5t-18.5 -34.5t-27 -23.5t-33.5 -8.5t-33.5 8.5t-27 23.5t-18.5 34.5 t-7 42.5z" />
<glyph unicode="&#xc0;" horiz-adv-x="913" d="M35 0v72h86l291 1362h104l291 -1362h74v-72h-293v72h69l-61 286h-352l-62 -286h70v-72h-217zM258 430h324l-162 756zM307 1755h86l101 -215h-58z" />
<glyph unicode="&#xc1;" horiz-adv-x="913" d="M35 0v72h86l291 1362h104l291 -1362h74v-72h-293v72h69l-61 286h-352l-62 -286h70v-72h-217zM258 430h324l-162 756zM436 1540l101 215h86l-129 -215h-58z" />
<glyph unicode="&#xc2;" horiz-adv-x="913" d="M35 0v72h86l291 1362h104l291 -1362h74v-72h-293v72h69l-61 286h-352l-62 -286h70v-72h-217zM258 430h324l-162 756zM307 1540l115 215h86l115 -215h-86l-72 135l-72 -135h-86z" />
<glyph unicode="&#xc3;" horiz-adv-x="913" d="M35 0v72h86l291 1362h104l291 -1362h74v-72h-293v72h69l-61 286h-352l-62 -286h70v-72h-217zM223 1581q64 117 178 117q25 0 51 -8t54 -25q26 -19 44.5 -27t29.5 -8q31 0 52.5 15.5t37.5 44.5l37 -31q-66 -119 -181 -119q-24 0 -48 9t-52 26q-26 17 -45.5 27t-32.5 10 q-58 0 -90 -60zM258 430h324l-162 756z" />
<glyph unicode="&#xc4;" horiz-adv-x="913" d="M35 0v72h86l291 1362h104l291 -1362h74v-72h-293v72h69l-61 286h-352l-62 -286h70v-72h-217zM258 430h324l-162 756zM279 1630q0 37 20 63.5t51 26.5t51.5 -26t20.5 -64q0 -37 -20.5 -63.5t-51.5 -26.5q-15 0 -28 7.5t-22.5 20t-15 28.5t-5.5 34zM508 1630 q0 37 20.5 63.5t51.5 26.5t51 -26t20 -64q0 -37 -20 -63.5t-51 -26.5q-15 0 -28.5 7.5t-23 20t-15 28.5t-5.5 34z" />
<glyph unicode="&#xc5;" horiz-adv-x="913" d="M35 0v72h86l280 1306q-48 25 -71 70.5t-23 110.5q0 80 45 139q23 29 52 43t61 14q66 0 110 -57q48 -60 48 -139q0 -65 -23.5 -110.5t-73.5 -70.5l281 -1306h74v-72h-293v72h69l-61 286h-352l-62 -286h70v-72h-217zM258 430h324l-162 756zM365 1559q0 -26 7.5 -49t21 -40 t32 -26.5t39.5 -9.5t39 9.5t31.5 26.5t21.5 40t8 49t-8 48.5t-21.5 39.5t-31.5 26.5t-39 9.5t-39.5 -9.5t-32 -26.5t-21 -39.5t-7.5 -48.5z" />
<glyph unicode="&#xc6;" horiz-adv-x="1358" d="M35 0v72h86l291 1362h104l221 -1035v963h-57v72h573v-144h-57v72h-315v-610h172v71h57v-215h-57v72h-172v-608h315v71h57v-143h-665v72h69l-61 286h-352l-62 -286h70v-72h-217zM258 430h324l-162 756z" />
<glyph unicode="&#xc7;" d="M106 322v788q0 151 84 254q83 104 203 104q144 0 230 -143v109h57v-324h-57q0 60 -18 110.5t-50 92.5q-69 84 -162 84q-30 0 -56 -14t-45.5 -38t-30.5 -56.5t-11 -69.5v-1004q0 -37 11 -69.5t30.5 -57t45.5 -39t56 -14.5q95 0 162 86q32 42 50 92t18 109h57v-322h-57v106 q-82 -131 -211 -143l-9 -53q47 0 78 -37t31 -96q0 -27 -8 -51.5t-22.5 -43t-33.5 -29.5t-40 -11h-86l14 71h72q20 0 33.5 19t13.5 45q0 32 -11.5 46.5t-35.5 14.5h-72l18 129q-107 20 -178 119q-70 101 -70 236z" />
<glyph unicode="&#xc8;" horiz-adv-x="807" d="M70 0v72h57v1290h-57v72h630v-144h-57v72h-373v-610h230v71h57v-215h-57v72h-230v-608h373v71h57v-143h-630zM248 1755h86l100 -215h-57z" />
<glyph unicode="&#xc9;" horiz-adv-x="807" d="M70 0v72h57v1290h-57v72h630v-144h-57v72h-373v-610h230v71h57v-215h-57v72h-230v-608h373v71h57v-143h-630zM377 1540l100 215h86l-129 -215h-57z" />
<glyph unicode="&#xca;" horiz-adv-x="807" d="M70 0v72h57v1290h-57v72h630v-144h-57v72h-373v-610h230v71h57v-215h-57v72h-230v-608h373v71h57v-143h-630zM248 1540l114 215h87l114 -215h-86l-71 135l-72 -135h-86z" />
<glyph unicode="&#xcb;" horiz-adv-x="807" d="M70 0v72h57v1290h-57v72h630v-144h-57v72h-373v-610h230v71h57v-215h-57v72h-230v-608h373v71h57v-143h-630zM227 1630q0 18 6 34.5t15.5 29t22.5 19.5t28 7q31 0 51.5 -26t20.5 -64q0 -37 -20.5 -63.5t-51.5 -26.5q-15 0 -28 7.5t-22.5 20t-15.5 28.5t-6 34zM457 1630 q0 18 5.5 34.5t15.5 29t22.5 19.5t27.5 7q31 0 51.5 -26t20.5 -64q0 -37 -20.5 -63.5t-51.5 -26.5q-15 0 -27.5 7.5t-22.5 20t-15.5 28.5t-5.5 34z" />
<glyph unicode="&#xcc;" horiz-adv-x="397" d="M41 1755h86l100 -215h-57zM70 0v72h57v1290h-57v72h258v-72h-58v-1290h58v-72h-258z" />
<glyph unicode="&#xcd;" horiz-adv-x="397" d="M70 0v72h57v1290h-57v72h258v-72h-58v-1290h58v-72h-258zM170 1540l100 215h86l-129 -215h-57z" />
<glyph unicode="&#xce;" horiz-adv-x="397" d="M41 1540l115 215h86l114 -215h-86l-71 135l-72 -135h-86zM70 0v72h57v1290h-57v72h258v-72h-58v-1290h58v-72h-258z" />
<glyph unicode="&#xcf;" horiz-adv-x="397" d="M12 1630q0 18 6 34.5t15.5 29t22.5 19.5t28 7q31 0 51.5 -26t20.5 -64q0 -37 -20.5 -63.5t-51.5 -26.5q-15 0 -28 7.5t-22.5 20t-15.5 28.5t-6 34zM70 0v72h57v1290h-57v72h258v-72h-58v-1290h58v-72h-258zM242 1630q0 18 5.5 34.5t15.5 29t22.5 19.5t27.5 7 q31 0 51.5 -26t20.5 -64q0 -37 -20.5 -63.5t-51.5 -26.5q-15 0 -27.5 7.5t-22.5 20t-15.5 28.5t-5.5 34z" />
<glyph unicode="&#xd0;" horiz-adv-x="807" d="M70 0v72h57v608h-57v72h57v610h-57v72h344q118 0 202 -107q84 -105 84 -252v-717q0 -149 -84 -254q-83 -104 -202 -104h-344zM270 72h144q30 0 56 14t45.5 38t30.5 56.5t11 69.5v932q0 37 -11 70t-30.5 57.5t-45.5 38.5t-56 14h-144v-610h144v-72h-144v-608z" />
<glyph unicode="&#xd1;" horiz-adv-x="827" d="M70 0v72h57v1290h-57v72h227l346 -1313v1241h-57v72h172v-72h-58v-1290h58v-72h-226l-348 1313v-1241h58v-72h-172zM174 1581q64 117 176 117q25 0 52 -8t53 -25q28 -19 45.5 -27t29.5 -8q56 0 91 60l34 -31q-66 -119 -178 -119q-47 0 -100 35q-28 17 -47 27t-33 10 q-56 0 -90 -60z" />
<glyph unicode="&#xd2;" d="M106 322v788q0 151 84 254q83 104 203 104q119 0 201 -104q86 -106 86 -254v-788q0 -150 -86 -254q-83 -105 -201 -105q-119 0 -203 105q-43 52 -63.5 115.5t-20.5 138.5zM236 1755h86l100 -215h-57zM250 215q0 -37 11 -69.5t30.5 -57t45.5 -39t56 -14.5q29 0 55.5 14.5 t46 39t31 57t11.5 69.5v1004q0 37 -11.5 69.5t-31 56.5t-46 38t-55.5 14q-30 0 -56 -14t-45.5 -38t-30.5 -56.5t-11 -69.5v-1004z" />
<glyph unicode="&#xd3;" d="M106 322v788q0 151 84 254q83 104 203 104q119 0 201 -104q86 -106 86 -254v-788q0 -150 -86 -254q-83 -105 -201 -105q-119 0 -203 105q-43 52 -63.5 115.5t-20.5 138.5zM250 215q0 -37 11 -69.5t30.5 -57t45.5 -39t56 -14.5q29 0 55.5 14.5t46 39t31 57t11.5 69.5v1004 q0 37 -11.5 69.5t-31 56.5t-46 38t-55.5 14q-30 0 -56 -14t-45.5 -38t-30.5 -56.5t-11 -69.5v-1004zM365 1540l100 215h86l-129 -215h-57z" />
<glyph unicode="&#xd4;" d="M106 322v788q0 151 84 254q83 104 203 104q119 0 201 -104q86 -106 86 -254v-788q0 -150 -86 -254q-83 -105 -201 -105q-119 0 -203 105q-43 52 -63.5 115.5t-20.5 138.5zM236 1540l114 215h86l115 -215h-86l-72 135l-71 -135h-86zM250 215q0 -37 11 -69.5t30.5 -57 t45.5 -39t56 -14.5q29 0 55.5 14.5t46 39t31 57t11.5 69.5v1004q0 37 -11.5 69.5t-31 56.5t-46 38t-55.5 14q-30 0 -56 -14t-45.5 -38t-30.5 -56.5t-11 -69.5v-1004z" />
<glyph unicode="&#xd5;" d="M106 322v788q0 151 84 254q83 104 203 104q119 0 201 -104q86 -106 86 -254v-788q0 -150 -86 -254q-83 -105 -201 -105q-119 0 -203 105q-43 52 -63.5 115.5t-20.5 138.5zM152 1581q64 117 178 117q24 0 50 -8t54 -25q26 -19 44.5 -27t29.5 -8q59 0 90 60l37 -31 q-66 -119 -180 -119q-25 0 -49 9t-52 26q-26 17 -45.5 27t-32.5 10q-58 0 -90 -60zM250 215q0 -37 11 -69.5t30.5 -57t45.5 -39t56 -14.5q29 0 55.5 14.5t46 39t31 57t11.5 69.5v1004q0 37 -11.5 69.5t-31 56.5t-46 38t-55.5 14q-30 0 -56 -14t-45.5 -38t-30.5 -56.5 t-11 -69.5v-1004z" />
<glyph unicode="&#xd6;" d="M106 322v788q0 151 84 254q83 104 203 104q119 0 201 -104q86 -106 86 -254v-788q0 -150 -86 -254q-83 -105 -201 -105q-119 0 -203 105q-43 52 -63.5 115.5t-20.5 138.5zM207 1630q0 37 20.5 63.5t51.5 26.5q30 0 50.5 -26t20.5 -64q0 -37 -20.5 -63.5t-50.5 -26.5 q-15 0 -28.5 7.5t-23 20t-15 28.5t-5.5 34zM250 215q0 -37 11 -69.5t30.5 -57t45.5 -39t56 -14.5q29 0 55.5 14.5t46 39t31 57t11.5 69.5v1004q0 37 -11.5 69.5t-31 56.5t-46 38t-55.5 14q-30 0 -56 -14t-45.5 -38t-30.5 -56.5t-11 -69.5v-1004zM436 1630q0 37 20.5 63.5 t51.5 26.5t51.5 -26t20.5 -64q0 -37 -20.5 -63.5t-51.5 -26.5q-15 0 -28.5 7.5t-23 20t-15 28.5t-5.5 34z" />
<glyph unicode="&#xd7;" horiz-adv-x="616" d="M106 360l142 177l-142 178l60 76l141 -179l144 179l59 -76l-141 -178l141 -177l-59 -75l-144 178l-141 -178z" />
<glyph unicode="&#xd8;" d="M35 35l86 178q-15 55 -15 109v788q0 151 84 254q83 104 203 104q82 0 143 -43t103 -133l70 142l43 -37l-86 -176q8 -29 11 -56t3 -55v-788q0 -150 -86 -254q-83 -105 -201 -105q-83 0 -143.5 44.5t-102.5 133.5l-69 -141zM250 215q0 -37 11 -69.5t30.5 -57t45.5 -39 t56 -14.5q29 0 55.5 14.5t46 39t31 57t11.5 69.5v737l-287 -596v-141zM250 481l287 596v142q0 37 -11.5 69.5t-31 56.5t-46 38t-55.5 14q-30 0 -56 -14t-45.5 -38t-30.5 -56.5t-11 -69.5v-738z" />
<glyph unicode="&#xd9;" horiz-adv-x="827" d="M70 1362v72h258v-72h-58v-1147q0 -37 11.5 -69.5t31 -57t46 -39t55.5 -14.5q30 0 56 14.5t45.5 39t30.5 57t11 69.5v1147h-57v72h258v-72h-58v-1040q0 -151 -84 -254q-83 -105 -202 -105q-59 0 -110 26t-93 79q-43 52 -63.5 115.5t-20.5 138.5v1040h-57zM256 1755h86 l100 -215h-57z" />
<glyph unicode="&#xda;" horiz-adv-x="827" d="M70 1362v72h258v-72h-58v-1147q0 -37 11.5 -69.5t31 -57t46 -39t55.5 -14.5q30 0 56 14.5t45.5 39t30.5 57t11 69.5v1147h-57v72h258v-72h-58v-1040q0 -151 -84 -254q-83 -105 -202 -105q-59 0 -110 26t-93 79q-43 52 -63.5 115.5t-20.5 138.5v1040h-57zM385 1540 l100 215h86l-129 -215h-57z" />
<glyph unicode="&#xdb;" horiz-adv-x="827" d="M70 1362v72h258v-72h-58v-1147q0 -37 11.5 -69.5t31 -57t46 -39t55.5 -14.5q30 0 56 14.5t45.5 39t30.5 57t11 69.5v1147h-57v72h258v-72h-58v-1040q0 -151 -84 -254q-83 -105 -202 -105q-59 0 -110 26t-93 79q-43 52 -63.5 115.5t-20.5 138.5v1040h-57zM256 1540 l115 215h86l114 -215h-86l-71 135l-72 -135h-86z" />
<glyph unicode="&#xdc;" horiz-adv-x="827" d="M70 1362v72h258v-72h-58v-1147q0 -37 11.5 -69.5t31 -57t46 -39t55.5 -14.5q30 0 56 14.5t45.5 39t30.5 57t11 69.5v1147h-57v72h258v-72h-58v-1040q0 -151 -84 -254q-83 -105 -202 -105q-59 0 -110 26t-93 79q-43 52 -63.5 115.5t-20.5 138.5v1040h-57zM227 1630 q0 18 6 34.5t15.5 29t22.5 19.5t28 7q31 0 51.5 -26t20.5 -64q0 -37 -20.5 -63.5t-51.5 -26.5q-15 0 -28 7.5t-22.5 20t-15.5 28.5t-6 34zM457 1630q0 18 5.5 34.5t15.5 29t22.5 19.5t27.5 7q31 0 51.5 -26t20.5 -64q0 -37 -20.5 -63.5t-51.5 -26.5q-15 0 -27.5 7.5 t-22.5 20t-15.5 28.5t-5.5 34z" />
<glyph unicode="&#xdd;" horiz-adv-x="756" d="M35 1362v72h272v-72h-57l172 -539l176 539h-57v72h182v-72h-57l-215 -637v-653h57v-72h-258v72h57v624l-215 666h-57zM350 1540l101 215h86l-129 -215h-58z" />
<glyph unicode="&#xde;" horiz-adv-x="770" d="M70 0v72h57v1290h-57v72h258v-72h-58v-268h144q118 0 202 -107q84 -104 84 -252v-37q0 -147 -84 -252q-42 -52 -92 -79t-110 -27h-144v-268h58v-72h-258zM270 412h144q30 0 56 14.5t45.5 39t30.5 57t11 69.5v250q0 37 -11 69.5t-30.5 57t-45.5 39t-56 14.5h-144v-610z " />
<glyph unicode="&#xdf;" d="M49 -287h57v1397q0 75 21 138t63 116q44 53 93.5 78.5t109.5 25.5q119 0 201 -104q86 -106 86 -254q0 -51 -12 -99t-33 -90t-51 -76.5t-66 -56.5q36 -22 66 -56t51 -76t33 -91t12 -100v-143q0 -148 -86 -252q-84 -107 -201 -107h-28v72h28q29 0 55.5 14.5t46 39t31 57 t11.5 69.5v358q0 37 -11.5 69.5t-31 57t-46 38.5t-55.5 14h-28v71h28q29 0 55.5 14.5t46 39t31 57.5t11.5 70v215q0 37 -11.5 69.5t-31 56.5t-46 38t-55.5 14q-30 0 -56 -14t-45.5 -38t-30.5 -56.5t-11 -69.5v-1506h57v-71h-258v71z" />
<glyph unicode="&#xe0;" horiz-adv-x="807" d="M106 322v71q0 149 84 254q44 53 93.5 79t109.5 26q82 0 144 -74v182q0 37 -11.5 69.5t-31 56.5t-46 38t-55.5 14q-95 0 -162 -84q-67 -82 -67 -202h-58v323h58v-108q85 143 229 143q118 0 201 -104q86 -106 86 -254v-680h57v-72h-157v121q-12 -35 -31 -64t-44 -50 t-53.5 -32.5t-58.5 -11.5q-60 0 -109.5 27t-93.5 80q-84 105 -84 252zM236 1397h86l100 -215h-57zM250 215q0 -37 11 -69.5t30.5 -57t45.5 -39t56 -14.5q29 0 55.5 14.5t46 39t31 57t11.5 69.5v287q0 37 -11.5 69.5t-31 56.5t-46 38t-55.5 14q-30 0 -56 -14t-45.5 -38 t-30.5 -56.5t-11 -69.5v-287z" />
<glyph unicode="&#xe1;" horiz-adv-x="807" d="M106 322v71q0 149 84 254q44 53 93.5 79t109.5 26q82 0 144 -74v182q0 37 -11.5 69.5t-31 56.5t-46 38t-55.5 14q-95 0 -162 -84q-67 -82 -67 -202h-58v323h58v-108q85 143 229 143q118 0 201 -104q86 -106 86 -254v-680h57v-72h-157v121q-12 -35 -31 -64t-44 -50 t-53.5 -32.5t-58.5 -11.5q-60 0 -109.5 27t-93.5 80q-84 105 -84 252zM250 215q0 -37 11 -69.5t30.5 -57t45.5 -39t56 -14.5q29 0 55.5 14.5t46 39t31 57t11.5 69.5v287q0 37 -11.5 69.5t-31 56.5t-46 38t-55.5 14q-30 0 -56 -14t-45.5 -38t-30.5 -56.5t-11 -69.5v-287z M365 1182l100 215h86l-129 -215h-57z" />
<glyph unicode="&#xe2;" horiz-adv-x="807" d="M106 322v71q0 149 84 254q44 53 93.5 79t109.5 26q82 0 144 -74v182q0 37 -11.5 69.5t-31 56.5t-46 38t-55.5 14q-95 0 -162 -84q-67 -82 -67 -202h-58v323h58v-108q85 143 229 143q118 0 201 -104q86 -106 86 -254v-680h57v-72h-157v121q-12 -35 -31 -64t-44 -50 t-53.5 -32.5t-58.5 -11.5q-60 0 -109.5 27t-93.5 80q-84 105 -84 252zM236 1182l114 215h86l115 -215h-86l-72 135l-71 -135h-86zM250 215q0 -37 11 -69.5t30.5 -57t45.5 -39t56 -14.5q29 0 55.5 14.5t46 39t31 57t11.5 69.5v287q0 37 -11.5 69.5t-31 56.5t-46 38t-55.5 14 q-30 0 -56 -14t-45.5 -38t-30.5 -56.5t-11 -69.5v-287z" />
<glyph unicode="&#xe3;" horiz-adv-x="807" d="M106 322v71q0 149 84 254q44 53 93.5 79t109.5 26q82 0 144 -74v182q0 37 -11.5 69.5t-31 56.5t-46 38t-55.5 14q-95 0 -162 -84q-67 -82 -67 -202h-58v323h58v-108q85 143 229 143q118 0 201 -104q86 -106 86 -254v-680h57v-72h-157v121q-12 -35 -31 -64t-44 -50 t-53.5 -32.5t-58.5 -11.5q-60 0 -109.5 27t-93.5 80q-84 105 -84 252zM152 1223q65 116 178 116q50 0 104 -32q26 -19 44.5 -27t29.5 -8q60 0 90 59l37 -31q-32 -58 -77 -88t-103 -30q-25 0 -49 9t-52 26q-26 17 -45.5 26.5t-32.5 9.5q-58 0 -90 -59zM250 215 q0 -37 11 -69.5t30.5 -57t45.5 -39t56 -14.5q29 0 55.5 14.5t46 39t31 57t11.5 69.5v287q0 37 -11.5 69.5t-31 56.5t-46 38t-55.5 14q-30 0 -56 -14t-45.5 -38t-30.5 -56.5t-11 -69.5v-287z" />
<glyph unicode="&#xe4;" horiz-adv-x="807" d="M106 322v71q0 149 84 254q44 53 93.5 79t109.5 26q82 0 144 -74v182q0 37 -11.5 69.5t-31 56.5t-46 38t-55.5 14q-95 0 -162 -84q-67 -82 -67 -202h-58v323h58v-108q85 143 229 143q118 0 201 -104q86 -106 86 -254v-680h57v-72h-157v121q-12 -35 -31 -64t-44 -50 t-53.5 -32.5t-58.5 -11.5q-60 0 -109.5 27t-93.5 80q-84 105 -84 252zM207 1272q0 37 20.5 63.5t51.5 26.5q30 0 50.5 -26t20.5 -64q0 -37 -20.5 -63.5t-50.5 -26.5q-15 0 -28.5 7.5t-23 20t-15 28.5t-5.5 34zM250 215q0 -37 11 -69.5t30.5 -57t45.5 -39t56 -14.5 q29 0 55.5 14.5t46 39t31 57t11.5 69.5v287q0 37 -11.5 69.5t-31 56.5t-46 38t-55.5 14q-30 0 -56 -14t-45.5 -38t-30.5 -56.5t-11 -69.5v-287zM436 1272q0 37 20.5 63.5t51.5 26.5t51.5 -26t20.5 -64q0 -37 -20.5 -63.5t-51.5 -26.5q-15 0 -28.5 7.5t-23 20t-15 28.5 t-5.5 34z" />
<glyph unicode="&#xe5;" horiz-adv-x="807" d="M106 322v71q0 149 84 254q44 53 93.5 79t109.5 26q82 0 144 -74v182q0 37 -11.5 69.5t-31 56.5t-46 38t-55.5 14q-95 0 -162 -84q-67 -82 -67 -202h-58v323h58v-108q85 143 229 143q118 0 201 -104q86 -106 86 -254v-680h57v-72h-157v121q-12 -35 -31 -64t-44 -50 t-53.5 -32.5t-58.5 -11.5q-60 0 -109.5 27t-93.5 80q-84 105 -84 252zM236 1380q0 41 12 77t33.5 62.5t50 42t61.5 15.5q32 0 61 -15.5t50.5 -42t34 -62.5t12.5 -77t-12.5 -77t-34 -63t-50.5 -42.5t-61 -15.5q-33 0 -61.5 15.5t-50 42.5t-33.5 63t-12 77zM250 215 q0 -37 11 -69.5t30.5 -57t45.5 -39t56 -14.5q29 0 55.5 14.5t46 39t31 57t11.5 69.5v287q0 37 -11.5 69.5t-31 56.5t-46 38t-55.5 14q-30 0 -56 -14t-45.5 -38t-30.5 -56.5t-11 -69.5v-287zM293 1380q0 -26 7.5 -49t21 -40.5t32 -27.5t39.5 -10t39.5 10t32 27.5t21.5 40.5 t8 49t-8 49t-21.5 40t-32 26.5t-39.5 9.5t-39.5 -9.5t-32 -26.5t-21 -40t-7.5 -49z" />
<glyph unicode="&#xe6;" horiz-adv-x="1214" d="M106 322v71q0 149 84 254q44 53 93.5 79t109.5 26q82 0 144 -74v182q0 37 -11.5 69.5t-31 56.5t-46 38t-55.5 14q-95 0 -162 -84q-67 -82 -67 -202h-58v323h58v-108q85 143 229 143q71 0 124.5 -37t90.5 -115q35 78 89 115t126 37q118 0 201 -104q86 -106 86 -254v-179 h-430v-358q0 -75 43 -127q44 -53 102 -53q96 0 160 86q68 83 68 201h57v-322h-57v106q-44 -71 -100.5 -107t-129.5 -36q-145 0 -215 154q-73 -154 -215 -154q-60 0 -109.5 27t-93.5 80q-84 105 -84 252zM250 215q0 -37 11 -69.5t30.5 -57t45.5 -39t56 -14.5q29 0 55.5 14.5 t46 39t31 57t11.5 69.5v287q0 37 -11.5 69.5t-31 56.5t-46 38t-55.5 14q-30 0 -56 -14t-45.5 -38t-30.5 -56.5t-11 -69.5v-287zM680 645h287v215q0 37 -11.5 69.5t-31 56.5t-46 38t-55.5 14q-30 0 -56 -14t-45.5 -38t-30.5 -56.5t-11 -69.5v-215z" />
<glyph unicode="&#xe7;" d="M106 322v430q0 151 84 254q84 104 203 104q144 0 230 -143v108h57v-323h-57q0 60 -18 110t-50 92q-68 84 -162 84q-30 0 -56 -14t-45.5 -38t-30.5 -56.5t-11 -69.5v-645q0 -37 11 -69.5t30.5 -57t45.5 -39t56 -14.5q95 0 162 86q32 42 50 92t18 109h57v-322h-57v106 q-82 -131 -211 -143l-9 -53q47 0 78 -37t31 -96q0 -27 -8 -51.5t-22.5 -43t-33.5 -29.5t-40 -11h-86l14 71h72q20 0 33.5 19t13.5 45q0 32 -11.5 46.5t-35.5 14.5h-72l18 129q-107 20 -178 119q-70 101 -70 236z" />
<glyph unicode="&#xe8;" d="M106 322v430q0 151 84 254q84 104 203 104q118 0 201 -104q86 -106 86 -254v-179h-430v-358q0 -37 11 -69.5t30.5 -57t45.5 -39t56 -14.5q95 0 162 86q32 42 50 92t18 109h57v-322h-57v106q-88 -143 -230 -143q-60 0 -109.5 27t-93.5 80q-84 105 -84 252zM236 1397h86 l100 -215h-57zM250 645h287v215q0 37 -11.5 69.5t-31 56.5t-46 38t-55.5 14q-30 0 -56 -14t-45.5 -38t-30.5 -56.5t-11 -69.5v-215z" />
<glyph unicode="&#xe9;" d="M106 322v430q0 151 84 254q84 104 203 104q118 0 201 -104q86 -106 86 -254v-179h-430v-358q0 -37 11 -69.5t30.5 -57t45.5 -39t56 -14.5q95 0 162 86q32 42 50 92t18 109h57v-322h-57v106q-88 -143 -230 -143q-60 0 -109.5 27t-93.5 80q-84 105 -84 252zM250 645h287 v215q0 37 -11.5 69.5t-31 56.5t-46 38t-55.5 14q-30 0 -56 -14t-45.5 -38t-30.5 -56.5t-11 -69.5v-215zM365 1182l100 215h86l-129 -215h-57z" />
<glyph unicode="&#xea;" d="M106 322v430q0 151 84 254q84 104 203 104q118 0 201 -104q86 -106 86 -254v-179h-430v-358q0 -37 11 -69.5t30.5 -57t45.5 -39t56 -14.5q95 0 162 86q32 42 50 92t18 109h57v-322h-57v106q-88 -143 -230 -143q-60 0 -109.5 27t-93.5 80q-84 105 -84 252zM236 1182 l114 215h86l115 -215h-86l-72 135l-71 -135h-86zM250 645h287v215q0 37 -11.5 69.5t-31 56.5t-46 38t-55.5 14q-30 0 -56 -14t-45.5 -38t-30.5 -56.5t-11 -69.5v-215z" />
<glyph unicode="&#xeb;" d="M106 322v430q0 151 84 254q84 104 203 104q118 0 201 -104q86 -106 86 -254v-179h-430v-358q0 -37 11 -69.5t30.5 -57t45.5 -39t56 -14.5q95 0 162 86q32 42 50 92t18 109h57v-322h-57v106q-88 -143 -230 -143q-60 0 -109.5 27t-93.5 80q-84 105 -84 252zM207 1272 q0 37 20.5 63.5t51.5 26.5q30 0 50.5 -26t20.5 -64q0 -37 -20.5 -63.5t-50.5 -26.5q-15 0 -28.5 7.5t-23 20t-15 28.5t-5.5 34zM250 645h287v215q0 37 -11.5 69.5t-31 56.5t-46 38t-55.5 14q-30 0 -56 -14t-45.5 -38t-30.5 -56.5t-11 -69.5v-215zM436 1272q0 37 20.5 63.5 t51.5 26.5t51.5 -26t20.5 -64q0 -37 -20.5 -63.5t-51.5 -26.5q-15 0 -28.5 7.5t-23 20t-15 28.5t-5.5 34z" />
<glyph unicode="&#xec;" horiz-adv-x="397" d="M12 1397h86l101 -215h-58zM70 0v72h57v932h-57v71h200v-1003h58v-72h-258z" />
<glyph unicode="&#xed;" horiz-adv-x="397" d="M70 0v72h57v932h-57v71h200v-1003h58v-72h-258zM141 1182l101 215h86l-129 -215h-58z" />
<glyph unicode="&#xee;" horiz-adv-x="397" d="M12 1182l115 215h86l115 -215h-86l-72 135l-72 -135h-86zM70 0v72h57v932h-57v71h200v-1003h58v-72h-258z" />
<glyph unicode="&#xef;" horiz-adv-x="397" d="M4 1272q0 37 20.5 63.5t51.5 26.5q29 0 50 -26t21 -64q0 -18 -5.5 -34.5t-15.5 -29t-22.5 -19.5t-27.5 -7t-28.5 7.5t-23 20t-15 28.5t-5.5 34zM70 0v72h57v932h-57v71h200v-1003h58v-72h-258zM233 1272q0 37 20.5 63.5t51.5 26.5q29 0 50.5 -26t21.5 -64q0 -18 -6 -34.5 t-15.5 -29t-22.5 -19.5t-28 -7t-28.5 7.5t-23 20t-15 28.5t-5.5 34z" />
<glyph unicode="&#xf0;" d="M106 322v430q0 75 21 138t63 116q44 52 93.5 78t109.5 26q85 0 144 -74v146q0 37 -11.5 70t-31 57.5t-46 38.5t-55.5 14h-86v-143h-57v215h143q117 0 201 -107q86 -106 86 -252v-753q0 -148 -86 -252q-84 -107 -201 -107q-60 0 -109.5 27t-93.5 80q-84 105 -84 252z M250 215q0 -37 11 -69.5t30.5 -57t45.5 -39t56 -14.5q29 0 55.5 14.5t46 39t31 57t11.5 69.5v645q0 37 -11.5 69.5t-31 56.5t-46 38t-55.5 14q-30 0 -56 -14t-45.5 -38t-30.5 -56.5t-11 -69.5v-645z" />
<glyph unicode="&#xf1;" horiz-adv-x="827" d="M70 0v72h57v932h-57v71h157v-123q12 36 31 65.5t44 50t53.5 31.5t58.5 11q119 0 202 -104q84 -105 84 -254v-680h58v-72h-258v72h57v788q0 37 -11 69.5t-30.5 56.5t-45.5 38t-56 14q-29 0 -55.5 -14t-46 -38t-31 -56.5t-11.5 -69.5v-788h58v-72h-258zM174 1223 q65 116 176 116q25 0 52 -7.5t53 -24.5q28 -19 45.5 -27t29.5 -8q56 0 91 59l34 -31q-32 -58 -76.5 -88t-101.5 -30q-47 0 -100 35q-28 17 -47 26.5t-33 9.5q-57 0 -90 -59z" />
<glyph unicode="&#xf2;" d="M106 322v430q0 151 84 254q84 104 203 104q118 0 201 -104q86 -106 86 -254v-430q0 -150 -86 -254q-83 -105 -201 -105q-119 0 -203 105q-43 52 -63.5 115.5t-20.5 138.5zM236 1397h86l100 -215h-57zM250 215q0 -37 11 -69.5t30.5 -57t45.5 -39t56 -14.5q29 0 55.5 14.5 t46 39t31 57t11.5 69.5v645q0 37 -11.5 69.5t-31 56.5t-46 38t-55.5 14q-30 0 -56 -14t-45.5 -38t-30.5 -56.5t-11 -69.5v-645z" />
<glyph unicode="&#xf3;" d="M106 322v430q0 151 84 254q84 104 203 104q118 0 201 -104q86 -106 86 -254v-430q0 -150 -86 -254q-83 -105 -201 -105q-119 0 -203 105q-43 52 -63.5 115.5t-20.5 138.5zM250 215q0 -37 11 -69.5t30.5 -57t45.5 -39t56 -14.5q29 0 55.5 14.5t46 39t31 57t11.5 69.5v645 q0 37 -11.5 69.5t-31 56.5t-46 38t-55.5 14q-30 0 -56 -14t-45.5 -38t-30.5 -56.5t-11 -69.5v-645zM365 1182l100 215h86l-129 -215h-57z" />
<glyph unicode="&#xf4;" d="M106 322v430q0 151 84 254q84 104 203 104q118 0 201 -104q86 -106 86 -254v-430q0 -150 -86 -254q-83 -105 -201 -105q-119 0 -203 105q-43 52 -63.5 115.5t-20.5 138.5zM236 1182l114 215h86l115 -215h-86l-72 135l-71 -135h-86zM250 215q0 -37 11 -69.5t30.5 -57 t45.5 -39t56 -14.5q29 0 55.5 14.5t46 39t31 57t11.5 69.5v645q0 37 -11.5 69.5t-31 56.5t-46 38t-55.5 14q-30 0 -56 -14t-45.5 -38t-30.5 -56.5t-11 -69.5v-645z" />
<glyph unicode="&#xf5;" d="M106 322v430q0 151 84 254q84 104 203 104q118 0 201 -104q86 -106 86 -254v-430q0 -150 -86 -254q-83 -105 -201 -105q-119 0 -203 105q-43 52 -63.5 115.5t-20.5 138.5zM152 1223q65 116 178 116q50 0 104 -32q26 -19 44.5 -27t29.5 -8q60 0 90 59l37 -31 q-32 -58 -77 -88t-103 -30q-25 0 -49 9t-52 26q-26 17 -45.5 26.5t-32.5 9.5q-58 0 -90 -59zM250 215q0 -37 11 -69.5t30.5 -57t45.5 -39t56 -14.5q29 0 55.5 14.5t46 39t31 57t11.5 69.5v645q0 37 -11.5 69.5t-31 56.5t-46 38t-55.5 14q-30 0 -56 -14t-45.5 -38 t-30.5 -56.5t-11 -69.5v-645z" />
<glyph unicode="&#xf6;" d="M106 322v430q0 151 84 254q84 104 203 104q118 0 201 -104q86 -106 86 -254v-430q0 -150 -86 -254q-83 -105 -201 -105q-119 0 -203 105q-43 52 -63.5 115.5t-20.5 138.5zM207 1272q0 37 20.5 63.5t51.5 26.5q30 0 50.5 -26t20.5 -64q0 -37 -20.5 -63.5t-50.5 -26.5 q-15 0 -28.5 7.5t-23 20t-15 28.5t-5.5 34zM250 215q0 -37 11 -69.5t30.5 -57t45.5 -39t56 -14.5q29 0 55.5 14.5t46 39t31 57t11.5 69.5v645q0 37 -11.5 69.5t-31 56.5t-46 38t-55.5 14q-30 0 -56 -14t-45.5 -38t-30.5 -56.5t-11 -69.5v-645zM436 1272q0 37 20.5 63.5 t51.5 26.5t51.5 -26t20.5 -64q0 -37 -20.5 -63.5t-51.5 -26.5q-15 0 -28.5 7.5t-23 20t-15 28.5t-5.5 34z" />
<glyph unicode="&#xf7;" horiz-adv-x="641" d="M106 483v109h431v-109h-431zM236 197q0 22 6.5 41.5t18.5 34.5t27.5 23.5t33.5 8.5t33.5 -8.5t27 -23.5t18.5 -34.5t7 -41.5q0 -23 -7 -42.5t-18.5 -33.5t-27 -22.5t-33.5 -8.5q-36 0 -61 31t-25 76zM236 879q0 22 6.5 41.5t18.5 33.5t27.5 22.5t33.5 8.5t33.5 -8.5 t27 -22.5t18.5 -33.5t7 -41.5q0 -23 -7 -42.5t-18.5 -34.5t-27 -23.5t-33.5 -8.5t-33.5 8.5t-27.5 23.5t-18.5 34.5t-6.5 42.5z" />
<glyph unicode="&#xf8;" d="M35 35l94 145q-23 65 -23 142v430q0 151 84 254q84 104 203 104q157 0 242 -162l82 127l35 -37l-97 -143q25 -66 25 -143v-430q0 -150 -86 -254q-83 -105 -201 -105q-158 0 -241 164l-84 -127zM250 215q0 -37 11 -69.5t30.5 -57t45.5 -39t56 -14.5q29 0 55.5 14.5t46 39 t31 57t11.5 69.5v496l-287 -435v-61zM250 365l287 434v61q0 37 -11.5 69.5t-31 56.5t-46 38t-55.5 14q-30 0 -56 -14t-45.5 -38t-30.5 -56.5t-11 -69.5v-495z" />
<glyph unicode="&#xf9;" horiz-adv-x="827" d="M70 1004v71h200v-860q0 -37 11.5 -69.5t31 -57t46 -39t55.5 -14.5q30 0 56 14.5t45.5 39t30.5 57t11 69.5v789h-57v71h200v-1003h58v-72h-158v121q-12 -35 -31 -64t-43 -50t-52.5 -32.5t-59.5 -11.5q-116 0 -203 107q-84 105 -84 252v682h-57zM256 1397h86l100 -215h-57z " />
<glyph unicode="&#xfa;" horiz-adv-x="827" d="M70 1004v71h200v-860q0 -37 11.5 -69.5t31 -57t46 -39t55.5 -14.5q30 0 56 14.5t45.5 39t30.5 57t11 69.5v789h-57v71h200v-1003h58v-72h-158v121q-12 -35 -31 -64t-43 -50t-52.5 -32.5t-59.5 -11.5q-116 0 -203 107q-84 105 -84 252v682h-57zM385 1182l100 215h86 l-129 -215h-57z" />
<glyph unicode="&#xfb;" horiz-adv-x="827" d="M70 1004v71h200v-860q0 -37 11.5 -69.5t31 -57t46 -39t55.5 -14.5q30 0 56 14.5t45.5 39t30.5 57t11 69.5v789h-57v71h200v-1003h58v-72h-158v121q-12 -35 -31 -64t-43 -50t-52.5 -32.5t-59.5 -11.5q-116 0 -203 107q-84 105 -84 252v682h-57zM256 1182l115 215h86 l114 -215h-86l-71 135l-72 -135h-86z" />
<glyph unicode="&#xfc;" horiz-adv-x="827" d="M70 1004v71h200v-860q0 -37 11.5 -69.5t31 -57t46 -39t55.5 -14.5q30 0 56 14.5t45.5 39t30.5 57t11 69.5v789h-57v71h200v-1003h58v-72h-158v121q-12 -35 -31 -64t-43 -50t-52.5 -32.5t-59.5 -11.5q-116 0 -203 107q-84 105 -84 252v682h-57zM227 1272q0 18 6 34.5 t15.5 29t22.5 19.5t28 7q31 0 51.5 -26t20.5 -64q0 -37 -20.5 -63.5t-51.5 -26.5q-15 0 -28 7.5t-22.5 20t-15.5 28.5t-6 34zM457 1272q0 18 5.5 34.5t15.5 29t22.5 19.5t27.5 7q31 0 51.5 -26t20.5 -64q0 -37 -20.5 -63.5t-51.5 -26.5q-15 0 -27.5 7.5t-22.5 20t-15.5 28.5 t-5.5 34z" />
<glyph unicode="&#xfd;" horiz-adv-x="807" d="M70 1004v71h200v-860q0 -37 11.5 -69.5t31 -57t46 -39t55.5 -14.5q30 0 56 14.5t45.5 39t30.5 57t11 69.5v789h-57v71h200v-1112q0 -147 -84 -252q-42 -52 -92 -79t-110 -27v71q30 0 56 14.5t45.5 39t30.5 57.5t11 70v182q-28 -37 -64.5 -56.5t-78.5 -19.5 q-116 0 -203 107q-84 105 -84 252v682h-57zM385 1182l100 215h86l-129 -215h-57z" />
<glyph unicode="&#xfe;" horiz-adv-x="807" d="M70 -287h57v1649h-57v72h258v-72h-58v-326q59 74 144 74q119 0 202 -104q84 -105 84 -254v-430q0 -149 -84 -252q-84 -107 -202 -107q-42 0 -78.5 19.5t-65.5 56.5v-326h58v-71h-258v71zM270 215q0 -37 11.5 -69.5t31 -57t46 -39t55.5 -14.5q30 0 56 14.5t45.5 39 t30.5 57t11 69.5v645q0 37 -11 69.5t-30.5 56.5t-45.5 38t-56 14q-29 0 -55.5 -14t-46 -38t-31 -56.5t-11.5 -69.5v-645z" />
<glyph unicode="&#xff;" horiz-adv-x="807" d="M70 1004v71h200v-860q0 -37 11.5 -69.5t31 -57t46 -39t55.5 -14.5q30 0 56 14.5t45.5 39t30.5 57t11 69.5v789h-57v71h200v-1112q0 -147 -84 -252q-42 -52 -92 -79t-110 -27v71q30 0 56 14.5t45.5 39t30.5 57.5t11 70v182q-28 -37 -64.5 -56.5t-78.5 -19.5 q-116 0 -203 107q-84 105 -84 252v682h-57zM227 1272q0 18 6 34.5t15.5 29t22.5 19.5t28 7q31 0 51.5 -26t20.5 -64q0 -37 -20.5 -63.5t-51.5 -26.5q-15 0 -28 7.5t-22.5 20t-15.5 28.5t-6 34zM457 1272q0 18 5.5 34.5t15.5 29t22.5 19.5t27.5 7q31 0 51.5 -26t20.5 -64 q0 -37 -20.5 -63.5t-51.5 -26.5q-15 0 -27.5 7.5t-22.5 20t-15.5 28.5t-5.5 34z" />
<glyph unicode="&#x152;" horiz-adv-x="1157" d="M106 322v788q0 75 21 138t63 116q44 53 93.5 78.5t109.5 25.5q31 0 59.5 -11t53 -31.5t43.5 -49.5t31 -65v123h473v-144h-58v72h-315v-610h172v71h57v-215h-57v72h-172v-608h315v71h58v-143h-473v121q-12 -35 -31 -64t-43.5 -50t-53 -32.5t-59.5 -11.5q-60 0 -109.5 27 t-93.5 80q-84 105 -84 252zM250 215q0 -37 11 -69.5t30.5 -57t45.5 -39t56 -14.5q29 0 55.5 14.5t46 39t31 57t11.5 69.5v1004q0 37 -11.5 69.5t-31 56.5t-46 38t-55.5 14q-30 0 -56 -14t-45.5 -38t-30.5 -56.5t-11 -69.5v-1004z" />
<glyph unicode="&#x153;" horiz-adv-x="1214" d="M106 322v430q0 151 84 254q84 104 203 104q71 0 124.5 -37t90.5 -115q35 78 89 115t126 37q118 0 201 -104q86 -106 86 -254v-179h-430v-358q0 -37 11 -69.5t30.5 -57t45.5 -39t56 -14.5q95 0 162 86q32 42 50 92t18 109h57v-322h-57v106q-44 -71 -100.5 -107t-129.5 -36 q-145 0 -215 154q-73 -154 -215 -154q-119 0 -203 105q-43 52 -63.5 115.5t-20.5 138.5zM250 215q0 -37 11 -69.5t30.5 -57t45.5 -39t56 -14.5q29 0 55.5 14.5t46 39t31 57t11.5 69.5v645q0 37 -11.5 69.5t-31 56.5t-46 38t-55.5 14q-30 0 -56 -14t-45.5 -38t-30.5 -56.5 t-11 -69.5v-645zM680 645h287v215q0 37 -11.5 69.5t-31 56.5t-46 38t-55.5 14q-30 0 -56 -14t-45.5 -38t-30.5 -56.5t-11 -69.5v-215z" />
<glyph unicode="&#x178;" horiz-adv-x="756" d="M35 1362v72h272v-72h-57l172 -539l176 539h-57v72h182v-72h-57l-215 -637v-653h57v-72h-258v72h57v624l-215 666h-57zM193 1630q0 37 20 63.5t51 26.5t51.5 -26t20.5 -64q0 -37 -20.5 -63.5t-51.5 -26.5q-15 0 -28 7.5t-22.5 20t-15 28.5t-5.5 34zM422 1630 q0 37 20.5 63.5t51.5 26.5t51 -26t20 -64q0 -37 -20 -63.5t-51 -26.5q-15 0 -28.5 7.5t-23 20t-15 28.5t-5.5 34z" />
<glyph unicode="&#x2c6;" horiz-adv-x="526" d="M106 1219l115 215h86l115 -215h-86l-72 135l-71 -135h-87z" />
<glyph unicode="&#x2dc;" horiz-adv-x="694" d="M106 1315q65 119 177 119q50 0 104 -35q26 -17 45.5 -25t30.5 -8q29 0 51.5 14t38.5 45l37 -30q-32 -60 -77.5 -89.5t-102.5 -29.5q-25 0 -50 8t-53 27q-25 17 -44 26t-32 9q-57 0 -92 -60z" />
<glyph unicode="&#x2000;" horiz-adv-x="877" />
<glyph unicode="&#x2001;" horiz-adv-x="1755" />
<glyph unicode="&#x2002;" horiz-adv-x="877" />
<glyph unicode="&#x2003;" horiz-adv-x="1755" />
<glyph unicode="&#x2004;" horiz-adv-x="585" />
<glyph unicode="&#x2005;" horiz-adv-x="438" />
<glyph unicode="&#x2006;" horiz-adv-x="292" />
<glyph unicode="&#x2007;" horiz-adv-x="292" />
<glyph unicode="&#x2008;" horiz-adv-x="219" />
<glyph unicode="&#x2009;" horiz-adv-x="351" />
<glyph unicode="&#x200a;" horiz-adv-x="97" />
<glyph unicode="&#x2010;" horiz-adv-x="641" d="M106 483v109h431v-109h-431z" />
<glyph unicode="&#x2011;" horiz-adv-x="641" d="M106 483v109h431v-109h-431z" />
<glyph unicode="&#x2012;" horiz-adv-x="641" d="M106 483v109h431v-109h-431z" />
<glyph unicode="&#x2013;" horiz-adv-x="555" d="M106 483v109h345v-109h-345z" />
<glyph unicode="&#x2014;" d="M106 483v109h574v-109h-574z" />
<glyph unicode="&#x2018;" horiz-adv-x="393" d="M106 1249q0 156 95 275l20 -41q-53 -65 -53 -148q0 -8 1.5 -13t4.5 -11q12 6 27 6q18 0 34 -8.5t28 -23t19 -34t7 -41.5q0 -21 -7 -40.5t-19 -34.5t-27.5 -24t-32.5 -9q-23 0 -40.5 12t-30.5 32t-19.5 47t-6.5 56z" />
<glyph unicode="&#x2019;" horiz-adv-x="393" d="M106 1415q0 22 7 41.5t19 34.5t28 24t33 9q21 0 39 -12t30.5 -32.5t19.5 -47.5t7 -56q0 -78 -24 -146t-72 -128l-21 39q53 65 53 149q0 6 -1 12t-3 11q-8 -2 -13.5 -3t-14.5 -1q-17 0 -33 8.5t-28 23t-19 34t-7 40.5z" />
<glyph unicode="&#x201a;" horiz-adv-x="393" d="M106 106q0 22 7 41.5t19 34.5t28 24t33 9q21 0 39 -12t30.5 -32.5t19.5 -47t7 -55.5q0 -79 -24 -147t-72 -128l-21 41q53 65 53 148q0 8 -1 13t-3 11q-8 -3 -13.5 -4.5t-14.5 -1.5q-17 0 -33 8.5t-28 23t-19 34t-7 40.5z" />
<glyph unicode="&#x201c;" horiz-adv-x="651" d="M106 1249q0 156 95 275l20 -41q-53 -65 -53 -148q0 -8 1.5 -13t4.5 -11q12 6 27 6q18 0 34 -8.5t28 -23t19 -34t7 -41.5q0 -21 -7 -40.5t-19 -34.5t-27.5 -24t-32.5 -9q-23 0 -40.5 12t-30.5 32t-19.5 47t-6.5 56zM365 1249q0 157 94 275l20 -41q-53 -65 -53 -148 q0 -8 1.5 -13t4.5 -11q12 6 27 6q18 0 34 -8.5t28 -23t19 -34t7 -41.5q0 -21 -7 -40.5t-19 -34.5t-27.5 -24t-32.5 -9q-23 0 -40.5 12t-30 32t-19 47t-6.5 56z" />
<glyph unicode="&#x201d;" horiz-adv-x="651" d="M106 1415q0 22 7 41.5t19 34.5t28 24t33 9q21 0 39 -12t30.5 -32.5t19.5 -47.5t7 -56q0 -78 -24 -146t-72 -128l-21 39q53 65 53 149q0 6 -1 12t-3 11q-8 -2 -13.5 -3t-14.5 -1q-17 0 -33 8.5t-28 23t-19 34t-7 40.5zM365 1415q0 22 7 41.5t19 34.5t27.5 24t32.5 9 q21 0 39 -12t30.5 -32.5t19.5 -47.5t7 -56q0 -78 -24 -146t-72 -128l-21 39q53 65 53 149q0 6 -1 12t-3 11q-8 -2 -13.5 -3t-14.5 -1q-17 0 -32.5 8.5t-27.5 23t-19 34t-7 40.5z" />
<glyph unicode="&#x201e;" horiz-adv-x="651" d="M106 106q0 22 7 41.5t19 34.5t28 24t33 9q21 0 39 -12t30.5 -32.5t19.5 -47t7 -55.5q0 -79 -24 -147t-72 -128l-21 41q53 65 53 148q0 8 -1 13t-3 11q-8 -3 -13.5 -4.5t-14.5 -1.5q-17 0 -33 8.5t-28 23t-19 34t-7 40.5zM365 106q0 22 7 41.5t19 34.5t27.5 24t32.5 9 q21 0 39 -12t30.5 -32.5t19.5 -47t7 -55.5q0 -79 -24 -147t-72 -128l-21 41q53 65 53 148q0 8 -1 13t-3 11q-8 -3 -13.5 -4.5t-14.5 -1.5q-17 0 -32.5 8.5t-27.5 23t-19 34t-7 40.5z" />
<glyph unicode="&#x2022;" horiz-adv-x="641" d="M106 537q0 55 15.5 103.5t46.5 86.5q65 80 154 80q43 0 81.5 -20t69.5 -60q31 -38 47.5 -86.5t16.5 -103.5q0 -54 -16.5 -102.5t-47.5 -86.5q-31 -40 -69.5 -60t-81.5 -20q-89 0 -154 80q-31 38 -46.5 86.5t-15.5 102.5z" />
<glyph unicode="&#x2026;" horiz-adv-x="956" d="M106 106q0 22 7 42t18.5 35t27.5 23.5t34 8.5t33.5 -8.5t27 -23.5t18.5 -35t7 -42q0 -21 -7 -40.5t-18.5 -34t-27 -23t-33.5 -8.5t-34 8.5t-27.5 23t-18.5 34t-7 40.5zM393 106q0 22 7 42t18.5 35t27 23.5t33.5 8.5t33.5 -8.5t27 -23.5t18.5 -35t7 -42q0 -21 -7 -40.5 t-18.5 -34t-27 -23t-33.5 -8.5t-33.5 8.5t-27 23t-18.5 34t-7 40.5zM680 106q0 22 7 42t18.5 35t27 23.5t33.5 8.5t33.5 -8.5t27 -23.5t18.5 -35t7 -42q0 -21 -7 -40.5t-18.5 -34t-27 -23t-33.5 -8.5t-33.5 8.5t-27 23t-18.5 34t-7 40.5z" />
<glyph unicode="&#x202f;" horiz-adv-x="351" />
<glyph unicode="&#x2039;" horiz-adv-x="549" d="M106 541v108l287 234l47 -88l-243 -201l243 -197l-47 -90z" />
<glyph unicode="&#x203a;" horiz-adv-x="549" d="M106 397l244 197l-244 201l48 88l286 -234v-108l-286 -234z" />
<glyph unicode="&#x205f;" horiz-adv-x="438" />
<glyph unicode="&#x20ac;" horiz-adv-x="893" d="M70 537v108h143v143h-143v107h143v215q0 151 84 254q42 53 93 78.5t110 25.5q144 0 229 -143v109h57v-324h-57q0 118 -65 203q-70 84 -164 84q-29 0 -55.5 -14t-46 -38t-31 -56.5t-11.5 -69.5v-324h287v-107h-287v-143h287v-108h-287v-322q0 -37 11.5 -69.5t31 -57 t46 -39t55.5 -14.5q96 0 164 86q65 83 65 201h57v-322h-57v106q-87 -143 -229 -143q-59 0 -110 26t-93 79q-43 52 -63.5 115.5t-20.5 138.5v215h-143z" />
<glyph unicode="&#x2122;" horiz-adv-x="1014" d="M106 1343v91h469v-54h-34l110 -514l109 514h-33v54h180v-54h-28v-628h28v-54h-143v54h29v569l-134 -623h-61l-133 623v-569h29v-54h-101v54h29v628h-123v-628h29v-54h-144v54h29v628h-63v-37h-44z" />
<glyph unicode="&#x25fc;" horiz-adv-x="1075" d="M0 0v1075h1075v-1075h-1075z" />
</font>
</defs>
</svg>
