<svg version="1.2" xmlns="http://www.w3.org/2000/svg" viewBox="0 0 35 35" width="35" height="35">
	<title>Dice, Kick</title>
	<defs>
		<clipPath clipPathUnits="userSpaceOnUse" id="cp1">
			<path d="m-1 40.16h34.04v34.47h-34.04z"/>
		</clipPath>
		<clipPath clipPathUnits="userSpaceOnUse" id="cp2">
			<path d="m39.74 40.16h34.04v34.47h-34.04z"/>
		</clipPath>
		<clipPath clipPathUnits="userSpaceOnUse" id="cp3">
			<path d="m1.22 1h31.6v32.53h-31.6z"/>
		</clipPath>
	</defs>
	<style>
		.s0 { fill: #ffffff } 
	</style>
	<g id="Layer_1-2">
		<g id="Clip-Path" clip-path="url(#cp1)">
			<g>
				<path class="s0" d="m24 47.6q-2 3.1-4 6.3 0 0 0 0 3.6 0.3 7.4 0.5-0.2 0.1-0.3 0.3c-1.6 1.7-3.2 3.4-4.8 5.1-1 1.1-1.9 2.1-2.9 3.1-1 0.9-2.1 1.9-3.1 2.8-0.6 0.6-1.3 1.2-1.9 1.8q-1.7 1.8-3.5 3.6-0.9 1-1.9 2 2 0.8 4.1 1.1c0.8 0.1 1.6 0.2 2.4 0.3q1.6 0.2 3.3 0c3-0.4 5.7-1.6 8-3.5q2.2-1.7 3.6-4.1 2.3-3.4 2.6-7.5 0.2-2.2-0.3-4.4 0 0 0-0.1 0-0.2-0.1-0.4-0.1-0.2-0.1-0.4-0.4-1.2-0.8-2.3-0.3-0.9-0.6-1.7-0.8-1.9-2.1-3.6-1.3-1.5-2.9-2.7c-0.5 1.3-1.3 2.6-2 3.8"/>
				<path class="s0" d="m-0.7 60.9c0 0 0 0.1 0 0.1q0.2 0.7 0.3 1.3 0.1 0.1 0.1 0.1 0.9 3.3 3.1 6 1.3 1.5 2.8 2.7 0.4-0.5 0.7-1.1c0.9-1.4 1.8-2.8 2.7-4.3 0.7-1.2 1.4-2.4 2.1-3.7q0.1-0.1 0.2-0.4c-3-0.3-5.9-0.6-8.8-0.7q0 0 0 0 0.2-0.3 0.5-0.5 1.6-1.4 3.1-2.9 1-0.9 1.9-1.9c1.8-1.9 3.6-3.6 5.7-5 0.5-0.3 1-0.6 1.5-0.9 0.2-0.1 0.3-0.3 0.5-0.5 1.3-1.2 2.6-2.5 4-3.7 1-0.9 2.1-1.8 3.3-2.5q0.5-0.3 1-0.4 0 0 0.1-0.1-1.7-0.9-3.6-1.3c-0.5-0.1-1.1-0.2-1.6-0.3q-0.1 0-0.2 0c-1.2-0.6-2.6-0.8-4-0.7-1.4 0-2.8 0.2-4.2 0.7-1.9 0.6-3.7 1.6-5.3 2.9-0.7 0.6-1.4 1.2-2 1.9-0.7 0.9-1.2 1.8-1.5 2.9q-0.2 0.4-0.1 0.9 0 0.1 0 0.2 0.2 0.3 0.4 0.2 0.1 0 0.1 0c-0.1 0.2-0.1 0.3-0.3 0.4-0.3 0.2-0.6 0.5-0.9 0.8-0.5 0.6-0.9 1.4-1.2 2.1-0.4 1.1-0.6 2.3-0.7 3.5q-0.1 2.1 0.3 4.2"/>
			</g>
		</g>
		<g id="Clip-Path" clip-path="url(#cp2)">
			<g>
				<path class="s0" d="m48.8 67.2q2-3.1 4-6.3 0 0 0-0.1-3.7-0.2-7.4-0.4 0.2-0.1 0.3-0.3c1.6-1.7 3.2-3.4 4.8-5.2 1-1 1.9-2 2.9-3 1-0.9 2.1-1.9 3.1-2.8q1-0.9 1.9-1.8 1.7-1.8 3.5-3.6 0.9-1 1.9-2-2-0.8-4.1-1.1c-0.8-0.1-1.6-0.2-2.4-0.3q-1.6-0.2-3.3 0c-3 0.4-5.7 1.5-8 3.5q-2.2 1.7-3.6 4-2.3 3.5-2.6 7.6-0.2 2.2 0.3 4.4 0 0 0 0.1 0 0.2 0.1 0.4 0.1 0.2 0.1 0.4 0.4 1.2 0.8 2.3 0.3 0.9 0.6 1.7 0.8 1.9 2.1 3.6 1.3 1.5 2.9 2.7c0.5-1.3 1.3-2.6 2-3.8"/>
				<path class="s0" d="m73.5 53.9c0 0 0-0.1 0-0.1q-0.2-0.7-0.3-1.3-0.1-0.1-0.1-0.1-1-3.3-3.1-6-1.3-1.5-2.8-2.7-0.4 0.5-0.7 1.1c-0.9 1.4-1.8 2.8-2.7 4.3-0.7 1.2-1.4 2.4-2.1 3.7q-0.1 0.1-0.2 0.4c3 0.3 5.9 0.6 8.8 0.7q0 0 0 0-0.2 0.3-0.5 0.5-1.6 1.4-3.1 2.9c-0.7 0.6-1.3 1.5-2.1 2-0.7 0.4-1.5 0.8-2.3 1.2-0.5 0.3-1 0.6-1.4 1.2-0.2 0.4-0.4 0.9-0.8 1.3-0.8 0.9-1.5 1.5-2.5 2.1-0.2 0.1-0.4 0.3-0.5 0.5-1.3 1.2-2.6 2.5-4 3.7-1 0.9-2.1 1.8-3.3 2.5q-0.5 0.3-1 0.4-0.1 0-0.1 0.1 1.7 0.8 3.5 1.3c0.6 0.1 1.2 0.2 1.7 0.3q0.1 0 0.1 0c1.3 0.5 2.6 0.7 4 0.7 1.5 0 2.9-0.2 4.2-0.7 2-0.6 3.7-1.6 5.3-2.9 0.8-0.6 1.4-1.2 2-1.9 0.6-0.8 1.2-1.6 1.5-2.6 0.3-0.9 0.9-1.7 1.4-2.6 0.2-0.5 0.4-0.8 0.5-1.3 0.2-1.5 0.7-2.9 0.8-4.5q0.2-2.1-0.3-4.2"/>
			</g>
		</g>
		<g id="Clip-Path" clip-path="url(#cp3)">
			<g>
				<path class="s0" d="m1.2 27.1q0 0.2 0 0.5 0 0.2 0.1 0.4 0 0.2 0.1 0.5l0.1 0.4q0.2 0.9 0.8 1.6c0.3 0.5 0.8 1 1.4 1.4q0.8 0.5 1.7 0.7 0.3 0.1 0.6 0.1 0.1 0.1 0.2 0.1 0.1 0 0.3 0 0.2 0.1 0.4 0.1 0.4 0 0.4 0c0.8 0.1 1.6 0.2 2.5 0.3 3.4 0.3 7.4 0.3 11 0.3q2.8 0 5.6 0h0.2 0.2 0.3q0.1 0 0.2 0 0.2 0 0.5-0.1 0.2 0 0.4-0.1 1-0.3 1.8-0.8 0.8-0.5 1.4-1.3 0.2-0.2 0.3-0.4 0.2-0.2 0.3-0.4v-0.1l0.1-0.1 0.1-0.2 0.1-0.3 0.1-0.2 0.1-0.2v-0.1-0.2q0.1-0.2 0.2-0.5 0-0.2 0-0.4v-0.2-0.1l0.1-0.2v-0.3-0.2-0.3q-0.1-0.4-0.1-0.7 0-1.5-0.1-2.8-0.1-1.1-0.2-2.1c0 0 0-0.2 0-0.3 0-0.4 0-1.2 0-1.3 0 0 0-0.4 0-0.6 0-0.2 0.1-0.4 0.1-0.4q0-0.9 0.1-1.8c0.2-2.1 0.2-4.2 0.2-6.3q0-1.1 0-2.2 0-0.3 0-0.6v-0.1-0.2q0-0.2-0.1-0.4 0-0.1 0-0.3 0-0.2-0.1-0.4c-0.1-0.2-0.1-0.4-0.2-0.7-0.4-0.9-0.9-1.7-1.6-2.3-0.7-0.6-1.5-1.1-2.4-1.3q-0.2-0.1-0.4-0.2-0.2 0-0.3-0.1-0.1 0-0.2-0.1-0.2-0.1-0.5-0.1-0.1 0-0.3-0.1-0.1 0-0.2 0-0.8-0.1-2-0.2c-1.6-0.2-3.4-0.2-5.1-0.2-3.1 0.1-6.2 0.1-9.4 0.4-0.6 0.1-1.2 0.2-1.8 0.2-0.4-0.1-0.8-0.2-1.2-0.1-0.4 0-0.5 0.5-0.9 0.6-0.5 0.2-1 0.1-1.4 0.2-1 0.3-1.9 0.7-2.5 1.5-0.6 0.7-0.4 1.5-0.6 2.3-0.1 0.6-0.4 1-0.4 1.7v10.8q0 2.8 0 5.7 0 1.4 0 2.8zm5.6-3.4c0.1-0.4 0.3-0.8 0.6-1.1q0-0.1 0.1-0.1 0-0.1 0.1-0.1 0 0 0.1-0.1 0 0 0 0v-0.1c0 0 0.1-0.1 0.2-0.1q0-0.1 0-0.1 0.1-0.1 0.3-0.3 0.3-0.4 0.9-0.6 0.5-0.2 1.1-0.2 0.5 0 1 0.2 0.6 0.2 1 0.6 0.4 0.4 0.6 0.8 0 0.1 0 0.2 0.1 0.2 0.1 0.3c0 0 0 0.1 0 0.2q0 0 0 0.1 0.1 0 0.1 0.1 0 0 0.1 0.1 0 0.1 0 0.1 0 0.1 0 0.2c0.2 0.6 0 1.4-0.3 2-0.4 0.6-0.9 1-1.5 1.3-0.3 0.1-0.7 0.1-0.9 0-0.1-0.1-0.2-0.3-0.2-0.4q-0.1 0-0.1 0 0 0 0 0 0 0.1 0 0.2 0 0.3-0.3 0.5c-0.3 0.1-0.6 0.2-0.9 0q-0.2 0-0.3 0-0.1-0.1-0.1-0.1-0.1 0-0.2-0.1-0.1 0-0.1 0-0.1-0.1-0.2-0.1-0.1-0.1-0.1-0.1-0.1-0.1-0.1-0.1c-0.3-0.2-0.6-0.5-0.7-0.9-0.1-0.3-0.1-0.5 0-0.7-0.3-0.4-0.4-1-0.3-1.6m6.4-11.6q0 0.1 0 0.1-0.1 0.1-0.1 0.2c0 0-0.1 0-0.1 0.1q0 0 0 0 0 0 0 0c0 0.1-0.1 0.2-0.1 0.3q0 0 0 0-0.1 0.2-0.2 0.4c-0.2 0.3-0.4 0.6-0.7 0.8q-0.5 0.3-1 0.5-0.6 0.1-1.1 0.1-0.6-0.1-1.1-0.3-0.5-0.3-0.8-0.7 0-0.1-0.1-0.2 0-0.1-0.1-0.2c0 0 0-0.1-0.1-0.2q0 0 0-0.1-0.1 0-0.1-0.1-0.1 0-0.1-0.1 0 0-0.1-0.1 0-0.1-0.1-0.1c-0.3-0.6-0.3-1.4-0.1-2 0.1-0.7 0.5-1.3 1.1-1.7 0.2-0.2 0.6-0.3 0.8-0.2q0.2 0.1 0.3 0.3 0.1 0 0.1-0.1 0 0 0 0 0 0-0.1-0.1c0-0.2 0-0.5 0.2-0.6 0.2-0.2 0.6-0.3 0.9-0.3q0.1 0 0.3 0 0.1 0 0.1 0.1 0.1 0 0.2 0 0.1 0 0.2 0 0 0 0.1 0.1 0.1 0 0.2 0 0.1 0 0.1 0.1c0.3 0.1 0.7 0.4 0.8 0.6 0.2 0.3 0.3 0.5 0.3 0.7 0.3 0.4 0.6 0.9 0.7 1.5 0 0.4-0.1 0.8-0.2 1.2m0.5 5.6q0-0.1 0-0.3 0 0 0-0.1 0-0.1 0-0.2 0-0.1 0-0.1 0-0.1 0-0.2 0-0.1 0.1-0.2 0-0.1 0-0.1c0.1-0.4 0.4-0.7 0.6-0.9 0.3-0.2 0.5-0.3 0.7-0.3q0.5-0.6 1.4-0.7c0.4-0.1 0.9-0.1 1.2 0.1q0.1 0 0.2 0 0.1 0.1 0.1 0.1 0.1 0 0.1 0.1 0 0 0.1 0 0 0 0 0c0 0 0.2 0.1 0.2 0.1q0.1 0 0.1 0 0.2 0.1 0.4 0.1c0.3 0.2 0.6 0.4 0.8 0.7q0.4 0.5 0.5 1 0.2 0.5 0.2 1.1 0 0.5-0.2 1.1-0.3 0.5-0.6 0.8-0.1 0.1-0.2 0.1-0.1 0.1-0.2 0.1c0 0-0.1 0.1-0.2 0.1q0 0.1-0.1 0.1 0 0.1-0.1 0.1 0 0-0.1 0.1 0 0-0.1 0.1 0 0-0.1 0.1c-0.6 0.3-1.3 0.4-2 0.3-0.7-0.2-1.3-0.5-1.8-1.1-0.2-0.2-0.2-0.5-0.2-0.7q0.1-0.3 0.3-0.4 0 0-0.1 0 0-0.1 0-0.1 0 0.1-0.1 0.1-0.3 0.1-0.6-0.1c-0.2-0.2-0.4-0.5-0.3-0.9zm6.9-5.8c-0.2-0.2-0.4-0.5-0.3-0.9q0-0.1 0-0.2 0-0.1 0-0.2 0-0.1 0-0.1 0-0.1 0-0.2 0-0.1 0.1-0.2 0-0.1 0-0.1 0-0.1 0.1-0.2c0.1-0.3 0.3-0.6 0.6-0.8 0.2-0.2 0.4-0.3 0.6-0.3q0.6-0.6 1.5-0.8c0.4 0 0.8 0 1.2 0.2q0.1 0 0.1 0 0.1 0.1 0.2 0.1 0 0 0.1 0.1 0 0 0 0 0 0 0.1 0c0 0 0.1 0.1 0.2 0.1q0 0 0 0 0.2 0.1 0.4 0.2c0.3 0.1 0.6 0.3 0.9 0.6q0.3 0.5 0.5 1 0.1 0.5 0.1 1.1 0 0.5-0.2 1.1c-0.2 0.3-0.4 0.6-0.6 0.8q-0.1 0.1-0.2 0.1-0.1 0.1-0.2 0.1c0 0-0.1 0.1-0.2 0.1q-0.1 0-0.1 0.1 0 0-0.1 0.1 0 0-0.1 0.1 0 0-0.1 0.1 0 0-0.1 0c-0.6 0.4-1.3 0.4-2 0.3-0.7-0.1-1.3-0.5-1.8-1-0.2-0.3-0.2-0.6-0.2-0.8q0.1-0.2 0.3-0.4 0 0 0 0 0 0 0 0-0.1 0-0.2 0-0.3 0.2-0.6-0.1m0.2 11.4c0.1-0.3 0.3-0.5 0.5-0.6q0.3-0.1 0.5 0 0 0 0 0 0 0 0 0-0.1-0.1-0.1-0.1-0.3-0.2-0.2-0.6c0-0.3 0.3-0.6 0.6-0.8q0.1 0 0.2-0.1 0 0 0.1 0 0.1-0.1 0.2-0.1 0-0.1 0.1-0.1 0.1 0 0.2 0 0.1-0.1 0.1-0.1 0.1 0 0.2 0c0.3-0.1 0.7-0.1 1 0 0.3 0.2 0.5 0.3 0.6 0.5 0.5 0.1 1 0.4 1.4 0.8 0.3 0.3 0.5 0.7 0.5 1.1q0 0.1 0 0.2 0 0.1 0 0.2c0 0 0 0 0 0q0 0.1 0.1 0.1 0 0 0 0c0 0 0 0.2 0 0.3q0 0 0 0 0.1 0.2 0.1 0.4c0 0.4 0 0.7-0.1 1.1q-0.2 0.5-0.6 0.9-0.4 0.5-0.9 0.7-0.4 0.3-1 0.4c-0.3 0-0.7 0-1-0.1q-0.1 0-0.2-0.1-0.1 0-0.2-0.1c0 0-0.1-0.1-0.2-0.1q-0.1 0-0.1 0-0.1 0-0.1-0.1-0.1 0-0.2 0 0 0-0.1-0.1 0 0-0.1 0c-0.6-0.3-1.1-0.9-1.3-1.6-0.3-0.6-0.3-1.3-0.1-2"/>
			</g>
		</g>
	</g>
</svg>