<svg version="1.2" xmlns="http://www.w3.org/2000/svg" viewBox="0 0 35 35" width="35" height="35">
	<title>Dice, Kick</title>
	<defs>
		<clipPath clipPathUnits="userSpaceOnUse" id="cp1">
			<path d="m0 0.16h34.04v34.47h-34.04z"/>
		</clipPath>
	</defs>
	<style>
		.s0 { fill: #ffffff } 
	</style>
	<g id="Layer_1-2">
		<g id="Clip-Path" clip-path="url(#cp1)">
			<g>
				<path class="s0" d="m25 7.6q-2 3.1-4 6.3 0 0 0 0 3.6 0.3 7.4 0.5-0.2 0.1-0.3 0.3c-1.6 1.7-3.2 3.4-4.8 5.1-1 1.1-1.9 2.1-2.9 3.1-1 0.9-2.1 1.9-3.1 2.8-0.6 0.6-1.3 1.2-1.9 1.8q-1.7 1.8-3.5 3.6-0.9 1-1.9 2 2 0.8 4.1 1.1c0.8 0.1 1.6 0.2 2.4 0.3q1.6 0.2 3.3 0c3-0.4 5.7-1.6 8-3.5q2.2-1.7 3.6-4.1 2.3-3.4 2.6-7.5 0.2-2.2-0.3-4.4 0 0 0-0.1 0-0.2-0.1-0.4-0.1-0.2-0.1-0.4-0.4-1.2-0.8-2.3-0.3-0.9-0.6-1.7-0.8-1.9-2.1-3.6-1.3-1.5-2.9-2.7c-0.5 1.3-1.3 2.6-2 3.8"/>
				<path class="s0" d="m0.3 20.9c0 0 0 0.1 0 0.1q0.2 0.7 0.3 1.3 0.1 0.1 0.1 0.1 0.9 3.3 3.1 6 1.3 1.5 2.8 2.7 0.4-0.5 0.7-1.1c0.9-1.4 1.8-2.8 2.7-4.3 0.7-1.2 1.4-2.4 2.1-3.7q0.1-0.1 0.2-0.4c-3-0.3-5.9-0.6-8.8-0.7q0 0 0 0 0.2-0.3 0.5-0.5 1.6-1.4 3.1-2.9 1-0.9 1.9-1.9c1.8-1.9 3.6-3.6 5.7-5 0.5-0.3 1-0.6 1.5-0.9 0.2-0.1 0.3-0.3 0.5-0.5 1.3-1.2 2.6-2.5 4-3.7 1-0.9 2.1-1.8 3.3-2.5q0.5-0.3 1-0.4 0 0 0.1-0.1-1.7-0.9-3.6-1.3c-0.5-0.1-1.1-0.2-1.6-0.3q-0.1 0-0.2 0c-1.2-0.6-2.6-0.8-4-0.7-1.4 0-2.8 0.2-4.2 0.7-1.9 0.6-3.7 1.6-5.3 2.9-0.7 0.6-1.4 1.2-2 1.9-0.7 0.9-1.2 1.8-1.5 2.9q-0.2 0.4-0.1 0.9 0 0.1 0 0.2 0.2 0.3 0.4 0.2 0.1 0 0.1 0c-0.1 0.2-0.1 0.3-0.3 0.4-0.3 0.2-0.6 0.5-0.9 0.8-0.5 0.6-0.9 1.4-1.2 2.1-0.4 1.1-0.6 2.3-0.7 3.5q-0.1 2.1 0.3 4.2"/>
			</g>
		</g>
	</g>
</svg>