<?xml version="1.0" encoding="UTF-8"?>
<svg id="Layer_2" data-name="Layer 2" xmlns="http://www.w3.org/2000/svg" xmlns:xlink="http://www.w3.org/1999/xlink" viewBox="0 0 699.83 7.84">
  <defs>
    <style>
      .cls-1 {
        fill: none;
      }

      .cls-2 {
        clip-path: url(#clippath);
      }

      .cls-3 {
        fill: #231f20;
      }
    </style>
    <clipPath id="clippath">
      <rect class="cls-1" width="699.83" height="7.84"/>
    </clipPath>
  </defs>
  <g id="Layer_1-2" data-name="Layer 1">
    <g class="cls-2">
      <path class="cls-3" d="M688.43,7.06c-10.11,.22-15.03,.82-26.22,.78-9.89-.04-16.35-.49-26.07-.44-19.62,.11-37.92,.53-57.66,.06-11.1-.26-18.31-.49-29.57-.33-12.02,.16-25.03,.33-37.15,.28-10.08-.04-20.76-.18-30.77-.31-7.12-.09-13.69-.3-19.81-.68-.3-.02-1.2-.09-2.28-.17-6.85,.05-14.13,.27-20.7,.3-9.23,.05-18.46-.04-27.69-.04-8.42,0-16.59,.07-24.83-.15-1.95-.07-3.9-.14-5.85-.2-.59,.02-1.19,.04-2.18,.06-1.45,.06-2.89,.12-4.34,.18-20.1,.83-35.51,1.08-57.28,.87-16.32-.16-33.91,.18-48.87-.61-3.63-.19-7.45-.61-11.13-.84-.2,0-.47,.01-.9,.02-9.42,.12-17.98,.42-27.62,.45-8.87,.03-17.74-.04-26.6-.04-8.07,0-15.63,.28-23.69,.27-9.44-.02-18.18-.66-27.14-.66-6.28,0-12.71,.59-19.97,.66-10.52,.12-17.99-.29-27.03-.74-2.09-.1-4.29-.22-6.6-.3-5.82,.56-10.35,1.17-20.56,1.23-8.32,.05-17.22-.29-23.85-.79-1.44-.11-2.9-.23-4.29-.36-.78,0-1.41,.03-1.73,.06C23.72,7.63-15.72,3.08,6.64,1.07,16.4,.19,30.59,.05,43.15,.2c5.95,.07,11.19,.24,16.43,.51,1.97-.18,4.03-.34,6.56-.45,8.41-.4,15.04-.25,23.77-.08,8.21,.16,15.74,.34,23.1,.75,.06,0,.07,0,.12,0,2.97-.16,8.4-.36,9.22-.38,16.56-.5,29.62,.61,44.96,.5,8.12-.06,15.33-.21,23.61-.19,8.26,.02,16.8,.08,25.03,0,18.51-.17,31.66-.77,49.88,.12,3.84,.19,8.47,.45,11.6,.73,.05,0,.1,0,.15,.01,6.72-.03,14.27,.05,20.37,.1,8.61,.07,17.97,.31,26.58,.15,8.45-.15,16.34-.62,24.28-.93,13.46-.52,24.89-.46,36.36,.07,9.49,.17,22.17,.05,31.39,.03,12.32-.02,24.27-.35,36.6-.28,7.89,.05,14.4,.25,20.91,.72,.7,.05,1.22,.11,1.89,.17,.38-.06,2.06-.06,5.2,0,6.56-.02,12.94,.21,19.44,.24,6.07,.02,12.3-.09,18.33-.15,13.92-.13,26.35-.38,40.29-.1,11.96,.24,21.63,.58,34,.53,9.57-.04,18.77-.25,28.32-.3,10.39-.05,18.56,.12,27.34,.39,3.48-.12,6.88-.4,10.71-.49,14.97-.33,28.88,.46,36.24,1.78,5.35,.96,7.39,3.07-7.41,3.39"/>
    </g>
  </g>
</svg>