<svg version="1.2" xmlns="http://www.w3.org/2000/svg" viewBox="0 0 2048 2048" width="2048" height="2048"><style>.a{opacity:1}</style><path class="a" d="m1070.7 113c4.1 0 4.9 0.5 18.5 13.2 7.9 7.2 17.2 15.9 20.8 19.2 3.6 3.3 11 10.3 16.5 15.6 5.5 5.2 18 17 27.8 26 16.5 15.2 18 16.9 19.2 21.5 0.8 2.8 2.8 11.8 4.4 20 1.6 8.3 3.9 20.2 5 26.5 1.2 6.3 3 16.7 4.1 23 1.1 6.3 2.4 13.6 3 16.3 0.5 2.6 0.7 5.9 0.3 7.5-0.4 1.5-3.9 7-7.8 12.2-3.9 5.2-9.4 12.9-12.2 17-2.7 4.1-8.7 13.7-13.1 21.3-4.5 7.5-8.1 14.1-8 14.5 0.2 0.5 8.6-4.9 18.8-12 10.2-7.2 29.3-19.8 42.5-28.2 13.2-8.4 38.8-24.3 57-35.3 18.2-11 38.4-23.1 45-26.8 6.6-3.8 24.2-12.8 39-20.1 14.8-7.2 33.7-16.2 42-19.9 8.2-3.7 18.8-8 23.5-9.6 4.7-1.5 11-3.1 14-3.5 4.5-0.6 6.1-0.4 8.5 1.1 1.7 1 8.6 7.1 15.5 13.5 6.9 6.5 18.3 17.2 25.5 23.9 7.2 6.7 22.8 21.3 34.8 32.4 15.2 14.1 22.2 21.3 23.1 23.7 0.8 1.9 3 11.8 4.9 22 2 10.2 4.5 23.4 5.7 29.5 1.1 6.1 2.5 14.4 3 18.5 0.6 4.1 1.7 10 2.5 13 0.8 3 1.5 7.2 1.5 9.3 0 2.3-1.4 6.5-3.9 11.5-2.1 4.2-7.2 12.6-11.3 18.7-4.1 6.1-20.4 29.7-36.3 52.5-15.8 22.8-32.9 47.1-38 54-5 6.9-10.2 14.1-11.5 16-1.4 1.9-1.8 3-1 2.5 0.8-0.5 9.2-6.1 18.5-12.5 9.3-6.5 23.3-15.8 31-20.7 7.7-5 21.7-13.5 31-19 9.3-5.5 30.5-17.6 47-26.9 16.5-9.3 33.4-18.3 37.5-20.1 4.1-1.8 9.1-3.6 11-3.9 1.9-0.4 4.7-0.4 6.2 0 1.6 0.3 7.2 4.8 13 10.4 5.7 5.5 12.8 12.1 15.8 14.7 3 2.7 8.9 8.1 13 11.9 4.1 3.9 12.2 11.6 18 17.1 5.8 5.5 17 16.1 39.5 37.2l3.3 14.9c1.8 8.2 4.4 21 5.8 28.4 1.3 7.4 3.4 19.4 4.4 26.5 1.1 7.1 2.4 14.4 2.9 16 0.5 1.6 1.2 4.6 1.5 6.5 0.4 1.9 0.2 4.9-0.4 6.5-0.6 1.6-3.9 6.4-7.3 10.5-3.4 4.1-13.8 17-23.1 28.5-9.3 11.5-24.1 29.5-33 40-8.8 10.5-26.5 31.3-39.3 46.3-12.8 14.9-29.1 33.7-36.3 41.7-7.2 8-13 14.7-13 15 0 0.3 1.6 0.7 3.5 1 2.8 0.4 6.3 3.1 17.2 13.2 7.5 7.1 18.9 17.7 25.2 23.6 6.4 6 22.2 20.7 35.1 32.6 12.9 12 24.1 23.1 24.7 24.7 0.7 1.6 2.1 6.7 3.2 11.4 1.1 4.7 2.9 13.9 4.1 20.5 1.1 6.6 2.8 15.1 3.5 19 0.8 3.9 1.9 10.4 2.5 14.5 0.6 4.1 2 12 3.2 17.5 1.2 6.2 1.8 11.7 1.5 14.5-0.3 2.5-2.4 8.1-4.6 12.5-2.2 4.4-8.4 13.8-13.8 21-5.4 7.2-16.2 20.9-23.8 30.5-7.7 9.7-20.3 25.6-28 35.5-7.7 9.8-22.8 28.5-33.6 41.4-10.8 13-25.5 30.3-32.6 38.6-7.2 8.2-12.8 15.1-12.4 15.3 0.3 0.1 15.7-5.8 34.1-13.1 18.4-7.4 45-17.9 59-23.4 14-5.6 32.5-12.4 41-15.1 8.5-2.8 24-7.7 34.5-10.8 10.4-3.1 24.1-6.7 30.2-8 6.2-1.3 13.1-2.4 15.3-2.4 3.5 0 4.8 0.8 11.3 6.7 4.1 3.8 15.7 14.4 25.8 23.8 10.1 9.3 19.6 18.2 21.1 19.7 1.6 1.5 12.2 11.6 23.8 22.3 12 11.2 21.2 20.5 21.5 21.7 0.2 1.3 1.4 6.3 2.5 11.3 1.1 5 3.4 16.4 5.1 25.5 1.6 9.1 4.1 23 5.4 31 1.4 8 3 16.7 3.6 19.5 0.6 2.7 0.9 6.1 0.6 7.5-0.3 1.4-3.6 6.1-7.2 10.5-3.7 4.4-14.2 16.3-23.5 26.5-9.2 10.2-22.8 24.3-30.1 31.5-7.4 7.1-20.8 19.4-29.9 27.3-9.1 8-23.9 20.4-33 27.6-9.1 7.3-23 18.2-31 24.2-8 6.1-29.8 22.3-48.5 35.9-18.7 13.7-38.7 28.3-44.5 32.4-5.8 4.1-29.2 20.1-52 35.6-22.8 15.5-52.3 35.7-65.5 45-13.2 9.3-30.5 21.8-38.5 27.9-8 6.1-23.3 17.6-34 25.7-10.7 8-22.3 17.2-32 25.9l0.7 5.2c0.6 5 0.4 5.5-2.8 9-2.4 2.7-9.2 6.7-23.4 13.9-11 5.5-28.6 14.4-39 19.7-14.9 7.6-20.1 9.7-24 10-3.6 0.2-5.8-0.2-8-1.6-2.3-1.4-6.1-7.8-16.9-28.8-7.6-14.8-16.2-30.9-18.9-35.9-2.8-5-7.4-14-10.3-20-2.8-6-5.5-12.1-5.9-13.5-0.4-1.4-1.8-4.8-3-7.5-1.2-2.8-3.5-7.8-5.1-11.3-1.6-3.4-3.1-6.2-3.4-6.3-0.3 0-7.9 5.5-17 12.2-9.1 6.7-23.3 17.4-31.5 23.8-8.3 6.3-22.9 17.8-32.5 25.5-9.6 7.7-24.3 19.6-32.5 26.5-8.3 6.9-31.7 26.8-52 44.1-20.3 17.4-44.7 37.9-54 45.6-9.3 7.7-23.1 18.5-30.5 24-7.4 5.6-17.6 12.5-22.5 15.3-5 2.8-25.2 13.3-45 23.2-26.6 13.3-37.6 18.3-42 19.1-4.8 0.9-6.6 0.9-9.4-0.3-2.8-1.2-4.3-3.3-9.3-12.9-3.4-6.3-8-15.1-10.3-19.5-2.3-4.4-9.2-17.7-15.3-29.5-6.1-11.8-12.7-25.3-14.7-30-2-4.7-6.6-15.3-10.2-23.5-3.6-8.3-7.1-16.3-7.8-18-0.7-1.7-3.4-7.7-6.1-13.5-2.6-5.8-5-10.9-5.3-11.4-0.3-0.4-6.7 2.2-14.1 5.9-7.4 3.8-16 7.6-19 8.7-3 1-7.1 1.8-9 1.8-1.9 0-4.3-0.5-5.2-1.2-0.9-0.7-2.7-3.3-4.1-5.8-1.3-2.5-7.7-14.8-14.2-27.5-6.5-12.7-12-23.1-12.2-23.3-0.1-0.1-2 1.7-4.1 4-2 2.4-6.4 7.2-9.7 10.7-3.3 3.5-9.6 9.1-14 12.5-4.4 3.4-10.5 7.7-13.5 9.6-3 1.8-21.7 11.5-41.5 21.6-19.8 10.1-39 19.4-42.8 20.9-3.7 1.4-9.1 2.8-12 3.1-3.9 0.4-6.1 0.1-8.7-1.3-1.9-1-4.6-3.6-6.1-5.8-1.4-2.2-6.9-12.3-12.1-22.5-5.3-10.2-14.1-27.3-19.6-38-5.6-10.7-12.1-24.2-14.6-30-2.4-5.8-8.4-19.7-13.4-31-4.9-11.3-11.2-25.5-14-31.5-2.7-6-6.2-14.8-7.8-19.5-2.3-7.1-2.7-10.1-2.7-18 0.1-6.1 1.1-13.9 2.8-22 1.5-6.9 5.1-19.7 8-28.5 2.9-8.8 8.1-22.5 11.5-30.5 3.4-8 6.5-15.1 6.8-15.9 0.4-0.7-2.2 0.2-5.8 2.1-3.6 1.9-21.6 11.2-40 20.6-24.9 12.8-34.8 17.3-38.5 17.8-4.4 0.6-5.3 0.4-7.7-1.7-1.6-1.4-10.9-18.2-22.5-40.4-10.8-20.9-21.7-42.5-24.1-48-2.4-5.5-7.5-17.2-11.4-26-3.8-8.8-7.4-16.9-7.8-18-0.5-1.1-2.6-5.6-4.6-10-2-4.4-4.5-9.9-5.5-12.3-1.1-2.3-2.4-4.2-2.9-4.2-0.6 0-3.8 1.5-7.3 3.4-3.4 1.8-19 9.9-34.7 17.9-15.7 8-32 15.7-36.3 17.1-5.9 2-9.7 2.6-16.5 2.6-5.2 0-10.9-0.6-14.2-1.6-4.2-1.3-6.7-2.9-10.5-6.8-3.6-3.7-7.3-9.6-13-20.6-4.4-8.5-10.9-21.1-14.5-28-3.6-6.9-9.6-18.1-13.2-25-3.7-6.9-8.2-16.1-10.1-20.5-1.9-4.4-8.1-18.6-13.7-31.5-5.6-12.9-12.7-28.9-15.7-35.5-3-6.6-7.2-17.2-9.3-23.5-2.1-6.3-4.4-15.3-5-20-0.9-5.6-1.1-14.9-0.7-27.5 0.3-10.5 1.2-24.4 2.2-31 0.9-6.6 2.3-15.4 3.1-19.5 0.9-4.1 2.7-12.2 4.1-18 1.3-5.8 5.4-20.2 8.9-32 3.6-11.8 9.7-31.2 13.6-43 3.9-11.8 10.1-30 13.8-40.5 3.8-10.5 9.1-24.9 11.8-32 2.7-7.1 11-28.1 18.5-46.5 7.4-18.4 17.8-43.6 23-56 5.2-12.4 13.8-32.2 19-44 5.2-11.8 12.7-28.7 16.7-37.5 4-8.8 10.8-23.9 15.2-33.5 4.4-9.6 10.9-23.8 14.3-31.5 3.5-7.7 10.9-23.9 16.5-36 5.6-12.1 12.4-26.7 15-32.5 2.6-5.8 11.6-24.3 35-72l-7-14.5c-3.9-8-7-14.8-7-15.3 0-0.4-1.4-3.8-3.2-7.7-1.7-3.9-3.9-8.8-4.8-11-1-2.2-3-6.9-4.5-10.5-1.4-3.6-3.5-8.3-4.5-10.5-1-2.2-4.8-10.5-8.3-18.5-3.6-8-7.5-17.4-8.8-21-1.5-4.3-2.4-9.7-2.7-16-0.3-7.9 0-11.4 2.3-21 2.2-9 4.2-14.2 9.2-24 3.6-6.9 8.9-16.1 11.7-20.5 2.9-4.4 7.9-11.1 11.2-15 3.2-3.9 13-15.1 21.8-25 8.8-9.9 28.6-30.6 44-46 18-18 33-32 41.6-38.8 7.4-5.9 22.2-16.9 32.8-24.5 10.5-7.5 25.4-17.4 33-22 7.5-4.6 17.5-10.2 22.1-12.5 6.2-3 10-4.3 14-4.6 5.1-0.3 6 0 9.8 3 2.3 1.9 12.2 10.8 22 19.9 9.8 9.1 23 21.5 29.3 27.5 6.3 6.1 18.9 17.8 27.9 26 9 8.3 17.1 16.6 18.1 18.5 1 1.9 3.7 12.9 5.9 24.5 2.3 11.6 5 25.7 6.1 31.5 1.1 5.8 2.4 13.9 3 18 0.6 4.1 1.7 10 2.5 13 0.8 3 1.5 8.1 1.5 11.2 0 3.2-0.9 10-2 15-1.1 5.1-4.2 15.8-6.9 23.8-2.7 8-8 22.4-11.9 32-3.8 9.6-11.4 28.1-16.7 41-5.3 12.9-14 33-19.2 44.5-5.3 11.5-10.6 23.5-12 26.5-2.1 5-2.2 5.3-0.3 3 1.1-1.4 7.7-10.4 14.7-20 7-9.6 24.4-33 38.7-52 14.3-19 32.3-42.6 40-52.5 7.7-9.9 22.6-28.8 33.2-42 10.5-13.2 24.9-30.8 31.9-39 7-8.3 18.1-21.1 24.8-28.5 6.7-7.4 22.3-23.6 34.7-36 12.4-12.4 30.8-30.2 41-39.5 10.2-9.4 26.9-24.2 37-33 10.2-8.8 25.2-22.1 33.5-29.5 8.2-7.5 18.1-16.2 22-19.5 3.8-3.2 15.5-12.3 26-20 10.4-7.8 25.1-18.3 32.4-23.3 11.9-8.1 14-9.2 17.8-9.2z"/></svg>