<svg width="16" height="16" xmlns="http://www.w3.org/2000/svg" fill="none">
  <path id="svg_1" clip-rule="evenodd" d="m1,3.25a2.25,2.25 0 0 1 2.25,-2.25l9.5,0a2.25,2.25 0 0 1 2.25,2.25l0,9.5a2.25,2.25 0 0 1 -2.25,2.25l-9.5,0a2.25,2.25 0 0 1 -2.25,-2.25l0,-9.5zm2.25,-0.75a0.75,0.75 0 0 0 -0.75,0.75l0,9.5c0,0.414 0.336,0.75 0.75,0.75l9.5,0a0.75,0.75 0 0 0 0.75,-0.75l0,-9.5a0.75,0.75 0 0 0 -0.75,-0.75l-9.5,0z" fill-rule="evenodd" fill="#000000"/>
  <rect id="svg_2" height="11.82525" width="11.51609" y="2.12602" x="2.43518" fill="#000000"/>
</svg>
