<?xml version="1.0" encoding="UTF-8" standalone="no"?>
<!DOCTYPE svg PUBLIC "-//W3C//DTD SVG 20010904//EN"
              "http://www.w3.org/TR/2001/REC-SVG-20010904/DTD/svg10.dtd">

<svg xmlns="http://www.w3.org/2000/svg"
     width="14.9444in" height="2.18056in"
     viewBox="0 0 1076 157">
  <path id="Selection"
        fill="#5d7f7f" stroke="#5d7f7f" stroke-width="1"
        d="M 20.24,126.00
           C 22.72,116.78 21.89,107.43 22.00,98.00
             22.00,98.00 22.68,87.00 22.68,87.00
             22.11,79.37 21.96,71.50 20.33,64.00
             18.50,55.57 14.62,48.17 9.92,41.00
             6.36,35.56 1.82,31.94 4.11,25.00
             8.93,10.35 20.98,5.84 35.00,6.00
             42.40,6.09 57.56,9.70 60.94,17.04
             61.88,19.22 61.18,22.60 60.94,25.00
             60.94,25.00 92.00,23.09 92.00,23.09
             92.00,23.09 134.00,21.00 134.00,21.00
             134.00,21.00 149.00,20.00 149.00,20.00
             149.00,20.00 190.00,20.00 190.00,20.00
             190.00,20.00 205.00,19.00 205.00,19.00
             205.00,19.00 244.00,19.00 244.00,19.00
             244.00,19.00 261.00,18.00 261.00,18.00
             261.00,18.00 294.00,18.00 294.00,18.00
             294.00,18.00 311.00,17.00 311.00,17.00
             311.00,17.00 344.00,17.00 344.00,17.00
             344.00,17.00 359.00,16.00 359.00,16.00
             359.00,16.00 397.00,16.00 397.00,16.00
             397.00,16.00 409.00,15.05 409.00,15.05
             409.00,15.05 425.00,15.05 425.00,15.05
             425.00,15.05 440.00,16.00 440.00,16.00
             440.00,16.00 474.00,16.00 474.00,16.00
             474.00,16.00 491.00,17.00 491.00,17.00
             491.00,17.00 518.00,17.00 518.00,17.00
             518.00,17.00 533.00,18.00 533.00,18.00
             533.00,18.00 558.00,18.00 558.00,18.00
             558.00,18.00 575.00,19.00 575.00,19.00
             575.00,19.00 646.00,20.00 646.00,20.00
             646.00,20.00 663.00,21.00 663.00,21.00
             663.00,21.00 692.00,21.00 692.00,21.00
             692.00,21.00 709.00,22.00 709.00,22.00
             709.00,22.00 782.00,22.00 782.00,22.00
             782.00,22.00 797.00,23.00 797.00,23.00
             797.00,23.00 843.00,23.00 843.00,23.00
             843.00,23.00 860.00,24.00 860.00,24.00
             860.00,24.00 901.00,24.00 901.00,24.00
             901.00,24.00 918.00,25.00 918.00,25.00
             918.00,25.00 951.00,25.00 951.00,25.00
             951.00,25.00 966.00,26.00 966.00,26.00
             966.00,26.00 1016.00,28.00 1016.00,28.00
             1015.00,20.03 1026.68,16.41 1033.00,14.90
             1047.98,11.31 1067.52,15.68 1072.89,32.00
             1075.09,38.68 1070.59,41.89 1067.04,47.00
             1062.50,53.52 1057.97,62.15 1056.46,70.00
             1054.51,80.15 1055.00,89.75 1055.00,100.00
             1055.00,108.70 1054.47,117.46 1056.50,126.00
             1056.50,126.00 1064.00,146.00 1064.00,146.00
             1057.49,148.76 1052.08,151.28 1045.00,152.54
             1027.69,155.60 1011.07,149.96 996.00,142.00
             996.00,142.00 997.00,140.00 997.00,140.00
             978.48,136.63 959.80,135.03 941.00,135.00
             941.00,135.00 926.00,134.00 926.00,134.00
             926.00,134.00 913.00,134.00 913.00,134.00
             913.00,134.00 898.00,132.96 898.00,132.96
             898.00,132.96 882.00,132.96 882.00,132.96
             882.00,132.96 870.00,131.96 870.00,131.96
             870.00,131.96 853.00,131.96 853.00,131.96
             853.00,131.96 842.00,131.00 842.00,131.00
             842.00,131.00 826.00,131.00 826.00,131.00
             826.00,131.00 811.00,130.00 811.00,130.00
             811.00,130.00 740.00,128.00 740.00,128.00
             740.00,128.00 724.00,127.00 724.00,127.00
             724.00,127.00 710.00,127.00 710.00,127.00
             710.00,127.00 694.00,126.00 694.00,126.00
             694.00,126.00 674.00,126.00 674.00,126.00
             674.00,126.00 658.00,125.00 658.00,125.00
             658.00,125.00 639.00,125.00 639.00,125.00
             639.00,125.00 623.00,124.00 623.00,124.00
             623.00,124.00 596.00,124.00 596.00,124.00
             596.00,124.00 579.00,123.00 579.00,123.00
             579.00,123.00 517.00,123.00 517.00,123.00
             517.00,123.00 500.00,124.00 500.00,124.00
             500.00,124.00 444.00,124.00 444.00,124.00
             444.00,124.00 427.00,125.00 427.00,125.00
             427.00,125.00 383.00,125.00 383.00,125.00
             383.00,125.00 368.00,126.00 368.00,126.00
             368.00,126.00 326.00,126.00 326.00,126.00
             326.00,126.00 309.00,127.00 309.00,127.00
             309.00,127.00 271.00,127.00 271.00,127.00
             271.00,127.00 254.00,128.00 254.00,128.00
             254.00,128.00 225.00,128.00 225.00,128.00
             225.00,128.00 205.00,129.00 205.00,129.00
             205.00,129.00 181.00,130.91 181.00,130.91
             181.00,130.91 134.00,134.83 134.00,134.83
             134.00,134.83 101.00,137.83 101.00,137.83
             101.00,137.83 85.04,139.14 85.04,139.14
             81.34,139.74 78.97,142.60 75.99,144.64
             72.42,147.08 67.01,149.93 63.00,151.55
             51.10,156.35 36.88,156.35 25.00,151.55
             25.00,151.55 12.00,145.00 12.00,145.00
             14.72,138.68 18.45,132.68 20.24,126.00 Z
           M 62.10,64.00
           C 59.83,54.68 55.24,45.75 55.01,36.00
             54.91,31.45 57.01,22.82 54.43,19.68
             51.97,16.69 46.68,14.79 43.00,13.90
             31.30,11.06 13.84,13.20 10.16,27.00
             8.83,32.00 16.02,40.62 18.00,46.00
             18.00,46.00 30.00,45.00 30.00,45.00
             26.92,45.88 21.97,47.24 21.64,51.10
             21.47,53.14 23.23,56.96 23.92,59.00
             25.26,62.92 26.28,67.89 26.87,72.00
             28.28,81.80 28.05,91.14 28.00,101.00
             28.00,101.00 27.00,114.00 27.00,114.00
             27.00,114.00 37.00,113.00 37.00,113.00
             37.00,113.00 37.00,115.00 37.00,115.00
             23.32,115.67 26.02,121.54 23.00,132.00
             34.42,129.42 42.02,127.12 54.00,130.49
             56.59,131.22 62.96,133.73 62.96,136.99
             62.96,140.16 57.41,141.66 55.00,142.18
             47.55,143.80 36.11,143.67 29.00,141.00
             33.01,136.18 36.00,135.35 42.00,137.00
             42.00,137.00 33.00,138.00 33.00,138.00
             37.72,144.80 55.69,141.22 62.00,138.00
             62.00,138.00 62.00,136.00 62.00,136.00
             49.62,129.15 29.08,130.02 20.00,142.00
             40.93,147.46 51.56,148.67 72.00,140.00
             68.43,134.94 64.17,131.03 62.11,125.00
             59.01,115.97 63.22,102.67 64.00,93.00
             64.00,93.00 54.00,90.00 54.00,90.00
             54.00,90.00 64.00,90.00 64.00,90.00
             64.00,80.15 64.50,73.83 62.10,64.00 Z
           M 1059.62,47.32
           C 1061.40,46.72 1062.70,44.48 1063.69,42.98
             1068.79,35.31 1067.46,30.20 1059.98,24.42
             1052.67,18.75 1039.34,19.09 1031.00,22.09
             1028.39,23.03 1023.51,25.17 1021.85,27.53
             1019.73,31.05 1023.02,36.78 1021.85,46.00
             1021.85,46.00 1014.90,69.00 1014.90,69.00
             1012.70,78.00 1013.00,83.01 1013.00,92.00
             1018.65,91.00 1019.58,90.75 1025.00,93.00
             1025.00,93.00 1013.00,95.00 1013.00,95.00
             1013.73,103.99 1017.74,117.76 1015.20,126.00
             1013.39,131.85 1008.68,135.21 1006.00,141.00
             1022.73,147.65 1040.06,149.20 1057.00,142.00
             1047.87,129.96 1027.44,129.12 1015.00,136.00
             1015.00,136.00 1015.00,138.00 1015.00,138.00
             1021.40,141.11 1039.26,144.84 1044.00,138.00
             1044.00,138.00 1035.00,136.00 1035.00,136.00
             1035.00,136.00 1048.00,138.00 1048.00,138.00
             1047.03,139.81 1046.81,140.70 1044.86,142.00
             1041.38,143.85 1026.22,143.10 1022.00,142.00
             1019.66,141.67 1012.09,139.54 1013.96,135.88
             1015.35,133.17 1021.16,130.94 1024.00,130.24
             1034.31,127.69 1043.10,128.70 1053.00,132.00
             1052.83,128.37 1052.49,121.29 1049.57,118.85
             1047.84,117.41 1041.61,115.96 1039.00,115.00
             1039.00,115.00 1050.00,115.00 1050.00,115.00
             1048.78,99.89 1047.98,84.94 1051.43,70.00
             1051.43,70.00 1058.00,51.00 1058.00,51.00
             1058.00,51.00 1049.00,46.00 1049.00,46.00
             1049.00,46.00 1059.62,47.32 1059.62,47.32 Z
           M 887.00,31.00
           C 887.00,31.00 865.00,30.00 865.00,30.00
             865.00,30.00 824.00,30.00 824.00,30.00
             824.00,30.00 807.00,29.00 807.00,29.00
             807.00,29.00 731.00,29.00 731.00,29.00
             731.00,29.00 716.00,28.00 716.00,28.00
             716.00,28.00 671.00,28.00 671.00,28.00
             671.00,28.00 654.00,27.00 654.00,27.00
             654.00,27.00 636.00,27.00 636.00,27.00
             636.00,27.00 620.00,26.00 620.00,26.00
             620.00,26.00 494.00,24.00 494.00,24.00
             494.00,24.00 477.00,23.00 477.00,23.00
             477.00,23.00 444.00,23.00 444.00,23.00
             444.00,23.00 427.00,22.00 427.00,22.00
             427.00,22.00 390.00,22.00 390.00,22.00
             390.00,22.00 373.00,23.00 373.00,23.00
             373.00,23.00 347.00,23.00 347.00,23.00
             347.00,23.00 332.00,24.00 332.00,24.00
             332.00,24.00 241.00,26.00 241.00,26.00
             241.00,26.00 224.00,27.00 224.00,27.00
             224.00,27.00 204.00,27.00 204.00,27.00
             204.00,27.00 188.00,28.00 188.00,28.00
             188.00,28.00 171.00,28.00 171.00,28.00
             171.00,28.00 171.00,41.00 171.00,41.00
             171.00,41.00 166.30,28.96 166.30,28.96
             166.30,28.96 160.00,28.96 160.00,28.96
             160.00,28.96 145.00,28.96 145.00,28.96
             145.00,28.96 99.00,33.00 99.00,33.00
             99.00,33.00 100.00,41.00 100.00,41.00
             100.00,41.00 95.61,33.97 95.61,33.97
             95.61,33.97 86.00,33.97 86.00,33.97
             86.00,33.97 60.00,36.00 60.00,36.00
             60.31,42.26 62.68,47.93 64.12,54.00
             66.13,62.49 67.99,75.33 67.92,84.00
             67.92,84.00 67.92,95.00 67.92,95.00
             67.23,101.25 65.45,107.71 65.75,114.00
             66.00,119.29 67.70,128.10 72.21,131.40
             75.33,133.68 79.41,132.21 83.00,132.04
             83.00,132.04 110.00,130.00 110.00,130.00
             110.00,130.00 112.00,119.00 112.00,119.00
             112.00,119.00 113.00,129.00 113.00,129.00
             113.00,129.00 151.00,126.17 151.00,126.17
             151.00,126.17 186.00,123.00 186.00,123.00
             186.00,123.00 195.00,123.00 195.00,123.00
             195.00,123.00 209.00,122.00 209.00,122.00
             209.00,122.00 211.00,112.00 211.00,112.00
             211.00,114.13 210.70,118.74 212.02,120.20
             213.98,122.86 225.21,121.11 228.00,120.20
             218.32,116.70 219.45,112.83 227.00,108.00
             230.23,113.68 238.01,118.20 242.91,111.61
             245.32,108.37 245.91,101.95 246.00,98.00
             239.15,99.84 233.19,103.28 226.00,100.39
             207.22,92.83 209.63,61.08 231.00,49.17
             240.65,44.05 251.03,45.76 261.00,49.17
             257.75,54.70 257.07,58.84 250.00,60.00
             251.98,50.50 239.71,51.17 234.01,54.10
             225.96,58.23 222.57,69.48 223.09,78.00
             223.34,81.98 224.53,86.87 227.28,89.82
             231.80,94.82 241.93,95.66 246.15,89.82
             248.25,86.85 247.99,82.45 248.00,79.00
             240.90,79.00 237.89,78.48 231.00,81.00
             237.50,67.77 246.12,71.00 259.00,71.00
             255.61,82.74 256.08,101.81 250.87,110.00
             246.91,116.22 243.54,117.23 238.00,121.00
             238.00,121.00 248.00,120.04 248.00,120.04
             248.00,120.04 262.00,120.04 262.00,120.04
             262.00,120.04 278.00,119.00 278.00,119.00
             278.00,119.00 293.00,119.00 293.00,119.00
             293.00,119.00 309.00,118.00 309.00,118.00
             309.00,118.00 324.00,118.00 324.00,118.00
             324.00,118.00 340.00,117.00 340.00,117.00
             340.00,117.00 356.00,117.00 356.00,117.00
             356.00,117.00 372.00,116.00 372.00,116.00
             372.00,116.00 394.00,116.00 394.00,116.00
             394.00,116.00 411.00,115.00 411.00,115.00
             411.00,115.00 434.00,115.00 434.00,115.00
             434.00,115.00 451.00,114.00 451.00,114.00
             451.00,114.00 486.00,114.00 486.00,114.00
             486.00,114.00 502.00,115.00 502.00,115.00
             502.00,115.00 531.00,115.00 531.00,115.00
             531.00,115.00 548.00,116.00 548.00,116.00
             548.00,116.00 570.00,116.00 570.00,116.00
             570.00,116.00 586.00,117.00 586.00,117.00
             586.00,117.00 607.00,117.00 607.00,117.00
             607.00,117.00 623.00,118.00 623.00,118.00
             623.00,118.00 648.00,118.00 648.00,118.00
             648.00,118.00 665.00,119.00 665.00,119.00
             665.00,119.00 706.00,119.00 706.00,119.00
             706.00,119.00 723.00,120.00 723.00,120.00
             723.00,120.00 766.00,120.00 766.00,120.00
             766.00,120.00 781.00,121.00 781.00,121.00
             781.00,121.00 810.00,121.00 810.00,121.00
             810.00,121.00 827.00,122.00 827.00,122.00
             827.00,122.00 855.00,122.00 855.00,122.00
             855.00,122.00 870.00,123.04 870.00,123.04
             870.00,123.04 884.00,123.04 884.00,123.04
             884.00,123.04 896.00,124.00 896.00,124.00
             896.00,124.00 932.00,126.00 932.00,126.00
             932.00,126.00 934.00,112.00 934.00,112.00
             934.00,112.00 935.00,126.00 935.00,126.00
             935.00,126.00 975.00,129.04 975.00,129.04
             975.00,129.04 984.00,129.04 984.00,129.04
             984.00,129.04 999.00,129.99 999.00,129.99
             1001.12,130.22 1003.84,130.88 1005.79,129.99
             1009.68,127.90 1011.18,120.01 1011.48,116.00
             1011.84,111.20 1009.67,103.22 1009.08,98.00
             1009.08,98.00 1009.08,88.00 1009.08,88.00
             1009.01,78.74 1011.16,66.01 1013.48,57.00
             1013.48,57.00 1016.84,46.00 1016.84,46.00
             1016.84,46.00 1016.84,36.91 1016.84,36.91
             1016.84,36.91 1000.00,36.91 1000.00,36.91
             1000.00,36.91 989.54,36.91 989.54,36.91
             989.54,36.91 983.00,47.00 983.00,47.00
             983.00,47.00 985.00,36.00 985.00,36.00
             985.00,36.00 969.00,35.00 969.00,35.00
             969.00,35.00 943.00,34.00 943.00,34.00
             943.00,34.00 925.00,33.00 925.00,33.00
             913.84,33.02 917.91,34.44 913.00,46.00
             913.00,46.00 914.00,33.00 914.00,33.00
             914.00,33.00 887.00,31.00 887.00,31.00 Z
           M 414.06,51.00
           C 417.34,42.37 423.67,34.35 433.00,32.02
             438.07,30.79 440.07,31.60 445.00,32.02
             442.88,34.95 440.55,38.09 437.00,39.40
             433.77,40.60 430.25,39.11 426.34,42.57
             420.36,47.86 420.03,63.20 419.00,71.00
             419.00,71.00 428.00,64.01 428.00,64.01
             432.31,61.45 438.83,60.63 439.85,67.02
             440.56,71.45 437.92,86.88 437.00,92.00
             437.00,92.00 442.00,86.00 442.00,86.00
             442.00,86.00 446.00,89.00 446.00,89.00
             447.16,75.19 456.44,62.99 471.00,62.09
             474.38,61.88 477.66,62.56 481.00,63.00
             481.00,63.00 476.00,92.00 476.00,92.00
             476.00,92.00 481.00,86.00 481.00,86.00
             481.00,86.00 483.00,86.00 483.00,86.00
             484.29,91.70 481.13,96.87 475.96,99.55
             469.16,103.06 466.34,98.43 468.00,92.00
             463.26,95.35 452.68,106.25 447.31,97.77
             446.28,96.15 445.63,92.14 445.00,90.00
             441.76,99.50 429.53,106.31 429.02,94.00
             429.02,94.00 431.00,70.00 431.00,70.00
             418.84,74.16 416.90,87.91 416.00,99.00
             416.00,99.00 407.00,102.00 407.00,102.00
             408.47,90.84 410.93,59.28 414.06,51.00 Z
           M 733.84,82.00
           C 735.74,64.23 735.52,38.34 757.00,32.15
             761.94,30.91 764.15,31.62 769.00,32.15
             766.87,34.96 764.55,38.07 761.00,39.40
             757.67,40.65 753.73,39.01 749.42,44.11
             744.11,50.38 745.32,62.92 743.00,71.00
             743.00,71.00 751.00,64.80 751.00,64.80
             752.28,63.93 753.52,63.20 755.00,62.70
             759.88,61.06 764.26,62.26 764.62,68.00
             764.62,68.00 762.00,92.00 762.00,92.00
             762.00,92.00 768.00,86.00 768.00,86.00
             768.00,86.00 770.00,88.00 770.00,88.00
             770.82,78.89 775.53,69.89 783.00,64.43
             786.86,61.61 794.18,60.44 796.22,66.06
             798.45,72.16 791.55,79.96 787.00,83.09
             785.25,84.29 781.06,86.18 780.45,88.22
             779.73,90.63 782.68,93.09 785.99,92.16
             789.37,91.20 791.34,87.81 793.00,85.00
             802.29,90.32 788.00,100.05 782.00,100.77
             774.57,101.68 772.02,96.55 769.00,91.00
             767.75,93.65 767.12,94.79 764.94,96.89
             764.10,97.70 762.99,98.65 762.00,99.26
             758.02,101.71 753.95,101.11 753.15,95.98
             752.55,92.20 754.36,83.29 754.85,79.00
             755.04,77.24 756.12,71.07 752.82,71.62
             750.93,71.93 748.52,74.59 747.33,76.01
             740.09,84.60 741.83,93.59 740.40,96.78
             739.09,99.70 734.79,100.88 732.00,102.00
             732.00,102.00 733.84,82.00 733.84,82.00 Z
           M 432.00,35.00
           C 432.00,35.00 432.00,37.00 432.00,37.00
             432.00,37.00 437.00,35.00 437.00,35.00
             437.00,35.00 432.00,35.00 432.00,35.00 Z
           M 757.00,37.00
           C 757.00,37.00 762.00,35.00 762.00,35.00
             762.00,35.00 757.00,37.00 757.00,37.00 Z
           M 331.16,56.00
           C 331.16,56.00 330.00,76.00 330.00,76.00
             329.99,84.46 325.99,94.17 338.00,93.00
             337.88,94.47 337.97,96.03 337.01,97.28
             335.19,99.61 323.35,101.37 320.00,102.00
             320.00,102.00 320.00,85.00 320.00,85.00
             320.00,85.00 321.00,68.00 321.00,68.00
             310.98,80.23 309.83,93.87 299.00,99.00
             298.83,91.29 294.26,74.51 289.00,69.00
             288.82,77.16 286.92,85.40 284.00,93.00
             284.00,93.00 291.00,95.00 291.00,95.00
             291.00,95.00 283.00,100.20 283.00,100.20
             283.00,100.20 264.00,100.20 264.00,100.20
             264.00,100.20 270.00,93.64 270.00,93.64
             270.00,93.64 277.27,89.74 277.27,89.74
             277.27,89.74 280.39,79.00 280.39,79.00
             280.39,79.00 284.00,55.00 284.00,55.00
             278.98,55.43 272.30,56.93 271.65,63.00
             271.14,65.65 272.91,68.12 271.65,70.99
             270.54,74.20 266.83,76.35 264.00,78.00
             261.02,65.76 264.38,54.05 277.00,49.12
             283.33,46.64 288.42,47.00 295.00,47.00
             295.14,62.61 302.12,68.99 304.00,81.00
             304.00,81.00 321.79,52.10 321.79,52.10
             321.79,52.10 332.00,44.00 332.00,44.00
             333.10,47.89 331.60,52.03 331.16,56.00 Z
           M 393.00,97.29
           C 384.38,102.79 372.74,103.93 365.21,95.90
             360.13,90.48 359.92,84.94 360.00,78.00
             360.13,67.03 364.73,57.10 374.00,50.85
             383.46,44.46 396.81,44.67 407.00,49.00
             405.23,55.21 403.96,59.42 397.00,60.01
             395.48,46.88 379.89,52.85 374.64,60.01
             370.00,66.33 368.53,76.61 371.11,84.00
             374.61,94.05 383.52,96.42 391.99,90.35
             394.58,88.49 396.10,86.49 398.00,84.00
             405.21,88.19 397.39,94.49 393.00,97.29 Z
           M 704.04,94.42
           C 709.66,97.12 716.64,93.30 716.38,88.00
             716.01,80.23 702.43,74.92 698.45,67.00
             694.06,58.24 700.31,49.15 709.00,46.64
             715.52,44.75 722.90,46.66 729.00,49.00
             728.02,51.45 724.66,62.16 720.60,59.83
             719.10,58.97 719.26,56.23 717.52,54.31
             714.66,51.15 707.04,51.33 705.96,56.11
             705.16,59.67 709.66,63.68 712.00,65.83
             717.95,71.28 726.52,76.74 725.44,86.00
             723.53,102.60 694.82,109.09 689.00,91.00
             689.00,91.00 698.00,86.00 698.00,86.00
             699.46,89.64 700.21,92.57 704.04,94.42 Z
           M 248.00,50.00
           C 248.00,50.00 255.00,54.00 255.00,54.00
             255.00,54.00 256.00,50.00 256.00,50.00
             256.00,50.00 248.00,50.00 248.00,50.00 Z
           M 394.00,50.00
           C 394.00,50.00 402.00,54.00 402.00,54.00
             402.00,54.00 403.00,51.00 403.00,51.00
             403.00,51.00 395.00,49.00 395.00,49.00
             395.00,49.00 394.00,50.00 394.00,50.00 Z
           M 719.00,49.00
           C 719.00,49.00 720.00,50.00 720.00,50.00
             720.00,50.00 720.00,49.00 720.00,49.00
             720.00,49.00 719.00,49.00 719.00,49.00 Z
           M 294.35,62.00
           C 293.64,59.86 292.06,52.81 291.02,51.87
             288.65,48.86 284.47,50.40 282.00,51.87
             282.00,51.87 288.00,51.87 288.00,51.87
             288.00,51.87 287.00,60.00 287.00,60.00
             292.08,61.68 292.02,64.30 293.81,69.00
             295.79,74.20 300.18,88.49 303.00,92.00
             304.19,83.64 297.10,70.25 294.35,62.00 Z
           M 720.00,50.00
           C 720.00,50.00 723.00,54.00 723.00,54.00
             723.00,54.00 724.00,50.00 724.00,50.00
             724.00,50.00 720.00,50.00 720.00,50.00 Z
           M 322.00,60.00
           C 325.75,62.68 324.02,68.79 324.00,73.00
             324.00,73.00 323.04,84.00 323.04,84.00
             323.04,84.00 323.04,98.00 323.04,98.00
             323.04,98.00 329.00,97.00 329.00,97.00
             329.00,97.00 326.30,89.00 326.30,89.00
             326.30,89.00 328.00,51.00 328.00,51.00
             323.97,54.06 323.06,55.02 322.00,60.00 Z
           M 413.93,70.00
           C 413.93,70.00 411.00,96.00 411.00,96.00
             414.69,93.13 413.76,89.38 414.74,85.00
             414.74,85.00 418.00,52.00 418.00,52.00
             414.54,56.87 414.47,64.11 413.93,70.00 Z
           M 738.72,66.00
           C 737.87,72.89 735.38,91.10 736.00,97.00
             736.00,97.00 737.46,94.78 737.46,94.78
             737.46,94.78 741.00,78.00 741.00,78.00
             741.00,78.00 739.00,78.00 739.00,78.00
             739.00,78.00 742.00,52.00 742.00,52.00
             739.13,56.84 739.37,60.67 738.72,66.00 Z
           M 842.00,63.00
           C 842.00,63.00 859.00,63.00 859.00,63.00
             852.96,71.33 850.32,70.00 841.00,70.00
             840.63,77.99 838.09,86.10 840.00,94.00
             840.00,94.00 847.00,88.00 847.00,88.00
             851.16,98.30 837.29,103.80 832.51,98.69
             828.22,94.10 831.99,76.80 832.00,70.00
             823.04,70.31 825.56,72.95 819.89,78.96
             815.75,83.36 812.54,85.03 807.00,87.00
             811.98,95.94 817.00,92.37 820.91,85.00
             826.17,87.96 824.36,91.13 820.91,94.91
             816.60,99.39 808.89,103.26 803.11,99.26
             792.03,91.60 801.49,72.87 809.02,66.13
             814.57,61.16 820.85,59.89 825.00,67.00
             825.00,67.00 832.41,61.46 832.41,61.46
             832.41,61.46 834.97,56.70 834.97,56.70
             834.97,56.70 842.00,53.00 842.00,53.00
             842.00,53.00 842.00,63.00 842.00,63.00 Z
           M 588.44,61.55
           C 591.95,57.65 589.63,55.48 599.00,54.00
             599.00,54.00 599.00,63.00 599.00,63.00
             599.00,63.00 615.00,63.00 615.00,63.00
             612.80,66.04 610.86,68.71 607.00,69.69
             604.64,70.28 601.42,69.62 599.31,71.02
             596.92,72.62 597.12,75.47 596.84,78.00
             596.12,84.29 594.44,88.31 598.00,94.00
             598.00,94.00 602.00,88.00 602.00,88.00
             602.00,88.00 604.00,88.00 604.00,88.00
             606.47,99.66 592.84,103.38 588.74,98.57
             586.87,96.38 586.96,92.73 587.02,90.00
             587.02,90.00 589.00,70.00 589.00,70.00
             584.52,70.00 570.28,69.49 567.21,71.74
             562.97,74.84 561.89,83.37 563.74,87.98
             565.92,93.43 570.18,92.84 573.59,88.89
             574.68,87.63 575.23,86.43 576.00,85.00
             576.00,85.00 578.00,85.00 578.00,85.00
             580.81,97.15 567.45,102.73 561.00,100.26
             556.19,98.42 554.92,94.26 553.00,90.00
             549.20,99.70 539.36,104.44 537.16,96.94
             536.97,95.69 537.02,93.35 537.16,92.00
             532.41,95.27 527.18,101.54 521.04,100.73
             516.54,100.14 515.33,95.94 515.11,92.00
             514.68,84.64 518.12,75.47 523.21,70.17
             531.64,61.39 538.96,61.54 550.00,63.00
             550.00,63.00 545.00,92.00 545.00,92.00
             545.00,92.00 550.00,86.00 550.00,86.00
             550.00,86.00 554.00,88.00 554.00,88.00
             554.80,70.95 566.32,58.70 584.00,63.00
             584.00,63.00 581.00,68.00 581.00,68.00
             581.00,68.00 588.44,61.55 588.44,61.55 Z
           M 715.79,80.00
           C 719.17,83.96 719.00,85.78 721.00,90.00
             726.12,71.95 706.64,72.73 702.00,57.00
             695.51,65.87 710.80,74.15 715.79,80.00 Z
           M 594.00,58.00
           C 594.00,58.00 593.00,66.00 593.00,66.00
             593.00,66.00 588.00,67.00 588.00,67.00
             588.00,67.00 593.00,67.00 593.00,67.00
             593.00,67.00 590.59,85.00 590.59,85.00
             590.59,85.00 590.59,94.85 590.59,94.85
             590.59,94.85 595.00,98.00 595.00,98.00
             591.07,87.89 592.38,87.81 593.72,77.00
             594.07,74.10 593.75,69.87 596.43,68.02
             599.17,66.14 603.15,67.92 608.00,66.00
             608.00,66.00 595.00,66.00 595.00,66.00
             595.00,66.00 596.00,58.00 596.00,58.00
             596.00,58.00 594.00,58.00 594.00,58.00 Z
           M 837.00,58.00
           C 837.00,58.00 836.00,66.00 836.00,66.00
             836.00,66.00 831.00,67.00 831.00,67.00
             831.00,67.00 836.00,67.00 836.00,67.00
             836.00,67.00 833.93,88.00 833.93,88.00
             833.69,92.92 832.61,96.13 838.00,98.00
             833.92,84.90 837.72,79.81 838.00,67.00
             838.00,67.00 851.00,66.00 851.00,66.00
             851.00,66.00 838.00,66.00 838.00,66.00
             838.00,66.00 839.00,58.00 839.00,58.00
             839.00,58.00 837.00,58.00 837.00,58.00 Z
           M 217.49,87.00
           C 219.91,95.43 227.54,100.36 236.00,97.00
             233.42,96.59 231.33,96.26 229.01,94.91
             215.41,86.97 220.89,70.56 224.00,59.00
             216.67,65.88 214.80,77.59 217.49,87.00 Z
           M 369.00,59.00
           C 364.58,67.41 362.78,71.26 363.01,81.00
             363.27,91.42 370.60,101.52 382.00,97.00
             368.38,94.40 364.77,80.03 367.53,68.00
             368.16,65.22 369.86,61.70 371.00,59.00
             371.00,59.00 369.00,59.00 369.00,59.00 Z
           M 500.40,65.15
           C 501.03,66.60 500.95,68.45 501.00,70.00
             508.31,62.77 510.55,60.46 521.00,63.00
             519.42,65.70 517.75,68.61 514.96,70.24
             511.87,72.04 510.12,70.43 506.10,74.15
             499.55,80.22 498.08,90.52 498.00,99.00
             498.00,99.00 489.00,101.00 489.00,101.00
             489.00,101.00 492.00,70.00 492.00,70.00
             492.00,70.00 488.00,76.00 488.00,76.00
             477.97,70.26 496.65,56.54 500.40,65.15 Z
           M 631.91,94.90
           C 628.33,98.55 622.20,101.93 617.00,100.57
             611.48,99.11 609.00,93.29 609.13,88.00
             609.34,79.24 615.61,68.32 623.00,63.74
             627.68,60.84 635.01,61.35 635.68,68.00
             636.30,74.12 630.56,79.97 626.00,83.20
             622.91,85.39 618.32,86.74 619.91,89.90
             623.40,96.83 630.11,88.21 631.91,85.00
             637.14,87.94 635.39,91.15 631.91,94.90 Z
           M 637.91,71.00
           C 639.66,64.97 653.11,55.01 654.00,70.00
             661.31,62.77 663.55,60.46 674.00,63.00
             672.41,65.29 670.08,68.74 667.71,70.24
             664.40,72.34 662.08,69.85 656.53,77.00
             653.35,81.10 652.24,84.98 651.44,90.00
             651.02,92.60 651.26,96.36 649.40,98.30
             647.56,100.23 644.49,100.61 642.00,101.00
             642.00,101.00 645.00,70.00 645.00,70.00
             645.00,70.00 641.00,76.00 641.00,76.00
             641.00,76.00 637.91,76.00 637.91,76.00
             637.66,74.14 637.24,72.94 637.91,71.00 Z
           M 266.00,72.00
           C 269.02,68.84 268.61,68.19 268.00,64.00
             268.00,64.00 266.00,72.00 266.00,72.00 Z
           M 436.83,72.00
           C 437.20,67.24 436.68,65.82 432.21,65.00
             435.23,75.38 433.84,76.60 432.21,87.00
             431.82,91.41 430.96,95.30 435.00,98.00
             433.42,85.95 435.97,82.99 436.83,72.00 Z
           M 469.00,66.00
           C 476.09,70.47 472.96,72.72 471.70,80.00
             471.10,83.45 470.36,94.83 471.00,98.00
             471.00,98.00 473.00,98.00 473.00,98.00
             473.00,98.00 474.00,97.00 474.00,97.00
             472.42,88.12 474.77,74.84 477.00,66.00
             477.00,66.00 469.00,66.00 469.00,66.00 Z
           M 497.29,81.00
           C 497.29,81.00 497.29,75.00 497.29,75.00
             497.44,70.16 499.70,67.00 493.98,65.00
             495.75,74.76 494.80,75.61 493.98,85.00
             493.51,89.53 492.25,92.57 493.98,97.00
             493.98,97.00 497.29,81.00 497.29,81.00 Z
           M 510.00,68.00
           C 510.00,68.00 515.00,65.00 515.00,65.00
             515.00,65.00 510.00,68.00 510.00,68.00 Z
           M 544.73,76.00
           C 544.89,73.92 546.04,68.28 544.73,66.60
             543.70,64.86 540.84,65.06 539.00,65.00
             540.46,67.30 542.56,69.12 542.68,72.02
             542.81,75.02 541.19,78.11 540.62,81.00
             540.62,81.00 540.62,87.00 540.62,87.00
             540.38,91.69 538.49,94.98 543.00,98.00
             541.99,89.75 543.38,84.10 544.73,76.00 Z
           M 572.00,66.00
           C 575.26,66.70 575.25,66.92 578.00,65.00
             578.00,65.00 572.00,66.00 572.00,66.00 Z
           M 626.00,66.00
           C 626.00,66.00 632.00,71.00 632.00,71.00
             632.89,65.87 630.96,64.09 626.00,66.00 Z
           M 650.05,80.17
           C 650.05,80.17 650.05,73.96 650.05,73.96
             650.28,68.92 652.01,66.77 647.00,65.00
             647.00,65.00 646.00,97.00 646.00,97.00
             648.01,94.27 649.91,83.83 650.05,80.17 Z
           M 662.00,68.00
           C 662.00,68.00 668.00,65.00 668.00,65.00
             664.66,65.39 663.96,65.18 662.00,68.00 Z
           M 756.00,65.00
           C 756.96,67.29 758.44,69.50 758.69,72.01
             759.36,78.73 754.57,89.35 757.00,98.00
             757.00,98.00 760.00,97.00 760.00,97.00
             757.56,88.70 760.04,82.24 760.92,74.00
             760.92,74.00 760.92,65.00 760.92,65.00
             760.92,65.00 756.00,65.00 756.00,65.00 Z
           M 787.00,66.00
           C 787.00,66.00 793.00,71.00 793.00,71.00
             793.67,65.92 792.09,64.04 787.00,66.00 Z
           M 816.00,65.00
           C 816.00,65.00 821.00,71.00 821.00,71.00
             821.86,66.03 820.79,65.38 816.00,65.00 Z
           M 580.00,68.00
           C 580.00,68.00 581.00,69.00 581.00,69.00
             581.00,69.00 581.00,68.00 581.00,68.00
             581.00,68.00 580.00,68.00 580.00,68.00 Z
           M 469.02,78.00
           C 469.64,75.99 470.38,72.40 469.02,70.60
             468.03,69.39 466.43,69.14 465.00,69.28
             459.14,69.88 456.71,77.11 455.67,82.00
             454.88,85.71 455.00,88.28 455.00,92.00
             462.44,90.96 467.06,85.00 469.02,78.00 Z
           M 524.76,84.00
           C 524.25,87.18 523.53,93.20 529.00,90.77
             534.38,88.38 547.47,67.29 533.01,69.61
             527.04,72.87 525.77,77.66 524.76,84.00 Z
           M 618.00,80.00
           C 624.73,79.22 627.45,76.84 628.00,70.00
             620.90,70.58 619.56,73.46 618.00,80.00 Z
           M 783.98,78.83
           C 793.35,73.91 785.49,65.32 780.56,75.02
             779.76,76.60 779.41,78.29 779.00,80.00
             780.89,79.78 782.22,79.75 783.98,78.83 Z
           M 807.00,79.00
           C 814.08,80.26 816.53,76.54 817.00,70.00
             810.12,70.56 809.20,72.87 807.00,79.00 Z
           M 238.00,76.00
           C 238.00,76.00 252.00,76.00 252.00,76.00
             252.00,76.00 249.77,95.00 249.77,95.00
             249.77,95.00 249.00,108.00 249.00,108.00
             249.00,108.00 255.00,75.00 255.00,75.00
             249.87,73.54 242.61,73.02 238.00,76.00 Z
           M 449.06,92.00
           C 449.42,96.74 451.77,98.93 456.00,96.00
             449.85,90.09 452.39,85.56 453.00,78.00
             449.96,81.98 448.68,86.98 449.06,92.00 Z
           M 521.00,78.00
           C 519.77,81.77 517.85,88.08 518.23,92.00
             518.74,97.33 521.54,98.82 526.00,96.00
             519.09,90.41 520.96,85.68 523.00,78.00
             523.00,78.00 521.00,78.00 521.00,78.00 Z
           M 568.00,97.00
           C 560.81,91.17 558.73,88.51 560.00,79.00
             554.73,85.58 555.64,100.19 568.00,97.00 Z
           M 623.00,97.00
           C 615.93,92.07 617.04,93.03 614.00,85.00
             614.00,85.00 617.00,84.00 617.00,84.00
             617.00,84.00 615.00,81.00 615.00,81.00
             609.71,87.61 611.82,99.89 623.00,97.00 Z
           M 812.00,97.00
           C 806.43,93.11 802.02,90.29 806.00,83.00
             806.00,83.00 805.00,83.00 805.00,83.00
             805.00,83.00 804.00,81.00 804.00,81.00
             798.71,87.61 800.82,99.89 812.00,97.00 Z
           M 774.00,82.00
           C 772.96,89.85 772.32,100.02 784.00,97.00
             777.44,92.43 777.38,92.87 775.00,85.00
             775.00,85.00 778.00,83.00 778.00,83.00
             778.00,83.00 774.00,82.00 774.00,82.00 Z
           M 693.00,94.00
           C 693.00,94.00 701.00,98.00 701.00,98.00
             701.00,98.00 696.00,91.00 696.00,91.00
             696.00,91.00 693.00,94.00 693.00,94.00 Z
           M 272.00,97.00
           C 272.00,97.00 283.00,98.00 283.00,98.00
             283.00,98.00 283.00,96.00 283.00,96.00
             283.00,96.00 272.00,97.00 272.00,97.00 Z
           M 224.00,113.00
           C 225.43,117.00 227.08,117.06 231.00,118.00
             228.39,114.64 228.10,114.22 224.00,113.00 Z" />
</svg>
