<?xml version="1.0" encoding="UTF-8" standalone="no"?>
<!DOCTYPE svg PUBLIC "-//W3C//DTD SVG 20010904//EN"
              "http://www.w3.org/TR/2001/REC-SVG-20010904/DTD/svg10.dtd">

<svg xmlns="http://www.w3.org/2000/svg"
     width="3.7in" height="6.81111in"
     viewBox="0 0 333 613">
  <path id="Selection"
        fill="white" stroke="white" stroke-width="1"
        d="M 38.91,0.85
           C 42.10,2.25 44.87,6.35 47.13,9.00
             51.67,14.32 55.78,19.11 61.00,23.83
             61.00,23.83 93.91,48.09 93.91,48.09
             106.74,60.82 107.03,73.36 107.00,90.00
             106.99,94.40 107.06,95.64 106.00,100.00
             117.01,95.98 133.45,97.51 143.00,104.61
             146.50,107.22 149.16,110.72 152.00,114.00
             159.91,97.94 180.33,95.21 196.00,100.00
             196.00,100.00 195.00,87.00 195.00,87.00
             194.87,75.09 197.09,62.65 204.53,53.00
             213.56,41.28 229.19,35.65 242.00,23.00
             242.00,23.00 261.09,2.43 261.09,2.43
             263.46,0.57 267.81,-0.79 270.69,0.60
             273.17,1.80 272.90,4.66 273.16,7.00
             273.16,7.00 274.00,25.00 274.00,25.00
             274.00,25.00 273.09,37.00 273.09,37.00
             273.09,37.00 271.36,64.00 271.36,64.00
             270.48,69.74 264.29,90.72 261.74,96.00
             256.62,106.60 251.87,114.44 241.00,120.02
             234.89,123.15 227.79,124.45 221.00,125.00
             221.00,125.00 224.92,142.00 224.92,142.00
             224.92,142.00 224.92,166.00 224.92,166.00
             242.62,160.90 263.01,160.66 280.00,168.31
             293.53,174.41 296.84,178.92 308.00,186.00
             308.00,186.00 308.00,0.00 308.00,0.00
             308.00,0.00 332.00,0.00 332.00,0.00
             332.00,0.00 331.00,17.00 331.00,17.00
             331.00,17.00 331.00,613.00 331.00,613.00
             331.00,613.00 308.00,613.00 308.00,613.00
             308.00,613.00 308.00,241.00 308.00,241.00
             307.99,231.75 306.55,221.23 302.10,213.00
             288.61,188.07 257.79,181.52 233.00,192.44
             210.21,202.48 194.19,228.19 189.40,252.00
             188.60,255.97 187.04,266.25 187.32,270.00
             188.52,285.98 193.22,301.39 203.47,314.00
             223.80,339.02 246.26,337.31 264.56,359.00
             270.38,365.90 275.67,374.38 278.48,383.00
             285.19,403.56 280.04,433.61 262.00,447.08
             248.76,456.96 237.61,457.00 222.00,457.00
             222.00,457.00 222.00,472.00 222.00,472.00
             227.45,470.56 231.31,469.80 237.00,470.04
             271.03,471.48 280.20,508.30 283.16,536.00
             283.16,536.00 285.00,554.00 285.00,554.00
             285.00,554.00 285.00,584.00 285.00,584.00
             285.00,592.60 286.04,597.06 282.00,605.00
             282.00,605.00 280.00,605.00 280.00,605.00
             273.63,590.73 257.53,572.97 245.00,563.75
             233.73,555.47 221.76,550.51 214.26,538.00
             206.64,525.31 208.00,516.94 208.00,503.00
             197.20,510.72 180.36,516.84 167.00,517.00
             167.00,517.00 153.00,517.00 153.00,517.00
             128.13,517.00 116.81,517.53 95.00,503.00
             95.00,512.57 95.66,521.87 92.07,531.00
             84.43,550.44 63.08,557.28 49.00,571.01
             43.81,576.08 38.47,581.15 34.16,587.00
             29.38,593.48 25.41,600.99 19.00,606.00
             17.83,597.10 16.99,587.98 17.00,579.00
             17.00,579.00 18.00,562.00 18.00,562.00
             18.03,540.33 19.06,521.50 27.20,501.00
             36.46,477.70 55.01,464.78 80.00,472.00
             80.00,472.00 80.00,457.00 80.00,457.00
             65.83,457.00 54.18,456.94 42.00,448.21
             33.07,441.82 27.64,433.30 24.34,423.00
             17.33,401.12 21.55,378.73 36.32,361.00
             57.56,335.52 81.40,338.69 100.57,312.00
             111.33,297.02 115.21,282.24 115.00,264.00
             114.90,255.95 112.57,248.54 110.00,241.00
             98.53,207.32 69.44,180.62 32.00,188.67
             16.40,192.02 11.88,201.50 0.00,210.00
             0.00,210.00 0.00,190.00 0.00,190.00
             0.00,187.93 -0.11,184.92 0.60,183.00
             2.61,177.60 11.95,172.71 17.00,170.26
             28.16,164.83 46.62,160.98 59.00,162.17
             59.00,162.17 77.00,165.00 77.00,165.00
             77.00,150.61 76.02,138.66 82.00,125.00
             76.57,124.88 67.93,123.84 63.00,121.65
             52.90,117.17 46.50,108.63 41.76,99.00
             33.56,82.38 31.19,63.25 29.91,45.00
             29.91,45.00 29.00,33.00 29.00,33.00
             29.00,33.00 29.00,15.00 29.00,15.00
             29.00,15.00 30.00,0.00 30.00,0.00
             32.69,0.00 36.46,-0.22 38.91,0.85 Z
           M 0.00,21.00
           C 0.00,21.00 1.00,16.00 1.00,16.00
             1.00,16.00 0.00,21.00 0.00,21.00 Z
           M 44.92,54.00
           C 46.25,65.78 49.73,85.39 56.63,95.00
             60.55,100.44 68.84,107.61 76.00,105.00
             70.26,102.38 66.01,98.86 62.00,94.00
             62.00,94.00 75.00,95.00 75.00,95.00
             69.29,83.38 62.16,83.39 54.00,72.00
             54.00,72.00 60.00,73.00 60.00,73.00
             60.00,73.00 53.00,55.00 53.00,55.00
             53.00,55.00 69.00,66.00 69.00,66.00
             69.00,66.00 73.00,61.00 73.00,61.00
             75.96,70.10 75.82,81.26 83.00,88.00
             83.00,88.00 84.00,77.00 84.00,77.00
             84.00,77.00 93.00,93.00 93.00,93.00
             94.77,84.05 90.64,74.94 85.18,68.00
             75.57,55.80 58.37,46.61 44.92,39.00
             43.10,43.78 44.25,49.04 44.92,54.00 Z
           M 216.02,70.00
           C 210.90,76.55 206.70,85.69 210.00,94.00
             212.53,86.78 213.81,84.71 219.00,79.00
             219.00,79.00 221.00,88.00 221.00,88.00
             225.80,76.86 227.33,73.36 229.00,61.00
             230.31,61.95 232.61,63.92 234.17,64.12
             237.53,64.54 246.22,57.22 249.00,55.00
             249.00,55.00 242.00,73.00 242.00,73.00
             242.00,73.00 248.00,72.00 248.00,72.00
             240.20,84.26 231.65,84.31 228.00,95.00
             228.00,95.00 241.00,94.00 241.00,94.00
             241.00,94.00 227.00,106.00 227.00,106.00
             232.34,105.52 236.78,104.21 240.96,100.66
             252.09,91.21 257.06,65.19 258.02,51.00
             258.02,51.00 259.00,39.00 259.00,39.00
             244.97,43.90 225.08,58.38 216.02,70.00 Z
           M 139.00,158.10
           C 128.24,164.03 114.21,161.06 109.23,149.00
             105.73,140.53 113.58,134.30 118.99,135.47
             124.96,136.77 126.56,145.55 131.79,144.12
             136.58,142.81 136.22,134.68 135.24,131.00
             130.94,114.96 110.25,112.81 100.39,125.02
             92.24,135.11 93.85,152.60 94.00,165.00
             94.15,177.16 99.37,178.64 106.83,187.00
             111.23,191.93 115.14,198.15 118.22,204.00
             132.21,230.57 137.33,264.87 129.26,294.00
             125.06,309.13 116.73,323.30 105.00,333.83
             101.22,337.22 97.13,339.83 93.00,342.72
             74.76,355.49 59.04,365.29 50.02,387.00
             44.66,399.90 43.87,412.82 51.47,425.00
             56.26,432.70 62.07,435.89 71.00,436.00
             77.37,436.07 82.33,435.94 88.00,432.52
             97.10,427.03 102.67,412.47 96.30,403.00
             90.20,393.94 79.30,394.82 77.84,399.23
             75.88,405.17 86.48,408.61 83.95,416.00
             80.85,425.04 70.46,429.95 63.53,421.89
             52.05,408.56 60.45,387.27 75.00,380.00
             81.81,376.59 90.26,377.98 97.00,380.88
             111.93,387.29 122.37,400.45 121.99,417.00
             121.77,426.44 117.00,432.41 114.00,441.00
             134.12,456.05 132.19,465.98 139.70,487.00
             139.70,487.00 150.00,511.00 150.00,511.00
             154.58,508.06 156.70,500.88 158.86,496.00
             158.86,496.00 173.88,456.00 173.88,456.00
             176.30,451.83 178.50,449.44 182.00,446.17
             184.18,444.13 187.09,442.28 187.16,438.99
             187.22,436.11 183.24,429.31 182.10,426.00
             178.60,415.88 179.96,405.84 186.05,397.00
             193.04,386.86 207.16,377.20 220.00,378.10
             226.39,378.54 230.60,381.57 234.96,386.02
             237.40,388.50 239.41,390.94 241.10,394.00
             242.95,397.37 244.35,402.17 244.67,406.00
             245.31,413.49 239.69,426.32 231.00,426.32
             225.54,426.32 215.21,418.13 219.17,410.00
             221.08,406.09 226.03,403.03 224.60,399.13
             222.56,393.57 212.08,394.80 206.80,402.04
             199.76,411.71 205.25,426.98 215.00,432.78
             220.67,436.15 225.68,436.07 232.00,436.00
             248.59,435.80 256.87,420.01 256.25,405.00
             255.46,385.59 243.85,368.47 229.00,356.67
             229.00,356.67 199.00,334.91 199.00,334.91
             178.41,315.97 170.11,293.55 169.04,266.00
             168.86,261.45 169.42,260.12 169.83,256.00
             171.68,237.52 175.72,219.42 184.86,203.00
             187.81,197.70 191.13,192.54 195.17,188.00
             198.85,183.87 205.21,178.07 207.30,173.00
             209.58,167.49 209.03,156.24 209.00,150.00
             208.96,141.05 206.86,128.71 199.82,122.53
             189.12,113.13 171.09,116.47 167.16,131.00
             166.09,134.96 165.84,142.93 171.07,144.26
             176.60,145.65 178.78,132.93 187.00,135.76
             197.16,139.25 194.57,151.17 187.96,156.61
             175.48,166.87 159.62,158.99 152.00,147.00
             147.12,151.03 144.91,154.84 139.00,158.10 Z
           M 40.01,231.00
           C 40.47,212.71 63.57,213.44 70.57,222.10
             75.55,228.27 71.97,239.24 70.00,246.00
             76.04,243.60 84.14,240.78 89.90,245.43
             98.02,251.99 98.83,274.59 88.96,279.83
             83.45,282.75 75.41,279.80 70.25,278.00
             72.71,284.38 75.13,295.92 70.25,301.90
             64.49,309.62 45.79,310.33 41.09,299.96
             38.28,293.77 41.00,284.11 43.00,278.00
             37.41,280.71 27.47,283.11 22.21,278.57
             14.50,271.92 14.65,248.17 25.02,243.85
             30.31,241.65 36.92,244.31 42.00,246.00
             40.65,239.31 39.84,238.24 40.01,231.00 Z
           M 231.70,222.19
           C 238.15,213.74 261.28,212.58 262.81,230.00
             263.20,234.41 261.26,242.64 260.00,247.00
             265.45,243.99 273.08,240.87 278.89,244.74
             288.54,251.04 287.71,274.46 278.89,279.55
             273.45,282.62 265.61,280.13 260.14,279.00
             262.00,285.92 264.89,295.43 260.14,301.90
             254.57,309.89 236.01,309.38 231.14,300.96
             226.98,293.77 230.35,285.34 232.00,278.00
             226.49,280.12 218.50,282.84 213.04,279.26
             203.56,273.04 204.01,249.77 214.04,244.45
             220.05,241.27 227.11,244.04 233.00,246.00
             230.08,239.33 226.77,228.64 231.70,222.19 Z
           M 61.75,239.00
           C 62.48,236.53 63.55,232.74 61.75,230.31
             59.91,227.14 53.85,227.55 51.61,230.31
             48.01,234.78 54.01,244.43 57.00,248.00
             57.00,248.00 61.75,239.00 61.75,239.00 Z
           M 251.40,231.15
           C 249.47,226.56 241.13,227.26 239.77,232.06
             238.64,236.03 243.05,243.58 245.00,247.00
             245.00,247.00 247.00,247.00 247.00,247.00
             249.13,242.95 253.38,235.86 251.40,231.15 Z
           M 42.00,246.00
           C 42.00,246.00 43.00,247.00 43.00,247.00
             43.00,247.00 43.00,246.00 43.00,246.00
             43.00,246.00 42.00,246.00 42.00,246.00 Z
           M 33.02,268.63
           C 36.46,268.58 43.30,264.30 41.75,260.20
             40.50,256.88 35.18,255.11 32.04,254.94
             24.26,258.48 26.66,268.73 33.02,268.63 Z
           M 263.11,265.77
           C 264.26,266.83 265.53,267.72 267.00,268.26
             277.08,271.96 277.16,255.24 269.96,254.82
             268.29,254.72 266.45,255.59 265.00,256.33
             265.00,256.33 259.00,260.00 259.00,260.00
             260.26,262.33 261.09,263.93 263.11,265.77 Z
           M 71.17,261.10
           C 69.32,265.86 77.69,269.58 80.96,269.24
             86.65,268.65 89.02,257.23 79.98,255.73
             76.89,256.30 72.44,257.83 71.17,261.10 Z
           M 222.02,269.36
           C 224.90,269.58 232.80,266.50 231.16,261.10
             230.01,257.34 225.42,256.06 222.02,255.76
             213.20,258.43 215.90,268.89 222.02,269.36 Z
           M 232.00,277.00
           C 232.00,277.00 233.00,278.00 233.00,278.00
             233.00,278.00 233.00,277.00 233.00,277.00
             233.00,277.00 232.00,277.00 232.00,277.00 Z
           M 51.21,285.00
           C 50.51,287.47 49.47,291.30 51.21,293.63
             53.01,296.73 58.99,296.49 61.22,293.63
             62.19,291.78 61.92,288.99 61.22,287.00
             61.13,285.48 60.37,283.39 59.59,282.06
             58.12,279.56 57.41,279.28 55.00,278.00
             53.50,280.43 52.35,282.28 51.21,285.00 Z
           M 243.00,282.06
           C 242.09,283.44 241.34,285.40 240.93,287.00
             238.31,297.20 248.93,296.99 251.01,294.40
             252.66,292.27 251.85,287.37 251.01,285.00
             251.01,285.00 248.00,278.00 248.00,278.00
             245.53,279.24 244.61,279.61 243.00,282.06 Z
           M 117.22,465.00
           C 113.67,458.32 109.96,452.92 102.00,452.00
             102.00,452.00 108.00,460.00 108.00,460.00
             108.00,460.00 103.00,460.00 103.00,460.00
             104.22,462.52 104.67,463.57 107.06,465.30
             109.89,467.36 119.36,469.55 113.00,474.00
             113.00,474.00 118.00,487.00 118.00,487.00
             118.00,487.00 110.00,482.00 110.00,482.00
             110.00,482.00 109.00,485.00 109.00,485.00
             109.00,485.00 97.00,468.00 97.00,468.00
             97.00,468.00 95.00,478.00 95.00,478.00
             95.00,478.00 93.00,475.00 93.00,475.00
             95.74,492.44 114.18,500.57 130.00,503.00
             127.68,490.66 123.11,476.08 117.22,465.00 Z
           M 185.26,465.00
           C 180.28,474.69 173.50,492.19 173.00,503.00
             183.53,501.37 197.90,495.48 204.61,487.00
             207.94,482.80 210.94,476.29 209.00,471.00
             209.00,471.00 205.00,478.00 205.00,478.00
             205.00,478.00 204.00,469.00 204.00,469.00
             204.00,469.00 196.00,483.00 196.00,483.00
             196.00,483.00 193.00,481.00 193.00,481.00
             193.00,481.00 185.00,485.00 185.00,485.00
             189.06,477.65 189.03,476.70 186.00,469.00
             192.55,467.46 196.28,465.79 200.00,460.00
             200.00,460.00 194.00,460.00 194.00,460.00
             194.00,460.00 201.00,452.00 201.00,452.00
             192.22,452.94 189.08,457.58 185.26,465.00 Z
           M 40.78,507.00
           C 34.37,520.62 32.00,540.03 32.00,555.00
             38.07,553.86 42.88,550.64 48.00,547.31
             57.65,541.02 68.95,532.43 75.56,523.00
             79.18,517.84 83.42,509.31 81.00,503.00
             81.00,503.00 72.00,517.00 72.00,517.00
             72.00,517.00 69.00,508.00 69.00,508.00
             62.29,523.58 64.21,517.28 62.00,534.00
             60.44,533.01 57.80,531.08 56.00,530.88
             52.38,530.48 43.94,537.65 41.00,540.00
             41.00,540.00 48.00,522.00 48.00,522.00
             48.00,522.00 43.00,523.00 43.00,523.00
             50.88,509.51 56.47,513.30 63.00,500.00
             63.00,500.00 49.00,501.00 49.00,501.00
             49.00,501.00 63.00,489.00 63.00,489.00
             50.95,490.09 45.66,496.64 40.78,507.00 Z
           M 259.12,502.00
           C 255.45,495.69 247.06,487.06 239.00,490.00
             244.74,492.62 248.99,496.14 253.00,501.00
             253.00,501.00 240.00,500.00 240.00,500.00
             244.84,512.35 252.70,509.18 259.00,523.00
             259.00,523.00 255.00,522.00 255.00,522.00
             255.00,522.00 262.00,540.00 262.00,540.00
             262.00,540.00 246.00,529.00 246.00,529.00
             246.00,529.00 240.00,534.00 240.00,534.00
             239.92,524.67 238.48,514.13 232.00,507.00
             232.00,507.00 230.00,516.00 230.00,516.00
             230.00,516.00 221.00,502.00 221.00,502.00
             221.02,508.02 221.36,512.39 223.90,518.00
             230.90,533.43 255.64,549.38 271.00,556.00
             269.52,537.73 268.61,518.28 259.12,502.00 Z
           M 31.00,555.00
           C 31.00,555.00 32.00,556.00 32.00,556.00
             32.00,556.00 32.00,555.00 32.00,555.00
             32.00,555.00 31.00,555.00 31.00,555.00 Z
           M 15.00,613.00
           C 15.00,613.00 11.00,609.00 11.00,609.00
             11.00,609.00 15.00,613.00 15.00,613.00 Z" />
</svg>
