<?xml version="1.0" encoding="UTF-8" standalone="no"?>
<!DOCTYPE svg PUBLIC "-//W3C//DTD SVG 20010904//EN"
              "http://www.w3.org/TR/2001/REC-SVG-20010904/DTD/svg10.dtd">

<svg xmlns="http://www.w3.org/2000/svg"
     width="3.7in" height="6.81111in"
     viewBox="0 0 333 613">
  <path id="Selection"
        fill="white" stroke="white" stroke-width="1"
        d="M 294.09,612.15
           C 290.90,610.75 288.13,606.65 285.87,604.00
             281.33,598.68 277.22,593.89 272.00,589.17
             272.00,589.17 239.09,564.91 239.09,564.91
             226.26,552.18 225.97,539.64 226.00,523.00
             226.01,518.60 225.94,517.36 227.00,513.00
             215.99,517.02 199.55,515.49 190.00,508.39
             186.50,505.78 183.84,502.28 181.00,499.00
             173.09,515.06 152.67,517.79 137.00,513.00
             137.00,513.00 138.00,526.00 138.00,526.00
             138.13,537.91 135.91,550.35 128.47,560.00
             119.44,571.72 103.81,577.35 91.00,590.00
             91.00,590.00 71.91,610.57 71.91,610.57
             69.54,612.43 65.19,613.79 62.31,612.40
             59.83,611.20 60.10,608.34 59.84,606.00
             59.84,606.00 59.00,588.00 59.00,588.00
             59.00,588.00 59.91,576.00 59.91,576.00
             59.91,576.00 61.64,549.00 61.64,549.00
             62.52,543.26 68.71,522.28 71.26,517.00
             76.38,506.40 81.13,498.56 92.00,492.98
             98.11,489.85 105.21,488.55 112.00,488.00
             112.00,488.00 108.08,471.00 108.08,471.00
             108.08,471.00 108.08,447.00 108.08,447.00
             90.38,452.10 69.99,452.34 53.00,444.69
             39.47,438.59 36.16,434.08 25.00,427.00
             25.00,427.00 25.00,613.00 25.00,613.00
             25.00,613.00 1.00,613.00 1.00,613.00
             1.00,613.00 2.00,596.00 2.00,596.00
             2.00,596.00 2.00,0.00 2.00,0.00
             2.00,0.00 25.00,0.00 25.00,0.00
             25.00,0.00 25.00,372.00 25.00,372.00
             25.01,381.25 26.45,391.77 30.90,400.00
             44.39,424.93 75.21,431.48 100.00,420.56
             122.79,410.52 138.81,384.81 143.60,361.00
             144.40,357.03 145.96,346.75 145.68,343.00
             144.48,327.02 139.78,311.61 129.53,299.00
             109.20,273.98 86.74,275.69 68.44,254.00
             62.62,247.10 57.33,238.62 54.52,230.00
             47.81,209.44 52.96,179.39 71.00,165.92
             84.24,156.04 95.39,156.00 111.00,156.00
             111.00,156.00 111.00,141.00 111.00,141.00
             105.55,142.44 101.69,143.20 96.00,142.96
             61.97,141.52 52.80,104.70 49.84,77.00
             49.84,77.00 48.00,59.00 48.00,59.00
             48.00,59.00 48.00,29.00 48.00,29.00
             48.00,20.40 46.96,15.94 51.00,8.00
             51.00,8.00 53.00,8.00 53.00,8.00
             59.37,22.27 75.47,40.03 88.00,49.25
             99.27,57.53 111.24,62.49 118.74,75.00
             126.36,87.69 125.00,96.06 125.00,110.00
             135.80,102.28 152.64,96.16 166.00,96.00
             166.00,96.00 180.00,96.00 180.00,96.00
             204.87,96.00 216.19,95.47 238.00,110.00
             238.00,100.43 237.34,91.13 240.93,82.00
             248.57,62.56 269.92,55.72 284.00,41.99
             289.19,36.92 294.53,31.85 298.84,26.00
             303.62,19.52 307.59,12.01 314.00,7.00
             315.17,15.90 316.01,25.02 316.00,34.00
             316.00,34.00 315.00,51.00 315.00,51.00
             314.97,72.67 313.94,91.50 305.80,112.00
             296.54,135.30 277.99,148.22 253.00,141.00
             253.00,141.00 253.00,156.00 253.00,156.00
             267.17,156.00 278.82,156.06 291.00,164.79
             299.93,171.18 305.36,179.70 308.66,190.00
             315.67,211.88 311.45,234.27 296.68,252.00
             275.44,277.48 251.60,274.31 232.43,301.00
             221.67,315.98 217.79,330.76 218.00,349.00
             218.10,357.05 220.43,364.46 223.00,372.00
             234.47,405.68 263.56,432.38 301.00,424.33
             316.60,420.98 321.12,411.50 333.00,403.00
             333.00,403.00 333.00,423.00 333.00,423.00
             333.00,425.07 333.11,428.08 332.40,430.00
             330.39,435.40 321.05,440.29 316.00,442.74
             304.84,448.17 286.38,452.02 274.00,450.83
             274.00,450.83 256.00,448.00 256.00,448.00
             256.00,462.39 256.98,474.34 251.00,488.00
             256.43,488.12 265.07,489.16 270.00,491.35
             280.10,495.83 286.50,504.37 291.24,514.00
             299.44,530.62 301.81,549.75 303.09,568.00
             303.09,568.00 304.00,580.00 304.00,580.00
             304.00,580.00 304.00,598.00 304.00,598.00
             304.00,598.00 303.00,613.00 303.00,613.00
             300.31,613.00 296.54,613.22 294.09,612.15 Z
           M 333.00,592.00
           C 333.00,592.00 332.00,597.00 332.00,597.00
             332.00,597.00 333.00,592.00 333.00,592.00 Z
           M 288.08,559.00
           C 286.75,547.22 283.27,527.61 276.37,518.00
             272.45,512.56 264.16,505.39 257.00,508.00
             262.74,510.62 266.99,514.14 271.00,519.00
             271.00,519.00 258.00,518.00 258.00,518.00
             263.71,529.62 270.84,529.61 279.00,541.00
             279.00,541.00 273.00,540.00 273.00,540.00
             273.00,540.00 280.00,558.00 280.00,558.00
             280.00,558.00 264.00,547.00 264.00,547.00
             264.00,547.00 260.00,552.00 260.00,552.00
             257.04,542.90 257.18,531.74 250.00,525.00
             250.00,525.00 249.00,536.00 249.00,536.00
             249.00,536.00 240.00,520.00 240.00,520.00
             238.23,528.95 242.36,538.06 247.82,545.00
             257.43,557.20 274.63,566.39 288.08,574.00
             289.90,569.22 288.75,563.96 288.08,559.00 Z
           M 116.98,543.00
           C 122.10,536.45 126.30,527.31 123.00,519.00
             120.47,526.22 119.19,528.29 114.00,534.00
             114.00,534.00 112.00,525.00 112.00,525.00
             107.20,536.14 105.67,539.64 104.00,552.00
             102.69,551.05 100.39,549.08 98.83,548.88
             95.47,548.46 86.78,555.78 84.00,558.00
             84.00,558.00 91.00,540.00 91.00,540.00
             91.00,540.00 85.00,541.00 85.00,541.00
             92.80,528.74 101.35,528.69 105.00,518.00
             105.00,518.00 92.00,519.00 92.00,519.00
             92.00,519.00 106.00,507.00 106.00,507.00
             100.66,507.48 96.22,508.79 92.04,512.34
             80.91,521.79 75.94,547.81 74.98,562.00
             74.98,562.00 74.00,574.00 74.00,574.00
             88.03,569.10 107.92,554.62 116.98,543.00 Z
           M 194.00,454.90
           C 204.76,448.97 218.79,451.94 223.77,464.00
             227.27,472.47 219.42,478.70 214.01,477.53
             208.04,476.23 206.44,467.45 201.21,468.88
             196.42,470.19 196.78,478.32 197.76,482.00
             202.06,498.04 222.75,500.19 232.61,487.98
             240.76,477.89 239.15,460.40 239.00,448.00
             238.85,435.84 233.63,434.36 226.17,426.00
             221.77,421.07 217.86,414.85 214.78,409.00
             200.79,382.43 195.67,348.13 203.74,319.00
             207.94,303.87 216.27,289.70 228.00,279.17
             231.78,275.78 235.87,273.17 240.00,270.28
             258.24,257.51 273.96,247.71 282.98,226.00
             288.34,213.10 289.13,200.18 281.53,188.00
             276.74,180.30 270.93,177.11 262.00,177.00
             255.63,176.93 250.67,177.06 245.00,180.48
             235.90,185.97 230.33,200.53 236.70,210.00
             242.80,219.06 253.70,218.18 255.16,213.77
             257.12,207.83 246.52,204.39 249.05,197.00
             252.15,187.96 262.54,183.05 269.47,191.11
             280.95,204.44 272.55,225.73 258.00,233.00
             251.19,236.41 242.74,235.02 236.00,232.12
             221.07,225.71 210.63,212.55 211.01,196.00
             211.23,186.56 216.00,180.59 219.00,172.00
             198.88,156.95 200.81,147.02 193.30,126.00
             193.30,126.00 183.00,102.00 183.00,102.00
             178.42,104.94 176.30,112.12 174.14,117.00
             174.14,117.00 159.12,157.00 159.12,157.00
             156.70,161.17 154.50,163.56 151.00,166.83
             148.82,168.87 145.91,170.72 145.84,174.01
             145.78,176.89 149.76,183.69 150.90,187.00
             154.40,197.12 153.04,207.16 146.95,216.00
             139.96,226.14 125.84,235.80 113.00,234.90
             106.61,234.46 102.40,231.43 98.04,226.98
             95.60,224.50 93.59,222.06 91.90,219.00
             90.05,215.63 88.65,210.83 88.33,207.00
             87.69,199.51 93.31,186.68 102.00,186.68
             107.46,186.68 117.79,194.87 113.83,203.00
             111.92,206.91 106.97,209.97 108.40,213.87
             110.44,219.43 120.92,218.20 126.20,210.96
             133.24,201.29 127.75,186.02 118.00,180.22
             112.33,176.85 107.32,176.93 101.00,177.00
             84.41,177.20 76.13,192.99 76.75,208.00
             77.54,227.41 89.15,244.53 104.00,256.33
             104.00,256.33 134.00,278.09 134.00,278.09
             154.59,297.03 162.89,319.45 163.96,347.00
             164.14,351.55 163.58,352.88 163.17,357.00
             161.32,375.48 157.28,393.58 148.14,410.00
             145.19,415.30 141.87,420.46 137.83,425.00
             134.15,429.13 127.79,434.93 125.70,440.00
             123.42,445.51 123.97,456.76 124.00,463.00
             124.04,471.95 126.14,484.29 133.18,490.47
             143.88,499.87 161.91,496.53 165.84,482.00
             166.91,478.04 167.16,470.07 161.93,468.74
             156.40,467.35 154.22,480.07 146.00,477.24
             135.84,473.75 138.43,461.83 145.04,456.39
             157.52,446.13 173.38,454.01 181.00,466.00
             185.88,461.97 188.09,458.16 194.00,454.90 Z
           M 292.99,382.00
           C 292.53,400.29 269.43,399.56 262.43,390.90
             257.45,384.73 261.03,373.76 263.00,367.00
             256.96,369.40 248.86,372.22 243.10,367.57
             234.98,361.01 234.17,338.41 244.04,333.17
             249.55,330.25 257.59,333.20 262.75,335.00
             260.29,328.62 257.87,317.08 262.75,311.10
             268.51,303.38 287.21,302.67 291.91,313.04
             294.72,319.23 292.00,328.89 290.00,335.00
             295.59,332.29 305.53,329.89 310.79,334.43
             318.50,341.08 318.35,364.83 307.98,369.15
             302.69,371.35 296.08,368.69 291.00,367.00
             292.35,373.69 293.16,374.76 292.99,382.00 Z
           M 101.30,390.81
           C 94.85,399.26 71.72,400.42 70.19,383.00
             69.80,378.59 71.74,370.36 73.00,366.00
             67.55,369.01 59.92,372.13 54.11,368.26
             44.46,361.96 45.29,338.54 54.11,333.45
             59.55,330.38 67.39,332.87 72.86,334.00
             71.00,327.08 68.11,317.57 72.86,311.10
             78.43,303.11 96.99,303.62 101.86,312.04
             106.02,319.23 102.65,327.66 101.00,335.00
             106.51,332.88 114.50,330.16 119.96,333.74
             129.44,339.96 128.99,363.23 118.96,368.55
             112.95,371.73 105.89,368.96 100.00,367.00
             102.92,373.67 106.23,384.36 101.30,390.81 Z
           M 271.25,374.00
           C 270.52,376.47 269.45,380.26 271.25,382.69
             273.09,385.86 279.15,385.45 281.39,382.69
             284.99,378.22 278.99,368.57 276.00,365.00
             276.00,365.00 271.25,374.00 271.25,374.00 Z
           M 81.60,381.85
           C 83.53,386.44 91.87,385.74 93.23,380.94
             94.36,376.97 89.95,369.42 88.00,366.00
             88.00,366.00 86.00,366.00 86.00,366.00
             83.87,370.05 79.62,377.14 81.60,381.85 Z
           M 291.00,367.00
           C 291.00,367.00 290.00,366.00 290.00,366.00
             290.00,366.00 290.00,367.00 290.00,367.00
             290.00,367.00 291.00,367.00 291.00,367.00 Z
           M 299.98,344.37
           C 296.54,344.42 289.70,348.70 291.25,352.80
             292.50,356.12 297.82,357.89 300.96,358.06
             308.74,354.52 306.34,344.27 299.98,344.37 Z
           M 69.89,347.23
           C 68.74,346.17 67.47,345.28 66.00,344.74
             55.92,341.04 55.84,357.76 63.04,358.18
             64.71,358.28 66.55,357.41 68.00,356.67
             68.00,356.67 74.00,353.00 74.00,353.00
             72.74,350.67 71.91,349.07 69.89,347.23 Z
           M 261.83,351.90
           C 263.68,347.14 255.31,343.42 252.04,343.76
             246.35,344.35 243.98,355.77 253.02,357.27
             256.11,356.70 260.56,355.17 261.83,351.90 Z
           M 110.98,343.64
           C 108.10,343.42 100.20,346.50 101.84,351.90
             102.99,355.66 107.58,356.94 110.98,357.24
             119.80,354.57 117.10,344.11 110.98,343.64 Z
           M 101.00,336.00
           C 101.00,336.00 100.00,335.00 100.00,335.00
             100.00,335.00 100.00,336.00 100.00,336.00
             100.00,336.00 101.00,336.00 101.00,336.00 Z
           M 281.79,328.00
           C 282.49,325.53 283.53,321.70 281.79,319.37
             279.99,316.27 274.01,316.51 271.78,319.37
             270.81,321.22 271.08,324.01 271.78,326.00
             271.87,327.52 272.63,329.61 273.41,330.94
             274.88,333.44 275.59,333.72 278.00,335.00
             279.50,332.57 280.65,330.72 281.79,328.00 Z
           M 90.00,330.94
           C 90.91,329.56 91.66,327.60 92.07,326.00
             94.69,315.80 84.07,316.01 81.99,318.60
             80.34,320.73 81.15,325.63 81.99,328.00
             81.99,328.00 85.00,335.00 85.00,335.00
             87.47,333.76 88.39,333.39 90.00,330.94 Z
           M 215.78,148.00
           C 219.33,154.68 223.04,160.08 231.00,161.00
             231.00,161.00 225.00,153.00 225.00,153.00
             225.00,153.00 230.00,153.00 230.00,153.00
             228.78,150.48 228.33,149.43 225.94,147.70
             223.11,145.64 213.64,143.45 220.00,139.00
             220.00,139.00 215.00,126.00 215.00,126.00
             215.00,126.00 223.00,131.00 223.00,131.00
             223.00,131.00 224.00,128.00 224.00,128.00
             224.00,128.00 236.00,145.00 236.00,145.00
             236.00,145.00 238.00,135.00 238.00,135.00
             238.00,135.00 240.00,138.00 240.00,138.00
             237.26,120.56 218.82,112.43 203.00,110.00
             205.32,122.34 209.89,136.92 215.78,148.00 Z
           M 147.74,148.00
           C 152.72,138.31 159.50,120.81 160.00,110.00
             149.47,111.63 135.10,117.52 128.39,126.00
             125.06,130.20 122.06,136.71 124.00,142.00
             124.00,142.00 128.00,135.00 128.00,135.00
             128.00,135.00 129.00,144.00 129.00,144.00
             129.00,144.00 137.00,130.00 137.00,130.00
             137.00,130.00 140.00,132.00 140.00,132.00
             140.00,132.00 148.00,128.00 148.00,128.00
             143.94,135.35 143.97,136.30 147.00,144.00
             140.45,145.54 136.72,147.21 133.00,153.00
             133.00,153.00 139.00,153.00 139.00,153.00
             139.00,153.00 132.00,161.00 132.00,161.00
             140.78,160.06 143.92,155.42 147.74,148.00 Z
           M 292.22,106.00
           C 298.63,92.38 301.00,72.97 301.00,58.00
             294.93,59.14 290.12,62.36 285.00,65.69
             275.35,71.98 264.05,80.57 257.44,90.00
             253.82,95.16 249.58,103.69 252.00,110.00
             252.00,110.00 261.00,96.00 261.00,96.00
             261.00,96.00 264.00,105.00 264.00,105.00
             270.71,89.42 268.79,95.72 271.00,79.00
             272.56,79.99 275.20,81.92 277.00,82.12
             280.62,82.52 289.06,75.35 292.00,73.00
             292.00,73.00 285.00,91.00 285.00,91.00
             285.00,91.00 290.00,90.00 290.00,90.00
             282.12,103.49 276.53,99.70 270.00,113.00
             270.00,113.00 284.00,112.00 284.00,112.00
             284.00,112.00 270.00,124.00 270.00,124.00
             282.05,122.91 287.34,116.36 292.22,106.00 Z
           M 73.88,111.00
           C 77.55,117.31 85.94,125.94 94.00,123.00
             88.26,120.38 84.01,116.86 80.00,112.00
             80.00,112.00 93.00,113.00 93.00,113.00
             88.16,100.65 80.30,103.82 74.00,90.00
             74.00,90.00 78.00,91.00 78.00,91.00
             78.00,91.00 71.00,73.00 71.00,73.00
             71.00,73.00 87.00,84.00 87.00,84.00
             87.00,84.00 93.00,79.00 93.00,79.00
             93.08,88.33 94.52,98.87 101.00,106.00
             101.00,106.00 103.00,97.00 103.00,97.00
             103.00,97.00 112.00,111.00 112.00,111.00
             111.98,104.98 111.64,100.61 109.10,95.00
             102.10,79.57 77.36,63.62 62.00,57.00
             63.48,75.27 64.39,94.72 73.88,111.00 Z
           M 302.00,58.00
           C 302.00,58.00 301.00,57.00 301.00,57.00
             301.00,57.00 301.00,58.00 301.00,58.00
             301.00,58.00 302.00,58.00 302.00,58.00 Z
           M 318.00,0.00
           C 318.00,0.00 322.00,4.00 322.00,4.00
             322.00,4.00 318.00,0.00 318.00,0.00 Z" />
</svg>
