<?xml version="1.0" encoding="UTF-8" standalone="no"?>
<!DOCTYPE svg PUBLIC "-//W3C//DTD SVG 20010904//EN"
              "http://www.w3.org/TR/2001/REC-SVG-20010904/DTD/svg10.dtd">

<svg xmlns="http://www.w3.org/2000/svg"
     width="10.4167in" height="3.19444in"
     viewBox="0 0 750 230">
  <path id="Selection"
        fill="#5d7f7f" stroke="#5d7f7f" stroke-width="1"
        d="M 339.00,15.00
           C 341.79,17.18 342.77,17.60 346.00,16.00
             347.87,22.73 349.90,21.55 348.00,28.00
             348.00,28.00 352.00,29.00 352.00,29.00
             352.00,29.00 349.00,34.00 349.00,34.00
             349.00,34.00 356.00,35.00 356.00,35.00
             356.00,35.00 354.24,41.91 354.24,41.91
             354.24,41.91 363.99,52.00 363.99,52.00
             363.99,52.00 379.00,71.00 379.00,71.00
             380.79,66.53 382.45,59.93 388.04,59.16
             388.04,59.16 401.00,60.00 401.00,60.00
             398.57,71.42 390.88,69.72 382.00,69.00
             382.00,87.95 380.85,108.05 374.31,126.00
             368.70,141.38 360.64,143.46 360.00,155.00
             348.69,153.63 349.33,161.46 341.00,166.00
             340.65,167.81 340.92,168.14 339.59,169.79
             336.16,174.07 322.61,178.03 316.00,182.79
             308.99,187.83 307.02,190.09 312.00,197.00
             309.75,199.38 308.03,201.09 306.41,204.00
             302.20,211.57 300.12,230.49 287.00,222.00
             298.75,221.31 301.91,211.18 302.00,201.00
             302.00,201.00 296.00,202.00 296.00,202.00
             296.29,192.93 299.29,197.07 303.15,191.78
             305.17,189.01 304.70,185.87 308.36,181.52
             314.50,174.22 321.87,174.47 325.00,162.00
             320.35,161.58 318.46,161.29 315.00,158.00
             315.00,158.00 325.00,155.00 325.00,155.00
             318.56,142.44 321.41,139.86 322.00,127.00
             328.35,129.84 333.26,129.57 333.00,121.00
             333.00,121.00 342.00,127.00 342.00,127.00
             342.00,127.00 342.00,119.00 342.00,119.00
             342.00,119.00 348.04,125.69 348.04,125.69
             348.04,125.69 357.00,129.00 357.00,129.00
             357.00,129.00 343.00,127.00 343.00,127.00
             343.00,127.00 351.00,138.00 351.00,138.00
             356.46,134.50 357.61,133.58 358.00,127.00
             359.39,126.92 360.12,127.25 361.44,126.22
             363.97,124.28 366.66,115.22 367.00,112.00
             362.87,113.55 360.30,114.69 356.00,113.00
             363.82,112.61 367.86,110.18 369.00,102.00
             369.00,102.00 346.00,108.00 346.00,108.00
             346.00,108.00 349.00,112.00 349.00,112.00
             349.00,112.00 343.00,113.00 343.00,113.00
             339.25,107.39 334.11,111.43 329.09,110.12
             325.61,109.21 326.04,106.81 320.00,105.00
             322.34,111.23 322.87,113.81 320.00,120.00
             320.00,120.00 318.00,120.00 318.00,120.00
             314.84,112.04 313.63,108.46 316.00,100.00
             316.00,100.00 311.00,101.00 311.00,101.00
             311.00,101.00 310.00,100.00 310.00,100.00
             310.00,100.00 314.00,73.00 314.00,73.00
             314.00,73.00 303.00,77.00 303.00,77.00
             305.49,70.28 307.00,68.50 314.00,67.00
             313.29,61.22 316.97,59.18 322.00,57.39
             334.40,52.95 337.46,62.26 351.00,68.00
             351.00,68.00 352.00,65.00 352.00,65.00
             352.00,65.00 357.00,68.00 357.00,68.00
             354.85,70.70 352.63,73.27 353.13,77.00
             353.81,82.08 358.45,85.33 362.85,81.57
             366.87,78.13 364.84,75.04 363.37,71.00
             360.59,63.41 359.25,56.08 350.00,55.00
             350.00,55.00 352.00,50.00 352.00,50.00
             348.20,48.37 340.93,44.53 337.00,44.71
             331.80,44.95 319.97,52.49 315.47,49.97
             313.88,49.08 312.99,47.44 312.00,46.00
             312.00,46.00 337.00,15.00 337.00,15.00
             337.00,15.00 339.00,15.00 339.00,15.00 Z
           M 326.00,42.00
           C 329.84,47.82 335.87,44.84 337.00,38.00
             337.00,38.00 326.00,42.00 326.00,42.00 Z
           M 339.96,64.53
           C 336.57,61.78 326.66,56.55 322.39,59.06
             319.15,60.97 317.26,69.41 316.62,73.00
             314.50,84.73 317.94,100.12 330.01,105.07
             334.22,106.80 336.64,107.14 341.00,106.00
             341.00,106.00 340.00,100.83 340.00,100.83
             341.81,100.98 344.24,101.02 346.00,100.83
             350.97,99.62 352.65,95.69 353.30,91.00
             353.89,86.81 351.95,86.09 352.00,80.00
             347.17,75.18 345.67,69.15 339.96,64.53 Z
           M 153.26,62.15
           C 154.46,66.89 147.21,68.99 146.08,76.96
             144.16,90.43 143.83,125.44 144.00,140.00
             144.04,142.95 145.00,154.80 146.17,156.94
             150.67,165.11 161.83,154.88 165.92,161.49
             168.64,165.90 161.56,166.85 159.00,167.00
             159.00,167.00 161.00,163.00 161.00,163.00
             145.14,159.19 137.22,176.94 121.00,178.00
             123.71,173.94 126.62,170.56 128.54,166.00
             133.37,154.53 132.00,142.19 132.00,130.00
             124.20,133.72 122.55,141.22 116.00,142.07
             109.07,142.96 104.96,134.58 103.68,129.00
             100.38,114.64 106.84,98.91 107.00,85.00
             107.04,81.13 107.30,76.42 105.15,73.02
             102.05,68.20 98.69,67.92 96.00,73.02
             102.58,75.31 97.35,79.09 94.60,76.38
             91.44,73.28 94.43,65.53 102.28,66.53
             109.56,67.45 113.49,73.40 115.10,80.00
             117.99,91.81 115.95,101.46 116.00,113.00
             116.02,117.71 118.72,134.46 126.71,128.51
             130.98,125.34 131.97,120.91 132.77,116.00
             132.77,116.00 132.77,86.00 132.77,86.00
             132.96,82.94 132.73,78.82 131.49,76.00
             128.70,69.64 124.04,70.45 121.00,66.00
             131.56,70.06 141.58,71.62 151.00,64.00
             151.00,64.00 147.00,63.00 147.00,63.00
             149.00,57.50 152.71,60.00 153.26,62.15 Z
           M 405.23,64.60
           C 403.72,61.97 405.77,59.26 409.29,59.63
             413.93,60.13 415.44,63.38 422.00,63.00
             418.23,72.88 406.90,67.51 405.23,64.60 Z
           M 526.00,61.00
           C 526.00,61.00 527.00,65.00 527.00,65.00
             527.00,65.00 522.00,66.00 522.00,66.00
             523.71,67.84 524.75,69.21 527.09,70.35
             530.96,72.22 547.44,72.19 552.00,71.39
             556.89,70.52 562.16,68.14 567.00,70.00
             555.55,76.71 558.99,80.27 557.72,91.00
             557.72,91.00 557.00,118.00 557.00,118.00
             556.97,121.93 557.56,131.57 558.89,134.99
             560.06,137.98 562.94,140.46 565.00,143.00
             554.28,141.59 548.63,139.55 538.00,143.00
             538.00,143.00 539.00,148.00 539.00,148.00
             539.00,148.00 533.00,148.00 533.00,148.00
             533.74,138.98 538.48,141.72 541.98,135.00
             544.22,130.70 545.10,112.93 544.00,108.00
             540.84,108.78 535.85,108.95 533.74,111.43
             531.62,113.92 532.04,119.55 531.33,123.00
             529.66,131.19 526.81,140.78 519.83,146.01
             515.24,149.45 508.26,149.08 508.37,142.00
             508.44,137.44 513.28,132.10 517.08,130.00
             515.79,133.42 513.15,137.68 517.08,140.60
             518.30,141.19 519.45,141.39 520.73,140.60
             522.90,139.80 524.14,136.15 524.66,134.00
             525.67,129.74 525.21,115.84 522.98,112.22
             521.49,109.79 517.53,108.32 515.00,107.00
             516.12,103.42 516.40,103.13 520.00,102.00
             520.00,102.00 520.00,107.00 520.00,107.00
             520.00,107.00 523.00,107.00 523.00,107.00
             523.00,92.30 523.02,87.28 532.00,75.00
             524.74,71.92 519.92,71.01 521.00,62.00
             521.00,62.00 526.00,61.00 526.00,61.00 Z
           M 684.00,61.00
           C 682.93,63.87 683.04,63.80 680.00,64.00
             682.69,72.87 690.66,70.92 698.00,71.10
             705.86,71.28 706.13,71.21 714.00,69.74
             717.76,69.04 720.23,67.75 724.00,69.00
             720.76,71.33 717.72,73.19 716.15,77.04
             714.39,81.33 715.28,87.28 714.83,92.00
             713.98,100.90 712.91,126.28 715.89,134.00
             717.24,137.49 720.61,140.09 723.00,143.00
             712.34,140.38 705.69,139.99 694.95,142.00
             695.24,143.41 695.80,145.05 694.95,146.38
             693.66,148.18 690.62,147.44 690.63,144.87
             690.64,140.51 697.17,139.04 699.27,133.96
             700.49,131.00 701.96,112.01 702.00,108.00
             698.10,108.04 693.41,107.85 690.74,111.28
             688.58,114.04 689.15,118.57 688.54,122.00
             687.02,130.58 683.49,141.36 675.71,146.20
             669.89,149.82 665.04,145.88 665.52,141.00
             665.99,136.31 670.07,132.03 674.00,130.00
             673.16,132.11 671.91,134.63 672.39,136.96
             673.84,143.99 679.79,139.66 681.53,135.42
             683.36,130.98 682.66,115.16 680.02,111.27
             678.05,108.38 674.33,108.29 673.25,105.77
             672.21,103.35 674.38,102.12 676.00,101.00
             676.00,101.00 679.00,107.00 679.00,107.00
             679.00,107.00 681.76,88.00 681.76,88.00
             681.76,88.00 689.00,74.00 689.00,74.00
             680.77,71.12 678.91,70.67 678.00,62.00
             678.00,62.00 684.00,61.00 684.00,61.00 Z
           M 152.00,63.00
           C 152.00,63.00 153.00,64.00 153.00,64.00
             153.00,64.00 153.00,63.00 153.00,63.00
             153.00,63.00 152.00,63.00 152.00,63.00 Z
           M 164.00,67.52
           C 170.74,66.16 175.50,72.22 176.96,78.00
             179.80,89.26 175.86,102.25 176.00,114.00
             176.08,120.36 178.93,129.99 185.04,133.13
             188.86,135.10 193.80,131.44 195.26,127.91
             196.07,125.96 195.99,123.10 196.00,121.00
             196.06,109.13 195.53,89.30 192.56,78.00
             191.79,75.09 191.18,73.65 188.86,71.63
             187.15,70.14 182.70,68.32 184.17,65.35
             184.69,64.29 185.95,63.52 187.06,63.23
             189.12,62.68 190.17,63.35 192.00,64.00
             192.00,64.00 192.00,66.00 192.00,66.00
             192.00,66.00 189.00,69.00 189.00,69.00
             189.00,69.00 212.00,66.00 212.00,66.00
             212.00,66.00 207.62,78.00 207.62,78.00
             206.04,85.04 207.13,107.10 207.62,115.00
             208.12,119.27 207.92,129.27 209.58,132.85
             212.81,139.81 221.31,131.38 223.00,141.00
             223.00,141.00 214.00,139.51 214.00,139.51
             214.00,139.51 196.00,148.00 196.00,148.00
             196.00,148.00 195.00,135.00 195.00,135.00
             191.36,137.60 187.83,141.60 184.04,143.52
             173.88,148.66 166.56,141.72 163.93,132.00
             159.96,117.37 168.61,103.07 170.70,89.00
             171.41,84.21 172.82,66.07 163.00,70.08
             161.45,70.71 160.26,71.95 159.00,73.00
             162.71,74.64 163.55,74.80 163.00,79.00
             152.97,76.53 159.29,68.47 164.00,67.52 Z
           M 223.76,71.14
           C 227.35,65.41 235.38,66.50 239.15,71.14
             242.19,75.03 242.94,81.28 243.00,86.00
             243.00,86.00 241.01,113.00 241.01,113.00
             241.17,119.69 243.41,128.13 249.17,132.19
             253.82,135.46 259.20,131.76 260.79,126.96
             261.08,125.18 261.00,121.92 260.79,120.00
             261.02,109.33 260.45,87.85 257.75,78.00
             255.33,69.19 247.34,69.92 249.40,65.24
             250.87,61.91 254.51,63.08 257.00,64.00
             257.00,64.00 255.00,69.00 255.00,69.00
             255.00,69.00 279.00,67.00 279.00,67.00
             276.13,69.51 274.68,71.32 273.41,75.00
             270.60,83.16 272.24,106.29 272.72,115.74
             272.89,119.09 273.47,130.35 274.59,132.85
             277.01,138.23 283.27,134.17 286.58,136.81
             289.20,138.90 286.40,143.11 283.00,138.00
             283.00,138.00 262.00,148.00 262.00,148.00
             262.00,148.00 260.00,134.00 260.00,134.00
             256.53,137.46 251.69,142.72 247.00,144.30
             235.88,148.04 229.22,137.64 228.17,128.00
             226.78,115.19 232.81,103.25 235.33,91.00
             237.26,81.64 235.38,77.29 236.00,71.00
             230.14,69.04 228.30,67.37 225.00,74.00
             225.00,74.00 229.00,74.00 229.00,74.00
             227.44,82.93 220.20,76.64 223.76,71.14 Z
           M 32.42,113.41
           C 34.32,111.20 38.21,110.66 40.31,107.78
             43.26,104.01 41.55,87.64 40.31,83.00
             37.48,73.50 30.99,71.16 33.37,66.15
             37.05,58.39 54.22,66.85 42.00,69.00
             42.00,69.00 41.00,64.00 41.00,64.00
             32.02,67.78 37.44,72.13 42.00,72.47
             52.48,72.86 66.47,64.71 79.99,72.47
             93.61,80.56 88.19,98.06 73.00,102.00
             73.00,102.00 73.00,104.00 73.00,104.00
             75.57,104.52 79.64,105.33 81.89,106.57
             91.24,111.68 84.47,122.67 80.92,129.00
             78.34,133.29 73.57,141.94 80.92,144.36
             89.23,147.02 87.24,137.27 87.26,137.15
             87.50,135.39 88.91,134.19 90.60,134.74
             94.36,135.88 92.14,141.85 90.60,143.81
             86.51,148.43 78.32,147.90 74.19,143.81
             64.32,134.19 72.86,122.64 70.77,115.00
             69.64,110.87 63.95,106.11 59.59,107.18
             54.24,108.49 55.65,114.08 55.91,118.00
             56.62,128.61 56.09,137.03 65.01,144.78
             66.33,145.92 74.46,150.40 70.40,152.84
             66.71,155.05 67.68,148.28 60.00,144.88
             47.43,139.32 43.18,142.13 31.00,144.00
             33.80,139.83 37.26,140.73 39.91,136.79
             43.43,131.57 42.12,117.37 42.00,111.00
             36.27,113.33 36.76,114.54 35.00,120.00
             32.43,118.42 29.67,116.62 32.42,113.41 Z
           M 572.45,150.16
           C 567.94,148.57 574.05,143.54 576.00,142.57
             581.70,139.72 588.62,141.09 592.20,134.98
             595.43,129.47 588.92,119.17 586.42,114.00
             580.54,101.80 573.61,84.36 582.79,72.04
             583.98,70.44 585.42,68.90 587.04,67.74
             593.99,62.71 603.53,71.50 609.00,75.81
             610.77,77.20 613.70,79.93 615.99,80.06
             618.72,80.22 622.06,76.65 624.09,75.00
             627.11,72.55 638.40,65.17 642.00,65.13
             649.53,65.04 654.70,76.58 654.66,83.00
             654.61,91.33 653.63,100.09 650.92,108.00
             650.92,108.00 643.79,126.00 643.79,126.00
             643.79,126.00 643.00,136.00 643.00,136.00
             647.47,137.88 654.92,141.35 657.85,134.89
             658.42,133.21 658.02,128.12 657.85,126.00
             663.41,126.95 664.54,131.48 661.40,135.70
             658.23,139.97 652.78,141.30 647.83,142.05
             647.83,142.05 618.00,141.02 618.00,141.02
             618.00,141.02 606.00,142.00 606.00,142.00
             606.00,142.00 584.00,143.18 584.00,143.18
             584.00,143.18 574.00,145.00 574.00,145.00
             574.00,145.00 576.00,150.16 576.00,150.16
             574.83,150.26 573.70,150.80 572.45,150.16 Z
           M 214.00,66.00
           C 214.00,66.00 213.00,67.00 213.00,67.00
             213.00,67.00 213.00,66.00 213.00,66.00
             213.00,66.00 214.00,66.00 214.00,66.00 Z
           M 465.00,67.00
           C 465.00,67.00 499.00,67.00 499.00,67.00
             502.18,67.06 505.00,67.05 506.83,70.15
             509.17,74.12 506.40,84.08 506.00,89.00
             507.94,88.81 509.97,88.36 511.67,89.69
             514.42,91.86 512.94,95.41 509.94,96.34
             506.23,97.50 503.34,94.25 502.43,91.00
             501.09,86.20 503.71,67.84 494.02,70.65
             487.81,72.46 488.07,82.71 488.00,88.00
             488.00,88.00 488.00,109.00 488.00,109.00
             488.00,109.00 488.84,121.72 488.84,121.72
             488.83,133.21 489.50,138.08 500.00,144.00
             500.00,144.00 500.00,148.00 500.00,148.00
             500.00,148.00 496.00,149.00 496.00,149.00
             491.76,135.03 471.71,144.46 465.00,142.00
             476.26,140.94 474.33,135.76 475.17,127.00
             475.17,127.00 476.00,102.00 476.00,102.00
             476.00,102.00 475.04,90.00 475.04,90.00
             474.82,85.22 475.06,73.56 470.85,70.78
             467.32,68.45 464.24,70.80 462.57,74.04
             459.50,80.00 461.98,84.67 459.94,92.00
             459.27,94.42 456.77,99.61 453.20,97.83
             451.13,96.63 452.41,93.73 453.20,92.00
             453.20,92.00 456.00,93.00 456.00,93.00
             458.16,83.22 448.16,67.29 465.00,67.00 Z
           M 432.00,79.00
           C 424.78,77.48 421.42,76.03 422.00,68.00
             428.29,68.88 433.43,71.97 432.00,79.00 Z
           M 407.00,74.00
           C 407.00,74.00 398.00,75.00 398.00,75.00
             399.14,68.50 404.09,68.83 407.00,74.00 Z
           M 66.00,99.52
           C 68.22,97.72 70.41,95.60 71.69,93.00
             73.81,88.66 73.40,80.05 70.30,76.23
             67.64,72.93 60.96,71.55 58.16,75.43
             57.04,76.98 56.36,81.04 56.04,83.00
             56.04,83.00 55.25,91.00 55.25,91.00
             55.25,91.00 56.00,104.00 56.00,104.00
             60.53,103.25 62.34,102.47 66.00,99.52 Z
           M 531.86,97.01
           C 532.11,100.09 531.49,104.65 535.23,105.70
             547.64,109.21 544.12,89.68 544.00,83.00
             543.91,78.37 543.67,77.78 541.00,74.00
             530.22,80.35 530.97,86.10 531.86,97.01 Z
           M 700.08,103.26
           C 701.53,101.60 701.29,99.03 701.20,97.00
             701.01,92.86 701.85,78.03 699.26,75.64
             697.02,73.58 694.09,75.43 692.39,77.23
             688.85,80.97 689.01,85.23 689.00,90.00
             689.00,90.00 689.00,96.00 689.00,96.00
             689.06,100.53 689.43,101.70 690.00,106.00
             692.53,105.66 698.41,105.18 700.08,103.26 Z
           M 403.00,81.00
           C 394.42,84.76 388.44,86.50 385.00,76.00
             392.54,72.92 397.75,74.83 403.00,81.00 Z
           M 415.42,84.11
           C 407.99,77.95 416.02,68.56 420.90,79.02
             420.90,79.02 424.00,87.00 424.00,87.00
             421.35,86.32 417.48,85.83 415.42,84.11 Z
           M 608.44,138.15
           C 611.56,135.40 610.96,127.87 611.00,124.00
             611.00,124.00 611.74,111.28 611.74,111.28
             611.74,111.28 610.00,91.00 610.00,91.00
             609.41,87.93 608.97,83.61 607.26,81.04
             604.90,77.49 599.25,74.06 595.85,78.31
             594.05,80.57 594.04,84.25 594.00,87.00
             593.81,103.22 598.09,108.15 598.91,121.00
             599.40,128.61 597.23,132.09 596.00,139.00
             599.73,139.30 605.37,140.84 608.44,138.15 Z
           M 639.52,110.00
           C 641.95,101.12 643.69,91.54 639.52,83.00
             636.81,78.12 630.41,73.24 626.09,79.28
             623.46,82.94 623.96,90.55 624.00,95.00
             624.00,95.00 625.72,125.00 625.72,125.00
             626.14,128.27 626.63,136.06 628.85,138.40
             630.69,140.34 638.50,140.15 642.00,141.00
             642.00,141.00 639.00,127.00 639.00,127.00
             635.92,122.72 638.49,114.89 639.52,110.00 Z
           M 350.00,77.00
           C 350.00,77.00 351.00,78.00 351.00,78.00
             351.00,78.00 351.00,77.00 351.00,77.00
             351.00,77.00 350.00,77.00 350.00,77.00 Z
           M 309.00,80.00
           C 309.00,80.00 305.22,91.00 305.22,91.00
             305.22,91.00 304.00,106.00 304.00,106.00
             300.24,94.39 304.44,94.18 300.00,91.00
             301.47,85.40 302.05,79.42 309.00,80.00 Z
           M 428.20,86.90
           C 427.45,84.76 427.91,81.70 430.88,82.18
             433.36,82.59 435.08,85.78 435.55,88.00
             436.34,91.82 434.66,103.42 433.00,107.00
             433.00,107.00 431.00,107.00 431.00,107.00
             426.15,97.76 427.19,99.28 433.00,91.00
             430.62,90.09 429.14,89.57 428.20,86.90 Z
           M 358.79,94.41
           C 360.55,93.10 364.96,88.09 362.35,85.98
             360.87,84.78 356.89,85.01 355.00,85.00
             355.00,85.00 355.00,96.00 355.00,96.00
             356.64,95.51 357.30,95.52 358.79,94.41 Z
           M 404.71,90.00
           C 404.92,88.29 405.48,85.29 407.42,84.72
             410.10,83.93 412.11,86.82 412.69,89.02
             413.97,93.94 412.32,98.74 410.00,103.00
             405.84,99.54 404.03,95.51 404.71,90.00 Z
           M 315.00,87.00
           C 315.00,87.00 316.00,88.00 316.00,88.00
             316.00,88.00 316.00,87.00 316.00,87.00
             316.00,87.00 315.00,87.00 315.00,87.00 Z
           M 401.00,99.00
           C 393.41,98.39 392.35,94.99 392.00,88.00
             400.05,88.28 400.38,91.60 401.00,99.00 Z
           M 418.86,94.06
           C 419.14,92.37 420.43,89.98 422.49,91.17
             426.16,93.28 424.21,100.08 423.00,103.00
             423.00,103.00 421.00,103.00 421.00,103.00
             419.71,100.27 418.33,97.17 418.86,94.06 Z
           M 370.00,103.00
           C 370.00,103.00 371.00,104.00 371.00,104.00
             371.00,104.00 371.00,103.00 371.00,103.00
             371.00,103.00 370.00,103.00 370.00,103.00 Z
           M 394.82,110.00
           C 395.40,103.94 400.24,102.33 401.93,104.62
             404.79,108.46 397.61,115.03 394.82,117.00
             394.82,117.00 394.82,110.00 394.82,110.00 Z
           M 418.00,104.00
           C 421.68,112.00 418.75,117.04 412.00,122.00
             409.96,114.27 408.94,107.17 418.00,104.00 Z
           M 308.00,115.00
           C 308.00,115.00 305.00,107.00 305.00,107.00
             310.42,107.95 310.82,110.60 308.00,115.00 Z
           M 423.41,117.44
           C 426.94,113.73 423.19,110.34 431.00,109.00
             430.43,116.01 428.41,115.72 424.63,121.00
             423.41,122.70 421.94,125.89 420.37,127.01
             419.15,127.87 418.33,127.77 417.00,128.00
             417.00,128.00 417.00,120.00 417.00,120.00
             419.20,119.53 421.77,119.16 423.41,117.44 Z
           M 330.00,127.00
           C 330.00,127.00 328.00,127.00 328.00,127.00
             325.21,121.55 323.37,119.22 325.00,113.00
             330.92,116.56 331.81,120.56 330.00,127.00 Z
           M 407.00,115.00
           C 407.60,121.33 407.10,123.87 402.00,128.00
             399.06,121.66 398.49,115.71 407.00,115.00 Z
           M 315.00,118.00
           C 315.00,118.00 316.00,125.00 316.00,125.00
             316.00,125.00 315.00,126.00 315.00,126.00
             315.00,126.00 313.00,126.00 313.00,126.00
             313.00,126.00 311.00,118.00 311.00,118.00
             311.00,118.00 315.00,118.00 315.00,118.00 Z
           M 397.00,123.00
           C 396.60,129.74 394.82,132.55 388.00,134.00
             388.19,126.60 389.40,124.27 397.00,123.00 Z
           M 412.00,127.00
           C 414.18,132.64 412.24,133.92 407.00,136.00
             406.48,130.78 406.88,128.89 412.00,127.00 Z
           M 383.00,132.00
           C 381.93,137.00 380.98,138.50 376.00,140.00
             376.63,134.60 377.46,132.92 383.00,132.00 Z
           M 394.09,139.00
           C 395.64,128.59 406.52,132.00 401.26,139.95
             400.61,140.94 399.82,141.75 398.89,142.49
             397.32,143.75 395.81,144.26 394.09,145.00
             394.09,145.00 394.09,139.00 394.09,139.00 Z
           M 391.00,140.00
           C 390.53,147.98 387.78,147.41 380.00,150.00
             380.88,142.41 383.90,141.03 391.00,140.00 Z
           M 376.00,145.00
           C 375.18,152.12 372.13,153.99 366.00,157.00
             366.10,148.88 367.39,145.81 376.00,145.00 Z
           M 383.00,146.00
           C 383.00,146.00 384.00,147.00 384.00,147.00
             384.00,147.00 384.00,146.00 384.00,146.00
             384.00,146.00 383.00,146.00 383.00,146.00 Z" />
</svg>
